<svg xmlns:dc="http://purl.org/dc/elements/1.1/" xmlns:cc="http://creativecommons.org/ns#" xmlns:rdf="http://www.w3.org/1999/02/22-rdf-syntax-ns#" xmlns:svg="http://www.w3.org/2000/svg" xmlns="http://www.w3.org/2000/svg" xmlns:sodipodi="http://sodipodi.sourceforge.net/DTD/sodipodi-0.dtd" xmlns:inkscape="http://www.inkscape.org/namespaces/inkscape" version="1.1" x="0px" y="0px" viewBox="0 0 100 125"><g transform="translate(0,-952.36218)"><path fill="lightgrey" style="font-size:medium;font-style:normal;font-variant:normal;font-weight:normal;font-stretch:normal;text-indent:0;text-align:start;text-decoration:none;line-height:normal;letter-spacing:normal;word-spacing:normal;text-transform:none;direction:ltr;block-progression:tb;writing-mode:lr-tb;text-anchor:start;baseline-shift:baseline;opacity:1;color:lightgrey;fill:lightgrey;fill-opacity:1;stroke:none;stroke-width:3.88888860000000000;marker:none;visibility:visible;display:inline;overflow:visible;enable-background:accumulate;font-family:Sans;-inkscape-font-specification:Sans" d="M 53 12 C 34.19863 12 19 27.19863 19 46 C 19 48.61662 19.285976 51.14905 19.84375 53.59375 C 21.611658 49.16265 25.955052 46 31 46 C 37.603762 46 43 51.3965 43 58 C 43 62.6483 40.323823 66.6965 36.4375 68.6875 C 42.572808 70.2503 47.671775 74.40575 50.53125 79.90625 C 51.345788 79.96325 52.171694 80 53 80 C 71.80137 80 87 64.80142 87 46 C 87 27.19863 71.80137 12 53 12 z M 52.78125 20.96875 A 2.0002 2.0002 0 0 1 55 23 L 55 45.15625 L 70.40625 60.5625 A 2.0002 2.0002 0 1 1 67.59375 63.40625 L 51.59375 47.40625 A 2.0002 2.0002 0 0 1 51 46 L 51 23 A 2.0002 2.0002 0 0 1 52.78125 20.96875 z M 31 50 C 26.558069 50 23 53.5583 23 58 C 23 62.4421 26.558021 66 31 66 C 35.441978 66 39 62.4421 39 58 C 39 53.5583 35.44193 50 31 50 z M 31 72 C 21.717024 72 14.216473 78.9897 13.21875 88 L 48.78125 88 C 47.783527 78.9897 40.28298 72 31 72 z " transform="translate(0,952.36218)"/></g></svg>
