<svg xmlns="http://www.w3.org/2000/svg" viewBox="0 0 58 58"><defs><style>.cls-2{fill:none;clip-path:url(#clip-path);clip-rule:evenodd}</style><clipPath id="clip-path"><path fill="none" d="M0 0h6885v2430H0z"/></clipPath><clipPath id="clip-path-3" transform="translate(-2563 -1762)"><path class="cls-2" d="M2592 1815a24 24 0 1 0-24-24 24 24 0 0 0 24 24z"/></clipPath><clipPath id="clip-path-4" transform="translate(-2563 -1762)"><path class="cls-2" d="M2592.5 1794a9.5 9.5 0 1 0-9.5-9.5 9.5 9.5 0 0 0 9.5 9.5z"/></clipPath></defs><g id="Calque_2" data-name="Calque 2"><g id="Calque_1-2" data-name="Calque 1"><g clip-path="url(#clip-path-3)"><path fill="#3a5fff" d="M0 0h58v58H0z"/></g><g clip-path="url(#clip-path-4)"><path d="M29.5 32a9.5 9.5 0 1 0-9.5-9.5 9.5 9.5 0 0 0 9.5 9.5z" stroke-width="4" stroke="#fff" stroke-miterlimit="10" fill="none"/></g><path d="M49 44.05c-4-4.09-10.66-7-19.37-7-9 0-15.9 3.17-19.63 7.48" stroke-width="2" stroke="#fff" stroke-miterlimit="10" fill="none"/></g></g></svg>