<svg xmlns="http://www.w3.org/2000/svg" xmlns:xlink="http://www.w3.org/1999/xlink" width="150" height="150"><defs><path id="a" d="M0 .105h149.898V150H0z"/></defs><g fill="none" fill-rule="evenodd"><path fill="#075FFD" d="M75.111 149.001l.111-.001H75l.111.001"/><mask id="b" fill="#fff"><use xlink:href="#a"/></mask><path fill="#FFF" d="M.837 75.888A.837.837 0 0 1 0 75.051c0-9.964 1.664-19.476 4.947-28.273 3.195-8.562 7.85-16.265 13.837-22.893 5.967-6.607 13.098-11.974 21.196-15.95C48.249 3.872 57.33 1.36 66.972.47a86.761 86.761 0 0 1 7.977-.365c11.342 0 22.04 2.141 31.796 6.365 7.401 3.203 14.106 7.553 19.928 12.926a.837.837 0 0 1-1.135 1.23c-5.683-5.245-12.23-9.49-19.459-12.62-9.545-4.132-20.019-6.227-31.13-6.227-2.628 0-5.26.12-7.823.358-9.438.873-18.323 3.33-26.408 7.3-7.906 3.883-14.868 9.12-20.691 15.57C8.02 38.3 1.674 55.605 1.674 75.05a.837.837 0 0 1-.837.837M74.95 15.216c-34.881 0-59.243 24.605-59.243 59.835 0 35.23 24.362 59.836 59.243 59.836s59.242-24.605 59.242-59.836c0-35.23-24.36-59.835-59.242-59.835m0 121.345c-17.215 0-32.753-6.07-43.75-17.094-11.07-11.095-17.167-26.87-17.167-44.416 0-17.545 6.097-33.32 17.167-44.415 10.998-11.023 26.535-17.094 43.75-17.094 35.867 0 60.917 25.293 60.917 61.51 0 36.215-25.05 61.509-60.917 61.509m43.152.725a.837.837 0 0 1-.471-1.53 68.066 68.066 0 0 0 10.482-8.784c5.819-5.971 10.483-12.949 13.862-20.737 4.147-9.56 6.25-20.051 6.25-31.184a.837.837 0 1 1 1.674 0c0 11.363-2.15 22.079-6.389 31.85-3.46 7.976-8.237 15.122-14.198 21.24a69.892 69.892 0 0 1-10.74 9 .833.833 0 0 1-.47.145m-78.23 4.733a.833.833 0 0 1-.375-.09 70.391 70.391 0 0 1-16.84-11.752 69.787 69.787 0 0 1-8.464-9.61.836.836 0 1 1 1.353-.987 68.114 68.114 0 0 0 8.26 9.38 68.72 68.72 0 0 0 16.44 11.473.837.837 0 0 1-.375 1.586m63.084 3.078a.838.838 0 0 1-.293-1.621 72.32 72.32 0 0 0 4.457-1.837.838.838 0 0 1 .69 1.526 74.174 74.174 0 0 1-4.561 1.88.84.84 0 0 1-.293.052M74.986 150h-.074a.837.837 0 1 1 0-1.674h.074a82.796 82.796 0 0 0 15.334-1.417.836.836 0 1 1 .312 1.645c-5.05.957-10.314 1.444-15.646 1.446" mask="url(#b)"/><path fill="#5020ee" d="M75.501 105.496c-16.724 0-28.334-11.36-28.334-29.496 0-17.736 11.61-29.496 28.334-29.496 16.921 0 28.332 11.76 28.332 29.496 0 18.137-11.411 29.496-28.332 29.496M75.5 33C49.802 33 33 49.722 33 76s16.802 43 42.5 43S118 102.278 118 76s-16.802-43-42.5-43"/><path fill="#075FFD" d="M75.401 87C68.602 87 64 82 64 75.6S68.602 64 75.401 64C82.2 64 87 69.2 87 75.6 87 82 82.2 87 75.401 87"/><path fill="#5020ee" d="M75.401 64C68.602 64 64 69.2 64 75.599 64 81.999 68.602 87 75.401 87 82.2 87 87 82 87 75.599 87 69.2 82.2 64 75.401 64"/></g></svg>