<?xml version="1.0" encoding="utf-8"?>
<!-- Generator: Adobe Illustrator 16.0.0, SVG Export Plug-In . SVG Version: 6.00 Build 0)  -->
<!DOCTYPE svg PUBLIC "-//W3C//DTD SVG 1.1//EN" "http://www.w3.org/Graphics/SVG/1.1/DTD/svg11.dtd">
<svg version="1.1" id="Calque_1" xmlns="http://www.w3.org/2000/svg" xmlns:xlink="http://www.w3.org/1999/xlink" x="0px" y="0px"
	 width="16px" height="16px" viewBox="504 376 16 16" enable-background="new 504 376 16 16" xml:space="preserve">
<g>
	<path d="M519.557,377.956l-1.244-1.512c-0.179-0.266-0.534-0.444-0.979-0.444h-10.667c-0.444,0-0.8,0.178-1.066,0.444l-1.156,1.512
		c-0.266,0.356-0.444,0.71-0.444,1.156v11.111c0,0.977,0.8,1.776,1.778,1.776h12.444c0.978,0,1.777-0.8,1.777-1.777v-11.11
		C520,378.667,519.822,378.312,519.557,377.956L519.557,377.956z M512,388.889L507.112,384h3.112v-1.778h3.556V384h3.111
		L512,388.889L512,388.889z M505.866,377.778l0.712-0.888h10.666l0.8,0.888H505.866L505.866,377.778z"/>
</g>
</svg>
