<?xml version="1.0" encoding="utf-8"?>
<!-- Generator: Adobe Illustrator 16.0.0, SVG Export Plug-In . SVG Version: 6.00 Build 0)  -->
<!DOCTYPE svg PUBLIC "-//W3C//DTD SVG 1.1//EN" "http://www.w3.org/Graphics/SVG/1.1/DTD/svg11.dtd">
<svg version="1.1" id="Calque_1" xmlns="http://www.w3.org/2000/svg" xmlns:xlink="http://www.w3.org/1999/xlink" x="0px" y="0px"
	 width="25px" height="25px" viewBox="0 0 25 25" enable-background="new 0 0 25 25" xml:space="preserve">
<g>
	<path fill="#3860FF" d="M18.895,4.809H6.308c-0.307,0-0.558,0.251-0.558,0.559v14.557c0,0.308,0.251,0.558,0.558,0.558h10.527
		c0.309,0,0.561-0.25,0.561-0.558V9.561h1.5c0.309,0,0.561-0.25,0.561-0.559V5.367C19.456,5.06,19.204,4.809,18.895,4.809z
		 M18.336,8.443h-1.502c-0.307,0-0.559,0.249-0.559,0.559v10.363H6.867V5.926h11.469V8.443z"/>
	<path fill="#3860FF" d="M8.39,17.83h6.363c0.125,0,0.225-0.1,0.225-0.224s-0.1-0.224-0.225-0.224H8.39
		c-0.123,0-0.224,0.1-0.224,0.224S8.267,17.83,8.39,17.83z"/>
	<path fill="#3860FF" d="M8.39,15.646h6.363c0.125,0,0.225-0.1,0.225-0.224s-0.1-0.222-0.225-0.222H8.39
		c-0.123,0-0.224,0.098-0.224,0.222S8.267,15.646,8.39,15.646z"/>
	<path fill="#3860FF" d="M10.109,9.712c0,0.14,0.106,0.254,0.239,0.254c0.001,0,0.003,0,0.004,0
		c0.049,0.669,0.575,1.337,1.219,1.337s1.17-0.668,1.219-1.337c0.001,0,0.003,0,0.005,0c0.132,0,0.238-0.114,0.238-0.254
		c0-0.104-0.058-0.191-0.141-0.231c0.048-0.15,0.074-0.311,0.074-0.479c0-0.816-0.625-1.479-1.396-1.479
		c-0.77,0-1.395,0.663-1.395,1.479c0,0.168,0.026,0.328,0.074,0.479C10.168,9.521,10.109,9.608,10.109,9.712z"/>
	<path fill="#3860FF" d="M8.607,13.675h5.928c0.072,0,0.129-0.059,0.129-0.131v-0.465c0-0.036-0.012-0.069-0.039-0.093
		c-0.568-0.554-1.265-0.945-2.013-1.131c-0.02-0.01-0.04-0.016-0.062-0.016h-0.066c-0.021,0-0.043,0.006-0.062,0.016
		c-0.227,0.121-0.536,0.19-0.851,0.19s-0.623-0.069-0.851-0.19c-0.019-0.01-0.04-0.016-0.062-0.016H10.61
		c-0.01,0-0.021,0.002-0.029,0.002c-0.768,0.183-1.481,0.579-2.064,1.145c-0.025,0.023-0.039,0.057-0.039,0.093v0.465
		C8.478,13.616,8.534,13.675,8.607,13.675z"/>
	<path fill="#3860FF" d="M18.895,10.388h-0.986v4.515h0.986c0.309,0,0.561-0.25,0.561-0.559v-3.396
		C19.456,10.639,19.204,10.388,18.895,10.388z"/>
	<path fill="#3860FF" d="M18.895,15.73h-0.986v4.751h0.986c0.309,0,0.561-0.25,0.561-0.558v-3.635
		C19.456,15.979,19.204,15.73,18.895,15.73z"/>
</g>
</svg>
