<?xml version="1.0" encoding="UTF-8"?>
<svg width="16" height="16" version="1.1" xmlns="http://www.w3.org/2000/svg">
 <g transform="matrix(1.0145 0 0 1.0127 1 0)" fill="#bdbdbd" fill-rule="evenodd">
  <path d="m0.59998 0h12.5c0.40002 0 0.50004 0.29999 0.70001 0.50001v3.6c0 0.39999-0.29999 0.59998-0.59998 0.59998h-1.5v10.4c0 0.39999-0.29999 0.59998-0.50004 0.59998h-10.5c-0.29999 0-0.59998-0.29999-0.59998-0.59998v-14.6c0-0.30002 0.29999-0.50001 0.59998-0.50001zm10.5 3.6h1.5v-2.5h-11.5v13.5h9.4v-10.4c0-0.39999 0.29999-0.50001 0.59998-0.50001z"/>
  <path d="m2.6 13h6.4c0.1 0 0.2-0.1 0.2-0.2s-0.1-0.2-0.2-0.2h-6.4c-0.1 0-0.2 0.1-0.2 0.2s0.1 0.2 0.2 0.2z"/>
  <path d="m2.6 10.8h6.4c0.1 0 0.2-0.1 0.2-0.2s-0.1-0.2-0.2-0.2h-6.4c-0.1 0-0.2 0.1-0.2 0.2s0.1 0.2 0.2 0.2z"/>
  <path d="m4.4 4.9c0 0.1 0.1 0.3 0.2 0.3 0 0.7 0.6 1.3 1.2 1.3 0.7 0 1.2-0.7 1.2-1.3 0.1 0 0.2-0.1 0.2-0.3 0-0.1-0.1-0.2-0.1-0.2 0-0.2 0.1-0.3 0.1-0.5 0-0.8-0.6-1.5-1.4-1.5s-1.4 0.7-1.4 1.5c0 0.2 0 0.3 0.1 0.5-0.1 0-0.1 0.1-0.1 0.2z"/>
  <path d="m2.9 8.9h5.9c0.1 0 0.1-0.1 0.1-0.1v-0.6c-0.6-0.6-1.3-1-2-1.2h-0.3c-0.2 0.2-0.5 0.2-0.8 0.2s-0.6 0-0.8-0.2h-0.1c-0.8 0.2-1.6 0.6-2.1 1.2v0.6c-0.1 0 0 0.1 0.1 0.1z"/>
  <path d="m13.1 5.6h-1v4.5h1c0.3 0 0.6-0.2 0.6-0.6v-3.4c0-0.3-0.2-0.5-0.6-0.5z"/>
  <path d="m13.1 10.9h-1v4.8h1c0.3 0 0.6-0.2 0.6-0.6v-3.6c0-0.3-0.2-0.6-0.6-0.6z"/>
 </g>
</svg>
