<?xml version="1.0" encoding="utf-8"?>
<!-- Generator: Adobe Illustrator 16.0.0, SVG Export Plug-In . SVG Version: 6.00 Build 0)  -->
<!DOCTYPE svg PUBLIC "-//W3C//DTD SVG 1.1//EN" "http://www.w3.org/Graphics/SVG/1.1/DTD/svg11.dtd">
<svg version="1.1" id="Calque_1" xmlns="http://www.w3.org/2000/svg" xmlns:xlink="http://www.w3.org/1999/xlink" x="0px" y="0px"
	 width="27px" height="25.166px" viewBox="0.427 -1.192 27 25.166" enable-background="new 0.427 -1.192 27 25.166"
	 xml:space="preserve">
<polyline fill="none" stroke="#3860FF" stroke-linecap="round" stroke-linejoin="round" stroke-miterlimit="10" points="
	9.288,2.221 16.637,2.221 18.565,2.221 20.447,2.221 24.629,2.221 "/>
<polyline fill="none" stroke="#171A44" stroke-linecap="round" stroke-miterlimit="10" points="24.629,11.523 24.629,9.252 
	24.629,6.861 3.263,6.861 "/>
<path fill="none" stroke="#171A44" stroke-linecap="round" stroke-miterlimit="10" d="M6.971,2.221H0.927v16.96
	c0,0.691,0.565,1.258,1.257,1.258h7.86"/>
<line fill="none" stroke="#3860FF" stroke-linecap="round" stroke-miterlimit="10" x1="6.971" y1="4.377" x2="6.971" y2="-0.692"/>
<line fill="none" stroke="#3860FF" stroke-linecap="round" stroke-miterlimit="10" x1="18.565" y1="-0.692" x2="18.565" y2="4.377"/>
<polyline fill="none" stroke="#3860FF" stroke-linejoin="round" stroke-miterlimit="10" points="19.833,12.975 19.833,17.073 
	22.41,17.073 "/>
<path fill="none" stroke="#3860FF" stroke-linecap="round" stroke-linejoin="round" stroke-miterlimit="10" d="M13.511,14.871
	c0.835-2.782,3.46-4.812,6.569-4.812c3.781,0,6.847,3.003,6.847,6.708c0,3.704-3.065,6.707-6.847,6.707
	c-1.042,0-2.029-0.229-2.913-0.636"/>
<polygon fill="none" stroke="#3860FF" stroke-linecap="round" stroke-linejoin="round" stroke-miterlimit="10" points="
	13.511,15.307 16.565,15.307 15.039,17.95 13.511,20.595 11.985,17.95 10.459,15.307 "/>
</svg>
