<?xml version="1.0" encoding="utf-8"?>
<!-- Generator: Adobe Illustrator 16.0.0, SVG Export Plug-In . SVG Version: 6.00 Build 0)  -->
<!DOCTYPE svg PUBLIC "-//W3C//DTD SVG 1.1//EN" "http://www.w3.org/Graphics/SVG/1.1/DTD/svg11.dtd">
<svg version="1.1" id="Calque_1" xmlns="http://www.w3.org/2000/svg" xmlns:xlink="http://www.w3.org/1999/xlink" x="0px" y="0px"
	 width="25px" height="25px" viewBox="0 0 25 25" enable-background="new 0 0 25 25" xml:space="preserve">
<g>
	<path fill="#bdbdbd" d="M9.442,17.338c0.29,0.19,0.875,0.412,1.565,0.412c1.547,0,2.252-0.981,2.252-1.896
		c0-0.632-0.339-1.169-0.882-1.456c0.432-0.306,0.669-0.749,0.669-1.271c0-0.776-0.562-1.558-1.819-1.558
		c-0.688,0-1.286,0.254-1.59,0.469c-0.089,0.064-0.125,0.181-0.087,0.284l0.204,0.543c0.026,0.07,0.085,0.125,0.157,0.146
		c0.072,0.022,0.15,0.009,0.213-0.035c0.204-0.146,0.58-0.318,0.959-0.318c0.466,0,0.722,0.208,0.722,0.587
		c0,0.504-0.588,0.688-0.983,0.688h-0.416c-0.134,0-0.242,0.109-0.242,0.243v0.559c0,0.136,0.108,0.244,0.242,0.244h0.416
		c0.195,0,1.17,0.041,1.179,0.862c0.005,0.21-0.073,0.411-0.212,0.553c-0.174,0.176-0.44,0.267-0.79,0.267
		c-0.464,0-0.906-0.191-1.094-0.305c-0.063-0.037-0.141-0.044-0.208-0.021c-0.068,0.025-0.122,0.079-0.146,0.147l-0.203,0.568
		C9.309,17.157,9.349,17.275,9.442,17.338z"/>
	<path fill="#bdbdbd" d="M14.143,13.179c0.02,0.072,0.07,0.133,0.139,0.164c0.07,0.029,0.148,0.026,0.213-0.01l0.615-0.332v4.413
		c0,0.134,0.109,0.242,0.244,0.242h0.721c0.135,0,0.244-0.108,0.244-0.242v-5.507c0-0.134-0.109-0.243-0.244-0.243H15.44
		c-0.041,0-0.08,0.01-0.115,0.029l-1.203,0.643c-0.1,0.054-0.148,0.166-0.121,0.275L14.143,13.179z"/>
	<path fill="#bdbdbd" d="M18.381,5.583h-1.225v1.118c0,0.426-0.344,0.771-0.77,0.771c-0.424,0-0.77-0.346-0.77-0.771V5.583h-4.752
		v1.118c0,0.426-0.346,0.771-0.771,0.771c-0.425,0-0.77-0.346-0.77-0.771V5.583H8.101c-0.825,0-1.496,0.672-1.496,1.497v12.072
		c0,0.826,0.671,1.497,1.496,1.497h10.281c0.826,0,1.496-0.671,1.496-1.497V7.08C19.877,6.255,19.208,5.583,18.381,5.583z
		 M18.903,19.152c0,0.289-0.232,0.522-0.521,0.522H8.101c-0.288,0-0.523-0.233-0.523-0.522V9.309h11.326V19.152z"/>
	<path fill="#bdbdbd" d="M10.094,6.985c0.158,0,0.283-0.127,0.283-0.284V5.583V4.926c0-0.156-0.125-0.284-0.283-0.284
		c-0.156,0-0.283,0.128-0.283,0.284v0.657v1.118C9.811,6.858,9.938,6.985,10.094,6.985z"/>
	<path fill="#bdbdbd" d="M16.387,6.985c0.156,0,0.283-0.127,0.283-0.284V4.926c0-0.156-0.127-0.284-0.283-0.284
		s-0.283,0.128-0.283,0.284v1.775C16.104,6.858,16.231,6.985,16.387,6.985z"/>
</g>
</svg>
