<?xml version="1.0" encoding="utf-8"?>
<!-- Generator: Adobe Illustrator 16.0.0, SVG Export Plug-In . SVG Version: 6.00 Build 0)  -->
<!DOCTYPE svg PUBLIC "-//W3C//DTD SVG 1.1//EN" "http://www.w3.org/Graphics/SVG/1.1/DTD/svg11.dtd">
<svg version="1.1" id="Calque_1" xmlns="http://www.w3.org/2000/svg" xmlns:xlink="http://www.w3.org/1999/xlink" x="0px" y="0px"
	 width="16px" height="17px" viewBox="5.241 4.146 16 17" enable-background="new 5.241 4.146 16 17" xml:space="preserve">
<g>
	<path fill="#BDBDBD" d="M9.206,17.629c0.308,0.201,0.929,0.438,1.662,0.438c1.644,0,2.392-1.041,2.392-2.014
		c0-0.67-0.36-1.241-0.937-1.546c0.459-0.325,0.711-0.797,0.711-1.35c0-0.824-0.597-1.655-1.932-1.655
		c-0.73,0-1.366,0.271-1.688,0.499c-0.095,0.068-0.133,0.192-0.093,0.302l0.217,0.577c0.027,0.074,0.09,0.133,0.167,0.155
		c0.076,0.023,0.16,0.009,0.226-0.038c0.217-0.155,0.616-0.338,1.019-0.338c0.495,0,0.767,0.221,0.767,0.624
		c0,0.535-0.625,0.731-1.044,0.731H10.23c-0.142,0-0.257,0.114-0.257,0.257v0.594c0,0.146,0.115,0.259,0.257,0.259h0.442
		c0.207,0,1.243,0.044,1.252,0.916c0.005,0.223-0.077,0.437-0.225,0.588c-0.184,0.187-0.467,0.283-0.839,0.283
		c-0.493,0-0.962-0.202-1.162-0.324c-0.067-0.04-0.149-0.046-0.221-0.021c-0.072,0.025-0.129,0.083-0.155,0.156l-0.215,0.603
		C9.065,17.438,9.107,17.563,9.206,17.629z"/>
	<path fill="#BDBDBD" d="M14.199,13.213c0.021,0.076,0.073,0.141,0.147,0.173c0.073,0.031,0.157,0.028,0.226-0.01l0.653-0.353v4.687
		c0,0.143,0.116,0.257,0.259,0.257h0.767c0.144,0,0.259-0.114,0.259-0.257v-5.849c0-0.143-0.115-0.258-0.259-0.258h-0.676
		c-0.043,0-0.084,0.01-0.12,0.031l-1.278,0.683c-0.106,0.058-0.157,0.177-0.128,0.292L14.199,13.213z"/>
	<path fill="#BDBDBD" d="M18.699,5.145h-1.3v1.187c0,0.453-0.365,0.819-0.818,0.819c-0.45,0-0.817-0.368-0.817-0.819V5.145h-5.048
		v1.187c0,0.453-0.367,0.819-0.818,0.819S9.08,6.784,9.08,6.332V5.145H7.782c-0.876,0-1.589,0.713-1.589,1.59v12.822
		c0,0.877,0.713,1.589,1.589,1.589H18.7c0.879,0,1.59-0.712,1.59-1.589V6.735C20.289,5.858,19.579,5.145,18.699,5.145z
		 M19.254,19.557c0,0.307-0.245,0.553-0.554,0.553H7.782c-0.306,0-0.555-0.246-0.555-0.553V9.102h12.029v10.455H19.254z"/>
	<path fill="#BDBDBD" d="M9.899,6.633c0.167,0,0.3-0.134,0.3-0.301V5.145V4.447c0-0.166-0.133-0.301-0.3-0.301
		c-0.166,0-0.301,0.136-0.301,0.301v0.698v1.187C9.598,6.499,9.733,6.633,9.899,6.633z"/>
	<path fill="#BDBDBD" d="M16.581,6.633c0.167,0,0.302-0.134,0.302-0.301V4.447c0-0.166-0.135-0.301-0.302-0.301
		c-0.165,0-0.3,0.136-0.3,0.301v1.885C16.281,6.499,16.416,6.633,16.581,6.633z"/>
</g>
</svg>
