<?xml version="1.0" encoding="UTF-8"?>
<svg width="16" height="16" version="1.1" xmlns="http://www.w3.org/2000/svg">
 <g transform="matrix(1 0 0 1.0263 0 1.5)">
  <path d="m15.6 3.0667c-0.1333-0.26669-0.53333-0.40002-0.93329-0.40002h-0.66669l-0.53332-2.4c0-0.13333-0.13336-0.13333-0.26666-0.26666l-7.2 1.4667c-0.26666-0.26666-0.53333-0.39999-0.93335-0.39999h-3.2c-0.66663 0-1.3333 0.53333-1.3333 1.3333v0.39999c-0.26666 0.26669-0.53333 0.66669-0.53333 1.2v7.3333c0 0.66666 0.53333 1.3333 1.3333 1.3333h12.533c0.40002-0.26666 0.80005-0.66666 0.80005-1.2v-0.13333l1.3333-7.3333c0-0.39999-0.13336-0.66666-0.40002-0.93332zm-2.6666-2.4 0.40002 2h-6.9333v-0.66666zm0.40002 10.8c0.1333 0 0.26666-0.13333 0.26666-0.26666l1.3333-7.3333v-0.13333h-12.133c-0.39996 0-0.39996 0.13333-0.39996 0.26666l-1.2 7.3333s0 0.13333 0.13336 0.13333z" fill="#bdbdbd" fill-rule="evenodd"/>
 </g>
</svg>
