<?xml version="1.0" encoding="utf-8"?>
<!-- Generator: Adobe Illustrator 16.0.0, SVG Export Plug-In . SVG Version: 6.00 Build 0)  -->
<!DOCTYPE svg PUBLIC "-//W3C//DTD SVG 1.1//EN" "http://www.w3.org/Graphics/SVG/1.1/DTD/svg11.dtd">
<svg version="1.1" id="Calque_1" xmlns="http://www.w3.org/2000/svg" xmlns:xlink="http://www.w3.org/1999/xlink" x="0px" y="0px"
	 width="27.855px" height="24.916px" viewBox="0 0 27.855 24.916" enable-background="new 0 0 27.855 24.916" xml:space="preserve">
<path fill="none" stroke="#171A44" stroke-miterlimit="10" d="M3.009,4.914H1.767C1.069,4.914,0.5,5.483,0.5,6.18v16.97
	c0,0.696,0.569,1.267,1.267,1.267h20.092c0.697,0,1.268-0.57,1.268-1.267v-2.962"/>
<polyline fill="none" stroke="#3860FF" stroke-linejoin="round" stroke-miterlimit="10" points="10.851,12.379 15.292,16.471 
	21.317,8.009 "/>
<path fill="none" stroke="#3860FF" stroke-linecap="round" stroke-miterlimit="10" d="M14.103,2.631V1.767
	c0-0.696-0.57-1.267-1.267-1.267H7.399h-1.32c-0.697,0-1.267,0.57-1.267,1.267v17.154c0,0.697,0.569,1.267,1.267,1.267h20.01
	c0.697,0,1.267-0.569,1.267-1.267V6.18c0-0.696-0.569-1.266-1.267-1.266H7.771"/>
</svg>
