<?xml version="1.0" encoding="utf-8"?>
<!-- Generator: Adobe Illustrator 16.0.0, SVG Export Plug-In . SVG Version: 6.00 Build 0)  -->
<!DOCTYPE svg PUBLIC "-//W3C//DTD SVG 1.1//EN" "http://www.w3.org/Graphics/SVG/1.1/DTD/svg11.dtd">
<svg version="1.1" id="Calque_1" xmlns="http://www.w3.org/2000/svg" xmlns:xlink="http://www.w3.org/1999/xlink" x="0px" y="0px"
	 width="25px" height="25px" viewBox="0 0 25 25" enable-background="new 0 0 25 25" xml:space="preserve">
<path fill="#3860FF" d="M22.276,8.767c-0.297-0.31-0.721-0.487-1.162-0.487h-0.816l-0.59-2.91c-0.021-0.104-0.084-0.195-0.172-0.254
	s-0.197-0.08-0.301-0.059l-8.659,1.755c-0.279-0.25-0.646-0.402-1.05-0.402H5.633c-0.87,0-1.578,0.708-1.578,1.578v0.556
	C3.624,8.829,3.352,9.314,3.352,9.858v8.806c0,0.003,0,0.005,0,0.007v0.004c0,0.864,0.708,1.568,1.578,1.568h14.667
	c0.055,0,0.107-0.003,0.16-0.008c0.01-0.002,0.02-0.003,0.029-0.005c0.043-0.006,0.086-0.012,0.127-0.02
	c0.006-0.001,0.012-0.004,0.02-0.005c0.045-0.01,0.09-0.021,0.133-0.034c0.002,0,0.004-0.002,0.006-0.003
	c0.543-0.17,0.957-0.624,1.07-1.185c0.002-0.002,0.002-0.003,0.002-0.006c0.01-0.045,0.016-0.091,0.021-0.138
	c0-0.013,0.002-0.025,0.004-0.039c0-0.021,0.004-0.041,0.006-0.062l1.508-8.78l0.01-0.085C22.709,9.459,22.561,9.064,22.276,8.767z
	 M19,5.922l0.479,2.357h-8.375V7.987c0-0.157-0.024-0.308-0.066-0.451L19,5.922z M19.848,18.562l-0.01,0.112
	c0,0.128-0.107,0.232-0.242,0.232H4.93c-0.12,0-0.221-0.084-0.238-0.193l1.504-8.755c0.02-0.12,0.059-0.344,0.479-0.344h14.439
	c0.078,0,0.152,0.029,0.197,0.076c0.027,0.028,0.041,0.061,0.045,0.1L19.848,18.562z"/>
</svg>
