<?xml version="1.0" encoding="UTF-8"?>
<svg width="16" height="16.01" version="1.1" xmlns="http://www.w3.org/2000/svg">
 <g transform="matrix(1.0284 0 0 1 4.5 0)" fill="#bdbdbd" fill-rule="evenodd">
  <path d="m1.7419 10.968v3.2903h3.2903v-3.2903c-0.45161-0.22581-1.0323-0.35484-1.6452-0.35484-0.6129 0-1.1935 0.12903-1.6452 0.35484z"/>
  <path d="m4.5161 6.0323c0.48387-0.16129 0.54839-0.41935 0.54839-0.64516v-0.83871c-0.45161 0.22581-1.0323 0.35484-1.6452 0.35484-0.6129 0-1.1935-0.12903-1.6452-0.35484v0.83871c0 0.22581 0.064516 0.48387 0.51613 0.64516 0.032258 0 0.032258 0.032258 0.064516 0.032258 0.51613 0.19355 0.83871 0.41935 1.0645 0.70968 0.19355-0.25806 0.51613-0.48387 1-0.67742 0-0.032258 0.064516-0.064516 0.096774-0.064516z"/>
  <path d="m5.2258 7.6129c-0.032257 0-0.064514 0.032257-0.096771 0.032257-0.2258 0.064514-0.29031 0.096771-0.32257 0.12903v0.4516c0.032257 0 0.032257 0.032257 0.064514 0.032257 1.2258 0.35486 1.9355 1.2258 1.9355 2.3549v4.8387c-1e-7 0.3226-0.25806 0.5484-0.5484 0.5484h-5.7097c-0.29034 0-0.5484-0.25806-0.5484-0.5484v-4.8387c0-1.0968 0.67743-1.9677 1.8387-2.3226 0.096771-0.032257 0.12903-0.064514 0.16129-0.064514v-0.4516c-0.032257 0-0.12903-0.064514-0.32257-0.12903-0.032257 0-0.032257-0.032257-0.064514-0.032257-1.0323-0.38712-1.6129-1.1936-1.6129-2.2258v-4.8387c0-0.3226 0.25806-0.5484 0.5484-0.5484h5.7097c0.29034 0 0.5484 0.25806 0.5484 0.5484v4.8387c0 1.0323-0.58066 1.8387-1.5807 2.2258zm-0.7742 1.6129c-0.64514-0.25806-0.74191-0.64514-0.74191-1.0323 0-0.064514 0-0.12903-0.032257-0.2258 0-0.64517 0.16129-1.0323 0.96774-1.3226 0 0 0.032257-0.032257 0.064514-0.032257 0.64514-0.22583 0.96774-0.64517 0.96774-1.2581v-4.2903h-4.6129v4.2581c0 0.61292 0.32257 1.0323 0.96774 1.2581 0 0.032257 0.032257 0.032257 0.032257 0.032257 0.83871 0.32257 1 0.6774 1 1.3548v0.2258c0 0.48389-0.16129 0.83871-0.83871 1.129h-0.032257c-0.70969 0.22583-1.0968 0.64517-1.0968 1.2903v4.2903h4.6129v-4.3226c0-0.64517-0.41937-1.0968-1.1936-1.3226 0 0-0.032257-0.032257-0.064514-0.032257z"/>
 </g>
</svg>
