<?xml version="1.0" encoding="UTF-8" standalone="no"?>
<!-- Created with Inkscape (http://www.inkscape.org/) -->

<svg
   xmlns:dc="http://purl.org/dc/elements/1.1/"
   xmlns:cc="http://creativecommons.org/ns#"
   xmlns:rdf="http://www.w3.org/1999/02/22-rdf-syntax-ns#"
   xmlns:svg="http://www.w3.org/2000/svg"
   xmlns="http://www.w3.org/2000/svg"
   xmlns:sodipodi="http://sodipodi.sourceforge.net/DTD/sodipodi-0.dtd"
   xmlns:inkscape="http://www.inkscape.org/namespaces/inkscape"
   width="221.06509mm"
   height="326.87195mm"
   viewBox="0 0 221.06509 326.87195"
   version="1.1"
   id="svg2609"
   inkscape:version="0.92.3 (2405546, 2018-03-11)"
   sodipodi:docname="omamori.svg"
   inkscape:export-filename="C:\Users\Alexis\Desktop\illus\omamori.png"
   inkscape:export-xdpi="61.822083"
   inkscape:export-ydpi="61.822083">
  <defs
     id="defs2603" />
  <sodipodi:namedview
     id="base"
     pagecolor="#ffffff"
     bordercolor="#666666"
     borderopacity="1.0"
     inkscape:pageopacity="0.0"
     inkscape:pageshadow="2"
     inkscape:zoom="0.49497475"
     inkscape:cx="355.9635"
     inkscape:cy="585.15715"
     inkscape:document-units="mm"
     inkscape:current-layer="layer1"
     showgrid="false"
     inkscape:window-width="1920"
     inkscape:window-height="1001"
     inkscape:window-x="-9"
     inkscape:window-y="1341"
     inkscape:window-maximized="1"
     fit-margin-top="0"
     fit-margin-left="0"
     fit-margin-right="0"
     fit-margin-bottom="0" />
  <metadata
     id="metadata2606">
    <rdf:RDF>
      <cc:Work
         rdf:about="">
        <dc:format>image/svg+xml</dc:format>
        <dc:type
           rdf:resource="http://purl.org/dc/dcmitype/StillImage" />
        <dc:title></dc:title>
      </cc:Work>
    </rdf:RDF>
  </metadata>
  <g
     inkscape:label="Calque 1"
     inkscape:groupmode="layer"
     id="layer1"
     transform="translate(3.9509127,-1.1543746)">
    <path
       style="fill:#2d3ac3;fill-opacity:1;stroke:none;stroke-width:0.26458332px;stroke-linecap:butt;stroke-linejoin:miter;stroke-opacity:1"
       d="M 56.425595,9.4732143 C 52.847167,11.539221 8.4057156,46.043545 6.4255952,49.473214 c -1.9801204,3.429669 -4.8969358,262.974296 0,267.871226 4.8969358,4.89693 195.3035248,4.69648 200.0000048,0 4.69648,-4.69648 2.72297,-262.205742 0,-267.871226 -2.72297,-5.665484 -46.17448,-37.791334 -50,-39.9999997 -3.82552,-2.2086656 -96.421577,-2.0660064 -100.000005,0 z"
       id="path3154"
       inkscape:connector-curvature="0"
       sodipodi:nodetypes="zzzzzzz" />
    <g
       id="g7004">
      <path
         style="fill:#dddddd;fill-opacity:1;stroke:none;stroke-width:0.0495375px;stroke-linecap:butt;stroke-linejoin:miter;stroke-opacity:1"
         d="m 103.95231,47.251038 c 3.05248,-14.206061 14.59289,-9.226299 13.63808,1.459946 -0.82343,9.215743 -13.53582,14.415208 -13.63808,-1.459946 -0.0404,-6.265967 -6.103255,-4.876311 -6.379975,0.513204 -0.241367,4.701371 6.022435,6.239481 6.379975,-0.513204 l 3.86441,0.28905 c -0.77031,11.349156 -12.654017,11.487889 -12.089573,-0.26117 0.564447,-11.749072 12.153283,-11.362875 12.067343,0.276942 -0.0667,9.039166 5.0185,7.891732 5.896,0.810338 0.7224,-5.82976 -5.05608,-8.105927 -5.87377,-0.82611 z"
         id="path6895-7-7-4"
         inkscape:connector-curvature="0"
         sodipodi:nodetypes="csssccssscc" />
      <path
         sodipodi:nodetypes="csssccssscc"
         inkscape:connector-curvature="0"
         id="path6895-4"
         d="M 108.87506,48.598422 C 98.147886,96.310806 42.456233,83.077143 43.294585,47.518011 c 0.72299,-30.665964 54.797783,-51.125135 65.580475,1.080411 8.68866,42.067077 53.60486,23.489419 48.19764,-5.141423 -4.29365,-22.734552 -48.83311,-31.50424 -48.19764,5.141423 h -5.71926 c -0.42365,-37.704786 56.88244,-40.7279649 58.57704,-1.75223 1.69459,38.975734 -55.92171,40.246682 -58.4636,1.694597 C 100.72734,9.9887032 49.889431,13.801547 48.618482,47.693491 47.347535,81.585433 102.3085,82.066714 103.1558,48.598422 Z"
         style="fill:#000000;fill-opacity:0.19289341;stroke:none;stroke-width:0.20969568px;stroke-linecap:butt;stroke-linejoin:miter;stroke-opacity:1" />
      <path
         sodipodi:nodetypes="csssccssscc"
         inkscape:connector-curvature="0"
         id="path6895"
         d="M 109.29445,44.404513 C 98.567279,92.116866 42.875625,78.883234 43.713977,43.324101 c 0.722989,-30.66596 54.797784,-51.1251336 65.580473,1.080412 8.68867,42.067067 53.60486,23.489419 48.19764,-5.141424 -4.29365,-22.73455 -48.83311,-31.5042365 -48.19764,5.141424 h -5.71925 c -0.42365,-37.7047835 56.88243,-40.7279619 58.57703,-1.75223 1.69459,38.975733 -55.9217,40.246681 -58.4636,1.694597 C 101.14673,5.7947972 50.308823,9.6076406 49.037873,43.499582 47.766926,77.391523 102.7279,77.872805 103.5752,44.404513 Z"
         style="fill:#e3e3e3;fill-opacity:1;stroke:none;stroke-width:0.20969568px;stroke-linecap:butt;stroke-linejoin:miter;stroke-opacity:1" />
      <path
         sodipodi:nodetypes="csssccssscc"
         inkscape:connector-curvature="0"
         id="path6895-7-2"
         d="M 107.57682,53.258572 C 95.351547,97.32191 31.882168,85.100359 32.837602,52.260792 33.66156,23.940163 95.288277,5.0457066 107.57682,53.258572 c 9.9021,38.84979 61.09114,21.692949 54.92877,-4.748208 -4.89329,-20.99581 -55.65299,-29.094793 -54.92877,4.748208 h -6.51799 C 100.57602,18.437449 165.88528,15.645483 167.81655,51.640353 169.74781,87.635222 104.085,88.808968 101.1881,53.205348 98.291225,17.601725 40.353461,21.122964 38.905015,52.422849 37.456572,83.722737 100.0932,84.167209 101.05883,53.258572 Z"
         style="fill:#000000;fill-opacity:0.284264;stroke:none;stroke-width:0.21512936px;stroke-linecap:butt;stroke-linejoin:miter;stroke-opacity:1" />
      <path
         sodipodi:nodetypes="csssccssscc"
         inkscape:connector-curvature="0"
         id="path6895-7"
         d="M 110.09319,49.064656 C 97.867895,93.127978 34.398517,80.906446 35.353952,48.066875 36.17791,19.746244 97.804626,0.85178805 110.09319,49.064656 c 9.90209,38.849779 61.09113,21.692949 54.92877,-4.748208 -4.8933,-20.995813 -55.653,-29.094795 -54.92877,4.748208 h -6.51799 c -0.48282,-34.821124 64.82645,-37.61309 66.75772,-1.61822 1.93125,35.994872 -63.73156,37.168618 -66.62845,1.564994 C 100.80758,13.407809 42.869811,16.929046 41.421365,48.228933 39.972922,79.528821 102.60956,79.973295 103.5752,49.064656 Z"
         style="fill:#ececec;fill-opacity:1;stroke:none;stroke-width:0.21512936px;stroke-linecap:butt;stroke-linejoin:miter;stroke-opacity:1" />
      <path
         style="fill:#000000;fill-opacity:0.17766496;stroke:none;stroke-width:0.05937498px;stroke-linecap:butt;stroke-linejoin:miter;stroke-opacity:1"
         d="m 104.9487,45.022153 c 17.05773,3.513533 11.20705,17.396044 -1.61062,16.360717 -11.053857,-0.892861 -17.415381,-16.07614 1.61062,-16.360717 7.50962,-0.112325 5.78218,-7.364799 -0.68021,-7.641444 -5.637251,-0.241313 -7.416812,7.281832 0.68021,7.641444 l -0.307,4.634602 c -13.610302,-0.807411 -13.897862,-15.049144 0.18964,-14.492543 14.08753,0.556608 13.74293,14.450284 -0.20877,14.466072 -10.834499,0.01226 -9.407351,6.095417 -0.91105,7.074875 6.99459,0.806334 9.6637,-6.142661 0.93018,-7.048404 z"
         id="path6895-7-7-1"
         inkscape:connector-curvature="0"
         sodipodi:nodetypes="csssccssscc" />
      <path
         style="fill:#ececec;fill-opacity:1;stroke:none;stroke-width:0.05937498px;stroke-linecap:butt;stroke-linejoin:miter;stroke-opacity:1"
         d="m 107.06538,44.492987 c 17.05773,3.513533 11.20705,17.396044 -1.61062,16.360716 -11.053868,-0.892861 -17.415392,-16.076139 1.61062,-16.360716 7.50962,-0.112325 5.78218,-7.364799 -0.68021,-7.641444 -5.63726,-0.241313 -7.416824,7.281832 0.68021,7.641444 l -0.307,4.634602 c -13.610313,-0.807411 -13.897873,-15.049144 0.18964,-14.492543 14.08753,0.556608 13.74293,14.450283 -0.20877,14.466071 -10.83451,0.01226 -9.407363,6.095418 -0.91105,7.074875 6.99459,0.806335 9.6637,-6.14266 0.93018,-7.048403 z"
         id="path6895-7-7"
         inkscape:connector-curvature="0"
         sodipodi:nodetypes="csssccssscc" />
    </g>
    <path
       style="fill:none;fill-opacity:1;stroke:#f2f2f2;stroke-width:2.33701205;stroke-linecap:butt;stroke-linejoin:miter;stroke-miterlimit:4;stroke-dasharray:none;stroke-opacity:1"
       d="M 38.409511,54.657944 50.91001,42.157436 h 23.147969 l 11.527584,11.527567 v 23.434916 l -9.18408,10.807345 H 49.570873 L 38.481249,75.821103 Z"
       id="path7006"
       inkscape:connector-curvature="0"
       sodipodi:nodetypes="ccccccccc" />
    <path
       style="fill:none;fill-opacity:1;stroke:#f2f2f2;stroke-width:2.33701205;stroke-linecap:butt;stroke-linejoin:miter;stroke-miterlimit:4;stroke-dasharray:none;stroke-opacity:1"
       d="M 75.145832,167.63627 H 49.732624 L 38.643,155.53011 38.571262,134.36688 51.071761,121.86631 h 23.147978"
       id="path7006-8"
       inkscape:connector-curvature="0"
       sodipodi:nodetypes="cccccc" />
    <rect
       style="fill:none;fill-opacity:1;stroke:#f2f2f2;stroke-width:2.88952231;stroke-miterlimit:4;stroke-dasharray:none;stroke-opacity:1"
       id="rect7023"
       width="22.023508"
       height="22.023508"
       x="51.527187"
       y="94.02224"
       ry="0.11341934" />
    <path
       style="fill:none;fill-opacity:1;stroke:#f2f2f2;stroke-width:2.33701205;stroke-linecap:butt;stroke-linejoin:miter;stroke-miterlimit:4;stroke-dasharray:none;stroke-opacity:1"
       d="m 76.243912,246.60215 h -25.69669 l -11.089616,-12.10616 -0.07174,-21.16316 12.50049,-12.5005 h 23.147978"
       id="path7006-8-6"
       inkscape:connector-curvature="0"
       sodipodi:nodetypes="cccccc" />
    <rect
       style="fill:none;fill-opacity:1;stroke:#f2f2f2;stroke-width:2.88952255;stroke-miterlimit:4;stroke-dasharray:none;stroke-opacity:1"
       id="rect7023-1"
       width="22.023508"
       height="22.023508"
       x="52.341789"
       y="172.98749"
       ry="0.11341934" />
    <path
       style="color:#000000;font-style:normal;font-variant:normal;font-weight:normal;font-stretch:normal;font-size:medium;line-height:normal;font-family:sans-serif;font-variant-ligatures:normal;font-variant-position:normal;font-variant-caps:normal;font-variant-numeric:normal;font-variant-alternates:normal;font-feature-settings:normal;text-indent:0;text-align:start;text-decoration:none;text-decoration-line:none;text-decoration-style:solid;text-decoration-color:#000000;letter-spacing:normal;word-spacing:normal;text-transform:none;writing-mode:lr-tb;direction:ltr;text-orientation:mixed;dominant-baseline:auto;baseline-shift:baseline;text-anchor:start;white-space:normal;shape-padding:0;clip-rule:nonzero;display:inline;overflow:visible;visibility:visible;opacity:1;isolation:auto;mix-blend-mode:normal;color-interpolation:sRGB;color-interpolation-filters:linearRGB;solid-color:#000000;solid-opacity:1;vector-effect:none;fill:#f2f2f2;fill-opacity:1;fill-rule:nonzero;stroke:none;stroke-width:8.83280182;stroke-linecap:butt;stroke-linejoin:miter;stroke-miterlimit:4;stroke-dasharray:none;stroke-dashoffset:0;stroke-opacity:1;color-rendering:auto;image-rendering:auto;shape-rendering:auto;text-rendering:auto;enable-background:accumulate"
       d="M 211.69727 1048.6055 L 161.85352 1098.4395 L 161.86133 1100.2773 L 162.13477 1181.9727 L 184.12109 1205.9746 C 188.15984 1206.0845 192.24106 1206.1899 196.39258 1206.293 L 170.95703 1178.5254 L 170.69727 1102.0859 L 215.35156 1057.4336 L 299.17969 1057.4336 L 340.16406 1098.418 L 340.16406 1183.5391 L 319.16211 1208.25 C 322.97275 1208.2829 326.84029 1208.3072 330.67773 1208.3359 L 348.99219 1186.7793 L 348.99219 1094.7559 L 302.8418 1048.6055 L 211.69727 1048.6055 z "
       transform="matrix(0.26458333,0,0,0.26458333,-3.9509127,1.1543746)"
       id="path7006-8-6-4" />
    <rect
       style="fill:none;fill-opacity:1;stroke:#f2f2f2;stroke-width:2.88952279;stroke-miterlimit:4;stroke-dasharray:none;stroke-opacity:1"
       id="rect7023-1-5"
       width="22.023508"
       height="22.023508"
       x="52.999031"
       y="251.92044"
       ry="0.11341934" />
    <rect
       style="fill:none;fill-opacity:1;stroke:#f2f2f2;stroke-width:2.88952279;stroke-miterlimit:4;stroke-dasharray:none;stroke-opacity:1"
       id="rect7023-1-50"
       width="22.023508"
       height="22.023508"
       x="95.091995"
       y="291.20392"
       ry="0.11341934" />
    <path
       style="color:#000000;font-style:normal;font-variant:normal;font-weight:normal;font-stretch:normal;font-size:medium;line-height:normal;font-family:sans-serif;font-variant-ligatures:normal;font-variant-position:normal;font-variant-caps:normal;font-variant-numeric:normal;font-variant-alternates:normal;font-feature-settings:normal;text-indent:0;text-align:start;text-decoration:none;text-decoration-line:none;text-decoration-style:solid;text-decoration-color:#000000;letter-spacing:normal;word-spacing:normal;text-transform:none;writing-mode:lr-tb;direction:ltr;text-orientation:mixed;dominant-baseline:auto;baseline-shift:baseline;text-anchor:start;white-space:normal;shape-padding:0;clip-rule:nonzero;display:inline;overflow:visible;visibility:visible;opacity:1;isolation:auto;mix-blend-mode:normal;color-interpolation:sRGB;color-interpolation-filters:linearRGB;solid-color:#000000;solid-opacity:1;vector-effect:none;fill:#f2f2f2;fill-opacity:1;fill-rule:nonzero;stroke:none;stroke-width:8.83280182;stroke-linecap:butt;stroke-linejoin:miter;stroke-miterlimit:4;stroke-dasharray:none;stroke-dashoffset:0;stroke-opacity:1;color-rendering:auto;image-rendering:auto;shape-rendering:auto;text-rendering:auto;enable-background:accumulate"
       d="M 648.38086 61.515625 L 648.38086 139.39844 L 685.4668 183.04102 L 790.85742 183.04102 L 793.54688 180.10352 C 792.20591 178.26372 790.20137 175.9959 787.70117 173.41211 L 786.9668 174.21289 L 689.54883 174.21289 L 657.2168 136.1582 L 657.2168 68.0625 C 654.15751 65.785892 651.27181 63.650546 648.38086 61.515625 z "
       transform="matrix(0.26458333,0,0,0.26458333,-3.9509127,1.1543746)"
       id="path7006-6" />
    <path
       style="color:#000000;font-style:normal;font-variant:normal;font-weight:normal;font-stretch:normal;font-size:medium;line-height:normal;font-family:sans-serif;font-variant-ligatures:normal;font-variant-position:normal;font-variant-caps:normal;font-variant-numeric:normal;font-variant-alternates:normal;font-feature-settings:normal;text-indent:0;text-align:start;text-decoration:none;text-decoration-line:none;text-decoration-style:solid;text-decoration-color:#000000;letter-spacing:normal;word-spacing:normal;text-transform:none;writing-mode:lr-tb;direction:ltr;text-orientation:mixed;dominant-baseline:auto;baseline-shift:baseline;text-anchor:start;white-space:normal;shape-padding:0;clip-rule:nonzero;display:inline;overflow:visible;visibility:visible;opacity:1;isolation:auto;mix-blend-mode:normal;color-interpolation:sRGB;color-interpolation-filters:linearRGB;solid-color:#000000;solid-opacity:1;vector-effect:none;fill:#f2f2f2;fill-opacity:1;fill-rule:nonzero;stroke:none;stroke-width:8.83280182;stroke-linecap:butt;stroke-linejoin:miter;stroke-miterlimit:4;stroke-dasharray:none;stroke-dashoffset:0;stroke-opacity:1;color-rendering:auto;image-rendering:auto;shape-rendering:auto;text-rendering:auto;enable-background:accumulate"
       d="M 693.92578 302.48047 L 647.76758 348.63867 L 647.76758 440.66211 L 684.85352 484.30273 L 790.24414 484.30273 L 803.87891 469.41797 C 803.82483 465.06938 803.76891 460.81683 803.71289 456.52344 L 786.36133 475.4668 L 688.93555 475.4668 L 656.60352 437.41406 L 656.60352 352.29297 L 697.58008 311.31641 L 781.4082 311.31641 L 801.62305 331.53125 C 801.53247 327.26014 801.44433 322.89123 801.35156 318.76172 L 785.07031 302.48047 L 693.92578 302.48047 z "
       transform="matrix(0.26458333,0,0,0.26458333,-3.9509127,1.1543746)"
       id="path7006-8-1" />
    <rect
       style="fill:none;fill-opacity:1;stroke:#f2f2f2;stroke-width:2.88952255;stroke-miterlimit:4;stroke-dasharray:none;stroke-opacity:1"
       id="rect7023-5"
       width="22.023508"
       height="22.023508"
       x="-202.82622"
       y="54.510563"
       ry="0.11341934"
       transform="scale(-1,1)" />
    <path
       style="color:#000000;font-style:normal;font-variant:normal;font-weight:normal;font-stretch:normal;font-size:medium;line-height:normal;font-family:sans-serif;font-variant-ligatures:normal;font-variant-position:normal;font-variant-caps:normal;font-variant-numeric:normal;font-variant-alternates:normal;font-feature-settings:normal;text-indent:0;text-align:start;text-decoration:none;text-decoration-line:none;text-decoration-style:solid;text-decoration-color:#000000;letter-spacing:normal;word-spacing:normal;text-transform:none;writing-mode:lr-tb;direction:ltr;text-orientation:mixed;dominant-baseline:auto;baseline-shift:baseline;text-anchor:start;white-space:normal;shape-padding:0;clip-rule:nonzero;display:inline;overflow:visible;visibility:visible;opacity:1;isolation:auto;mix-blend-mode:normal;color-interpolation:sRGB;color-interpolation-filters:linearRGB;solid-color:#000000;solid-opacity:1;vector-effect:none;fill:#f2f2f2;fill-opacity:1;fill-rule:nonzero;stroke:none;stroke-width:8.83280182;stroke-linecap:butt;stroke-linejoin:miter;stroke-miterlimit:4;stroke-dasharray:none;stroke-dashoffset:0;stroke-opacity:1;color-rendering:auto;image-rendering:auto;shape-rendering:auto;text-rendering:auto;enable-background:accumulate"
       d="M 690.84766 600.9375 L 644.68945 647.08789 L 644.68945 739.11914 L 681.77539 782.75977 L 787.16602 782.75977 L 805.79883 762.41602 C 805.79488 758.06468 805.79341 753.72227 805.78711 749.35742 L 783.2832 773.92383 L 685.85742 773.92383 L 653.52539 735.87109 L 653.52539 650.75 L 694.50195 609.76562 L 778.33008 609.76562 L 805.38086 636.81641 C 805.35666 632.61062 805.32689 628.44104 805.30078 624.24609 L 781.99219 600.9375 L 690.84766 600.9375 z "
       transform="matrix(0.26458333,0,0,0.26458333,-3.9509127,1.1543746)"
       id="path7006-8-6-8" />
    <rect
       style="fill:none;fill-opacity:1;stroke:#f2f2f2;stroke-width:2.88952279;stroke-miterlimit:4;stroke-dasharray:none;stroke-opacity:1"
       id="rect7023-1-93"
       width="22.023508"
       height="22.023508"
       x="-202.01161"
       y="133.47633"
       ry="0.11341934"
       transform="scale(-1,1)" />
    <path
       style="color:#000000;font-style:normal;font-variant:normal;font-weight:normal;font-stretch:normal;font-size:medium;line-height:normal;font-family:sans-serif;font-variant-ligatures:normal;font-variant-position:normal;font-variant-caps:normal;font-variant-numeric:normal;font-variant-alternates:normal;font-feature-settings:normal;text-indent:0;text-align:start;text-decoration:none;text-decoration-line:none;text-decoration-style:solid;text-decoration-color:#000000;letter-spacing:normal;word-spacing:normal;text-transform:none;writing-mode:lr-tb;direction:ltr;text-orientation:mixed;dominant-baseline:auto;baseline-shift:baseline;text-anchor:start;white-space:normal;shape-padding:0;clip-rule:nonzero;display:inline;overflow:visible;visibility:visible;opacity:1;isolation:auto;mix-blend-mode:normal;color-interpolation:sRGB;color-interpolation-filters:linearRGB;solid-color:#000000;solid-opacity:1;vector-effect:none;fill:#f2f2f2;fill-opacity:1;fill-rule:nonzero;stroke:none;stroke-width:8.83280182;stroke-linecap:butt;stroke-linejoin:miter;stroke-miterlimit:4;stroke-dasharray:none;stroke-dashoffset:0;stroke-opacity:1;color-rendering:auto;image-rendering:auto;shape-rendering:auto;text-rendering:auto;enable-background:accumulate"
       d="M 688.35938 899.26953 L 642.20898 945.41992 L 642.20898 1037.4434 L 679.28711 1081.084 L 784.68555 1081.084 L 803.5 1060.5449 C 803.59363 1056.221 803.67812 1051.6612 803.76562 1047.1797 L 780.79688 1072.2559 L 683.37695 1072.2559 L 651.03711 1034.2031 L 651.03711 949.08203 L 692.02148 908.09766 L 775.84961 908.09766 L 805.2207 937.46875 C 805.25504 933.34488 805.29302 929.26292 805.32422 925.08203 L 779.51172 899.26953 L 688.35938 899.26953 z "
       transform="matrix(0.26458333,0,0,0.26458333,-3.9509127,1.1543746)"
       id="path7006-8-6-4-6" />
    <rect
       style="fill:none;fill-opacity:1;stroke:#f2f2f2;stroke-width:2.88952279;stroke-miterlimit:4;stroke-dasharray:none;stroke-opacity:1"
       id="rect7023-1-5-6"
       width="22.023508"
       height="22.023508"
       x="-201.35439"
       y="212.40874"
       ry="0.11341934"
       transform="scale(-1,1)" />
    <path
       style="fill:none;fill-opacity:1;stroke:#f2f2f2;stroke-width:2.33701205;stroke-linecap:butt;stroke-linejoin:miter;stroke-miterlimit:4;stroke-dasharray:none;stroke-opacity:1"
       d="m 136.43411,167.46283 h 25.03519 l 11.08962,-12.10616 0.0717,-21.16323 -12.5005,-12.50057 h -23.14795"
       id="path7006-8-6-5-5"
       inkscape:connector-curvature="0"
       sodipodi:nodetypes="cccccc" />
    <path
       style="fill:none;fill-opacity:1;stroke:#f2f2f2;stroke-width:2.33701205;stroke-linecap:butt;stroke-linejoin:miter;stroke-miterlimit:4;stroke-dasharray:none;stroke-opacity:1"
       d="m 136.09959,245.97788 25.0352,0.0945 11.08962,-12.10616 0.0717,-21.16317 -12.5005,-12.5005 H 136.6477"
       id="path7006-8-6-7-1"
       inkscape:connector-curvature="0"
       sodipodi:nodetypes="cccccc" />
    <path
       style="fill:none;fill-opacity:1;stroke:#f2f2f2;stroke-width:2.33701205;stroke-linecap:butt;stroke-linejoin:miter;stroke-miterlimit:4;stroke-dasharray:none;stroke-opacity:1"
       d="m 175.69128,55.681754 -12.5005,-12.500507 h -23.14795 l -11.52755,11.527565 v 23.43491 l 9.18406,10.807355 h 26.83058 l 11.08961,-12.106162 z"
       id="path7006-8-6-52-3"
       inkscape:connector-curvature="0"
       sodipodi:nodetypes="ccccccccc" />
    <rect
       style="fill:none;fill-opacity:1;stroke:#f2f2f2;stroke-width:2.88952279;stroke-miterlimit:4;stroke-dasharray:none;stroke-opacity:1"
       id="rect7023-1-9-5"
       width="22.023508"
       height="22.023508"
       x="-158.67108"
       y="172.65842"
       ry="0.11341934"
       transform="scale(-1,1)" />
    <rect
       style="fill:none;fill-opacity:1;stroke:#f2f2f2;stroke-width:2.88952279;stroke-miterlimit:4;stroke-dasharray:none;stroke-opacity:1"
       id="rect7023-1-6-8"
       width="22.023508"
       height="22.023508"
       x="-160.05508"
       y="94.160789"
       ry="0.11341934"
       transform="scale(-1,1)" />
    <rect
       style="fill:none;fill-opacity:1;stroke:#f2f2f2;stroke-width:2.88952279;stroke-miterlimit:4;stroke-dasharray:none;stroke-opacity:1"
       id="rect7023-1-50-7"
       width="22.023508"
       height="22.023508"
       x="-159.2614"
       y="251.69122"
       ry="0.11341934"
       transform="scale(-1,1)" />
    <path
       style="color:#000000;font-style:normal;font-variant:normal;font-weight:normal;font-stretch:normal;font-size:medium;line-height:normal;font-family:sans-serif;font-variant-ligatures:normal;font-variant-position:normal;font-variant-caps:normal;font-variant-numeric:normal;font-variant-alternates:normal;font-feature-settings:normal;text-indent:0;text-align:start;text-decoration:none;text-decoration-line:none;text-decoration-style:solid;text-decoration-color:#000000;letter-spacing:normal;word-spacing:normal;text-transform:none;writing-mode:lr-tb;direction:ltr;text-orientation:mixed;dominant-baseline:auto;baseline-shift:baseline;text-anchor:start;white-space:normal;shape-padding:0;clip-rule:nonzero;display:inline;overflow:visible;visibility:visible;opacity:1;isolation:auto;mix-blend-mode:normal;color-interpolation:sRGB;color-interpolation-filters:linearRGB;solid-color:#000000;solid-opacity:1;vector-effect:none;fill:#f2f2f2;fill-opacity:1;fill-rule:nonzero;stroke:none;stroke-width:8.83280182;stroke-linecap:butt;stroke-linejoin:miter;stroke-miterlimit:4;stroke-dasharray:none;stroke-dashoffset:0;stroke-opacity:1;color-rendering:auto;image-rendering:auto;shape-rendering:auto;text-rendering:auto;enable-background:accumulate"
       d="M 532.31445 1053.6016 L 486.15625 1099.7539 L 486.15625 1191.7832 L 500.17969 1208.2832 C 504.02389 1208.2522 507.87103 1208.2226 511.68945 1208.1875 L 494.99219 1188.5352 L 494.99219 1103.416 L 535.96875 1062.4316 L 619.79688 1062.4316 L 664.45117 1107.084 L 664.19141 1183.5234 L 643.62891 1205.9707 C 647.85789 1205.8593 651.82799 1205.7355 655.93359 1205.6172 L 673.01367 1186.9707 L 673.30078 1103.4375 L 671.99414 1102.1387 L 623.45898 1053.6016 L 532.31445 1053.6016 z "
       transform="matrix(0.26458333,0,0,0.26458333,-3.9509127,1.1543746)"
       id="path7006-8-6-7-1-8" />
    <rect
       style="fill:none;fill-opacity:1;stroke:#f2f2f2;stroke-width:2.88952279;stroke-miterlimit:4;stroke-dasharray:none;stroke-opacity:1"
       id="rect7023-1-50-7-9"
       width="22.023508"
       height="22.023508"
       x="-201.25681"
       y="292.64645"
       ry="0.11341934"
       transform="scale(-1,1)" />
    <rect
       style="fill:none;fill-opacity:1;stroke:#f2f2f2;stroke-width:2.88952279;stroke-miterlimit:4;stroke-dasharray:none;stroke-opacity:1"
       id="rect7023-1-50-7-8"
       width="22.023508"
       height="22.023508"
       x="-116.91046"
       y="54.038448"
       ry="0.11341934"
       transform="scale(-1,1)" />
    <path
       style="color:#000000;font-style:normal;font-variant:normal;font-weight:normal;font-stretch:normal;font-size:medium;line-height:normal;font-family:sans-serif;font-variant-ligatures:normal;font-variant-position:normal;font-variant-caps:normal;font-variant-numeric:normal;font-variant-alternates:normal;font-feature-settings:normal;text-indent:0;text-align:start;text-decoration:none;text-decoration-line:none;text-decoration-style:solid;text-decoration-color:#000000;letter-spacing:normal;word-spacing:normal;text-transform:none;writing-mode:lr-tb;direction:ltr;text-orientation:mixed;dominant-baseline:auto;baseline-shift:baseline;text-anchor:start;white-space:normal;shape-padding:0;clip-rule:nonzero;display:inline;overflow:visible;visibility:visible;opacity:1;isolation:auto;mix-blend-mode:normal;color-interpolation:sRGB;color-interpolation-filters:linearRGB;solid-color:#000000;solid-opacity:1;vector-effect:none;fill:#f2f2f2;fill-opacity:1;fill-rule:nonzero;stroke:none;stroke-width:8.83280182;stroke-linecap:butt;stroke-linejoin:miter;stroke-miterlimit:4;stroke-dasharray:none;stroke-dashoffset:0;stroke-opacity:1;color-rendering:auto;image-rendering:auto;shape-rendering:auto;text-rendering:auto;enable-background:accumulate"
       d="M 193.29297 57.087891 C 190.49185 59.221844 187.44876 61.556142 184.4375 63.865234 L 184.21484 129.92773 L 144.76562 172.98633 L 48.648438 172.98633 C 45.603533 175.74578 43.189122 178.05151 41.539062 179.79883 L 43.257812 181.82227 L 148.65625 181.82227 L 193.03516 133.375 L 193.29297 57.087891 z "
       transform="matrix(0.26458333,0,0,0.26458333,-3.9509127,1.1543746)"
       id="path7006-6-1" />
    <path
       style="color:#000000;font-style:normal;font-variant:normal;font-weight:normal;font-stretch:normal;font-size:medium;line-height:normal;font-family:sans-serif;font-variant-ligatures:normal;font-variant-position:normal;font-variant-caps:normal;font-variant-numeric:normal;font-variant-alternates:normal;font-feature-settings:normal;text-indent:0;text-align:start;text-decoration:none;text-decoration-line:none;text-decoration-style:solid;text-decoration-color:#000000;letter-spacing:normal;word-spacing:normal;text-transform:none;writing-mode:lr-tb;direction:ltr;text-orientation:mixed;dominant-baseline:auto;baseline-shift:baseline;text-anchor:start;white-space:normal;shape-padding:0;clip-rule:nonzero;display:inline;overflow:visible;visibility:visible;opacity:1;isolation:auto;mix-blend-mode:normal;color-interpolation:sRGB;color-interpolation-filters:linearRGB;solid-color:#000000;solid-opacity:1;vector-effect:none;fill:#f2f2f2;fill-opacity:1;fill-rule:nonzero;stroke:none;stroke-width:8.83280182;stroke-linecap:butt;stroke-linejoin:miter;stroke-miterlimit:4;stroke-dasharray:none;stroke-dashoffset:0;stroke-opacity:1;color-rendering:auto;image-rendering:auto;shape-rendering:auto;text-rendering:auto;enable-background:accumulate"
       d="M 51.716797 301.26172 L 33.958984 319.01953 C 33.87193 323.18245 33.787068 327.46071 33.701172 331.76758 L 55.378906 310.08984 L 139.20703 310.08984 L 183.85938 354.74414 L 183.60156 431.19141 L 144.15234 474.25 L 46.734375 474.25 L 31.650391 456.5 C 31.59051 460.93087 31.53295 465.44197 31.474609 469.93164 L 42.652344 483.08594 L 148.04297 483.08594 L 192.42188 434.63086 L 192.70312 351.09766 L 191.4043 349.79883 L 142.86719 301.26172 L 51.716797 301.26172 z "
       transform="matrix(0.26458333,0,0,0.26458333,-3.9509127,1.1543746)"
       id="path7006-8-1-8" />
    <rect
       style="fill:none;fill-opacity:1;stroke:#f2f2f2;stroke-width:2.88952279;stroke-miterlimit:4;stroke-dasharray:none;stroke-opacity:1"
       id="rect7023-5-1"
       width="22.023508"
       height="22.023508"
       x="-32.909374"
       y="54.187683"
       ry="0.11341934"
       transform="scale(-1,1)" />
    <path
       style="color:#000000;font-style:normal;font-variant:normal;font-weight:normal;font-stretch:normal;font-size:medium;line-height:normal;font-family:sans-serif;font-variant-ligatures:normal;font-variant-position:normal;font-variant-caps:normal;font-variant-numeric:normal;font-variant-alternates:normal;font-feature-settings:normal;text-indent:0;text-align:start;text-decoration:none;text-decoration-line:none;text-decoration-style:solid;text-decoration-color:#000000;letter-spacing:normal;word-spacing:normal;text-transform:none;writing-mode:lr-tb;direction:ltr;text-orientation:mixed;dominant-baseline:auto;baseline-shift:baseline;text-anchor:start;white-space:normal;shape-padding:0;clip-rule:nonzero;display:inline;overflow:visible;visibility:visible;opacity:1;isolation:auto;mix-blend-mode:normal;color-interpolation:sRGB;color-interpolation-filters:linearRGB;solid-color:#000000;solid-opacity:1;vector-effect:none;fill:#f2f2f2;fill-opacity:1;fill-rule:nonzero;stroke:none;stroke-width:8.83280182;stroke-linecap:butt;stroke-linejoin:miter;stroke-miterlimit:4;stroke-dasharray:none;stroke-dashoffset:0;stroke-opacity:1;color-rendering:auto;image-rendering:auto;shape-rendering:auto;text-rendering:auto;enable-background:accumulate"
       d="M 48.638672 599.71875 L 29.939453 618.41797 C 29.906478 622.61746 29.87114 626.79631 29.839844 631.00781 L 52.298828 608.54883 L 136.12891 608.54883 L 180.78125 653.20117 L 180.52344 729.64062 L 141.07422 772.70703 L 43.65625 772.70703 L 29.185547 755.67969 C 29.171951 760.21335 29.157613 764.75581 29.146484 769.27344 L 39.566406 781.53516 L 144.96484 781.53516 L 189.34375 733.08789 L 189.625 649.55469 L 188.32617 648.25586 L 139.78906 599.71875 L 48.638672 599.71875 z "
       transform="matrix(0.26458333,0,0,0.26458333,-3.9509127,1.1543746)"
       id="path7006-8-6-8-9" />
    <rect
       style="fill:none;fill-opacity:1;stroke:#f2f2f2;stroke-width:2.88952279;stroke-miterlimit:4;stroke-dasharray:none;stroke-opacity:1"
       id="rect7023-1-93-3"
       width="22.023508"
       height="22.023508"
       x="-32.094772"
       y="133.15349"
       ry="0.11341934"
       transform="scale(-1,1)" />
    <path
       style="color:#000000;font-style:normal;font-variant:normal;font-weight:normal;font-stretch:normal;font-size:medium;line-height:normal;font-family:sans-serif;font-variant-ligatures:normal;font-variant-position:normal;font-variant-caps:normal;font-variant-numeric:normal;font-variant-alternates:normal;font-feature-settings:normal;text-indent:0;text-align:start;text-decoration:none;text-decoration-line:none;text-decoration-style:solid;text-decoration-color:#000000;letter-spacing:normal;word-spacing:normal;text-transform:none;writing-mode:lr-tb;direction:ltr;text-orientation:mixed;dominant-baseline:auto;baseline-shift:baseline;text-anchor:start;white-space:normal;shape-padding:0;clip-rule:nonzero;display:inline;overflow:visible;visibility:visible;opacity:1;isolation:auto;mix-blend-mode:normal;color-interpolation:sRGB;color-interpolation-filters:linearRGB;solid-color:#000000;solid-opacity:1;vector-effect:none;fill:#f2f2f2;fill-opacity:1;fill-rule:nonzero;stroke:none;stroke-width:8.83280182;stroke-linecap:butt;stroke-linejoin:miter;stroke-miterlimit:4;stroke-dasharray:none;stroke-dashoffset:0;stroke-opacity:1;color-rendering:auto;image-rendering:auto;shape-rendering:auto;text-rendering:auto;enable-background:accumulate"
       d="M 46.158203 898.04297 L 29.267578 914.93359 C 29.287798 919.15765 29.320313 923.17799 29.34375 927.34766 L 49.8125 906.87891 L 133.64062 906.87891 L 178.29297 951.5332 L 178.03516 1027.9727 L 138.59375 1071.0312 L 41.167969 1071.0312 L 30.857422 1058.8945 C 30.949865 1063.6095 31.040219 1068.3495 31.140625 1072.8711 L 37.085938 1079.8672 L 142.47656 1079.8672 L 186.85742 1031.4199 L 187.14453 947.88672 L 185.8457 946.58594 L 137.30273 898.04297 L 46.158203 898.04297 z "
       transform="matrix(0.26458333,0,0,0.26458333,-3.9509127,1.1543746)"
       id="path7006-8-6-4-6-7" />
    <rect
       style="fill:none;fill-opacity:1;stroke:#f2f2f2;stroke-width:2.88952279;stroke-miterlimit:4;stroke-dasharray:none;stroke-opacity:1"
       id="rect7023-1-5-6-3"
       width="22.023508"
       height="22.023508"
       x="-31.437546"
       y="212.08585"
       ry="0.11341934"
       transform="scale(-1,1)" />
    <rect
       style="fill:none;fill-opacity:1;stroke:#f2f2f2;stroke-width:2.88952279;stroke-miterlimit:4;stroke-dasharray:none;stroke-opacity:1"
       id="rect7023-1-50-7-9-5"
       width="22.023508"
       height="22.023508"
       x="-31.339966"
       y="292.32355"
       ry="0.11341934"
       transform="scale(-1,1)" />
    <text
       xml:space="preserve"
       style="font-style:normal;font-weight:normal;font-size:50.79999924px;line-height:1.25;font-family:sans-serif;letter-spacing:0px;word-spacing:0px;writing-mode:tb-rl;text-orientation:upright;fill:#f4f073;fill-opacity:1;stroke:none;stroke-width:0.26458332"
       x="106.90781"
       y="142.71947"
       id="text7285"><tspan
         sodipodi:role="line"
         x="143.24863"
         y="106.37864"
         style="font-size:50.79999924px;writing-mode:tb-rl;text-orientation:upright;fill:#f4f073;fill-opacity:1;stroke-width:0.26458332"
         id="tspan7289">御</tspan></text>
    <text
       xml:space="preserve"
       style="font-style:normal;font-weight:normal;font-size:50.79999924px;line-height:1.25;font-family:sans-serif;letter-spacing:0px;word-spacing:0px;writing-mode:tb-rl;text-orientation:upright;fill:#f4f073;fill-opacity:1;stroke:none;stroke-width:0.26458332"
       x="106.90781"
       y="218.91844"
       id="text7285-6"><tspan
         sodipodi:role="line"
         x="218.38928"
         y="107.43697"
         style="font-size:50.79999924px;writing-mode:tb-rl;text-orientation:upright;fill:#f4f073;fill-opacity:1;stroke-width:0.26458332"
         id="tspan7289-2">守</tspan></text>
  </g>
</svg>
