<?xml version="1.0" encoding="utf-8"?>
<!-- Generator: Adobe Illustrator 16.0.0, SVG Export Plug-In . SVG Version: 6.00 Build 0)  -->
<!DOCTYPE svg PUBLIC "-//W3C//DTD SVG 1.1//EN" "http://www.w3.org/Graphics/SVG/1.1/DTD/svg11.dtd">
<svg version="1.1" id="Calque_1" xmlns="http://www.w3.org/2000/svg" xmlns:xlink="http://www.w3.org/1999/xlink" x="0px" y="0px"
	 width="34.287px" height="28.343px" viewBox="942.41 527.691 34.287 28.343" enable-background="new 942.41 527.691 34.287 28.343"
	 xml:space="preserve">
<path fill="none" class="cls-2" stroke="#5020ee" stroke-width="2.2857" stroke-linecap="round" stroke-linejoin="round" d="M952.135,536.99
	c2.14-6.289,8.975-9.651,15.262-7.511c6.289,2.141,9.652,8.974,7.512,15.262c-2.141,6.29-8.975,9.652-15.262,7.512
	c-1.745-0.594-3.33-1.58-4.632-2.885"/>
<path fill="none" class="cls-2" stroke="#5020ee" stroke-width="2.2857" stroke-linecap="round" stroke-linejoin="round" d="M963.07,533.14v8.691
	h6.379"/>
<path fill="none" class="cls-1" stroke="#B0B0B5" stroke-width="2.2857" stroke-linecap="round" stroke-linejoin="round" d="M955.014,541.095
	c0,2.25-1.823,4.074-4.074,4.074c-2.25,0-4.074-1.824-4.074-4.074s1.824-4.074,4.074-4.074
	C953.19,537.021,955.014,538.845,955.014,541.095L955.014,541.095z"/>
<path fill="none" class="cls-1" stroke="#B0B0B5" stroke-width="2.2857" stroke-linecap="round" stroke-linejoin="round" d="M952.219,548.053
	h-3.59c-1.45,0.003-2.625,1.175-2.632,2.625v4.014"/>
<path fill="none" class="cls-1" stroke="#B0B0B5" stroke-width="2.2857" stroke-linecap="round" stroke-linejoin="round" d="M956.444,554.892
	h-12.891"/>
</svg>
