<svg xmlns="http://www.w3.org/2000/svg" xmlns:xlink="http://www.w3.org/1999/xlink" viewBox="0 0 16 15" height="16" width="16">
    <path fill-rule="evenodd" d="M9.12 11.592H2.464a.219.219 0 0 0-.224.224c0 .128.096.224.224.224H9.12a.219.219 0 0 0 .224-.224.219.219 0 0 0-.224-.224z"/>
    <path fill-rule="evenodd" d="M9.12 9.767H2.464a.219.219 0 0 0-.224.224c0 .128.096.224.224.224H9.12a.219.219 0 0 0 .224-.224.219.219 0 0 0-.224-.224z"/>
    <path fill-rule="evenodd" d="M9.12 7.973H2.464a.219.219 0 0 0-.224.225c0 .128.096.224.224.224H9.12a.219.219 0 0 0 .224-.224.219.219 0 0 0-.224-.225z"/>
    <path fill-rule="evenodd" d="M2.464 6.629h3.04a.219.219 0 0 0 .224-.225.219.219 0 0 0-.224-.224h-3.04a.219.219 0 0 0-.224.224c0 .129.096.225.224.225z"/>
    <path fill-rule="evenodd" d="M8.928 0a.59.59 0 0 1 .384.16l2.112 2.082a.53.53 0 0 1 .16.384v12.52a.561.561 0 0 1-.544.545H.544A.54.54 0 0 1 0 15.146V.544A.56.56 0 0 1 .544 0h8.384zm-7.84 1.089v13.513h9.408v-11.4H8.672a.32.32 0 0 1-.32-.32V1.089H1.088z"/>
    <path fill-rule="evenodd" d="M13.184.704h2.464c.16 0 .32.16.352.32v11.24c0 .032 0 .097-.032.129l-1.248 2.914c-.032.128-.16.192-.288.192-.128 0-.224-.064-.288-.192l-1.248-2.914c-.032-.032-.032-.097-.032-.129V1.024c0-.16.128-.32.32-.32zm1.632 12.617l.48-1.12V1.376h-.576v10.279a.219.219 0 0 1-.224.224.219.219 0 0 1-.224-.224V1.345h-.8V12.2l.48 1.121h.864z"/>
</svg>
