<?xml version="1.0" encoding="utf-8"?>
<svg version="1.1" xmlns="http://www.w3.org/2000/svg" xmlns:xlink="http://www.w3.org/1999/xlink" height="16" width="16">
  <defs>
    <path id="path-1" opacity="1" fill-rule="evenodd" d="M15.523809523809536,13.493975903614277 L10.82539682539685,8.73895582329314 C10.317460317460345,9.574297188754961 9.65079365079368,10.281124497991886 8.85714285714289,10.827309236947695 L13.523809523809543,15.550200803212608 C13.968253968253986,15.999999999999742 14.730158730158745,15.999999999999742 15.20634920634922,15.550200803212608 L15.555555555555568,15.196787148594145 C16.00000000000001,14.74698795180701 16.00000000000001,13.97590361445764 15.523809523809536,13.493975903614277Z"/>
    <path id="path-2" opacity="1" fill-rule="evenodd" d="M5.365081787109375,0 C8.317459106445312,0 10.698410034179688,2.4417724609375 10.698410034179688,5.429718017578125 C10.698410034179688,8.41766357421875 8.317459106445312,10.827316284179688 5.365081787109375,10.85943603515625 C2.380950927734375,10.85943603515625 0,8.41766357421875 0,5.429718017578125 C0,2.4417724609375 2.380950927734375,0 5.365081787109375,0 L5.365081787109375,0ZM1.23809814453125,5.429718017578125 C1.2698516845703125,7.7108306884765625 3.0793609619140625,9.574295043945312 5.365081787109375,9.574295043945312 C7.619049072265625,9.574295043945312 9.4603271484375,7.7108306884765625 9.4603271484375,5.429718017578125 C9.4603271484375,3.116455078125 7.619049072265625,1.2851409912109375 5.365081787109375,1.2530059814453125 C3.0793609619140625,1.2851409912109375 1.2698516845703125,3.116455078125 1.23809814453125,5.429718017578125 L1.23809814453125,5.429718017578125Z"/>
  </defs>
  <g opacity="1">
    <g opacity="1">
      <use xlink:href="#path-1" fill="rgb(80,32,238)" fill-opacity="1"/>
    </g>
    <g opacity="1">
      <use xlink:href="#path-2" fill="rgb(80,32,238)" fill-opacity="1"/>
    </g>
  </g>
</svg>