<?xml version="1.0" encoding="utf-8"?>
<!-- Generator: Adobe Illustrator 16.0.0, SVG Export Plug-In . SVG Version: 6.00 Build 0)  -->
<!DOCTYPE svg PUBLIC "-//W3C//DTD SVG 1.1//EN" "http://www.w3.org/Graphics/SVG/1.1/DTD/svg11.dtd">
<svg version="1.1" id="Calque_1" xmlns="http://www.w3.org/2000/svg" xmlns:xlink="http://www.w3.org/1999/xlink" x="0px" y="0px"
	 width="25px" height="25px" viewBox="0 0 25 25" enable-background="new 0 0 25 25" xml:space="preserve">
<g>
	<g>
		<path fill="none" stroke="#3860FF" stroke-linecap="round" stroke-linejoin="round" stroke-miterlimit="10" d="M10.266,16.4
			c1.582,0.884,3.619,0.656,4.963-0.688c1.346-1.346,1.572-3.38,0.689-4.963"/>
		<path fill="none" stroke="#3860FF" stroke-linecap="round" stroke-linejoin="round" stroke-miterlimit="10" d="M14.313,9.146
			c-1.582-0.883-3.618-0.656-4.963,0.689c-1.345,1.344-1.57,3.379-0.687,4.963"/>
	</g>
	<path fill="none" stroke="#3860FF" stroke-linecap="round" stroke-linejoin="round" stroke-miterlimit="10" d="M6.884,19.692
		l-0.55,3.491c1.01,0.587,2.108,1.035,3.273,1.316l2.332-2.6c0.182,0.01,0.359,0.025,0.545,0.025c0.194,0,0.383-0.016,0.575-0.027
		l2.333,2.602c1.165-0.281,2.264-0.729,3.273-1.316l-0.178-3.508c0.297-0.259,0.578-0.539,0.841-0.834l3.62,0.186
		c0.594-0.953,1.064-1.994,1.387-3.097l-2.722-2.474c0.018-0.23,0.035-0.461,0.035-0.695c0-0.201-0.018-0.399-0.03-0.599L24.5,9.544
		c-0.248-1.048-0.624-2.045-1.116-2.971l-4.019,0.58"/>
	<path fill="none" stroke="#171A44" stroke-linecap="round" stroke-linejoin="round" stroke-miterlimit="10" d="M18.02,5.693
		l0.684-4.004c-0.856-0.502-1.779-0.905-2.75-1.189l-2.809,3.131c-0.22-0.016-0.438-0.034-0.66-0.034
		c-0.213,0-0.421,0.018-0.631,0.032L9.122,0.582c-0.046-0.05-0.116-0.07-0.181-0.051C8.009,0.813,7.123,1.205,6.297,1.689
		l0.209,4.135c-0.34,0.295-0.658,0.613-0.952,0.953L1.616,6.573C1.124,7.499,0.748,8.496,0.5,9.544l2.851,2.591
		c-0.015,0.209-0.03,0.415-0.03,0.627c0,0.244,0.018,0.484,0.036,0.723l-2.692,2.446c0.322,1.103,0.793,2.144,1.387,3.097
		l3.564-0.682"/>
</g>
</svg>
