<svg xmlns="http://www.w3.org/2000/svg" xmlns:xlink="http://www.w3.org/1999/xlink" viewBox="0 0 16 9" height="16" width="16">
	<path fill-rule="evenodd" d="M6.148 3.798H2.382a.22.22 0 0 0-.225.225.22.22 0 0 0 .225.226h3.766a.22.22 0 0 0 .225-.226.22.22 0 0 0-.225-.225z"/>
	<path fill-rule="evenodd" d="M6.148 5.633H2.382a.22.22 0 0 0-.225.225.22.22 0 0 0 .225.225h3.766a.22.22 0 0 0 .225-.225.22.22 0 0 0-.225-.225z"/>
	<path fill-rule="evenodd" d="M6.148 7.467H2.382a.22.22 0 0 0-.225.226.22.22 0 0 0 .225.225h3.766a.22.22 0 0 0 .225-.225.22.22 0 0 0-.225-.226z"/>
	<path fill-rule="evenodd" d="M9.688 4.023a.22.22 0 0 0 .226.226h3.766a.22.22 0 0 0 .225-.226.22.22 0 0 0-.225-.225H9.914c-.097 0-.226.097-.226.225z"/>
	<path fill-rule="evenodd" d="M13.712 5.633H9.914a.22.22 0 0 0-.226.225.22.22 0 0 0 .226.225h3.766a.22.22 0 0 0 .225-.225c.032-.129-.064-.225-.193-.225z"/>
	<path fill-rule="evenodd" d="M13.712 7.467H9.914a.22.22 0 0 0-.226.226.22.22 0 0 0 .226.225h3.766a.22.22 0 0 0 .225-.225c.032-.129-.064-.226-.193-.226z"/>
	<path fill-rule="evenodd" d="M11.78 0c-1.384 0-2.928.225-3.733.772C7.242.225 5.697 0 4.313 0 2.318 0 0 .418 0 1.642v9.784c0 .161.064.322.193.419.129.129.29.16.45.129 1.095-.193 2.35-.29 3.638-.29 1.287 0 2.543.097 3.637.29h.161c1.094-.193 2.35-.29 3.637-.29 1.288 0 2.543.097 3.637.29h.097a.484.484 0 0 0 .354-.13.519.519 0 0 0 .193-.418V1.642C16.094.418 13.777 0 11.781 0zM1.128 10.783V1.738c.225-.225 1.351-.611 3.186-.611s2.961.386 3.187.611v9.045a25.298 25.298 0 0 0-3.187-.193c-1.094 0-2.189.064-3.186.193zm7.467-9.045v9.045a26.384 26.384 0 0 1 6.373 0V1.738c-.225-.225-1.352-.611-3.186-.611-1.835 0-2.962.386-3.187.611z"/>
</svg>
