<?xml version="1.0" encoding="utf-8"?>
<!-- Generator: Adobe Illustrator 16.0.0, SVG Export Plug-In . SVG Version: 6.00 Build 0)  -->
<!DOCTYPE svg PUBLIC "-//W3C//DTD SVG 1.1//EN" "http://www.w3.org/Graphics/SVG/1.1/DTD/svg11.dtd">
<svg version="1.1" id="Calque_1" xmlns="http://www.w3.org/2000/svg" xmlns:xlink="http://www.w3.org/1999/xlink" x="0px" y="0px"
	 width="25px" height="25px" viewBox="0 0 25 25" enable-background="new 0 0 25 25" xml:space="preserve">
<g>
	
		<line fill="none" stroke="#171A44" stroke-width="1.5" stroke-linecap="round" stroke-linejoin="round" stroke-miterlimit="10" x1="5.301" y1="19.5" x2="6.252" y2="16.275"/>
	<path fill="none" stroke="#171A44" stroke-width="1.5" stroke-linecap="round" stroke-linejoin="round" stroke-miterlimit="10" d="
		M1.252,18.275L5.301,19.5c-1.652-1.863-2.655-4.314-2.655-7c0-5.827,4.724-10.551,10.551-10.551S23.748,6.673,23.748,12.5
		s-4.724,10.551-10.551,10.551c-1.517,0-2.958-0.319-4.262-0.895"/>
</g>
<g>
	<path fill="#3860FF" d="M8.28,15.611v-0.725c1.893-1.733,2.92-2.722,2.92-3.655c0-0.622-0.424-1.036-1.234-1.036
		c-0.603,0-1.008,0.179-1.385,0.452H8.299V9.782c0.48-0.301,1.102-0.48,1.836-0.48c1.318,0,2.062,0.744,2.062,1.799
		c0,1.111-0.706,2.071-2.674,3.645l0.094,0.169c0.245-0.112,0.452-0.169,0.933-0.169h1.921v0.866H8.28z"/>
	<path fill="#3860FF" d="M13.143,14.18v-0.688l3.088-4.087h0.82v3.344c0,0.311-0.066,0.518-0.188,0.64l0.15,0.16
		c0.132-0.122,0.339-0.188,0.649-0.188h0.387v0.818h-0.387c-0.311,0-0.518-0.065-0.649-0.207l-0.15,0.18
		c0.122,0.131,0.188,0.328,0.188,0.64v0.819h-1.008v-0.819c0-0.312,0.065-0.509,0.197-0.64l-0.16-0.18
		c-0.141,0.142-0.348,0.207-0.649,0.207H13.143z M14.687,12.673c-0.255,0.349-0.442,0.537-0.669,0.659l0.104,0.198
		c0.16-0.085,0.377-0.169,0.66-0.169h0.649c0.302,0,0.509,0.065,0.649,0.188l0.16-0.16c-0.132-0.122-0.197-0.329-0.197-0.763v-0.933
		c0-0.442,0.113-0.753,0.179-0.96l-0.188-0.057c-0.065,0.198-0.188,0.471-0.48,0.876L14.687,12.673z"/>
</g>
</svg>
