<svg xmlns="http://www.w3.org/2000/svg" xmlns:xlink="http://www.w3.org/1999/xlink" height="13.493" width="16">
<path fill="#5020EE" fill-rule="evenodd" d="M15.332 11.33H5.504a.69.69 0 0 0-.669.668.69.69 0 0 0 .669.67h9.828a.69.69 0 0 0 .668-.67.663.663 0 0 0-.668-.668z"/>
<path fill="#5020EE" fill-rule="evenodd" d="M15.332 6.058H5.504a.69.69 0 0 0-.669.669.69.69 0 0 0 .669.669h9.828A.69.69 0 0 0 16 6.727a.663.663 0 0 0-.668-.669z"/>
<path fill="#5020EE" fill-rule="evenodd" d="M5.504 2.203h9.828A.69.69 0 0 0 16 1.534a.69.69 0 0 0-.668-.669H5.504a.69.69 0 0 0-.669.67.69.69 0 0 0 .669.668z"/>
<path fill="#5020EE" fill-rule="evenodd" d="M2.359 0H.669A.69.69 0 0 0 0 .669V2.36a.69.69 0 0 0 .668.67h1.69a.69.69 0 0 0 .669-.67V.67A.69.69 0 0 0 2.359 0z"/>
<path fill="#5020EE" fill-rule="evenodd" d="M2.359 5.232H.669A.69.69 0 0 0 0 5.901v1.691a.69.69 0 0 0 .668.67h1.69a.69.69 0 0 0 .669-.67V5.901a.69.69 0 0 0-.668-.669z"/>
<path fill="#5020EE" fill-rule="evenodd" d="M2.359 10.464H.669a.69.69 0 0 0-.669.669v1.691a.69.69 0 0 0 .668.67h1.69a.69.69 0 0 0 .669-.67v-1.691a.69.69 0 0 0-.668-.669z"/>
</svg>
