<?xml version="1.0" encoding="UTF-8"?>
<svg width="16" height="16" version="1.1" xmlns="http://www.w3.org/2000/svg">
 <g transform="scale(1.0667)">
  <path d="m0 7.5c0 4.3069 3.1188 7.5 7.5 7.5 4.3069 0 7.5-3.1188 7.5-7.5 0-4.3812-3.1931-7.5-7.5-7.5-4.3812 0-7.5 3.1188-7.5 7.5zm1.4109 0c0-3.6386 2.5247-6.0891 6.0891-6.0891 3.5643 0 6.0891 2.5247 6.0891 6.0891 0 3.6386-2.5248 6.0891-6.0891 6.0891-3.5644 0-6.0891-2.4505-6.0891-6.0891zm6.0891-4.3069c2.599 0 4.3069 1.7079 4.3069 4.3069 0 2.599-1.7079 4.3069-4.3069 4.3069-2.599 0-4.3069-1.7079-4.3069-4.3069 0-2.599 1.7079-4.3069 4.3069-4.3069zm2.8218 4.3069c0 1.7822-1.1881 2.9703-2.8961 2.9703-1.7079 0-2.896-1.1139-2.896-2.9703 0-1.7822 1.1881-2.9703 2.896-2.9703 1.7822 0 2.8961 1.1881 2.8961 2.9703zm-2.8961 1.1138c-0.6683 0-1.1139-0.44553-1.1139-1.1139 0-0.6683 0.51981-1.1881 1.1139-1.1881 0.74258 0 1.1881 0.51981 1.1881 1.1881 0 0.59406-0.51981 1.1139-1.1881 1.1139z" fill-rule="evenodd"/>
 </g>
</svg>
