
<svg xmlns="http://www.w3.org/2000/svg" id="Calque_1" data-name="Calque 1" viewBox="0 0 41.67 50.25">
  <path fill="none" stroke="#5020ee" stroke-linejoin="round" stroke-width="2px" d="M34.47 26.72L26 41.61l-1.56 7.63s-6.64.26-6.64-7.53a16.69 16.69 0 0 1 2.82-9.15" class="cls-1"/>
  <path fill="none" stroke="#5020ee" stroke-linejoin="round" stroke-width="2px" stroke-linecap="round" d="M40.69 17.86a13.16 13.16 0 0 1-5.57 8.44 15.13 15.13 0 0 1-5 2.25 16 16 0 0 1-3.82.45M14.24 1.16H26.3c7.24 0 13.29 4.85 14.39 11.15" class="cls-2"/>
  <path fill="none" stroke="#5020ee" stroke-linejoin="round" stroke-width="2px" d="M15.3 8.12H9.73A3.69 3.69 0 0 1 5.9 4.64a3.68 3.68 0 0 1 3.83-3.48h4.51" class="cls-1"/>
  <path fill="none" stroke="#5020ee" stroke-linejoin="round" stroke-width="2px" d="M15.3 15.09H4.88a3.68 3.68 0 0 1-3.83-3.49 3.68 3.68 0 0 1 3.83-3.48H15.3" class="cls-1"/>
  <path fill="none" stroke="#5020ee" stroke-linejoin="round" stroke-width="2px" d="M15.3 22.05H4.88a3.68 3.68 0 0 1-3.83-3.48 3.67 3.67 0 0 1 3.83-3.48H15.3" class="cls-1"/>
  <path fill="none" stroke="#5020ee" stroke-linejoin="round" stroke-width="2px" d="M18.42 29H4.88a3.67 3.67 0 0 1-3.83-3.48 3.68 3.68 0 0 1 3.83-3.48H15.3" class="cls-1"/>
</svg>