<?xml version="1.0" encoding="UTF-8"?>
<svg width="16" height="16" version="1.1" xmlns="http://www.w3.org/2000/svg">
 <g transform="translate(1.5)" fill-rule="evenodd">
  <path d="m11.5 4.6h-0.79999c1.4 1.2 2.3 3 2.3 4.9 0 3.6-2.9 6.5-6.5 6.5-3.6 0-6.5-2.9-6.5-6.5 0-3.2 2.4-5.9 5.5-6.4v-1.4h-0.50001v-1.7h3.2v1.7h-0.70001v1.4c1.1 0.19998 2.1 0.50001 2.9 1.2v-0.89999l1-1c0-0.10001 0.10001-0.10001 0.10001-0.10001l1.2 1.1v0.10001l-1 1c0 0.10001-0.10001 0.10001-0.10001 0.10001zm-10.5 4.9c0 3.1 2.5 5.5 5.5 5.5s5.5-2.4 5.5-5.5c0-3-2.5-5.5-5.5-5.5s-5.5 2.5-5.5 5.5z"/>
  <path d="m9.1 6.3-2.9 3c-0.2 0.1-0.2 0.4 0 0.5 0.2 0.2 0.4 0.2 0.6 0l2.9-2.9c0.2-0.2 0.2-0.4 0-0.6-0.2-0.1-0.4-0.1-0.6 0z"/>
 </g>
</svg>
