<?xml version="1.0" encoding="utf-8"?>
<!-- Generator: Adobe Illustrator 16.0.0, SVG Export Plug-In . SVG Version: 6.00 Build 0)  -->
<!DOCTYPE svg PUBLIC "-//W3C//DTD SVG 1.1//EN" "http://www.w3.org/Graphics/SVG/1.1/DTD/svg11.dtd">
<svg version="1.1" id="Calque_1" xmlns="http://www.w3.org/2000/svg" xmlns:xlink="http://www.w3.org/1999/xlink" x="0px" y="0px"
	 width="25px" height="25px" viewBox="0 0 25 25" enable-background="new 0 0 25 25" xml:space="preserve">
<g>
	<path fill="#3860FF" d="M16.735,9.089c0.338-0.004,0.807-0.008,0.829-0.012c0.037-0.007,0.074-0.026,0.104-0.057l0.904-0.903
		c0.03-0.03,0.051-0.068,0.057-0.104c0.006-0.037-0.002-0.069-0.023-0.091l-1.056-1.055c-0.021-0.021-0.054-0.03-0.09-0.025
		C17.424,6.85,17.385,6.87,17.356,6.9l-0.903,0.903c-0.03,0.03-0.052,0.068-0.058,0.104c-0.004,0.024-0.006,0.562-0.007,0.905
		c-0.846-0.634-1.848-1.066-2.94-1.227V6.208h0.541c0.042,0,0.084-0.012,0.112-0.033c0.032-0.021,0.048-0.051,0.048-0.081V4.602
		c0-0.03-0.017-0.059-0.047-0.08c-0.029-0.021-0.071-0.033-0.113-0.033h-2.978c-0.042,0-0.084,0.012-0.113,0.033
		s-0.047,0.05-0.047,0.08v1.492c0,0.03,0.018,0.06,0.048,0.081c0.028,0.021,0.07,0.033,0.112,0.033h0.541v1.379
		c-3.136,0.461-5.554,3.162-5.554,6.424c0,3.585,2.917,6.501,6.502,6.501s6.501-2.916,6.501-6.501
		C19.001,12.044,18.12,10.281,16.735,9.089z M12.5,19.51c-3.032,0-5.498-2.468-5.498-5.499S9.468,8.513,12.5,8.513
		c3.031,0,5.498,2.467,5.498,5.498S15.532,19.51,12.5,19.51z"/>
	<path fill="#3860FF" d="M15.124,10.812l-2.937,2.936c-0.155,0.156-0.155,0.407,0,0.563c0.155,0.154,0.407,0.154,0.562,0
		l2.937-2.937c0.154-0.155,0.154-0.407,0-0.562C15.53,10.657,15.279,10.657,15.124,10.812z"/>
</g>
</svg>
