<?xml version="1.0" encoding="utf-8"?>
<!-- Generator: Adobe Illustrator 16.0.0, SVG Export Plug-In . SVG Version: 6.00 Build 0)  -->
<!DOCTYPE svg PUBLIC "-//W3C//DTD SVG 1.1//EN" "http://www.w3.org/Graphics/SVG/1.1/DTD/svg11.dtd">
<svg version="1.1" id="trash" xmlns="http://www.w3.org/2000/svg" xmlns:xlink="http://www.w3.org/1999/xlink" x="0px" y="0px"
	 width="18px" height="18px" viewBox="0 0 18 18" enable-background="new 0 0 18 18" xml:space="preserve">
<g>
	<path fill="#A9A9A9" d="M5.916,14.932c0.229,0,0.416-0.178,0.416-0.4V6.184c0-0.221-0.186-0.4-0.416-0.4
		c-0.229,0-0.415,0.18-0.415,0.4v8.348C5.501,14.754,5.688,14.932,5.916,14.932z"/>
	<path fill="#A9A9A9" d="M8.5,14.932c0.229,0,0.416-0.178,0.416-0.4V6.184c0-0.221-0.186-0.4-0.416-0.4
		c-0.229,0-0.415,0.18-0.415,0.4v8.348C8.085,14.754,8.271,14.932,8.5,14.932z"/>
	<path fill="#A9A9A9" d="M11.084,14.932c0.229,0,0.416-0.178,0.416-0.4V6.184c0-0.221-0.188-0.4-0.416-0.4
		c-0.229,0-0.416,0.18-0.416,0.4v8.348C10.668,14.754,10.854,14.932,11.084,14.932z"/>
	<path fill="#A9A9A9" d="M14.669,3.134h-2.993V2.277c0-0.653-0.549-1.186-1.226-1.186H6.551c-0.678,0-1.229,0.532-1.229,1.186v0.857
		H2.331C1.871,3.134,1.5,3.493,1.5,3.936c0,0.442,0.371,0.801,0.831,0.801h0.521v11.687c0,0.369,0.31,0.668,0.692,0.668h9.914
		c0.381,0,0.691-0.299,0.691-0.668V4.737h0.521c0.459,0,0.831-0.358,0.831-0.801C15.5,3.493,15.128,3.134,14.669,3.134z M6.43,2.277
		c0-0.064,0.054-0.118,0.121-0.118h3.898c0.066,0,0.121,0.053,0.121,0.118v0.857H6.43V2.277z M12.765,15.756H4.235V4.737h8.529
		V15.756z"/>
</g>
</svg>
