<?xml version="1.0" encoding="utf-8"?>
<!-- Generator: Adobe Illustrator 16.0.0, SVG Export Plug-In . SVG Version: 6.00 Build 0)  -->
<!DOCTYPE svg PUBLIC "-//W3C//DTD SVG 1.1//EN" "http://www.w3.org/Graphics/SVG/1.1/DTD/svg11.dtd">
<svg version="1.1" id="Calque_1" xmlns="http://www.w3.org/2000/svg" xmlns:xlink="http://www.w3.org/1999/xlink" x="0px" y="0px"
	 width="30.202px" height="25.017px" viewBox="0 0 30.202 25.017" enable-background="new 0 0 30.202 25.017" xml:space="preserve">
<g>
	<path fill="none" stroke="#3860FF" stroke-linecap="round" stroke-linejoin="round" stroke-miterlimit="10" d="M12.474,10.508
		c2.033,1.138,4.652,0.845,6.383-0.885c1.729-1.729,2.021-4.348,0.885-6.383"/>
	<path fill="none" stroke="#3860FF" stroke-linecap="round" stroke-linejoin="round" stroke-miterlimit="10" d="M17.68,1.178
		c-2.035-1.137-4.653-0.845-6.384,0.885c-1.729,1.73-2.021,4.349-0.885,6.385"/>
</g>
<path fill="none" stroke="#3860FF" stroke-linecap="round" stroke-linejoin="round" stroke-miterlimit="10" d="M7.549,24.517V17.73
	c0-1.854,1.517-3.372,3.372-3.372h8.311c1.854,0,3.372,1.518,3.372,3.372v6.786"/>
<circle fill="none" stroke="#171A44" stroke-linecap="round" stroke-linejoin="round" stroke-miterlimit="10" cx="4.333" cy="9.215" r="3.179"/>
<path fill="none" stroke="#171A44" stroke-linecap="round" stroke-linejoin="round" stroke-miterlimit="10" d="M25.121,15.726h2.528
	c1.129,0,2.053,0.925,2.053,2.052l-0.031,6.739H0.5v-3.965v-2.774c0-1.127,0.923-2.052,2.052-2.052H5.08"/>
<circle fill="none" stroke="#171A44" stroke-linecap="round" stroke-linejoin="round" stroke-miterlimit="10" cx="25.868" cy="9.215" r="3.179"/>
</svg>
