<svg xmlns="http://www.w3.org/2000/svg" viewBox="0 0 843.8 1038.45"><title>done</title><g id="Layer_2" data-name="Layer 2"><g id="Layer_1-2" data-name="Layer 1"><path d="M838.87,860.77c2-11.14.79-24.31-3.09-33-3.72-8.34-4.86-12.65-5.47-21.63-.65-8.8-5-19.42-12.49-31.07-.15-5.31-1.12-11.56-4.79-20.31-2.78-6.62-5.63-13.33-8.68-19.88A188.6,188.6,0,0,0,794.41,716c-3.18-5.2-6.29-10-9.57-14.71a145.94,145.94,0,0,0-11-14.07,73.93,73.93,0,0,0-8.34-7.92,66.55,66.55,0,0,0-10-6.53,58.07,58.07,0,0,0-11.12-4.52,50.94,50.94,0,0,0-11.61-2.06c-.81-.08-1.62-.1-2.43-.1l-2.39,0-2.36.13a22.71,22.71,0,0,0-2.32.2l-2.29.28c-.76.1-1.51.28-2.26.41a45.3,45.3,0,0,0-4.45,1.05A61.92,61.92,0,0,0,697.43,676a56.34,56.34,0,0,0-13.32,12.84A143.18,143.18,0,0,0,674,704.31c-6.33,11-10,20.88-10.56,27.91a176.52,176.52,0,0,0-13.8,16.66c-4,5.41-7.42,10.83-11.84,16.53-3.29.9-6.68,1.82-10.09,2.49a68.47,68.47,0,0,1-10.33,1.26c-3.45.17-6.9.11-10.19,0-1.63-.12-3.24-.11-4.75-.2l-2.21,0q-1-.05-2,0c-.35-.32-.71-.62-1.06-1l-1-1.11c-.68-.74-1.41-1.43-2.12-2.3s-1.56-1.58-2.41-2.54c-.44-.46-.9-.91-1.41-1.37s-1-1-1.56-1.5a68.34,68.34,0,0,1-9.51-11.3c-2.88-4.16-5.51-8.57-8.09-13.06s-5.09-9.08-7.91-13.53-5.76-8.74-8.87-12.84a20.32,20.32,0,0,1-2.8-5.09c-.78-1.81-1.52-3.47-2.23-5s-1.48-2.92-2.19-4.24a78.39,78.39,0,0,0-4.26-7,87,87,0,0,0-10.93-12.66,74.1,74.1,0,0,0-8.81-17.53c-2.08-3-4.09-6.08-6.22-9.06l-6.49-8.87L503.92,630l-3.24-4.44c-1.1-1.46-2.25-2.89-3.38-4.33a62.59,62.59,0,0,0-9.64-10.09,17.42,17.42,0,0,1-5.54-6.82A81.48,81.48,0,0,0,472,589.78a70.45,70.45,0,0,0-5.78-5.89,48,48,0,0,0-6.37-5c-3.19-2.1-4-3.11-5.2-5.85-1.91-4.22-5.73-9.24-10.64-14.83-7-7.5-15.44-11.51-17.31-14.2-2.31-3.33-4.35-6.44-6.9-9.5a99.52,99.52,0,0,0-9.15-9.88c-2.32-2.2-4.65-4.47-7-6.76s-4.77-4.45-7.14-6.65c-4.77-4.38-9.53-8.62-14.22-12.32l-1.83-1.46-1.84-1.39-3.58-2.78c-2.34-1.86-4.6-3.71-6.81-5.6s-4.37-3.79-6.52-5.73l-3.22-3-3.31-2.92c-6.93-6.14-13.59-7.14-17.83-11.43-2.6-2.71-5.08-5.12-7.77-7.57a100.84,100.84,0,0,0-9.24-7.53l-7.8-5.62c-2.62-1.85-5.31-3.59-8-5.4l-15.93-10.77a57.79,57.79,0,0,0-10.91-5.87c-3.85-1.38-5.87-3.1-9.55-5.85-2.17-1.6-4.33-3.24-6.59-4.75s-4.55-3-6.86-4.4q-6.93-4.33-14.07-8.43c-4.72-2.77-9.68-5.26-14.64-7.68s-10-4.66-15.15-6.74a24.42,24.42,0,0,0-6.58-1.54c-2.74-.26-3.85-.77-6.65-2.78-9.95-7.08-19.35-10.57-33-11.52a17,17,0,0,1-7-1.5c-7.23-2.86-13-4.29-18.82-4.71a58.33,58.33,0,0,0-19.26,2.21,48.06,48.06,0,0,0-20.33.53,45,45,0,0,0-10.71,4.16c-3,1.52-5.48,3.25-8.4,4.66-1.4.67-2.78,1.37-4.29,1.92s-3.09,1.08-4.7,1.78-3.38,1.33-5.16,2.25a57,57,0,0,0-5.57,3.34,46.81,46.81,0,0,0-5.17,4.52c-1.42,1.56-2.65,3.08-3.8,4.5s-2.13,2.87-3.23,4.13c-.54.64-1.12,1.24-1.7,1.82a19.45,19.45,0,0,1-1.82,1.71,75.4,75.4,0,0,0-16.63,18.65,166.61,166.61,0,0,0-13.29,26.23c-4.69,11.52-6.62,22.14-5.18,28.74a58.72,58.72,0,0,0-6.84,21.17A66,66,0,0,0,4.34,517c-.59,1.95-1.09,3.82-1.49,5.65s-.76,3.61-1,5.37-.45,3.49-.54,5.18a43.87,43.87,0,0,0-.05,5.14,80.15,80.15,0,0,0,1.28,10.85c.35,1.91.77,3.88,1.26,5.93s1.13,4.17,1.82,6.42A37.07,37.07,0,0,0,4.1,576.73c2.09,20.77,3.84,42.32,10,61.68a16.43,16.43,0,0,1,1,4.84,75.66,75.66,0,0,0,9.2,35.08,56.71,56.71,0,0,0,2.18,18.82c3.83,14.14,7.65,28.91,12.72,41.89,4.64,11.87,8.12,22.13,12,34A290.13,290.13,0,0,0,66.8,811.52C72.52,823,77.15,833.1,82.12,845a259.08,259.08,0,0,0,19.09,36.78c7,11,12.55,20.9,18.78,32.09a279.43,279.43,0,0,0,22.19,33.8c8.17,10.52,15.11,20.1,23.62,30.6a112.65,112.65,0,0,0,14.11,14.29,136.23,136.23,0,0,0,16.83,12.05c6.94,4.3,13.72,6.67,18.61,7,3.29.16,4.48.8,7.52,2.71a50.82,50.82,0,0,0,17.29,6.7,57.6,57.6,0,0,0,18.36.65c3.91-.56,5.11-.18,7.86.94a39,39,0,0,0,7.88,2.15,93.16,93.16,0,0,0,10.23,1.09c10.34.61,18.25-2.67,22.42-2.06,7.72,1.07,13.78,2.59,23.79,2.44,12.72-.17,25.8.31,37.85.17,3.1,0,6.12,0,9.16,0s6,.17,9,.33c6,.31,11.87.82,17.87,1.66.32,0,.72,0,1.08.07,8.14.5,13.27-1.58,18.64-1.2,6.17.44,10.88,2.77,19.51,3.1,14.56.55,29.6,1.65,43.62,1.25,11.88-.37,21.89-.25,33.83.3a309,309,0,0,0,43.58-1.1,223.79,223.79,0,0,1,34.46-.81c13.55.68,28.78,1.12,42.23.45,13.1-.67,24.35-.51,37.21-.41a191.06,191.06,0,0,0,39.43-3.68l5.15-1,5-1.1,5-1c1.65-.33,3.27-.75,4.9-1.1l4.9-1.07,2.46-.51,2.48-.59c3.31-.78,6.65-1.64,10-2.62a117.37,117.37,0,0,0,35.51-17.49c1-.74,1.89-1.58,2.83-2.31q1.9-1.38,3.91-3a111.61,111.61,0,0,0,16-15.85,91.3,91.3,0,0,0,11.7-18.7l2-4.42,1.73-4.37.86-2.15.76-2.17,1.53-4.29,1.38-4.33c.23-.72.49-1.44.7-2.18l.63-2.21c.42-1.48.89-3,1.31-4.47l1.23-4.62c3-11,3.36-23.73,3.54-35.63S842.34,867.08,838.87,860.77Z" style="fill:#f2d525;"/><path d="M455.58,1004.69a20.17,20.17,0,0,0-.85-2.49c-.3-.8-.72-1.5-1-2.26s-.79-1.39-1.21-2.06-.85-1.37-1.31-2c-1.78-2.53-4.49-3.94-6.68-5.43a4.35,4.35,0,0,0-4-.78c-.92.32-1.07.08-1.25-.82a7.4,7.4,0,0,0-.66-1.94,4.28,4.28,0,0,0-1.07-1.29A3.92,3.92,0,0,0,436,985a5.32,5.32,0,0,0-.92-.11,8.32,8.32,0,0,0-1,0c-1,0-1.07-.22-.89-1a4.46,4.46,0,0,0-.57-3.35,4,4,0,0,0-2-1.43c-.78-.34-1.44-.66-1.4-1.09.19-1.61,1-2.94.45-4.6-.63-2.16-.6-4.55-1.3-6.72a10.85,10.85,0,0,1-.3-6.76.76.76,0,0,0,0-.21c0-1.54-1.72-2.51-1.63-3.56.12-1.21,1.69-2.09,1.73-3.79,0-2.86.59-5.79.18-8.55a16.18,16.18,0,0,1,.26-6.61,22.55,22.55,0,0,0,.33-8.51,17.25,17.25,0,0,1,.23-6.82,21.34,21.34,0,0,0,.32-8.3,17.49,17.49,0,0,1,.31-7.25,20.22,20.22,0,0,0,.26-7.67,19.74,19.74,0,0,1,.32-7.86,41.36,41.36,0,0,0,.36-7.48,6.53,6.53,0,0,0-.1-1.22h.05c0-.13,0-.25.06-.39.2-2.78.69-5.65.3-8.35a16.29,16.29,0,0,1,.32-7c.58-2.15.25-4.52.42-6.87s-.31-4.4-2.37-5.7c2.38-2.15,3.19-4.79,1.7-6.58s-1.49-2.58-.25-4.42.27-4-2.27-6.46a4.84,4.84,0,0,0,1.68-4.39c-.21-1.44-.37-2.92-.63-4.39a16.25,16.25,0,0,0-1.31-4.35c-1.21-2.42-2.08-4.45-3.11-7a14.9,14.9,0,0,0-2.7-4.29,13.93,13.93,0,0,0-4.15-3.15c-1.28-.64-2.49-1.16-3.69-1.67-.61-.24-1.21-.5-1.82-.8s-1.26-.51-1.93-.84a7.25,7.25,0,0,0-2-.57c-.35-.06-.7-.12-1.05-.15h-1.07a14.61,14.61,0,0,0-2.14.12c-.7.1-1.42.11-2.08.24-2.92.31-5.12,1.75-5.58,4.16-4.33-1.68-7.52.47-7.65,4.89a5.35,5.35,0,0,0-5.17,1.95,5,5,0,0,0-1,2.43,4.76,4.76,0,0,0,.35,2.62c-1.22.17-2.7.37-3.42,1.63-.62,1-1.06,2-1.6,3a20.34,20.34,0,0,0-1.42,3.12,20,20,0,0,0-.85,3.26,10.73,10.73,0,0,0,.14,3.37,1.25,1.25,0,0,1-.36,1.15,6.52,6.52,0,0,0-1.46,3.61,4.36,4.36,0,0,0,.33,1.66,12,12,0,0,0,1.13,1.92c-1.05,1-2.18,2-2.23,3.78,0,1.49-.15,3-.17,4.46l0,4.42a4.11,4.11,0,0,0,1.08,2.75c.55.6.7.92.15,1.75-1.62,2.51-1.4,4.72.77,6.64.76.68.69.94,0,1.54a4.62,4.62,0,0,0-1.31,3.65c0,2,2.55,3.56,2.2,4.21-.88,1.62-1.81,3-1.64,5,.22,2.47-.21,5.05.41,7.31a12.12,12.12,0,0,1,.4,3.4,16.81,16.81,0,0,1-.53,3.41c-.46,1.81,2,3,1.43,4.16-.74,1.45-1.6,2.68-1.58,4.43,0,2.51,0,5,0,7.54a3.67,3.67,0,0,0,.64,2.42c.65.78.36,1.3.08,2.2-1.32,4.22-1,8.57-.12,12.85a2.54,2.54,0,0,0,1,1.28c.65.5.65.74.07,1.4-2.06,2.35-2.08,4.24-.19,6.79.37.5.56.71.12,1.38-1.95,3-1.78,4.5.67,7.35a5.41,5.41,0,0,0-1.7,3.89c0,1.7,1.42,2.68,1.66,3.91s-1.39,2.4-1.43,4.16,2.22,3,1.56,4.28a9.12,9.12,0,0,0-1.15,4.81c.11,1.88.25,3.76.31,5.68.06,2.42.74,4.52,3,5.48-2.93,3.37-2.44,6.36,1.4,8.74-1.1,1.93-1.43,3.54-.92,4.94s1.86,2.61,4.1,3.6c-.56,1.1-1.08,2.57-.27,3.82a38.06,38.06,0,0,0,4.09,5.71,11.42,11.42,0,0,0,5.85,3.55c.4.09.7.16.89.57,1.53,3.07,4.33,3.76,7.13,2.67a4.66,4.66,0,0,0,2.88,3.25c2.86,1,5.76,2.36,8.63,2.48a20.55,20.55,0,0,1,7.06,1.58,21.08,21.08,0,0,0,8.17,1.46,39.16,39.16,0,0,1,7.9.58,13.66,13.66,0,0,0,4.81-.15c.41-.1.82-.2,1.23-.32s.84-.3,1.24-.46a12.15,12.15,0,0,0,2.2-1.26,55,55,0,0,0,7-5.84,11.52,11.52,0,0,0,2.7-4.73A10,10,0,0,0,455.58,1004.69Z" style="fill:#382d15;"/><path d="M301.67,1002.2c-.3-.8-.72-1.5-1-2.26s-.79-1.39-1.21-2.06-.85-1.37-1.32-2c-1.78-2.53-4.49-3.94-6.68-5.43a4.35,4.35,0,0,0-4-.78c-.92.32-1.07.08-1.25-.82a7.39,7.39,0,0,0-.66-1.94,4.28,4.28,0,0,0-1.07-1.29A3.92,3.92,0,0,0,283,985a5.32,5.32,0,0,0-.92-.11,8.32,8.32,0,0,0-1,0c-1,0-1.07-.22-.89-1a4.47,4.47,0,0,0-.57-3.35,4,4,0,0,0-2-1.43c-.78-.34-1.44-.66-1.4-1.09.19-1.61,1-2.94.45-4.6-.63-2.16-.6-4.55-1.3-6.72a10.86,10.86,0,0,1-.3-6.76.74.74,0,0,0,0-.21c0-1.54-1.72-2.51-1.63-3.56.12-1.21,1.69-2.09,1.73-3.79,0-2.86.59-5.79.18-8.55a16.18,16.18,0,0,1,.26-6.61,22.56,22.56,0,0,0,.33-8.51,17.26,17.26,0,0,1,.23-6.82,21.34,21.34,0,0,0,.32-8.3,17.49,17.49,0,0,1,.31-7.25,20.22,20.22,0,0,0,.26-7.67,19.72,19.72,0,0,1,.32-7.86,41.31,41.31,0,0,0,.36-7.48,6.53,6.53,0,0,0-.1-1.22h.05c0-.13,0-.25.06-.39.2-2.78.69-5.65.3-8.35a16.29,16.29,0,0,1,.32-7c.58-2.15.25-4.52.42-6.87s-.31-4.4-2.37-5.7c2.38-2.15,3.19-4.79,1.7-6.58s-1.49-2.58-.25-4.42.27-4-2.27-6.46a4.84,4.84,0,0,0,1.68-4.39c-.21-1.44-.37-2.92-.63-4.39a16.25,16.25,0,0,0-1.31-4.35c-1.21-2.42-2.08-4.45-3.11-7a14.91,14.91,0,0,0-2.7-4.29,13.92,13.92,0,0,0-4.15-3.15c-1.28-.64-2.49-1.16-3.69-1.67-.61-.24-1.21-.5-1.82-.8s-1.26-.51-1.93-.84a7.26,7.26,0,0,0-2-.57c-.35-.06-.7-.12-1.05-.15h-1.07a14.6,14.6,0,0,0-2.14.12c-.7.1-1.42.11-2.08.24-2.93.31-5.12,1.75-5.58,4.16-4.33-1.68-7.52.47-7.65,4.89a5.35,5.35,0,0,0-5.17,1.95,5,5,0,0,0-1,2.43,4.76,4.76,0,0,0,.34,2.62c-1.21.17-2.7.37-3.42,1.63-.62,1-1.06,2-1.6,3a20.34,20.34,0,0,0-1.42,3.12,20,20,0,0,0-.85,3.26,10.73,10.73,0,0,0,.14,3.37,1.25,1.25,0,0,1-.36,1.15,6.51,6.51,0,0,0-1.46,3.61,4.36,4.36,0,0,0,.33,1.66,12,12,0,0,0,1.13,1.92c-1.05,1-2.18,2-2.23,3.78,0,1.49-.15,3-.17,4.46l0,4.42a4.11,4.11,0,0,0,1.08,2.75c.55.6.69.92.15,1.75-1.62,2.51-1.4,4.72.77,6.64.76.68.69.94,0,1.54a4.62,4.62,0,0,0-1.31,3.65c0,2,2.55,3.56,2.2,4.21-.88,1.62-1.8,3-1.64,5,.22,2.47-.21,5.05.41,7.31a12.1,12.1,0,0,1,.4,3.4,16.81,16.81,0,0,1-.53,3.41c-.46,1.81,2,3,1.43,4.16-.74,1.45-1.6,2.68-1.58,4.43,0,2.51,0,5,0,7.54a3.67,3.67,0,0,0,.64,2.42c.65.78.36,1.3.08,2.2-1.32,4.22-1,8.57-.12,12.85a2.54,2.54,0,0,0,1,1.28c.65.5.65.74.07,1.4-2.06,2.35-2.08,4.24-.19,6.79.37.5.56.71.12,1.38-1.95,3-1.78,4.5.67,7.35a5.41,5.41,0,0,0-1.7,3.89c0,1.7,1.42,2.68,1.66,3.91s-1.39,2.4-1.43,4.16,2.22,3,1.56,4.28a9.12,9.12,0,0,0-1.15,4.81c.11,1.88.25,3.76.31,5.68.06,2.42.74,4.52,3,5.48-2.93,3.37-2.44,6.36,1.41,8.74-1.1,1.93-1.43,3.54-.92,4.94s1.86,2.61,4.1,3.6c-.56,1.1-1.08,2.57-.27,3.82a38.1,38.1,0,0,0,4.09,5.71,11.41,11.41,0,0,0,5.85,3.55c.4.09.7.16.89.57,1.53,3.07,4.33,3.76,7.13,2.67a4.66,4.66,0,0,0,2.88,3.25c2.86,1,5.76,2.36,8.63,2.48a20.55,20.55,0,0,1,7.05,1.58,21.08,21.08,0,0,0,8.17,1.46,39.16,39.16,0,0,1,7.9.58,13.66,13.66,0,0,0,4.81-.15c.41-.1.82-.2,1.23-.32s.84-.3,1.24-.46a12.16,12.16,0,0,0,2.19-1.26,55,55,0,0,0,7-5.84,11.53,11.53,0,0,0,2.7-4.73,10,10,0,0,0,0-5.6A20.17,20.17,0,0,0,301.67,1002.2Z" style="fill:#382d15;"/><path d="M464.9,771.82c-.17-2.65,1.48-5.25,1.59-9.19.12-4.2-2.12-6.83-1.42-9.7a40.42,40.42,0,0,0,1.29-10.65c-.07-4.17-.15-8.35-.13-12.52,0-5.29-.49-9.84-2.64-12.49,3.21-6.69,3.11-12.4-.17-19.31,3-6.92,2.88-11.57-.43-19.52a11.34,11.34,0,0,0,2-6.59c-.11-4.55.09-9.34-.51-14.24a32.89,32.89,0,0,0-1.68-7.3,21.54,21.54,0,0,0-3.76-6.62,6.7,6.7,0,0,1-1.36-2A14.36,14.36,0,0,0,443,632.43a13.71,13.71,0,0,0-8.11-3.87,88.65,88.65,0,0,0-19.69-.81,87.56,87.56,0,0,1-15.8-.11,109.25,109.25,0,0,0-18.18,0,87.68,87.68,0,0,1-16.14,0,94.57,94.57,0,0,0-18.16.16,94.11,94.11,0,0,1-16.3.3,104.49,104.49,0,0,0-17.73.48,101.14,101.14,0,0,1-16.78.7c-2.78-.09-5.66,0-8.57.22s-5.84.49-8.73.66c-3.43.18-6.38.83-8.3,2.12-1.28.86-1.88.8-3.43.26a19.5,19.5,0,0,0-15.75,1.37c-1.59.9-2.14.82-3.45.28-2.05-.85-4.85-1-8.11-.71-4.51.41-7.66,3.24-9.53,3-.86-.1-1.72-.22-2.49-.35l-2.34-.4a23.25,23.25,0,0,0-5.57-.25c-5.6.43-11.66.46-17.24,2.14a54.61,54.61,0,0,0-8.37,3.22,28.17,28.17,0,0,0-4.09,2.47,17.42,17.42,0,0,0-3.78,3.76,3.29,3.29,0,0,0-.32.54,10.5,10.5,0,0,0-1.22,5.24,21.09,21.09,0,0,1-.08,4c-.55,2.8-2.28,5-2.45,8.77-.29,6.42-1.06,13-.79,19.22a88,88,0,0,1-.5,14.89,100.77,100.77,0,0,0-.29,19.19,98.75,98.75,0,0,1,.12,15.38,90.92,90.92,0,0,0,.56,18.68,87.31,87.31,0,0,1,.67,16.27,101.06,101.06,0,0,0,.78,17.19,98.54,98.54,0,0,1,.74,17.64c-.14,5.38.23,11.12.65,16.87.07,1,.2,1.9.35,2.78l4-.33h0l-4,.34c0,.3,0,.59,0,.89a95.55,95.55,0,0,0,1.14,9.79,37.92,37.92,0,0,0,2.89,9.53,52.26,52.26,0,0,0,4.39,7.66,36.53,36.53,0,0,0,6.18,6.76,22.65,22.65,0,0,0,7.58,4.18,53.64,53.64,0,0,0,8.32,2c5.5.95,10.13.48,13.06-1.56a22.41,22.41,0,0,0,7.6,2.18,15.08,15.08,0,0,0,6.92-.74c3.84-1.5,5.82-1.57,9.7-.35s8.69.25,14.53-2.22a16.92,16.92,0,0,0,9.1,1.9c3.12-.12,6.3-.14,9.44-.22a86.92,86.92,0,0,0,9.33-.62c2.69-.37,5.25-.72,7.85-1.17a50.79,50.79,0,0,0,8.15-2,21.64,21.64,0,0,0,5-2.46,21.34,21.34,0,0,0,2.29-1.75c.36-.31.75-.6,1.09-.95l1-1.06a23.69,23.69,0,0,0,5.33-9.8,61.26,61.26,0,0,0,1.53-8c.38-2.54.66-5,1.11-7.67a61.72,61.72,0,0,0,.6-7.52,54.42,54.42,0,0,1,.63-7.37,44.31,44.31,0,0,0,.81-7.33,12.08,12.08,0,0,0-1.3-6,17.42,17.42,0,0,0,2-5.2,19.23,19.23,0,0,0,.4-4.86,22,22,0,0,0-2.73-9.26A25.29,25.29,0,0,0,330.11,762a20.5,20.5,0,0,0,4-4.48,7.74,7.74,0,0,1,1.45-1.82l.4-.28.19-.15.2-.09.39-.2.41-.11a3.9,3.9,0,0,1,.87-.15c.3,0,.67,0,1,0s.75.14,1.13.19l.52.14.48.17a7.06,7.06,0,0,1,3.13,2.53,24.93,24.93,0,0,1,2.6,4.85,3.75,3.75,0,0,1,.21,2.28,56.4,56.4,0,0,0-.81,7.46,21.27,21.27,0,0,0,.28,3.27,29.32,29.32,0,0,0,.93,4.06,18.39,18.39,0,0,0-2.34,8.62c-.11,6.58.14,13.13.64,19.61a16.1,16.1,0,0,0,1.53,6,4.72,4.72,0,0,1,.49,3.85c-.14.7-.26,1.39-.35,2.06s-.17,1.23-.23,1.84a22.48,22.48,0,0,0-.06,3.63,18.65,18.65,0,0,0,1.87,7,3.24,3.24,0,0,1,.15,3.51c-.9,2.06-1.08,5-.33,8.61a13,13,0,0,0,3.36,6.17,27.12,27.12,0,0,0,2.1,1.89,4.5,4.5,0,0,1,1.3,1.2,16.85,16.85,0,0,0,4.14,4.48,16.21,16.21,0,0,0,2.75,1.66,18.48,18.48,0,0,0,3.37,1.14c6.06,1.41,12.38,2.1,17.8,1.31a69.36,69.36,0,0,1,15.51-.5c4.06.27,6.53-2.31,9.18-1.83,3.28.59,6.07,1.35,10,1.16,5.55-.29,11.32-.34,17.29-1.31a13.79,13.79,0,0,0,5.59-1.94c1.64-1.17,2.88-1.34,5.05-2a22.41,22.41,0,0,0,7.16-4,24.79,24.79,0,0,0,5.46-6.29,30.67,30.67,0,0,0,3.27-7.41,41.66,41.66,0,0,0,1.51-7.64,7,7,0,0,0-.47-3.14c-.45-1.26-.4-1.79.36-3.22,2.64-5.11,2.79-9.56,1.08-15.35a4,4,0,0,1,0-3.09c2.16-6.57,2.08-9.93-.21-16.49a20.33,20.33,0,0,0,1.9-8.56C466.44,776.89,465.09,774.59,464.9,771.82Z" style="fill:#5020ee;"/><path d="M472.06,546.85c-1-1.74-.79-2.3.1-3.59,1.41-2,1.92-4.91,2-8.3.13-4.69-3.18-8.25-2.63-10.16,1-3.54,2.52-6.33,2.37-10.92-.19-5.83.23-11.87-.5-17.43s-1-10.89.11-16.35a3.24,3.24,0,0,0,0-.49c.14-3.69-2.14-6-2-8.5.2-2.82,2.36-5,2.39-8.94,0-6.69.69-13.68-.24-20.2a111.24,111.24,0,0,1-1.17-15.82,55.21,55.21,0,0,0-4.14-20.31c-2.3-5.43-4.15-10.07-6.27-15.6a47.13,47.13,0,0,0-11.32-17.15c-4.76-4.34-8.58-8.12-13.13-12.35a48.65,48.65,0,0,0-16-9.84c-6.32-2.25-11.65-4.66-17.56-7.34-5.33-2.42-11.36-3.75-17.12-5.15-.55-.14-1.1-.11-1.62-.21s-1.35-.42-2.08-.6c-6.37-1.51-12.91-3.45-19.19-4.12A67.34,67.34,0,0,1,348,330.26c-4.81-1.61-10.42-2.06-15.63-3.17s-9.84-1.31-13.31.84c-4.27-4-9.82-6.22-14.3-5.1-4.3,1.08-6.33.74-10-1.74s-8.78-2.26-15.34-.31a14.65,14.65,0,0,0-8.78-4.45c-6.43-1-13-2.58-19.25-2.86a77.76,77.76,0,0,1-15.53-2.27,51,51,0,0,0-21-.71c-2.91.58-5.6,1.2-8.28,2s-5.4,1.51-8.35,2.59a26.16,26.16,0,0,0-7.75,4.69c-1.19,1-2.26,2.16-3.38,3.25s-2.05,2.32-3,3.5c-4,5-5.74,10.31-4.36,14.25a16.42,16.42,0,0,0-6.25,9.26A15.91,15.91,0,0,0,175,360.67a16,16,0,0,0-3.75,10.8,15.68,15.68,0,0,0,3.17,9.49c-1.3,1.77-2.9,3.69-2.93,6.74-.09,9.64-1.54,19.54,1,28.84a4.3,4.3,0,0,1-.13,2.64c-1.85,7.11-1.6,9.93,1.41,15.91a17.34,17.34,0,0,0-2.54,8.87l.06,20a13.87,13.87,0,0,0,1.38,6.31,3.84,3.84,0,0,1,.15,4c-2.29,5.64-2.07,10.64.67,15.37,1,1.67.87,2.25,0,3.57-1.39,2-1.91,4.88-2,8.26-.12,4.67,3.17,8.62,2.65,10.1-1.28,3.65-2.6,6.67-2.46,11.42.17,5.82-.45,12,.4,17.4a57,57,0,0,1,.11,16.12c-.5,4.21,2.85,6.83,2.12,9.57-.9,3.4-2,6.28-1.88,10.35.17,5.83.28,11.66.38,17.49a13.52,13.52,0,0,0,1,5.6c.91,1.8.55,3,.22,5.09a73.58,73.58,0,0,0-.8,15,83.88,83.88,0,0,0,2.15,15.27,6.57,6.57,0,0,0,1.73,2.88c1,1.07,1.1,1.63.62,3.31-1.72,6-.58,10.83,4,16a6.52,6.52,0,0,1,1.06,1.29,6.09,6.09,0,0,1,.53,1.9,13.11,13.11,0,0,0,2.12,5.68,10.94,10.94,0,0,0,4.81,3.82,11.07,11.07,0,0,0,5.4.64,18.31,18.31,0,0,0,5.12-1.5,21.28,21.28,0,0,0,3.92,1.72,17.36,17.36,0,0,0,4.95.78c3.94.09,6.35-1.68,9.22-1.9s5.42,2,9.51,2.25c4.36.22,7.12-2.7,10.09-1.71a32,32,0,0,0,11.05,1.93c4.37,0,8.68-.1,13,0,5.48.12,10.19-.47,13-3.28,6.87,4.44,12.71,4.49,20,.43,7,4.29,11.73,4.41,20.19.58a10.29,10.29,0,0,0,6.59,3.18c2.35.11,4.68.38,7.06.62s5,.48,7.49.51a42.37,42.37,0,0,0,14.41-1.88,3.5,3.5,0,0,1,2.27-.22,18.2,18.2,0,0,0,16.36-2.73,14.86,14.86,0,0,0,8.56,2c6.5-.32,13.46.23,19.91-.89,5.9-1,11-1.41,17-2l9-1c3-.36,6.18-.77,9.21-1.4,5.88-1.27,11.17-1.81,17.76-3.43a26.78,26.78,0,0,0,5.17-1.93,24.51,24.51,0,0,0,8.94-7.6,24.83,24.83,0,0,0,2.7-4.86l.5-1.2.48-1.3c.32-.85.54-1.71.79-2.54a48.05,48.05,0,0,0,1-4.85c.5-3.15.71-6.15.94-9.21s.2-6.26.22-9.09c0-3,0-6.1-.29-9a66.87,66.87,0,0,1,.79-17.22,72,72,0,0,0,.79-8.82c.11-3,.15-6.12.29-9.14.18-3.59-.26-6.71-1.73-8.85-1-1.42-.82-2,.09-3.57A16.25,16.25,0,0,0,472.06,546.85Z" style="fill:#ff3366;"/><path d="M390.13,434.2a6.66,6.66,0,0,0,1.8-5.18c-.2-4-.5-8.25-1.82-11.86a33.29,33.29,0,0,1-1.55-4.69,45.53,45.53,0,0,1-1.11-4.76,29.73,29.73,0,0,0-4.39-10.4c-.5-.73-.94-1.45-1.39-2.15s-.88-1.39-1.28-2.1c-.76-1.44-1.57-2.87-2.28-4.51a35,35,0,0,0-6-9,28.77,28.77,0,0,1-5.16-8,44.78,44.78,0,0,0-5.25-8.9,26.68,26.68,0,0,1-4.53-8.59,40.12,40.12,0,0,0-1.91-4.55c-.72-1.51-1.5-3-2.08-4.56a9.72,9.72,0,0,0-1.32-2.41,4.93,4.93,0,0,0-1.84-1.58c-1-.47-1-.85-.67-1.87a7.53,7.53,0,0,0-2.54-8.76c-1-.76-.86-1.12-.36-2a5.19,5.19,0,0,0,.71-2.19,15.15,15.15,0,0,0,0-2.56,6.32,6.32,0,0,0-1.54-3.17c-.64-.87-1.2-1.58-1-2.12.29-1,.75-1.89,1.1-2.82a9.12,9.12,0,0,0,.59-3.15c-.06-3.14.66-6.31.67-9.33a16.15,16.15,0,0,1,2.07-8.65,1.23,1.23,0,0,0,.09-.25,4.81,4.81,0,0,0,0-2.68,3.74,3.74,0,0,1,0-2.2c.63-1.44,2.61-1.87,3.45-3.78,1.54-3.22,3.84-6.06,5.48-9,.36-.63.72-1.23,1.1-1.8s.83-1.06,1.27-1.55a22.05,22.05,0,0,1,3.2-2.9,34.81,34.81,0,0,0,7.87-8.48,66,66,0,0,1,5.81-7.67,23.59,23.59,0,0,0,5.32-10.76c.68-3.72,1.5-6.63,2.44-10.21a20.34,20.34,0,0,0-.33-11.46c-.31-1-.75-2-1.05-2.92s-.71-1.89-1.16-2.8l-.61-1.39-.7-1.37c-.43-.94-1-1.8-1.58-2.75a17.88,17.88,0,0,0-1.89-2.3,17.62,17.62,0,0,0-2.31-1.95l-1.25-.86c-.43-.27-.87-.49-1.31-.73s-.87-.49-1.32-.69l-1.34-.58c-.34-.15-.7-.18-1-.29a10.91,10.91,0,0,0-1.17-.53c-1.84-.68-3.63-1.55-5.56-2.06-1-.29-1.9-.56-2.85-.78a20.3,20.3,0,0,0-2.89-.37c-.88-.05-1.72-.14-2.55-.22s-1.66-.1-2.47-.19-1.62-.25-2.45-.34-1.69-.22-2.57-.39a17,17,0,0,0-4.92,0,22,22,0,0,0-2.53.39l-2.51.42a21.5,21.5,0,0,0-2.36.66,7.35,7.35,0,0,0-2,1,6,6,0,0,0-2.49,3.11,9.11,9.11,0,0,0-5.33.11,7.77,7.77,0,0,0-2.14,1.15,5.73,5.73,0,0,0-1.36,1.82,13.64,13.64,0,0,1-.87,1.63,4.56,4.56,0,0,1-.9,1.16,8.17,8.17,0,0,1-2.95,1.41,5.36,5.36,0,0,0-3.15,2.85,11.33,11.33,0,0,0-.89,2.45,19,19,0,0,0-.3,3,6.48,6.48,0,0,0-2.59,1.23,7,7,0,0,0-2.12,2.67,37.17,37.17,0,0,0-4,11.21c-.17,1.66-.47,3.17-.7,4.68-.14.75-.3,1.5-.49,2.26s-.33,1.54-.54,2.34a29.5,29.5,0,0,0-.87,6c0,1,0,2,.06,3a19.67,19.67,0,0,0,.35,2.95c.15.81.27,1.58.37,2.34s.24,1.49.31,2.24.12,1.49.13,2.25.06,1.55,0,2.37A14.6,14.6,0,0,0,302,267c.13.78.29,1.57.47,2.36.33,1.59.86,3.16,1.2,4.72.78,3.31,2.2,5.94,4.78,6.85-.75,2.61-.9,4.51-.27,6.15s1.87,3,3.83,4.44a8.66,8.66,0,0,0-1.11,6.13,7.29,7.29,0,0,0,1,2.7,7.9,7.9,0,0,0,1.93,2.17,15,15,0,0,0-1.32,1.69,3.64,3.64,0,0,0-.66,2.12,73.9,73.9,0,0,1-.55,7.87,33.5,33.5,0,0,0-.22,3.94,20.46,20.46,0,0,0,.35,4,1.82,1.82,0,0,1-.35,1.43c-2.08,3.64-2.23,5.12-.83,8.94a8.43,8.43,0,0,0-3.12,4.34c-1,3.61-2.07,7.21-3.2,10.82a6.43,6.43,0,0,0-.11,3.74,1.76,1.76,0,0,1-.59,2.21c-2.63,2.54-3.37,5.33-2.22,8.54.4,1.13.22,1.42-.65,1.95a7.16,7.16,0,0,0-2.83,4.14c-.87,2.58.91,5.46.3,6.17-1.46,1.8-2.89,3.27-3.42,6-.65,3.35-1.81,6.86-1.64,10.15a34.91,34.91,0,0,1-.94,9.52c-.54,2.48,1.94,4.1,1.35,5.68-.7,2-1.53,3.7-1.37,6.12.24,3.46.6,6.91,1.12,10.36a6.21,6.21,0,0,0,1.22,3.19c.87.93.7,1.68.71,2.95a27.14,27.14,0,0,0,1.58,8.81,36.9,36.9,0,0,0,4.13,8.07,3.34,3.34,0,0,0,1.7,1.15c.9.32,1,.61,1,1.69-.2,3.8,1.29,6.27,5,8,.71.34,1,.43,1.28,1.43,1.09,4.43,2.86,6.08,7.46,7a8.45,8.45,0,0,0,1,2.47,7.25,7.25,0,0,0,2.12,2.29c2,1.46,4,1,5.53,1.74a5.33,5.33,0,0,1,2,1.83,8.21,8.21,0,0,0,2.55,2.2,6.81,6.81,0,0,0,3.52.4c1.08-.11,2-.23,2.77.38a15.12,15.12,0,0,0,2.94,1.79,12.91,12.91,0,0,0,3.47,1c1.36.15,2.72.25,4.08.32s2.73.1,4.08,0c3.46,0,6.39-1.11,7.53-3.51,4.73,2.31,8.9.79,11.22-4.06a14.78,14.78,0,0,0,1.88.13,10.63,10.63,0,0,0,1.65-.2A6.16,6.16,0,0,0,376,470a7.08,7.08,0,0,0,2-2.43,12.16,12.16,0,0,0,1.27-3.71,7.48,7.48,0,0,0,2.28-.34,4.49,4.49,0,0,0,2.06-1.56l.69-.91.63-1,1.29-1.92c.73-1.32,1.47-2.66,2.14-4a34.1,34.1,0,0,0,1.36-4.27,18.26,18.26,0,0,0,.22-4.4,2,2,0,0,1,.22-1.35,8.4,8.4,0,0,0,1.64-5.22A8.19,8.19,0,0,0,390.13,434.2Z" style="fill:#382d15;"/><path d="M383.89,197.55a5.19,5.19,0,0,0-1.26-1.57c-.74-.63-.62-.82,0-1.36a3.85,3.85,0,0,0,1.08-3.42,3.51,3.51,0,0,0-1.63-2.1c-.35-.25-.67-.45-.9-.65s-.4-.37-.36-.57c.25-1.48,1-3,0-4.62-.29-.5-.55-1-.83-1.55l-.93-1.49a11.14,11.14,0,0,0-1-1.41,10.24,10.24,0,0,0-1.25-1.15c-.46-.34-.88-.71-1.32-1a14,14,0,0,1-1.26-1,10.71,10.71,0,0,1-1.09-1.15,8.54,8.54,0,0,1-1-1.29c0-.05-.1-.08-.15-.12a2.54,2.54,0,0,0-1.94-.42c-.67.08-1.27.19-1.63-.08-.82-.63-.73-2.47-2.13-3.09-.58-.27-1.15-.57-1.71-.88s-1.17-.53-1.75-.79-1.18-.49-1.78-.69a10.9,10.9,0,0,0-1.82-.33,21.54,21.54,0,0,1-2.85-.43,18.48,18.48,0,0,1-2.73-.94,12.53,12.53,0,0,0-3.6-1,13.74,13.74,0,0,0-3.72.12,16.26,16.26,0,0,1-5.87.07,12.53,12.53,0,0,0-7.08.85,16.67,16.67,0,0,1-6.08,1.42,14,14,0,0,0-3.28.71,11.68,11.68,0,0,0-2.93,1.59,20.1,20.1,0,0,1-6.09,3.09,19.61,19.61,0,0,0-5.39,3.64c-.16.13-.23.35-.37.49a4.18,4.18,0,0,0-.67.43c-1.92,1.45-4,3-5.17,5a14.52,14.52,0,0,1-3.91,4.57c-1.54,1.14-2.34,3.1-3.48,4.67s-1.58,3.3-.29,5.23c-2.94.34-4.73,1.94-4.09,3.92s.36,2.52-1.45,3.35-1.74,2.92-.23,5.68a3.72,3.72,0,0,0-3.06,2.66c-.32,1.16-.65,2.33-.91,3.51a11,11,0,0,0-.33,3.53c0,.51.05,1,0,1.46a13,13,0,0,1,0,1.39,17.09,17.09,0,0,1-.53,2.8,14.14,14.14,0,0,0,0,7.19,13.3,13.3,0,0,1,.53,2.74,9.48,9.48,0,0,1-.13,2.78,7.59,7.59,0,0,0,.1,2.82c.16,1,.38,1.92.5,2.86.2,2,1,3.63,3.25,4.23-2.68,3.1-2.07,5.41,1.66,6.76-2.69,3-1.16,6.1,2.17,6.66-.18.23-.37.46-.55.7l-.09.07c-.34.28-.63.54-.92.8a16.66,16.66,0,0,0-1.54,1.58,8.18,8.18,0,0,0-1.9,3.87c-.08.45-.32.51-.67.64-2.66,1-3.16,1.92-2.71,5-1.31.09-2.58.14-3.5,1.44l-.34.51-.23.38-.17.32-.05.11-.4.88q-.39.89-.74,1.8a37.09,37.09,0,0,0-1.19,3.71,3.1,3.1,0,0,0,.47,2.6c.43.62.54.9-.14,1.52-2,1.89-1.92,4.16.22,5.83.77.59.68.78.06,1.35a3.56,3.56,0,0,0-1,3.43,2.25,2.25,0,0,0,.22.66,4,4,0,0,0,.46.67,4.3,4.3,0,0,0,1.15,1c.81.47,1.47.74,1.44,1.08-.19,1.68-.36,3.37.89,4.82,1.5,1.76,2.88,3.83,4.89,4.75a18,18,0,0,1,5.2,3.62,2.29,2.29,0,0,0,2.29.22c.77-.21,1.4-.45,1.83,0a9.14,9.14,0,0,0,1.7,1.56A4.17,4.17,0,0,0,299,316a5.66,5.66,0,0,0,1.37.25,20.88,20.88,0,0,0,2.09-.09c.64-.11,1.3-.19,1.91-.33a27.32,27.32,0,0,0,3.48-1,2.84,2.84,0,0,0,1.78-1.46c.35-.89.88-.81,1.71-1a11.27,11.27,0,0,0,5.28-2.35,15.3,15.3,0,0,0,3.86-4.51,2.15,2.15,0,0,0,0-1.55c-.23-.78-.08-.88.74-1.06a4.86,4.86,0,0,0,1.88-.77,3.56,3.56,0,0,0,1.15-1.38,3.82,3.82,0,0,0,.31-1.74,6.06,6.06,0,0,0-.56-2c-.28-.53-.43-.73.12-1.27,2.34-2.44,2.16-4.07-.29-6.36a4.12,4.12,0,0,0,1.6-3.28c-.09-1.39-1.52-2.07-1.79-3s1.31-1.95,1.36-3.25c0-.69-.52-1.23-1-1.72s-.83-1-.45-1.41a17.74,17.74,0,0,0,1.14-1.48,3.75,3.75,0,0,0,.19-.35,5.36,5.36,0,0,0,.18-.51,5.59,5.59,0,0,0,.22-1.13c.15-1.67.16-3.27.26-4.84.12-2-.38-3.65-2.51-4.55,3.25-2.5,3.19-4.43.05-6.84,1.56-1.19,2.37-2.11,2.42-3.09s-.66-2-2-3.57c1.1-.37,2.29-.78,2.49-1.61a11.18,11.18,0,0,1,1.63-3.37,9.6,9.6,0,0,0,1.45-3.3c.07-.25.14-.44.44-.39a4.43,4.43,0,0,0,1.45.11,1.6,1.6,0,0,0,1-.43,5.78,5.78,0,0,0,1.41-2.58,5.53,5.53,0,0,0,1.51,1.06,2.59,2.59,0,0,0,1.63.17c2.11-.47,4.47-.41,6.53-1.36a13.61,13.61,0,0,1,5.75-1.13,12.63,12.63,0,0,0,6.77-2.18,21.7,21.7,0,0,1,5.75-3,11.73,11.73,0,0,0,5.62-4.18,17.34,17.34,0,0,1,4.52-4.33,13,13,0,0,0,4.35-5.22,18.24,18.24,0,0,1,3.51-5.39,9.72,9.72,0,0,0,1-1.32,15.69,15.69,0,0,0,.75-1.57c.46-1.08.9-2.17,1.25-3.3a3.32,3.32,0,0,0-.49-3.64c-.63-.69-.48-.87.28-1.31a3.72,3.72,0,0,0,2.06-2.91A3.05,3.05,0,0,0,383.89,197.55Zm-89.65,67.06,1.75-.69a14.51,14.51,0,0,0-1.36,1.32A2.15,2.15,0,0,1,294.25,264.61Z" style="fill:#5020ee;"/><path d="M472.6,1013.6a22.24,22.24,0,0,1-.25-5.94c.16-2.06-.92-4.09-1.81-6a2.84,2.84,0,0,0-2.83-1.83c-.91.07-.92-.13-.72-.94a3.72,3.72,0,0,0,0-1.85,2.51,2.51,0,0,0-.77-1.34,3.18,3.18,0,0,0-3.21-.45c-.88.29-.93.09-.92-.71a3,3,0,0,0-1.61-2.66,2.68,2.68,0,0,0-2.22.15c-.71.29-1.27.62-1.46.31-.7-1.14-1.11-2.5-2.44-2.91-1.66-.47-3.23-1.37-4.83-1.39a8,8,0,0,1-2.31-.3,3.75,3.75,0,0,1-1.85-1.22s-.08,0-.12-.05c-.84-.39-2.08,1-2.65.61s-.37-2-1.09-2.5c-1.38-.75-2-2.05-3.27-2.73a3.17,3.17,0,0,1-1.59-2.87,10.29,10.29,0,0,0-1.06-4.5,5.18,5.18,0,0,1-.22-4,11.47,11.47,0,0,0,.51-2.53,9.27,9.27,0,0,0,0-1.31,9.69,9.69,0,0,0-.2-1.46,14.69,14.69,0,0,1,0-5.52,8.41,8.41,0,0,0-1.75-6.24c-1.65-1.93-2.93-3.68-4.67-5.46-.2-.2-.4-.39-.62-.58s-.45-.32-.69-.46a7.62,7.62,0,0,0-1.47-.75,18.77,18.77,0,0,0-3.14-.9,4.48,4.48,0,0,0-.6,0l-.79,3.92h0l.79-3.92A3.69,3.69,0,0,0,422,945c-2.24-.45-4.46-.82-6.37-.22a8.87,8.87,0,0,1-4.91.38c-1.51-.34-3,.3-4.46.33s-2.48.55-3.32,2.6c-1.34-2.39-2.81-3.36-4.09-2s-1.8,1.26-2.89-.15-2.71-.68-4.53,1.59c-.7-1.26-1.62-2.21-3-2.07l-1.58.13c-.48,0-1,.08-1.47.14a9,9,0,0,0-3,.83c-1.7.9-3.26,1.4-5.37,2.29a8.24,8.24,0,0,0-4.83,6.41,17.46,17.46,0,0,1-1.16,5.26c-.69,1.61-.25,3.4-.36,5a3.77,3.77,0,0,0,.4,2.19,3.92,3.92,0,0,0,2,1.64c-3.27,2-3.23,3.83,0,5.7-3.38,1.81-2.84,4.44.13,5.74-1,.52-2.15,1.1-2.14,2,0,2.76-1,5.64,1,8.25.24.32.1.49-.07.76-1.33,2.08-1.11,2.89,1.19,4.52-.95.74-1.87,1.49-1.82,2.61l.24,5.73a2.24,2.24,0,0,0,1.09,1.76c.56.38.7.59.16,1.14-1.67,1.66-1.44,3.21.7,4.45.76.44.69.61,0,1.06a2.79,2.79,0,0,0-1.24,2.66c0,.73.71,1.31,1.35,1.74s1.2.74,1.06,1c-.73,1.28-1.5,2.48-.94,4,.66,1.78,1,4,2.61,5.36a20.65,20.65,0,0,1,3.77,4.49,2.08,2.08,0,0,0,2.06.54c.78-.09,1.42-.28,1.77.19a6.69,6.69,0,0,0,1.6,1.65,4,4,0,0,0,2.8.66,7.71,7.71,0,0,0,4.78-2.47,9.69,9.69,0,0,0,2-3.87,2.34,2.34,0,0,0-.21-2.16c-.56-.7-.24-1,.12-1.55a9.82,9.82,0,0,0,1.39-5.69,2.24,2.24,0,0,0,.39.42c.9.77,2.3.13,3.08.48s.4,2.14,1.33,3,2.92-.51,3.25.55a4.72,4.72,0,0,0,2,2.92c1.12.66,2.25,1.28,3.33,2a3.34,3.34,0,0,0,4.54-.35c.27,3.87,2,4.7,5.2,2.66.67,3.68,2.19,4.3,5.54,2.13.12,1.12.38,2.38,1.28,2.65,1.38.42,2.73,1.06,4.16,1.43a6.4,6.4,0,0,0,4.45-.24c.27-.12.47-.21.69.05,1.69,2,3.61,1.46,5.08-.66.68,1.17,1.5,2,2.68,1.91,2.1-.1,4.45.05,6.31-1a13.32,13.32,0,0,1,5.06-1.54,9.5,9.5,0,0,0,5.45-2.81,15.36,15.36,0,0,1,4.39-3.36,8.44,8.44,0,0,0,4.07-4.84,22.26,22.26,0,0,1,2.55-5.21A9.31,9.31,0,0,0,472.6,1013.6Z" style="fill:#5020ee;"/><path d="M319.29,1007.66c.16-2.06-.92-4.09-1.81-6a2.85,2.85,0,0,0-2.83-1.83c-.91.07-.92-.13-.72-.94a3.7,3.7,0,0,0,0-1.85,2.51,2.51,0,0,0-.77-1.34,3.18,3.18,0,0,0-3.21-.45c-.88.29-.93.09-.92-.71a3,3,0,0,0-1.61-2.66,2.68,2.68,0,0,0-2.22.15c-.71.29-1.27.62-1.46.31-.7-1.14-1.11-2.5-2.44-2.91-1.66-.47-3.23-1.37-4.83-1.39a8,8,0,0,1-2.31-.3,3.75,3.75,0,0,1-1.85-1.22s-.08,0-.12-.05c-.84-.39-2.08,1-2.65.61s-.37-2-1.09-2.5c-1.38-.75-2-2.05-3.27-2.73a3.17,3.17,0,0,1-1.59-2.87,10.3,10.3,0,0,0-1.06-4.5,5.18,5.18,0,0,1-.22-4,11.47,11.47,0,0,0,.51-2.53,9.35,9.35,0,0,0,0-1.31,9.69,9.69,0,0,0-.2-1.46,14.69,14.69,0,0,1,0-5.52,8.42,8.42,0,0,0-1.75-6.24c-1.65-1.93-2.93-3.68-4.67-5.46-.2-.2-.4-.39-.62-.58s-.45-.32-.69-.46a7.62,7.62,0,0,0-1.47-.75,18.78,18.78,0,0,0-3.14-.9,4.49,4.49,0,0,0-.6,0l-.79,3.92h0l.79-3.92a3.68,3.68,0,0,0-.72-.23c-2.24-.45-4.46-.82-6.37-.22a8.87,8.87,0,0,1-4.91.38c-1.51-.34-3,.3-4.46.33s-2.48.55-3.32,2.6c-1.34-2.39-2.81-3.36-4.09-2s-1.8,1.26-2.89-.15-2.71-.68-4.53,1.59c-.7-1.26-1.62-2.21-3-2.07l-1.58.13c-.48,0-1,.08-1.47.14a9,9,0,0,0-3,.83c-1.7.9-3.26,1.4-5.37,2.29a8.24,8.24,0,0,0-4.83,6.41,17.44,17.44,0,0,1-1.16,5.26c-.69,1.61-.25,3.4-.36,5a3.77,3.77,0,0,0,.4,2.19,3.92,3.92,0,0,0,2,1.64c-3.27,2-3.23,3.83,0,5.7-3.38,1.81-2.84,4.44.13,5.74-1,.52-2.15,1.1-2.14,2,0,2.76-1,5.64,1,8.25.24.32.1.49-.07.76-1.33,2.08-1.11,2.89,1.19,4.52-.95.74-1.87,1.49-1.82,2.61l.24,5.73a2.24,2.24,0,0,0,1.09,1.76c.56.38.7.59.16,1.14-1.67,1.66-1.44,3.21.7,4.45.76.44.69.61,0,1.06a2.79,2.79,0,0,0-1.24,2.66c0,.73.72,1.31,1.35,1.74s1.2.74,1.06,1c-.73,1.28-1.49,2.48-.94,4,.66,1.78,1,4,2.61,5.36a20.66,20.66,0,0,1,3.77,4.49,2.08,2.08,0,0,0,2.06.54c.78-.09,1.42-.28,1.77.19a6.69,6.69,0,0,0,1.6,1.65,4,4,0,0,0,2.8.66,7.71,7.71,0,0,0,4.78-2.47,9.68,9.68,0,0,0,2-3.87,2.34,2.34,0,0,0-.21-2.16c-.56-.7-.24-1,.12-1.55a9.83,9.83,0,0,0,1.39-5.69,2.25,2.25,0,0,0,.39.42c.9.77,2.3.13,3.08.48s.4,2.14,1.33,3,2.92-.51,3.25.55a4.72,4.72,0,0,0,2,2.92c1.12.66,2.25,1.28,3.33,2a3.34,3.34,0,0,0,4.54-.35c.27,3.87,2,4.7,5.2,2.66.67,3.68,2.19,4.3,5.54,2.13.12,1.12.38,2.38,1.27,2.65,1.38.42,2.73,1.06,4.16,1.43a6.4,6.4,0,0,0,4.45-.24c.27-.12.47-.21.69.05,1.69,2,3.61,1.46,5.08-.66.68,1.17,1.5,2,2.68,1.91,2.1-.1,4.45.05,6.31-1a13.32,13.32,0,0,1,5.06-1.54,9.5,9.5,0,0,0,5.45-2.81,15.37,15.37,0,0,1,4.39-3.36,8.44,8.44,0,0,0,4.07-4.84,22.28,22.28,0,0,1,2.55-5.21,9.31,9.31,0,0,0,1.3-6.12A22.24,22.24,0,0,1,319.29,1007.66Z" style="fill:#5020ee;"/><path d="M227,860.27a.85.85,0,0,0,.1-.39c0-1.14.39-2.35-.38-3.38a2.26,2.26,0,0,1-.22-2.86c.58-.93-.11-1.85-.07-2.79s-.66-1.68-3.44-2c3.1-1.12,4.21-2.23,2.27-2.82s-1.89-.92-.13-1.76.63-1.63-2.45-2.47c1.67-.53,2.91-1.12,2.84-1.86-.1-1.13.33-2.34-.42-3.38a2.35,2.35,0,0,1-.21-2.72,3.19,3.19,0,0,0-.28-3.46,2,2,0,0,1-.17-2.69c.64-.92,0-1.86.05-2.79s-.58-1.79-3.35-2.15c4.28-1.51,4.19-2.59-.16-3.49,4.46-1.36,3.69-2.91-.27-3.51,1.28-.39,2.84-.82,2.83-1.35,0-1.69,1.3-3.5-1.31-5-.31-.18-.13-.29.1-.47,1.79-1.34,1.51-1.82-1.54-2.71,1.28-.5,2.52-1,2.47-1.68-.08-1.16-.13-2.33-.18-3.49,0-.43-.52-.78-1.41-1-.73-.21-.91-.34-.17-.69,2.27-1.09,2-2-.72-2.66-1-.25-.87-.36,0-.63,1.39-.42,1.91-.94,2-1.53.12-.82-3.15-1.38-2.63-1.66,1.28-.69,2.61-1.28,2.49-2.1-.15-1,.49-2.12-.33-3a2,2,0,0,1,0-2.82c.54-.75-2.8-1.1-2-1.61.94-.63,2.06-1.17,2-1.88-.1-1-.13-2-.15-3.06,0-.36-.16-.72-.89-1-.88-.29-.5-.51-.13-.89,1.73-1.77,1.26-3.51.13-5.23a3,3,0,0,0-1.33-.49c-.86-.18-.85-.28-.07-.57,2.77-1,2.83-1.78.35-2.77-.48-.19-.73-.27-.13-.56,2.67-1.27,2.47-1.86-.71-3,1.31-.46,2.37-.92,2.39-1.61s-1.8-1.07-2.07-1.57,1.94-1,2.07-1.71-2.82-1.19-1.89-1.73c1.15-.66,1.83-1.25,1.79-2a12.67,12.67,0,0,1,0-2.27c.12-1-.49-1.78-3.31-2.23,4.4-1.26,4.4-2.29.19-3.52,4.13-1.29,4.12-2.13-.07-3.56,1.38-.3,2.84-.68,2.83-1.21,0-1.66,1.41-3.37-1-5-.21-.14-.36-.25-.06-.39,2.33-1.1,1.47-2.05-1.38-2.89,1.56-.41,2.61-.85,2.6-1.5,0-1.17.64-2.38-.11-3.48a2.39,2.39,0,0,1,.05-2.87,3,3,0,0,0,0-3.3,2.35,2.35,0,0,1,0-2.93,2.71,2.71,0,0,0,0-3.3,2.45,2.45,0,0,1,0-3,3,3,0,0,0,.07-3.22,2.55,2.55,0,0,1,.05-3c.64-1,.14-2.09.19-3.14,0-.62-.49-1.17-2-1.57-1-.27-.87-.37,0-.62,2.92-.85,3-1.89,0-2.87-1-.33-.79-.42.1-.63,1.41-.32,1.94-.81,2.07-1.4.18-.81-3.07-1.53-2.49-1.85,1.07-.59,2.63-1,2.59-1.83-.06-1,.52-2.06-.06-3.05s-.88-2,.18-2.9c0,0,0-.06,0-.09.08-.65-2.24-1.13-2.12-1.56s2.26-.81,2.23-1.5c0-1.17.57-2.35-.07-3.49a2.22,2.22,0,0,1,.13-2.7,3.06,3.06,0,0,0,.16-3.47,2.36,2.36,0,0,1,.08-2.78,2.91,2.91,0,0,0,.16-3.38,2.41,2.41,0,0,1,.2-3,2.74,2.74,0,0,0,.12-3.13,2.7,2.7,0,0,1,.21-3.2c.59-1,.27-2,.27-3,0-.1-.16-.2-.19-.29l-10.73-.59a.82.82,0,0,0-.06.16c-.17,1.14-.71,2.29-.08,3.43a2.29,2.29,0,0,1-.17,2.89c-.7.85-.15,1.87-.32,2.8s.43,1.77,3.14,2.43c-3.23.72-4.47,1.69-2.61,2.52s1.77,1.15-.08,1.78-.82,1.56,2.14,2.77c-1.72.33-3,.77-3,1.53,0,1.14-.6,2.31,0,3.43a2.42,2.42,0,0,1-.1,2.75,3.24,3.24,0,0,0-.06,3.5,2.06,2.06,0,0,1-.1,2.71c-.73.86-.14,1.87-.33,2.8s.4,1.85,3.12,2.46c-4.41,1.12-4.39,2.22-.14,3.51-4.56,1-3.92,2.61,0,3.53-1.3.28-2.9.59-2.93,1.12-.1,1.7-1.58,3.42.9,5.1.3.2.11.3-.14.46-1.87,1.22-1.62,1.72,1.36,2.83-1.3.41-2.58.84-2.57,1.52,0,1.18,0,2.35,0,3.53,0,.43.47.82,1.34,1.13.71.25.89.39.13.71-2.33,1-2.15,1.85.55,2.72,1,.3.85.41-.07.63-1.41.34-1.95.84-2.06,1.44-.16.82,3.08,1.55,2.55,1.8-1.31.63-2.66,1.15-2.58,2,.1,1-.58,2.11.19,3.07a2,2,0,0,1-.13,2.84c-.57.74,2.74,1.21,2,1.69-1,.6-2.09,1.1-2,1.82.07,1,.07,2.06.06,3.08,0,.37.14.73.86,1,.87.32.49.53.11.9-1.77,1.73-1.35,3.51-.27,5.26a2.93,2.93,0,0,0,1.32.52c.86.2.85.3.07.57-2.78,1-2.85,1.75-.38,2.78.48.2.73.29.13.56-2.68,1.24-2.49,1.85.69,3-1.32.45-2.38.91-2.41,1.6s1.79,1.09,2.06,1.59-1.95,1-2.09,1.71,2.82,1.2,1.89,1.74c-1.14.66-1.82,1.26-1.77,2a12.83,12.83,0,0,1,0,2.29c-.11,1,.51,1.79,3.33,2.22-4.39,1.31-4.38,2.37-.16,3.53-4.12,1.36-4.11,2.22.14,3.57-1.37.33-2.82.74-2.79,1.28.08,1.67-1.31,3.44,1.17,5,.22.13.37.24.07.39-2.29,1.18-1.41,2.12,1.46,2.86-1.54.46-2.58.95-2.56,1.6,0,1.17-.53,2.42.27,3.5a2.42,2.42,0,0,1,.08,2.89,3.06,3.06,0,0,0,.19,3.32,2.38,2.38,0,0,1,.08,3,2.74,2.74,0,0,0,.17,3.32,2.48,2.48,0,0,1,.15,3,3,3,0,0,0,.13,3.24,2.59,2.59,0,0,1,.14,3.06c-.58,1,0,2.11.06,3.16,0,.63.58,1.14,2.13,1.42,1,.19.9.3,0,.63-2.84,1.08-2.79,2.14.21,2.88,1,.25.82.36-.05.63-1.38.44-1.87,1-1.95,1.58-.11.83,3.18,1.26,2.64,1.63-1,.68-2.54,1.27-2.42,2.07.16,1-.31,2.12.37,3.06s1.08,1.88.11,2.92c0,0,0,.06,0,.09,0,.66,2.34.9,2.26,1.34s-2.17,1-2.07,1.73c.17,1.16-.34,2.42.43,3.49a2.25,2.25,0,0,1,.19,2.71,3.1,3.1,0,0,0,.25,3.49,2.39,2.39,0,0,1,.25,2.79,3,3,0,0,0,.24,3.4,2.45,2.45,0,0,1,.2,3,2.78,2.78,0,0,0,.31,3.14,2.74,2.74,0,0,1,.23,3.23c-.46,1,0,2.06.15,3.08a1,1,0,0,0,.23.48Z" style="fill:#ff3366;"/><path d="M382,859.38a.36.36,0,0,0,.13-.2c.1-.62.57-1.26-.12-1.84s-.75-1,0-1.55,0-1,.15-1.51-.53-.93-3.28-1.16c3.18-.52,4.36-1.1,2.46-1.46s-1.83-.54,0-1,.73-.87-2.27-1.39c1.7-.25,3-.54,3-.94,0-.61.48-1.26-.19-1.84s-.6-.95,0-1.47a1.12,1.12,0,0,0-.08-1.88c-.6-.5-.76-.93,0-1.46s.06-1,.21-1.51-.47-1-3.22-1.22c4.36-.75,4.31-1.34,0-1.89,4.52-.67,3.83-1.52-.1-1.9,1.29-.19,2.88-.4,2.89-.69,0-.91,1.47-1.88-1.07-2.71-.31-.1-.12-.16.12-.25,1.84-.71,1.58-1-1.43-1.48,1.29-.26,2.56-.52,2.54-.89,0-.63,0-1.26,0-1.89,0-.23-.49-.43-1.36-.57-.72-.12-.9-.19-.15-.38,2.31-.58,2.1-1-.62-1.44-1-.14-.85-.2.06-.34,1.4-.22,1.93-.5,2-.82s-3.11-.76-2.58-.91c1.3-.37,2.65-.68,2.55-1.13s.55-1.14-.24-1.64-.63-1,.08-1.53c.56-.41-2.76-.6-2-.87,1-.34,2.09-.63,2-1a11.09,11.09,0,0,1-.08-1.65c0-.2-.15-.39-.87-.52-.87-.16-.49-.28-.12-.48,1.76-1,1.33-1.9.24-2.83a4.59,4.59,0,0,0-1.32-.26c-.86-.1-.85-.15-.07-.31,2.78-.56,2.85-1,.39-1.5-.48-.1-.73-.14-.13-.3,2.68-.7,2.5-1-.68-1.61,1.32-.25,2.39-.52,2.41-.89s-1.79-.57-2.05-.83,2-.55,2.09-.94-2.81-.62-1.87-.92c1.15-.37,1.83-.69,1.8-1.08a3.72,3.72,0,0,1,0-1.23c.12-.52-.48-1-3.3-1.17,4.41-.73,4.41-1.29.2-1.9,4.14-.75,4.13-1.21-.08-1.92,1.38-.18,2.83-.41,2.82-.7,0-.9,1.39-1.85-1.07-2.67-.21-.07-.36-.13-.06-.21,2.32-.64,1.46-1.14-1.4-1.54,1.55-.25,2.6-.51,2.6-.86,0-.63.6-1.3-.17-1.88s-.57-1,0-1.55a1.06,1.06,0,0,0-.08-1.78c-.67-.54-.69-1,0-1.59s.74-1.23,0-1.78-.59-1,0-1.6.67-1.2,0-1.74-.66-1.07,0-1.65.07-1.13.09-1.7c0-.34-.52-.62-2.06-.79-1-.11-.88-.17,0-.34,2.89-.55,2.89-1.11-.06-1.55-1-.15-.8-.2.08-.34,1.4-.22,1.91-.5,2-.82s-3.12-.72-2.55-.91c1-.35,2.6-.64,2.52-1.08s.44-1.13-.19-1.65-1-1,.06-1.57c0,0,0,0,0,0,.06-.35-2.29-.53-2.18-.76s2.22-.52,2.16-.89c-.1-.63.48-1.29-.22-1.88s-.63-.93,0-1.46a1.09,1.09,0,0,0,0-1.88c-.62-.51-.65-1-.06-1.5s.78-1.27,0-1.83-.56-1,0-1.6.66-1.17-.07-1.69-.58-1.13,0-1.74.15-1.1.08-1.65c0-.05-.17-.1-.2-.15l-10.75.2s0,.06-.05.09c-.1.62-.57,1.26.12,1.84s.75,1,0,1.55,0,1-.15,1.51.53.93,3.28,1.16c-3.18.52-4.36,1.1-2.46,1.46s1.83.54,0,1-.73.87,2.27,1.39c-1.7.25-3,.54-3,.94,0,.61-.48,1.26.19,1.84s.6.95,0,1.47a1.12,1.12,0,0,0,.08,1.88c.6.5.76.93,0,1.46s-.06,1-.21,1.51.47,1,3.22,1.22c-4.35.75-4.31,1.34,0,1.89-4.52.67-3.83,1.52.1,1.9-1.29.19-2.88.4-2.89.69,0,.91-1.47,1.88,1.07,2.71.31.1.12.16-.12.25-1.84.71-1.58,1,1.43,1.48-1.29.26-2.56.52-2.54.89,0,.63,0,1.26,0,1.89,0,.23.49.43,1.36.57.72.12.9.19.15.38-2.31.58-2.1,1,.62,1.44,1,.14.85.2-.06.34-1.4.22-1.93.5-2,.82s3.11.76,2.58.91c-1.3.37-2.65.68-2.55,1.13s-.55,1.14.23,1.64.63,1-.08,1.53c-.56.41,2.76.6,2,.87-1,.34-2.09.63-2,1a11.09,11.09,0,0,1,.08,1.65c0,.2.15.39.87.52.87.16.49.28.12.48-1.76,1-1.33,1.9-.24,2.83a4.59,4.59,0,0,0,1.32.26c.86.1.85.15.07.31-2.78.56-2.85,1-.39,1.5.48.1.73.14.13.3-2.68.7-2.5,1,.68,1.61-1.32.25-2.39.52-2.41.89s1.79.57,2.05.83-2,.55-2.09.94,2.81.62,1.87.92c-1.15.37-1.83.69-1.8,1.08a3.73,3.73,0,0,1,0,1.23c-.12.52.48,1,3.3,1.17-4.41.73-4.41,1.29-.2,1.9-4.14.75-4.13,1.21.08,1.92-1.38.18-2.83.41-2.82.7,0,.9-1.39,1.85,1.07,2.67.21.07.36.13.06.21-2.32.64-1.45,1.14,1.4,1.54-1.55.25-2.6.51-2.6.86,0,.63-.6,1.3.17,1.88s.57,1,0,1.55a1.06,1.06,0,0,0,.08,1.78c.67.54.69,1,0,1.59s-.74,1.23,0,1.78.59,1,0,1.6-.67,1.2,0,1.74.66,1.07,0,1.65-.07,1.13-.09,1.7c0,.34.52.62,2.06.79,1,.11.88.17,0,.34-2.89.55-2.89,1.11.06,1.55,1,.15.8.2-.08.34-1.4.22-1.91.5-2,.82s3.12.72,2.55.91c-1,.35-2.6.64-2.52,1.08s-.44,1.13.19,1.65,1,1-.06,1.57c0,0,0,0,0,0-.06.35,2.29.53,2.18.76s-2.22.52-2.16.89c.1.63-.48,1.29.22,1.88s.63.93,0,1.46a1.09,1.09,0,0,0,0,1.88c.62.52.65,1,.06,1.5s-.78,1.27,0,1.83.56,1,0,1.6-.66,1.17.07,1.69.58,1.13,0,1.74-.15,1.1-.08,1.65a.44.44,0,0,0,.2.26Z" style="fill:#ff3366;"/><path d="M271.15,385a13.11,13.11,0,0,1-1.08-4.27,12.69,12.69,0,0,1,.86-4.3,9.25,9.25,0,0,0,.44-2.74,10.66,10.66,0,0,0-.38-3.07,22.17,22.17,0,0,0-1.16-3.34,33.45,33.45,0,0,0-2-3.53,11.31,11.31,0,0,0,.83-5.2l.13,1.26a17,17,0,0,0,.42-3.28c.14-5.63.14-11.42-.91-16.64a84.11,84.11,0,0,1-1.69-13,101.86,101.86,0,0,0-2.3-16.24,43.55,43.55,0,0,1-1.1-12.56c.22-4.16-.57-8.78-.77-13.19-.2-4.68-.94-8.61-3.17-11,2.86-6.06,2.48-11.23-1.11-16.53,3-5.38,2-12.93-1.25-16.64.86-1.54,1.93-3.23,1.75-5.77-.58-8-.15-16.33-2.73-23.88a4,4,0,0,1-.1-2.2c.83-6,.43-8.36-2.32-13.1a15.33,15.33,0,0,0,1.14-7.55c-.61-5.53-1.25-11.05-1.94-16.57a12.68,12.68,0,0,0-1.68-5.1,3.46,3.46,0,0,1-.52-3.28c1.12-4.83.54-8.88-1.9-12.58-.86-1.31-.82-1.8-.24-2.95.9-1.76,1-4.14.89-6.94-.23-3.85-2.93-6.94-2.63-8.2.73-3.09,1.54-5.66,1.17-9.59-.46-4.82-.33-10-1.28-14.42a55.11,55.11,0,0,1-1.06-13.41c.1-3.54-2.59-5.52-2.26-7.84.43-2.88,1-5.36.57-8.75-.3-2.42-.64-4.85-1-7.27s-.68-4.85-1.07-7.27a11.84,11.84,0,0,0-1.39-4.56c-.92-1.39-.81-2.43-.84-4.2,0-.53,0-1.07,0-1.6,0,.08.06.12.09.12.22,0,.43.28.66-.05s.34-.28.53,0,.48.33.69,0,.32-.39.54,0,.38,0,.58.07.36-.27.26-1.64c.54,2.13.85,2.06.65-.09.65,2.19,1,1.76.64-.18.22.61.5,1.37.62,1.34.36-.07,1,.46.89-.85,0-.16,0-.08.12,0,.61.74.71.55.23-.88.37.54.75,1.06.88,1l.69-.41c.08-.05,0-.3-.17-.7s-.19-.41.08-.14c.84.82,1,.6.28-.58-.25-.41-.21-.38.12-.06.5.5.77.62.91.58s-.8-1.37-.58-1.21c.55.38,1.12.77,1.23.59s.56-.19.4-.62,0-.53.46-.53-1-1-.62-.86,1,.3,1.1.13.2-.49.31-.73c0-.09,0-.2-.31-.39s-.19-.2,0-.23c1-.13.92-.74.44-1.25a2.19,2.19,0,0,0-.64-.21c-.42-.1-.41-.11,0-.14,1.42-.09,1.46-.4.23-.64-.24,0-.36-.06-.06-.13,1.35-.34,1.22-.62-.38-.66.64-.19,1.15-.4,1.14-.59s-.94-.08-1.09-.16.88-.49.9-.7-1.43.19-1-.09.74-.64.64-.81a1.81,1.81,0,0,1-.27-.52c-.06-.25-.44-.28-1.67.42,1.7-1.43,1.46-1.79-.33-.64,1.44-1.52,1.21-1.79-.5-.52.45-.53.9-1.11.8-1.2-.27-.25-.16-1.09-1.19-.33-.09.07-.15.11-.09,0,.49-1.08,0-.89-.88.22.35-.7.53-1.2.4-1.28s-.33-.55-.73-.32-.48.06-.58-.29-.37-.49-.71-.24-.5.2-.63-.21-.44-.49-.74-.16-.48.22-.68-.1-.47-.39-.71-.07-.43.31-.65,0-.45,0-.67,0-.23.27-.24,1c0,.51,0,.44-.12,0-.3-1.43-.56-1.4-.55.08,0,.49,0,.41-.13,0-.16-.68-.3-.92-.43-1s0,1.58-.13,1.31c-.21-.5-.45-1.24-.6-1.17s-.46-.14-.58.21-.25.55-.56.1c0,0,0,0,0,0s.12,1.15,0,1.12-.48-1-.6-1-.51-.1-.6.29c0,.21-.12.3-.24.29q-.51-1.38-1.11-2.73c.55.3.29-.21-.57-1.31.69.51,1.24.85,1.36.72s.55-.24.48-.65.06-.5.42-.49.61-.22.52-.65,0-.55.42-.49.31-.32.51-.45.1-.49-.92-1.42c1.91,1.1,2.08.84.51-.64,2,1.14,2,.58.45-.69.57.31,1.28.69,1.36.59.26-.31,1.1-.32.25-1.32-.1-.12,0-.09.12-.06,1,.23.91,0-.26-.94.61.24,1.22.45,1.3.3s.28-.52.42-.79c0-.1-.12-.29-.48-.55s-.36-.28,0-.19c1.15.3,1.17,0,0-.73-.41-.26-.35-.26.09-.13.68.21,1,.2,1.09.08s-1.27-.94-1-.9c.66.1,1.34.21,1.37,0s.46-.42.18-.78-.15-.56.27-.69-1.24-.67-.83-.68,1.08,0,1.1-.2a5.52,5.52,0,0,1,.15-.8c0-.09,0-.2-.37-.33s-.22-.18,0-.24c1-.3.81-.87.31-1.38a2.13,2.13,0,0,0-.65-.18c-.43-.08-.42-.1,0-.15,1.4-.19,1.45-.47.22-.74-.24-.05-.36-.07-.07-.15,1.34-.38,1.22-.65-.38-.79.64-.19,1.16-.4,1.14-.62s-.93-.17-1.09-.28.89-.49.9-.75-1.45,0-1-.25.74-.68.62-.9a5,5,0,0,1-.34-.71c-.11-.33-.54-.44-1.77.26,1.62-1.56,1.22-2-.54-.83,1.24-1.71.82-2.08-.78-.65.34-.6.65-1.28.49-1.38s-.43-.46-.71-.62-.64-.17-1.1.32c-.08.09-.13.15-.14,0-.06-1.23-.69-.91-1.09.48,0-.79-.21-1.32-.48-1.33-.47,0-1-.25-1.38.22a.81.81,0,0,1-1.06.32.78.78,0,0,0-1,.57c-.12.46-.32.62-.8.55s-.8.18-.75.66-.18.59-.58.6-.66.22-.57.63-.07.59-.48.58-.33.35-.49.53,0,.37.59.9c.37.36.3.33-.08.11-1.27-.74-1.42-.55-.39.52.34.36.26.32-.12.08-.6-.37-.87-.44-1-.37s1,1.22.75,1.1c-.5-.22-1.18-.61-1.26-.45s-.47.23-.36.59.1.64-.44.49c0,0,0,0,0,0s.75.89.64.93-1-.53-1.08-.39-.53.27-.41.68,0,.5-.39.47-.61.2-.49.61c.06.2,0,.33,0,.41l-.17-.15a5.09,5.09,0,0,0-.72-.48.44.44,0,0,0-.08-.5c-.26-.28-.23-.49.08-.7a.52.52,0,0,0,.07-.9c-.27-.27-.33-.47.06-.69s.07-.48.16-.71-.21-.49-1.58-.64c2.2-.26,2.17-.59,0-.86,2.27-.29,1.92-.74-.05-.86.65-.1,1.44-.22,1.44-.36,0-.43.69-1-.6-1.25-.16,0-.06-.07.05-.12.89-.41.75-.54-.77-.62.64-.18,1.24-.38,1.21-.55l-.14-.9c0-.11-.27-.17-.72-.17s-.46,0-.1-.16c1.1-.45,1-.68-.42-.61-.48,0-.44,0,0-.16.67-.24.9-.43.92-.6s-1.6,0-1.36-.15c.6-.32,1.2-.64,1.1-.86s.1-.66-.36-.79-.47-.39-.24-.79-1.4.23-1.1,0,.81-.74.69-.93-.33-.54-.5-.82c-.06-.1-.18-.16-.53,0s-.29,0-.2-.19c.42-.95-.21-1.37-1-1.35a1.81,1.81,0,0,0-.57.37c-.33.27-.35.26-.15-.09.7-1.24.44-1.5-.54-.68-.19.16-.28.25-.18,0,.44-1.33.09-1.43-1-.18.19-.65.27-1.2,0-1.32s-.69.69-.87.76,0-1-.25-1.17-.72,1.27-.8.79-.32-1-.6-1-.59,0-.9,0-.7.33-.55,1.74c-.82-2.1-1.51-1.88-1,.2-1.16-1.75-1.74-1.47-.93.54-.45-.53-1-1-1.15-.92-.44.35-1.44.32-.86,1.52.05.1.09.18-.06.11-1.13-.48-1,.1,0,1.09-.71-.35-1.24-.51-1.34-.34s-.65.49-.46,1,0,.61-.37.76a.57.57,0,0,0-.32.89c.22.38.14.6-.27.77s-.54.51-.24.88.16.57-.18.79-.45.48-.17.8.23.55-.14.75-.13.51-.18.77.21.33,1,.52c.5.13.42.14,0,.15-1.47,0-1.5.31-.07.7.48.13.39.14-.06.15-.71,0-1,.11-1,.25s1.51.51,1.22.56c-.54.1-1.32.16-1.3.36s-.27.51,0,.77.44.51-.08.73c0,0,0,0,0,0,0,.16,1.13.31,1.07.41s-1.12.18-1.1.36-.26.6.08.88.31.44,0,.68a.49.49,0,0,0,0,.87c.31.23.33.44,0,.7a.55.55,0,0,0-.23.52,9.56,9.56,0,0,0-1.27.3c.74-.44,1.27-.81,1.19-1s0-.58-.41-.65-.45-.22-.3-.55,0-.64-.42-.69-.53-.15-.33-.54-.22-.39-.27-.62-.45-.23-1.62.49c1.59-1.53,1.34-1.8-.46-.62,1.58-1.65,1-1.79-.55-.57.42-.49.94-1.11.85-1.21-.25-.3-.16-1.19-1.29-.49-.13.09-.09,0-.05-.12.33-.92.11-.94-1,.15.29-.59.55-1.18.39-1.28s-.53-.32-.8-.47c-.1-.06-.3.11-.57.47s-.28.36-.19,0c.29-1.15,0-1.19-.72,0-.25.42-.25.36-.13-.09.18-.68.16-1,0-1.09s-.87,1.34-.84,1.07c.06-.67.11-1.36-.13-1.38s-.5-.43-.83-.08-.54.21-.77-.17-.44,1.34-.53.94-.25-1.06-.46-1l-.89.06c-.11,0-.21.09-.23.45s-.11.26-.24.09c-.62-.81-1.19-.45-1.48.21a2,2,0,0,0,.08.67c.1.42.08.42-.13.09-.75-1.2-1.08-1.11-.77.12.06.24.1.36-.11.13-.95-1-1.16-.78-.51.7-.47-.48-.91-.82-1.09-.71s.32.9.31,1.08-.87-.54-1.09-.43.79,1.22.35,1-.95-.32-1.06-.13a2.51,2.51,0,0,1-.39.57c-.22.2-.07.59,1.12,1.34-2.1-.76-2.31-.33-.46.72-2.05-.47-2.18-.08-.25.82-.68-.12-1.42-.2-1.45-.06-.07.42-.9.83.28,1.39.1,0,.17.08,0,.1-1.19.17-.79.52.64.75-.78.07-1.31.19-1.31.36s-.28.65.11.92.33.45.07.75a.49.49,0,0,0,.18.85c.38.19.43.39.18.75s-.19.7.28.83.44.36.3.73,0,.7.38.78.53.26.38.66.25.46.39.69.38.08,1-.3c.44-.26.4-.2.09.11-1,1-.84,1.29.42.51.42-.26.36-.19.06.14-.48.52-.6.78-.55.93s1.38-.79,1.22-.55c-.29.46-.78,1.08-.62,1.2s.19.51.57.45.65,0,.47.49c0,0,0,0,0,0s.93-.7,1-.59-.58,1-.44,1.06a.65.65,0,0,1,.18.18c-.11-.08-.29,0-.41-.09s-.43.1-.9,1.4c.36-2.16.07-2.23-.63-.19.3-2.26-.17-2-.66-.1.05-.65.11-1.44,0-1.47-.34-.08-.67-.85-1.13.39-.05.15-.07.05-.1-.07-.22-.95-.39-.82-.6.69-.09-.65-.2-1.28-.36-1.27l-.8.07c-.1,0-.16.26-.16.7s0,.45-.14.09c-.38-1.12-.61-1-.51.39,0,.48,0,.43-.13,0-.22-.67-.4-.91-.54-.93s.08,1.58,0,1.34c-.31-.6-.63-1.2-.8-1.09s-.57-.11-.63.35-.27.44-.63.23.39,1.35.12,1.05-.74-.79-.87-.67-.4.29-.61.44-.1.16.07.49.05.26-.13.17c-.88-.42-1.14.1-1,.78a2.25,2.25,0,0,0,.41.52c.3.31.28.32-.06.12-1.21-.71-1.42-.51-.55.39.17.18.27.26,0,.15-1.28-.49-1.36-.21-.07.76-.63-.21-1.17-.34-1.26-.17s.71.61.79.76-1-.12-1.13.06,1.26.68.78.68-1,.1-1,.29a2.23,2.23,0,0,1-.08.6c-.1.25.2.5,1.6.63-2.21.21-2.22.66-.09.74-2,.45-2,.83.12.73-.67.19-1.36.43-1.33.56.11.36-.46,1,.82,1,.11,0,.19,0,.06.07-1,.65-.5.75.87.3-.67.4-1.1.73-1,.86s0,.64.45.67.46.2.34.56.06.61.47.59.53.1.42.52.09.65.52.54.51.08.5.45.18.6.57.47.55,0,.56.4.36.29.54.41.35-.1.78-.73c.29-.42.27-.35.11.06-.53,1.36-.29,1.48.51.24.26-.41.24-.33.09.09-.24.66-.25.94-.16,1s.89-1.3.83-1c-.1.53-.29,1.29-.13,1.32s.32.37.61.14.51-.32.54.23c0,0,0,0,0,0s.53-1,.59-1-.15,1.12,0,1.13a.33.33,0,0,1,.12,0c-.11.24-.22.47-.31.72a11.73,11.73,0,0,0-.5,4.94,7.48,7.48,0,0,1-.37,4c-.35.74-.68,1.48-1,2.22s-.5,1.52-.71,2.3a26.93,26.93,0,0,0-.78,4.73c-.29,3.59-.57,7.19-1,10.76-.49,4.54-.38,8.5,1.53,11-3.79,5.43-4.2,10.34-1.57,16.6-3.58,5.65-3.91,9.66-1.32,16.81a8.93,8.93,0,0,0-2.56,5.47c-.59,7.87-2.3,15.88-1,23.62a3.08,3.08,0,0,1-.1,1.87,16.62,16.62,0,0,0,0,13.77,12.86,12.86,0,0,0-2.46,6.95c-.4,5.53-1.26,11.24-1.05,16.53a65.52,65.52,0,0,1-.94,13.62,82.46,82.46,0,0,0-1,15.67,63.13,63.13,0,0,1-.9,13.89,73.93,73.93,0,0,0-1,15.62,67.76,67.76,0,0,1-.88,14,79.2,79.2,0,0,0-.88,15.29,75.44,75.44,0,0,1-.65,14.5c-.64,4.78-.38,10-.48,15,0,3,.32,5.57,1.47,7.31.77,1.16.66,1.67,0,3a14.69,14.69,0,0,0,.25,13.68c.78,1.42.67,1.89,0,3-1,1.74-1.28,4.15-1.21,7,.06,3.93,2.78,6.76,2.45,8.37-.58,3-1.54,5.33-1.25,9.1.37,4.79.21,9.81.92,14.42a54.65,54.65,0,0,1,.77,13.82,3,3,0,0,0,0,.42c.18,3.12,2.08,4.9,2.18,7,.11,2.36-1.29,4.36-.88,7.66.68,5.56,1.07,11.41,2.58,16.66a111.1,111.1,0,0,1,2.95,12.83,47.77,47.77,0,0,0,5.93,16.11c2.53,4.18,4.61,7.77,7.22,12,.79,1.15,1.57,2.37,2.5,3.5a33.72,33.72,0,0,0,3,3.29,26.25,26.25,0,0,0,7.27,5.17,60.59,60.59,0,0,0,14.89,5,27.65,27.65,0,0,0,16.35-2,78.11,78.11,0,0,0,14.48-8.44c4.18-3.15,7.43-7.89,9.67-12.79.21-.47.3-1,.48-1.41s.52-1.09.77-1.68l1.63-3.91c.49-1.32,1-2.65,1.42-4l.67-2c.21-.66.37-1.34.54-2,.34-1.33.63-2.66.86-4,.39-2.42.74-4.67,1.26-6.88a62.64,62.64,0,0,1,1.74-6.75,49.73,49.73,0,0,0,1.28-6.54c.26-2.27.46-4.57.8-6.8a29.42,29.42,0,0,0,.19-6.23,10.37,10.37,0,0,0-1.69-4.84C271.55,393.57,272.58,388.56,271.15,385ZM194.57,32.45a.22.22,0,0,1,.26.15C194.36,33.25,194.31,33.22,194.57,32.45Zm-.67.05a.27.27,0,0,0,.17.07l-.41.6C193.75,32.93,193.83,32.71,193.9,32.51Zm12.18-12.2.16-.12a.68.68,0,0,0,.11.1c.18.11.25.21.26.32a1.28,1.28,0,0,0-.38.05C205.34,20.88,205.31,20.81,206.08,20.3ZM192.17,30.91c.18,0,.31,0,.38,0a.61.61,0,0,0-.29.12c-.28.21-.45.23-.5-.19a.46.46,0,0,0,0-.11A.36.36,0,0,0,192.17,30.91Z" style="fill:#382d15;"/><path d="M501.33,287.09a44.15,44.15,0,0,0-1.17-11.55,3.72,3.72,0,0,1,.06-2.13c1.28-5.77,1.07-8.06-1.35-12.82a14.71,14.71,0,0,0,1.68-7.22c-.25-5.37-.44-10.75-.74-16.11a11.88,11.88,0,0,0-1.28-5,3.31,3.31,0,0,1-.28-3.21c1.48-4.62,1.11-8.63-1.15-12.33-.8-1.31-.74-1.78-.12-2.87,1-1.68,1.23-4,1.15-6.72-.11-3.75-2.73-6.81-2.4-8,.8-3,1.66-5.46,1.36-9.27-.37-4.67-.17-9.65-1-14a49,49,0,0,1-.75-13c.2-3.4-2.42-5.38-2-7.61.53-2.76,1.23-5.12,1-8.38-.37-4.67-.69-9.36-1-14a11.6,11.6,0,0,0-1-4.47c-.75-1.41-.53-2.39-.37-4.08.77-8-.12-16-1.53-23.94A5.56,5.56,0,0,0,489.27,98c-.71-.9-.74-1.35-.24-2.61,1.76-4.48,1.55-8-.66-12.67a2.84,2.84,0,0,1-.29-2.56c1.59-5.66,1.23-8.43-1.56-13.68a17,17,0,0,0,1-3.23,13.41,13.41,0,0,0,0-4.33c-.51-3.36-2.31-5-3.1-7.29a8.54,8.54,0,0,1-.36-2.86.29.29,0,0,0,.15-.2c.09-.33.23-.36.48-.14s.53.18.62-.22.18-.46.49-.16.35-.09.55-.09.25-.36-.23-1.64c1.1,1.9,1.37,1.75.57-.25,1.22,1.93,1.41,1.43.54-.33.38.53.84,1.18.94,1.13.3-.14,1,.22.56-1-.06-.14,0-.08.11,0,.76.58.81.37,0-.9.49.44,1,.85,1.08.74s.37-.35.54-.54-.06-.29-.34-.63-.29-.35,0-.15c1,.62,1.08.37.11-.6-.34-.34-.29-.32.1-.07.6.38.88.45,1,.38s-1.09-1.14-.85-1c.61.27,1.24.54,1.3.36s.49-.24.24-.61-.1-.49.32-.51-1.15-.8-.76-.72,1.06.19,1.09,0A4.39,4.39,0,0,1,493,41c0-.07,0-.17-.35-.33s-.21-.17,0-.2c1-.12.84-.62.37-1.07a2.55,2.55,0,0,0-.63-.2c-.42-.1-.42-.11,0-.12,1.4,0,1.46-.28.25-.55-.24-.05-.36-.07-.06-.12,1.35-.22,1.26-.45-.33-.61.65-.12,1.18-.27,1.18-.44s-.91-.15-1-.24.93-.36,1-.55-1.43,0-1-.19.81-.51.75-.67a2.15,2.15,0,0,1-.18-.53c0-.24-.39-.33-1.7.19,1.89-1.17,1.68-1.55-.23-.67,1.62-1.3,1.41-1.63-.43-.57.51-.47,1-1,.93-1.1-.24-.28-.08-1.13-1.17-.47-.09.06-.16.1-.09,0,.56-1,.07-.91-.9.16.39-.68.6-1.17.47-1.26s-.32-.56-.73-.36-.5.06-.58-.3-.37-.49-.7-.25-.5.2-.62-.21-.42-.49-.72-.16-.46.22-.65-.1-.47-.39-.72-.07-.44.32-.69,0-.48,0-.71,0-.22.29-.18,1.06c0,.51,0,.44-.12,0-.39-1.41-.66-1.36-.54.11,0,.49,0,.41-.13,0-.21-.67-.37-.9-.5-.93s.1,1.57,0,1.31c-.25-.48-.55-1.2-.7-1.12a.32.32,0,0,1-.13,0,.53.53,0,0,0,.09-.44c-.05-.36,0-.54.43-.42s.32-.27.52-.38.12-.46-.85-1.45c1.82,1.22,2,1,.49-.55,1.93,1.21,1.93.65.42-.62.57.32,1.27.71,1.35.61.25-.29,1.09-.31.19-1.26-.11-.11,0-.09.11-.06.95.2.91,0-.33-.88.62.2,1.24.37,1.31.21s.24-.55.33-.83c0-.1-.16-.27-.55-.48s-.4-.22,0-.18c1.18.13,1.15-.15-.11-.68-.45-.19-.39-.19.07-.13.71.09,1,0,1.08-.1s-1.44-.67-1.17-.67c.67,0,1.36,0,1.34-.25s.35-.49,0-.76-.28-.47.1-.69-1.37-.32-1-.42,1-.27,1-.45-.07-.51-.08-.77c0-.09-.09-.18-.45-.2s-.26-.09-.08-.21c.82-.54.52-1-.12-1.3a2.25,2.25,0,0,0-.67,0c-.43.07-.42,0-.06-.12,1.27-.61,1.21-.89,0-.7-.24,0-.36.06-.1-.11,1.14-.77.94-1-.6-.54.55-.39,1-.75.88-.93s-.92.19-1.1.15.7-.75.62-1-1.33.57-1,.17.48-.86.32-1a3,3,0,0,1-.48-.49c-.18-.24-.59-.18-1.52.89,1.08-2,.6-2.25-.66-.56.7-2,.24-2.19-.81-.33.17-.67.29-1.4.13-1.45s-.45-.3-.7-.37-.53,0-.81.6c0,.1-.08.17-.11,0-.22-1.2-.61-.76-.77.66-.12-.78-.28-1.3-.47-1.28s-.73-.24-1,.2-.43.37-.77.16a.51.51,0,0,0-.84.3c-.14.4-.32.5-.72.29s-.71-.06-.76.4-.26.5-.65.41-.67.06-.68.48-.17.57-.6.51-.42.35-.62.53,0,.39.52,1c.35.38.28.35-.09.11-1.24-.8-1.42-.56-.4.51.34.35.26.31-.12.08-.6-.37-.88-.42-1-.34s1.06,1.17.79,1.06c-.51-.19-1.21-.53-1.29-.35s-.45.29-.31.64.19.61-.37.55c0,0,0,0,0,0s.89.75.8.8-1.08-.35-1.12-.2-.21.26-.27.41c.06-.22.16-.44-.1-.65s-.28-.43,0-.67a.48.48,0,0,0,0-.85c-.3-.22-.39-.41,0-.66s0-.46.09-.69-.25-.44-1.63-.47c2.16-.44,2.12-.74,0-.83,2.23-.45,1.86-.84-.11-.83.64-.14,1.42-.31,1.41-.44,0-.41.64-.94-.66-1.16-.16,0-.07-.06,0-.12.87-.43.73-.54-.79-.56.63-.2,1.24-.41,1.2-.58l-.16-.86c0-.11-.28-.17-.72-.15s-.46,0-.1-.16c1.08-.49.92-.73-.44-.6-.48,0-.44,0,0-.16.66-.26.88-.47.89-.64s-1.6.05-1.36-.08c.58-.35,1.17-.7,1.05-.91s.07-.66-.4-.76-.49-.36-.28-.77-1.39.31-1.1,0,.78-.78.63-1-.36-.52-.57-.8c-.07-.1-.2-.15-.53,0s-.3,0-.23-.19c.32-1-.4-1.4-1.23-1.32-.09,0-.33.23-.51.44s-.31.31-.18-.07c.45-1.36,0-1.62-.77-.61-.16.2-.22.3-.21,0,0-1.41-.45-1.43-1.08.07-.05-.67-.2-1.23-.5-1.25s-.43.9-.59,1-.45-.94-.77-1-.13,1.46-.41,1.06-.72-.73-1-.61A6.6,6.6,0,0,1,456,.9c-.34.11-.44.55.27,1.77-1.57-1.6-2-1.22-.83.54-1.7-1.25-2-.88-.65.75-.59-.37-1.25-.71-1.35-.56-.28.41-1.21.56-.35,1.55.08.08.13.15,0,.11-1.19-.23-.94.26.29,1-.76-.2-1.3-.27-1.37-.1s-.53.54-.25,1,.12.56-.23.75a.51.51,0,0,0-.17.86c.27.33.23.55-.16.74s-.47.5-.13.82.21.52-.1.74-.42.51-.11.8.27.53-.08.76-.08.52-.12.79.24.31,1,.43c.51.08.44.1,0,.15-1.46.16-1.47.45,0,.7.49.08.4.1,0,.15-.7.08-1,.2-1,.35s1.55.36,1.27.44c-.52.15-1.3.29-1.26.49s-.22.53.11.77.5.45,0,.73c0,0,0,0,0,0,0,.17,1.16.18,1.11.29s-1.09.31-1.05.48-.19.62.19.86.35.39.08.67a.49.49,0,0,0,.12.87c.26.14.35.29.27.48a.82.82,0,0,0-.43.13c-.83.4-.87.33-.22-.31s.11-.5-1.25.18c.64-.56,1.1-1,1-1.15s-.08-.56-.49-.56-.46-.15-.35-.48,0-.61-.46-.6-.52-.09-.33-.48-.2-.35-.25-.56-.42-.19-1.6.5c1.63-1.48,1.48-1.67-.42-.63,1.71-1.5,1.24-1.59-.47-.61.49-.43,1.1-.95,1-1-.19-.32.18-1-1.05-.61-.15.05-.09,0,0-.12.59-.77.4-.81-.95-.11.46-.47.9-.94.79-1.07l-.59-.71c-.08-.09-.33,0-.7.23s-.4.23-.18-.09c.66-1,.35-1.16-.73-.3-.38.3-.36.25-.11-.14.39-.6.42-.91.3-1.08s-1.29,1-1.19.73c.19-.65.36-1.34,0-1.45s-.69-.6-1.18-.33-.77.15-1.17-.23-.46,1.38-.64,1-.57-1-.86-.89a10.55,10.55,0,0,0-1.16.43c-.13.06-.22.19-.13.55s0,.3-.25.2c-1-.44-1.46.22-1.45,1a1.74,1.74,0,0,0,.37.56c.28.33.26.34-.09.15-1.25-.69-1.51-.41-.66.53.17.18.26.27,0,.17-1.34-.4-1.42,0-.13.92-.66-.16-1.2-.24-1.3,0s.72.62.8.79-1,0-1.15.17,1.28.68.79.71-1,.17-1,.38a2.6,2.6,0,0,1-.09.66c-.09.27.2.54,1.6.7-2.22.22-2.22.62-.12.85-2.06.38-2,.71.08.85-.68.13-1.39.31-1.37.45.06.41-.58,1,.7,1.16.11,0,.19,0,0,.09-1.09.49-.62.67.81.54-.74.27-1.22.5-1.18.66s-.15.66.29.82.4.36.2.68a.46.46,0,0,0,.29.77c.4.12.48.31.25.68s-.14.67.32.74.46.31.3.65-.07.63.34.7.5.28.34.65.21.46.32.68.36.11,1.06-.21c.47-.21.42-.16.08.12-1.13.93-1,1.16.37.55.45-.2.39-.14,0,.15-.55.45-.7.69-.67.84s1.48-.58,1.29-.36c-.36.41-.94.94-.8,1.08s.09.53.48.54.64.08.36.57c0,0,0,0,0,0s1.06-.49,1.07-.38-.77.83-.65.94.13.59.56.58.49.12.38.49.06.65.49.62.5.11.41.48,0,.66.48.59.49.16.41.52,0,.38.12.46c-.35.38-.67.76-1,1.15-.16-.1-.27-.35-.55-.13s-.39.16-.46-.17-.3-.45-.61-.18-.41.26-.48-.15-.33-.13-.48-.26-.41.14-.79,1.46c.26-2.19,0-2.21-.59-.14.19-2.28-.27-2-.62-.05,0-.65,0-1.45-.08-1.47-.32-.06-.69-.8-1,.46,0,.15-.06.06-.09-.06-.26-.93-.41-.78-.51.72-.12-.64-.27-1.27-.42-1.25l-.8.12c-.1,0-.13.28-.1.72s0,.45-.13.1c-.48-1.08-.71-.92-.45.43.09.48.06.43-.13,0-.29-.64-.49-.86-.63-.87s.28,1.56.14,1.33c-.37-.55-.76-1.12-.91-1s-.55,0-.54.41-.18.47-.55.28.56,1.27.27,1-.8-.71-.92-.59-.33.3-.5.46-.07.16.14.46.09.25-.1.17c-.88-.36-1.05.11-.85.74a2.55,2.55,0,0,0,.46.49c.32.29.3.3,0,.11-1.24-.68-1.41-.49-.49.35.18.16.28.24,0,.13-1.29-.48-1.32-.23,0,.69-.63-.22-1.16-.35-1.25-.21s.72.58.81.72-1-.15-1.12,0,1.25.68.77.65-1,0-1,.22a2.24,2.24,0,0,1-.1.54c-.09.22.18.47,1.57.65-2.21.1-2.22.53-.12.68-2.06.34-2,.73.09.69-.67.16-1.37.37-1.35.5.07.36-.48,1,.79,1,.11,0,.19,0,.06.07-1,.64-.5.76.86.29-.67.4-1.09.73-1,.87s0,.64.46.66.46.18.36.54.08.61.49.55.52.07.44.48.12.63.54.48.49,0,.51.39.21.57.58.4.52-.06.58.33.4.25.6.35.34-.13.68-.82c.23-.46.22-.39.12,0-.33,1.42,0,1.53.54.16.19-.45.18-.36.1.08-.12.69-.09,1,0,1.06s.63-1.45.63-1.16c0,.54,0,1.32.12,1.32s.39.3.63,0,.42-.43.57.1c0,0,0,0,0,0s.28-1.12.35-1.06.11,1.12.24,1.1.45.26.67-.08.31-.31.5,0,.27.28.4.23a7.55,7.55,0,0,0-1.08,2.87c-1.23,7.61-3.32,15.37-2.27,22.95A2.92,2.92,0,0,1,434,81.6,15.44,15.44,0,0,0,433.8,95a12,12,0,0,0-2.5,6.72c-.42,5.36-1.27,10.89-1.06,16a59.53,59.53,0,0,1-1,13.15,84,84,0,0,0-1.15,15.08,53.29,53.29,0,0,1-1.31,13.32,69.47,69.47,0,0,0-1.71,15,66.12,66.12,0,0,1-1.4,13.57,73.39,73.39,0,0,0-1.37,14.76,67.93,67.93,0,0,1-1.15,14c-.82,4.58-.79,9.59-1.15,14.41-.22,2.86,0,5.37,1,7.12.69,1.17.55,1.65-.19,2.86a14,14,0,0,0-.83,13.15c.64,1.43.48,1.88-.25,2.87-1.15,1.56-1.69,3.84-1.94,6.54-.35,3.74,1.91,6.77,1.39,8.27-1,2.78-2.26,4.92-2.44,8.6-.23,4.68-.95,9.49-.77,14a44.92,44.92,0,0,1-1,13.24,2.76,2.76,0,0,0,0,.39c-.26,3,1.3,4.93,1,6.89-.3,2.25-2,3.85-2.32,7-.46,5.31-1.53,10.73-1.6,15.89a57.23,57.23,0,0,1-1.41,12.33,72.26,72.26,0,0,0-1.64,16,69.34,69.34,0,0,1-1,12.86c-.38,2.52-.69,5.2-.82,7.88a60.7,60.7,0,0,0,.19,7.87,54.27,54.27,0,0,1,.35,6.95c0,2.25,0,4.48-.2,6.87a63.86,63.86,0,0,0,.08,7.37,47.79,47.79,0,0,0,1.06,7.24l3,15.14A57,57,0,0,0,416.91,452a21.16,21.16,0,0,0,1.23,2.1l3.54-1.89-3.58,1.92c.12.23.22.46.34.7a45.6,45.6,0,0,0,4.63,7.3,21.88,21.88,0,0,0,6.85,5.9,21.66,21.66,0,0,0,8,2.43,23.48,23.48,0,0,0,8.28-.92c.59-.19,1.18-.4,1.78-.63a17,17,0,0,0,1.67-.85,20.74,20.74,0,0,0,3-2c.47-.37,1-.72,1.42-1.11l1.32-1.2,1.32-1.19c.44-.39.83-.82,1.24-1.22a20.8,20.8,0,0,0,3.93-4.95,9.59,9.59,0,0,0,1.23-4.93c4.31-1.88,7.68-5.76,8.13-9.48a11.2,11.2,0,0,1,1-4.17,10.77,10.77,0,0,1,2.73-3.26c2.56-2.35,3.61-6.59,3.31-12.07A12,12,0,0,0,483,416c.87-2.53,1.73-5.07,2.53-7.61a56.51,56.51,0,0,0,2-7.59c.35-2.2.77-4.22,1.29-6.22s1.17-4,1.83-6.08c.81-2.49,1.53-5.14,2.13-7.82a70.69,70.69,0,0,0,1.13-8A62.12,62.12,0,0,1,496,360.37c.29-1,.52-2,.71-3s.3-2.13.42-3.22c.24-2.17.43-4.39.76-6.52.68-4.53.53-8.46-1.26-11.1a15.46,15.46,0,0,0,3.11-8,14.6,14.6,0,0,0-1.87-8.09,14.71,14.71,0,0,0,2.79-8.43,13.15,13.15,0,0,0-2.15-7.75c1-1.4,2.27-2.93,2.33-5.4C500.92,295,501.27,291,501.33,287.09Zm-21-255.87c.07.33.19.76.14.74a3.09,3.09,0,0,1-.4-.57A.66.66,0,0,0,480.33,31.22Zm-2.31,1a9,9,0,0,0-.53-.95c.27.3.51.54.71.72C478.18,32.19,478.12,32.26,478,32.26Zm.74-.62a.48.48,0,0,0-.33-.1c-.14-.32,0-.25.45.17Zm.45-.21s0,0,0,.07c-.11-.24-.28-.56-.51-1,.25.26.48.48.67.65A.27.27,0,0,0,479.22,31.44Zm1.66-.74c-.08.34-.17.54-.48.23,0-.33.11-.43.44-.36H481A.3.3,0,0,0,480.88,30.7ZM467.41,19.81a.78.78,0,0,1,.06.13c-.8-.2-.86-.29-.17-.39A.71.71,0,0,0,467.41,19.81Zm-.38.61,0,0h0Zm.89-1.95s0,0,0,0a.37.37,0,0,0,0,.18c.17.31.12.47-.25.53l0,0a9.22,9.22,0,0,0-1.25-.32C467.27,18.76,467.91,18.66,467.91,18.47ZM451.1,21.59a.37.37,0,0,0,0,.26l-.38.11Z" style="fill:#382d15;"/><path d="M407.67,108.09c.59,0,.33-.36.36-.59,0,0-.05-.1-.13-.17l-9.91-4a.24.24,0,0,0-.16,0c-.19.19-.74.26-.2.74s.52.66-.26.58-.2.36-.39.51.33.55,2.83,1.68c-3-1-4.22-1.25-2.53-.39s1.6.9-.15.36-.83,0,1.87,1.39c-1.61-.55-2.84-.93-2.9-.77s-.66.29-.13.76.39.58-.22.57-.8.24-.24.74.55.64-.24.55-.23.35-.45.49.27.55,2.77,1.68c-4.15-1.38-4.21-1.14-.34.7-4.3-1.47-3.8-.89-.23.75a15.44,15.44,0,0,0-2.79-.84c-.2.33-1.68.15.52,1.42.27.15.08.1-.16,0-1.82-.44-1.63-.24,1.07,1.1a8.28,8.28,0,0,0-2.5-.63c-.07.25-.18.49-.28.73,0,.09.38.35,1.16.73s.8.41.07.2q-3.35-1,.32.78c.87.42.76.4-.11.1-1.34-.45-1.87-.55-2-.47s2.74,1.47,2.23,1.32c-1.27-.36-2.56-.75-2.55-.55s-.71.22-.06.71.41.62-.34.54c-.59-.06,2.45,1.27,1.7,1.09-.94-.23-2-.56-2.05-.39a1.91,1.91,0,0,1-.21.65c0,.07.07.2.72.52s.41.29,0,.22c-1.79-.31-1.56.21-.7,1a10.45,10.45,0,0,0,1.17.6c.78.36.76.38,0,.14-2.67-.85-2.8-.72-.61.42.43.22.65.33.07.16-2.6-.76-2.48-.57.35.86a7.15,7.15,0,0,0-2.38-.58c-.09.13,1.56.89,1.76,1.09s-1.9-.54-2.1-.44,2.5,1.3,1.58,1.06c-1.12-.3-1.81-.44-1.84-.28a.65.65,0,0,1-.2.46c-.2.15.28.54,2.85,1.69-4.2-1.4-4.3-1.19-.51.64-4-1.29-4-1.12-.26.75a12.74,12.74,0,0,0-2.73-.81c-.11.35-1.6.16.53,1.41.19.11.31.19,0,.1-2.25-.64-1.54-.13,1,1.11a7.54,7.54,0,0,0-2.55-.67c-.1.24-.78.26-.17.77s.36.59-.27.58-.77.23-.23.7.47.65-.28.59-.89.18-.27.68.37.61-.24.61-.83.19-.29.65.43.65-.26.62-.26.4-.38.6.38.43,1.77,1.08c.93.43.78.4,0,.13-2.77-.9-2.86-.68-.2.61.88.43.71.38-.14.1-1.33-.45-1.85-.54-2-.46s2.76,1.46,2.2,1.31c-1-.27-2.51-.75-2.51-.55s-.6.26-.1.69.72.75-.32.57c0,0,0,0,0,0s2,1.07,1.89,1.12-2.14-.65-2.15-.49-.66.3-.12.79.42.59-.25.55-.86.22-.31.71.43.61-.2.59-.93.18-.3.69.34.6-.29.59-.81.19-.23.66.34.65-.31.65-.33.36-.36.59c0,0,.14.1.16.13l10,4H391c.2-.19.74-.26.2-.74s-.52-.66.26-.58.2-.36.39-.51-.33-.55-2.83-1.68c3,1,4.22,1.25,2.53.39s-1.6-.9.15-.36.83,0-1.87-1.39c1.61.55,2.84.93,2.9.77s.66-.29.14-.76-.39-.58.22-.57.8-.24.24-.74-.55-.64.24-.55.23-.35.45-.49-.27-.55-2.77-1.68c4.15,1.38,4.21,1.14.34-.7,4.3,1.47,3.8.89.23-.75a15.43,15.43,0,0,0,2.79.84c.2-.33,1.68-.15-.52-1.42-.27-.15-.08-.1.16,0,1.82.44,1.63.24-1.07-1.1a8.28,8.28,0,0,0,2.5.63c.07-.25.19-.49.28-.73,0-.09-.38-.35-1.16-.73s-.8-.41-.07-.2q3.35,1-.32-.78c-.87-.42-.76-.4.11-.1,1.34.45,1.87.55,2,.47s-2.74-1.47-2.23-1.32c1.27.36,2.56.75,2.55.55s.7-.22.06-.71-.41-.62.34-.54c.59.06-2.45-1.27-1.69-1.09.94.23,2,.56,2.05.39a1.9,1.9,0,0,1,.21-.65c0-.07-.07-.2-.72-.52s-.41-.29,0-.22c1.79.31,1.56-.21.7-1a10.43,10.43,0,0,0-1.17-.6c-.78-.36-.76-.38,0-.14,2.67.85,2.8.72.61-.42-.43-.22-.65-.33-.06-.16,2.6.76,2.48.57-.35-.86a7.15,7.15,0,0,0,2.38.58c.09-.13-1.56-.89-1.76-1.09s1.9.54,2.1.44-2.5-1.3-1.58-1.06c1.12.3,1.81.44,1.84.28a.65.65,0,0,1,.2-.46c.2-.15-.28-.54-2.85-1.69,4.2,1.4,4.3,1.19.51-.64,4,1.29,4,1.12.26-.75a12.74,12.74,0,0,0,2.73.81c.11-.35,1.6-.16-.53-1.41-.19-.11-.31-.19,0-.1,2.25.64,1.54.13-1-1.11a7.54,7.54,0,0,0,2.55.67c.1-.24.78-.26.17-.77s-.36-.59.27-.58.77-.23.23-.7-.47-.65.28-.59.89-.18.27-.68-.37-.61.24-.61.83-.19.29-.65-.43-.65.26-.62.26-.4.38-.6-.38-.43-1.77-1.08c-.93-.43-.78-.4,0-.13,2.77.9,2.86.68.2-.61-.88-.43-.71-.38.14-.1,1.33.45,1.85.54,2,.46s-2.76-1.46-2.2-1.31c1,.27,2.51.75,2.51.55s.6-.26.1-.69-.72-.75.32-.57c0,0,0,0,0,0s-2-1.07-1.89-1.12,2.14.65,2.15.49.66-.3.12-.79-.42-.59.25-.55.86-.22.31-.71-.43-.61.2-.59.93-.18.3-.69-.34-.6.29-.59.81-.19.23-.66S407,108.1,407.67,108.09Z" style="fill:#ff3366;"/><path d="M366,93.78c-.77-.34-.5-.53.13-.69s.23-.42.2-.64c0,0-.07-.08-.17-.13L355.53,91c-.08,0-.13,0-.15.06-.14.23-.65.42,0,.74s.67.5-.1.62-.1.39-.25.58.46.44,3.17.9c-3.18-.22-4.39-.15-2.54.25s1.77.46-.05.38-.79.25,2.16.86c-1.7-.13-3-.19-3,0s-.56.43.06.75.52.46-.07.59-.71.43,0,.76.69.47-.09.58-.13.39-.31.57.4.45,3.11.91c-4.37-.29-4.36,0-.14.75-4.53-.34-3.9.09,0,.77a15.79,15.79,0,0,0-2.91-.11c-.11.36-1.58.55.87,1.22.3.08.1.08-.14.08-1.87,0-1.63.17,1.31.78a8.46,8.46,0,0,0-2.58,0c0,.25-.05.5-.09.76,0,.09.45.24,1.31.41.71.14.88.2.12.17-2.33-.08-2.16.13.51.66.94.18.83.19-.08.13-1.41-.1-2-.06-2.08.05s3,.72,2.49.71c-1.32,0-2.67-.09-2.6.11s-.62.38.12.68.56.48-.19.59c-.58.09,2.69.61,1.92.61-1,0-2.11,0-2.08.13a1.83,1.83,0,0,1,0,.67c0,.08.12.17.83.32.86.18.47.18.08.21-1.81.14-1.45.58-.43,1.09a10.65,10.65,0,0,0,1.29.28c.85.15.83.17,0,.13-2.79-.15-2.89,0-.49.54.47.1.71.15.1.14-2.71-.08-2.54.07.56.73a7.31,7.31,0,0,0-2.45,0c-.05.14,1.73.46,2,.61s-2,0-2.14.09,2.75.62,1.79.61c-1.16,0-1.86,0-1.85.19a.62.62,0,0,1-.08.49c-.16.19.41.44,3.19.91-4.42-.3-4.46-.08-.33.73-4.15-.26-4.18-.07-.06.77a13,13,0,0,0-2.84-.1c0,.36-1.5.55.87,1.2.21.06.35.1,0,.09-2.34-.06-1.52.26,1.28.8a7.7,7.7,0,0,0-2.63,0c0,.25-.68.43,0,.77s.5.47-.12.61-.69.4,0,.72.62.5-.12.63-.81.39-.09.71.52.49-.08.64-.75.38-.11.69.58.51-.1.66-.15.44-.21.66.48.32,2,.59c1,.18.86.19,0,.14-2.9-.17-2.94.05,0,.62,1,.19.78.19-.11.12-1.4-.1-1.93-.06-2.06.05s3,.7,2.47.7c-1.06,0-2.62-.09-2.57.09s-.51.39.08.68.89.54-.17.61c0,0,0,0,0,0s2.23.52,2.11.59-2.24-.09-2.21.06-.56.45.09.78.56.45-.1.58-.78.42-.11.75.57.47,0,.6-.86.4-.12.73.49.49-.13.63-.73.37-.05.68.5.53-.13.69-.23.42-.2.64c0,0,.16.06.19.09l10.66,1.36.06,0c.14-.23.65-.42,0-.74s-.67-.5.1-.62.1-.39.25-.58-.46-.44-3.17-.9c3.18.22,4.39.15,2.54-.25s-1.77-.46.05-.38.79-.25-2.16-.86c1.7.13,3,.19,3,0s.56-.43-.06-.75-.52-.46.07-.59.71-.43,0-.76-.69-.47.09-.58.13-.39.31-.57-.4-.45-3.11-.91c4.37.29,4.36,0,.15-.75,4.53.34,3.9-.09,0-.77a15.78,15.78,0,0,0,2.91.11c.11-.36,1.58-.55-.87-1.22-.3-.08-.1-.08.14-.08,1.87,0,1.63-.17-1.31-.78a8.46,8.46,0,0,0,2.58,0c0-.25.05-.5.09-.76,0-.09-.45-.24-1.31-.41-.71-.14-.88-.2-.12-.17,2.33.08,2.16-.13-.51-.66-.94-.18-.83-.19.08-.13,1.41.1,2,.06,2.08-.05s-3-.72-2.49-.71c1.32,0,2.67.09,2.6-.11s.63-.38-.12-.68-.56-.48.19-.59c.58-.09-2.69-.61-1.92-.61,1,0,2.11,0,2.08-.13a1.81,1.81,0,0,1,0-.67c0-.08-.12-.17-.83-.32-.86-.18-.47-.18-.08-.21,1.81-.14,1.45-.58.43-1.09a10.65,10.65,0,0,0-1.29-.28c-.85-.15-.83-.17,0-.13,2.79.15,2.89,0,.49-.54-.47-.1-.71-.15-.1-.14,2.71.08,2.54-.07-.56-.73a7.3,7.3,0,0,0,2.45,0c.05-.14-1.73-.46-2-.61s2,0,2.14-.09-2.75-.62-1.79-.62c1.16,0,1.86,0,1.85-.19a.62.62,0,0,1,.08-.49c.16-.19-.41-.44-3.19-.91,4.42.3,4.46.08.33-.73,4.15.26,4.18.07.06-.77a13,13,0,0,0,2.84.1c0-.36,1.5-.55-.87-1.2-.21-.06-.35-.1,0-.09,2.34.06,1.52-.26-1.28-.8a7.7,7.7,0,0,0,2.63,0c0-.25.68-.43,0-.77s-.5-.47.12-.61.69-.4,0-.72-.62-.5.12-.63.81-.39.09-.71-.52-.49.08-.64.75-.38.11-.69-.58-.51.1-.66.15-.44.21-.66-.48-.32-2-.59c-1-.18-.86-.19,0-.14,2.9.17,2.94-.05,0-.62-1-.19-.78-.19.11-.12,1.4.1,1.93.06,2.06-.05s-3-.7-2.47-.7c1.06,0,2.62.09,2.57-.09s.51-.39-.08-.68-.89-.54.17-.61c0,0,0,0,0,0s-2.23-.52-2.11-.59,2.24.09,2.21-.06.56-.45-.09-.78-.56-.45.1-.58.78-.42.11-.75-.57-.47,0-.6.86-.4.12-.73-.49-.49.13-.63S366.65,94.08,366,93.78Z" style="fill:#ff3366;"/><path d="M331.39,132.95c-.62.16-.77.1-.18-.38s-.08-.26,0-.44-.57,0-3,1.23c2.76-1.6,3.74-2.28,2-1.5s-1.68.71-.12-.23.56-.55-2.17.71a13,13,0,0,0,2.52-1.6c-.09-.14.29-.53-.37-.36s-.63,0-.19-.35.42-.61-.28-.43-.78.12-.17-.36-.05-.28,0-.47-.53,0-3,1.19c3.78-2.2,3.68-2.32-.19-.47,3.94-2.25,3.23-2.15-.29-.42a23.29,23.29,0,0,0,2.49-1.51c-.06-.25,1.09-1.14-1.24-.18-.28.12-.12,0,.08-.12,1.56-1,1.3-1-1.43.29a12.35,12.35,0,0,0,2.15-1.39,3.67,3.67,0,0,1-.25-.45,3.94,3.94,0,0,0-1.27.49c-.65.3-.82.37-.17,0q3-1.81-.7-.07c-.87.41-.78.35,0-.11a6.67,6.67,0,0,0,1.72-1.14c.08-.18-2.84,1.25-2.39,1a10.1,10.1,0,0,0,2.14-1.46c-.17-.08.36-.54-.39-.3s-.67,0-.09-.42-2.51,1.13-1.86.71a8.58,8.58,0,0,0,1.69-1.19.84.84,0,0,1-.25-.37s-.17,0-.83.27-.47.16-.16-.07c1.46-1.05,1-1.08-.1-.81-.12,0-.71.31-1.2.54-.78.37-.77.36-.09,0,2.4-1.42,2.42-1.56.18-.55-.44.2-.66.3-.14,0,2.3-1.41,2.1-1.41-.77-.08a10.61,10.61,0,0,0,2-1.33c0-.1-1.65.69-1.91.74s1.67-1,1.75-1.2-2.56,1.15-1.76.64c1-.62,1.55-1,1.47-1.1s-.18-.15-.14-.3-.53,0-3.05,1.23c3.83-2.22,3.77-2.36,0-.56,3.59-2.1,3.53-2.21-.28-.44a19.21,19.21,0,0,0,2.42-1.47c-.14-.2,1-1.1-1.24-.17-.2.08-.34.14-.08,0,2-1.23,1.17-1-1.41.27a11.25,11.25,0,0,0,2.21-1.41c-.08-.15.39-.6-.35-.39s-.62,0-.16-.39.41-.58-.27-.4-.73.07-.17-.39.52-.64-.23-.42-.64,0-.21-.38.46-.61-.19-.43-.71,0-.2-.4-.06-.31-.1-.46-.53.09-1.91.76c-.92.45-.8.36,0-.08,2.51-1.47,2.44-1.61-.23-.35-.88.42-.73.32,0-.12a6.6,6.6,0,0,0,1.7-1.14c.08-.18-2.84,1.26-2.36,1a13.09,13.09,0,0,0,2.12-1.43c-.15-.09.26-.48-.35-.32s-1,.19-.12-.42c0,0,0,0,0,0s-2.09.93-2,.82,1.92-1.15,1.82-1.22.28-.54-.4-.36-.66.06-.16-.36.48-.64-.22-.46-.68.06-.22-.34.55-.67-.21-.45-.61,0-.16-.41.46-.59-.24-.39-.64,0-.18-.43,0-.34-.11-.45-.1,0-.2,0l-9.45,5c-.06.05-.09.09-.1.11,0,.2-.36.57.31.4s.77-.1.18.38.08.26,0,.44.57,0,3-1.23c-2.76,1.6-3.75,2.28-2,1.5s1.68-.71.12.23-.56.55,2.17-.71a13,13,0,0,0-2.52,1.6c.09.14-.29.53.37.36s.63,0,.19.35-.42.61.28.43.78-.12.17.36.05.28,0,.47.53,0,3-1.19c-3.78,2.2-3.68,2.32.19.47-3.94,2.25-3.23,2.15.29.42a23.41,23.41,0,0,0-2.49,1.51c.06.25-1.09,1.14,1.24.18.28-.12.12,0-.08.12-1.56,1-1.3,1,1.43-.29a12.35,12.35,0,0,0-2.15,1.39,3.67,3.67,0,0,1,.25.45,3.93,3.93,0,0,0,1.27-.49c.65-.3.82-.37.17,0q-3,1.81.7.07c.87-.41.78-.35,0,.11a6.67,6.67,0,0,0-1.72,1.14c-.08.18,2.84-1.25,2.39-1a10.11,10.11,0,0,0-2.14,1.46c.17.08-.36.54.39.3s.67,0,.09.42,2.51-1.13,1.86-.71a8.61,8.61,0,0,0-1.69,1.19.83.83,0,0,1,.25.37s.17,0,.83-.27.47-.16.16.07c-1.46,1.05-1,1.08.1.81.12,0,.71-.31,1.2-.54.78-.37.77-.36.09,0-2.41,1.42-2.42,1.56-.18.55.44-.2.66-.3.15,0-2.3,1.41-2.1,1.41.77.08a10.62,10.62,0,0,0-2,1.33c0,.1,1.65-.69,1.91-.74s-1.67,1-1.75,1.2,2.56-1.15,1.76-.64c-1,.62-1.55,1-1.47,1.1s.18.15.14.3.53,0,3.05-1.24c-3.83,2.22-3.77,2.36,0,.56-3.59,2.1-3.53,2.21.28.44a19.25,19.25,0,0,0-2.42,1.47c.14.2-1,1.1,1.24.17.2-.08.34-.14.08,0-2,1.23-1.17,1,1.41-.27a11.23,11.23,0,0,0-2.21,1.41c.08.15-.39.6.35.39s.62,0,.16.39-.41.58.27.4.73-.07.17.39-.52.64.23.42.64,0,.21.38-.46.61.2.43.7,0,.2.4.06.31.1.46.53-.09,1.91-.76c.92-.45.8-.36,0,.08-2.5,1.47-2.44,1.61.23.35.88-.42.73-.32,0,.12a6.58,6.58,0,0,0-1.7,1.14c-.08.18,2.84-1.26,2.36-1a13,13,0,0,0-2.11,1.43c.15.09-.26.48.35.32s1-.19.12.42c0,0,0,0,0,0s2.09-.93,2-.82-1.91,1.15-1.82,1.22-.28.54.4.36.66-.06.16.36-.48.64.22.46.68-.06.22.34-.55.67.21.45.61,0,.16.41-.46.59.24.39.64,0,.18.43,0,.34.11.45.16-.05.2-.06l9.51-5,0,0C331.72,133.15,332.07,132.77,331.39,132.95Z" style="fill:#ff3366;"/><path d="M811.39,973.29a7.87,7.87,0,0,0-.38-2l-3.28,2.29h0l3.28-2.29a15.1,15.1,0,0,0-2.9-1,10.39,10.39,0,0,0-3.76-.11c-.33,0-.64.11-.94.17l-.5.12-.88.22-1.77.43c-1.18.29-2.35.63-3.53.95-2.34.67-4.68,1.4-7,2.22a81.55,81.55,0,0,0-13,5.88c-1.85,1.06-3.63,2.11-5.37,3.16h0c4.29-6.52,7.14-12.55,7.46-17.36,5.55-5,10.23-12.3,11.55-18.44a35.38,35.38,0,0,1,2.14-7.1,31.17,31.17,0,0,1,3.78-6.3,24.05,24.05,0,0,0,1.75-2.79l.72-1.39c.22-.44.5-1,.76-1.53a26.75,26.75,0,0,0,1.52-3.94,16.37,16.37,0,0,0,.54-2.58,8.65,8.65,0,0,0-.27-3.77l-1-3.25-2.75.67a8.6,8.6,0,0,0-4.27,2.54,23.36,23.36,0,0,0-2.48,3.08l-2.49,1a30.92,30.92,0,0,0-2.8,1.4,43.93,43.93,0,0,0-6.48,4.57c-3.61,3-7.24,6-10.86,9.17-1.8,1.58-3.56,3.2-5.25,4.88s-3.25,3.35-4.76,5.07c-4.31,4.94-8.19,9.25-12.46,13.88.28-1.08.56-2.15.85-3.21,1-3.48,2.05-6.93,3.39-10.63,2.39-6.83,3.83-14.87,5.58-22.37,1.85-8,2.67-14.88,1.42-19.57a47.92,47.92,0,0,0,3.07-7,38.36,38.36,0,0,0,1.62-7,44.07,44.07,0,0,0-.44-14.4c2.38-4.21,3.6-9.67,4.1-14.94q.09-1,.14-2l.08-1.69c.06-1.19.12-2.45.09-3.7a14.26,14.26,0,0,0-1.63-7V847l0-2L761,846.06a16.91,16.91,0,0,0-8.27,5.74c-2.27,2.87-4.32,5.78-6.37,8.5l-3.17,4.17q-1.59,2.13-3.11,4.31A96,96,0,0,0,729.83,887a11.88,11.88,0,0,1-2,3.29c-1.59,2.07-2.83,3.91-3.91,5.57a38.1,38.1,0,0,0-5.69,15.46,38.5,38.5,0,0,0-6.91,11c-2.65,6.55-5.1,13.18-7.3,19.89a6.8,6.8,0,0,1,.47-2.69c1-2.94,1.21-7.12,1-12-.33-6.81-3.38-12.32-3.21-14.47.38-5.34.84-9.83-.32-16.66-1.42-8.35-2.71-17.25-5.13-24.8-2.56-7.94-4.37-15-6.21-22.62-1.46-6-5.09-8.83-5.89-12.72a83,83,0,0,0-3.92-14.51l-2.31-5.91L676,810a57.66,57.66,0,0,0-6.44-11.9l-.31-.42-2.85-3.81-3.33,3.42a10.36,10.36,0,0,0-1.9,2.76,15,15,0,0,0-.91,2.35,15.56,15.56,0,0,0-.65,3.8,10.3,10.3,0,0,1-.55,3.31c-.38,1.06-.89,2.15-1.49,3.54-1.41,3.27-2.81,6.59-4,10s-2.24,6.86-3.19,10.36a193.36,193.36,0,0,0-4.44,21.3,14.63,14.63,0,0,0,.09,4.45c.3,1.81.13,2.59-.85,4.64-3.48,7.29-4.55,13.61-3.82,22.5a9,9,0,0,1-.45,4.62c-3.08,9.65-3.35,14.8-1.49,24.7a39.84,39.84,0,0,0-2.2,12.85c-.09,5.73,1.31,9.17,1.59,13.32.28,3.91-1.19,7.81-1,13.59l-3.3-6.33c-.91-1.76-1.81-3.44-2.72-5s-1.86-3-2.79-4.34a21.92,21.92,0,0,0-5.64-5.93,41.6,41.6,0,0,0-5-13.62,42.48,42.48,0,0,0-4.18-5.84,57.68,57.68,0,0,0-5.55-5.43c-.37-1.29-.74-2.53-1.15-3.7s-.89-2.26-1.38-3.32a40.24,40.24,0,0,0-3.36-6,41.28,41.28,0,0,0-4.68-5.44,54.59,54.59,0,0,0-6.38-5.51,25.11,25.11,0,0,0-1.46-4.16,19.16,19.16,0,0,0-3.11-4.86c-2.3-2.6-4.48-5.33-6.8-7.95s-4.74-5.18-7.17-7.69-5.11-4.77-7.73-7a97.84,97.84,0,0,0-8.4-5.89c-.5-.31-.94-.6-1.36-.91a7.19,7.19,0,0,1-1.26-1.07,57.11,57.11,0,0,0-4.11-4,29.5,29.5,0,0,0-4.29-3.27,47,47,0,0,0-8.95-4.32l-6.81-2.42,2.28,5.53c.4,1,.83,1.89,1.28,2.79l-.37.25.45.31a34.16,34.16,0,0,0,.2,12.18c1.65,9.46,3.11,19.37,5.51,28.21,2.25,8.08,3.67,15.06,5.21,23.14a177.42,177.42,0,0,0,7.1,26.37c2.89,8,5.06,14.93,7.33,23.11a158.68,158.68,0,0,0,9.47,25.59l.11.23a91.71,91.71,0,0,0-7.85-6c-7.36-5-13.9-9.31-21.31-14.09-7.1-4.58-15.43-8.21-23.36-11.77-4.71-2.13-9-3.5-12.21-3.59-2.15-.06-2.92-.51-4.75-2a40.23,40.23,0,0,0-4.34-3L488.86,935,490,943.2a35.73,35.73,0,0,0,7.41,17.29,7,7,0,0,1,2.05,4.81,22.73,22.73,0,0,0,1.3,5.29c.37,1,.79,2,1.26,3s1,2.13,1.6,3.21a26.81,26.81,0,0,0,2.7,4c1,1.18,1.95,2.21,2.84,3.13,1.82,1.83,3.4,3.17,4,4.45,2.37,4.62,3.86,8.66,8.45,13.71,5.78,6.4,12.2,12.83,19.23,17.33,5.32,3.44,10.47,6.44,15.61,9.55l.77.47h1.18c2,0,4,0,6,.13.21,0,.48,0,.72,0,5.35-.16,8.53-2,12.07-2a32.5,32.5,0,0,1,5.84.69c1,.17,2.05.34,3.2.45.57.06,1.18.09,1.8.12s1.19.06,1.86.07c2.23,0,4.76.24,7.32.25l7.22.1c4.8.06,9.56.09,14.16-.12a190.39,190.39,0,0,1,22.19.19,197.33,197.33,0,0,0,28.66-.29c8-.7,14.94-1,23-1.16a142.31,142.31,0,0,0,28-3.17c8.5-1.93,15.83-3.23,24.18-4.84a96.86,96.86,0,0,0,25-8.32c8.41-4.3,15.88-8.2,23.74-13.22l2.51-1.69.25-.17.42-.46A135.06,135.06,0,0,0,810,977.78c.11-.17.21-.35.31-.52l.29-.52a7,7,0,0,0,.45-1A6.46,6.46,0,0,0,811.39,973.29Z" style="fill:#ff3366;"/><path d="M749.29,512.36c0-.22-.16-.42-.19-.63a3.6,3.6,0,0,0,.12-.84c.08-2.55.39-5.26-.57-7.63a14.72,14.72,0,0,1-.93-3.12,10.07,10.07,0,0,1-.06-3.26,8.3,8.3,0,0,0-.42-3.09c-.3-1-.74-2-1-3a4.67,4.67,0,0,0-1.41-2.58,4.9,4.9,0,0,0-3.26-1.11,7.15,7.15,0,0,0,1.82-4,2.26,2.26,0,0,0-1.77-2.32c-2.31-.65-2.67-1.27-1.77-3.52s-1.12-3.55-4.93-3.86c1-1.67,1.39-3.3.4-4.67-1.5-2.07-2.8-4.46-4.93-5.86a13,13,0,0,1-4.3-4.38,12.68,12.68,0,0,0-6-5,10.5,10.5,0,0,1-5-3.46,5.9,5.9,0,0,0-1.11-1.08,12.23,12.23,0,0,0-1.36-.8c-.95-.49-1.93-.93-2.84-1.47a4.47,4.47,0,0,0-6.07.64c-.35-2.54-1.21-4-2.41-4.49s-2.8.18-4.63,1.83c-.46-2.47-1.68-3.87-3.11-4.11s-3,.54-4.27,2.34c-.41-1.39-.88-3.09-2.06-3.32-1.87-.28-3.74-.94-5.65-1.1a8.05,8.05,0,0,0-5.65,1.24c-.43.31-.66.13-1-.11-2.79-1.82-4-1.44-6,1.73-1.06-1.2-2.2-2.32-3.73-2.11-1.3.2-2.59.46-3.89.69s-2.57.57-3.85.89a3,3,0,0,0-2,2c-.32.84-.54,1.07-1.44.58a3.88,3.88,0,0,0-3.49-.49,4.15,4.15,0,0,0-1.87,3.08c-.23,1.12-.45,1.12-1.28.48a3.61,3.61,0,0,0-3.78-.51c-1.74.71-1.56,4.27-2.28,4.1-1.84-.46-3.59-1-5.11.09-.95.65-2,1.21-3,1.85a7.25,7.25,0,0,0-2.49,2.31,8.88,8.88,0,0,1-1,1.35,8.24,8.24,0,0,1-1.13,1.1,13.92,13.92,0,0,1-2.74,1.61c-1.62.75,0,3.82-1.27,4-.79.14-1.59.22-2.33.42a3.62,3.62,0,0,0-1.89,1.17c-.74.88-1.45,1.79-2.15,2.7s-1.4,1.82-2.07,2.76a2.47,2.47,0,0,0-.55,2.3c.34,1.08-.22,1.25-1,1.73-3.54,2.3-5.1,6.19-5.63,10.18a2.65,2.65,0,0,0,.79,1.58c.63.74.54.93-.4,1.19-1.7.46-2.66,1.15-3,2.07a2.72,2.72,0,0,0-.11,1.57,7.07,7.07,0,0,0,.85,2c.34.57.52.81-.22,1.22-3.26,1.87-3.45,3.45-.76,6.54-1.48.69-2.68,1.53-2.9,3.07s1.51,2.65,1.69,3.76c.09.54-.45,1-1,1.59a3.73,3.73,0,0,0-1.26,2c-.23,1.74,2.8,2.76,1.88,3.91a5.93,5.93,0,0,0-1.55,4.41c.06.85.23,1.7.33,2.54l.3,2.55a5.25,5.25,0,0,0,1,2.82,4.82,4.82,0,0,0,3.15,1.47c-3.72,3.55-3,6.15,1.9,7.34-3,3.93-2.14,6,3,7.07-1,1.15-1.89,2.55-1.33,3.62.42.84.84,1.68,1.22,2.55A19.69,19.69,0,0,0,613.8,551a8,8,0,0,0,4.28,3.76c.35.13.63.22.58.66-.37,3.36,1.8,4.56,5.11,4-.54,1.69-.61,3.15.4,4.2,1,.9,1.8,2,2.75,2.89a10,10,0,0,0,3.19,2.24,12.83,12.83,0,0,1,5.18,3.86,12.93,12.93,0,0,0,2.91,2.39,12,12,0,0,0,3.5,1.38,13.12,13.12,0,0,1,3.16,1,11.72,11.72,0,0,1,2.79,1.83,12,12,0,0,0,3.28,1.87,11,11,0,0,0,3.71.64,10.41,10.41,0,0,1,3.35.42,15.23,15.23,0,0,1,3.1,1.22,15.25,15.25,0,0,0,3.5,1.12,11.89,11.89,0,0,0,3.65,0,12.85,12.85,0,0,1,3.45-.22,15.16,15.16,0,0,1,3.39.62c2.26.65,4.72,0,7.07-.13a3.35,3.35,0,0,0,3.16-2.4c.4-1.08.63-1,1.35-.18,1.2,1.28,2.42,1.79,3.51,1.59s2-1.2,2.65-2.85c.41-1.1.66-1,1.36-.24a3.71,3.71,0,0,0,3.66,1.07c1.83-.46,2.06-4,2.91-3.68,1.6.47,3.24,1.58,4.86.75,2.06-1,4.46-1.6,6.08-3.22s3.22-3,5.61-3.36c.06,0,.11-.07.16-.11,1.24-.82.61-3.2,1.41-3.69s2.91.58,4.09-.47c1.94-1.76,4.36-3.18,5.61-5.49A11.83,11.83,0,0,1,732.6,558a12.22,12.22,0,0,0,4.63-6.3,12.74,12.74,0,0,1,3.18-5.39,13.58,13.58,0,0,0,2.22-3.18,10.33,10.33,0,0,0,1-3.7,13,13,0,0,1,2.3-6.26,13.51,13.51,0,0,0,1.41-3.29,11,11,0,0,0,.29-3.54,10.9,10.9,0,0,1,.13-3.65,17.59,17.59,0,0,1,1-3.48,12.54,12.54,0,0,0,.54-3.38C749.38,514.68,749.28,513.51,749.29,512.36Z" style="fill:#ff3366;"/><path d="M33.95,585.21a9,9,0,0,1,5.93-.08c2,.6,4.07,0,6.12,0a3.05,3.05,0,0,0,2.94-2.09c.46-1,.67-.89,1.21,0,1.82,2.87,3.85,2.84,5.59-.13.57-1,.77-.81,1.22.07a3.3,3.3,0,0,0,2.85,2c1.6.13,2.77-3.15,3.43-2.59,1.22,1,2.18,2.57,3.75,2.48,2-.12,4.05.39,5.95-.26s3.76-1,5.66,0c.05,0,.11,0,.17,0,1.27,0,2-2.31,2.86-2.21s1.75,2.2,3.1,2.13c2.24-.12,4.55.45,6.7-.23a7.67,7.67,0,0,1,5.23,0,10.86,10.86,0,0,0,6.78.06,8.61,8.61,0,0,1,5.48,0,10.31,10.31,0,0,0,6.72-.07,9.21,9.21,0,0,1,5.91-.18,11.58,11.58,0,0,0,3.19.28,9.17,9.17,0,0,0,3.1-.76,11,11,0,0,1,6.47-.7,9.65,9.65,0,0,0,3.1-.19l.77-.16c.22,0,.58-.13,1-.24a11.23,11.23,0,0,0,1.6-.55,7.94,7.94,0,0,0,2.24-1.44,6.41,6.41,0,0,0,1.39-2.18,6.31,6.31,0,0,0,.63-1.56,6,6,0,0,0,.16-2,7.15,7.15,0,0,0-1.33-3.59,8.7,8.7,0,0,0-1.75-1.8,10.19,10.19,0,0,0-3.17-1.67c-.26-.09-.55-.16-.83-.23l-.44-.08-.22,0-.13,0c-.33,0-.65-.06-1-.08a7,7,0,0,0-1.92.14,11.85,11.85,0,0,1-6.23,0c-1.84-.57-3.68.18-5.28.1s-2.66.45-4,3.07c-1.09-3.39-1.5-4.81-3.22-3.49-.82.58-1.44.83-1.8.6s-.48-.83-.45-1.89c-.12-2.24-2.31-2.47-5.74-1,.18-1.87-.09-3.52-1.55-4.29-2.19-1.13-4.53-2.69-7.28-2.75a36.43,36.43,0,0,1-6.85-.85,10.24,10.24,0,0,0-4.84.3,10.1,10.1,0,0,0-4.19,2.5c-1,.92-1.61,1.7-2.34,2.3a5.93,5.93,0,0,1-2.36,1.27,5,5,0,0,0-1.83,1l-.06,0c-.45-.43-1.06-.92-1.81-1.52,2.41-.53,3.64-1.55,3.81-3a4.48,4.48,0,0,0-2.8-4.21,5.86,5.86,0,0,0,1.84-1.46,3.26,3.26,0,0,0,.56-1,2.7,2.7,0,0,0-.06-1.29,11.92,11.92,0,0,0-.79-2.12,11.56,11.56,0,0,0-1.16-2,12.58,12.58,0,0,0-1.49-1.72,14.44,14.44,0,0,0-1.72-1.33,7.44,7.44,0,0,0-7.25-.66c-.52.28-.76.08-1.18-.17a7.28,7.28,0,0,0-2.18-.88,3.38,3.38,0,0,0-1.76.13A3.64,3.64,0,0,0,59.08,544a8.18,8.18,0,0,0-1.1,2.22,6.8,6.8,0,0,0-2.33-.86,3.5,3.5,0,0,0-2.39.57,38.82,38.82,0,0,0-5.9,5.37,2.65,2.65,0,0,0-.5,2.58c.21.84.18,1.15-.8,1.12-3-.09-3.79,1-3,4,.28,1,.06,1.12-.84.68a4.43,4.43,0,0,0-1.76-.5,2.72,2.72,0,0,0-1.22.24c-.29.13-.35.59-.38,1.14a2.09,2.09,0,0,0-.48-.78,1.82,1.82,0,0,1-.36-1.72,4.76,4.76,0,0,1,1.13-2c.88-.92-2-2.81-.92-3.36,1.28-.65,2.68-1,3.18-2.23.72-1.75,1.59-3.56,2.46-5.48a2.31,2.31,0,0,0,0-2.23c-.55-1,0-1.2.59-1.82a9.55,9.55,0,0,0,2.79-5.55,13,13,0,0,0-.81-6.53,2.4,2.4,0,0,0-1.47-1c-.94-.33-1-.51-.31-1.28,2.22-2.74,1.36-5.31-2.18-6.27-.67-.19-1-.18-.94-1.1.11-2.07-.61-3.56-1.82-4.29s-3-.69-5,.37a5.69,5.69,0,0,0-1.56-2,4.35,4.35,0,0,0-2.75-.77,3.36,3.36,0,0,0-2.27,1.29,6.42,6.42,0,0,1-1.43,1.57c-.91.6-2.78-1.07-4.36-.45s-1.08,3.74-2.47,3.49a5.49,5.49,0,0,0-4.4.71c-1.29.94-2.51,1.93-3.8,2.8-1.64,1.11-2.56,2.67-1.49,5.44-4.68-1.83-6.34-.38-5.37,4.4a12.42,12.42,0,0,0-2.4-.53L1,534.48c-1.89,1.9-1.14,3.38,2.31,5.59-1.35.6-2.78,1.38-2.72,2.44.18,3.28-1.12,6.76,1.47,9.78.23.26.39.47.11.77C0,555.36,1,557.19,4,558.6c-1.49.92-2.47,1.87-2.37,3.14.19,2.29-.22,4.72.74,6.82a8.68,8.68,0,0,1,.53,5.63,10.84,10.84,0,0,0,.41,5.57L5,584.65l2.77,0c.36,0,.72,0,1.06-.06a12,12,0,0,1,6.27.71,9.65,9.65,0,0,0,6.76.12,8.81,8.81,0,0,1,5.81-.09A10.73,10.73,0,0,0,33.95,585.21Zm3.81-24.37h0S37.76,560.82,37.76,560.84Zm38.09,3.72h0Zm-.62,2a3.18,3.18,0,0,1,.57-.39l.06,0c-.12.13-.26.27-.42.41a5.13,5.13,0,0,1-.72.56A3.59,3.59,0,0,1,75.23,566.54Zm-37.12-5.48a2.94,2.94,0,0,1,.32-.2l.38-.2.09,0h0c0,.2,0,.4,0,.61,0,.81-.14,1.54-.36,1.32a2.88,2.88,0,0,1-.71-1.26l.08-.07Z" style="fill:#fff;"/><path d="M144.28,771.52a8.13,8.13,0,0,0-1.32-1.77,33.27,33.27,0,0,1-4.74-4.9c-1.28-1.7-3.56-2.17-5.44-2.92s-4-.43-5.22,2.2c-1.52-3.34-3.92-4.36-5.1-2.31s-1.64,2.07-3.26.54-3-.09-4,3.27c-1.09-1.47-2.22-2.49-3.38-2.17-1.77.48-3.57.39-5,1.3a4,4,0,0,1-1.79.68,3.11,3.11,0,0,1-.81,0,4.47,4.47,0,0,1-.84-.32,6.14,6.14,0,0,0-4.09-.65c-1.22.24-2.24-.12-2.57-1.28a2.55,2.55,0,0,0-.29-.62,5.38,5.38,0,0,0-.4-.39,2.26,2.26,0,0,1-.4-.33c-.11-.12-.24-.23-.25-.39-.13-.61-.8-.63-3.61-1.13,2.13-.91,3.26-1.19,3.36-1.81s-.79-1.49-2.58-3c2.41-.12,3.62-.67,3.89-1.66s-.43-2.36-2-3.7c1.4-.05,3.1-.1,3.44-1.08a19.21,19.21,0,0,0,1.48-5.62,7.8,7.8,0,0,0-.72-3.67A5.7,5.7,0,0,0,96,737c-.56-.27-.58-.56-.69-1.06a6.13,6.13,0,0,0-1.11-2.31,3.79,3.79,0,0,0-1.73-1.16,4.26,4.26,0,0,0-4.16,1.46,8.2,8.2,0,0,0-.75-1,4.83,4.83,0,0,0-.9-.79,3,3,0,0,0-2.3-.5,22,22,0,0,0-7.16,3.1,2.5,2.5,0,0,0-1,2.4c.06.86,0,1.15-1,1a4.64,4.64,0,0,0-1.93.05,1.68,1.68,0,0,0-1,.57c-.44.57-.41,1.55,0,3,.32,1,.12,1-.76.61-1.35-.68-2.23-.61-2.92-.2-.47.26-.38,1.18-.31,2s.14,1.58-.15,1.44c-.71-.32-1.32-.79-1.82-1.07s-.86-.51-1.12-.4a1,1,0,0,1-.46.07c-.13-.06-.26,0-.36-.11a.89.89,0,0,0-.32,0,1.09,1.09,0,0,0-.42.24c-.76.62-1.27,0-1-1,.08-.35-.61-.21-1.33-.15s-1.42,0-1.18-.39c.65-1.05,1.59-1.82,1.41-2.59a10.67,10.67,0,0,1-.21-3.57,1.49,1.49,0,0,0-.7-1.42c-.79-.6-.36-.86.11-1.35a7.32,7.32,0,0,0,2-4,12.66,12.66,0,0,0-.28-5c-.1-.4-.71-.81-1.26-1.08-.86-.43-.83-.58-.05-1.1,1.38-.94,2-2,1.94-3A3.43,3.43,0,0,0,60.58,717c-.59-.25-.87-.31-.47-1a5.25,5.25,0,0,0,.71-2.13,2.25,2.25,0,0,0-.34-1.57c-.63-.83-1.88-1.34-3.91-1.27.5-1.52.48-3.06-.77-4.16a2.79,2.79,0,0,0-2.19-.44,5.52,5.52,0,0,1-1.95.21c-.5-.13-.75-.73-1.1-1.46A3.13,3.13,0,0,0,49,703.44c-.83-.33-1.65.26-2.32.76s-1.2.93-1.67.43a4.7,4.7,0,0,0-3.89-1.84c-1.55.14-3,.42-4.51.64a3.35,3.35,0,0,0-3.15,3.2l-2.13,4.06a8.57,8.57,0,0,0,1.07.06c-3.67,3.15-3.2,4.84,1.42,5.65-3.38,3.17-3,4.54,1.75,5.62-1.18.86-2.39,1.88-2.13,2.72.85,2.63.31,5.78,3.45,7.58.27.16.47.29.25.61-1.66,2.45-.35,3.7,2.78,4.14-1.27,1.13-2,2.15-1.7,3.18.61,1.84.65,4,2,5.46a6.24,6.24,0,0,1,1.51,4.53,7.82,7.82,0,0,0,1.85,5.17,6.09,6.09,0,0,1,1.6,4.61A7,7,0,0,0,47,765.15a6.36,6.36,0,0,1,1.71,4.61,7.84,7.84,0,0,0,1.86,5,6.64,6.64,0,0,1,1.8,4.73c0,1.5.84,2.79,1.45,4.13l1.68,3.66,3.37-.13c.29,0,.58,0,.87,0,1.07,0,2-.49,2.61-2,.41-1,.59-.88,1,0,1.55,2.89,3.36,2.86,4.81-.12.48-1,.65-.82,1,.06a2.87,2.87,0,0,0,2.49,2c1.38.11,2.28-3.2,2.86-2.65,1.08,1,1.89,2.53,3.31,2.4,1.77-.16,3.66.3,5.3-.39s3.23-1.09,5.07-.15c0,0,.1,0,.15,0,1.16,0,1.46-2.34,2.2-2.26s1.93,2.12,3.13,2c2-.19,4.26.27,6-.5a6.51,6.51,0,0,1,4.71-.24,9.08,9.08,0,0,0,6.06-.34,7.05,7.05,0,0,1,4.83-.33,8.87,8.87,0,0,0,5.89-.36c1.45-.79,3.08-.69,5.16-.3a8.62,8.62,0,0,0,5.39-.41c1.47-.8,3.31-.7,5.56-.36a19.23,19.23,0,0,0,5.33-.3c.16,0,.21-.15.35-.19a7.08,7.08,0,0,0,1.5-2.24,8.92,8.92,0,0,0,.5-1.58c.06-.27.1-.53.13-.78s.06-.57.06-.6l0-1.23a10.89,10.89,0,0,0-.26-2.44A10.44,10.44,0,0,0,144.28,771.52Z" style="fill:#fff;"/><path d="M825.76,784.69a13.5,13.5,0,0,0-.42-1.44c-.08-.22-.17-.43-.26-.64a5.31,5.31,0,0,0-.74-1.17,5.6,5.6,0,0,1-1.54-4.4c.14-1.57-1-2.85-1.39-4.31s-1.47-2.45-4.33-2.28c2.49-2.43,3-4.42.8-4.84s-2.32-.94-1-2.66-.25-2.66-3.69-3.14c1.33-1.24,2.22-2.46,1.74-3.59-.72-1.7-1-3.65-2.29-5a6,6,0,0,1-1.77-4.05A7.85,7.85,0,0,0,808.5,742a5,5,0,0,1-1.8-4c0-1.58-1.2-2.76-1.7-4.19s-1.7-2.47-4.53-2a12.77,12.77,0,0,0,1.26-1.77l.74-1.3-8.14.76c-2.87.27-3.39,2.33-1.17,5.08a1.61,1.61,0,0,0,0,.37c-2.29,0-3.59.86-3.86,2s.51,2.54,2.23,3.75c-1.4.2-3.08.45-3.3,1.4-.65,2.95-2.38,5.44-.37,8.18.24.34,0,.45-.26.62a8.54,8.54,0,0,0-1.21.85,1,1,0,0,0-.35.76,2,2,0,0,0,.51,1c.3.37.74.82,1.3,1.44-.69,0-1.41-.07-1.94-.05s-.93,0-1.07.27a3.51,3.51,0,0,1-.8.9,4.91,4.91,0,0,1-1,.58c-.13,0-.2.19-.26.46a6.67,6.67,0,0,0-.17,1.06c-.08.75-.27.93-.64.23-.57-1.14-.86-1.67-1.29-1.63s-1,.69-1.82,1.86c-.61.83-.75.68-.76-.29,0-1.48-.35-2.17-1-2.57-.43-.26-1.2.21-1.91.66s-1.36.87-1.39.54c-.16-1.6,0-3.09-1.12-3.74-1.38-.78-2.5-2.37-4.38-2.6a8,8,0,0,1-4.74-2.57c-.59-.55-1.45-.12-2.16.35s-1.31,1-1.69.49c-.91-1.2-2-2.5-3.62-2.47a20.29,20.29,0,0,0-6.81,1.32,2.18,2.18,0,0,0-1.57,1.65c-.18,1.07-.68.94-1.52,1a7.91,7.91,0,0,0-4.73,2.11,11.11,11.11,0,0,0-2.66,4c-.15.33.12,1,.38,1.54.41.83.29.94-.58.74-3.13-.68-4,.22-3.24,3.07.15.56.24.83-.49.74-3.27-.38-3.63.29-2.65,3.77-1.38-.5-2.56-.85-3.26-.29s0,2.3-.44,2.93c-.2.3-.75.06-1.32-.21s-1.17-.63-1.55-.49-.4.91-.48,1.57-.21,1.29-.67.92c-1.09-.85-1.74-1.45-2.52-1.3a9.8,9.8,0,0,1-2.79.07c-1.27-.18-2.56.3-3.61,3-.73-2.29-1.53-3.49-2.49-3.6s-2.11.85-3.27,2.91c-1-2.11-2.12-3.12-3.24-3a3.12,3.12,0,0,0-1.87,1.05,7.06,7.06,0,0,0-1.38,2.83,6.69,6.69,0,0,0-1.64-1.46A1.86,1.86,0,0,0,700,771a21.33,21.33,0,0,0-4.84,3,6.46,6.46,0,0,0-2.21,5.77c.08.43.14.73-.26,1a4.12,4.12,0,0,0-1.54,2.05,4,4,0,0,0,0,2.37,3.81,3.81,0,0,0,1.39,1.84,4.72,4.72,0,0,0,2.29.8,3.52,3.52,0,0,0,.67,4.66c2.65,2.08,5.45,3.33,7.8,2.92a9.93,9.93,0,0,1,5.41.33,7.91,7.91,0,0,0,5.5-.12,6.1,6.1,0,0,1,4.89,0,7.07,7.07,0,0,0,5.5-.1,6.45,6.45,0,0,1,4.94-.09,8.05,8.05,0,0,0,5.39-.08,6.86,6.86,0,0,1,5.1-.1c1.84.57,3.53,0,5.29,0,1.05,0,1.8-.54,1.93-2,.08-1,.3-.84,1,0,2.42,2.72,4.26,2.64,4.71-.14.15-.92.37-.76,1.07.06a4.47,4.47,0,0,0,3.17,1.82c1.45.1,1.18-2.92,1.95-2.41,1.44.94,2.9,2.32,4.22,2.21,1.67-.13,3.69.29,5-.31a5.65,5.65,0,0,1,4.89-.09c.06,0,.1,0,.15,0,1.13,0,.57-2,1.34-1.93s2.64,1.84,3.77,1.75c1.89-.14,4.24.26,5.7-.38a6.9,6.9,0,0,1,4.5-.16,9.79,9.79,0,0,0,5.78-.22,7.58,7.58,0,0,1,4.59-.21c2.26.42,4.4.4,5.61-.22s2.8-.5,4.92-.18a9.7,9.7,0,0,0,5.12-.25c1.22-.59,3-.49,5.31-.2a23,23,0,0,0,5.1-.15c.16,0,.17-.11.29-.14a5.15,5.15,0,0,0,.29-1.09A16.15,16.15,0,0,0,825.76,784.69Z" style="fill:#fff;"/><path d="M818.51,522.24a4.54,4.54,0,0,0-.64-1.91,7.11,7.11,0,0,0-1.7-1.84,3,3,0,0,0,.19-3,19.74,19.74,0,0,0-1.64-2.52,13.6,13.6,0,0,0-1-1.12,8.35,8.35,0,0,0-1.11-1,8.52,8.52,0,0,0-5.37-2,1,1,0,0,1-.85-.22,4.58,4.58,0,0,0-6.18,0A3.91,3.91,0,0,0,797,507.4a24.36,24.36,0,0,0-7.08,1.28,20.48,20.48,0,0,1-5.61,1.41,22,22,0,0,0-3.26.73,21.26,21.26,0,0,0-3.07,1.29,19.7,19.7,0,0,1-5.52,2.08,16.92,16.92,0,0,0-6.06,2.7,19.43,19.43,0,0,1-2.57,1.55c-.87.42-1.77.79-2.73,1.17a18.62,18.62,0,0,0-2.95,1.39,15.44,15.44,0,0,0-2.65,1.87,22.66,22.66,0,0,1-5.11,3.38,17.44,17.44,0,0,0-3.19,2.18,4.76,4.76,0,0,0-.78-1.27c-.55-.63-.5-.82-.16-1.44a2.81,2.81,0,0,0,.2-1.82c0-.18-.07-.36-.12-.54s-.16-.38-.26-.57-.2-.39-.32-.58a6.3,6.3,0,0,0-.45-.55,3.34,3.34,0,0,0-1.54-1,4.15,4.15,0,0,0-1.48-.17c-.87.05-1.47.3-1.82.06l-1-.54-.24-.14-.12-.07a.41.41,0,0,0-.19-.06c-.2,0-.41-.06-.53-.08l-.4,0a5.2,5.2,0,0,0-2.47.35,30.23,30.23,0,0,0-5.63,2.67,14.34,14.34,0,0,1-5.16,2.61.8.8,0,0,0-.15.08c-1.16.58-1.3,2-2.07,2.35s-2.07-.14-3.25.55a44.82,44.82,0,0,0-6,3.53,17.64,17.64,0,0,1-4.6,2.8c-.44.19-.89.41-1.33.64,0-.4,0-.81,0-1.23a12.18,12.18,0,0,0-.57-3.84,7.27,7.27,0,0,0-2.9-3.93,6.49,6.49,0,0,0-2.49-.93,6.77,6.77,0,0,0-2.29,0,10.25,10.25,0,0,0-1,.2l-.92.29c-.64.19-1.12.45-1.73.68a13.15,13.15,0,0,0-5.21,4.38,32.36,32.36,0,0,1-4.33,5,18.27,18.27,0,0,0-2.56,3.38l-.8-1.69a2.94,2.94,0,0,0-.55.15,5.49,5.49,0,0,1-2.22.33,21.17,21.17,0,0,1-2.35-.35,27.57,27.57,0,0,1-5.58-2,19.3,19.3,0,0,0-5.88-.95c-2-.18-3.73.21-4.7,1.66-1.86-1.48-4.27-1.67-5.56-.38a3.09,3.09,0,0,1-3.58,1.08,3.08,3.08,0,0,0-2.49.67,6.43,6.43,0,0,0-2.1,3,3.48,3.48,0,0,0-1.94.41,4.06,4.06,0,0,0-1.77,2.09,5.7,5.7,0,0,0-.32,3.33,6,6,0,0,0,.31.92,9.24,9.24,0,0,0,.46.81,6.18,6.18,0,0,0,1.09,1.17,7.34,7.34,0,0,0,2.16,1.24,8.21,8.21,0,0,0,2,.49,53.13,53.13,0,0,1,5.8.85,18.64,18.64,0,0,0,7.08.08c.47-.09.93-.16,1.36-.22s.86-.1,1.33-.12a16.27,16.27,0,0,1,2.76.06c1.78.19,3.66-.33,5.4-.37s3.28-.35,4.36-1.64c2.08,2.39,4.26,2.65,6.77.76a4.53,4.53,0,0,0,6.92.62,3.34,3.34,0,0,0,2.27,1.59c3.37.2,7,.92,10.27-.71a1.13,1.13,0,0,1,.95,0c2.47.65,3.33.45,5.26-1.17a4.78,4.78,0,0,0,3,1.15c2.23-.06,4.49,0,6.75,0a3.57,3.57,0,0,0,2.17-.63,1,1,0,0,1,1.37,0,4.18,4.18,0,0,0,5.31-.16c.59-.47.79-.41,1.23.06a4.07,4.07,0,0,0,2.87,1c1.64.08,3-1.58,3.52-1.33a7.24,7.24,0,0,0,4,1.1c2-.17,4.13,0,6-.46a13.39,13.39,0,0,1,5.54-.27c1.46.2,2.29-1.51,3.24-1.18a8.37,8.37,0,0,0,3.6.81c2-.15,4-.27,6-.38a3.38,3.38,0,0,0,1.91-.54c.6-.47,1-.3,1.75-.16a24.78,24.78,0,0,0,10.24-.46,2.08,2.08,0,0,0,1-.71c.38-.45.58-.46,1.12-.09,1.94,1.28,3.48,1.24,5.48-.18a.88.88,0,0,1,1.11-.17c2.52,1.1,3.83.83,5.92-1.14a4.6,4.6,0,0,0,3.37.53c1.41-.35,2-1.44,2.93-1.89a3.35,3.35,0,0,1,1.61-.08,4.21,4.21,0,0,0,2-.17c1.55-.58,1.75-2.39,2.92-2.5a7.28,7.28,0,0,0,3.93-1.58,20.39,20.39,0,0,0,1.89-1.75l.88-.93c.28-.32.54-.65.81-1,1.39-1.64,2-3.5,1.18-5,3.07-1.29,3.92-4,2.15-6.94a5.57,5.57,0,0,0,1.29-1.81A3.71,3.71,0,0,0,818.51,522.24ZM684.4,542.95Z" style="fill:#fff;"/></g></g></svg>
