<svg xmlns="http://www.w3.org/2000/svg" viewBox="0 0 1010.38 1219.52"><title>noComments</title><g id="Layer_2" data-name="Layer 2"><g id="Layer_1-2" data-name="Layer 1"><path d="M928.17,1032.89a78.24,78.24,0,0,0-5.45-23.93c-1.39-3.38-2.85-6.59-4.47-9.65-.77-1.55-1.65-3-2.47-4.52s-1.72-2.94-2.66-4.35c-1.8-2.89-3.81-5.63-5.88-8.4s-4.4-5.45-6.89-8.14a67,67,0,0,0-16-12.4,93.58,93.58,0,0,0-19.22-8,51.58,51.58,0,0,0-18.95-2,32.27,32.27,0,0,0-4.06.57l-1.89.38c-.61.16-1.2.34-1.78.52a34,34,0,0,0-3.25,1.16q-1.51.69-2.79,1.45A55.63,55.63,0,0,0,813,958a57.16,57.16,0,0,0-16,7.54,64.86,64.86,0,0,1-10.51,6.31A50.58,50.58,0,0,1,775,975.33a103.84,103.84,0,0,0-15,4.52c-5.48,2-11.52,4.23-18.6,6.08-5.43-1.45-11.58-2.83-21-4.89a95.6,95.6,0,0,1-20.82-7.85,196.88,196.88,0,0,1-19-11.41c-1.31-.89-2.58-1.79-3.84-2.68l-3.64-2.76-3.47-2.85c-1.11-1-2.17-2-3.25-3s-2.18-2-3.17-3.06l-3-3.28-1.5-1.67-1.4-1.79L654.47,937a182.55,182.55,0,0,1-12-19.43,203.4,203.4,0,0,1-9.51-20.92l-1.65-4.34-1.39-4.3c-1-2.82-1.63-5.68-2.35-8.52s-1.2-5.75-1.75-8.7-.88-6-1.14-9.2c-1.07-11.7-2.87-24.9-3.3-37.58-.46-13.42-1.22-24.87-4.08-32.17,4.14-16.94,4.1-32.08-.82-48a64.39,64.39,0,0,0,1.84-12.44c.1-2.21.12-4.45.07-6.7s-.25-4.47-.47-6.67a97.73,97.73,0,0,0-2.07-12.5,56.32,56.32,0,0,0-3.45-10c.4-2.2.86-4.51,1.12-7.19a43.51,43.51,0,0,0-.3-9.38l-1.12-8.72-1.27-8.74-1.27-8.76c-.47-2.91-1-5.81-1.54-8.7s-1.09-5.77-1.67-8.64-1.33-5.69-2-8.5a148,148,0,0,0-5.07-16.44,24.73,24.73,0,0,1-1.44-6.25c-2.62-17.16-4.94-23.76-12.34-36.58a73.56,73.56,0,0,0-1.49-9.51,85.33,85.33,0,0,0-3.45-11.62l-4.68-11.25-2.34-5.62-2.57-5.53-5.16-11-5.64-10.82a58.17,58.17,0,0,0-8.71-12.78c-2.36-2.56-3.36-4.1-5.08-8.31q-2.07-4.77-4.42-9.08-1.17-2.16-2.41-4.2c-.42-.68-.83-1.36-1.26-2L536.8,464a86.78,86.78,0,0,0-5.9-7q-1.54-1.65-3.15-3.19-.8-.77-1.63-1.51c-.58-.49-1.17-1-1.76-1.42a19.53,19.53,0,0,1-3.5-3.25,15.52,15.52,0,0,1-2.14-3.51c-2.23-4.66-6.87-10.14-13.13-15.74-1.08-1-2.18-1.87-3.28-2.71s-2.25-1.56-3.35-2.27a62.88,62.88,0,0,0-6.32-3.56l-2.76-1.4-2.4-1.15a14.58,14.58,0,0,1-3.23-2c-3.34-3-6.42-5.76-10-8.41-.89-.67-1.8-1.36-2.76-2s-2-1.3-3-2-2.14-1.34-3.31-2-2.4-1.29-3.71-2c-3.17-1.66-6.46-3.19-9.71-4.82s-6.58-3.12-9.91-4.51a158.6,158.6,0,0,0-19.68-7.19l-9.83-2.78-9.41-2.71-9.26-2.7c-3.1-.84-6.2-1.81-9.38-2.67-9.94-2.79-17-.63-23.36-2.41-8-2.19-14.81-4.23-24.75-5-7.12-.51-14.26-.82-21.43-.87-3.59.08-7.19.07-10.78.22l-5.38.31c-1.79.09-3.59.2-5.37.4-2.54.25-5.07.53-7.4.9a47.17,47.17,0,0,0-6.22,1.57,30.74,30.74,0,0,1-3,.87,28.51,28.51,0,0,1-2.83.59c-1.9.3-3.91.46-6.46.73a178.33,178.33,0,0,0-35.43,8.27,251.29,251.29,0,0,0-33.63,14.38,27.84,27.84,0,0,0-6,4.27c-2.22,2-3.45,2.56-7.08,3.52a80.17,80.17,0,0,0-9.13,2.88,53.05,53.05,0,0,0-8.39,3.92q-2.07,1.2-4.12,2.53c-1.36.9-2.61,2-3.92,3.07s-2.64,2.19-3.87,3.48-2.47,2.65-3.73,4.07c-1,1.1-1.66,1.89-2.45,2.72a21.45,21.45,0,0,1-3.38,2.68c-.89.61-1.77,1.18-2.58,1.79l-2.3,1.84c-1.48,1.21-2.88,2.38-4.19,3.55s-2.4,2.42-3.51,3.63a41.75,41.75,0,0,0-3.12,3.7c-.95,1.29-1.86,2.6-2.75,4q-.67,1-1.32,2.08c-.42.72-.81,1.47-1.21,2.23-.8,1.53-1.59,3.13-2.4,4.83s-1.5,3.56-2.29,5.51c-1.06,1.09-2.17,2.18-3.2,3.4s-2.08,2.51-3.15,3.92q-.8,1.06-1.62,2.22c-.54.78-1,1.61-1.59,2.48-1.06,1.74-2.18,3.64-3.29,5.77A66.84,66.84,0,0,0,103.1,487l-1.49,4.95c-.47,1.62-1,3.22-1.61,4.85-2.37,6.25-6.92,11.47-10.39,20.84a59.34,59.34,0,0,0-2.06,7c-.49,2.19-.91,4.22-1.15,6.19-.55,3.92-1.07,7.37-2.56,10.71-.95,2-1.72,4.06-2.47,6.08s-1.48,4.06-2.18,6.14a109.34,109.34,0,0,0-3.59,13.42c-.53,2.59-1.17,5.16-1.6,7.76l-1.39,7.8c-1,5.19-1.72,10.41-2.54,15.61l-.72,4.87c-.19,1.59-.33,3.16-.47,4.69-.27,3.05-.45,6-.51,8.66a51.91,51.91,0,0,0,.33,7.48,31.52,31.52,0,0,0,1.21,6,79.19,79.19,0,0,0-3.29,12,69.21,69.21,0,0,0-1.42,11.78,85.39,85.39,0,0,0,.4,12,117.73,117.73,0,0,0,2.25,12.66,106,106,0,0,0-2.2,12.13c-.23,1.92-.42,3.82-.49,5.7s-.07,3.77,0,5.67c.21,7.6,1.67,15.53,4.32,25.44A45.79,45.79,0,0,0,67.79,744c.93,11.49,1.62,23,2.37,34.38a325.31,325.31,0,0,0,3.63,33.69,19,19,0,0,1,.39,5.4c-1.38,15.22.32,28.29,4.06,39.61a69,69,0,0,0-.85,20.79c1.49,16,2.9,32.82,6.08,47.88,2.93,13.77,5.1,25.55,7.81,39.16a215.31,215.31,0,0,0,13.75,44c5.8,13.07,10.94,24.28,17.37,37.2A160,160,0,0,0,149,1084c10.13,10.55,19,19.49,29.68,29.06a179.94,179.94,0,0,0,37.12,25.64c13.23,6.69,25,12.32,38.44,18.36,12.85,5.77,27.51,9.93,41.67,13.59a108.36,108.36,0,0,0,11.77,2.37,47.11,47.11,0,0,0,9.4.34c3.51-.39,4.94,0,8.5,1.57a76,76,0,0,0,39.4,5c4.26-.62,5.6-.4,8.65.72,4.83,1.74,11.66,2.62,19.78,3.2,11.23.77,20-2,24.58-1.25,8.43,1.47,15,3.33,26,3.73,14,.5,28.56,1.55,42,1.29,13.86-.27,26.68-.35,40,.81.36,0,.8,0,1.2,0,9,.14,14.53-2.21,20.47-2.1,6.81.1,12.15,2.19,21.67,2,16.07-.31,32.69-.22,48.09-1.61,13-1.2,24-1.88,37.21-2.22a360.61,360.61,0,0,0,47.79-4.57c13.29-2.2,24.74-3.81,38.12-5.33,7.51-.87,15.44-2,23.28-3.51a204.35,204.35,0,0,0,22.85-5.61l19.86-6.16c3.22-1,6.4-2,9.66-3s6.53-2.11,9.89-3.3,6.76-2.46,10.2-3.81,6.85-2.92,10.2-4.59a142.44,142.44,0,0,0,19-11c6.51-4.47,12.53-8.9,18.35-13.57a181.35,181.35,0,0,0,16.9-15.24A96.63,96.63,0,0,0,914,1087.46a106.42,106.42,0,0,0,9.4-20.24c.45-1.34.71-2.63,1.1-3.9l-5.1-1.56h0l5.1,1.56c.53-1.68,1.14-3.43,1.54-5.31A83.71,83.71,0,0,0,928.17,1032.89Z" style="fill:#f2d525;"/><path d="M686.15,1113.44a29.16,29.16,0,0,0-4.76-9.48,14.29,14.29,0,0,0-6.65-5,22.16,22.16,0,0,0-5.5-9.87,17.45,17.45,0,0,0-8.94-5.13c-1.48-.26-2.72-.54-3.86-.78a26.26,26.26,0,0,1-3.1-1,24.21,24.21,0,0,1-2.87-1.44c-.49-.29-1-.61-1.52-1s-1.09-.71-1.69-1.13c-4.7-3.29-12.1-3.68-20.44-1.5a21.75,21.75,0,0,0-12.13-3.84c-8.55-.4-17.21-1-25.18-.81a74.27,74.27,0,0,1-9.87-.31c-1.59-.15-3.16-.39-4.75-.66s-3.17-.73-4.81-1.16c-3.88-.86-7.85-2.23-11.91-3.17-2-.61-4-1.23-6-1.77-1-.28-2-.51-3-.81s-1.94-.62-2.9-.9c-1.62-.48-3.18-1-4.69-1.48s-2.93-1.21-4.36-1.85-2.83-1.35-4.24-2.11-2.75-1.74-4.16-2.71-2.69-1.7-4.07-2.61-2.83-1.76-4.29-2.62l-2.2-1.29c-.73-.43-1.44-.92-2.16-1.38-1.43-.93-2.85-1.88-4.22-2.85s-2.83-2-4.2-2.95a40.34,40.34,0,0,0-4-2.37,18.87,18.87,0,0,0-7.45-2.45c-.54-1.13-1.12-2.18-1.7-3.2a32.28,32.28,0,0,0-1.82-2.9,27.26,27.26,0,0,0-4.26-4.74,30,30,0,0,0-11.44-6.18,25.21,25.21,0,0,0-3-6.31,30,30,0,0,0-4.49-5.48,25.21,25.21,0,0,0-10.75-6.61c-.61-2.58-1.14-5.46-3.78-8.37-8.35-9.25-15.77-19.86-25.78-27.15a7.23,7.23,0,0,1-2.23-2.63,39,39,0,0,0-6.6-8.8,31.07,31.07,0,0,0-8.62-5.4,26.67,26.67,0,0,0-6.35-10.06l-4.76-4.55-2.38-2.28-2.45-2.22-4.9-4.42-5-4.29c-.62-.53-1.24-1-1.86-1.46s-1.27-.82-1.89-1.16a18.78,18.78,0,0,0-3.61-1.57,6.92,6.92,0,0,1-4.28-3.1,27.86,27.86,0,0,0-7.79-7.44,22.44,22.44,0,0,0-9.43-3.39c-2.4-.31-3-.78-4-2.46a13.75,13.75,0,0,0-3.5-3.6,39.51,39.51,0,0,0-5.27-3.34c-5.6-2.91-11.78-1.83-13.36-3.06-4-2.94-7.34-5.61-13.4-7.43-7.42-2.2-15.17-4.9-22.35-5.67a127.51,127.51,0,0,1-20.82-4.08c-5.36-1.43-9.31,1.32-12.72.05-4.25-1.52-7.82-3.22-13.12-3.76l-5.7-.62-5.71-.54c-3.8-.4-7.61-.68-11.42-1a21.21,21.21,0,0,0-7.4.36c-2.43.73-4,.22-6.66-.28-12.71-2.43-26-2.23-39-.9a10.2,10.2,0,0,0-3.89,1.42c-1.52.9-2.25.91-4.25.18a27.14,27.14,0,0,0-10.08-1.74,32.14,32.14,0,0,0-10.5,2.41,5.63,5.63,0,0,1-4.17.45,50.71,50.71,0,0,0-6.14-1,24.64,24.64,0,0,0-5.21.12,26.25,26.25,0,0,0-5.08,1.22,52.46,52.46,0,0,0-5.72,2.5,33.39,33.39,0,0,0-5.23-1.09,30.36,30.36,0,0,0-6.41-.07c-5.1.45-8.06,2.54-11.78,3.27-3.56.72-7.43-1-13,0a15.91,15.91,0,0,0-3.53,1.15l-4.9,2.16,1,3.49c1.06,3.72,3,6.37,2.54,9.45a52.85,52.85,0,0,0-.14,14.53c.71,5.62,1.57,11.23,2.29,16.85A51,51,0,0,0,80.49,932a15.84,15.84,0,0,0,3.93,6.59c-2.68,9.62-1.16,17.43,5.16,25.65-1.85,10-.14,16.37,7.09,25.53a15,15,0,0,0,.09,9.37c1.07,2.94,2,6,3,8.95s2.06,6,3.25,8.91,2.45,5.8,3.9,8.56a69.18,69.18,0,0,0,4.94,7.85,5.79,5.79,0,0,1,1.4,2.62,28.73,28.73,0,0,0,4.34,10.9,29.49,29.49,0,0,0,3.36,4.16,25.83,25.83,0,0,0,4,3.29,23,23,0,0,0,1,5.22,22.18,22.18,0,0,0,2.93,5.67l1.86,2.77.92,1.4,1,1.37,3.91,5.46,1,1.35,1,1.3,2.11,2.54a58.75,58.75,0,0,0,4.37,4.74c5.58,5.34,9.9,10.21,14.92,15.87,1.35,1.51,2.77,3,4.23,4.54s3.09,2.89,4.68,4.3l2.41,2.08c.82.67,1.67,1.3,2.5,1.94,1.68,1.26,3.36,2.47,5,3.6,3.26,2.11,6.24,4.14,9.14,6.28,1.48,1,2.93,2.1,4.39,3.22l4.45,3.5c1.57,1.23,3.23,2.46,4.95,3.68s3.54,2.31,5.36,3.42a86,86,0,0,0,11.12,5.65c1.8.8,3.56,1.52,5.26,2.29s3.34,1.56,5,2.4c3.28,1.58,6.47,3.28,9.85,5.13,1.75.91,3.56,1.81,5.4,2.69.92.44,1.85.88,2.79,1.29l2.86,1.17c1.91.76,3.84,1.48,5.75,2.15s3.85,1.18,5.73,1.68a209,209,0,0,1,21.83,7,102.43,102.43,0,0,0,11.22,3.29l5.84,1.28c1.95.44,3.89.86,5.82,1.26a39,39,0,0,0,6.42.9,14.8,14.8,0,0,0,5.22-.65c2-.67,2.73-.39,4.58.84a25.77,25.77,0,0,0,21.2,3.12c2.37-.71,3.07-.46,4.64.62a16.16,16.16,0,0,0,4.56,2,42.08,42.08,0,0,0,6,1.08,21.71,21.71,0,0,0,8.11-.78c2.3-.57,4.13-1.12,5.35-.75,4.52,1.32,8,3.08,14,3.34,7.56.34,15.36,1.3,22.64,1.05,7.48-.25,14.4-.24,21.52,1.12a5.51,5.51,0,0,0,.64,0c4.84.27,7.92-1.93,11.11-1.69,3.66.27,6.44,2.5,11.57,2.64,8.65.24,17.57,1.12,25.9.66a115.67,115.67,0,0,1,20.06.5,144.18,144.18,0,0,0,25.83.36,125.87,125.87,0,0,1,20.7,0,135.32,135.32,0,0,0,25.19-.24,129.7,129.7,0,0,1,22-.49,125.87,125.87,0,0,0,23.27-1,151,151,0,0,1,23.86-1.31c3.69,0,7.47-.19,11.28-.52l5.91-.55c2.36-.25,4.73-.55,7-.89.89-.13,1.63-.4,2.44-.56l-2.37-4.78h0l2.37,4.78a22.8,22.8,0,0,0,3.61-3.31l2.22-2.68c.69-.91,1.41-1.8,2.08-2.73,1.34-1.85,2.63-3.75,3.78-5.72a53.52,53.52,0,0,0,5.42-12.22c1.11-3.83,2-7.43,2.77-11.05s1.5-7.26,2.12-11.25C689.78,1128.84,688.43,1120.76,686.15,1113.44Z" style="fill:#382d15;"/><path d="M483.48,1185a11.72,11.72,0,0,0-2.28-5.67,13.05,13.05,0,0,0-3.9-3.47,20,20,0,0,1-5.75-4.51,15.1,15.1,0,0,0-6.71-4.59,8.9,8.9,0,0,1-5.11-3.89,25.39,25.39,0,0,0-1.66-2.31,8,8,0,0,0-.72-.79l-.34-.29-.19-.12a3,3,0,0,1-.24-.25c-1.54-1.63-1.82-3.78-1.57-6.13.22-2.13-.35-4.39-.57-6.79,0-.23-.2-.43-.25-.64l-5.32.38h0l5.32-.38a3.94,3.94,0,0,0,.08-.88c0-2.66.24-5.41-.51-7.92a10.74,10.74,0,0,1-.19-6.72c.6-2.07,0-4.35.09-6.54a5,5,0,0,0-3.24-5.34c3.19-2,4.43-4.38,2.58-6.15s-1.77-2.57.1-4.17.84-3.69-2.06-6.35c1.74-.89,3.05-2,3.11-3.78.1-2.7.72-5.44.17-8.07a12.39,12.39,0,0,1,.27-6.48,16.84,16.84,0,0,0,.3-8.28,10.45,10.45,0,0,1,.26-6.42c.78-2.06.22-4.44.45-6.66s-.36-4.39-3.07-5.71c4.41-2.86,4.42-5.54.14-8.34,2.27-1.29,3.23-3,3.09-4.58a5.07,5.07,0,0,0-3.43-4c1.22-.88,2.72-1.93,2.53-3.36a39.51,39.51,0,0,0-1.21-7,11.53,11.53,0,0,0-1.63-3.29,8.9,8.9,0,0,0-2.64-2.34c-.53-.29-.51-.61-.53-1.1-.15-3.76-1.42-4.91-5.42-5,.21-1.67.32-3.48-1.11-4.74a36.58,36.58,0,0,0-8.1-5.56,3.73,3.73,0,0,0-3.38,0c-.87.41-1.26.52-1.87-.49-1.92-3-5-3.32-7.34-.68-.83.93-1.06.85-1.7-.07a3.63,3.63,0,0,0-1.86-1.41,5.08,5.08,0,0,0-2.42-.23,4.13,4.13,0,0,0-2.75,2.09c-.64.91-1,1.81-1.4,1.67-2-.66-4.07-1.19-6.14.12-2.45,1.61-5.31,3.18-6.58,5.7a21.28,21.28,0,0,1-4.78,6.22,2.59,2.59,0,0,0-.3,2.73c.27.94.58,1.76,0,2.15a21.59,21.59,0,0,0-2.16,1.52,4.35,4.35,0,0,0-1.48,2.14,63.9,63.9,0,0,0-2,7.83,3.16,3.16,0,0,0,.43,2.65c.76.93.31,1.39-.18,2.27a14.27,14.27,0,0,0-1.67,6.48,22.84,22.84,0,0,0,.9,6.52c.13.48.79.94,1.34,1.25.87.48.87.71.11,1.38-2.71,2.39-2.69,4.26-.11,6.64.5.46.76.66.19,1.33-2.54,3-2.28,4.43,1,7.07-1.27,1.08-2.28,2.2-2.22,3.83s1.92,2.53,2.24,3.71-1.84,2.37-1.89,4.08,3,2.8,2.08,4.09a7.14,7.14,0,0,0-1.56,4.69c.13,1.8.28,3.6.28,5.4,0,2.29.69,4.22,3.56,5.23-4.26,3.1-4.14,5.56.21,8.35-4,3.19-3.88,5.19.5,8.43-1.34.75-2.75,1.72-2.67,3,.24,3.95-1,8.08,1.65,11.76.23.32.39.58.11.93-1.08,1.41-1.43,2.52-1.12,3.56a6.34,6.34,0,0,0,2.64,3c-1.55.91-2.66,1.88-2.71,3.36-.12,2.68-.94,5.48-.34,8.21a13,13,0,0,1,.29,3.54,21.51,21.51,0,0,1-.59,3.55,14.64,14.64,0,0,0,.48,8.54,25.89,25.89,0,0,1,1.13,3.78,31.34,31.34,0,0,1,.49,4,14,14,0,0,0,.31,2.27,18.57,18.57,0,0,0,.79,2.22q.23.55.5,1.07c.2.34.42.66.65,1a15.52,15.52,0,0,0,1.46,1.76,18.6,18.6,0,0,1,2.69,3.09,39,39,0,0,1,2.25,3.44,13.91,13.91,0,0,0,7.08,5.69,34.09,34.09,0,0,1,7.68,3.47,12,12,0,0,0,4,1.4c1.38.24,2.79.42,4.12.63a4.72,4.72,0,0,0,2.25-.11,3.94,3.94,0,0,0,1.85-1.41c.71-1,.95-.77,1.53.15,2,3.09,4.63,3.27,6.94.43.77-.94,1-.75,1.49.17a4.1,4.1,0,0,0,3.31,2.21,3.29,3.29,0,0,0,2.51-1.28c.73-.67,1.35-1.29,1.71-1,1.33,1.19,2.3,2.86,4.25,3,2.47.16,5.07.91,7.58.38a14.25,14.25,0,0,1,7.56,0,.72.72,0,0,0,.23,0c1.81-.12,2.54-2.59,3.66-2.72,1.29-.14,2.9,1.65,5,.81a20.85,20.85,0,0,0,5.25-3,10.49,10.49,0,0,0,3.59-5.44c.26-.87.33-1.69.49-2.47s.21-1.46.26-2.29A25.1,25.1,0,0,0,483.48,1185Z" style="fill:#5020ee;"/><path d="M243.21,1050.42c1.38-.7,2.82-1.65,2.78-3-.09-2.09.13-4.24,0-6.39a9.84,9.84,0,0,0-2.38-6.05c-.28-.31-.48-.55-.27-1a4.4,4.4,0,0,0,.18-4.22,5.88,5.88,0,0,0-3.64-2.45c1-1.51,1.61-3.07.8-4.64-1.37-2.81-2.71-6.07-5.32-8a34.63,34.63,0,0,1-6-5.55,13.4,13.4,0,0,0-8.58-4.2,49.17,49.17,0,0,1-8.45-1.27,12.54,12.54,0,0,0-9.39,1.57,37.44,37.44,0,0,1-7.54,3.66,13.91,13.91,0,0,0-6.83,5.74,28.15,28.15,0,0,1-2.31,3.47,29,29,0,0,1-2.73,3.07,11.91,11.91,0,0,0-2.32,3.48c-.31.61-.61,1.41-.89,2.1l-.77,2.15a4.06,4.06,0,0,0,.84,4.57c.88.84.67,1.05-.3,1.6-3.27,1.85-3.55,4.89-.69,7.23,1,.79.76,1-.14,1.55a4.16,4.16,0,0,0-2.07,3.53c-.16,2,3.13,3.45,2.57,4.26-1,1.49-2.58,2.67-2.48,4.6.15,2.44-.36,5,.34,7.31s1.09,4.6.14,6.94a.58.58,0,0,0,0,.21c0,1.56,2.37,2.43,2.3,3.46-.08,1.18-2.14,2.19-2,3.83.2,2.77-.26,5.65.54,8.29a11.46,11.46,0,0,1,.25,6.4,16.11,16.11,0,0,0,.3,8.22,11.89,11.89,0,0,1,.24,6.57,15.24,15.24,0,0,0,.15,8,12,12,0,0,1,0,7,14.51,14.51,0,0,0,0,7.34,11.52,11.52,0,0,1,.42,3.79,18.53,18.53,0,0,1-.7,3.71c-.62,2.28-.42,4.73-.5,7.12a4.56,4.56,0,0,0,.12,1.17h-.07c0,.12-.07.24-.08.37-.3,2.68-1,5.2-.7,7.54a6.29,6.29,0,0,1-1.48,5.46c-.15.13-.3.37-.4.44a1,1,0,0,0-.23.26c-.19.21-.29.44-.5.73a6.94,6.94,0,0,1-1.53,1.82c-1.38,1.12-2.36,2.63-1.74,5.57-3.46-1.43-6-1.15-6.46,1.41s-1.1,2.92-3.55,2.42-3.81,1.78-3.93,5.88c-1.88-.59-3.81-.61-5.31,1.18a19.77,19.77,0,0,0-3.15,4.86,10.48,10.48,0,0,0-.7,6.43c.18.95.48,1.63.69,2.4s.52,1.5.84,2.25a25.71,25.71,0,0,0,2.39,4.49,11.73,11.73,0,0,0,4.73,4,12.85,12.85,0,0,0,5.26,1.23,20,20,0,0,1,7.31.92c2.29.8,4.82.12,7.15.15,2.49,0,4.5-.8,5.51-3.65,1.69,2,3.2,3,4.51,2.83s2.33-1.29,3.66-3.5c1.39,2.19,3,3.08,4.54,2.91s2.94-1.4,3.82-3.42c.83,1.25,1.76,2.78,3.09,2.69,2.09-.13,4.29,0,6.48-.3a10,10,0,0,0,6.08-2.82c.41-.42.72-.34,1.2-.24a9.5,9.5,0,0,0,2.39.24,3.82,3.82,0,0,0,1.72-.56c1-.59,1.6-1.88,2.1-3.82a7.6,7.6,0,0,0,2.48.58,3.64,3.64,0,0,0,2.47-.71,36.72,36.72,0,0,0,7-6.95,3.88,3.88,0,0,0,.6-3.24c-.22-.92-.22-1.3.85-1.67,1.63-.58,2.8-1.48,3.16-2.69a4.52,4.52,0,0,0-.75-4c-.67-1-.5-1.22.56-1.54a4.27,4.27,0,0,0,2.91-3.27,4.05,4.05,0,0,0-1-3.1c-.59-.89-1.23-1.55-.94-1.85a18.77,18.77,0,0,0,2-2.23,4.67,4.67,0,0,0,.84-2.72c0-1.31.07-2.62.12-3.93a9.83,9.83,0,0,0-.51-3.67A10.1,10.1,0,0,1,242,1148c.46-1.74-2.9-2.66-2.16-3.81.89-1.42,2-2.55,2-4.14,0-1.13,0-2.24,0-3.37l.2-3.63a2.86,2.86,0,0,0-.73-2.38c-.83-.8-.42-1.28,0-2.12,2-4,1.81-8.18,1-12.38-.1-.48-.72-1-1.24-1.32-.83-.54-.81-.77,0-1.36,2.91-2.09,3.08-3.89.77-6.53-.45-.51-.69-.73,0-1.34,2.85-2.71,2.74-4.16-.26-7.14,1.37-.94,2.5-1.94,2.62-3.57s-1.63-2.72-1.83-3.93,2.08-2.16,2.32-3.85-2.64-3.1-1.63-4.29a7.14,7.14,0,0,0,2.06-4.49c.06-1.8.1-3.61.31-5.4.26-2.27-.24-4.27-3-5.58,4.56-2.62,4.72-5.1.67-8.35C247.32,1056.2,247.41,1054,243.21,1050.42Z" style="fill:#5020ee;"/><path d="M485.42,951.69a46,46,0,0,0,1.92-13.18c0-5.18-.08-10.37-.07-15.54.07-6.56-.68-12.21-3.57-15.46a24.39,24.39,0,0,0,3-11.91,26.27,26.27,0,0,0-3.6-12c1.9-4.34,2.74-8,2.53-11.71s-1.47-7.61-3.89-12.44a13.24,13.24,0,0,0,2.29-8.29c-.21-2.83-.34-5.68-.45-8.54s-.23-5.82-.66-8.91a31.92,31.92,0,0,0-2.64-9.4,19.17,19.17,0,0,0-6.72-7.95,10.89,10.89,0,0,1-2.65-2,17,17,0,0,0-5.38-4,18.61,18.61,0,0,0-5.59-1.63,21.09,21.09,0,0,0-9.82,1.18,19.26,19.26,0,0,0-9.81-3.85c-7.91-.93-16.08-2.46-23.68-2.43A111.3,111.3,0,0,1,397,801.85a115.45,115.45,0,0,0-22.51-1.53,108.14,108.14,0,0,1-20-1.06,102.83,102.83,0,0,0-22.52-.73,101.44,101.44,0,0,1-10.16.32c-3.29-.06-6.57-.3-10-.59a115.05,115.05,0,0,0-22,.08,120.59,120.59,0,0,1-20.79.47c-6.89-.4-14.27.45-21.43.79-4.25.2-7.91.95-10.3,2.63-1.59,1.12-2.33,1-4.24.28A22.5,22.5,0,0,0,213.59,804c-2,1.14-2.66,1-4.27.27-2.53-1.19-6-1.41-10-1.14a15.85,15.85,0,0,0-3.71.72c-1,.37-2.08.74-3,1.11a21.27,21.27,0,0,1-2.63.89,3.63,3.63,0,0,1-2,.09c-4-1.27-7.08-3.18-12.73-3.47a104.62,104.62,0,0,0-11.22-.18A31.1,31.1,0,0,0,152.41,805a21.57,21.57,0,0,0-2.71,1.46c-.86.56-1.76,1-2.55,1.66a35.82,35.82,0,0,0-4.51,3.9,48.49,48.49,0,0,0-6.93,9.39,6.18,6.18,0,0,0-.27.64,13.18,13.18,0,0,0-.83,6.39,19.64,19.64,0,0,1,.17,4.94,26.54,26.54,0,0,1-1.67,5,16.31,16.31,0,0,0-1.26,6.08c0,8.25.12,16.53.72,23.68.06.74.11,1.52.15,2.31l.08,2.31c0,1.52,0,3,0,4.5-.08,3-.27,6-.65,9.2a121.43,121.43,0,0,0-.27,23.69,105,105,0,0,1,.05,19,115.2,115.2,0,0,0,.26,23.09,106.47,106.47,0,0,1,.44,20.18,109.29,109.29,0,0,0,.79,21.32,121.27,121.27,0,0,1,1,21.86c-.19,6.75.6,13.86,1.11,20.8.09,1.2.23,2.3.4,3.36l5.33-.35h0l-5.4.36c0,.41,0,.8.05,1.22a44.3,44.3,0,0,0,2.93,13,27.54,27.54,0,0,0,7.86,11.15,30.78,30.78,0,0,0,10.55,5.62,100.1,100.1,0,0,0,10.54,2.55c1.53.32,3.17.52,4.64.68l4.57.45c3.11.29,6.32.58,9.43,1.06,6.29,1,11.77,1.06,15.7-1.22,5.42,3.9,12.38,5.85,17.63,4.35,5-1.45,7.43-1.31,12.27.62a15.54,15.54,0,0,0,8.34.59,30.63,30.63,0,0,0,10.16-3.92,14.7,14.7,0,0,0,5.32,1.09,15.32,15.32,0,0,0,3.35-.32,18.44,18.44,0,0,0,1.88-.47q1-.33,2-.77c.52-.22,1-.51,1.57-.76a17.56,17.56,0,0,0,1.58-.84l1.59-1c.52-.34,1-.73,1.5-1.1a13.56,13.56,0,0,0,1.42-1.19c.45-.42.91-.83,1.34-1.27a29.8,29.8,0,0,0,2.33-2.76,32.31,32.31,0,0,0,5.51-12c1.56-6.94,2.29-12.67,3.85-19a114.44,114.44,0,0,0,3.06-23.63,97.13,97.13,0,0,1,1.83-18.36c1.22-5.9,1.06-12.67,1.57-19,.55-6.74.12-12.53-2.5-16.25a25.25,25.25,0,0,0,3.52-12,21.38,21.38,0,0,0-.76-5.87q-.2-.73-.45-1.47c-.15-.42-.32-.82-.5-1.24s-.35-.85-.54-1.3-.39-.91-.55-1.38c1.41-1.38,2.7-2.58,3.91-3.54s2.32-1.8,3.54-2.72a61.7,61.7,0,0,0,7.64-6.34c2.22.91,4.41,2.18,7.73,2.07a58.4,58.4,0,0,1,8.08.37c1.36.14,2.73.32,4.09.51s2.76.4,4,.61a70.79,70.79,0,0,1,7.24,1.57,38,38,0,0,1,6.26,2.28,2.86,2.86,0,0,1,1,.8,6,6,0,0,1,.51,1,25.24,25.24,0,0,1,1.08,4.1c.25,1.22.49,2.33.82,3.46a56.79,56.79,0,0,0,3.27,7.92,25,25,0,0,0-2.67,10.33c-.1,4-.22,8-.16,12.1s.27,8.2.55,12.27a18.52,18.52,0,0,0,2.1,7.51,5.59,5.59,0,0,1,.72,4.78c-1.42,7-.26,13,3.32,18.14,1.27,1.82,1.27,2.52.62,4.21-1,2.59-1,6-.46,10,.7,5.45,4.56,9.64,4.25,11.44a64.08,64.08,0,0,0-1,6.56,21.13,21.13,0,0,0,1,8,36.52,36.52,0,0,0,2.43,5.88,29,29,0,0,0,1.75,2.82,19.22,19.22,0,0,0,2,2.6,24.15,24.15,0,0,0,10.24,6.87,81.17,81.17,0,0,0,10.65,2.68c3.37.64,6.64,1.19,10,1.71,5.33.75,8.52-2.71,11.82-2.08,4.08.76,7.53,1.73,12.37,1.44,6.92-.41,13.85-.76,20.78-1.09a18.94,18.94,0,0,0,6.65-1.19c2.16-1,3.63-.69,6.27-.58a37,37,0,0,0,9.67-.81,26.51,26.51,0,0,0,9.86-4.32l1.14-.87c.37-.3.72-.64,1.08-1a20.59,20.59,0,0,0,2-2.12,22.47,22.47,0,0,0,3.06-4.86,31.19,31.19,0,0,0,2.62-10.08,8.28,8.28,0,0,0-.71-4c-.67-1.55-.58-2.23.38-4,3.4-6.12,4-11.32,2.15-18.71a4.64,4.64,0,0,1,.2-3.82c3.29-8,3.46-12.15.75-20.42a23.2,23.2,0,0,0,3-10.5c.24-4.71-1.41-7.63-1.57-11.06s2.21-6.44,2.47-11.32C487.29,958.55,484.43,955.22,485.42,951.69Z" style="fill:#ff3366;"/><path d="M491.94,619.11c-.72-7-1.18-13.5-.38-20.27a4.93,4.93,0,0,0,0-.61C491.46,593.67,489,591,489,588c0-3.45,1.95-6.23,1.66-11-.5-8.1-.38-16.49-1.52-24.21a95.07,95.07,0,0,1-1-18.71,145.26,145.26,0,0,0-1.17-24,95.53,95.53,0,0,1-.83-9.6c-.11-3.13-.05-6.23.14-9.68a70.62,70.62,0,0,0-.35-12.34,49.63,49.63,0,0,0-1.21-6.37,38.61,38.61,0,0,0-2.16-6.05,67.09,67.09,0,0,0-5.75-10.2,54.11,54.11,0,0,0-7.52-8.86A37.15,37.15,0,0,0,459,440a43,43,0,0,0-11.35-3.35c-8.25-1.19-15.34-2.07-23.14-3-7-.85-14.45-.39-21.54-.21-.68,0-1.3.19-1.94.23l.09,5.33h0l-.09-5.33c-.83-.06-1.69-.1-2.59-.09-3.93,0-7.89-.1-11.73-.22l-2.86-.1-2.95-.07c-2,0-3.9,0-5.81.1a106.47,106.47,0,0,1-20-.51c-6.12-.77-12.95-.21-19.44-.35s-12.08.53-15.74,3.3c-6-3.14-13.15-4.25-18.25-2.29-4.89,1.89-7.4,1.93-12.28.2s-11-.54-18.41,2.62a20.52,20.52,0,0,0-11.46-2.73c-7.88.18-16.08-.17-23.7.78a138.86,138.86,0,0,1-19.13,1.1,97.39,97.39,0,0,0-24.43,3c-3.26.86-6.27,1.64-9.3,2.3-1.51.35-3,.66-4.6.94s-3.1.52-4.75.73c-6.09.77-12.72,3.08-19.17,5.14-6.84,2.13-12.49,5.63-14.3,10.08a20,20,0,0,0-6.92,2,17.87,17.87,0,0,0-5.46,4.28,17.39,17.39,0,0,0-4,13.06c-3.56,3-5.66,8.16-5.89,13a21.86,21.86,0,0,0,2.47,11.76c-1.44,2.08-3.17,4.33-3.37,8.05-.34,5.88-1,11.81-1.32,17.72-.15,3-.23,5.89-.12,8.81a60.69,60.69,0,0,0,1,8.67,6.34,6.34,0,0,1-.23,3.22c-2.09,8.62-1.89,12.09,1,19.43a24.6,24.6,0,0,0-2.68,10.78c-.05,4.07,0,8.13,0,12.2s0,8.13,0,12.2a20.07,20.07,0,0,0,1.42,7.69,5.65,5.65,0,0,1,.22,4.88c-2.19,6.91-1.89,13,1,18.73,1,2,.93,2.72.06,4.35-1.35,2.5-1.75,6-1.7,10.13.07,5.7,3.5,10.41,3.08,12.22-1.08,4.49-2.28,8.23-1.86,14,.53,7.09.29,14.63,1.55,21.18a89,89,0,0,1,1.39,19.63c-.16,5.16,3.48,8.11,3,11.49-.29,2.1-.64,4-.86,6.08a33.19,33.19,0,0,0-.16,6.46c.51,6.94.75,14,1.08,21.14a19.3,19.3,0,0,0,1.23,6.84c1,2.18.69,3.66.53,6.25a78,78,0,0,0,.92,18.51c.28,1.55.52,3.1.91,4.65s.78,3.09,1.2,4.62a73.23,73.23,0,0,0,3.38,9.05,7.93,7.93,0,0,0,1.16,1.83,10.56,10.56,0,0,0,1.44,1.3c1.41,1.06,1.63,1.69,1.77,3.81a29.16,29.16,0,0,0,1.11,5.27,17.75,17.75,0,0,0,2.53,4.55,19.91,19.91,0,0,0,9.13,6.44,6.41,6.41,0,0,1,3.57,2.29,21.88,21.88,0,0,0,9.44,6.6,23.69,23.69,0,0,0,11.26.55,21.72,21.72,0,0,0,10.76,4.08c5,.53,8-1.15,11.58-1.26s6.67,2.16,11.68,2.34c5.32.19,8.64-2.77,12.21-1.76a57.17,57.17,0,0,0,13.11,2.4c5.18.31,10.4.7,15.62,1.27,6.62.72,12.47.62,16.08-1.94a24.61,24.61,0,0,0,12,4,25.87,25.87,0,0,0,12.61-3c8.74,4,14.65,3.88,24.68-.56a13.84,13.84,0,0,0,8.36,2.6c11.56-.37,23.5.64,34.55-2.29a4.94,4.94,0,0,1,2.73-.18,26.25,26.25,0,0,0,20-2.37,20.1,20.1,0,0,0,10.54,2c8.1-.48,16.57-.39,24.21-1.69a124.36,124.36,0,0,1,20.07-1.55,62.9,62.9,0,0,0,12-1.34c1-.24,2-.43,3.07-.75s2-.62,3-1a40.73,40.73,0,0,0,5.76-2.62l1.31-.71c.43-.24.84-.53,1.25-.78.82-.53,1.65-1,2.44-1.55,1.54-1.16,3.11-2.18,4.51-3.44.7-.62,1.49-1.16,2.14-1.84l2.06-2a10.46,10.46,0,0,0,1-1l1-1.08,1-1.09a11.29,11.29,0,0,0,1-1.14q1-1.21,1.91-2.5a27.91,27.91,0,0,0,1.7-2.7l.81-1.4.4-.71.39-.82a27,27,0,0,0,1.29-3.34,40.78,40.78,0,0,0,1.63-12.52,111.71,111.71,0,0,1,1.81-20.53,126.91,126.91,0,0,0,1.78-22.33,118,118,0,0,1,1.46-21.15c1.07-6.95,1-14.52,1.41-21.82.26-4.33-.09-8.11-1.5-10.72-.94-1.74-.76-2.48.2-4.33a23.59,23.59,0,0,0,.81-19.93c-.89-2.14-.7-2.82.25-4.35,1.49-2.42,2.14-5.89,2.37-10,.34-5.69-2.81-10.14-2.18-12.45,1.17-4.26,2.79-7.59,2.84-13.18,0-3.56.17-7.2.24-10.8A92.92,92.92,0,0,0,491.94,619.11Z" style="fill:#382d15;"/><path d="M390,538.33q0-1-.11-2c-.08-.64-.21-1.27-.32-1.89a53.13,53.13,0,0,1-.87-7,67.39,67.39,0,0,1-.39-7,57.69,57.69,0,0,0-1-7.63,45.65,45.65,0,0,0-2.48-7.22A61.79,61.79,0,0,1,382,499c-.82-2.19-1.62-4.36-2.26-6.77a39,39,0,0,0-2.85-6.68c-1.13-2.19-2.45-4.28-3.56-6.44-1.36-2.54-3.09-4.41-5.23-5.09-1.43-.45-1.55-.94-1.45-2.44a10.59,10.59,0,0,0-6.8-11.07c-1.55-.64-1.63-1.11-1.41-2.44.35-2.1-.42-4.29-1.69-6.6-1.78-3.19-6-3.9-6.29-5.49s-.31-2.84-.55-4.24a11.73,11.73,0,0,0-1.48-4.35c-.56-1-1.12-2-1.63-3l-1.48-3c-.5-1-1-2-1.55-3a30.66,30.66,0,0,0-1.57-2.74c-.29-.45-.59-.89-.85-1.35l-.74-1.39a27.86,27.86,0,0,1-1.29-2.81,18.94,18.94,0,0,1-1.22-6,1.8,1.8,0,0,0-.09-.36c-.73-2.66-3.31-3.82-3.66-5.69a7.46,7.46,0,0,1,.55-3.26,8.6,8.6,0,0,0,.41-3.81c-.85-4.94-.6-10.11-1.31-14.89a27.55,27.55,0,0,1,.56-11.56,103.24,103.24,0,0,0,2.7-14.54c.14-1,.3-2,.5-3a9.19,9.19,0,0,1,.35-1.33q.2-.62.42-1.23a16.62,16.62,0,0,1,1.15-2.27c.23-.35.51-.68.77-1a6.94,6.94,0,0,1,.86-1,43.58,43.58,0,0,1,4.57-4l5.31-4.06c3.55-2.83,7.43-4.4,11.93-6.46a26.94,26.94,0,0,0,6.86-4.47,25.54,25.54,0,0,0,5-6.4c2.64-5.08,5-9.3,7.37-14.18a32.27,32.27,0,0,0,2.37-7.05c.51-2.46.9-5,1.15-7.44.06-.47,0-.93,0-1.37a16.54,16.54,0,0,0,.28-1.83,58.17,58.17,0,0,0,.33-8.54,38.11,38.11,0,0,0-.47-4.26,24.37,24.37,0,0,0-1.1-4.07l-.64-1.77-.69-1.7c-.41-1.13-.89-2.22-1.34-3.32s-.94-2.18-1.37-3.32l-1.49-3.47a21.18,21.18,0,0,0-4.12-5.89,51.56,51.56,0,0,0-5.6-4.93c-3.94-3.05-8.35-4.18-11.62-2.37a11.9,11.9,0,0,0-6-4.55,9.84,9.84,0,0,0-1.73-.43,10.94,10.94,0,0,0-1.71-.07,6.9,6.9,0,0,0-3.1.83c-3.52,2-5,2.18-8.84,1.2s-8.15,1.63-11.22,6.7a9.47,9.47,0,0,0-3.93-.22,9.94,9.94,0,0,0-4.41,1.9c-4.66,3.38-9.16,7.44-11.79,12.21-2.28,4.13-4.19,7.53-6.71,11.42a40.63,40.63,0,0,0-5.79,15.47,54.37,54.37,0,0,1-3,12.25c-1.49,3.86-1.58,8.51-2.25,12.76-.71,4.53-.4,8.48,2.18,11.09-2.35,2.72-3.59,5.2-3.76,7.72s.66,5.08,2.56,7.88a11.55,11.55,0,0,0-2,15.57c-1.5,1.17-3.27,2.39-3.72,4.71-1.35,7.38-4.34,14.51-3.71,22.1a2.54,2.54,0,0,1-.64,2c-3.22,4.87-3.58,6.95-2.06,12.31-1.84,1.45-3.6,2.92-4.55,5.77-.84,2.44-1.64,4.88-2.57,7.28L268,418.77l-1.44,3.58a9.33,9.33,0,0,0-.63,5,2.43,2.43,0,0,1-1.1,2.91c-3.92,3.1-5.35,6.77-4.41,11.3.33,1.6,0,2-1.21,2.55-1.93.88-3.35,2.71-4.53,5.12-1.65,3.31.07,7.51-.89,8.37-2.35,2.11-4.54,3.78-5.93,7.3-1.7,4.31-4.2,8.59-5.05,12.92a37.79,37.79,0,0,1-1.85,6.29,52.82,52.82,0,0,1-2.77,5.75c-1.68,3,.82,6.1-.61,7.91-1.76,2.26-3.51,4.14-4.42,7.28-1.24,4.53-2.48,9.07-3.56,13.66a8.84,8.84,0,0,0-.17,4.61c.56,1.63,0,2.49-.7,4.09-3.17,7.53-3.63,16.07-2.45,24.28a5,5,0,0,0,1.4,2.43c.91.93.86,1.37.19,2.66a11,11,0,0,0-1.52,6.52,9.66,9.66,0,0,0,.87,3.16,18.22,18.22,0,0,0,2,3.22,2.45,2.45,0,0,1,.75,2.56,12.89,12.89,0,0,0,.32,7.48,11.07,11.07,0,0,0,1.93,2.88,13.1,13.1,0,0,0,1.42,1.38q.84.67,1.84,1.35a10.15,10.15,0,0,0,4.9,10.74,16,16,0,0,1,3.1,1.95,7.38,7.38,0,0,1,1.59,3.27l.33,1c.14.33.3.66.47,1a9.22,9.22,0,0,0,1.37,2,8.86,8.86,0,0,0,4.17,2.35c1.43.41,2.64.78,3.28,1.93a18.69,18.69,0,0,0,6.38,7,106.85,106.85,0,0,0,9.74,5.24,20.14,20.14,0,0,0,3.11,1.3,17.2,17.2,0,0,0,3,.56,9.62,9.62,0,0,0,2.75-.13,6.53,6.53,0,0,0,2.42-1.12,16.34,16.34,0,0,0,3.46,3.44,10,10,0,0,0,3.93,1.54c2.73.57,5.71-.4,8.74-2.25a16.43,16.43,0,0,0,4.14,2.32,8.36,8.36,0,0,0,4,.6,12,12,0,0,0,4.06-1.17,20.88,20.88,0,0,0,4.27-3.09,9.68,9.68,0,0,0,2.71,1.46,6.31,6.31,0,0,0,3.4.06c1-.26,2-.45,2.92-.73l2.9-.84c1-.28,1.95-.54,2.91-.84s1.89-.7,2.82-1.08,1.86-.77,2.76-1.18,1.74-1,2.58-1.5,1.65-1.1,2.42-1.71a16.67,16.67,0,0,0,2.14-2.08,2.33,2.33,0,0,1,1.57-1,16.37,16.37,0,0,0,2-.36,10.58,10.58,0,0,0,1.79-.67,12.43,12.43,0,0,0,3-1.95,9.5,9.5,0,0,0,2.12-2.7,14.39,14.39,0,0,0,1.31-3.26,9.25,9.25,0,0,0,3.57-.58,10.51,10.51,0,0,0,3.44-2.15c1-.95,2-2,3-2.95s2.06-1.94,3-3,1.83-2.12,2.68-3.21a13.49,13.49,0,0,0,1.17-1.69q.53-.87,1-1.76c.57-1.08,1.16-2.09,1.76-3.05s1.11-2,1.71-2.9,1.24-1.84,1.89-2.77,1.25-1.91,1.94-2.89a38.13,38.13,0,0,0,6.12-14.57A63.6,63.6,0,0,1,386.8,557a54.78,54.78,0,0,1,1.86-6.79c.33-1.23.61-2.51.85-3.83q.18-1,.33-2l.14-1c0-.34,0-.68.05-1C390.09,541,390.09,539.66,390,538.33Z" style="fill:#5020ee;"/><path d="M418.41,244.63c.35-3-.89-6.16-1.67-9.13s-2.44-5.32-5.63-5.64c1.78-3.77.93-7.58-2-8.48a5.48,5.48,0,0,1-2.8-1.5,5.4,5.4,0,0,1-.77-3.06c-.14-2.86-3.21-4.51-7.76-4.23A5.7,5.7,0,0,0,395,207.1c-3.28-2-6.88-4.06-10.7-4.36a63.76,63.76,0,0,1-9.16-1.37,19.68,19.68,0,0,0-11.6,1.14,32.78,32.78,0,0,1-8.51,2.72c-3,.48-5.6,2.58-8.25,4.14-2.84,1.65-4.67,4-4.07,7.16-5.79-.68-8.72,2.67-7.24,8.14a6.35,6.35,0,0,0-5.77,3.61,6,6,0,0,0-.47,3.16,6.79,6.79,0,0,0,1.29,3.08l-.8.27a14.27,14.27,0,0,0-8.89-1.25c-.68.16-.95-.12-1.41-.45-3.53-2.59-5.49-2.56-9,.24a11.28,11.28,0,0,0-2.15-1.82,5.1,5.1,0,0,0-2.9-.7A46.93,46.93,0,0,0,293.81,233a5,5,0,0,0-3,2.63c-.45,1-.75,1.3-2,1.13-4-.57-6.71,1.57-7,5.39-.09,1.37-.38,1.48-1.57,1.31a4.79,4.79,0,0,0-2.56.45,8,8,0,0,0-2.25,1.77,5.51,5.51,0,0,0-1,3.91c0,1.26.27,2.27-.16,2.52-2.15,1.2-4.17,2.48-4.94,5.41-.91,3.51-1.85,7.71-.65,11.05a80,80,0,0,1,2.7,9.75,3,3,0,0,0,1,1.55,6.94,6.94,0,0,0,1.56.86c1,.47,2,.72,2.21,1.6.06.28.12.57.18.85a27.25,27.25,0,0,0-9.56,3.18,3.15,3.15,0,0,0-1.16,1.77c-.34,1-.61,1.11-1.66.64a6.27,6.27,0,0,0-4.74-.47,6.81,6.81,0,0,0-3.35,3.5c-.35.73-.47,1.08-1.49.94-2.32-.32-3.9-.05-5.08.8s-1.91,2.43-2.48,4.75a8.2,8.2,0,0,0-2.73,0,5.34,5.34,0,0,0-2.65,1.25c-1.7,1.5-1.44,3.7-2.31,5-.43.64-1.32.83-2.29,1.12a6.24,6.24,0,0,0-2.84,1.53,4.77,4.77,0,0,0-.91,3.28c0,1.09-.08,2-.89,2.46a14.16,14.16,0,0,0-2.72,1.9,10,10,0,0,0-1.89,2.7c-.58,1.11-1,2.3-1.46,3.44s-.88,2.33-1.33,3.49a8.73,8.73,0,0,0-.67,4.28,5.14,5.14,0,0,0,2,3.56c-5.08,2.86-5.38,7-1.13,10.84a11.62,11.62,0,0,0-2.21,2.92,5,5,0,0,0-.46,2.77,5.1,5.1,0,0,0,.37,1.35,6.36,6.36,0,0,0,.86,1.33,12.5,12.5,0,0,0,3,2.6c-1.07,1.19-2.17,2.82-1.59,4.51.52,1.29.9,2.65,1.41,4a38.07,38.07,0,0,0,1.75,3.88,17.79,17.79,0,0,0,2.48,3.44,12.09,12.09,0,0,0,3.49,2.5c.48.2.84.36.94.91a7.31,7.31,0,0,0,1.06,2.74,6.23,6.23,0,0,0,1.86,1.72,6.16,6.16,0,0,0,1.12.52,6.27,6.27,0,0,0,1.26.22,9.13,9.13,0,0,0,2.73-.21,6.29,6.29,0,0,0,.81,2.73,5.44,5.44,0,0,0,2.08,2q1.32.64,2.65,1.32c.45.22.88.47,1.34.67l1.38.55a21.14,21.14,0,0,0,2.79.93,18,18,0,0,0,2.85.38c.86.07,1.69.05,2.49.11a23,23,0,0,1,2.34.28c1.55.15,3.08.47,4.76.79a18.46,18.46,0,0,0,5.67.11,15.48,15.48,0,0,0,2.83-.57,26.5,26.5,0,0,0,2.65-1c.82-.33,1.56-.8,2.33-1.14s1.51-.66,2.27-1,1.49-.68,2.28-1,1.63-.54,2.46-.9a25.37,25.37,0,0,0,2.62-1.22,15.85,15.85,0,0,0,2.36-1.7q.56-.46,1.09-1l.52-.5.46-.55a22.66,22.66,0,0,0,1.62-2.28c.5-.74.9-1.5,1.35-2.19a22.85,22.85,0,0,1,1.43-2c.92-1.3,2-2.51,3.07-3.81a21.86,21.86,0,0,0,2.87-4.47,26.28,26.28,0,0,0,1-2.45,21.77,21.77,0,0,0,.59-2.48,28.73,28.73,0,0,1,3-9c1.43-2.8,1.74-6.14,2.52-9.15a5.06,5.06,0,0,0-.89-4.88c-.82-.94-.6-1.22.44-1.78a5.11,5.11,0,0,0,2.23-8c-.66-1.12-.4-1.35.65-1.67a5.34,5.34,0,0,0,3.3-3,4.49,4.49,0,0,0-.07-3.22c-.31-1.07-.56-2-.08-2.26.89-.51,1.82-.85,2.66-1.3a4.91,4.91,0,0,0,2.22-1.89,32.94,32.94,0,0,1,2.52-3.33,17.44,17.44,0,0,0,2.39-3.33,17.28,17.28,0,0,1,2.33-3.28,8.7,8.7,0,0,1,3.33-2.12c.07,0,.12-.09.19-.14,1.38-1,.79-3.61,1.88-4.18s3.21.44,4.74-.46a24.67,24.67,0,0,1,4.12-1.95c.69-.33,1.4-.49,2.07-.8s1.31-.68,2-1a8.94,8.94,0,0,1,6.64-1,40.75,40.75,0,0,0,8.93.93,24,24,0,0,1,8.43,1.68,18.08,18.08,0,0,0,6,.91,15.26,15.26,0,0,0,5.95-1.31,54.17,54.17,0,0,1,9.41-3.33,18.18,18.18,0,0,0,8.82-5.47,69.62,69.62,0,0,1,7.74-7.46c2.54-2.26,4.2-5.55,5.6-8.74a9.22,9.22,0,0,0,.52-1.62l-4.94-2h0l5,2.08c.08-.16.17-.31.24-.48,1.54-3.54,3-7.47,2.67-11.22A44.73,44.73,0,0,1,418.41,244.63Z" style="fill:#382d15;"/><path d="M121.84,760.63a.29.29,0,0,0-.13-.07c-.18,0-.61-.25-.27.35s.3.71-.29.22-.21.12-.38.1.17.54,1.91,2.65c-2.17-2.34-3-3.16-1.88-1.67s1.08,1.46-.17.14-.64-.44,1.21,1.93a14.94,14.94,0,0,0-2.09-2.12c-.1.1-.55-.19-.22.4s.2.59-.26.23-.65-.31-.3.32.31.71-.27.2-.23.09-.42,0,.12.5,1.82,2.65c-2.92-3.25-3-3.15-.37.24-3-3.41-2.71-2.77-.3.33a27.88,27.88,0,0,0-2-2.15c-.2.09-1.27-.9.16,1.19.17.25,0,.11-.13-.06-1.29-1.35-1.17-1.12.61,1.31a14.92,14.92,0,0,0-1.74-1.88,2.55,2.55,0,0,1-.33.27,4.71,4.71,0,0,0,.73,1.15c.42.58.52.73,0,.16-1.53-1.75-1.48-1.53.1.67.56.78.48.7-.1,0a8.15,8.15,0,0,0-1.4-1.52c-.17-.06,1.74,2.56,1.39,2.16A12.47,12.47,0,0,0,115,766c0,.16-.54-.3-.17.38s.19.63-.34.12,1.53,2.29,1,1.71a10.83,10.83,0,0,0-1.4-1.52.56.56,0,0,1-.26.25s0,.16.41.76.23.43,0,.15c-1.21-1.32-1.13-.87-.68.13.05.11.4.66.71,1.11.47.72.46.72,0,.09-1.7-2.22-1.81-2.24-.51-.15.25.41.38.62,0,.14-1.65-2.14-1.59-2,.06.74a13.55,13.55,0,0,0-1.51-1.9c-.08,0,.88,1.55,1,1.8s-1.18-1.57-1.33-1.64,1.42,2.42.85,1.67c-.7-.92-1.13-1.47-1.18-1.4s-.1.17-.23.13.08.5,1.53,2.91c-2.49-3.65-2.57-3.62-.49,0-2.31-3.45-2.37-3.41-.35.26a25.82,25.82,0,0,0-1.58-2.35c-.15.12-1-1,0,1.16.09.19.15.33,0,.07-1.28-2-.93-1.17.38,1.36a14.81,14.81,0,0,0-1.43-2.19c-.12.07-.53-.42-.28.3s.07.59-.3.12-.51-.45-.3.22.12.7-.3.12-.56-.57-.32.16.05.61-.29.14-.51-.53-.33.13.07.68-.3.13-.24,0-.36,0,.09.52.65,1.94c.37,1,.3.82-.06,0-1.23-2.63-1.31-2.6-.29.16.34.92.26.76-.1-.06a9.14,9.14,0,0,0-.91-1.83c-.13-.12,1,2.95.75,2.44a19.34,19.34,0,0,0-1.11-2.29c-.07.12-.36-.36-.25.26s.12,1-.32,0c0,0,0,0,0,0s.64,2.19.56,2.1-.81-2.08-.86-2-.39-.39-.29.3,0,.63-.28.05-.43-.63-.35.08,0,.66-.27.11-.43-.71-.34.08-.07.57-.31,0-.36-.62-.3.1-.1.6-.33,0-.23-.12-.33,0,0,.17,0,.2l2,10.56,0,0c.19.07.47.5.5-.2s.13-.77.44-.07.3,0,.47.08.15-.56-.43-3.24c.88,3.07,1.35,4.18,1,2.32s-.32-1.8.26-.07.45.65-.22-2.27a11.7,11.7,0,0,0,1.06,2.79c.17-.06.49.38.46-.3s.09-.62.4-.13.55.5.49-.22,0-.79.4-.12.3,0,.49.08.11-.52-.79-3.11c1.72,4,1.9,3.91.47-.14,1.82,4.16,1.83,3.42.43-.25a21.54,21.54,0,0,0,1.28,2.62c.25,0,1.09,1.17.29-1.22-.1-.29,0-.12.11.09.92,1.62.9,1.34-.22-1.45a11.53,11.53,0,0,0,1.28,2.22,4,4,0,0,1,.47-.24c.06,0-.1-.48-.44-1.29s-.35-.83,0-.17c1.15,2,1.2,1.78.08-.7-.4-.88-.33-.78.11,0a6.39,6.39,0,0,0,1.12,1.73c.18.08-1.22-2.85-.95-2.39a9.61,9.61,0,0,0,1.45,2.14c.08-.17.55.36.3-.39s-.05-.67.42-.1-1.19-2.49-.75-1.85a8.28,8.28,0,0,0,1.23,1.65.85.85,0,0,1,.36-.27s0-.18-.31-.81-.18-.46.06-.16c1.12,1.41,1.15.92.8-.13,0-.12-.35-.69-.62-1.16-.43-.75-.41-.74,0-.09,1.57,2.31,1.72,2.31.54.15-.23-.42-.35-.64,0-.14,1.58,2.19,1.57,2,0-.77a10.5,10.5,0,0,0,1.5,1.92c.1,0-.83-1.58-.92-1.83s1.19,1.57,1.35,1.64-1.4-2.44-.82-1.69c.71.91,1.16,1.44,1.23,1.36s.13-.2.28-.17,0-.53-1.59-2.89c2.63,3.55,2.79,3.46.53-.07,2.52,3.31,2.63,3.22.37-.31a19.54,19.54,0,0,0,1.77,2.21c.17-.16,1.22.87,0-1.23-.11-.18-.18-.31,0-.08,1.5,1.79,1.11,1-.49-1.34a11.56,11.56,0,0,0,1.72,2c.13-.1.64.3.31-.4s-.13-.6.34-.21.63.31.33-.32-.2-.69.34-.22.71.4.35-.28-.15-.61.31-.26.67.35.36-.25-.19-.67.33-.25.28-.11.41-.17-.2-.5-1.13-1.72c-.62-.81-.52-.71.06-.06,1.93,2.17,2,2.08.27-.27-.59-.78-.47-.65.12,0,.93,1.05,1.31,1.41,1.45,1.45s-1.83-2.51-1.43-2.1a14,14,0,0,0,1.82,1.79c0-.16.51.17.21-.39s-.41-.89.36-.18c0,0,0,0,0,0s-1.36-1.83-1.25-1.79,1.53,1.63,1.57,1.53.57.18.24-.44-.22-.62.29-.22.71.34.36-.29-.23-.63.26-.26.76.41.36-.27-.16-.58.33-.22.66.33.29-.3-.16-.6.35-.24.31,0,.38-.18,0-.09-.08-.19Z" style="fill:#5020ee;"/><path d="M125.52,749.59c-.05-.06-.09-.09-.11-.09s-.53-.37-.28.27.19.73-.29.15-.21.06-.36,0,.1.54,1.44,2.93c-1.71-2.69-2.4-3.67-1.52-2s.81,1.63-.18.1-.53-.56.86,2.1a17,17,0,0,0-1.64-2.49c-.11.07-.47-.31-.25.33s.11.61-.26.16-.55-.45-.32.23.18.75-.28.13-.22,0-.39-.06,0,.5,1.26,3c-2.17-3.79-2.25-3.72-.39.15-2.21-4-2-3.29-.34.25-.63-1.14-1.39-2.53-1.45-2.52s-1-1.16-.05,1.17c.12.28,0,.12-.1-.09-1-1.6-.89-1.35.33,1.4a16.15,16.15,0,0,0-1.29-2.21,2.21,2.21,0,0,1-.35.18,5,5,0,0,0,.47,1.27c.29.66.35.83,0,.16-1.1-2-1.1-1.83,0,.67.38.88.32.79-.09,0a8.66,8.66,0,0,0-1-1.79c-.15-.1,1.15,2.87.9,2.41a13.23,13.23,0,0,0-1.29-2.24c-.06.15-.45-.42-.23.33s.06.65-.34,0,1,2.57.63,1.89a11.25,11.25,0,0,0-1-1.79.51.51,0,0,1-.3.18s0,.16.24.83.14.47-.05.14c-.88-1.56-.89-1.1-.66,0,0,.12.26.73.45,1.23.31.8.29.79,0,.08-1.18-2.53-1.28-2.58-.46-.26.16.45.24.68,0,.14-1.15-2.44-1.14-2.25-.08.73a13.84,13.84,0,0,0-1.07-2.18c-.08,0,.54,1.7.59,2s-.83-1.78-1-1.89.89,2.66.49,1.8c-.49-1-.8-1.67-.87-1.61s-.13.14-.24.08,0,.51.92,3.16c-1.7-4.08-1.79-4.06-.47-.08-1.58-3.84-1.65-3.81-.38.18a25.28,25.28,0,0,0-1.1-2.62c-.17.09-.83-1.21-.19,1.15.06.21.09.35,0,.07-.89-2.16-.7-1.32.13,1.41a14.59,14.59,0,0,0-1-2.41c-.13,0-.45-.51-.33.25s0,.59-.32.07-.44-.52-.34.17,0,.71-.33.07-.47-.65-.35.11,0,.61-.32.1-.44-.59-.36.08,0,.68-.33.09-.25,0-.37,0,0,.53.4,2c.25,1,.2.85-.07,0-.9-2.76-1-2.74-.31.13.23.95.17.78-.09-.07a8.5,8.5,0,0,0-.7-1.92c-.13-.13.66,3,.47,2.5a17.27,17.27,0,0,0-.87-2.39c-.09.11-.34-.38-.29.24s0,1-.34,0c0,0,0,0,0,0s.45,2.24.37,2.14-.65-2.14-.71-2.07-.38-.42-.34.28,0,.64-.3,0-.42-.64-.39.07-.06.66-.3.1-.43-.72-.38.06-.1.58-.34,0-.38-.61-.34.11-.12.6-.36,0-.26-.12-.36,0,0,.17,0,.2l2.09,10.54,0,0c.17.08.42.51.42-.18s.09-.76.38-.06.25,0,.4.09.12-.55-.41-3.24c.79,3.09,1.19,4.22.87,2.36s-.27-1.8.23-.05.38.68-.17-2.27a14,14,0,0,0,.89,2.85c.14,0,.42.42.4-.26s.09-.61.35-.09.46.56.43-.16,0-.78.35-.07.26,0,.42.14.12-.5-.53-3.17c1.28,4.18,1.43,4.1.44-.07,1.34,4.33,1.38,3.62.41-.18a25.22,25.22,0,0,0,.94,2.75c.23,0,.86,1.32.35-1.15-.06-.3,0-.12.09.11.68,1.73.68,1.46-.06-1.45a13.33,13.33,0,0,0,.93,2.39,3,3,0,0,1,.44-.15,4.28,4.28,0,0,0-.26-1.33c-.18-.69-.22-.87,0-.16.81,2.17.88,2,.15-.66-.25-.93-.21-.83.1,0a7.23,7.23,0,0,0,.81,1.9c.15.11-.76-3-.57-2.51a10.88,10.88,0,0,0,1,2.36c.09-.15.44.46.32-.32s0-.66.39,0-.74-2.65-.43-1.94a9.22,9.22,0,0,0,.89,1.86.69.69,0,0,1,.36-.18s0-.16-.17-.85-.1-.48.07-.14c.81,1.6.9,1.13.74,0,0-.12-.22-.74-.39-1.26-.27-.82-.26-.81,0-.08,1.08,2.57,1.21,2.61.48.26-.14-.46-.22-.69,0-.14,1.09,2.47,1.12,2.27.13-.74a11.51,11.51,0,0,0,1.06,2.19c.1,0-.5-1.71-.54-2s.83,1.78,1,1.89-.87-2.67-.47-1.81c.5,1,.83,1.66.9,1.59s.15-.16.28-.1,0-.52-1-3.15c1.81,4,2,4,.5.05,1.74,3.77,1.86,3.72.4-.21A20.87,20.87,0,0,0,121,763.9c.19-.11,1,1.13.2-1.19-.07-.2-.11-.34,0-.07,1.06,2.08.84,1.24-.21-1.4a12.22,12.22,0,0,0,1.24,2.31c.14-.06.54.44.36-.31s0-.61.36-.12.54.45.37-.23-.06-.71.37-.13.6.55.39-.19,0-.63.35-.18.57.5.39-.16-.05-.69.37-.17.29,0,.42-.08-.09-.53-.75-1.91c-.44-.93-.36-.8.07,0,1.42,2.53,1.56,2.47.31-.2-.41-.88-.32-.73.11,0a7.16,7.16,0,0,0,1.11,1.72c.17.09-1.27-2.84-1-2.35a14,14,0,0,0,1.4,2.13c.08-.14.46.27.28-.33s-.23-1,.38-.1c0,0,0,0,0,0s-1-2.07-.87-2,1.17,1.9,1.23,1.81.52.29.31-.38-.1-.65.32-.16.63.47.41-.21-.11-.66.3-.21.67.54.4-.2-.06-.6.36-.16.59.44.33-.24-.05-.62.39-.18.32,0,.4-.11,0-.1,0-.2Z" style="fill:#5020ee;"/><path d="M126.68,737.2l-.11-.08c-.14,0-.53-.33-.16.25s.34.66-.2.13-.15.06-.29,0,.22.49,1.9,2.65c-2.06-2.43-2.86-3.32-1.74-1.8s1.05,1.48-.12.09-.56-.51,1.21,1.91a23.48,23.48,0,0,0-1.94-2.26c-.07.07-.46-.28-.12.3s.23.55-.17.14-.55-.41-.2.21.32.69-.19.12-.17,0-.33-.06.15.46,1.7,2.72c-2.62-3.49-2.66-3.43-.28.14-2.68-3.66-2.39-3-.22.23l-1.13-1.57a6.89,6.89,0,0,0-.6-.77c-.15,0-1.07-1.08.22,1.08.15.26,0,.11-.1-.08-1.12-1.49-1-1.26.57,1.3a22.27,22.27,0,0,0-1.51-2.06,1.19,1.19,0,0,1-.24.17,6.84,6.84,0,0,0,.65,1.19c.37.62.45.77,0,.15-1.32-1.91-1.26-1.71.12.62.49.83.42.74-.08,0a11.86,11.86,0,0,0-1.19-1.68c-.14-.09,1.52,2.7,1.22,2.26a18.19,18.19,0,0,0-1.49-2.1c0,.14-.44-.4-.11.31s.18.61-.26,0,1.31,2.42.88,1.78a15.52,15.52,0,0,0-1.17-1.69.29.29,0,0,1-.19.17s0,.15.35.79.2.44,0,.13c-1-1.48-.92-1-.52,0,0,.12.34.69.59,1.17.4.76.38.75,0,.08-1.42-2.41-1.5-2.45-.41-.25.21.43.32.65,0,.13-1.37-2.32-1.32-2.15.07.69a19.12,19.12,0,0,0-1.25-2.08c-.06,0,.74,1.62.83,1.87s-1-1.7-1.1-1.8,1.19,2.54.72,1.72a7.89,7.89,0,0,0-1-1.54c0,.06-.07.14-.17.07s.08.48,1.28,3c-2.05-3.91-2.11-3.9-.39-.07-1.91-3.69-1.95-3.67-.27.17l-.87-1.73a5.38,5.38,0,0,0-.43-.78c-.12.08-.85-1.17,0,1.1.08.2.13.34,0,.07-1.05-2.08-.76-1.27.34,1.35a20,20,0,0,0-1.18-2.33c-.09,0-.43-.49-.21.23s.07.57-.23.06-.42-.51-.23.15.11.69-.24.06-.46-.63-.25.1.06.59-.23.09-.42-.58-.26.07.07.66-.24.08-.19,0-.29,0a8.27,8.27,0,0,0,.59,2c.33,1,.27.83,0,0-1.07-2.7-1.14-2.68-.22.12.3.93.24.77-.08-.07a11.67,11.67,0,0,0-.8-1.88c-.11-.13.91,3,.7,2.44a24.17,24.17,0,0,0-1-2.34c-.05.11-.31-.38-.19.23s.14.95-.26,0c0,0,0,0,0,0s.63,2.19.55,2.1-.76-2.1-.8-2-.33-.41-.22.27,0,.63-.22,0-.39-.63-.28.07,0,.65-.21.09-.4-.71-.27.06,0,.57-.25,0-.35-.61-.24.1,0,.59-.27,0-.2-.12-.27,0,0,.17,0,.2l2.62,10.42,0,0c.14.07.39.51.33-.18s0-.75.3-.06.21,0,.33.09,0-.55-.64-3.2c.94,3,1.38,4.16.94,2.32s-.4-1.78.18-.05.38.67-.37-2.24a17,17,0,0,0,1,2.8c.11,0,.39.41.3-.26s0-.6.28-.09.44.54.34-.16-.06-.77.28-.07.21,0,.36.13,0-.49-.8-3.1c1.54,4.09,1.66,4,.35-.07,1.61,4.24,1.57,3.54.31-.18.47,1.21,1,2.69,1.11,2.69s.87,1.28.15-1.13c-.09-.29,0-.12.09.1.78,1.69.75,1.42-.23-1.41a16.17,16.17,0,0,0,1.07,2.32,2,2,0,0,1,.35-.15,5.18,5.18,0,0,0-.39-1.3c-.24-.68-.3-.85,0-.16,1,2.11,1,1.89,0-.65-.34-.9-.29-.8.08,0a8.78,8.78,0,0,0,.93,1.84c.14.1-1-2.91-.82-2.44a13.12,13.12,0,0,0,1.19,2.28c.06-.14.43.44.22-.32s-.06-.64.32,0-1-2.56-.64-1.88a11.17,11.17,0,0,0,1,1.79.47.47,0,0,1,.28-.18s0-.16-.26-.82-.15-.46,0-.14c.92,1.54.92,1.08.62,0,0-.12-.29-.71-.52-1.21-.35-.79-.34-.78,0-.08,1.3,2.47,1.42,2.5.44.25-.19-.44-.29-.66,0-.13,1.3,2.36,1.29,2.17,0-.72a14,14,0,0,0,1.23,2.1c.08,0-.7-1.64-.77-1.9s1,1.7,1.12,1.8-1.17-2.55-.68-1.73c.59,1,1,1.58,1,1.51s.1-.16.22-.1,0-.5-1.33-3c2.19,3.84,2.32,3.78.42,0,2.1,3.58,2.2,3.53.29-.21a25.32,25.32,0,0,0,1.49,2.41c.14-.11,1,1.05,0-1.14-.09-.19-.16-.32,0-.07,1.26,2,.93,1.17-.43-1.33a14.86,14.86,0,0,0,1.46,2.17c.11-.06.54.4.25-.31s-.12-.58.28-.13.54.41.28-.23-.18-.68.29-.13.61.51.29-.19-.14-.59.26-.18.58.45.3-.17-.18-.65.28-.17.24-.05.35-.09-.18-.5-1-1.78c-.56-.86-.47-.74,0,0,1.72,2.34,1.82,2.27.22-.2-.53-.82-.42-.68.1,0a8.65,8.65,0,0,0,1.29,1.58c.17.08-1.66-2.63-1.31-2.18a16.84,16.84,0,0,0,1.63,2c0-.14.45.24.17-.32s-.39-.89.3-.11c0,0,0,0,0,0s-1.26-1.9-1.16-1.84,1.4,1.74,1.43,1.65.51.25.19-.37-.22-.6.24-.16.64.41.3-.21-.24-.61.22-.21.7.47.3-.21-.18-.55.28-.16.61.38.24-.24-.19-.57.29-.19.28,0,.33-.12,0-.09-.08-.18Z" style="fill:#5020ee;"/><path d="M181,479.52c-.21-1-.53-2.1-.76-3.19s-.55-2.22-.94-3.41a14.66,14.66,0,0,0-1.34-3.12,19.16,19.16,0,0,0-2.16-2.91,13.31,13.31,0,0,0-1.3-1.33c-.47-.41-.91-.86-1.41-1.24l-1.51-1.11-.75-.55-.77-.47c-4.17-2.61-8.37-2.8-11-.48a12.42,12.42,0,0,0-2.7-2.32,11.4,11.4,0,0,0-3.08-1.26,9,9,0,0,0-3-.09,6.54,6.54,0,0,0-2.59,1.12c-2.87,2.25-4.18,2.49-7.66,1.61a5.29,5.29,0,0,0-2.62,0,7.18,7.18,0,0,0-2.62,1.18,10.84,10.84,0,0,0-2.45,2.33,15.17,15.17,0,0,0-2,3.37,9.19,9.19,0,0,0-3.59,0,7.89,7.89,0,0,0-3.72,1.86c-3.79,3.08-7.61,6.36-10.19,10.22a51.58,51.58,0,0,1-7.1,8.85,41,41,0,0,0-8.06,11.7,29.69,29.69,0,0,1-5.9,9.06c-2.47,2.55-4.07,6.13-6.25,9.07A16.34,16.34,0,0,0,82.86,523a7.76,7.76,0,0,0-.16,4.77c-6.42,1.3-9.08,4.84-8.41,11.15A9.34,9.34,0,0,0,66,550.29c-1.78.24-3.86.4-5.14,2.12-4,5.45-9.25,10.29-10.95,17.08a2.18,2.18,0,0,1-1.17,1.45c-4.4,3-5.31,4.81-5.24,10-2.06.68-4.09,1.42-5.63,3.68L30,596.22a7.41,7.41,0,0,0-1.34,4.44,2.05,2.05,0,0,1-1.44,2.42c-4.11,2-5.9,5.06-5.44,9.34.16,1.51-.15,1.79-1.43,2.06-2,.41-3.5,1.8-4.87,3.74-1.91,2.67-.69,6.78-1.69,7.36C11.3,627,9,628.08,7.31,631c-1,1.76-2.29,3.46-3.44,5.18a19.57,19.57,0,0,0-3,6.23,24,24,0,0,0-.79,8.18,20.74,20.74,0,0,0,2.44,7.75,5.82,5.82,0,0,0,3.93,2.81c1.37.37,2.56.51,3.13,1.46.71,1.16,1.36,2.27,2.09,3.27a10.78,10.78,0,0,0,2.73,2.72q5.06,3.46,10.07,7a7,7,0,0,0,3.73,1.55c1.54,0,2,.81,3,2,4.63,5.37,10.67,9,17,12.1a4.16,4.16,0,0,0,2.47.1c1.17-.24,1.49,0,1.92,1.24,1.55,4.43,4,6.22,8.91,6.55,1,.06,1.37.05,1.93,1.16,2.48,4.92,4.61,6.13,10.31,6.15a9.72,9.72,0,0,0,3.85,5.48c2.29,1.56,4.68,1,6.5,1.86s2.1,3.74,4.42,5.44c2.46,1.82,5.7.39,6.92,2.33a17.23,17.23,0,0,0,5.49,5.75c2.56,1.63,5.15,3.24,7.64,5,3.16,2.21,6.28,3.49,9.44,2.18a20.53,20.53,0,0,0,1.48,3.94,8.59,8.59,0,0,0,1.56,2.29,3.8,3.8,0,0,0,.84.61c.3.18.63.25,1,.47s.93.36,1.41.57l.84.34.87.45a10,10,0,0,1-1.15,1.39l-1,.95a6.19,6.19,0,0,0-.75.82,2.33,2.33,0,0,0-.26.43,3.36,3.36,0,0,0-.23.49,9,9,0,0,0-.42,2.73c-.07,1.18,0,2.62.06,4.41-1.76.22-3.82.62-5.05,2.77.1-.13-.35.43-.93,1a20,20,0,0,0-2.18,2.56,10.1,10.1,0,0,0-1.2,2.3,8.66,8.66,0,0,0-.52,3.45,9.65,9.65,0,0,0,.33,1.86c.09.28.19.56.3.84l.17.41.12.26a12.26,12.26,0,0,0,1.15,1.9,9.68,9.68,0,0,0,.87,1l.53.51c.2.18.43.35.65.51a8.79,8.79,0,0,0,1.55.91,8.35,8.35,0,0,0,3.81.7,8.62,8.62,0,0,0,1.69-.28,9,9,0,0,0,2.5-1.11,10.58,10.58,0,0,0,2.78-2.64,11.58,11.58,0,0,0,1.48-2.7,2.29,2.29,0,0,1,1.05-1.44,10,10,0,0,0,4.7-4.93,10.21,10.21,0,0,0,.39-6.19,8.13,8.13,0,0,0,5-4.38c2-4.37,4.53-8.66,5.46-13.3l.37-1.72.31-1.59c.2-1,.44-2,.67-3a54.27,54.27,0,0,0,1.25-6.79,16.53,16.53,0,0,0-.16-4.41,17.35,17.35,0,0,0-1.37-4.36,21.46,21.46,0,0,0-4.64-6.37,46.06,46.06,0,0,1-4.16-4.35,35.8,35.8,0,0,1-3.34-4.89,38.18,38.18,0,0,0-8.53-10.15,37,37,0,0,1-7.76-9,43.12,43.12,0,0,0-8.53-9.72,38.87,38.87,0,0,1-8.19-9.1c-2.26-3.41-5.62-6.25-8.47-9.35-1.69-1.85-3.58-3.06-5.69-3.07-1.4,0-1.59-.41-1.61-1.73a16.41,16.41,0,0,0-.46-4.51,2.6,2.6,0,0,0-.77-1,10.09,10.09,0,0,1-1.43-1.66c-.7-1.08-.32-1.44.77-1.62a7.77,7.77,0,0,0,4.43-2.64,8,8,0,0,0,1.74-3.95c.29-1.35.45-2.52,1.13-2.78,2.47-1,4.88-1.22,7.11-3.43,2.83-2.83,6.26-5.22,8.73-8.25s5.14-5.79,8.73-7.53a1.61,1.61,0,0,0,.27-.22c2-1.66,1.69-4.48,3.07-5.53,1.58-1.21,4.13-.62,6.19-2.5,3.47-3.15,7.5-6,10.36-9.59a44.75,44.75,0,0,1,3.67-4.11,41.12,41.12,0,0,1,4.25-3.56,16.33,16.33,0,0,0,1.41-1.1q.73-.66,1.44-1.37a24.29,24.29,0,0,0,2.56-3c.39-.51.79-1,1.13-1.56s.66-1.06,1-1.59a28.17,28.17,0,0,0,1.68-3.23,56.55,56.55,0,0,1,2.61-5.17,52.23,52.23,0,0,1,3.2-4.78c.68-.91,1.35-1.86,2-2.85s1.19-2,1.73-3.09a31.72,31.72,0,0,0,2.52-6.46,38.12,38.12,0,0,1,2-5.76c.84-1.78,1.74-3.53,2.8-5.35a35.86,35.86,0,0,0,2.75-5.85,29.11,29.11,0,0,0,1.64-6.21,47.14,47.14,0,0,1,1.5-6.48c.68-2.05,1.42-4.09,2.27-6.21a30,30,0,0,0,1.68-6.08c.45-2.09.66-4.27,1-6.39a14.07,14.07,0,0,0,.13-2.09H182c0-.22.1-.43.13-.66.36-2.38.68-4.84.84-7.31a27.72,27.72,0,0,0-.5-7.37C181.94,483.65,181.5,481.61,181,479.52Z" style="fill:#5020ee;"/><path d="M609.54,647.15a13.19,13.19,0,0,0-1.56-4.6c-1.33-2.32-2.57-4-3.56-5.67a42.55,42.55,0,0,1-2.64-5.13,43.59,43.59,0,0,0-7.18-11.17,35,35,0,0,1-6.39-9.9,38.52,38.52,0,0,0-7.31-11.06,36.81,36.81,0,0,1-6.64-9.86A43.51,43.51,0,0,0,567,579.06a38.58,38.58,0,0,1-7-10c-1.81-3.67-4.78-6.91-7.21-10.36-1.45-2-3.15-3.5-5.24-3.79-1.4-.19-1.54-.63-1.48-2a8.62,8.62,0,0,0-6.82-9.27c-1.51-.4-1.6-.82-1.42-2.08.28-2-.51-3.9-1.83-5.88-1.83-2.74-6-2.79-6.31-4.2-.65-2.61-.6-5.12-2.47-7.56-1.21-1.55-2.25-3.32-3.36-5a35.42,35.42,0,0,0-3.53-4.8c-2.71-3-5-6-6.22-9.78a1.65,1.65,0,0,0-.18-.3c-1.38-2.24-4.24-2.32-5.09-3.83-1-1.73-.12-4.21-1.79-6.51-2.75-3.88-5.33-8.23-8.84-11.41-1.53-1.31-2.77-2.64-4.06-4s-2.38-2.81-3.65-4.42a26.51,26.51,0,0,0-2.38-2.8c-.89-.88-1.83-1.74-2.8-2.57a33.72,33.72,0,0,0-3.12-2.21q-.8-.51-1.6-1a20,20,0,0,0-1.92-.94c-2.22-.93-4.19-1.6-6.12-2.29l-5.9-2.12a26.5,26.5,0,0,0-15.08-1l-6.65,1.63a58,58,0,0,0-6.76,2,18.55,18.55,0,0,0-6.79,4.5c-.49.52-.94,1.1-1.39,1.66s-.8,1.2-1.15,1.81-.63,1.24-.9,1.93a12.61,12.61,0,0,0-.63,2.12,76.31,76.31,0,0,0-1,7.72l-.69,6.91c-.44,4.24.34,8.58.93,12.75.06.4.26.75.35,1.12a11.82,11.82,0,0,0,.08,1.55c.55,4.65.94,9.5,2.51,13.73a39,39,0,0,1,2.63,11.46c.27,3.66,1.94,7.38,3,11.1s2.94,6.81,6.4,7.73a12.66,12.66,0,0,0-.18,6.49,7.56,7.56,0,0,0,.48,1.39,7.47,7.47,0,0,0,.75,1.16,6.17,6.17,0,0,0,2.07,1.7,8,8,0,0,1,3.13,2.37,7,7,0,0,1,1,3.75c.17,3.42,3.42,5.75,8.49,7.22a8.65,8.65,0,0,0,2.18,7c1.6,1.7,3.13,3.51,4.7,5.25a38.53,38.53,0,0,0,5.06,4.66,45.09,45.09,0,0,1,4.27,3.55,43.42,43.42,0,0,1,3.71,4.12,45.53,45.53,0,0,0,10.34,9.47,28.76,28.76,0,0,1,8,7.25c2.12,2.86,5.41,5,8,7.66,2.72,2.8,5.58,4.59,9,4.13.22,3.28,1.1,5.62,2.62,7.24s3.89,2.41,6.9,2.66a20.25,20.25,0,0,0-.15,3.89,8.72,8.72,0,0,0,.38,2.39,4.75,4.75,0,0,0,1,1.46,15.61,15.61,0,0,1,1.59,2.45c-1.64.34-3.37.09-4.57,1.43-1,1.05-2.27,2.27-3.51,3.44s-2.5,2.35-3.68,3.59a25.79,25.79,0,0,0-5.75,8.4,2.2,2.2,0,0,1-1.35,1.29c-4.74,2.46-5.89,4.12-6.46,9.26-2.12.43-4.25.91-6.05,3L484.24,687a7.37,7.37,0,0,0-1.86,4.26c-.09,1.21-.3,1.74-1.72,2.24-4.33,1.53-6.45,4.38-6.5,8.68,0,1.52-.36,1.77-1.65,1.89-2,.19-3.68,1.42-5.27,3.19a8.54,8.54,0,0,0-1.74,4.5c-.22,1.53-.22,2.77-.75,3.12a14.44,14.44,0,0,0-3.6,3.13,9.75,9.75,0,0,0-2,5.41,33.22,33.22,0,0,0,.36,7.76,24.58,24.58,0,0,0,.81,3.38c.17.52.35,1,.55,1.52l.15.36c.07.18.15.37.21.5.14.29.26.52.4.75a35.58,35.58,0,0,1,4.32,10.88c.73,3,4.56,3.34,4.72,5.42.22,2.6.16,5,1.71,7.61,1.12,1.87,2.28,3.74,3.64,5.62.68.94,1.41,1.88,2.25,2.84a20,20,0,0,0,3.1,2.9,9.11,9.11,0,0,0,3.8,1.69,6.74,6.74,0,0,0,1.28.12,6.3,6.3,0,0,0,1.32-.12,5.61,5.61,0,0,0,2.26-1,18.83,18.83,0,0,0,2.75-2.69l1-1.09c.18-.19.31-.37.47-.57a3.81,3.81,0,0,0,.55-.82,7.08,7.08,0,0,0,.88-3.28,8.53,8.53,0,0,0-.13-1.67,10.2,10.2,0,0,0-.38-1.4,14.71,14.71,0,0,0-2-3.62c-.6-.83-1.12-1.5-1.23-1.74h0l-.36-.65c-.24-.44-.49-.86-.74-1.25-2-3.18-4.16-5.56-5.48-7.71a2.12,2.12,0,0,0-.71-.61c-.3-.17-.67-.33-.95-.46-.46-.2-.71-.41-.76-.66s.19-.53.56-.88c1.45-1.19,2.39-1.47,2.93-2.34a5.27,5.27,0,0,0,.55-1.46c.16-.61.38-1.43.72-2.46.27-.8.4-1.19,1.56-1.25,5.4-.29,7.44-1.79,9.69-7a9.74,9.74,0,0,0,6.57-1.36c2.34-1.49,2.75-3.91,4.3-5.23s4.27-.45,6.76-1.9c2.65-1.55,2.62-5.08,4.89-5.44a17.28,17.28,0,0,0,7.47-2.77c2.52-1.71,5-3.45,7.6-5,3.28-2,5.7-4.39,5.76-7.81,6.48,1,9.95-1.36,11.79-7.69,6.47.62,9.28-1.3,11.73-8.07,1.72.49,3.79.84,5.54-.38,5.47-3.82,11.93-6.53,15.8-12.23a1.71,1.71,0,0,1,1.26-1c5-.63,7.56-3.51,8.71-7.81a7.67,7.67,0,0,0,6.82-2.29,26.22,26.22,0,0,0,3-3.57,16.08,16.08,0,0,0,2.29-4.82A13.38,13.38,0,0,0,609.54,647.15ZM491.86,756.79s0,0,0,0h0Zm-.7.47-.12.07-.37.21-.19.1-.09,0h0Z" style="fill:#5020ee;"/><path d="M480,768.67a.28.28,0,0,0-.05.14c0,.18-.16.64.4.22s.66-.39.27.26.15.2.16.37.51-.24,2.35-2.27c-2,2.48-2.67,3.48-1.37,2.11s1.29-1.28.18.15-.33.71,1.73-1.48a14.13,14.13,0,0,0-1.77,2.4c.12.09-.09.58.45.17s.55-.29.28.23-.18.7.39.26.66-.42.27.25.14.22.13.42.48-.19,2.29-2.25c-2.67,3.46-2.52,3.54.32.33-2.78,3.59-2.17,3.21.4.25a24.81,24.81,0,0,0-1.72,2.35c.14.19-.58,1.46,1.17-.36.21-.22.1-.06,0,.14-1,1.55-.81,1.4,1.17-.86a12.9,12.9,0,0,0-1.43,2.13,3.31,3.31,0,0,1,.38.29s.38-.31,1-1,.59-.67.16,0q-2,2.86.65-.24c.62-.73.56-.64,0,.11a6.88,6.88,0,0,0-1.1,1.74c0,.19,2.05-2.32,1.76-1.88a10.39,10.39,0,0,0-1.34,2.21c.18,0-.11.63.46.09s.57-.33.24.33,1.77-2.1,1.37-1.45a8.65,8.65,0,0,0-1,1.8.78.78,0,0,1,.38.21s.17-.05.62-.61.34-.35.16,0c-.85,1.58-.4,1.4.42.66.09-.08.49-.6.81-1,.52-.69.52-.67.1,0-1.5,2.36-1.44,2.49.08.55.3-.38.44-.57.13-.06-1.39,2.31-1.21,2.22.71-.3a10.64,10.64,0,0,0-1.18,2.13c.06.08,1.12-1.39,1.32-1.57s-1,1.71-1,1.89,1.69-2.24,1.23-1.41c-.56,1-.87,1.64-.76,1.67s.23,0,.27.19.47-.25,2-2.59c-2.22,3.82-2.08,3.93.28.46-2,3.62-1.92,3.71.43.22a18.6,18.6,0,0,0-1.32,2.51c.22.1-.29,1.48,1.14-.51.12-.17.21-.29.08,0-1,2.1-.47,1.43,1-1a11,11,0,0,0-1.1,2.38c.14.09,0,.71.52.13s.5-.36.36.23,0,.72.46.18.55-.47.37.23,0,.83.44.21.51-.39.4.19,0,.77.42.23.53-.46.41.2.25.21.39.3.37-.4,1-1.79c.43-.93.39-.79.09,0-1,2.72-.84,2.8.4.12.41-.89.35-.72,0,.12a6.2,6.2,0,0,0-.56,2c.06.2,1.34-2.81,1.17-2.26a11.84,11.84,0,0,0-.65,2.47c.18,0,.15.54.5,0s.59-.8.39.23c0,0,0,0,0,0s.9-2.1.92-2-.6,2.16-.48,2.14.19.6.57,0,.44-.51.4.14.15.79.51.17.43-.53.42.09.15.87.5.16.42-.46.44.15.18.74.49.07.43-.48.48.15.28.24.45.21a1.85,1.85,0,0,0,.08-.19l2-10.56a.31.31,0,0,0,0-.06c-.1-.13-.11-.63-.36,0s-.34.67-.28-.09-.17-.09-.24-.23-.29.47-1,3.11c.66-3.11.88-4.29.33-2.49s-.58,1.72-.18-.05.05-.77-.88,2.09a19.25,19.25,0,0,0,.65-2.91c-.12,0-.08-.55-.38.06s-.36.5-.27-.08,0-.7-.36-.08-.42.64-.26-.11-.16-.14-.19-.32-.33.37-1.37,2.91c1.42-4.13,1.34-4.13-.37-.2,1.56-4.26,1.19-3.69-.41-.1.46-1.21,1-2.69,1-2.73s.27-1.51-.92.72c-.14.27-.08.09,0-.14.63-1.75.49-1.54-.87,1.14a17.33,17.33,0,0,0,.91-2.39,2.09,2.09,0,0,1-.35-.15,5.31,5.31,0,0,0-.7,1.16c-.34.63-.43.79-.13.09.92-2.13.76-2-.54.39-.46.84-.43.74,0-.09a9,9,0,0,0,.79-1.91c0-.18-1.57,2.67-1.36,2.18a13.79,13.79,0,0,0,1-2.38c-.15,0,.07-.61-.4,0s-.48.44-.22-.24c.21-.53-1.46,2.33-1.13,1.63a11.52,11.52,0,0,0,.83-1.89.51.51,0,0,1-.32-.13s-.14.08-.53.69-.3.39-.14,0c.74-1.63.37-1.36-.37-.55-.08.09-.44.63-.74,1.09-.47.72-.47.7-.09,0,1.37-2.44,1.35-2.54-.06-.53-.27.39-.41.59-.12.07,1.31-2.36,1.17-2.23-.65.35a13.81,13.81,0,0,0,1.16-2.14c0-.07-1.07,1.42-1.27,1.61s1-1.7,1-1.87-1.67,2.26-1.2,1.43c.58-1,.9-1.62.82-1.64s-.2,0-.21-.16-.43.27-2.07,2.55c2.38-3.73,2.31-3.79-.22-.44,2.25-3.49,2.19-3.54-.38-.22a24.15,24.15,0,0,0,1.52-2.39c-.18-.09.51-1.38-1.08.48-.14.16-.24.27-.07,0,1.27-2,.68-1.33-1.1.9a13.88,13.88,0,0,0,1.41-2.2c-.11-.09.15-.67-.41-.15s-.51.3-.25-.24.17-.66-.35-.2-.6.39-.26-.24.25-.77-.32-.25-.54.3-.29-.22.22-.71-.29-.26-.59.35-.28-.24-.14-.23-.22-.34-.43.31-1.44,1.47c-.67.77-.59.65-.07,0,1.75-2.32,1.66-2.4-.3-.2-.65.73-.55.59,0-.12a7.76,7.76,0,0,0,1.16-1.69c0-.19-2.12,2.28-1.79,1.81a15.3,15.3,0,0,0,1.44-2.1c-.15,0,.09-.52-.39-.12s-.79.57-.22-.3c0,0,0,0,0,0s-1.57,1.66-1.54,1.54,1.36-1.78,1.26-1.79.1-.57-.45-.14-.56.32-.24-.24.24-.74-.32-.3-.58.33-.29-.21.3-.8-.31-.3-.54.25-.25-.29.24-.69-.33-.23-.57.25-.28-.3-.08-.3-.22-.34-.09,0-.17.1Z" style="fill:#5020ee;"/><path d="M477.66,758.67a.29.29,0,0,0,0,.14c.07.17,0,.66.43.16s.59-.5.31.21.18.17.23.34.46-.32,1.91-2.65c-1.53,2.8-2,3.9-1,2.32s1-1.5.2.12-.19.76,1.42-1.78a14,14,0,0,0-1.29,2.69c.14.06,0,.59.47.08s.48-.39.32.17,0,.72.43.18.56-.55.3.18.18.19.21.39.43-.29,1.77-2.68c-1.91,3.93-1.75,4,.37.25-2,4.08-1.46,3.59.42.15a25.18,25.18,0,0,0-1.19,2.66c.17.15-.27,1.55,1-.6.16-.26.09-.09,0,.14-.68,1.73-.5,1.53.95-1.1a13.3,13.3,0,0,0-.95,2.38,3,3,0,0,1,.42.19,4.26,4.26,0,0,0,.72-1.16c.34-.63.43-.79.14-.08-.89,2.15-.69,2,.57-.38.44-.85.41-.75,0,.09a7.22,7.22,0,0,0-.7,1.94c0,.18,1.49-2.72,1.29-2.22a10.87,10.87,0,0,0-.84,2.44c.17,0,0,.64.45,0s.48-.46.29.26c-.14.56,1.26-2.44,1-1.72a9.21,9.21,0,0,0-.61,2,.69.69,0,0,1,.39.11s.14-.09.46-.74.26-.42.15-.05c-.5,1.73-.11,1.44.51.54.07-.1.34-.69.57-1.18.36-.78.36-.77.09,0-1,2.62-.89,2.73.17.52.21-.43.31-.66.11-.08-.88,2.55-.73,2.42.6-.45a11.52,11.52,0,0,0-.72,2.33c.07.06.8-1.59,1-1.81s-.61,1.87-.58,2,1.18-2.55.89-1.64c-.34,1.1-.52,1.78-.42,1.78s.22,0,.28.12.39-.35,1.44-3c-1.42,4.19-1.28,4.25.33.38-1.3,3.95-1.18,4,.44.12a20.79,20.79,0,0,0-.82,2.71c.21,0-.06,1.49,1-.74.09-.2.15-.33.07,0-.64,2.25-.23,1.48.8-1.17a12.19,12.19,0,0,0-.67,2.53c.15,0,.1.69.48,0s.41-.45.35.15.09.7.43.09.44-.56.36.15.06.81.42.12.41-.47.37.11.08.75.4.15.43-.54.38.13.24.16.36.23.29-.45.76-1.91c.31-1,.28-.83.08,0-.68,2.82-.54,2.87.36.06.3-.93.26-.76.05.11a7.18,7.18,0,0,0-.36,2c.06.18,1-2.94.89-2.38a14,14,0,0,0-.42,2.51c.15-.05.15.51.43-.05s.48-.85.35.18c0,0,0,0,0,0s.7-2.17.72-2.05-.44,2.19-.34,2.16.18.57.49-.07.37-.54.34.1.14.77.44.12.37-.56.36.05.12.85.43.12.37-.48.37.13.14.72.41,0,.39-.49.41.13.23.22.37.19.06-.16.08-.19l2.09-10.54a.33.33,0,0,0,0-.06c-.1-.13-.14-.63-.39,0s-.36.67-.31-.09-.19-.09-.27-.24-.3.46-.95,3.13c.58-3.13.74-4.32.24-2.5s-.52,1.74-.2,0,0-.77-.8,2.12a16.91,16.91,0,0,0,.49-2.94c-.13,0-.13-.55-.41.07s-.33.52-.3-.06-.1-.7-.39-.05-.38.67-.29-.09-.18-.13-.24-.31-.31.39-1.09,3c1-4.25.88-4.25-.38-.16,1.08-4.41.74-3.8-.42-.05.32-1.26.71-2.8.66-2.83s0-1.54-.84.82c-.11.29-.07.1,0-.14.39-1.82.27-1.59-.71,1.25a16.16,16.16,0,0,0,.57-2.5,2.23,2.23,0,0,1-.38-.1,5.07,5.07,0,0,0-.52,1.25c-.24.68-.31.84-.12.11.58-2.25.44-2.09-.48.47-.32.9-.3.8,0-.09a8.7,8.7,0,0,0,.47-2c0-.17-1.12,2.89-1,2.37a13.27,13.27,0,0,0,.58-2.51c-.14.07,0-.62-.39.09s-.4.51-.27-.21c.11-.56-1,2.56-.82,1.81a11.2,11.2,0,0,0,.48-2,.51.51,0,0,1-.34-.07s-.12.11-.39.77-.22.44-.13.07c.42-1.74.1-1.42-.46-.47-.06.11-.31.71-.51,1.21-.32.8-.33.78-.08,0,.87-2.66.82-2.76-.15-.5-.19.44-.29.67-.1.09.82-2.57.7-2.42-.55.48a13.88,13.88,0,0,0,.7-2.33c-.06-.06-.76,1.61-.91,1.84s.61-1.87.59-2-1.16,2.56-.87,1.65a5.81,5.81,0,0,0,.47-1.77c-.09,0-.19,0-.23-.11s-.36.36-1.48,2.94c1.54-4.14,1.45-4.19-.29-.38,1.46-3.89,1.39-3.92-.4-.12a25.24,25.24,0,0,0,1-2.66c-.19-.05.22-1.45-.92.71-.1.19-.17.32-.06,0,.82-2.19.38-1.44-.86,1.12a14.64,14.64,0,0,0,.9-2.45c-.12-.06,0-.68-.41,0s-.42.41-.28-.17,0-.68-.36-.11-.48.52-.29-.17.1-.79-.34-.16-.45.42-.3-.14.08-.73-.32-.18-.49.48-.3-.16-.17-.19-.26-.27-.35.4-1.08,1.74c-.49.9-.44.76-.07,0,1.23-2.63,1.13-2.68-.31-.12-.48.85-.41.69,0-.11a8.5,8.5,0,0,0,.79-1.88c0-.18-1.59,2.67-1.36,2.15a17.21,17.21,0,0,0,1-2.34c-.14,0,0-.51-.38,0s-.64.73-.25-.24c0,0,0,0,0,0s-1.2,1.94-1.19,1.82,1-2,.89-2,0-.56-.44,0-.47.43-.25-.17.13-.76-.33-.21-.49.44-.29-.13.18-.82-.32-.21-.47.35-.26-.22.14-.71-.32-.15-.5.35-.29-.22-.11-.26-.24-.27-.08.05-.15.13Z" style="fill:#5020ee;"/><path d="M475.21,745.33a.32.32,0,0,0-.06.13c0,.16-.19.61.34.16s.62-.43.22.21.12.17.12.33.47-.28,2.23-2.38c-1.93,2.54-2.58,3.54-1.35,2.11s1.21-1.36.15.12-.33.7,1.6-1.6a17,17,0,0,0-1.69,2.45c.1.06-.11.55.38.1s.5-.34.24.17-.18.67.33.18.59-.49.22.18.11.18.1.37.43-.25,2.06-2.45c-2.44,3.63-2.3,3.68.26.24-2.51,3.78-2,3.33.33.15-.71,1.09-1.58,2.42-1.54,2.46s-.53,1.45,1-.54c.19-.24.09-.08,0,.13-.92,1.61-.72,1.44,1-1a16.13,16.13,0,0,0-1.26,2.22,2,2,0,0,1,.32.2,5.18,5.18,0,0,0,.83-1.08c.41-.59.52-.74.14-.08-1.16,2-1,1.9.55-.35.54-.8.49-.7,0,.09a8.78,8.78,0,0,0-1,1.82c0,.18,1.76-2.55,1.51-2.08a13.19,13.19,0,0,0-1.17,2.3c.15,0-.1.61.39,0s.48-.42.2.25,1.51-2.3,1.16-1.61a11.16,11.16,0,0,0-.87,1.86.47.47,0,0,1,.31.12s.14-.08.52-.69.29-.4.13,0c-.72,1.64-.34,1.38.34.52.08-.1.41-.65.68-1.12.43-.74.44-.73.08,0-1.26,2.49-1.21,2.6.05.5.25-.41.37-.62.11-.08-1.17,2.43-1,2.31.58-.43a14,14,0,0,0-1,2.22c.05.06.93-1.52,1.1-1.73s-.82,1.79-.82,2,1.4-2.43,1-1.57a5.9,5.9,0,0,0-.64,1.71c.09,0,.19,0,.21.12s.38-.33,1.67-2.83c-1.85,4-1.73,4.09.21.37-1.7,3.79-1.59,3.84.34.12a25.27,25.27,0,0,0-1.1,2.61c.17,0-.27,1.44.91-.7.1-.19.17-.32.06,0-.86,2.17-.41,1.44.83-1.12a14.83,14.83,0,0,0-.92,2.45c.11,0,0,.67.4,0s.4-.43.27.15,0,.68.34.09.44-.54.27.16-.06.79.33.13.4-.46.3.11,0,.73.31.15.43-.52.3.13.18.16.27.23.3-.44.86-1.86c.38-1,.34-.81.06,0-.91,2.76-.79,2.8.29.07.36-.91.31-.74,0,.11a8.68,8.68,0,0,0-.54,2c0,.18,1.17-2.88,1-2.33a16.86,16.86,0,0,0-.64,2.46c.13,0,.07.5.36,0s.49-.83.27.18c0,0,0,0,0,0s.81-2.13.82-2-.6,2.15-.51,2.13.09.56.41-.06.36-.53.27.1,0,.76.35.12.36-.55.29.06,0,.84.34.12.34-.47.29.13,0,.71.33.05.36-.48.32.13.17.22.29.19.06-.16.08-.19l2.62-10.42a.37.37,0,0,0,0-.06c-.06-.13,0-.62-.29,0s-.34.66-.22-.08-.13-.09-.18-.23-.27.46-1.06,3.09c.78-3.09,1-4.25.46-2.46s-.59,1.72-.14,0,.09-.76-.85,2.09a23.37,23.37,0,0,0,.72-2.89c-.09,0,0-.54-.32.07s-.32.51-.22-.06,0-.68-.29,0-.37.66-.21-.09-.12-.12-.14-.3-.29.39-1.23,3c1.32-4.16,1.25-4.16-.28-.15,1.42-4.31,1.09-3.71-.32,0l.62-1.83a6.89,6.89,0,0,0,.28-.93c-.12-.11.26-1.5-.75.81-.12.28-.06.1,0-.13.56-1.77.44-1.54-.73,1.22a22.31,22.31,0,0,0,.8-2.43,1.2,1.2,0,0,1-.27-.1,6.88,6.88,0,0,0-.59,1.22c-.29.66-.37.82-.11.11.79-2.18.66-2-.44.46-.39.88-.36.77,0-.08A11.79,11.79,0,0,0,492,743c0-.17-1.31,2.8-1.13,2.3a18.32,18.32,0,0,0,.85-2.43c-.12.07.07-.59-.31.09s-.39.5-.17-.2c.17-.54-1.21,2.47-.93,1.75a15.42,15.42,0,0,0,.7-1.94.29.29,0,0,1-.25-.06s-.11.1-.43.75-.25.42-.11.07c.62-1.68.32-1.36-.28-.45-.07.1-.36.68-.61,1.17-.39.77-.39.75-.07,0,1.14-2.55,1.13-2.64,0-.48-.23.42-.34.64-.1.09,1.09-2.47,1-2.32-.52.46a19.07,19.07,0,0,0,1-2.23c0-.05-.88,1.55-1,1.76s.82-1.79.83-1.94-1.38,2.44-1,1.58a7.93,7.93,0,0,0,.69-1.69c-.07,0-.15,0-.16-.1s-.35.34-1.71,2.8c2-3.94,1.94-4-.16-.36,1.89-3.7,1.85-3.72-.3-.12l.9-1.71a5.32,5.32,0,0,0,.39-.81c-.14,0,.46-1.37-.86.68-.12.18-.2.3-.06,0,1.08-2.07.59-1.36-.91,1.06a20,20,0,0,0,1.21-2.32c-.08-.05.15-.64-.31,0s-.42.39-.18-.16.17-.64-.26-.1-.49.49-.19-.16.25-.74-.23-.14-.45.39-.21-.13.23-.68-.21-.17-.5.45-.21-.15-.09-.17-.15-.25a8.28,8.28,0,0,0-1.26,1.62c-.59.83-.52.71,0,0,1.57-2.44,1.52-2.48-.23-.11-.58.79-.49.64,0-.11a11.6,11.6,0,0,0,1.06-1.74c0-.17-1.89,2.47-1.58,2a24,24,0,0,0,1.34-2.16c-.12,0,.13-.47-.3,0s-.69.67-.14-.21c0,0,0,0,0,0s-1.42,1.78-1.39,1.67,1.27-1.84,1.19-1.83.14-.51-.34,0-.49.4-.16-.16.29-.69-.22-.19-.51.4-.2-.12.35-.74-.21-.19-.47.32-.16-.2.3-.64-.22-.14-.5.32-.18-.2,0-.24-.12-.25a.52.52,0,0,0-.15.12Z" style="fill:#5020ee;"/><path d="M489.57,1188.18a8.77,8.77,0,0,1-1.75-5.08c-.15-1.71-1.29-3.06-2.16-4.42-.08-.13-.29-.17-.4-.28l-4.56,2.76h0l4.56-2.76a1.66,1.66,0,0,0-.17-.54c-.78-1.48-1.32-3.21-2.79-4.16a4.86,4.86,0,0,1-2.44-3.49c-.25-1.45-1.64-2.25-2.46-3.42s-2.18-1.72-4.7-.4c1.45-3.1.9-5.28-1.29-4.63s-2.42.4-2.6-1.85a2,2,0,0,0-.58-1.27,2.18,2.18,0,0,0-1.36-.45,4.51,4.51,0,0,0-1.93.49,6,6,0,0,0-2.05,1.62,5,5,0,0,0-.82-1.17,3.48,3.48,0,0,0-1.21-.75,2.94,2.94,0,0,0-1.52-.17,3.61,3.61,0,0,0-1.62.58c-.38.25-.75.51-1.12.79s-.61.54-.9.82a11,11,0,0,0-1.45,1.69,6.5,6.5,0,0,0-1.27,3.3c0,.22-.05.51-.05.65a2.53,2.53,0,0,1,0,.34,2,2,0,0,1-.13.63,2.05,2.05,0,0,1-1,.94,3.86,3.86,0,0,0-2.12,2.64,2,2,0,0,1-2.23,1.67c-1.12-.09-1.75.89-2.75,1.16s-1.64,1.08-1.6,3.9c-2.62-3.84-3.1-3.74-4.36.64-.84-2.22-1.57-3.16-2.31-3.1s-1.5,1.16-2.23,3.08c-.29-1.34-.5-3-1.13-3.06a29.35,29.35,0,0,1-3-1,3.83,3.83,0,0,0-3.43.6c-.33.21-.41,0-.53-.3-1-2.26-1.55-2.21-3.94.1-.08-1.42-.14-2.81-1-3.14-1.43-.56-2.86-1.21-4.31-1.87-.54-.25-1.21,0-2,.59s-.85.59-.94-.29c-.26-2.68-1.47-3-3.68-1.06-.78.7-.86.54-.78-.43.13-1.49-.3-2.27-1-2.72-1-.63-3.25,2-3.37,1.33-.33-1.56-.56-3.11-1.75-3.48-1.46-.45-2.8-1.64-4.43-1.34a4.76,4.76,0,0,1-1.2.09,3.83,3.83,0,0,1-.55-.07c-.22,0-.43-.1-.65-.16-.87-.25-1.76-.65-3-1-1-.29-2,.52-2.6,1.41s-1,1.77-1.81,1.92a6.14,6.14,0,0,0-3,1.55,4.5,4.5,0,0,0-1.45,2.57c-.14,1.24-.13,1.72-.2,2.49l-.2,2.15a1.4,1.4,0,0,0,.74,1.46c.83.52.42.79,0,1.27-2,2.28-1.74,4.87-.78,7.44.11.29.74.6,1.28.81.85.33.82.47,0,.82-2.83,1.26-2.94,2.43-.49,4,.48.3.72.42.11.81-2.68,1.75-2.48,2.75.75,4.33-1.3.68-2.32,1.41-2.28,2.44s1.91,1.5,2.24,2.2-1.8,1.62-1.79,2.73,3,1.42,2.25,2.33c-1,1.13-1.47,2.15-1.2,3.22s.65,2.21.86,3.44c.47,2.07,2,3.43,4.79,2.58-1.26,2.09-1.2,4,.09,5a3.73,3.73,0,0,0,2.75.69,4.57,4.57,0,0,0,3.21-1.85,4.52,4.52,0,0,0,1.63,1,4.63,4.63,0,0,0,1.72.29,4,4,0,0,0,2.84-1.42,3.22,3.22,0,0,0,.67-2.65,5.13,5.13,0,0,0-1.6-2.68c1.46-.14,3-.6,3.14-1.37.19-1.26.71-2.5.88-3.78a4.37,4.37,0,0,0-.82-3.43,4.53,4.53,0,0,1,3.41,1.06,5.68,5.68,0,0,0,4.51,1,4.37,4.37,0,0,1,4,1,5.06,5.06,0,0,0,4.49,1.08,4.57,4.57,0,0,1,4,1,5.66,5.66,0,0,0,4.38,1.08,4.78,4.78,0,0,1,4.14,1c1.22.94,2.83.77,4.25,1.15.84.22,1.7-.12,2.56-1.49.57-.91.68-.74.85.2.56,3.12,2,3.47,3.95.9.64-.85.73-.65.85.29.19,1.48.77,2.15,1.59,2.44,1.14.41,2.68-2.62,3-2,.67,1.2,1.09,2.87,2.3,3,1.51.17,3,.92,4.59.46s3-.7,4.47.38c0,0,.09,0,.14,0,1,.07,1.64-2.26,2.28-2.17s1.44,2.19,2.55,2c1.85-.22,4,0,5.68-1.1a7.51,7.51,0,0,1,4.38-1.43,6.94,6.94,0,0,0,5.42-3.13,13.26,13.26,0,0,1,3.73-3.85,7,7,0,0,0,2.9-6.06,13.27,13.27,0,0,1,.66-5.63A6.32,6.32,0,0,0,489.57,1188.18Zm-85.8,9.05-.28-.11.61-.3.11,0Z" style="fill:#ff3366;"/><path d="M246.58,1186c4.1-1.89,4-3.23-.26-5.05,1.35-.48,2.78-1.11,2.72-1.88-.19-2.37,1.05-4.93-1.57-7-.23-.18-.39-.32-.11-.55,1.09-.88,1.4-1.62,1.06-2.28a5.26,5.26,0,0,0-3.15-2.38,3.31,3.31,0,0,0,.51-2.81,4.12,4.12,0,0,0-2.33-2.65,11.29,11.29,0,0,0-5.35-.93,7.8,7.8,0,0,0-1.89.35,4.37,4.37,0,0,0-.77.32,4,4,0,0,0-.56.4,5.63,5.63,0,0,1-4.16,1.35,6,6,0,0,0-4.53,1.88,4.75,4.75,0,0,1-3.89,1.7,5.08,5.08,0,0,0-4.21,2,4.3,4.3,0,0,1-3.68,1.69,5.36,5.36,0,0,0-3.95,1.63,3.89,3.89,0,0,1-3.71,1.32c-1.4-.2-2.54.67-3.82.94-.75.16-1.27.79-1.46,2.39-.13,1.07-.31.94-.78.14-1.61-2.67-2.58-2.6-3.6.4-.34,1-.49.81-.78-.07-.46-1.39-1-1.92-1.68-2.07-.45-.12-.93.65-1.35,1.32s-.82,1.31-1,1c-.6-1.17-.79-2.78-1.63-2.93-1.11-.22-2-1.08-3.16-1s-2.39-.17-2.61-1.61c0,0,0,0-.07-.06-.5-.41-2.28,1.1-2.63.68s.8-2.28.36-2.73c-.84-.82-.94-2-2-2.63a2.45,2.45,0,0,1-.55-.47,2.34,2.34,0,0,1-.2-.26l0-.07-.06-.14-.12-.28a7.49,7.49,0,0,1-.36-1.2c-.1-.43-.24-.92-.34-1.44a6.17,6.17,0,0,0-.77-1.92,5.25,5.25,0,0,0-.72-1,7.48,7.48,0,0,0-6.47-2.64,14.56,14.56,0,0,0-2.11.42l-.9.25c-.29.08-.52.18-.79.26l-1.5.46-.75.2-.73.19a6.64,6.64,0,0,0-4.79,3.68,6.28,6.28,0,0,1-3.23,3.39,5.58,5.58,0,0,0-2.91,3.73,5.92,5.92,0,0,1-2.78,3.86c-1.27.91-1.79,2.42-2.53,3.73a1.93,1.93,0,0,0-.22.72l4.57,2.77h0l-4.63-2.8a1.87,1.87,0,0,0-.17.19c-1,1.48-2.34,3-2.42,4.9a6.91,6.91,0,0,1-1.61,4.53c-1,1.31-.76,3.18-1,4.86s.53,3.38,3.36,3.86c-3,1.79-3.47,4.62-1.1,5.16s2.42.82,1.68,3,1.55,3.14,4.84,1.91c-.58,1.71-.58,3.34.61,4.07,1.76,1.07,3.51,2.4,5.51,2.36a7.69,7.69,0,0,1,4.45,1.13,7,7,0,0,0,2.81.88,6.67,6.67,0,0,0,2.8-.37,5,5,0,0,1,4.21,0c1.39.63,2.87-.11,4.28-.13s2.69-.83,3-3.66c2.48,4,4.21,3.65,4.92-.89,2.48,4.11,4.63,2.92,4.84-1.17.73,1.16,1.56,2.59,2.3,2.44,2.32-.5,5,.33,6.64-2.65.2-.36.38-.21.66,0,2.13,1.39,2.74,1,3.47-2.28.89,1.12,1.79,2.21,2.71,2l4.76-1.16c.59-.14,1-.73,1.19-1.68.17-.78.3-1,.92-.36,1.89,1.93,3,1.45,3.53-1.46.18-1,.34-1,.87-.14.81,1.25,1.62,1.61,2.45,1.52,1.15-.12,1.34-3.5,1.81-3.07,1.17,1.06,2.21,2.2,3.32,1.84s2.53-.21,3.6-.83a1.46,1.46,0,0,0,.92,1.23c.9.42.55.75.22,1.34a6.09,6.09,0,0,0-.7,4.1,10.47,10.47,0,0,0,2.55,5.06,2.42,2.42,0,0,0,2,.47c1-.15,1.11,0,1.33,1.06a4.25,4.25,0,0,0,.55,1.33,3.34,3.34,0,0,0,.94,1,4.13,4.13,0,0,0,2.7.8,3.82,3.82,0,0,0,3.61-3.3c.1-.69,0-1,.89-.94,1.89,0,3-.53,3.45-1.41s.12-2.15-1-3.72a6,6,0,0,0,1.08-.29c.35-.13.66-.29.91-.39a1.82,1.82,0,0,0,1-1.11c.31-1-1.33-2.06-1.43-2.84s2.23-1,2.55-2.07-2.47-2.28-1.43-2.9c1.28-.78,2.06-1.58,2.13-2.66s.08-2.28.28-3.4c.19-1.42-.35-2.7-3.16-3.45C250.81,1189.39,250.81,1187.72,246.58,1186Z" style="fill:#ff3366;"/><path d="M176.53,1054a.85.85,0,0,0,.11-.38c0-1.14.44-2.35-.31-3.39a2.26,2.26,0,0,1-.16-2.87c.6-.92-.07-1.86,0-2.8s-.63-1.7-3.39-2.05c3.12-1.06,4.25-2.16,2.32-2.77s-1.88-1-.11-1.76.65-1.62-2.41-2.51c1.68-.51,2.92-1.08,2.87-1.82-.08-1.13.36-2.34-.37-3.39a2.37,2.37,0,0,1-.18-2.72,3.19,3.19,0,0,0-.26-3.47,2,2,0,0,1-.14-2.69c.65-.91,0-1.86.07-2.79s-.56-1.79-3.33-2.17c4.29-1.49,4.19-2.57-.15-3.49,4.47-1.35,3.7-2.9-.26-3.5,1.28-.38,2.85-.81,2.83-1.34,0-1.69,1.31-3.5-1.3-5-.31-.18-.13-.29.1-.47,1.79-1.34,1.51-1.82-1.54-2.71,1.27-.5,2.52-1,2.47-1.68-.08-1.16-.13-2.33-.19-3.49,0-.43-.52-.78-1.41-1-.73-.21-.92-.33-.17-.69,2.26-1.1,2-2-.73-2.66-1-.25-.87-.35,0-.63,1.39-.42,1.9-.94,2-1.54.11-.82-3.16-1.37-2.64-1.65,1.28-.7,2.6-1.29,2.48-2.11-.15-1,.48-2.12-.34-3a2,2,0,0,1,0-2.82c.53-.76-2.8-1.08-2-1.59.93-.63,2.05-1.18,2-1.89-.11-1-.14-2-.17-3.05,0-.36-.17-.71-.9-.95-.88-.29-.51-.51-.14-.89,1.72-1.78,1.23-3.51.09-5.22a3,3,0,0,0-1.33-.48c-.87-.18-.86-.28-.08-.57,2.76-1,2.82-1.79.33-2.77-.48-.19-.73-.27-.14-.56,2.66-1.28,2.46-1.88-.73-3,1.31-.46,2.37-.94,2.38-1.62s-1.81-1.06-2.09-1.55,1.93-1,2.06-1.72-2.83-1.17-1.9-1.71c1.14-.66,1.82-1.25,1.78-2a12.6,12.6,0,0,1,0-2.27c.11-1-.5-1.77-3.32-2.21,4.39-1.29,4.39-2.31.17-3.51,4.12-1.31,4.11-2.14-.09-3.55,1.38-.3,2.83-.69,2.82-1.22,0-1.66,1.39-3.37-1.06-4.95-.21-.14-.36-.25-.06-.39,2.32-1.11,1.46-2-1.39-2.88,1.55-.41,2.6-.86,2.6-1.5,0-1.16.63-2.37-.12-3.47a2.37,2.37,0,0,1,0-2.86,3,3,0,0,0,0-3.29,2.33,2.33,0,0,1,0-2.92,2.7,2.7,0,0,0,.05-3.28,2.43,2.43,0,0,1,0-2.94,3,3,0,0,0,.08-3.2,2.53,2.53,0,0,1,.07-3c.65-1,.15-2.08.22-3.12,0-.62-.47-1.17-2-1.58-1-.27-.86-.38,0-.62,2.93-.82,3-1.85.06-2.86-1-.34-.79-.43.11-.62,1.41-.3,1.95-.78,2.08-1.37.19-.81-3.06-1.56-2.48-1.87,1.07-.57,2.63-1,2.61-1.79,0-1,.56-2,0-3s-.85-2,.23-2.88c0,0,0-.06,0-.09.09-.64-2.22-1.16-2.09-1.59s2.27-.76,2.25-1.45c0-1.16.6-2.32,0-3.47a2.2,2.2,0,0,1,.2-2.68,3,3,0,0,0,.25-3.44,2.33,2.33,0,0,1,.15-2.76,2.88,2.88,0,0,0,.25-3.36,2.39,2.39,0,0,1,.3-2.93,2.71,2.71,0,0,0,.23-3.1,2.67,2.67,0,0,1,.31-3.17c.63-.93.34-2,.37-3,0-.1-.15-.2-.18-.3l-10.7-1a.83.83,0,0,0-.07.15c-.2,1.13-.78,2.27-.2,3.43A2.3,2.3,0,0,1,163,856c-.73.83-.21,1.86-.41,2.79s.37,1.79,3.05,2.53c-3.26.62-4.52,1.56-2.68,2.44s1.74,1.2-.12,1.78-.85,1.54,2.07,2.82c-1.73.29-3,.7-3.08,1.45-.06,1.15-.66,2.29-.07,3.43a2.45,2.45,0,0,1-.16,2.75,3.24,3.24,0,0,0-.12,3.5,2.06,2.06,0,0,1-.15,2.71c-.75.84-.17,1.86-.38,2.79s.37,1.86,3.08,2.51c-4.43,1.06-4.41,2.17-.17,3.5-4.57.92-3.94,2.57-.05,3.53-1.31.27-2.91.56-2.94,1.1-.12,1.7-1.61,3.41.85,5.11.3.21.11.3-.14.46-1.88,1.21-1.63,1.72,1.35,2.83-1.31.41-2.58.82-2.58,1.51,0,1.18,0,2.35-.05,3.53,0,.43.46.82,1.33,1.13.71.26.89.39.13.71-2.34,1-2.16,1.85.54,2.71,1,.31.85.41-.07.63-1.41.34-1.95.84-2.06,1.43-.15.82,3.09,1.55,2.55,1.8-1.31.63-2.66,1.15-2.58,2,.1,1-.58,2.11.19,3.07a2,2,0,0,1-.12,2.84c-.57.74,2.74,1.21,2,1.69-1,.6-2.09,1.11-2,1.82.08,1,.08,2.05.08,3.08,0,.37.15.72.87,1,.87.31.49.53.11.9-1.77,1.74-1.34,3.51-.25,5.25a2.93,2.93,0,0,0,1.32.51c.86.2.85.29.07.57-2.77,1-2.83,1.76-.36,2.78.48.2.73.28.13.56-2.67,1.25-2.48,1.86.7,3-1.31.45-2.38.92-2.4,1.62s1.8,1.07,2.07,1.57-1.94,1-2.08,1.73,2.83,1.18,1.9,1.73c-1.14.67-1.81,1.27-1.76,2a12.77,12.77,0,0,1,.05,2.29c-.1,1,.52,1.78,3.34,2.19-4.38,1.34-4.36,2.39-.14,3.53-4.11,1.39-4.09,2.24.16,3.56-1.37.33-2.81.76-2.78,1.29.09,1.67-1.29,3.44,1.21,5,.22.13.37.24.07.39-2.29,1.19-1.4,2.12,1.48,2.84-1.54.47-2.58,1-2.55,1.61.05,1.17-.51,2.41.29,3.49a2.41,2.41,0,0,1,.09,2.88,3,3,0,0,0,.2,3.31,2.37,2.37,0,0,1,.1,2.94,2.73,2.73,0,0,0,.17,3.31,2.46,2.46,0,0,1,.16,3,3,3,0,0,0,.14,3.23,2.57,2.57,0,0,1,.15,3.05c-.57,1,0,2.1.05,3.15,0,.63.58,1.14,2.13,1.42,1,.19.9.3,0,.62-2.85,1.07-2.79,2.12.2,2.87,1,.25.82.36-.06.63-1.38.44-1.87,1-2,1.57-.11.83,3.18,1.27,2.63,1.63-1,.68-2.54,1.25-2.42,2.05.15,1-.33,2.1.34,3s1.06,1.88.09,2.91c0,0,0,.06,0,.09,0,.66,2.34.92,2.25,1.36s-2.18,1-2.08,1.7c.16,1.16-.36,2.4.4,3.48a2.23,2.23,0,0,1,.15,2.7,3.07,3.07,0,0,0,.2,3.48,2.37,2.37,0,0,1,.21,2.78,2.92,2.92,0,0,0,.19,3.39,2.42,2.42,0,0,1,.14,3,2.75,2.75,0,0,0,.24,3.13,2.71,2.71,0,0,1,.16,3.21c-.48,1,0,2,.08,3.06a1,1,0,0,0,.22.48Z" style="fill:#382d15;"/><path d="M464.29,1049.15a.82.82,0,0,0,.17-.35c.22-1.11.82-2.21.26-3.36a2.22,2.22,0,0,1,.31-2.83c.74-.8.24-1.82.46-2.73s-.34-1.76-3-2.54c3.26-.54,4.54-1.44,2.72-2.34s-1.72-1.22.15-1.74.88-1.49-2-2.81c1.73-.25,3-.62,3.1-1.36.08-1.12.7-2.24.13-3.37a2.37,2.37,0,0,1,.21-2.69,3.14,3.14,0,0,0,.19-3.44,2,2,0,0,1,.2-2.66c.76-.81.21-1.83.43-2.74s-.33-1.83-3-2.53c4.44-.95,4.45-2,.24-3.43,4.58-.81,4-2.45.12-3.46,1.31-.24,2.92-.49,3-1,.15-1.66,1.67-3.32-.75-5-.3-.21-.1-.3.14-.45,1.9-1.15,1.66-1.66-1.3-2.81,1.31-.37,2.6-.76,2.6-1.44,0-1.16.07-2.31.11-3.46,0-.43-.45-.82-1.31-1.14-.71-.26-.88-.4-.11-.7,2.35-.9,2.19-1.78-.5-2.68-1-.32-.84-.41.08-.62,1.41-.31,2-.79,2.08-1.38.17-.81-3.06-1.57-2.53-1.81,1.32-.6,2.68-1.1,2.6-1.92-.09-1,.61-2.07-.15-3a2,2,0,0,1,.16-2.79c.58-.72-2.73-1.22-2-1.68,1-.58,2.1-1.06,2.05-1.77-.07-1-.06-2,0-3,0-.36-.14-.71-.86-1-.87-.32-.49-.52-.11-.88,1.78-1.7,1.37-3.45.29-5.16a3,3,0,0,0-1.32-.51c-.86-.2-.85-.29-.07-.56,2.78-1,2.84-1.72.37-2.73-.48-.2-.73-.28-.13-.55,2.68-1.22,2.48-1.83-.69-2.95,1.31-.44,2.38-.9,2.4-1.59s-1.79-1.06-2.06-1.55,1.95-1,2.08-1.7-2.83-1.16-1.9-1.7c1.13-.66,1.81-1.25,1.75-2a12.44,12.44,0,0,1-.06-2.25c.1-1-.52-1.76-3.35-2.14,4.38-1.34,4.35-2.38.13-3.47,4.11-1.39,4.08-2.24-.19-3.5,1.36-.34,2.81-.78,2.77-1.3-.11-1.64,1.25-3.4-1.26-4.87-.22-.13-.37-.23-.08-.39,2.27-1.21,1.37-2.11-1.51-2.78,1.53-.49,2.56-1,2.53-1.63-.08-1.15.46-2.39-.36-3.44a2.35,2.35,0,0,1-.15-2.84,3,3,0,0,0-.27-3.26,2.31,2.31,0,0,1-.16-2.9,2.66,2.66,0,0,0-.28-3.25,2.41,2.41,0,0,1-.25-2.92,2.94,2.94,0,0,0-.24-3.18,2.51,2.51,0,0,1-.24-3c.54-1-.11-2.07-.18-3.11,0-.62-.63-1.1-2.19-1.3-1-.14-.91-.26-.07-.61,2.8-1.18,2.7-2.22-.32-2.81-1-.2-.84-.31,0-.63,1.36-.49,1.83-1,1.88-1.64.08-.82-3.23-1.09-2.7-1.48,1-.72,2.49-1.36,2.32-2.15-.21-1,.21-2.09-.52-3s-1.17-1.79-.25-2.86c0,0,0-.06,0-.09,0-.65-2.39-.76-2.33-1.2s2.11-1.13,2-1.81c-.23-1.13.23-2.39-.6-3.4a2.18,2.18,0,0,1-.34-2.65,3,3,0,0,0-.45-3.41,2.32,2.32,0,0,1-.4-2.73,2.85,2.85,0,0,0-.43-3.33,2.37,2.37,0,0,1-.39-2.9,2.7,2.7,0,0,0-.51-3.06,2.65,2.65,0,0,1-.44-3.15c.39-1.05-.14-2-.35-3,0-.09-.19-.16-.24-.24l-10.61,1.72a.78.78,0,0,0,0,.16c.06,1.11-.24,2.32.59,3.27a2.16,2.16,0,0,1,.4,2.77c-.52.95.22,1.8.24,2.71s.77,1.59,3.55,1.71c-3,1.3-4.06,2.45-2.1,2.89s1.94.78.23,1.71-.54,1.63,2.58,2.27c-1.64.62-2.84,1.26-2.73,2,.16,1.1-.2,2.3.6,3.27a2.24,2.24,0,0,1,.35,2.64,3.05,3.05,0,0,0,.45,3.36,2,2,0,0,1,.29,2.61c-.6.93.13,1.81.08,2.73s.66,1.71,3.45,1.93c-4.2,1.68-4.07,2.72.31,3.41-4.4,1.54-3.57,3,.41,3.42-1.26.43-2.81.92-2.77,1.44.11,1.65-1.16,3.46,1.51,4.81.32.16.14.28-.09.46-1.75,1.38-1.45,1.83,1.62,2.59-1.26.54-2.49,1.07-2.42,1.73.12,1.13.2,2.27.3,3.4,0,.42.54.75,1.44,1,.74.18.93.3.19.67-2.23,1.14-2,2,.81,2.58,1,.21.88.32,0,.61-1.38.45-1.88,1-2,1.56-.1.8,3.18,1.25,2.67,1.54-1.26.71-2.57,1.32-2.43,2.12.17,1-.43,2.08.4,3a1.93,1.93,0,0,1,.07,2.76c-.52.75,2.83,1,2.08,1.52-.93.63-2,1.19-2,1.88.12,1,.17,2,.2,3,0,.35.18.7.91.92.89.27.51.49.15.86-1.7,1.76-1.2,3.45,0,5.1a3,3,0,0,0,1.33.46c.87.17.86.26.08.56-2.76,1-2.81,1.77-.32,2.71.48.18.73.26.14.54-2.65,1.27-2.45,1.85.74,2.91-1.31.46-2.37.93-2.37,1.6s1.81,1,2.09,1.51-1.93,1-2.05,1.69,2.84,1.14,1.9,1.68c-1.15.65-1.83,1.23-1.78,1.93a12.07,12.07,0,0,1,0,2.22c-.12.94.49,1.74,3.31,2.17-4.4,1.25-4.4,2.24-.18,3.44-4.13,1.26-4.11,2.07.07,3.48-1.38.29-2.84.66-2.83,1.18,0,1.62-1.42,3.28,1,4.86.21.14.36.25.06.38-2.33,1.06-1.48,2,1.37,2.83-1.56.39-2.61.81-2.61,1.44,0,1.14-.66,2.31.07,3.4a2.29,2.29,0,0,1-.09,2.8,2.88,2.88,0,0,0,0,3.22,2.25,2.25,0,0,1-.09,2.86,2.61,2.61,0,0,0-.1,3.22,2.34,2.34,0,0,1-.1,2.88,2.86,2.86,0,0,0-.14,3.14,2.45,2.45,0,0,1-.12,3c-.66,1-.19,2-.27,3.05-.05.61.45,1.16,2,1.59,1,.29.86.39,0,.61-2.94.75-3,1.75-.11,2.8,1,.35.78.44-.12.61-1.42.27-2,.73-2.11,1.3-.2.79,3,1.59,2.44,1.88-1.09.54-2.65.92-2.64,1.7,0,1-.59,2,0,3s.82,1.95-.28,2.82c0,0,0,.06,0,.08-.11.63,2.2,1.19,2.06,1.6s-2.29.7-2.28,1.37c0,1.14-.65,2.27-.05,3.41a2.13,2.13,0,0,1-.25,2.62,2.93,2.93,0,0,0-.31,3.38,2.26,2.26,0,0,1-.2,2.71,2.78,2.78,0,0,0-.31,3.29,2.31,2.31,0,0,1-.35,2.87,2.62,2.62,0,0,0-.28,3,2.59,2.59,0,0,1-.37,3.11c-.64.9-.37,2-.42,3a1,1,0,0,0,.14.5Z" style="fill:#382d15;"/><path d="M887.73,161.3a4.87,4.87,0,0,1-.1-2.82,28.91,28.91,0,0,0,.46-5,18.62,18.62,0,0,0-.37-4c-.55-2.45-1.81-4.65-3.81-7.49a24,24,0,0,0,.87-4.4,14.92,14.92,0,0,0-.43-5.35L883,127c-.45-1.73-1-3.41-1.56-5.12-1-3.43-2.32-6.75-3.52-10.11a15.29,15.29,0,0,0-3.83-5.72,4.53,4.53,0,0,1-1.89-3.82,24.4,24.4,0,0,0-.73-4.52,18.66,18.66,0,0,0-1.67-3.86,15.45,15.45,0,0,0-2.44-3.24A18.4,18.4,0,0,0,864,88.12c-1.74-1-1.92-1.62-1.89-3.28a11.09,11.09,0,0,0-.85-4,20.24,20.24,0,0,0-2.37-4.41,15.79,15.79,0,0,0-5.14-4.53c-1.76-1-3.19-1.7-3.48-2.48A46.14,46.14,0,0,0,848,63.93a21.08,21.08,0,0,0-3.77-5.33C840,54.15,835.86,49,831.09,45.67a88.68,88.68,0,0,1-13-11.21,10.76,10.76,0,0,0-5.19-2.59c-1.71-.42-3.25-.72-4.2-1.87-1.17-1.45-2.29-2.76-3.53-4.07a20.52,20.52,0,0,0-4.54-3.64c-5.37-3.18-10.88-6.17-16.56-8.81a15,15,0,0,0-5.86-1.64c-2.15.11-3.19-.69-5.15-1.83-9.24-5.33-20.16-7.63-30.87-8a7.37,7.37,0,0,0-3.34,1c-1.34.72-1.92.65-3.45-.3a20.6,20.6,0,0,0-2-1.12,19.93,19.93,0,0,0-2-.75,16.89,16.89,0,0,0-4-.76c-2.7-.25-5.52.47-8.7,1.75a3.76,3.76,0,0,1-3.4.2A23.05,23.05,0,0,0,705.94.9a24.07,24.07,0,0,0-8.64,3.81,18.78,18.78,0,0,0-9.81-.38,16.86,16.86,0,0,0-4.94,2.31,32.65,32.65,0,0,1-4,2.35,11.68,11.68,0,0,1-4.59.63,15,15,0,0,0-5.72.87,15.5,15.5,0,0,0-5,3.44c-1.33,1.23-2.43,2.42-4.07,2.68a28.12,28.12,0,0,0-11.26,4.11c-2,1.14-3.93,2.54-5.87,3.86s-3.92,2.6-5.73,4c-1.18.86-2.29,1.72-3.3,2.6a19,19,0,0,0-2.67,2.72,11.34,11.34,0,0,0-2.71,5.81c-8.29,1.43-13.32,6-15.26,14.58-1,.35-2,.72-2.86,1.13a22.57,22.57,0,0,0-2.39,1.39,16,16,0,0,0-3.78,3.45,22.72,22.72,0,0,0-3.9,11.1,13,13,0,0,0-3.29,1.55,10,10,0,0,0-2.88,3.21c-1.32,2.2-2.51,4.48-3.77,6.73s-2.36,4.58-3.47,6.9a44.67,44.67,0,0,0-4.09,14.52,4,4,0,0,1-.72,2.27,18.94,18.94,0,0,0-3.5,17.06,16.21,16.21,0,0,0-2.78,3.37,15.77,15.77,0,0,0-1.88,4.67c-1.59,6.68-4,13.41-4.94,19.88a66.3,66.3,0,0,1-4.67,16.21,113.41,113.41,0,0,0-5.84,18.49,78.35,78.35,0,0,1-2.32,8.37,75.8,75.8,0,0,1-3.26,8.08,103.81,103.81,0,0,0-6.41,18.2,49.69,49.69,0,0,1-6.87,15.48c-3.23,5-6.68,10.37-9.6,15.44a45.37,45.37,0,0,1-11.26,13c-4.47,3.6-8.75,8.09-13.51,11.84-2.82,2.22-5,4.5-5.81,7-.55,1.67-1.15,1.91-2.89,2.06a18.68,18.68,0,0,0-8.13,2.45,17.87,17.87,0,0,0-6.26,6.19c-1.07,1.78-1.66,1.92-3.29,1.89-2.57-.05-5.51,1.21-8.63,3.51-2.67,2-4,5-4.8,7.15l-1.41,3.74,1.23.76c1.19.74,2.1,1.36,2.39,2.12s.66,1.8,1,2.69.68,1.72,1.08,2.6a22.42,22.42,0,0,0,1.4,2.65,21.2,21.2,0,0,0,2.16,2.66c4.39,4.57,9,9.41,14.26,12.58s10.41,6,15.21,9.68a3.86,3.86,0,0,0,.47.26,11.51,11.51,0,0,0,5.05,1.27,11.94,11.94,0,0,1,4.11.68,17.76,17.76,0,0,1,3.57,2.73,12.81,12.81,0,0,0,4.58,2.8c6.77,2.31,13.74,4.82,20.54,5.63a105.55,105.55,0,0,1,16.05,3A81,81,0,0,0,577,365.43a82.34,82.34,0,0,1,16.52,1.51,95.6,95.6,0,0,0,19.95,1.75,107.46,107.46,0,0,1,17.82,1.18,69.53,69.53,0,0,0,18.89,0,129.68,129.68,0,0,1,19.34-1.25c6-.06,12.24-1.27,18.3-2.35.58-.1,1.09-.35,1.63-.47l-.92-5.25h0l.92,5.25c.72-.06,1.47-.16,2.25-.3l5.11-.86c1.71-.27,3.43-.56,5.12-.95s3.37-.76,5-1.19a39.56,39.56,0,0,0,4.8-1.52c2.84-1.1,5.51-2,8.23-2.78a67.9,67.9,0,0,1,8.42-2.11,26.77,26.77,0,0,0,4-1c1.32-.43,2.65-.92,4-1.43s2.67-1,4-1.56,2.63-1.11,4-1.61c5.35-1.94,9.46-4.61,11.2-8.39a20.4,20.4,0,0,0,8.71-.74,16.48,16.48,0,0,0,3.69-1.63,10.72,10.72,0,0,0,2.78-2.49,13.63,13.63,0,0,1,4-3.78,15.4,15.4,0,0,1,5.25-1.51,12.88,12.88,0,0,0,6.45-3.15,33.1,33.1,0,0,0,5.77-7.37,13.14,13.14,0,0,0,4.61-.65,18,18,0,0,0,5.14-2.72c1.4-1,2.78-2.06,4.15-3.13l4.13-3.18c.68-.54,1.37-1.06,2-1.62l1.91-1.72c1.25-1.16,2.46-2.34,3.6-3.55,2-2.08,3.79-4.1,5.74-5.94s4-3.59,6.17-5.51a83.13,83.13,0,0,0,14.06-15.45A79.19,79.19,0,0,1,854,265.43a47.29,47.29,0,0,0,5.31-6.38c1.67-2.32,3.22-4.8,4.93-7a35.2,35.2,0,0,0,4.05-7.18,12.93,12.93,0,0,0,.81-6.64,22,22,0,0,0,4.75-3.64,19.34,19.34,0,0,0,1.8-2.09,16.38,16.38,0,0,0,1.31-2.32,17,17,0,0,0,1.47-5.12,22.62,22.62,0,0,0-.29-5.8,14.17,14.17,0,0,0,4.13-4.29,17,17,0,0,0,2.42-5.48,20.45,20.45,0,0,0,.56-5.69,13.44,13.44,0,0,0-1.35-4.94,22.19,22.19,0,0,0,2.5-2.69,8.53,8.53,0,0,0,1.54-4C889.41,181.89,891,171,887.73,161.3Z" style="fill:#382d15;"/><path d="M997.63,972.22a166.92,166.92,0,0,1-20.9,13.17c-10.45,5.62-21.81,12-32,18.11-2.09,1.25-4.11,2.41-6.12,3.52,2.41-4,4.77-8.18,7.16-12.15a96.14,96.14,0,0,0,6.61-13,47,47,0,0,0,1.93-5.74,25,25,0,0,0,.73-5.13c9.89-9.81,14.9-20.75,15.81-33.93a44.93,44.93,0,0,0,5.88-7.95,60.83,60.83,0,0,0,4.36-9.45c2.3-6.51,3.39-13.07,2.9-17.92a47.51,47.51,0,0,0,3.55-4.58,27.16,27.16,0,0,0,3.09-6.66c1.21-3.76,2.3-7.58,3.51-11.37s2.23-7.65,3.31-11.48l3.92-13.9-12.48,7.68c-8.85,5.45-17.37,11.32-24.63,18.24a15.93,15.93,0,0,1-4.11,2.82c-11.93,6.41-16,10-22.88,19.38a74.75,74.75,0,0,0-6.79,3.31,48.66,48.66,0,0,0-7.63,5.5q-14.21,12.42-27.59,25.76a57.48,57.48,0,0,0-4.33,4.86,34.41,34.41,0,0,0-3,4.61,13.35,13.35,0,0,1-5.08,5.57c-1.42,1-2.75,2-4,3a58.15,58.15,0,0,0,1-8.25c.17-3.4.19-6,.81-7.31,1.55-3.12,2.94-6,4.26-9.16a64,64,0,0,0,3.47-11c2.39-10.7,5.48-21.92,6.52-32.14a288.47,288.47,0,0,1,4.93-30,26.64,26.64,0,0,0,.56-5.42c0-1.68-.17-3.24-.32-4.72-.32-2.95-.61-5.53,0-8,.81-3.11,1.63-6,2.35-9a73.67,73.67,0,0,0,1.54-10.1l.8-11.7.89-12.88-9.86,8.26L887.68,810c-2.7,2.3-5.34,4.68-8,7a42.23,42.23,0,0,0-7.25,7.81c-1.94,3-3.79,4.26-6.87,6.73-14.48,11.64-27.11,26.11-38,41.49a19.3,19.3,0,0,0-2.48,5.24c-.72,2.27-1.36,3.1-3.69,4.9a63.3,63.3,0,0,0-5.68,4.91,47,47,0,0,0-4.61,5.42,58.58,58.58,0,0,0-7.25,13.62,12,12,0,0,1-3.19,5.13,85.77,85.77,0,0,0-5.92,6.56,53.21,53.21,0,0,0-4.22,6.22,42.19,42.19,0,0,0-3.16,6.81c-.3.81-.6,1.66-.89,2.53a50.81,50.81,0,0,1-1.1-6.74c-.38-5.14,1.71-10.23,1.67-17.86,0-8.14-3.13-13.18-2.32-18.77A113.92,113.92,0,0,0,786,870.32c-.23-8.09-.49-16.2-.58-24.28-.12-10.26-.94-19.08-3.87-24.22a54.54,54.54,0,0,0,1.21-31l.31-.43-.45-.13c-.26-1-.53-2-.84-3.08l-3.22-10.82-2.95,9c-.28.85-.54,1.72-.8,2.61l-2-.59c0,.81,0,1.63.06,2.45-9.55,8.31-14.1,16.33-17.7,31.15a27.6,27.6,0,0,0-8.45,10.06l-6.06,12.11-2.91,6.14c-1,2-1.93,4.1-2.8,6.18-1.77,4.16-3.49,8.31-4.87,12.56-.71,2.11-1.39,4.22-2,6.35s-1.07,4.28-1.51,6.42a11.71,11.71,0,0,1-1.38,4,59.14,59.14,0,0,0-6.28,15.47,51.07,51.07,0,0,0-1.45,14.7,35.76,35.76,0,0,0-3.58,6.4c-.53,1.22-1,2.52-1.52,4q-.36,1.07-.69,2.24t-.58,2.45l-.19.83c-4.25-9.39-7.49-17.73-11-27.35A221.91,221.91,0,0,0,685,871.31c-5.45-9.57-9.83-18-14.48-28-.66-1.41-1.35-2.84-2.08-4.34l-6.84-13.89-3.64,15.58a226.28,226.28,0,0,0-5,30.19c-1,11.13-2.6,20.66-4.57,31.4a247.42,247.42,0,0,0-4,34.29c-.42,11.35-1.36,21.34-2.8,32.54-1.07,8.35-1.4,17.27-1.72,26.12a44,44,0,0,0-13.48-16.28c-2.82-2-3.28-2.95-4.2-5.38-1.38-3.88-4.65-8.38-9.11-13.12a37.66,37.66,0,0,0-4.81-4.13c-1.63-1.13-3.22-2.09-4.67-2.93-3-1.6-5.35-2.82-6.6-4.15-1.66-1.88-3.19-3.64-4.81-5.39a7.37,7.37,0,0,0-1.75-2.13l-.7,1-2.22,3h0l-1.3,1.77h0l-.2.28c-.19.22-.41.41-.73.73s-.41.33-.68.53l-.37.29v0a1.17,1.17,0,0,0,0,.44l.34,1.77.85,5A149.39,149.39,0,0,1,587,972.43c.3,5.39.55,10.76,1,15.93s.89,10.47,1.07,15.59c.1,2.57.14,5.12.16,7.74,0,1.32,0,2.63.07,4.09l.12,2.12.09,1.94c0,.28.08.61.12.92.91,6.94,3.87,10.85,4.46,15.44.71,5.25-.74,9.69.63,17,2.27,12.33,4.42,25.2,8.14,36.76,3.19,9.77,5.72,18,8.63,28,.85,2.92,1.8,5.86,2.87,8.83s2.24,6,3.54,9a97.53,97.53,0,0,0,9.35,17,104.53,104.53,0,0,0,10,12.34,63.5,63.5,0,0,0,12.67,10.4,41.07,41.07,0,0,0,9.26,4.2c.83.25,1.67.47,2.52.7s1.73.35,2.61.51a42.94,42.94,0,0,0,5.21.6,68,68,0,0,0,19.12-2.06c5.63-1.37,10.72-2.69,15.77-3.84s10-2.17,15.22-2.89c1.29-.19,2.58-.34,3.87-.49s2.73-.3,4.09-.46c2.78-.32,5.6-.68,8.41-1.08,5.62-.8,11.21-1.74,16.42-2.87,11.72-2.54,22.35-4,34.06-5.65a223.46,223.46,0,0,0,32.22-7.66c1-.3,1.91-.74,2.85-1.05,1.26-.33,2.57-.7,3.92-1.12,11.81-3.69,23.93-8.06,34.34-13.81,9.55-5.31,17.74-10,27.37-15.06,8.47-4.51,16.89-11.1,24.94-17.25s14.26-12.42,16.55-18.33c9-3.92,17.72-11.2,21.62-18.44a44.94,44.94,0,0,1,5.23-8.17,30.17,30.17,0,0,1,3.05-3.21c1.16-1.05,2.47-2.13,4-3.36,6-4.73,11-13.37,14.65-24.79,3.74-2.75,7.6-6.66,11.56-13.83,5.9-10.87,11.7-22.34,15.29-33.72l1.31-4.05,5-15.44Z" style="fill:#5020ee;"/><path d="M827.31,248.6a6.15,6.15,0,0,0-1.6-1.46c-1.07-.7-2-1.07-2.1-2a15.61,15.61,0,0,0-.78-3.07,7.89,7.89,0,0,0-1.47-2.43c-1.41-1.6-2.85-3.19-4.16-4.87-1.67-2.13-3.64-3.51-6.67-2.7,1.11-5.46-.81-7.68-6.31-7.6.81-5.38-.78-7.17-6.63-7.46.5-1.52.89-3.27-.11-4.38-3.13-3.48-5.27-8-10.11-9.75-.42-.15-.74-.28-.79-.78-.35-3.86-2.79-5.27-6.49-5.09.37-1.9.31-3.53-.92-4.87-2.23-2.42-4.08-5.35-6.77-7.12a16.16,16.16,0,0,1-3.21-2.78,29.89,29.89,0,0,0,4.42-4.91,21.49,21.49,0,0,1,6.16-6.27,28.58,28.58,0,0,0,7.88-8.14,22.93,22.93,0,0,1,6.24-6.6,28.34,28.34,0,0,0,7.64-8,23.24,23.24,0,0,1,6.7-7,29.8,29.8,0,0,0,3.88-3.39,22.93,22.93,0,0,0,3.13-4.11c2-3.37,4.36-5.84,7-9.06a17.72,17.72,0,0,0,2.88-5.3,23.41,23.41,0,0,0,1.13-6.67,13.34,13.34,0,0,0-.27-2.28l-5.32.52h0l5.39-.53c0-.25,0-.48,0-.74a18.08,18.08,0,0,0-1.61-5.78,18.51,18.51,0,0,0-.9-1.7,17.19,17.19,0,0,0-4.37-4.92c-1.48-1.1-2.78-2.08-4-3.14a21.8,21.8,0,0,1-3.2-3.56,18.8,18.8,0,0,0-2.95-3.07L808.3,87l-.77-.72-1.86-1.82c-2.44-2.5-5.72-3.91-8.71-2.3a7.76,7.76,0,0,0-4.09-4.74,6.31,6.31,0,0,0-2.87-.59,4.89,4.89,0,0,0-2.57.85c-2.78,2-3.76,2.29-6.9,1.39a4.24,4.24,0,0,0-2.27,0,4.86,4.86,0,0,0-2.07,1.1,9.12,9.12,0,0,0-1.79,2.06,17.63,17.63,0,0,0-1.41,3,7.43,7.43,0,0,0-3.15-.52,6.27,6.27,0,0,0-1.64.33,6.8,6.8,0,0,0-1.6.89c-3.22,2.37-6.65,4.67-8.87,7.73a27.94,27.94,0,0,1-6.42,6.5,31.29,31.29,0,0,0-7.71,8.27,16,16,0,0,1-6,6,16.83,16.83,0,0,0-3.46,2.77c-1.1,1.08-2.16,2.23-3.33,3.21-2.47,2.08-4,4.42-3.42,7.6-5.05-.35-7.66,1.44-8.17,5.52h0c-1.2.26-1.32-.05-1.27-1.21.16-3.87-2-5.92-5.87-5.55-1.29.12-1.37-.19-1.22-1.28a5,5,0,0,0-1.58-4.28c-1.58-1.7-5.1-.51-5.4-1.57s-.41-2-.68-2.93a5.23,5.23,0,0,0-1.48-2.54c-2-1.78-3.65-4.24-6-5.74s-4.37-3.26-5.48-6c0-.07-.11-.12-.16-.18-1.21-1.39-3.71-.61-4.47-1.57s-.14-3.36-1.59-4.75c-2.43-2.33-4.67-5.19-7.67-6.83a24.76,24.76,0,0,1-6.54-4.91,18.16,18.16,0,0,0-4.34-3.25A19.46,19.46,0,0,0,660.21,79c-1.61-.3-3.12-.59-4.64-.93-.76-.17-1.56-.3-2.35-.51s-1.65-.34-2.56-.48a14.22,14.22,0,0,0-6.44.41,13.07,13.07,0,0,0-5.38,3.07c-1.37,1.28-2.5,2.38-3.72,3.37-.6.5-1.18,1-1.82,1.45l-.92.71-.48.35a5.44,5.44,0,0,1-.45.31,21,21,0,0,0-6.13,5.66c-1.87,2.75-4.19,4.52-7,6.84a14.5,14.5,0,0,0-3.32,4.25,18.51,18.51,0,0,0-1.85,5.92,7.56,7.56,0,0,0,.06,1.14A9.37,9.37,0,0,0,613,112a20,20,0,0,0,.74,6.54,16.71,16.71,0,0,0,1.1,2.86,13.3,13.3,0,0,0,1.56,2.38,33.8,33.8,0,0,1,5.22,7.41c1.21,2.48,3.65,4.18,5.32,6.14s3.74,3.18,6.76,2.39c-.65,3.93.47,6.84,3.27,7s3.39.93,3.43,3.6,2.52,3.74,6.78,3.86c-.45,2-.42,3.88,1,5.41,2.22,2.31,4.12,5.06,6.72,6.83a17.37,17.37,0,0,1,5.38,5.49,23.24,23.24,0,0,0,6.91,6.94,19.45,19.45,0,0,1,2.9,2.23c-2.34,1-3.47,3-3.44,6,0,1.36-.29,1.51-1.47,1.4a6.1,6.1,0,0,0-4.75,1.91c-2,1.79-1.25,5.67-2.22,5.9-2.39.56-4.55.83-6.38,2.81-2.25,2.43-5.2,4.43-6.82,7.17a18.26,18.26,0,0,1-6.56,6.4c-2.09,1.28-.83,4.71-2.47,5.25-2,.67-4,1-5.61,2.66q-3.47,3.55-7.05,7a4.78,4.78,0,0,0-1.69,2.84c-.13,1.35-.89,1.54-2,2.09-5.17,2.53-9.23,6.92-12.4,12a3.36,3.36,0,0,0-.22,2.18c.18,1.09,0,1.32-1.22,1.46-4.16.51-6,2.55-6.2,6.87,0,.85,0,1.22-1,1.59-4.55,1.7-5.72,3.82-5,8.9a8.62,8.62,0,0,0-2.6,1.31,6.61,6.61,0,0,0-1.11,1.05,7.57,7.57,0,0,0-.88,1.48c-1,2.31.18,4.38-.08,6.13a5.18,5.18,0,0,1-1.55,2.4,6.82,6.82,0,0,0-1.76,3.25,4.76,4.76,0,0,0,.18,2.07,9.24,9.24,0,0,0,.84,1.75c.58,1.07,1.18,1.94.81,3-.11.32-.22.63-.31.95s-.13.63-.19.95a13.33,13.33,0,0,0-.19,1.93,10.3,10.3,0,0,0,.86,3.95,33.07,33.07,0,0,0,2.11,4.06c.86,1.22,1.65,2.52,2.6,3.63a10.66,10.66,0,0,0,3.83,3.26,5.78,5.78,0,0,0,4.39.1,11.29,11.29,0,0,0,1.06,3.81,5.67,5.67,0,0,0,1.86,2.28c1.52,1,3.66,1.21,6.54.6a13.11,13.11,0,0,0,1.1,3.53,5.55,5.55,0,0,0,2.86,2.46,7.33,7.33,0,0,0,2.62.53,7.25,7.25,0,0,0,3.12-.62,6.33,6.33,0,0,0,3.51-4.2,9.91,9.91,0,0,0,2.63.35,3.45,3.45,0,0,0,2.3-.8c4.14-3.58,9.27-6.29,11.51-11.64.19-.47.36-.82.9-.92,4.23-.74,5.93-3.52,6-7.46a6.16,6.16,0,0,0,5.34-1.49c2.75-2.63,6-4.94,8.09-8a23,23,0,0,1,6.73-6.48,29.79,29.79,0,0,0,7.67-7.48,21.61,21.61,0,0,1,6.9-6.5,26.57,26.57,0,0,0,7.8-7.23,21.94,21.94,0,0,1,7.11-6.32,29.46,29.46,0,0,0,7.93-6.89,25.7,25.7,0,0,1,7.44-6.63c2.87-1.73,5.12-4.53,7.67-6.83.21-.19.41-.39.6-.59l6.79,6.28a4.23,4.23,0,0,0,3.21,1.11c1-.06,1.39.06,1.55,1.23.48,3.59,2.43,5.11,6,4.68,1.26-.15,1.4.12,1.26,1.23a5,5,0,0,0,1.63,4.25c1.61,1.66,5.24.55,5.42,1.44.46,2.17.66,4.17,2.46,5.67,2.22,1.83,4,4.35,6.55,5.55a14,14,0,0,1,5.89,5.34c1.18,1.79,4.35.17,4.86,1.63.63,1.81.94,3.6,2.49,4.88l3.31,2.8a47.43,47.43,0,0,0,3.87,3,4.8,4.8,0,0,0,3.5,1c1.44-.3,2,.33,3.3,1.05a11,11,0,0,0,5.36,1.18,14.12,14.12,0,0,0,4.93-1.06,18.94,18.94,0,0,0,3.78-2.09,35.69,35.69,0,0,0,3-2.42,3,3,0,0,0,.66-1.89c.08-1,.33-1.16,1.38-.87,3.74,1,5.73-.08,6.95-3.78.24-.72.31-1.06,1.28-1,4.35.36,5.78-.84,6.69-5.38,1.76.36,3.44.47,5-.71a5,5,0,0,0,1.57-2.37,13.13,13.13,0,0,1,1.15-2.66c.51-.77,1.48-1.24,2.55-2.24a6.23,6.23,0,0,0,2-4.87A4.86,4.86,0,0,0,827.31,248.6Z" style="fill:#ff3366;"/><path d="M878.56,1092a11,11,0,0,0-2-3c-.74.45-1.54.94-2.39,1.49-7.38,4.79-15.15,9.36-22.63,14.79A179.36,179.36,0,0,1,832.21,1118c-6,3.32-12.58,8.44-18.82,12.66l-.87.59c.42-.4.86-.82,1.35-1.25,4.16-3.76,6.66-10.46,7.55-19.28a20.17,20.17,0,0,0,4.2-3.93,25.65,25.65,0,0,0,2-2.82,31.93,31.93,0,0,0,1.81-3.61c3.51-8.13,7.25-16.53,9.32-24.82,1.83-7.22,3.58-13.34,6-20.38q.81-2.42,1.58-5l4.42-14.72-13.27,8.77c-3,2-6,4.09-8.92,6.3s-5.71,4.51-8.3,6.84a121,121,0,0,1-16.4,12.71c-5.7,3.63-11.2,8.9-16.79,13.39a54.66,54.66,0,0,0-7.6,7.11,18.52,18.52,0,0,0-4.11,7.12c-10,2.92-16.28,8.7-19.94,17.91-9.2,2.37-17.67,11.47-19.41,18.75-1,.28-2,.56-3.08,1a65.51,65.51,0,0,0,1.1-7.66,7.93,7.93,0,0,1,1.09-3.39c2.18-4.37,3.46-7.49,4.06-10.6a33.27,33.27,0,0,0,.14-10.46,28.63,28.63,0,0,0,5.39-11c2.1-8.74,4.17-17.48,6.06-26.26a23.59,23.59,0,0,0,.45-8.61,6.84,6.84,0,0,1,1-5.31c3.77-7,4.87-13.67,3.33-20.44-.54-2.4-.29-3.14.92-4.71,1.84-2.42,3-6.12,3.89-10.61a24.27,24.27,0,0,0,.12-7.22l-1.39-12.28-5.84,8c-.79,1.08-1.46,2.09-2.05,2.95l-.3-.18c0,.23,0,.46-.07.69a5.37,5.37,0,0,1-1.76,1.78c-4.7,2-8.65,3.65-13.56,7.86-2.92,2.68-6.09,5.24-9.08,7.9a84.45,84.45,0,0,0-8.21,8.24c-2.46,3-5,5.66-7.49,8.23s-5.15,4.92-7.88,7.39c-4.26,3.87-4.25,8.72-7.19,11-1.85,1.42-3.63,2.69-5.39,4.13a37,37,0,0,0-5.15,5.29c-4.94,6.19-9.7,12.53-14.33,19a22.06,22.06,0,0,0-3.66,6.75c-.66,2.54-1.93,3.62-3.79,5.78a104.15,104.15,0,0,0-10.09,13.8c-.1-.6-.21-1.2-.33-1.83a5.92,5.92,0,0,1,.22-4.33,33.85,33.85,0,0,0,2.65-11.47c.14-3.49-.63-7-2-11.62a28.82,28.82,0,0,0,2.63-12,26.42,26.42,0,0,0-.91-6.77,34.05,34.05,0,0,1-1.24-5.65c-.29-3.71,1.74-7.42,1.68-13-.19-5.92-3.33-9.42-2.73-13.49a54,54,0,0,0,.43-15.06l-1.08-8.75c-.41-2.91-.8-5.82-1.15-8.74a58.28,58.28,0,0,0-2-9.68l-3.67-11.58-5.28,9.21a17.11,17.11,0,0,0-2.63,7.81,35.82,35.82,0,0,0-3.27,1.81,32.65,32.65,0,0,0-2.84,2.07,25.22,25.22,0,0,0-7.9,10.74,34.11,34.11,0,0,0-2.06,7.16c-4.37,2.87-7.52,5.7-9.72,9.37a29.34,29.34,0,0,0-2.82,6.1,58,58,0,0,0-1.81,7.85,15.58,15.58,0,0,0-6.92,6.71c-6.06,11.36-13.06,22.85-15.56,35.31a6.1,6.1,0,0,1-1.08,2.85,37.69,37.69,0,0,0-3.38,5.32,32.88,32.88,0,0,0-2.07,5.41,29.64,29.64,0,0,0-1,5.38,32.43,32.43,0,0,0,.05,5.35,24.24,24.24,0,0,0-3.41,4.25,26.29,26.29,0,0,0-2.58,6c-1.33,4.23-2.6,8.57-3.83,12.86-.2.66-.36,1.32-.53,2-2.21-2.92-4.28-5.93-6.41-9.22a162.65,162.65,0,0,0-15.39-20.08,123.15,123.15,0,0,1-13.59-17.87c-1.58-2.51-3.33-5.09-5.19-7.65L518,1068.63l-2.08,14.48a102.24,102.24,0,0,0-1.13,16.26c.15,8.13-.37,15.11-.89,23.08a94.49,94.49,0,0,0,1.56,25.24c1.76,8.19,3.13,15.42,4.83,23.66a72.51,72.51,0,0,0,5.16,15l1.51,3.42,3.62-.06c3,0,6-.1,8.9-.08,4.79,0,8.94-.5,11.73-2.06,1.86-1,2.69-.89,4.78,0a28.34,28.34,0,0,0,22-.32c2.3-1,3.06-.87,4.81,0,2.76,1.33,6.62,1.8,11.17,1.75,6.29,0,11-3.44,13.57-3,4.77.84,8.55,2.28,14.71,1.89,3.92-.25,7.91-.35,11.85-.51s7.85-.47,11.58-1,7.53-1.1,11.2-1.4a85.82,85.82,0,0,1,11.07-.22,6,6,0,0,0,.67-.05c5-.39,7.87-3,11.18-3.19,3.79-.26,7,1.53,12.24.94,4.45-.54,9-1,13.49-1.43s8.92-1.13,13.15-2c3.58-.74,6.88-1.43,10.22-1.91s6.7-.8,10.36-1.11c4.28-.34,8.81-.84,13.29-1.66s8.93-1.78,13.11-2.94c5-1.4,9.55-2.51,14.31-3.48l-2.57,4.68,6.33-5.41,3-.54a110.24,110.24,0,0,0,25.28-7.4c7.47-3.31,14.05-5.55,21.61-8.12a96.68,96.68,0,0,0,22.06-10.63c2-1.39,4-2.66,6-3.89s3.89-2.48,5.86-3.64l1.22-.71.67-1.51c1.5-3.41,3-6.83,4.46-10.46a71.2,71.2,0,0,0,3.46-11.63c.42-2,.8-4,1.1-6.09.16-1,.29-2,.43-3.06l.19-1.53.09-.76,0-.38,0-.19.05-.55A8.87,8.87,0,0,0,878.56,1092Z" style="fill:#ff3366;"/></g></g></svg>