<svg xmlns="http://www.w3.org/2000/svg" viewBox="0 0 1035.49 1021.66"><title>noMessage</title><g id="Layer_2" data-name="Layer 2"><g id="Layer_1-2" data-name="Layer 1"><path d="M960.8,833.83a50.56,50.56,0,0,0-3.4-11.2A33.1,33.1,0,0,0,950,811.88,35.78,35.78,0,0,0,938.82,805a74.93,74.93,0,0,0-11.55-3.39,106.22,106.22,0,0,0-20.61-2.27,72.56,72.56,0,0,0-15.46,1.19c-6.42-2.35-13.45-4.52-18.87-7.25-5.88-3-11.49-6.17-16.4-8.61A37.51,37.51,0,0,1,845.19,777,32.57,32.57,0,0,1,838.52,766c-.21-.59-.48-1.16-.69-1.77s-.43-1.22-.67-1.83c-.52-1.21-.9-2.49-1.4-3.78-.27-.64-.48-1.3-.68-2s-.45-1.35-.7-2-.4-1.41-.62-2.13-.47-1.44-.63-2.21a76.48,76.48,0,0,1-2.55-21.42c2.92-5.62,6.16-12,11-22.41,3.64-7.86,8.06-15.68,12.28-23.65,2.11-4,4.18-8,6.08-12.13q1.43-3.08,2.7-6.21c.85-2.09,1.64-4.16,2.31-6.43a82.32,82.32,0,0,0,3.66-22.59,102.12,102.12,0,0,0-2-22.56,90.76,90.76,0,0,0-10.1-26.91,92.55,92.55,0,0,0-17.84-22.48,104.54,104.54,0,0,0-18-13.2A93,93,0,0,0,800,541.27a60.62,60.62,0,0,0-23.13-1.9c-2,.25-4,.59-6,.9s-3.84.89-5.76,1.34l-1.43.34-1.4.43-2.8.85c-.93.29-1.87.55-2.78.86l-2.71,1a92.63,92.63,0,0,0-10.7,4.6q-2.43,1.31-4.71,2.61c-1.52.85-2.89,1.84-4.24,2.73a50.58,50.58,0,0,0-12.1,11.06,85.11,85.11,0,0,0-23.88,15.29,95.41,95.41,0,0,0-17.3,21.21c-7.67,4.47-15.4,11.68-22.65,17.15a54.2,54.2,0,0,1-10.61,6.52,39.77,39.77,0,0,1-5.1,1.82c-1.67.42-3.31.79-4.86,1a47.68,47.68,0,0,1-6.36-3.81l-1.74-1.19c-.59-.44-1.22-.86-1.87-1.3s-1.33-.94-2-1.42-1.42-1.05-2.2-1.58a45.9,45.9,0,0,1-12.33-12.87,67,67,0,0,1-7.56-16.68c-3.67-11.91-5.13-24.61-6.75-37.08a26.83,26.83,0,0,1,0-7.14c.94-9.62,1.68-16.32,1.78-22.71a138.86,138.86,0,0,0-1.38-20.76c.83-3.35,1.64-6.75,2.25-10.69a75.9,75.9,0,0,0,.91-13.92c0-1.18-.08-2.37-.14-3.56s-.12-2.39-.21-3.52l-.5-6.86-.5-6.86-.57-6.86c-.39-4.58-.74-9.15-1.22-13.72s-.84-9.15-1.4-13.72a86.19,86.19,0,0,0-3.44-17.15A27.66,27.66,0,0,1,591,394.77a113.76,113.76,0,0,0-2.08-22.14,88.5,88.5,0,0,0-2.54-10.07q-1.6-4.87-3.62-9.45c-1.87-4.33-2.23-5.88-2.19-9.62a59.69,59.69,0,0,0-1-10.07c-.74-3.79-1.77-8-3-12.54a41.38,41.38,0,0,0-1.49-4.53c-.55-1.46-1.12-2.86-1.71-4.21-1.17-2.7-2.36-5.17-3.46-7.37-2.37-4.36-4.33-7.65-4.78-9.66-1.05-5-2.33-9.45-3.81-14.27-.37-1.2-.77-2.43-1.19-3.68l-.65-1.9-.79-1.92c-1.09-2.59-2.33-5.34-3.77-8.32l-1.33-2.75-.66-1.38-.73-1.36-2.91-5.47c-1.94-3.65-3.8-7.37-6-10.86s-4.21-7-6.39-10.4q-1.69-2.48-3.39-4.89c-1.16-1.58-2.34-3.11-3.51-4.61-5-6.27-9.74-12.07-14.49-17.73s-9.6-11.1-14.76-16.66A54.89,54.89,0,0,0,489,179.62c-1.87-1.12-3.6-2.18-5.25-3.25a28.7,28.7,0,0,1-4.57-3.49c-1.74-1.62-3.45-3.13-5.13-4.66s-3.46-2.93-5.27-4.4S465,161,462.9,159.55s-4.39-2.75-6.87-4.19a230.38,230.38,0,0,0-22.29-10.51c-7.62-3-15.39-5.66-23.24-7.94-2.81-.75-5.59-1.53-8.23-2a54.39,54.39,0,0,0-7.22-1,35.37,35.37,0,0,1-6.79-.88c-2.14-.45-4.35-1-7.18-1.73a225,225,0,0,0-40.95-5.56,297,297,0,0,0-41.6,1.13,36,36,0,0,0-8.2,1.88c-3.2,1.08-4.72,1.26-9,.88-15.13-1.23-27.34.56-43.15,6.51a37.14,37.14,0,0,1-3.86,1.33,26.71,26.71,0,0,1-4.76.81c-4.79.43-8.94,1.13-12.78,1.83a93.6,93.6,0,0,0-10.7,2.82,84.78,84.78,0,0,0-10.21,4.18c-1.74.85-3.55,1.73-5.41,2.76s-3.79,2.16-5.83,3.37A99.81,99.81,0,0,0,174,155.77a94.77,94.77,0,0,0-13,5.2c-9.9,4.85-14.85,9.65-21.54,14-6.42,4.11-14,6.27-23.32,12.89-1.24.89-2.4,1.76-3.48,2.64s-2.05,1.81-3,2.69c-1.87,1.77-3.54,3.45-5,5.14s-3,3.22-4.45,4.66a33.67,33.67,0,0,1-4.66,4A126.93,126.93,0,0,0,72.7,227.78a273.18,273.18,0,0,0-21.81,29.13C42.4,269.74,37,282,36.25,290.14a95,95,0,0,0-8,11.72q-1.65,3-3.1,6.1c-.48,1-1,2.05-1.39,3.1s-.82,2.11-1.21,3.17A94.85,94.85,0,0,0,17,342.08c-9,18-11.73,31.65-10.51,55a62.79,62.79,0,0,0-2.78,7.68,56.63,56.63,0,0,0-1.87,10.78C.87,428.64,0,442,0,455.2a234.27,234.27,0,0,0,2.79,38.9,27.13,27.13,0,0,1,.52,6.19,117.72,117.72,0,0,0,1.1,24.36,119.18,119.18,0,0,0,5.38,20.73,64.75,64.75,0,0,0-.31,10.53A110.16,110.16,0,0,0,10.9,569c.68,4.55,1.61,9.1,2.43,13.68l2.53,13.72c.93,4.54,2,9,3,13.44s2.07,8.77,3.33,13c2.33,7.66,4.28,14.79,6.11,21.93,2,7.08,3.87,14.17,5.76,21.79,2.18,8.11,4.78,16.58,7.48,25,3,8.33,6,16.63,9.2,24.35,3.21,7.4,6,14.36,8.79,21.36,2.91,6.94,5.66,13.94,8.46,21.53,3.08,7.71,6.56,15.89,10.28,23.95,1.95,4,3.94,8,5.94,11.82l3,5.73c1,1.88,2,3.73,3.06,5.5,4.17,7.07,7.79,13.8,11.4,20.5s7.25,13.32,11,20.44c4,7.19,8.27,14.7,12.76,22,4.65,7.24,9.36,14.42,14.1,21l7.2,9.89c2.32,3.25,4.69,6.42,7,9.62,1.14,1.61,2.36,3.18,3.55,4.77l3.6,4.8c2.52,3.15,4.94,6.45,7.69,9.67A137.34,137.34,0,0,0,207.63,961c2.25,1.2,4.44,2.34,6.55,3.37s4.27,1.71,6.26,2.41c1,.34,1.95.71,2.91,1s1.89.45,2.79.64a45,45,0,0,0,4.95.77l1.39.15c.44,0,.85.07,1.24.12a13.7,13.7,0,0,1,2.18.47,28.73,28.73,0,0,1,4.77,2.11,23.17,23.17,0,0,0,2.56,1.16q1.31.53,2.65,1c1.79.67,3.62,1.3,5.49,1.89s3.75,1,5.65,1.38c1,.2,1.91.41,2.87.58s1.93.3,2.9.43a85.59,85.59,0,0,0,22.9.18c4.84-.69,6.37-.36,9.88.66,5.54,1.68,13.45,2.44,22.77,2.68,12.89.29,22.71-3,27.94-2.45,9.66,1.08,17.19,2.6,29.65,2.86,7.86.21,16.06.71,24.1,1s16,.57,23.71.47c15.78-.2,30.39-.24,45.54,1,.41,0,.91,0,1.36,0,10.24.19,16.56-2.1,23.32-1.94,7.76.16,13.79,2.2,24.62,2.13,18.27-.15,37.14.37,54.68-.38,14.86-.63,27.4-.71,42.33-.12,17.43.69,37,.42,54.47-.41,15.25-.74,28.38-.85,43.63-.54,17.12.4,36.29.23,53.09-.81,16.37-1,30.44-1,46.4-.68s33.5.15,49-.81c8.74-.54,17-.81,25.28-.91s16.8-.3,25.89-1.88a54.81,54.81,0,0,0,12.39-3.68,40.19,40.19,0,0,0,11.55-7.56A38.68,38.68,0,0,0,945.55,956a71.66,71.66,0,0,0,4.51-12.28c.44-1.54.64-3,1-4.43q.8-2.72,1.56-5.73c4.31-17.45,8.26-35.76,9.36-53.16.49-8,.77-15.49.7-23.05A141.23,141.23,0,0,0,960.8,833.83Z" style="fill:#f2d525;"/><path d="M454.18,989.95c-1.6-3.25-2.91-5.61-4.68-8.7-.26-.42-.55-.86-.85-1.27s-.57-.73-.87-1.09a18.71,18.71,0,0,0-1.92-1.9,15.76,15.76,0,0,0-4.14-2.58,10.2,10.2,0,0,1-5.44-4.71c-.54-1-1-1.89-1.51-2.75a26.83,26.83,0,0,0-1.75-2.57c-1.53-2-1.66-4.48-1.19-7.13.42-2.41.12-5.05.19-7.8a6.14,6.14,0,0,0-.17-.76l-5.33-.27h0l5.33.27a5.22,5.22,0,0,0,.19-1c.27-3.08.92-6.24.42-9.23a14.84,14.84,0,0,1,.52-7.79c.83-2.33.4-5,.73-7.54s-.15-4.73-2.75-6.4c3.37-2.07,4.8-4.72,3.11-6.88s-1.54-3.07.45-4.78,1.16-4.18-1.51-7.42c1.81-.91,3.21-2.09,3.44-4.12.32-3.07,1.21-6.17.9-9.2a15.93,15.93,0,0,1,.91-7.35,22.47,22.47,0,0,0,1.21-9.37,13.27,13.27,0,0,1,1.05-7.24,11.56,11.56,0,0,0,.87-3.63l.2-1.92c.07-.66.16-1.32.29-2,.56-2.73.2-5.19-2.37-6.94,4.69-3,4.89-6.28.71-9.68,4.66-2.88,3.9-7.74-.17-9.81,1.24-.94,2.78-2,2.64-3.58-.2-2.44-.15-5-.58-7.46a12.09,12.09,0,0,0-3.21-6.84c-.47-.46-.36-.81-.3-1.34.53-4.1-.49-5.69-4.59-7a8.63,8.63,0,0,0,.49-2.67,4.3,4.3,0,0,0-.86-2.7,37.8,37.8,0,0,0-7.81-8,4.48,4.48,0,0,0-3.66-.84c-1,.24-1.44.19-1.95-1-1.58-3.43-4.55-4.39-7.69-2.5-1.1.64-1.34.52-1.77-.56A4.28,4.28,0,0,0,409.3,780a7.17,7.17,0,0,0-2.36-1,4.92,4.92,0,0,0-3.47,1c-1,.66-1.71,1.3-2.07,1-1.78-1.38-3.44-2.75-6-2.5-3.06.33-6.46.17-9.09,1.6a21.65,21.65,0,0,1-8.15,2.5c-1.15.14-1.7,1.19-2.15,2.1s-.77,1.81-1.56,1.78c-2-.06-3.87-.29-5.67.91a66,66,0,0,0-7.32,5.71,3.9,3.9,0,0,0-1.54,2.69c-.05,1.27-.72,1.48-1.74,2a16.15,16.15,0,0,0-5.71,5.66,22.5,22.5,0,0,0-2.8,7.69,3.07,3.07,0,0,0,.7,2c.6.86.51,1.11-.46,1.64-3.48,1.92-4.08,4.54-2,7.89.4.66.62.92-.06,1.63-3,3.24-2.85,5.22.29,8.53-1.32,1.19-2.38,2.48-2.36,4.39s1.86,3,2.17,4.37-1.88,2.67-2,4.63,2.91,3.31,2,4.76a8.91,8.91,0,0,0-1.62,5.36c.11,2.08.25,4.16.24,6.24,0,2.64.69,4.89,3.56,6.08-4.25,3.52-4.11,6.39.28,9.62-3.94,3.66-3.79,6,.67,9.71-1.32.88-2.7,2-2.59,3.47.38,4.55-.68,9.38,2.17,13.55.25.36.42.65.16,1.07-2,3.23-.9,5.78,2.18,7.76-1.42,1.28-2.33,2.62-2.13,4.39.19,1.6.24,3.25.38,4.86a16.3,16.3,0,0,0,.83,4.44,14.77,14.77,0,0,1,.51,7.66,20.6,20.6,0,0,0,.6,9.07,20.75,20.75,0,0,1,.83,4.06,22.17,22.17,0,0,1-.07,4.21,19.74,19.74,0,0,0-.1,2.38,17.86,17.86,0,0,0,.28,2.45,15.3,15.3,0,0,0,1.57,4.65,31.61,31.61,0,0,1,2.83,8.47,12.24,12.24,0,0,0,.72,2.37c.31.78.65,1.56,1,2.32a19,19,0,0,0,3,4,24.73,24.73,0,0,1,3.3,3.37,25.21,25.21,0,0,1,2.88,3.7c1.8,2.53,4.71,4.17,7.26,6a4.69,4.69,0,0,0,4.87.68c1.12-.51,1.3-.26,1.56.88.86,3.83,3.87,5.27,7.41,3.56,1.17-.57,1.35-.3,1.62.77a5,5,0,0,0,3.24,3.33,4.38,4.38,0,0,0,3.39-.43c1-.44,1.86-.91,2.24-.52,1.41,1.47,2.42,3.31,4.73,3.72,1.46.26,2.93.63,4.4.91a16.49,16.49,0,0,0,4,.39c2.8-.15,5.39,0,7.88,1.45a.79.79,0,0,0,.24,0c1.8.35,3.26-1.81,4.43-1.53,1.35.31,2.16,2.54,4.15,2.7,3.33.25,6.87,1.09,10.5.13,1.54-.42,3-.77,4.69-1.3.4-.11.9-.31,1.35-.48a15.42,15.42,0,0,0,1.52-.72,19.93,19.93,0,0,0,2.78-2.06,11.26,11.26,0,0,0,3.51-7.07A12.76,12.76,0,0,0,454.18,989.95Z" style="fill:#382d15;"/><path d="M293.46,827.85c2.13-1.8,3.09-3.58,2.92-5.29s-1.49-3.33-3.95-4.66c1.62-2.21,2.18-4.15,1.57-5.77a4.72,4.72,0,0,0-1.71-2.21,11,11,0,0,0-3.4-1.7c.88-1.37,1.57-3.08.71-4.5a59.48,59.48,0,0,0-4.28-6.45A12,12,0,0,0,279,793c-.46-.11-.8-.2-.93-.71-1.06-3.89-4.2-5-7.7-3.73a7.24,7.24,0,0,0-.75-2.6,4.43,4.43,0,0,0-1.91-1.79c-3.15-1.54-6.45-3.41-9.9-3.56a31.54,31.54,0,0,1-8.52-1.66,17.38,17.38,0,0,0-10-.11,33.89,33.89,0,0,1-8.87,1.53,15.91,15.91,0,0,0-9.5,3.86,65.41,65.41,0,0,1-7.61,5.64,16.5,16.5,0,0,0-6.3,8,40.68,40.68,0,0,1-3.93,8.51c-1.61,2.69-1.92,6-2.52,9a4.65,4.65,0,0,0,1.32,4.7c.93.82.75,1.09-.2,1.77-3.16,2.27-3.36,5.48-.47,8.11,1,.87.78,1.14-.12,1.77a4.93,4.93,0,0,0-2,4.13c-.09,2.36,3.28,3.94,2.77,4.9-.93,1.79-2.37,3.29-2.08,5.55.38,2.86.23,5.9,1.26,8.52s1.73,5.06,1.07,7.81a.73.73,0,0,0,0,.23c.19,1.76,2.67,2.51,2.72,3.69.06,1.35-1.88,2.68-1.58,4.53.51,3.13.36,6.44,1.41,9.37a14.66,14.66,0,0,1,.86,7.28,21.37,21.37,0,0,0,1,9.38,15.64,15.64,0,0,1,.8,7.52,20.17,20.17,0,0,0,.83,9.16,15.9,15.9,0,0,1,.61,8,19,19,0,0,0,.67,8.47,17.93,17.93,0,0,1,.51,8.71c-.38,2.71.15,5.53.35,8.29a6.08,6.08,0,0,0,.26,1.34h-.07c0,.14,0,.28,0,.43,0,3.07-.35,6,.15,8.67a7.6,7.6,0,0,1-1.15,6.36c-1.2,1.51-1.47,3.34-2.81,4.73a6,6,0,0,0-1.67,6,8.7,8.7,0,0,0-4.79-.26,3.37,3.37,0,0,0-2.44,2.75,4.65,4.65,0,0,1-1.12,2.76,3,3,0,0,1-1.14.61,6.52,6.52,0,0,1-.8.19l-1,.23a4,4,0,0,0-3,2.95,8.63,8.63,0,0,0,.56,5.7,5.7,5.7,0,0,0-2.65,1.72,5.37,5.37,0,0,0-1.18,3.56,14.86,14.86,0,0,0,1.88,7.38c.37.57.77,1.13,1.19,1.67s.94,1,1.43,1.4a9.08,9.08,0,0,0,4,1.9c2,.35,3.51.37,5,.51s2.79.28,4.24.54a19.81,19.81,0,0,0,10.05-.91,15.24,15.24,0,0,1,7.46-1.13c2.5.29,5.08-.82,7.54-1.08a10,10,0,0,0,1.81-.34,6.94,6.94,0,0,0,1.75-.76,5.47,5.47,0,0,0,2.33-3.18c4.27,3.58,7.71,2.63,9.49-2.47,2.16,1.68,4.37,1.91,6.08,1.12a5.73,5.73,0,0,0,3.09-4.85c1.34.78,2.95,1.77,4.35,1,2.2-1.16,4.57-2.14,6.7-3.54a12.09,12.09,0,0,0,5-5.72c.23-.61.58-.67,1.1-.81a7,7,0,0,0,3.93-2.39,3.84,3.84,0,0,0,.65-1.94,12.45,12.45,0,0,0-.06-2.74c1.86-.17,3.61-.65,4.74-2.45a21.09,21.09,0,0,0,1.31-2.37l1.22-2.41c.35-.82.68-1.65,1-2.48a25.85,25.85,0,0,0,.92-2.5,4.47,4.47,0,0,0-.31-3.55c-.53-.88-.61-1.29.34-2a7.75,7.75,0,0,0,1.72-1.78,4.51,4.51,0,0,0,.67-1.91,5.15,5.15,0,0,0-1.57-4c-.84-1-.7-1.21.3-1.74a4.88,4.88,0,0,0,2.46-3.85c.35-2.3-2.76-4.45-2.18-5.12,1.41-1.65,2.85-3.06,2.89-5.32.06-2.79.89-5.63.34-8.19a10.1,10.1,0,0,1-.16-3.81,14.7,14.7,0,0,1,1.06-3.62c.8-2-2.32-3.62-1.41-4.83,1.13-1.51,2.43-2.76,2.59-4.72.23-2.81.51-5.61.78-8.4a3.57,3.57,0,0,0-.61-2.78c-.79-.95-.36-1.49.11-2.45,2.17-4.55,2.13-9.44,1.36-14.29a3,3,0,0,0-1.22-1.52c-.82-.62-.79-.89,0-1.57,2.94-2.41,3.15-4.51.85-7.53-.45-.59-.68-.84,0-1.54,2.86-3.15,2.76-4.84-.25-8.23,1.37-1.11,2.5-2.28,2.61-4.17s-1.65-3.1-1.86-4.49,2.06-2.54,2.27-4.49-2.69-3.5-1.69-4.89a8.93,8.93,0,0,0,2-5.23c0-2.07,0-4.19.16-6.32C297,831.53,296.34,829.08,293.46,827.85Z" style="fill:#382d15;"/><polygon points="438.75 973.02 438.75 973.02 438.75 973.03 438.75 973.02" style="fill:#ff3366;"/><path d="M461.57,993.35c-.09-1.05-.69-1.87-2.26-2.34-1-.31-.93-.55-.12-1.16,2.76-2.1,2.21-4.67-1.12-5.51-1.11-.28-1-.49-.27-1.19a3.11,3.11,0,0,0,.88-3.39c-.25-.79-1.25-1.13-2.17-1.33s-1.69-.3-1.59-.7c.4-1.5,1.28-3.1.4-4.4-1.12-1.61-1.85-3.59-3.47-4.69s-3-2.2-3.41-4.23c0-.06-.07-.08-.1-.13-.53-.63-1.67-.37-2.52-.31l-.51-.46-.59-.52c0-.92.33-2.21-.49-2.91l-1.48-1.27a12.52,12.52,0,0,0-2.07-1.46,8,8,0,0,0-2-.77,6.82,6.82,0,0,0-1.9-.17l-.62.06a6.4,6.4,0,0,0-.73.15,6.19,6.19,0,0,0-1.5.62,6.27,6.27,0,0,0-1.33,1,6.37,6.37,0,0,0-1.22,1.74,6.09,6.09,0,0,0-.55,2.09,6.74,6.74,0,0,0,0,.95,5.87,5.87,0,0,0,.1.7,6.62,6.62,0,0,0,.17.65q.08.23.17.45t.2.43l.17.3a5.51,5.51,0,0,0,.68.92,12.51,12.51,0,0,0,1.64,1.4c.44.33.82.62,1.16.92a8.7,8.7,0,0,1,1.74,2,9.57,9.57,0,0,0,1.78,2.08h0l.05,0,.06,0h0l0,0a1.21,1.21,0,0,0,.17.11,7.52,7.52,0,0,0,.7.36c1,.44,1.33,1.54,1,2.89a7.56,7.56,0,0,0,.54,5.28,6.89,6.89,0,0,1,.51,1.35,4,4,0,0,1,.1.5,3.08,3.08,0,0,1,0,.42,1.64,1.64,0,0,1-.19.77,2.87,2.87,0,0,1-.18.35l-.27.29a2.27,2.27,0,0,0-1,2.1c-.06,1.22-1.31,1.75-2.72,1.64s-2.48.61-3.92.87c-.13,0-.24.21-.36.26l.68,5.29h0l-.68-5.29a1.71,1.71,0,0,0-.57-.08c-1.7.11-3.43-.36-5.08.28a4.39,4.39,0,0,1-4.34-.44c-1.21-.84-2.78-.55-4.16-1s-2.7-.23-4.41,2.09c-.35-3.49-1.31-5.12-3.13-3.84s-2.35,1-2.6-1.16-1.89-1.75-4.93,0c.21-1.83.08-3.35-1.05-4-1.72-.93-3.24-2.36-5.21-2.7a6.68,6.68,0,0,1-4.13-2.29,9.09,9.09,0,0,0-5.3-2.89,5.71,5.71,0,0,1-4.1-2.28c-1-1.35-2.81-1.62-4.17-2.53s-3-1.1-5.14.9c.12-4.87-1.66-5.74-5.4-2.82.33-4.91-2.58-5.56-5.56-2.62.06-1.4.19-3.1-.66-3.51-.67-.33-1.53-.82-2.45-1.25a10.7,10.7,0,0,0-3.51-1,8.24,8.24,0,0,0-2.52.15,7.48,7.48,0,0,0-2.89,1.31,6.15,6.15,0,0,0-2,2.43,5.3,5.3,0,0,0-.42,2.31,1.5,1.5,0,0,1-.56,1.32c-1.32,1.6-1.68,2.83-1.44,3.81s1.18,1.78,2.82,2.54c-1.14,1-2.18,2.23-1.82,3.53.61,2.21,1.3,4.24,2,6.21a2.31,2.31,0,0,0,1.93,1.37c.82.15,1.07.31.54,1.09-1.61,2.4-1,3.51,1.89,3.91,1,.18.95.33.1.8a2.94,2.94,0,0,0-1.63,2.77c.07,1.42,3.47,2.12,3,2.65-1.11,1.31-2.29,2.47-1.92,3.95.45,1.79.2,3.92,1.41,5.48a7.6,7.6,0,0,1,1.53,5.25c0,1.61,3.42,1.13,3.11,2.26a13.33,13.33,0,0,0-.48,2.15,2.86,2.86,0,0,0,.42,2l.44.67a11.13,11.13,0,0,0,.85,1.1,11,11,0,0,0,2.07,1.82,9.8,9.8,0,0,0,5.78,1.73A5.65,5.65,0,0,0,372,1021a4.37,4.37,0,0,0,1-.69,3,3,0,0,0,.58-.85,3.84,3.84,0,0,1,1-1.49c.37-.34.85-.62,1.34-1a9.79,9.79,0,0,0,3.14-5.62,14.08,14.08,0,0,0,0-4.64c-.05-.36-.62-.82-1.12-1.14-.78-.52-.73-.68.13-1,3.05-1.08,3.38-2.35,1.32-4.62-.4-.44-.62-.63.07-1l.25-.13a1.31,1.31,0,0,0,.24.25c1.12.8,3.26-1.42,3.63-.16.45,1.54,1,2.65,2.2,3.19s2.44,1.14,3.61,1.81c1.48.87,3.07,1,5-1.23,0,4.91,1.82,5.69,5.51,2.74.37,4.66,1.83,5.3,5.77,2.34,0,1.46,0,3.08.92,3.41,2.75,1,5.13,3.46,8.62,2.07.3-.12.54-.2.68.17,1.08,2.85,3,2.54,5.26.29.21,1.71.66,2.93,1.76,3.27,2,.61,3.89,1.79,6,1.59a7.5,7.5,0,0,1,5,1.33,8.94,8.94,0,0,0,6.4,1,16.61,16.61,0,0,1,6.39-.13,8.46,8.46,0,0,0,4-.48,8,8,0,0,0,3.41-2.41c1.65-2,3.27-3.42,5.13-5.33a9.07,9.07,0,0,0,2.53-7.27,14.27,14.27,0,0,1,.23-6.28C462.46,997.08,461.72,995.14,461.57,993.35Z" style="fill:#ff3366;"/><path d="M438.75,973h0Z" style="fill:#ff3366;"/><path d="M296.94,966.85a7.5,7.5,0,0,0-.13-1.26,7.39,7.39,0,0,0-.43-1.36,7.47,7.47,0,0,0-.76-1.4c-.16-.24-.3-.44-.51-.69s-.47-.52-.72-.76a8.32,8.32,0,0,0-3.69-1.94,10.59,10.59,0,0,0-3.2-.22c-2.13.17-3.19,1.2-3.38,2.89-.11,1.14-.33,1.07-1.17.49-2.73-1.94-4.41-1.17-4.59,2.19-.06,1.11-.29,1-1,.4a3,3,0,0,0-3.19-.7c-1.37.5-.87,3.92-1.65,3.67-1.44-.45-2.91-1.43-4.13-.72-1.55.91-3.44,1.3-4.66,2.66s-2.52,2.44-4.5,2.35c-.05,0-.09,0-.14.07-1,.5-.51,2.88-1.22,3.15s-2.42-1.21-3.45-.58c-1.73,1.06-3.84,1.56-5.19,3.11a6.17,6.17,0,0,1-4.09,2.25,8.62,8.62,0,0,0-5.25,2.87,5.55,5.55,0,0,1-4,2.1,7.67,7.67,0,0,0-5,2.09,5.09,5.09,0,0,1-4.43,1.37,7.11,7.11,0,0,0-4.71,1.05,5.23,5.23,0,0,1-4.85.41c-1.49-.54-3-.17-4.55-.3a2,2,0,0,0-.76.12l-.69,5.3h0l.69-5.37a1.52,1.52,0,0,0-.21-.09c-1.61-.34-2.93-1.17-4.34-1s-2.33-.42-2.37-1.53a1.26,1.26,0,0,0-.37-.95c-.11-.12-.18-.26-.3-.38a1.56,1.56,0,0,1-.18-.48c0-.73-.72-1.34-3.4-2.3a11.61,11.61,0,0,0,1.12-.39,8.61,8.61,0,0,0,1-.53,4.39,4.39,0,0,0,1.25-1.13,1.44,1.44,0,0,0-.48-2.17c-1.7-1.28-1.63-2,.33-2.64,1-.33,1.24-.72,1-1.33a14.78,14.78,0,0,0-1.78-2.36,3.54,3.54,0,0,1,.29-.27c1.47.26,2.49.51,2.8.16-.21.21-.06.07,0,0l.47-.32c.37-.24.78-.5,1.19-.79a8.36,8.36,0,0,0,2.31-2.26c.29-.44.58-.84.93-1.29s.72-.88,1.23-1.56a8,8,0,0,0,.89-1.51c.09-.21.17-.43.25-.65a6.65,6.65,0,0,0,.21-.94l0-.25,0-.34a6.38,6.38,0,0,0,0-.68,5.43,5.43,0,0,0-.35-1.51,5.81,5.81,0,0,0-1.7-2.35,5.93,5.93,0,0,0-2.12-1.13,7.28,7.28,0,0,0-3.24-.16,10.17,10.17,0,0,0-3.19,1.09,10,10,0,0,0-1.79,1.21,8.9,8.9,0,0,0-2.22,2.81,6.9,6.9,0,0,1-3.41,3.69c-1.59.79-2.29,2.62-3.46,3.95s-1.64,3.16.17,5.43c-4.89-.42-6.1,1.94-3,5.64-2.49,0-3.9,1-4.21,2.27s.5,2.83,2.24,4c-1.36.31-3.08.72-3.25,1.85-.06.44-.13.89-.21,1.33l-.12.59-.12.5c-.15.65-.33,1.37-.43,2.07a6,6,0,0,0,1.07,4.59c.28.38.07.56-.18.85-2,2.23-1.69,3.58,1.48,5.37a7.47,7.47,0,0,0-1.57,1.64,2.74,2.74,0,0,0-.36,2.1,17.71,17.71,0,0,0,4.22,7.68,2.89,2.89,0,0,0,2.91.77c.89-.25,1.19-.25,1.38.8a4.82,4.82,0,0,0,.89,1.95,3,3,0,0,0,1.44,1,3.57,3.57,0,0,0,3.45-1.28c.79-.84.94-.68,1.29.28a3.24,3.24,0,0,0,3,2.23c.9.08,1.67-.75,2.22-1.52s.92-1.49,1.19-1.27c1.35,1.16,2.64,2.3,4.2,1.9,1.9-.51,4-.36,5.37-1.54a5.84,5.84,0,0,1,4.86-1.24c1.42.18,1.26-3.25,2.28-2.75,1.28.62,2.47,1.44,3.66,1q2.56-.91,5.14-1.77a1.84,1.84,0,0,0,1.36-1.39c.24-1,.71-.77,1.45-.64,3.47.64,6.27-.91,8.72-3.07a2.54,2.54,0,0,0,.35-1.57c0-.94.17-1,.9-.45,2.62,1.94,3.92,1.43,4.62-1.56.14-.58.17-.86.85-.51,3,1.56,4,.94,4.5-2.82,1.25.86,2.44,1.49,3.54,1s1-2.47,1.62-3.1,2.39,1,3.59.5.61-3.5,1.87-3.12c.36.11.7.2,1,.26-2.66,2.36-2,3.89,2.07,5.1-3.66,2.91-3.39,4.35,1.21,6-1.26.75-2.57,1.66-2.39,2.56.08.37.11.67.17,1.12s.11.89.2,1.4a10.49,10.49,0,0,0,1.22,3.57,8.28,8.28,0,0,0,1.65,2,7.29,7.29,0,0,0,2.53,1.46,5.89,5.89,0,0,0,5.27-.6c.45-.32.73-.57,1.29-.45a4.54,4.54,0,0,0,4.9-2.2,5.31,5.31,0,0,0,.28-.62,1.64,1.64,0,0,0,0-.44,3.94,3.94,0,0,0-.1-.9,6.35,6.35,0,0,0-.85-2c1.74.08,3.11-.27,3.65-1.47,1-2.14,2.32-4.24,2.17-6.49a8.65,8.65,0,0,1,1.28-5.22,8.7,8.7,0,0,0,1-5.85,7.25,7.25,0,0,1-.09-2.59,5.82,5.82,0,0,1,.33-1.2q.11-.3.26-.59a1.71,1.71,0,0,1,.16-.27l.15-.14a6.4,6.4,0,0,0,1.51-4.7,7.43,7.43,0,0,1,1.74-5,8.91,8.91,0,0,0,1.69-6,17.69,17.69,0,0,1,0-3.35C296.71,969.72,296.92,968.52,296.94,966.85Zm-87.67.56h0Z" style="fill:#ff3366;"/><path d="M577.53,805.62A123.67,123.67,0,0,0,576.2,790c-.38-2.54-.75-5-1-7.44-.14-1.2-.26-2.39-.35-3.54s-.11-2.15-.11-3.44a131.71,131.71,0,0,1,.71-14.64c0-.26,0-.59,0-.89.08-6.66-2.25-10.75-2.13-15.15.14-5,2.26-9,2.23-16-.06-11.87.58-24.19-.31-35.67-.8-9.72-1.09-17.92-1.11-27.77a156.59,156.59,0,0,0-4.29-35.76L569,626c-.28-1.2-.62-2.37-.9-3.53-.6-2.33-1.12-4.63-1.68-6.92-1.23-4.56-2.22-9.18-3.58-14.11l-1.11-4.22L560.27,593l-1.5-4.27c-.52-1.43-1.17-2.81-1.77-4.2a81,81,0,0,0-3.94-8.16q-1.09-2-2.19-3.86l-1.1-1.88c-.39-.61-.79-1.2-1.19-1.78l-17.34-25.57a227.76,227.76,0,0,0-20.05-24.94,129.11,129.11,0,0,1-18.83-26c-1.22-2.12-2.36-4.31-3.56-6.48s-2.35-4.35-3.41-6.53a40.76,40.76,0,0,1-4.14-13.08c-.14-1.48-.21-2.82-.24-4.12h.07c.07-.45.15-.87.2-1.34.64-4.86,2.72-10,4.85-15.4,1.06-2.72,2.13-5.55,3-8.53a48.93,48.93,0,0,0,1.77-9.05c.29-2.64.47-5.16.81-7.21a16.62,16.62,0,0,1,1.79-5.48,29,29,0,0,1,3.64-5.16c1.48-1.72,3.15-3.5,4.93-5.24,3.13-3.08,6.33-6.53,9.53-10.27a131.93,131.93,0,0,0,9.22-12.06,40.93,40.93,0,0,0,6-13,26.25,26.25,0,0,0,.67-6,22.54,22.54,0,0,0-.17-2.65,19.87,19.87,0,0,0-.58-2.39q.42-.81.83-1.65c.25-.56.46-1.11.68-1.68.43-1.13.82-2.3,1.19-3.48a31.84,31.84,0,0,0,.93-3.58c.22-1.21.4-2.42.54-3.62s.24-2.41.3-3.59-.06-2.34-.15-3.47a24.81,24.81,0,0,0-1.18-6.29,56.5,56.5,0,0,1-2.39-9.1,28.38,28.38,0,0,1-.31-4.28c0-1.52-.06-3.15,0-5,.27-7.42-3.25-16.67-10.41-25.81a35.86,35.86,0,0,0-1-7.44,35.05,35.05,0,0,0-1.55-4.36q-.48-1.16-1.07-2.4l-.61-1.26-.74-1.26c-6-10.43-13.22-20.78-21.88-28.58a256.77,256.77,0,0,0-22.66-18.12l-3.81-2.46c-1.3-.79-2.58-1.7-4-2.38l-4.15-2.16-2.1-1.06-2.16-.92a88.1,88.1,0,0,0-8.74-3.32L438,209.65c-1.46-.4-2.92-.73-4.36-1.07l-3.57-.85c-1.17-.27-2.34-.47-3.48-.72l-3.4-.73-1.68-.38-1.68-.32c-2.24-.43-4.47-.93-6.75-1.43s-4.61-.94-7-1.51c-8.94-1.95-19.23-2.13-28.85-2.6-10.2-.5-18.92.23-24.31,3.19a47.92,47.92,0,0,0-35.62,2.19c-5.7-1.84-12.58-2.25-19-1.76s-12.48,1.94-16.62,4a50.39,50.39,0,0,0-5.17-1.81,24,24,0,0,0-6.77-.95l-6.34-.21-6.34-.44a87.59,87.59,0,0,0-13.78-.07,74.1,74.1,0,0,0-25.76,6.5,15.05,15.05,0,0,1-4.67,1.35A52.66,52.66,0,0,0,198,216.72a43.2,43.2,0,0,0-11.17,8.56,38.24,38.24,0,0,0-15.06,6.83,115.4,115.4,0,0,0-14.06,12.39,85.24,85.24,0,0,0-11.58,15.14,27.12,27.12,0,0,0-1.61,3.07l-.67,1.5c-.19.49-.34,1-.49,1.45a34.55,34.55,0,0,0-1.26,5.29,14.94,14.94,0,0,1-2.53,7q-1.07,1.69-2,3.4c-.55,1.16-1,2.33-1.5,3.49s-.87,2.33-1.25,3.49c-.18.58-.38,1.16-.51,1.74s-.24,1.17-.34,1.76a49.4,49.4,0,0,0-.75,7,46.51,46.51,0,0,0,.7,6.82,18.69,18.69,0,0,1,.27,2,8.19,8.19,0,0,1,0,1.54,8.76,8.76,0,0,1-.92,2.95c-1.71,3.59-2.32,8.91-2.21,15.17a38.82,38.82,0,0,0,.78,6.14,46.41,46.41,0,0,0,1.58,5.23c.55,1.56,1.06,2.93,1.42,4.08a8.26,8.26,0,0,1,.66,2.75,82,82,0,0,0,0,9.81c.12,1.66.29,3.39.57,5.23s.81,3.75,1.4,5.85c3,10.26,6.36,21.12,11.22,29.85,1.3,2.26,2.51,4.56,3.64,6.67s2.18,4.21,3.15,6.32a113.48,113.48,0,0,1,5,13,32.46,32.46,0,0,0,4.26,8.34c1.49,2.3,2.82,4.37,3.11,6.76.36,3,.54,5.7.73,8.53s.48,5.75.88,9.12c1.18,9.63.46,19.36-3.45,27.56L165,484.65c-.42.77-.81,1.53-1.17,2.28a30.56,30.56,0,0,0-1.67,4.23c-1,3.13-2.35,4.73-4.74,7.51-5.54,6.57-11.11,13.23-16.62,20.13s-10.95,14-16.08,21.42a16.64,16.64,0,0,0-2.27,5.07c-.6,2.23-1.24,3-3.49,4.73a42.71,42.71,0,0,0-9.73,10.18,39.67,39.67,0,0,0-3.43,6.26,45.9,45.9,0,0,0-2.61,7.48,10.59,10.59,0,0,1-2.58,5.26c-3.84,5.1-6.4,9.25-7.89,13.75A33.86,33.86,0,0,0,90.92,600c-.19,1.27-.34,2.6-.47,4s-.28,2.87-.26,4.47a55.64,55.64,0,0,0-3.47,6.41A47.67,47.67,0,0,0,84,623.67c-1.43,7.07-.39,11.64-.82,16.8A39.53,39.53,0,0,1,81.27,648a44.36,44.36,0,0,0-2.17,9.36,37.36,37.36,0,0,0,.46,10.1,22.34,22.34,0,0,1,.18,8.15,91.21,91.21,0,0,0-2.4,19.79c0,7.76-.09,15.54-.13,23.29-.11,9.81.52,18.24,3.34,23.21-4.38,12.31-4.37,22.88-.14,35.8A54.05,54.05,0,0,0,77.35,795a60.29,60.29,0,0,0,.71,8.64,90.23,90.23,0,0,0,2.15,10.24,21.37,21.37,0,0,0-1.8,5.42,17.1,17.1,0,0,0-.26,3.71,15.7,15.7,0,0,0,.87,4.63,20.67,20.67,0,0,0,1.84,4,18.79,18.79,0,0,0,2.83,3.52,23.62,23.62,0,0,0,6.93,4.57,56.29,56.29,0,0,0,13.65,3.77c1.11.19,2.2.32,3.31.48l3.18.36q3.17.34,6.33.58a116.7,116.7,0,0,0,12.56.23,10.57,10.57,0,0,1,4,.37,53.54,53.54,0,0,0,29.57,1.33,39.84,39.84,0,0,0,15.08,3.7c11.91.79,24.29,2,35.64,1.73a265.81,265.81,0,0,1,29.39.87,244.5,244.5,0,0,0,33.8.2,251.21,251.21,0,0,1,30-.31,226.05,226.05,0,0,0,33.71-1c5.29-.58,10.24-.93,15.17-1.11s9.83-.23,15-.21a260.86,260.86,0,0,0,32.83-1.81,260.13,260.13,0,0,1,31-2.06c10.29-.11,21.29-1.47,32-2.29a71.86,71.86,0,0,0,8.72-1.14q1-.2,1.89-.43t1.63-.47a23.4,23.4,0,0,0,3-1.09c2.4-1.09,3.52-1,6.28-.11a48.35,48.35,0,0,0,29.3-.3c3.08-1.07,4.09-.92,6.45-.14,3.72,1.24,9,1.49,15.15,1a35.19,35.19,0,0,0,11-3l4-1.84a16.31,16.31,0,0,1,1.65-.64,7,7,0,0,1,1.44-.38,34.89,34.89,0,0,0,9.89-2.43,15.9,15.9,0,0,0,2.63-1.49q.67-.47,1.35-1c.44-.41.88-.86,1.31-1.33.21-.24.44-.46.64-.73l.59-.84a15.57,15.57,0,0,0,1-1.75q.41-.87.75-1.79c.19-.59.42-1.22.55-1.82a48.82,48.82,0,0,0,1.3-8.87C577.55,811.13,577.58,808.35,577.53,805.62Z" style="fill:#ff3366;"/><path d="M401.87,77.14a77.09,77.09,0,0,1-3.71-10,18.45,18.45,0,0,0-6.75-9.27c-3.49-2.34-6.21-4.68-9.6-7-3.07-2.15-7-3-10.68-3.56a10.21,10.21,0,0,0-1,0,7.81,7.81,0,0,0-1.33-.31,45.13,45.13,0,0,0-6.18-.51,17.52,17.52,0,0,0-5.88.85,34.72,34.72,0,0,1-4.77,1.28,22.6,22.6,0,0,1-4.9.64c-3.08.25-6.13,1.83-9.08,3a15,15,0,0,0-2.11,1,8.56,8.56,0,0,0-1.65,1.39,6.16,6.16,0,0,0-1.63,3.89c-4-1.32-7.83-.35-8.67,2.74a5.62,5.62,0,0,1-1.54,2.88,5.08,5.08,0,0,1-3.12.91,4.17,4.17,0,0,0-2,.63,4.75,4.75,0,0,0-1.42,1.64,9.5,9.5,0,0,0-.92,2.44,14.62,14.62,0,0,0-.27,1.48q-.07.81-.08,1.69a7.92,7.92,0,0,0-3.11.39,5.26,5.26,0,0,0-2.67,2c-2.31,3.12-4.93,6.31-6.05,10a38.59,38.59,0,0,1-1.64,4.38,27.57,27.57,0,0,1-2.14,4.16,29.53,29.53,0,0,0-2.29,5.55,31,31,0,0,0-.82,5.94,23.33,23.33,0,0,1-1.32,8.82c-1,2.78-.68,6.05-1,9-.38,3.18.13,5.9,2.79,7.72-4.54,3.74-4.64,7.15-.56,11-4.7,3.19-4.4,8-.79,11-1.41.84-3.08,1.62-3.32,3.31-.74,5.33-2.83,10.47-1.17,15.85a1.36,1.36,0,0,1-.37,1.4c-2.48,3.51-2.52,4.93-.27,8.76-1.58,1-3.09,2-3.61,4a73.39,73.39,0,0,1-3.23,9.85,4.49,4.49,0,0,0-.35,1.76,4.77,4.77,0,0,0,.28,1.74c.33.95.33,1.43-.79,1.89a6.61,6.61,0,0,0-3.4,2.54,3.59,3.59,0,0,0-.34.85c0,.16-.07.31-.1.48s-.09.39-.12.6a8.17,8.17,0,0,0,0,2.65c.22,1.34,0,1.57-1.2,1.72-1.85.23-3.17,1.48-4.27,3.23a6,6,0,0,0-.37,4c.24,1.26.56,2.25.14,2.54a22.85,22.85,0,0,0-2.8,2.29,7.52,7.52,0,0,0-1.85,3.29c-.87,3.4-2.25,7-1.9,10.31a26.89,26.89,0,0,1-.75,9.57c-.59,2.52,2.81,4,2.1,5.56-.83,2-1.86,3.75-1.51,6.24a69.24,69.24,0,0,0,2.36,10.42,5,5,0,0,0,2,2.95c1.23.71,1.1,1.5,1.31,2.81a19.15,19.15,0,0,0,3.54,8.59,24.91,24.91,0,0,0,7,6.44,3.36,3.36,0,0,0,2.26.21c1.12-.23,1.35,0,1.63,1.15,1,4,3.35,5.71,7.67,5.17.83-.09,1.19-.18,1.71.78,1.22,2.07,2.42,3.26,3.86,3.8s3.25.21,5.6-.6a13.58,13.58,0,0,0,.74,1.25,7.44,7.44,0,0,0,.93,1.05A6.5,6.5,0,0,0,309,303a4.93,4.93,0,0,0,3.11-.21,8.13,8.13,0,0,1,2.64-.63,2.25,2.25,0,0,1,1.16.43,11.54,11.54,0,0,1,1.18.85,6.85,6.85,0,0,0,3,1.57c1.3.27,2.43-.47,3.4-1s1.81-1,2.68-.53a13.21,13.21,0,0,0,3.2,1.26,11.44,11.44,0,0,0,1.68.29,6.58,6.58,0,0,0,1.78,0l3.91-.52c1.3-.17,2.58-.5,3.88-.69a13,13,0,0,0,2.33-.57,9.17,9.17,0,0,0,1.94-1.08,5.5,5.5,0,0,0,2.25-3.57,11.11,11.11,0,0,0,3.65,1.22,5.2,5.2,0,0,0,3.06-.39,6.29,6.29,0,0,0,2.34-2,9.47,9.47,0,0,0,.89-1.56,13.05,13.05,0,0,0,.63-2c2.82.64,5.06.56,6.53-.68s2.52-3.23,2.8-6.46a8.63,8.63,0,0,0,2.56.26,4.18,4.18,0,0,0,1.25-.28,3.28,3.28,0,0,0,1-.76c1-1.06,2-2,3-3.07s1.95-2.15,2.86-3.27a20.14,20.14,0,0,0,2.25-3.68,11.54,11.54,0,0,0,1.14-4.19c0-.52.1-.91.6-1.19a6.82,6.82,0,0,0,2.27-1.91,6.55,6.55,0,0,0,1.16-2.31,5.59,5.59,0,0,0,.09-2.56,9.88,9.88,0,0,0-.88-2.67,5.87,5.87,0,0,0,4-4.13l.42-1.47.34-1.51.69-3a22.87,22.87,0,0,0,.32-3,14.57,14.57,0,0,0-.1-3,28.74,28.74,0,0,1-.46-5,36.76,36.76,0,0,1,0-5,26.08,26.08,0,0,0-.66-5.82c-.27-1-.59-1.9-.94-2.81a12.81,12.81,0,0,0-1.26-2.6c-.48-.78-.91-1.53-1.3-2.29s-.7-1.52-1.11-2.25a31.14,31.14,0,0,1-1.89-4.77,22.21,22.21,0,0,0-6.13-9.18,23.57,23.57,0,0,1-5.74-7.53,32.22,32.22,0,0,0-5.72-8,15.91,15.91,0,0,1-2.78-3.56,15.15,15.15,0,0,1-.88-2,10.13,10.13,0,0,1-.6-2.13,13,13,0,0,0-.59-2.07c-.19-.69-.42-1.36-.68-2a17.06,17.06,0,0,1-.67-2,14.19,14.19,0,0,1-.52-2.08,5.36,5.36,0,0,0-.76-2.26,5.17,5.17,0,0,0-1.71-1.76c-1-.66-.92-1-.08-1.8,3-2.7,3.11-5.28.73-8.41-.81-1.06-.52-1.33.48-1.75a5.7,5.7,0,0,0,1.91-1.33,8.11,8.11,0,0,0,1.21-1.9,2.84,2.84,0,0,0,.2-1.58,9.27,9.27,0,0,0-.32-1.65c-.31-1.09-.48-2,0-2.29,1.83-1,3.81-1.13,5.14-2.81,1.75-2.18,4.31-3.76,6.18-6a15.1,15.1,0,0,1,7.23-5.27,1,1,0,0,0,.23-.16c1.75-1.19,1.4-3.86,2.58-4.62,1.35-.89,3.68,0,5.46-1.65,2.94-2.69,6.44-5.48,8.18-9.27a74.52,74.52,0,0,1,4.6-8.63,21.81,21.81,0,0,0,3.2-11.71,49.06,49.06,0,0,1,.71-9.72A20.77,20.77,0,0,0,401.87,77.14Z" style="fill:#382d15;"/><path d="M409.24,67.48a10.33,10.33,0,0,0-.44-2.08,18.94,18.94,0,0,0-.7-2l-.75-1.93c-1-2.58-2.73-4.28-5.85-3.9a7.16,7.16,0,0,0,.37-2.75,5.67,5.67,0,0,0-.72-2.36,3.66,3.66,0,0,0-3.72-1.86c-2.83.53-3.51.3-5-2a3,3,0,0,0-3.16-1.34,8.34,8.34,0,0,0-4.12,2.48c-.85-1.78-2-3.13-3.79-3.22-2.78-.14-5.64-.74-8.32-.11a14,14,0,0,1-6.67.07,16.27,16.27,0,0,0-8.49.47,11.58,11.58,0,0,1-6.56.57c-2.2-.48-4.52.45-6.79.62s-4.36,1.15-5.14,4.07c-3.68-3.78-6.49-3.17-8.26,1.64-3.6-3.83-7.51-2.05-8.21,2.33-1.12-1-2.42-2.23-3.71-1.81-2,.69-4.18,1.14-6.2,2a9.8,9.8,0,0,0-5,4.22c-.29.51-.61.47-1.09.48a10.06,10.06,0,0,0-2.31.27,3.39,3.39,0,0,0-1.49.85c-.78.76-1.12,2.06-1.25,4a9,9,0,0,0-2.47-.26,3.34,3.34,0,0,0-2.25.94A45.59,45.59,0,0,0,290.91,74a3.58,3.58,0,0,0-.5,3.2c.26.91.26,1.29-.81,1.65-3.32,1.1-4.19,3.69-2.4,6.62.67,1,.5,1.23-.56,1.53a4.28,4.28,0,0,0-3,3.25,4.23,4.23,0,0,0,.93,3.19c.65.92,1.27,1.58,1,1.89a12.5,12.5,0,0,0-1.87,2.44A4.48,4.48,0,0,0,283.2,99L282,98.64a2.66,2.66,0,0,0-2.58,1c-.73.67-1.31,1.31-1.95.93a26.42,26.42,0,0,0-2.36-1.25,5,5,0,0,0-2.64-.32,48.26,48.26,0,0,0-8.08,2.19,3.25,3.25,0,0,0-2.14,1.81c-.43,1.12-1,1.05-2.11,1.15a13,13,0,0,0-6.61,2.87,18.22,18.22,0,0,0-4.55,5.62,2.65,2.65,0,0,0,.11,1.91c.33,1,.17,1.13-.88,1.2-3.7.3-5.07,2.34-4.13,5.92.19.7.32,1-.53,1.38-3.73,1.78-4.23,3.86-1.89,7.57-1.54.77-2.83,1.79-3.11,3.68s1.53,3.16,1.75,4.45-1.85,2.57-1.86,4.61a3.93,3.93,0,0,0,1.65,2.43c.74.63,1.28,1.17,1,1.93a10.3,10.3,0,0,0-.62,2.76,7.42,7.42,0,0,0,0,1.37,6.5,6.5,0,0,0,.42,1.34l1.22,2.86c.48.91.95,1.82,1.39,2.75a6,6,0,0,0,2.3,2.73,4.55,4.55,0,0,0,3.65.47c-.82,2.48-.77,4.46.25,5.58a3.9,3.9,0,0,0,2.12,1.14,7.21,7.21,0,0,0,1.49.15,11.46,11.46,0,0,0,1.82-.2c-.23,2.54.11,4.36,1.3,5.19s3,1,5.7.22c-.16,1.52-.13,3.33,1.09,4,1,.51,1.88,1.11,2.81,1.71a24.55,24.55,0,0,0,2.91,1.59c.5.23,1,.45,1.52.64a10.22,10.22,0,0,0,1.61.37,8.83,8.83,0,0,0,3.38-.09c.41-.11.73-.18,1,.21a5.9,5.9,0,0,0,1.72,1.66,4,4,0,0,0,.93.42,3.81,3.81,0,0,0,1,.09,5.89,5.89,0,0,0,3.87-2c.82,1.63,1.91,2.82,3.63,2.94,3.06.1,6.36.67,9.19-.49a15,15,0,0,1,1.87-.61,15.58,15.58,0,0,1,1.8-.44,16.07,16.07,0,0,1,1.84-.22c.63,0,1.26-.12,1.93-.14a18.49,18.49,0,0,0,2.19-.23,19.57,19.57,0,0,0,2.15-.63,13.29,13.29,0,0,0,3.88-2.14,22.45,22.45,0,0,1,6.85-3.84,9.2,9.2,0,0,0,2-1,18.25,18.25,0,0,0,1.9-1.32,13.74,13.74,0,0,0,2.9-3.56,31.14,31.14,0,0,1,4.89-6.59,13.71,13.71,0,0,0,2.45-3.86,19.37,19.37,0,0,0,.77-2.18,14.12,14.12,0,0,0,.27-2.22c0-.75.13-1.46.18-2.15a17.16,17.16,0,0,1,.24-2,38.58,38.58,0,0,1,1-4c.85-2.67.24-5.55.12-8.22a4,4,0,0,0-2.38-3.63c-1.08-.48-1-.74-.2-1.51,2.61-2.59,2.21-5.17-1-6.84-1.08-.56-.94-.82-.14-1.49a4.07,4.07,0,0,0,1.49-3.67c-.12-1.89-3.54-2.87-3.09-3.73.91-1.54,2.28-2.8,2.1-4.54a21.08,21.08,0,0,1,0-3.35,13.69,13.69,0,0,0-.23-3.2c-.13-.53-.24-1.06-.31-1.59a7,7,0,0,1,0-1.51,4.36,4.36,0,0,1,1.13-2.71s0-.1,0-.15c.17-.56-.24-1.14-.63-1.72s-.76-1.16-.53-1.48.93-.43,1.56-.4,1.2.14,1.42-.1c.78-.89,2.51-1,4.5-2a8.36,8.36,0,0,1,5.84-.49,16,16,0,0,0,8.24-.47,12.25,12.25,0,0,1,6.6-.42,15.15,15.15,0,0,0,8-.45,12.43,12.43,0,0,1,7-.37,14.06,14.06,0,0,0,7.66-.61,25.93,25.93,0,0,1,8.38-1.48c2.79-.22,5.57-1.7,8.11-3.37.24-.16.39-.44.59-.61l-3-4.44h0l3,4.44a6.34,6.34,0,0,0,1-.58l1.1-.77,1.07-.89a15.7,15.7,0,0,0,2-2A14.63,14.63,0,0,0,407,81.31a10.67,10.67,0,0,0,.9-2.66c.58-3.34.74-5.94,1.27-9.08A6.93,6.93,0,0,0,409.24,67.48Z" style="fill:#5020ee;"/><path d="M429.82,57.51a3.92,3.92,0,0,0-1.63-1.11c2.27-1.21,3-3.28,2.51-4.66s-2.22-2.17-4.59-1.8c.95-2.19.87-3.76.07-4.49s-2.38-.64-4.57.38c.41-1.4.65-3-.17-3.49-1.27-.75-2.4-1.74-3.7-2.4a4.75,4.75,0,0,0-4.36-.23c-.28.13-.5.21-.61-.15-.43-1.39-1.11-2-1.93-2a4.68,4.68,0,0,0-2.82,1.9c-.17-1.66-.57-2.92-1.58-3.16-1.81-.44-3.57-1.54-5.46-1.11a6.07,6.07,0,0,1-4.48-.83,6.77,6.77,0,0,0-5.17-.64,5.5,5.5,0,0,1-4.57-.46,6,6,0,0,0-5.12-.3,5.67,5.67,0,0,1-4.57-.15,6.57,6.57,0,0,0-4.94-.1,5.7,5.7,0,0,1-4.65,0c-1.53-.62-3.17-.06-4.76-.08-.94,0-1.75.53-2.28,2.07-.35,1-.52.88-.94,0-1.41-2.89-3-2.87-4.31.08-.44,1-.59.8-.94-.09-.54-1.4-1.29-1.91-2.17-2-1.22-.15-2.2,3.13-2.7,2.56-1-1-1.74-2.6-3-2.48-1.57.14-3.24-.36-4.72.35s-2.92,1.11-4.49.2c0,0-.09,0-.14,0-1,0-1.44,2.39-2.1,2.35s-1.55-2.09-2.62-1.94c-1.79.27-3.72-.1-5.35.81a5.14,5.14,0,0,1-4.15.57,6.72,6.72,0,0,0-5.31.88,5.53,5.53,0,0,1-4.23.85,6.44,6.44,0,0,0-5.13,1.1A5.52,5.52,0,0,1,303.68,39,6.06,6.06,0,0,0,299,40.3a6.33,6.33,0,0,1-4.77,1.39c-1.63-.08-3,.81-4.53,1.36a2.09,2.09,0,0,0-.67.42l1.74,5.05h0L289,43.41a2.17,2.17,0,0,0-.28,0c-1.87.55-4.25,1-5.92,3l-2.23,2.78a26.11,26.11,0,0,0-2.39,3.44,6.57,6.57,0,0,0-.63,4.26,16.29,16.29,0,0,0,1.26,3.76c1,2.22,2.73,3.16,5.33,1.93a5.83,5.83,0,0,0-.34,4,1.63,1.63,0,0,0,2.28.9c2.09-.75,2.5-.54,2.72,1.68s2.35,2,5-.2c0,1.82.42,3.32,1.66,3.68,1.86.55,3.68,1.49,5.56,1.16a6.13,6.13,0,0,1,4.32.69,7,7,0,0,0,5.34.6,4.48,4.48,0,0,1,4.08.46c1.25.83,2.81.37,4.21.65s2.82-.21,3.85-2.88c1.5,4.51,3.21,4.59,5.27.45,1.33,4.64,3.85,4.1,5.32.27.4,1.33.83,2.93,1.64,3,2.56.19,5.17,1.74,7.73-.7.31-.29.46-.1.7.15,1.84,1.91,2.62,1.66,4.27-1.31.63,1.31,1.28,2.6,2.32,2.59l5.35,0c.66,0,1.23-.48,1.68-1.36.37-.72.57-.9,1.07-.14,1.52,2.32,2.87,2.08,4.09-.65.43-1,.58-.86,1,.05.56,1.4,1.34,1.92,2.25,2,1.26.11,2.21-3.16,2.62-2.64,1,1.28,1.87,2.6,3.13,2.45,1.55-.18,3.23.44,4.64-.42a4.32,4.32,0,0,1,4.31-.14c1.16.49,1.65-2.87,2.42-2.15,1,.89,1.82,2,2.9,1.84,1.54-.19,3.11-.32,4.65-.44a1.47,1.47,0,0,0,1.36-1c.4-.91.74-.55,1.31-.21,2.67,1.58,5.35,1,8-.36.3-.15.53-.82.68-1.39.23-.89.38-.9.88-.16,1.78,2.61,3.11,2.51,4.37-.2.24-.53.33-.78.86-.27,2.39,2.28,3.55,1.85,4.55-1.72,1,1.1,2.08,1.88,3.22,1.53s1.16-2.34,1.81-2.89,2.29,1.15,3.5.65.48-3.49,1.72-3.15a4.1,4.1,0,0,0,4-.76,22.37,22.37,0,0,0,3.29-3.88,4.71,4.71,0,0,0,.85-3.36A3.13,3.13,0,0,0,429.82,57.51Z" style="fill:#ff3366;"/><path d="M389.38,37.14c.14-1-.54-1.9-3.32-2.14,4.25-1.56,4-3-.4-3.23,4.26-1.83,3.22-3.47-.79-3.16,1.18-.61,2.62-1.36,2.49-1.88-.19-.81-.14-1.72-.36-2.55a2.46,2.46,0,0,0-2.27-1.75c-.35-.06-.21-.22-.06-.46,1.18-1.84.72-2.3-2.42-1.8,1-1,1.87-1.95,1.53-2.55-.62-1-1.19-2-1.88-3-.25-.36-.86-.4-1.74-.12-.72.23-.92.23-.52-.47,1.23-2.15.47-2.86-2.12-1.65-.91.42-.89.29-.36-.49.81-1.2.86-2,.5-2.47-.53-.72-3.25,1.18-3.05.63.45-1.39.86-2.76.14-3.25S373.29,5,372.05,5.1s-2-.5-2.53-1.59c-.47-.87-2.33,1.92-2.42,1-.14-1.12-.23-2.35-1-2.59-1-.36-2.11-.61-3.16-.93-.38-.09-.79,0-1.21.63s-.62.37-.93-.08A3.42,3.42,0,0,0,358.29,0a4.94,4.94,0,0,0-2.79.84,2.8,2.8,0,0,0-.5,1.33c-.18.87-.26.85-.56.08-1.06-2.77-2-2.71-2.76-.17-.14.51-.18.76-.53.21C350.36,1,349.76.51,349.32.69s-.73,1.13-.9,2.8c-.72-1.19-1.46-2.12-2.15-1.93s-.54,2-.91,2.43S343.81,2.49,343,2.63s0,3.08-.88,2.42c-1.06-.79-1.92-1.13-2.55-.74l-1,.6a8.27,8.27,0,0,1-1,.57c-.92.4-1.31,1.43,0,4-3.53-2.93-4.62-2-2.73,1.89-3.65-2.27-4.53-1.43-2.34,2.41-1.21-.73-2.57-1.41-2.9-1-.52.66-1.36,1.1-1.89,1.77a2.4,2.4,0,0,0-.23,2.84c.11.23.17.4-.16.36-2.57-.31-2.33,1.09-.2,3.09-1.55-.38-2.69-.45-3,.14s-.64,1-.93,1.53a2.24,2.24,0,0,0-.32,1.73,2.48,2.48,0,0,1-1,2.69,2.82,2.82,0,0,0-.81,3.17,2.37,2.37,0,0,1-.58,2.83,2.54,2.54,0,0,0-.42,3.22,2.45,2.45,0,0,1-.17,2.9,2.76,2.76,0,0,0,0,3.16,3.27,3.27,0,0,1,.4.74,2.93,2.93,0,0,1,.19.82,4.68,4.68,0,0,1-.3,1.76,2.89,2.89,0,0,0,.09,1.85c.23.61.52,1.19.71,1.79s1,1.16,2.57.86c1-.2,1-.07.33.61-2.12,2.26-1.14,3.73,1.79,2.63,1-.37.88-.2.39.59-.8,1.25-.71,2.05-.26,2.64.31.42,1.16.11,1.88-.25s1.32-.74,1.29-.41c-.12,1.23-.48,2.83.37,3.28a14.17,14.17,0,0,1,1.5.94,2.71,2.71,0,0,0,1.65.43c1.26-.19,2.22-.18,2.9,1.09,0,0,.06,0,.09,0,.66.26,1.63-1.93,2-1.72s.35,2.37,1.05,2.46c1.16.14,2.28.9,3.45.34a2.16,2.16,0,0,1,2.6.26,2.72,2.72,0,0,0,3.3.15,2.14,2.14,0,0,1,2.61,0,2.48,2.48,0,0,0,3.14-.1,2.1,2.1,0,0,1,2.72-.13,2.29,2.29,0,0,0,2.83-.3,2.28,2.28,0,0,1,2.89-.29c.95.43,1.84-.06,2.73-.24.09,0,.14-.19.22-.23l-.73-5.28h0l.73,5.28a.73.73,0,0,0,.36.09c1,0,2.23.26,3.13-.59a2.26,2.26,0,0,1,2.76-.57c1,.43,1.84-.44,2.8-.62s1.61-1.14,1-3.86a6.27,6.27,0,0,0,2.61,2.26c.66.18,1.05-.24.94-1.25-.24-2,0-2.1,1.68-1.09s2.09-.67.77-3.58c1.5.93,2.84,1.32,3.45.61.83-1.08,2.1-2,2.08-3.52a4.4,4.4,0,0,1,.27-1.61,4,4,0,0,1,.95-1.3,3.46,3.46,0,0,0,.9-3.76,2.43,2.43,0,0,1,.35-2.86C389.84,39.17,389.25,38.1,389.38,37.14Z" style="fill:#ff3366;"/><path d="M385.4,30.92a.26.26,0,0,0-.17-.06c-.36.07-.9-.18-.85.57s-.14.91-.76.4-.51.22-.81.25-.21.71.89,3.23c-1.68-2.7-2.46-3.65-1.84-1.87s.48,1.77-.49.22-.73-.49.2,2.38c-.82-1.5-1.48-2.6-1.68-2.51s-.83-.18-.87.57-.27.77-.75.33-.9-.37-1,.4-.24.88-.77.26-.55.11-.87.06-.36.62.32,3.29c-1.72-4-2-3.94-1.09.26-1.64-4.25-1.86-3.49-1.06.36a11.84,11.84,0,0,0-1.13-2.7c-.52.08-1.36-1.17-1.24,1.4,0,.31-.06.13-.17-.1-.81-1.73-.87-1.45-.54,1.54-.42-1.24-.83-2.45-1-2.39s-.69.16-1,.23c-.13,0-.15.52-.08,1.4.06.72.05.91-.19.18-.73-2.22-.93-2-.72.75.07,1,0,.86-.21,0-.35-1.37-.59-1.88-.78-2s0,3.12-.15,2.61c-.4-1.27-.76-2.58-1-2.45s-.71-.48-.9.34-.5.69-.87,0c-.28-.53-.07,2.77-.3,2-.29-.94-.56-2.06-.77-2a3.65,3.65,0,0,1-.94.13c-.11,0-.21.16-.23.88,0,.88-.13.5-.27.13-.67-1.73-1.16-1.27-1.64-.16a7.58,7.58,0,0,0-.1,1.32c0,.86-.06.85-.18.07-.44-2.78-.65-2.85-.9-.39,0,.48-.07.73-.17.13-.47-2.68-.63-2.5-.94.67-.17-1.32-.33-2.39-.54-2.41s-.32,1.79-.48,2.05-.32-2-.54-2.09-.39,2.79-.56,1.85c-.2-1.16-.37-1.85-.6-1.83a1.26,1.26,0,0,1-.71,0c-.3-.14-.56.45-.81,3.26-.26-4.43-.54-4.44-1.13-.27-.23-4.15-.45-4.17-1.15,0a9.41,9.41,0,0,0-.22-2.85c-.53,0-.95-1.49-1.64.9-.06.21-.11.35-.13,0-.16-2.35-.51-1.52-1,1.3,0-1.56,0-2.62-.24-2.64-.37,0-.68-.71-1.11,0s-.65.48-.9-.14-.62-.71-1-.07-.69.6-.92-.14-.6-.86-1-.16-.7.47-.93-.14-.57-.79-1-.18-.74.54-1-.16-.64-.21-1-.31-.46.43-.86,1.92c-.27,1-.28.84-.2,0,.25-2.91-.05-3-.92-.14-.29.94-.29.76-.18-.13.16-1.4.11-1.94-.05-2.08s-1.09,3-1.08,2.37c0-1.07.19-2.61-.07-2.6s-.54-.6-1-.06-.82.78-.88-.3c0,0,0,0,0,0-.19-.11-.85,2.14-1,2s.24-2.24,0-2.23c-.38,0-.62-.65-1.13-.07s-.69.45-.83-.25-.54-.89-1.07-.3-.73.46-.87-.2-.5-1-1-.3-.75.34-.9-.32-.46-.85-1-.25-.81.34-1-.34-.57-.35-.9-.39c0,0-.11.14-.15.17l-3.24,10.25s0,.06,0,.07c.34.22.59.79,1.15.25s.83-.51.95.31.6.24.88.44.72-.32,1.65-2.9c-.6,3.15-.57,4.39.18,2.64s.84-1.66.59.16.34.87,1.47-1.94c-.31,1.68-.47,3-.22,3s.65.7,1.18.15.73-.4.92.23.65.82,1.19.23.76-.59.91.23.61.22.89.45.72-.3,1.47-2.94c-.51,4.36-.1,4.4,1.15.28-.55,4.51.16,4,1.19.17a10,10,0,0,0-.15,2.93c.56.17.91,1.71,1.9-.66.12-.29.12-.09.14.15.11,1.89.34,1.67,1.19-1.23-.07,1.3-.12,2.58.12,2.6.41,0,.81.12,1.21.18.15,0,.35-.43.58-1.28.19-.7.26-.87.26-.1,0,2.35.35,2.2,1-.44.23-.93.25-.82.2.09-.07,1.41,0,2,.23,2.09s.92-3,.94-2.47c.05,1.32.08,2.68.38,2.63s.67.65,1.09-.08.71-.54,1,.23c.2.59.68-2.69.77-1.91.12,1,.19,2.12.45,2.09a4.75,4.75,0,0,1,1.08,0c.13,0,.27-.12.41-.83.17-.86.22-.47.32-.08.48,1.82,1.14,1.45,1.8.42a6.61,6.61,0,0,0,.25-1.3c.11-.85.15-.84.2-.05.2,2.8.48,2.88.94.44.09-.48.13-.72.2-.12.33,2.7.57,2.53,1.06-.62.12,1.32.25,2.4.5,2.44s.42-1.77.59-2,.31,2,.57,2.12.44-2.79.62-1.85c.23,1.15.44,1.83.69,1.8a1.64,1.64,0,0,1,.81,0c.35.12.63-.48.71-3.3.55,4.4,1,4.41,1.21.21.61,4.13,1,4.14,1.22-.1.18,1.37.4,2.82.59,2.79.58-.08,1.32,1.32,1.68-1.16,0-.22.06-.37.13-.07.6,2.29.88,1.41.88-1.45.3,1.54.57,2.57.8,2.55.41,0,.92.51,1.23-.29s.59-.64,1-.11.9.51,1.17-.22.56-.76,1-.12.94.59,1.17-.23.57-.7,1-.22.93.52,1.14-.21.56-.77,1.08-.22.76-.11,1.13-.17c.22,0,.28-.61,0-2.13-.18-1-.11-.88.21-.07,1.07,2.71,1.47,2.61,1-.31-.17-1-.09-.81.24,0,.51,1.31.84,1.76,1.08,1.81s-.41-3.11-.13-2.6c.52.94,1.16,2.39,1.42,2.22s.86.18,1-.53.34-1.13,1-.28c0,0,0,0,0,0,.25,0-.43-2.27-.25-2.22s1.08,2,1.3,1.85,1,.18,1.13-.62.34-.82.91-.38,1.09.3,1.17-.51.34-.84.92-.45,1.13.37,1.14-.49.37-.82,1-.48,1,.22,1-.59.4-.86,1.05-.53.74-.22,1-.45c.05,0,.07-.13.06-.25Z" style="fill:#5020ee;"/><path d="M473.72,509.62a17,17,0,0,0-.65-2.19,9.57,9.57,0,0,1-.92-3c.14-2.72.48-5-.28-8.3-1-4.25-1.7-8.56-2.48-12.43l-.27-1.49-.23-1.55c-.14-1-.28-2-.38-3.06a50.42,50.42,0,0,1-.31-6.12,3.69,3.69,0,0,0,0-.37c-.28-2.77-1.64-4.32-1.8-6.15-.19-2.09.66-3.85.27-6.75-.66-4.9-1-10-1.93-14.65a72,72,0,0,1-1.52-11.35,100.48,100.48,0,0,0-2-14.61,76.87,76.87,0,0,1-1.59-11.7,95.13,95.13,0,0,0-1.91-14.24,77.87,77.87,0,0,1-1.65-12.45A90.1,90.1,0,0,0,454.27,366c-.52-2.32-.87-4.52-1.18-6.76a29.14,29.14,0,0,0-1.77-7.34,10.69,10.69,0,0,0-2.34-3.41,10,10,0,0,0-3.74-2.28,19.09,19.09,0,0,0-7.58-.66c-.43,0-.82.14-1.21.18s-1,0-1.59.05c-4.81.31-9.79.44-14.37,1.13a72.61,72.61,0,0,1-12.14.92c-3.74,0-7.85.58-11.79.83s-7.31.84-9.44,2.39c-3.77-1.29-8.14-1.53-11.18-.33a10.65,10.65,0,0,1-7.46.63c-3-.63-6.7.21-11.12,2.11a14.68,14.68,0,0,0-7.07-.85c-4.8.46-9.78.66-14.36,1.46a82.07,82.07,0,0,1-11.52,1.18,100.63,100.63,0,0,0-14.67,1.62,66.19,66.19,0,0,1-11.35,1.32c-3.72.1-7.83.91-11.75,1.35-4.16.44-7.67,1.23-9.72,2.91a17.3,17.3,0,0,0-14.64,2.3c-4.93-1.47-11.56.06-14.67,2.6a10.42,10.42,0,0,0-5.18-.56c-7.05,1.21-14.37,1.72-21,3.94a4.61,4.61,0,0,1-1.94.21,28.13,28.13,0,0,0-6.19.25,27.07,27.07,0,0,0-5.33,1.65,16.21,16.21,0,0,0-6.74-.82,54.1,54.1,0,0,0-7.73,1.23,20.77,20.77,0,0,0-7.76,3.49,7.75,7.75,0,0,0-3.07,5,12.63,12.63,0,0,1-.73,3.52q-.14.45-.25.92c-.05.3-.1.6-.13.9a9.25,9.25,0,0,0-.07,1.77,14.57,14.57,0,0,0,.13,1.56q.09.72.24,1.41a16.2,16.2,0,0,0,2.08,5.16,2.62,2.62,0,0,1,.45,2.61,15.83,15.83,0,0,0,.08,6.2c.55,3.41,2.64,6,2.57,7.16a30.94,30.94,0,0,0,.17,8.54c.78,4.24,1.18,8.8,2.2,12.7a59.8,59.8,0,0,1,1.8,11.81c.18,3.12,2.11,4.83,2,6.89a36.64,36.64,0,0,0,.08,7.71c.66,4.27,1.23,8.55,1.81,12.83a14.83,14.83,0,0,0,1,4.07,7.68,7.68,0,0,1,.54,3.74,122.59,122.59,0,0,0,2.53,21.94,6.32,6.32,0,0,0,.9,2.13,2.5,2.5,0,0,1,.3,2.4,18,18,0,0,0,1,11.64,3.51,3.51,0,0,1,.31,2.36c-.84,5.2-.48,7.73,1.55,12.58a18,18,0,0,0-.6,6.68,11.39,11.39,0,0,0,1.08,4,14.57,14.57,0,0,0,2.19,3.3,15.8,15.8,0,0,0,1.49,1.49,9,9,0,0,0,1.91,1.22,10.28,10.28,0,0,0,4.57.94c3.25-.06,5.21-1.62,7.44-1.25a36.09,36.09,0,0,0,8.24.51c3.21-.2,6.44-.39,9.65-.53,4.08-.18,7.57-.7,9.54-2.25,5.25,1.87,9.67,1.55,14.87-1,5.44,1.65,9,1.35,15-1.29a9.69,9.69,0,0,0,5.17.94c7-.7,14.32-.71,21-2.71a3.65,3.65,0,0,1,1.66-.22,19.15,19.15,0,0,0,12.1-2.16,14.31,14.31,0,0,0,6.47.48c4.91-.65,10.06-1.07,14.66-2.11a71,71,0,0,1,12-1.64,105.41,105.41,0,0,0,13.87-1.79,75.51,75.51,0,0,1,12.33-1.51,83.39,83.39,0,0,0,13.89-1.79A86.36,86.36,0,0,1,404.26,532a86.85,86.85,0,0,0,13.53-2.14c2.19-.53,4.27-1,6.35-1.38s4.19-.66,6.42-1,4.32-.71,6.52-1.21,4.4-1.11,6.59-1.6a14.88,14.88,0,0,0,6.07-2.6,2.67,2.67,0,0,1,2.57-.67,16.66,16.66,0,0,0,11.7-3.57,2.71,2.71,0,0,1,2.56-.79,7.09,7.09,0,0,0,3-.29,6.41,6.41,0,0,0,2.16-1.17,5.88,5.88,0,0,0,1.78-2.64A6.58,6.58,0,0,0,473.72,509.62Z" style="fill:#fff;"/><path d="M409.15,445.41a11.76,11.76,0,0,0,.09-7.15,12,12,0,0,1-.7-3.66,15.36,15.36,0,0,1,.06-1.82c0-.61.08-1.24.15-1.88a12.09,12.09,0,0,0-.17-3.52l-.84-3.49a4.41,4.41,0,0,0-.4-1.09l.07,0c0-.12,0-.25,0-.37-.49-2.59-.84-5.43-2.37-7.61a14.4,14.4,0,0,1-2.73-6.25c-.38-2.18-2.11-3.94-3.29-5.85a4.58,4.58,0,0,0-5.84-2.18c1.12-3.56,0-6.39-2.59-6s-3-.16-3.21-2.61-2.66-2.86-6.29-1.55c.13-1.95-.25-3.6-1.8-4.45-2.35-1.21-4.65-2.85-7.27-3.15a13.85,13.85,0,0,1-6-2,13.32,13.32,0,0,0-7.76-1.87,10.63,10.63,0,0,1-6.06-1,7.26,7.26,0,0,0-3.07-.67c-1.08-.07-2.17,0-3.22-.17a5.11,5.11,0,0,0-3.08.36,4.92,4.92,0,0,0-2.31,2.64c-2.68-4.38-5.41-4.29-7.68.18-2.7-4.4-6.45-3.28-7.68.85-.85-1.18-1.85-2.63-3-2.46-3.73.56-8,0-10.87,3.47-.34.41-.61.29-1,.16-3.21-1-4.31-.34-5.48,3.27-1.35-.92-2.73-1.7-4.18-1.13-2.46,1.06-4.89,2.1-7.31,3.41a3,3,0,0,0-1.6,2.42c-.12.91-.28,1.22-1.31,1a3.87,3.87,0,0,0-3.61.46,4.05,4.05,0,0,0-1.13,3.52c.06,1.17-.18,1.22-1.17.82a3.72,3.72,0,0,0-3.88.62c-.79.57-.88,1.79-.88,2.8s.1,1.87-.3,1.89a16.58,16.58,0,0,0-2.76.34,3.65,3.65,0,0,0-2.22,1.41c-.72,1-1.62,1.84-2.36,2.8a14,14,0,0,0-1.05,1.47,6.45,6.45,0,0,0-.66,1.64,9.72,9.72,0,0,1-.56,1.67A9.22,9.22,0,0,1,269,412a16.26,16.26,0,0,1-2.1,2.55c-1.32,1.31,1.27,3.69.14,4.35-1.44.84-2.89,1.53-3.45,3.11l-1.08,3.41-1,3.43a2.72,2.72,0,0,0,.33,2.41c.69.9.21,1.27-.31,2-2.49,3.54-2.56,7.82-1.59,11.83.09.46.74.92,1.29,1.22.86.48.84.69.06,1.28-1.42,1.06-2.1,2.07-2.12,3.08s.61,2,1.94,3.14c.51.43.77.59.22,1.25-2.42,2.94-2,4.48,1.52,6.56-1.17,1.17-2,2.37-1.71,3.93s2.32,2.06,2.83,3.08-1.31,2.58-1,4.22,3.53,1.81,3,3.21a6.18,6.18,0,0,0-.09,4.75c.68,1.6,1.5,3.15,2.17,4.77a7.16,7.16,0,0,0,.75,1.41,4.49,4.49,0,0,0,1.12,1,4.78,4.78,0,0,0,3.45.55c-1.28,2.3-1.44,4-.77,5.1s2.33,1.65,4.86,1.55a10.27,10.27,0,0,0-.69,3,2.87,2.87,0,0,0,.61,1.95c.83,1,2.46,1.38,5.15,1.11-.58,1.4-1,3-.17,3.93.68.68,1.36,1.38,2,2.12a19.59,19.59,0,0,0,2,2.11,8.27,8.27,0,0,0,5.39,2.37c.39,0,.68,0,.77.47a3.56,3.56,0,0,0,2.32,3,5.24,5.24,0,0,0,4-.7c.06,1.79.51,3.2,1.86,3.9,2.46,1.14,4.89,2.85,7.61,2.94a14.4,14.4,0,0,1,1.74.2,10.8,10.8,0,0,1,1.61.34,18.33,18.33,0,0,1,3.1,1.32,15.27,15.27,0,0,0,3.72,1.21,13,13,0,0,0,3.9,0,19.2,19.2,0,0,1,3.43-.22,15.38,15.38,0,0,1,3.38.66,13.35,13.35,0,0,0,3.86.51,12.55,12.55,0,0,0,3.78-.84,12.78,12.78,0,0,1,3.35-.91,26.5,26.5,0,0,1,3.42-.06,14,14,0,0,0,3.76-.29,12.91,12.91,0,0,0,3.48-1.37,14.5,14.5,0,0,1,6.64-2.24c2.41-.21,4.48-1.78,6.68-2.75a3.56,3.56,0,0,0,2.15-3.42c0-1.15.27-1.12,1.22-.68,1.59.74,2.94.79,3.91.21s1.5-1.86,1.53-3.64c0-1.18.29-1.16,1.22-.71a3.7,3.7,0,0,0,3.85-.31c1.65-1,.64-4.48,1.56-4.5s1.77.05,2.63,0a3.43,3.43,0,0,0,2.29-1c1.68-1.63,3.73-3.07,4.83-5.12a11.16,11.16,0,0,1,4.31-5.33c.06,0,.08-.11.12-.16a2.65,2.65,0,0,0,.2-2.19c-.17-.76-.41-1.47-.1-1.85.68-.88,3-.54,3.73-2,.59-1.21,1.34-2.36,2-3.54a12,12,0,0,0,1.38-3.73,17.27,17.27,0,0,1,.78-3,10.93,10.93,0,0,1,1.55-2.7,13,13,0,0,0,2.37-7.54,12.85,12.85,0,0,1,1.44-6.16,12.41,12.41,0,0,0,1.24-3.71,10.06,10.06,0,0,0,0-3.88,10,10,0,0,1-.11-3.41A18.75,18.75,0,0,1,409.15,445.41Z" style="fill:#ff3366;"/><path d="M383.49,467.42c-.14-.19-.25-.34-.14-.58a2.55,2.55,0,0,0-.12-2.5,2.82,2.82,0,0,0-2.07-1.14,2.31,2.31,0,0,0-.15-2.49,11.16,11.16,0,0,0-3.53-3.4,9.34,9.34,0,0,1-3.07-2.26,8.53,8.53,0,0,0-3.52-2.24,6.6,6.6,0,0,1-3.07-2,7.65,7.65,0,0,0-3.46-2.19,6.92,6.92,0,0,1-3.11-2,8.64,8.64,0,0,0-3.37-2.15,7.24,7.24,0,0,1-3.19-2,12.38,12.38,0,0,0-2.82-1.88,7.58,7.58,0,0,0,.92-1.84,7.24,7.24,0,0,1,2.05-3.18,17.09,17.09,0,0,0,2.16-3.25,2,2,0,0,0,.17-2.15c-.27-.53-.13-.6.42-.65,1.83-.16,2.54-1.25,1.91-3-.21-.58-.07-.64.46-.63a2.15,2.15,0,0,0,1.83-1c.62-.81-.33-2.35.13-2.54.86-.36,1.84-.44,2.35-1.3a16,16,0,0,0,2-3.35,8.51,8.51,0,0,1,1.83-3.57.41.41,0,0,0,.05-.11c.37-.9-.57-1.8-.38-2.36s1.38-1,1.44-2.17a14.48,14.48,0,0,0-.15-2.9,9.6,9.6,0,0,0-.41-1.44,6.94,6.94,0,0,0-.73-1.27l-2.87-3.36a6.91,6.91,0,0,0-4.84-2.35,37.18,37.18,0,0,1-4.23-.42,7,7,0,0,0-2.68.12,6.08,6.08,0,0,0-2.39,1.16,23,23,0,0,1-3.67,2.41,7,7,0,0,0-3,3.36,16.08,16.08,0,0,1-2.26,3.88,11.06,11.06,0,0,0-1.47,3.73,2.54,2.54,0,0,0,.25,2.66c-1.92.08-3.09.85-2.76,2.12s.08,1.61-1.15,1.87-1.35,1.47-.77,3.4a2.42,2.42,0,0,0-2.33,1,18.28,18.28,0,0,0-2.14,3.64,7.56,7.56,0,0,1-.41,1,1.56,1.56,0,0,0-.62-1,20.9,20.9,0,0,0-3.71-2.24A6.28,6.28,0,0,1,324,423.1a8.75,8.75,0,0,0-3.64-2.32,6.7,6.7,0,0,1-2.93-1.84,8.29,8.29,0,0,0-3.55-2.26,6.38,6.38,0,0,1-2.7-1.62l0-.07a11.27,11.27,0,0,0-3.43-3.18,12,12,0,0,1-3.33-2.25,10.19,10.19,0,0,0-3.65-1.66,2.7,2.7,0,0,0-3.46.94c-1-1.72-2.77-2.27-3.79-1.13-.45.56-.76.87-1.13,1a2.3,2.3,0,0,1-1.45-.21c-1.29-.43-2.5.79-2.72,2.9a3.29,3.29,0,0,0-1.45-.16,2.3,2.3,0,0,0-1.31.76,8.83,8.83,0,0,0-2.51,4.78c-.13,1.59-.21,2.91-.2,4.55a6.73,6.73,0,0,0,2.37,5,13.37,13.37,0,0,1,2.79,2.77c.74,1,2,1.56,3,2.27a2.68,2.68,0,0,0,3.38.19c.18,2.66,1.35,3.35,3.7,2.26,0,2.64,1.86,3.38,3.75,2.23,0,.75-.06,1.65.51,2,1.78,1.11,3.25,2.84,5.63,2.81.29,0,.35.14.46.35.85,1.59,1.44,1.8,3.33,1.19a2.62,2.62,0,0,0,1,2.09l3.72,2.24a1.77,1.77,0,0,0,1.53.13c.45-.15.63-.14.78.39a4.19,4.19,0,0,0,.18.53,2.73,2.73,0,0,0,.35,2.41c-.75,0-1.65-.07-2,.49-1.12,1.77-2.86,3.23-2.85,5.61,0,.29-.15.35-.36.46-1.6.83-1.81,1.42-1.21,3.32a2.62,2.62,0,0,0-2.1,1l-2.27,3.71a1.77,1.77,0,0,0-.14,1.53c.15.45.14.63-.4.78-1.63.44-2.11,1.42-1.5,3,.22.56.11.64-.43.64a2.13,2.13,0,0,0-1.81,1c-.6.83.33,2.41-.06,2.55-1,.33-1.89.54-2.4,1.48-.62,1.14-1.62,2.23-1.84,3.56a8.87,8.87,0,0,1-1.53,3.59c-.6.95.87,2,.37,2.54a3.79,3.79,0,0,0-1.28,2.5,10.41,10.41,0,0,0,.05,1.2,9.23,9.23,0,0,0,.16,1.23,12.76,12.76,0,0,0,.66,2.34,1.92,1.92,0,0,0,1,1.21c.63.21.58.57.75,1.13a6.15,6.15,0,0,0,2.45,3.38,7,7,0,0,0,4.37,1.23,1.54,1.54,0,0,0,.93-.61c.34-.42.45-.45.92-.09a2.46,2.46,0,0,0,4.06-1.39c.11-.38.13-.54.63-.56,2.23-.13,2.89-1.09,2.56-3.27a2.61,2.61,0,0,0,2.16-1c.51-.75,0-1.65.24-2.25s1.47-.46,2-1.17-.34-2.06.41-2.34a3.83,3.83,0,0,0,2.06-1.53c.5-.8,1-1.61,1.54-2.37a2.56,2.56,0,0,0,.15-3.27c2.67-.06,3.37-1.14,2.46-3.6,2.58-.18,3.15-1.06,2.37-3.72.77.08,1.64.08,2-.48,1.11-1.74,2.86-3.13,2.92-5.47,0-.2,0-.36.24-.43,1.72-.52,2-1.74,1.37-3.39a2.27,2.27,0,0,0,2.1-.86c.32-.49.68-1,1-1.45l1.57.93a1.53,1.53,0,0,0,1.27.26c.56-.17.69.13,1,.53a10.08,10.08,0,0,0,5.48,3.48,1.4,1.4,0,0,0,.9-.23c.44-.24.54-.17.62.34.28,1.8,1.07,2.32,2.83,1.95.34-.07.5-.12.63.31.58,1.93,1.27,2.24,3.35,1.65a2.56,2.56,0,0,0,1,2c.73.46,1.64,0,2.24.16s.51,1.45,1.23,2,2-.4,2.35.34a3.83,3.83,0,0,0,1.59,2c.8.46,1.66,1,2.53,1.5a2.63,2.63,0,0,0,3.5-.17,2.8,2.8,0,0,0,2,2.28,3,3,0,0,0,2.83-1.49,2.78,2.78,0,0,0,3.14.6,3.14,3.14,0,0,0,1.41-3.12,2,2,0,0,0,2.22-.75,12.86,12.86,0,0,0,1.45-3.79A5,5,0,0,0,383.49,467.42Z" style="fill:#fff;"/><path d="M437,422.28c.05.06.09.09.11.1.18,0,.54.37.31-.28s-.16-.74.31-.15.22-.06.38,0-.07-.55-1.34-3c1.64,2.73,2.31,3.73,1.49,2s-.75-1.66.19-.1.52.57-.77-2.14a15.92,15.92,0,0,0,1.57,2.53c.12-.08.48.31.29-.33s-.07-.61.29-.16.55.46.35-.23-.14-.77.3-.13.24,0,.41.07,0-.5-1.11-3c2,3.88,2.1,3.8.43-.15,2,4.05,1.9,3.37.38-.25a28.88,28.88,0,0,0,1.33,2.59c.22,0,1,1.21.16-1.18-.1-.29,0-.12.1.09.88,1.64.82,1.38-.24-1.43a15.16,15.16,0,0,0,1.18,2.27,2.12,2.12,0,0,1,.39-.17,4.74,4.74,0,0,0-.39-1.3c-.24-.68-.3-.85,0-.16,1,2.1,1,1.88.09-.67-.32-.9-.27-.81.1,0a8.07,8.07,0,0,0,.92,1.84c.14.1-1-2.95-.73-2.47a12.51,12.51,0,0,0,1.16,2.31c.08-.14.44.45.27-.32s0-.66.36,0-.81-2.63-.49-1.93a10.5,10.5,0,0,0,.91,1.85.57.57,0,0,1,.33-.17s0-.16-.17-.85-.1-.48.07-.14c.78,1.62.84,1.16.7.07,0-.12-.2-.75-.35-1.27-.25-.83-.23-.82,0-.08,1,2.61,1.09,2.67.46.29-.12-.46-.19-.7,0-.14,1,2.52,1,2.33.16-.73a13,13,0,0,0,.91,2.26c.09,0-.39-1.74-.41-2s.68,1.84.81,2-.66-2.73-.32-1.84c.4,1.09.67,1.73.74,1.68s.15-.14.27-.06.08-.51-.62-3.23c1.34,4.21,1.44,4.2.5.11,1.24,4,1.31,3.95.43-.15a23.72,23.72,0,0,0,.86,2.7c.19-.08.74,1.28.34-1.14,0-.21-.06-.36,0-.07.69,2.23.58,1.38,0-1.42a13.77,13.77,0,0,0,.78,2.5c.14,0,.42.54.38-.22s.1-.59.35,0,.39.56.38-.13.09-.71.36,0,.41.69.39-.08.13-.61.35-.08.38.64.39,0,.13-.67.37-.05.26,0,.39.06.06-.53-.14-2.05c-.13-1-.09-.87.08,0,.57,2.85.68,2.84.35-.09-.11-1-.07-.8.09.08a8,8,0,0,0,.48,2c.12.14-.27-3.1-.15-2.54a16.35,16.35,0,0,0,.58,2.48c.11-.1.31.42.34-.21s.12-1,.36,0c0,0,0,0,0,0s-.15-2.28-.08-2.17.37,2.2.45,2.14.34.47.4-.23c0-.44.1-.58.21-.36l-2.28-4.86h0l-.17,0-.14,0-.1-.05h0l.07.09a.91.91,0,0,1,.08.16.64.64,0,0,1,0,.13h0l.85,7.14s.06,0,.09,0c.6,0,1.43.31,1.71-.54s.46-1,1.27-.62.77-.48,1.16-.67.24-1-1.77-2.85c2.6,1.87,4,1.93,2.56.68s-1.43-1.16.35-.68,1-.6-1.78-1.68c1.68.32,3,.31,3-.09s.42-1,.15-1.52l-4.68-8.71-1.51,3.48a1,1,0,0,0-.06.26c-.08.59-.2.6-.4.05s-.42-.61-.5.11-.16.77-.39,0-.28-.05-.44-.19-.21.49.09,3.22c-.77-4.3-.95-4.24-.49,0-.81-4.47-1-3.76-.48.13a22.66,22.66,0,0,0-.62-2.85c-.25,0-.75-1.39-.56,1.13,0,.3,0,.12-.09-.11-.49-1.8-.53-1.53-.15,1.45a12,12,0,0,0-.67-2.47,5,5,0,0,1-.5.11,3.88,3.88,0,0,0,.1,1.36c.1.71.12.89-.07.16-.58-2.25-.68-2-.26.65.15.95.11.84-.1,0a6.52,6.52,0,0,0-.62-2c-.15-.12.42,3.07.27,2.56a9.72,9.72,0,0,0-.82-2.45c-.12.14-.43-.49-.39.3s-.13.66-.43,0,.45,2.72.21,2a8.37,8.37,0,0,0-.73-1.94.9.9,0,0,1-.43.16c-.05,0-.07.16.07.87.17.86,0,.49-.1.14-.68-1.67-.84-1.2-.81-.09,0,.13.14.76.26,1.29.19.84.18.83-.06.08-.85-2.66-1-2.7-.49-.3.1.47.15.71,0,.14-.88-2.55-.94-2.35-.23.74a10.31,10.31,0,0,0-.88-2.27c-.11,0,.34,1.75.34,2s-.68-1.85-.83-2,.63,2.73.29,1.85c-.42-1.08-.7-1.71-.79-1.65s-.19.15-.32.09-.11.52.67,3.22c-1.5-4.16-1.68-4.12-.54-.08-1.46-3.89-1.6-3.84-.46.2a18.72,18.72,0,0,0-1.07-2.63c-.22.1-.94-1.18-.35,1.2.05.21.09.35,0,.07-.93-2.15-.78-1.29.07,1.43a10.92,10.92,0,0,0-1.09-2.38c-.16.06-.55-.46-.43.3s-.06.61-.41.11-.54-.48-.43.22,0,.73-.41.13-.59-.58-.45.19,0,.64-.4.17-.57-.51-.44.16,0,.71-.41.17-.32,0-.47.07.05.54.63,2c.39.95.31.82-.08,0-1.31-2.6-1.46-2.53-.36.2.37.91.28.75-.12,0a6.42,6.42,0,0,0-1-1.76c-.18-.09,1.12,2.9.84,2.41a12.57,12.57,0,0,0-1.33-2.18c-.1.14-.47-.28-.34.34s.16,1-.42.11c0,0,0,0,0,0s.87,2.11.77,2-1.11-1.94-1.18-1.85-.54-.29-.37.4.05.66-.36.16-.64-.47-.46.23.06.68-.35.22-.69-.54-.45.22,0,.61-.4.17-.61-.43-.38.26,0,.64-.43.2-.35,0-.45.13,0,.1,0,.2Z" style="fill:#382d15;"/><path d="M451.82,424.41a.31.31,0,0,0-.06-.13c-.14-.09-.33-.55-.37.14s-.12.75-.33,0-.22,0-.34-.13-.13.54.17,3.26c-.51-3.15-.78-4.31-.62-2.43s.12,1.82-.2,0-.28-.72,0,2.27a16.22,16.22,0,0,0-.59-2.92c-.13,0-.33-.46-.36.21s-.12.6-.31.05-.36-.6-.38.11-.08.77-.3,0-.22,0-.35-.19-.13.48.25,3.2c-.83-4.29-1-4.23-.39,0-.86-4.45-.94-3.75-.37.13-.25-1.27-.56-2.83-.62-2.84s-.65-1.41-.39,1.1c0,.3,0,.12-.07-.12-.46-1.8-.48-1.54-.06,1.44a15.48,15.48,0,0,0-.63-2.48,2.25,2.25,0,0,1-.39.08,4.94,4.94,0,0,0,.13,1.35c.11.71.13.89-.05.15-.54-2.26-.61-2-.18.63.15.95.12.84-.08-.05a8.34,8.34,0,0,0-.55-2c-.12-.13.43,3.07.3,2.55a12.57,12.57,0,0,0-.72-2.48c-.09.13-.35-.51-.3.27s-.08.64-.34,0c-.2-.54.43,2.72.22,2a10.65,10.65,0,0,0-.62-2,.52.52,0,0,1-.33.12s-.05.16.07.86c.15.86,0,.49-.08.13-.57-1.7-.68-1.25-.64-.16,0,.12.13.76.23,1.29.17.84.15.83,0,.07-.72-2.7-.83-2.75-.39-.33.08.47.13.71,0,.13-.73-2.6-.77-2.4-.18.7a13.27,13.27,0,0,0-.73-2.32c-.08,0,.29,1.76.29,2s-.56-1.88-.67-2,.52,2.76.24,1.85a5.6,5.6,0,0,0-.64-1.71c-.08.05-.15.13-.25,0s-.09.5.54,3.24c-1.2-4.25-1.33-4.24-.43-.14-1.16-4-1.26-4-.37.14a24.26,24.26,0,0,0-.84-2.71c-.17.07-.74-1.28-.28,1.13,0,.21.07.35,0,.07-.72-2.22-.61-1.36,0,1.41a14.16,14.16,0,0,0-.85-2.48c-.13,0-.43-.53-.35.23s-.06.59-.32.05-.42-.54-.35.15,0,.71-.33.06-.46-.66-.36.11,0,.61-.32.1-.44-.59-.36.08,0,.68-.34.09-.25,0-.38,0,0,.53.44,2c.28,1,.22.85-.06,0-1-2.74-1.08-2.71-.29.13.26.94.2.78-.09-.07a8.26,8.26,0,0,0-.77-1.89c-.14-.12.79,3,.58,2.48a16.2,16.2,0,0,0-1-2.35c-.08.12-.37-.36-.28.26s.09,1-.34,0c0,0,0,0,0,0s.6,2.2.52,2.11-.8-2.09-.86-2-.42-.39-.32.3,0,.64-.3.08-.49-.59-.38.11,0,.66-.29.13-.52-.67-.37.1,0,.59-.33.07-.46-.55-.32.16,0,.61-.36.08-.28-.08-.37,0,0,.16,0,.2l3.75,10.07,0,0c.15.06.42.47.29-.2s-.07-.75.28-.08.19,0,.32.07,0-.54-.88-3.14c1.15,3,1.65,4.06,1.09,2.26s-.5-1.75.17-.06.4.66-.48-2.21a18.77,18.77,0,0,0,1.13,2.76c.1,0,.38.4.27-.26s0-.61.26-.1.43.54.32-.16-.07-.76.26-.07.2,0,.34.14,0-.49-.76-3.12c1.46,4.12,1.54,4.06.36-.06,1.48,4.29,1.42,3.6.33-.17l.63,1.83a5.68,5.68,0,0,0,.36.91c.18,0,.77,1.33.19-1.12-.07-.3,0-.12.08.11.66,1.74.63,1.48-.13-1.42a18,18,0,0,0,.89,2.4,1.78,1.78,0,0,1,.34-.11,5.62,5.62,0,0,0-.27-1.33c-.18-.7-.21-.87,0-.15.75,2.2.77,2,.1-.64-.24-.93-.2-.83.08,0a9.58,9.58,0,0,0,.71,1.93c.12.12-.7-3-.53-2.51a14.71,14.71,0,0,0,.9,2.42c.07-.13.36.49.24-.28s0-.64.3,0-.61-2.69-.35-2a12.43,12.43,0,0,0,.71,1.93.41.41,0,0,1,.29-.13s0-.16-.12-.86-.07-.48.06-.13c.62,1.68.68,1.23.59.14,0-.12-.15-.76-.27-1.29-.19-.84-.18-.83,0-.07.79,2.68.87,2.74.38.33-.1-.47-.15-.71,0-.13.78,2.58.78,2.4.14-.7a15.34,15.34,0,0,0,.74,2.32c.07,0-.31-1.75-.33-2s.56,1.88.66,2-.53-2.75-.26-1.85a6.46,6.46,0,0,0,.61,1.72c.07,0,.13-.12.23,0s.07-.49-.52-3.25c1.12,4.28,1.21,4.27.41.15,1,4,1.12,4,.35-.12l.47,1.88a4.38,4.38,0,0,0,.26.86c.16-.06.63,1.32.28-1.1,0-.21-.05-.36,0-.06.6,2.25.51,1.4,0-1.4a16.21,16.21,0,0,0,.69,2.52c.12,0,.36.56.32-.2s.08-.58.29,0,.34.58.32-.11.06-.7.3,0,.37.7.33-.07.09-.6.29-.06.34.64.32,0,.08-.67.3,0,.22.05.33.07a6.78,6.78,0,0,0-.2-2c-.15-1-.11-.87.06,0,.59,2.84.68,2.83.29-.09-.13-1-.09-.8.08.08a9.43,9.43,0,0,0,.48,2c.11.14-.36-3.09-.23-2.53a19.05,19.05,0,0,0,.6,2.47c.09-.1.28.42.28-.21s0-1,.3,0c0,0,0,0,0,0s-.24-2.27-.18-2.17.43,2.19.49,2.13.31.46.32-.24.09-.63.27,0,.34.68.35,0,.1-.65.27-.07.34.76.34,0,.13-.56.3,0,.3.65.31-.07.15-.58.33,0,.22.14.32.07a.45.45,0,0,0,0-.19Z" style="fill:#382d15;"/><path d="M451.78,437.44a.29.29,0,0,0-.06-.13c-.15-.09-.37-.54-.4.15s-.12.75-.35,0-.23,0-.37-.12-.13.54.25,3.25c-.62-3.13-1-4.28-.72-2.4s.19,1.81-.21,0-.33-.7.09,2.27a14.82,14.82,0,0,0-.74-2.89c-.13,0-.38-.44-.38.23s-.1.61-.33.07-.42-.58-.41.14,0,.78-.33.05-.24,0-.39-.16-.12.49.44,3.18c-1.13-4.22-1.28-4.15-.4,0-1.19-4.38-1.25-3.67-.38.16a26.9,26.9,0,0,0-.85-2.78c-.21,0-.79-1.35-.34,1.13.06.3,0,.12-.09-.11-.63-1.75-.63-1.48.05,1.44a14.14,14.14,0,0,0-.87-2.41,2.66,2.66,0,0,1-.41.13,4.54,4.54,0,0,0,.25,1.33c.17.7.21.87,0,.16-.77-2.19-.83-2-.14.65.25.93.2.83-.09,0a7.66,7.66,0,0,0-.77-1.91c-.14-.11.74,3,.56,2.51a11.5,11.5,0,0,0-1-2.38c-.09.14-.42-.47-.29.31s0,.65-.37,0,.74,2.65.44,1.94a9.75,9.75,0,0,0-.87-1.87.61.61,0,0,1-.34.17s0,.16.17.85.1.48-.07.14c-.8-1.61-.87-1.14-.69-.06,0,.12.22.74.4,1.25.28.82.26.81,0,.08-1.08-2.57-1.21-2.61-.45-.27.15.46.23.69,0,.14-1.1-2.46-1.12-2.26-.09.73a12.22,12.22,0,0,0-1.07-2.19c-.09,0,.53,1.7.58,2s-.84-1.78-1-1.88.92,2.65.51,1.8c-.51-1-.84-1.65-.91-1.58s-.14.16-.26.1,0,.52,1,3.12c-1.88-4-2-4-.47-.06-1.81-3.74-1.93-3.69-.36.2a22.1,22.1,0,0,0-1.3-2.52c-.17.11-1-1.11-.12,1.18.08.2.13.34,0,.07-1.11-2.05-.86-1.22.28,1.38a13,13,0,0,0-1.3-2.28c-.13.06-.54-.43-.32.31s0,.6-.33.13-.54-.44-.34.23.1.7-.34.13-.6-.54-.35.2.06.62-.32.18-.57-.48-.36.17.1.68-.33.17-.27.05-.4.09.13.52.86,1.87c.49.9.41.78-.06,0-1.55-2.45-1.68-2.39-.27.2.47.86.37.71-.11,0a7.61,7.61,0,0,0-1.19-1.66c-.17-.08,1.45,2.75,1.12,2.28a14.74,14.74,0,0,0-1.51-2.05c-.06.14-.46-.25-.23.34s.3.93-.35.11c0,0,0,0,0,0s1.11,2,1,1.93-1.29-1.83-1.33-1.74-.52-.27-.26.39.16.63-.29.17-.64-.43-.36.22.17.64-.27.22-.69-.5-.36.22.12.58-.32.17-.61-.4-.29.26.12.6-.35.2-.31,0-.37.13.08.15.09.18l6.44,8.6,0,0c.15,0,.53.34.21-.26s-.28-.69.24-.14.17-.06.32,0-.17-.52-1.7-2.79c1.91,2.55,2.66,3.48,1.64,1.89s-.94-1.55.14-.09.54.54-1-2a20.17,20.17,0,0,0,1.8,2.37c.08-.07.46.3.18-.31s-.18-.58.21-.15.54.43.26-.22-.26-.72.23-.12.19,0,.35.06-.09-.48-1.48-2.85c2.38,3.66,2.43,3.6.34-.14,2.42,3.83,2.19,3.19.28-.24l1,1.64a5.9,5.9,0,0,0,.55.81c.17,0,1,1.14-.08-1.13-.13-.27,0-.11.1.09,1,1.56.92,1.32-.44-1.36a19.32,19.32,0,0,0,1.37,2.16,1.61,1.61,0,0,1,.29-.17,6,6,0,0,0-.55-1.24c-.32-.64-.39-.81,0-.16,1.18,2,1.15,1.79,0-.65-.42-.86-.36-.77.09,0a10.22,10.22,0,0,0,1.07,1.76c.14.1-1.28-2.81-1-2.36a15.79,15.79,0,0,0,1.34,2.2c0-.14.43.42.17-.31s-.11-.63.29,0-1.1-2.53-.72-1.85a13.41,13.41,0,0,0,1,1.77.38.38,0,0,1,.24-.17s0-.16-.28-.82-.16-.46,0-.13c.9,1.55.87,1.1.58,0,0-.12-.28-.72-.49-1.22-.33-.79-.32-.79,0-.08,1.22,2.51,1.31,2.56.42.27-.17-.45-.26-.68,0-.13,1.18,2.43,1.15,2.24,0-.71a16.49,16.49,0,0,0,1.09,2.17c.07,0-.59-1.68-.64-1.94s.84,1.77,1,1.88-.95-2.64-.54-1.78a6.89,6.89,0,0,0,.86,1.61c.06-.06.1-.14.21-.07s0-.5-1-3.14c1.71,4.07,1.79,4.06.42.09,1.59,3.84,1.64,3.82.33-.17l.72,1.8a4.69,4.69,0,0,0,.37.82c.15-.08.78,1.23.11-1.12-.06-.21-.1-.35,0-.07.87,2.16.67,1.33-.17-1.39a17.4,17.4,0,0,0,1,2.42c.11,0,.41.52.28-.23s0-.58.27,0,.39.54.29-.15,0-.7.28-.05.42.67.3-.09,0-.6.27-.08.39.61.3-.06,0-.67.28-.07.22,0,.32,0a7.2,7.2,0,0,0-.37-2c-.23-1-.18-.86.06,0,.81,2.79.89,2.77.27-.11-.21-1-.15-.79.08.07a10,10,0,0,0,.62,1.94c.11.14-.59-3.05-.42-2.51a20.75,20.75,0,0,0,.76,2.43c.08-.11.29.4.25-.22s0-1,.29,0c0,0,0,0,0,0s-.38-2.25-.31-2.15.55,2.17.6,2.1.32.44.29-.25,0-.63.26,0,.35.67.33,0,.06-.65.26-.08.35.75.32,0,.1-.57.29,0,.3.64.29-.08.12-.59.31,0,.22.14.3.07a.46.46,0,0,0,0-.2Z" style="fill:#382d15;"/><path d="M464.53,444.75c0-.07-.07-.11-.1-.11-.22,0-.56-.45-.56.26s-.11.79-.5.12-.33,0-.53,0-.15.58.59,3.22c-1.1-3-1.65-4.07-1.19-2.23s.39,1.78-.29.1-.51-.62.28,2.28a10.48,10.48,0,0,0-1.24-2.72c-.19.08-.56-.34-.52.35s-.1.64-.45.17-.62-.46-.56.27,0,.81-.45.16-.34,0-.55,0-.14.54.82,3.11c-1.85-4-2-3.84-.56.19-1.93-4.11-2-3.36-.52.29a18.75,18.75,0,0,0-1.35-2.58c-.29.06-1.18-1.12-.4,1.28.1.29,0,.13-.13-.08-1-1.59-1-1.31.16,1.48a10,10,0,0,0-1.33-2.19,5.54,5.54,0,0,1-.56.28c-.07,0,.08.49.42,1.3s.34.83,0,.18c-1.18-2-1.25-1.75-.15.73.39.88.32.79-.12,0-.69-1.23-1-1.66-1.16-1.71s1.18,2.87.9,2.42c-.7-1.11-1.41-2.26-1.5-2.11s-.6-.33-.38.43,0,.69-.5.14,1.14,2.5.7,1.87c-.55-.78-1.19-1.73-1.28-1.63a1.23,1.23,0,0,1-.45.32c-.06,0,0,.19.28.83s.17.47-.08.17c-1.16-1.39-1.23-.86-.94.21a12.82,12.82,0,0,0,.6,1.17c.42.75.4.75-.05.11-1.59-2.3-1.76-2.28-.62-.1.22.43.34.64,0,.15-1.6-2.18-1.61-2-.09.82a8.65,8.65,0,0,0-1.54-1.9,17.56,17.56,0,0,0,.87,1.86c.07.25-1.21-1.56-1.4-1.61s1.36,2.46.77,1.72c-.73-.9-1.2-1.41-1.29-1.32s-.17.23-.34.22,0,.57,1.54,2.92c-2.69-3.51-2.87-3.4-.62.14-2.58-3.27-2.73-3.16-.46.38a15.47,15.47,0,0,0-1.83-2.16c-.21.2-1.33-.78-.09,1.34.11.19.18.31,0,.09-1.56-1.74-1.19-1,.43,1.39-1-1.19-1.71-2-1.81-1.91s-.72-.22-.4.49.09.64-.42.29-.71-.24-.42.41.17.73-.43.3-.8-.31-.44.39.12.66-.39.35-.75-.26-.45.36.17.71-.41.35-.33.19-.49.29.2.52,1.2,1.68c.67.78.56.68-.07.08-2.1-2-2.25-1.87-.33.36.64.74.5.62-.14,0-1-1-1.44-1.28-1.6-1.29s2,2.4,1.54,2c-.81-.68-2-1.73-2-1.58s-.58-.06-.27.5.44.91-.42.31c0,0,0,0,0,0s1.51,1.72,1.38,1.69-1.72-1.44-1.77-1.31-.66,0-.29.57.24.64-.34.34-.82-.17-.43.45.26.66-.31.39-.88-.22-.42.43.19.62-.38.37-.76-.14-.33.45.19.64-.4.41-.36.17-.44.35c0,0,.11.13.13.16l8.41,6.69.06,0c.19-.06.67.12.24-.43s-.39-.67.28-.3.21-.17.39-.2-.24-.52-2.26-2.37c2.5,2,3.49,2.65,2.14,1.33s-1.26-1.32.17-.19.71.34-1.42-1.79a13.49,13.49,0,0,0,2.37,1.81c.1-.13.59.1.21-.47s-.25-.59.26-.3.71.21.31-.39-.36-.7.28-.27.24-.13.45-.12-.14-.51-2-2.51c3.2,3,3.27,2.86.42-.34,3.28,3.14,3,2.52.35-.42a24.41,24.41,0,0,0,2.12,2c.22-.13,1.37.77-.15-1.25-.18-.24,0-.11.14,0,1.39,1.25,1.26,1-.63-1.32a12.88,12.88,0,0,0,1.87,1.76,3.69,3.69,0,0,1,.37-.34s-.23-.44-.76-1.13-.54-.72,0-.17c1.62,1.66,1.58,1.44-.08-.71-.59-.76-.5-.69.12,0,.95,1,1.35,1.41,1.48,1.44s-1.8-2.52-1.43-2.14c.91.95,1.82,1.95,1.86,1.8s.59.26.21-.44-.17-.65.39-.17-1.56-2.28-1-1.71,1.41,1.56,1.47,1.46a.81.81,0,0,1,.32-.3s0-.17-.4-.77-.23-.44,0-.16c1.26,1.28,1.21.8.78-.23,0-.12-.4-.66-.7-1.11-.48-.72-.45-.72,0-.1,1.74,2.19,1.86,2.2.58.1-.25-.41-.38-.62,0-.15,1.69,2.11,1.64,1.92,0-.79a11,11,0,0,0,1.56,1.87c.1,0-.86-1.56-.95-1.82s1.21,1.55,1.37,1.61-1.4-2.44-.81-1.69c.71.91,1.16,1.45,1.23,1.37s.14-.19.29-.16,0-.53-1.47-2.95c2.51,3.64,2.61,3.59.58-.09,2.33,3.43,2.41,3.39.44-.32a20,20,0,0,0,1.61,2.34c.2-.15,1.13,1,.12-1.24-.09-.2-.15-.33,0-.08,1.3,1.94,1,1.14-.3-1.41a11.54,11.54,0,0,0,1.46,2.17c.15-.08.6.39.38-.35s0-.62.38-.16.58.41.4-.27-.06-.73.39-.17.63.54.43-.21,0-.64.38-.19.58.49.43-.18,0-.71.4-.18.31,0,.46-.07-.06-.53-.62-2c-.38-1-.3-.82.08,0,1.29,2.6,1.42,2.55.38-.2-.34-.91-.26-.76.12,0a6.77,6.77,0,0,0,1,1.79c.17.1-1-2.95-.74-2.44A13.87,13.87,0,0,0,462.3,457c.1-.13.45.32.35-.31s-.08-1,.42-.07c0,0,0,0,0,0s-.67-2.18-.57-2.1.91,2,1,2,.49.34.4-.36,0-.66.38-.1.56.57.48-.15,0-.68.37-.16.56.65.47-.14.11-.6.42-.07.49.56.42-.16.14-.63.46-.09.33.08.45,0,0-.1,0-.2Z" style="fill:#382d15;"/><path d="M583.87,423.23a4,4,0,0,0-1.34-2.09c-.88-.81-.87-1.19-.11-2.27a8.76,8.76,0,0,0,1.94-5.45,9.74,9.74,0,0,0-2.19-5.54c-.56-.77-.83-1.08-.33-2.21a10.31,10.31,0,0,0,1.13-6.19c-.31-1.78-1.46-3.44-3.4-5.49a9.08,9.08,0,0,0,1.24-6.55c-.48-2.73-2.69-3.94-3.38-5.82s1-4.15.39-7c-.64-3-4.08-4-3.75-6.23a16.31,16.31,0,0,0-.69-7.87L570.22,352c-1.23-3.63-3.15-6.42-6.45-7.08,1.06-3,1.16-5.55.25-7.62s-2.85-3.69-5.84-5c1.54-6.23,0-9.33-6.47-12.35.67-1.64,1.26-3.65.21-5.48-3.23-5.7-5.47-12.25-10.87-16.33a1.64,1.64,0,0,1-.87-1.28c-.31-4.9-3.09-7.61-7.26-8.81a7.87,7.87,0,0,0-1-6.33c-2.52-3.79-4.71-8.15-7.9-11.28a38.72,38.72,0,0,1-6.8-9.16,37.4,37.4,0,0,0-8.41-10.13,41.75,41.75,0,0,1-8-8.64,31.33,31.33,0,0,0-9.86-9,62.79,62.79,0,0,1-9.89-7.18,27.94,27.94,0,0,0-12.34-6c-4.62-.83-8.61-1.67-13.5-2.28a21.86,21.86,0,0,0-3.6,0,21.13,21.13,0,0,0-3.68.72,27,27,0,0,0-3.65,1.31c-.6.26-1.18.58-1.76.87a16.62,16.62,0,0,0-1.71,1c-2.68,1.58-4.37,3.93-4.29,6.2,0,1.49-.33,1.71-1.75,2.2a7.35,7.35,0,0,0-1.67.78,9,9,0,0,0-1.44,1.07,8.3,8.3,0,0,0-1.86,9.52c.67,1.47.39,1.79-.63,2.57-1.66,1.22-2.47,3.35-2.75,5.88a7.48,7.48,0,0,0,1.31,4.56c.74,1.25,1.47,2.18,1.21,2.88-.89,2.56-2.25,4.77-1.64,8.11.78,4.2,1.38,8.7,3.42,12.45l1.58,2.82c.52,1,1,1.72,1.41,2.61a23.26,23.26,0,0,1,1.94,5.45,1.6,1.6,0,0,0,.15.31c1.14,2.36,4,2.65,4.66,4.19.82,1.76-.3,4.12,1.07,6.46,2.31,4,4.11,8.3,6.78,11.74a26.43,26.43,0,0,1,4.8,9.13,52.19,52.19,0,0,0,5.46,12.05,42.53,42.53,0,0,1,4.77,10.09,37.1,37.1,0,0,0,6.29,11.85,34.09,34.09,0,0,1,5.65,10.11,39.89,39.89,0,0,0,5.92,10.54,31.94,31.94,0,0,1,5.58,10.93c1.15,3.62,3.13,7,4.62,10.57a12.24,12.24,0,0,0,.86,1.65l5-1.94h0l-5,2c0,.18.08.34.14.52,1.32,3.89,2.09,8.21,3.43,11.78a14.75,14.75,0,0,1,1,4.69,6.35,6.35,0,0,1-.22,1.95,1.4,1.4,0,0,1-.1.28h0c0,.07-.06.15-.09.21l-.1-.16h0l.12,0h0l-.06,0h-.06a15.7,15.7,0,0,0-2.56-3.37,7.7,7.7,0,0,0-4.19-2.08,10.24,10.24,0,0,0-.22-6.53,7.63,7.63,0,0,0-2.67-3.32,7.48,7.48,0,0,0-3.15-1.05,24,24,0,0,1-2.58-.08,9,9,0,0,1-1.95-.29,13.25,13.25,0,0,1-3.79-2.17c-3.06-2.18-7.95-.9-11.48,3.31a7.8,7.8,0,0,0-3.54-1,8.77,8.77,0,0,0-2.08.18,11.44,11.44,0,0,0-2.24.89,30.74,30.74,0,0,0-6.73,4.79l-.77.74c-.24.27-.47.56-.7.84a20.1,20.1,0,0,0-1.32,1.76,16.49,16.49,0,0,0-1.84,4,47.44,47.44,0,0,0-1.24,6.51c-.27,2-.5,3.91-.81,5.92a29.86,29.86,0,0,0,1.53,14.62,62.44,62.44,0,0,1,3.31,10.93,11.8,11.8,0,0,0,1.26,3.26,11.93,11.93,0,0,0,3,3.57,11.48,11.48,0,0,0,4.87,2.18,18.74,18.74,0,0,0,4.24.26,15.83,15.83,0,0,0,3.22-.43,12,12,0,0,0,2.35-.81,7.65,7.65,0,0,0,3.39-3.11c.6.5,1.18.92,1.66,1.34.25.2.48.38.72.55s.4.35.58.5c.4.27.63.56.9.73s.2.19.3.25.21.08.27.14a1.85,1.85,0,0,0,.59.1c.25,0,.57,0,1,0s.91.11,1.49.13,1.22.21,2,.3a9.44,9.44,0,0,0,.34,7.35,8.89,8.89,0,0,0,5.57,4.53c-.69,1.64-1.59,3.5-.73,5.42,1.37,3,2.52,6.31,4.09,9.4a21.4,21.4,0,0,0,6.53,8.08,2.44,2.44,0,0,1,1,1.65c1.57,5.25,3.46,7,8.69,7.79a11.81,11.81,0,0,0,1,3.23,7.43,7.43,0,0,0,2.56,2.89A37.53,37.53,0,0,0,522.74,518a9.6,9.6,0,0,0,2.86,0,7.53,7.53,0,0,0,2.37-.91,2.69,2.69,0,0,1,3.17-.29,11.3,11.3,0,0,0,3.47.74,10.13,10.13,0,0,0,3.18-.51,9.46,9.46,0,0,0,2.61-1.63,10.21,10.21,0,0,0,1.87-2.6c.66-1.45,1-1.55,2.36-1.25,2,.43,4.18-.38,6.28-1.9a7.86,7.86,0,0,0,2.57-4.16c.22-.71.38-1.35.56-1.84s.34-.84.62-.94l2-.73a19.23,19.23,0,0,0,1.89-.89,10.19,10.19,0,0,0,3.41-3c2.49-3.43,5.5-6.82,6.77-10.61a39.06,39.06,0,0,1,5.32-10.26c1.75-2.56-.64-5.57.74-7.07,1.71-1.9,3.49-3.56,4.21-6.35.54-2,1.12-4,1.54-6s1-4,1.32-6.07a7,7,0,0,0-.12-4.06c-.67-1.41-.18-2.17.4-3.57C584.86,437.52,585,430.22,583.87,423.23Zm-87-4.5,0,0,0,0Zm-.56-.46c-.13.13-.25.3-.36.27s-.14-.1-.1-.16a.31.31,0,0,1,.11-.19l.07-.09h0l.23.14,0,0Z" style="fill:#382d15;"/><path d="M496.48,417.83h0Z" style="fill:#382d15;"/><path d="M229.43,250.9a8.9,8.9,0,0,0,2.15-8.15,8.3,8.3,0,0,0-5.11-6c.7-1.67,1.55-3.81.21-6a34.67,34.67,0,0,0-3.6-5,25,25,0,0,0-2.27-2.22l-1.24-1c-.43-.31-.88-.59-1.33-.88a15.71,15.71,0,0,0-11.68-2.34,2.75,2.75,0,0,1-2.07-.27,11.63,11.63,0,0,0-2-.62c-.62-.15-1.2-.26-1.75-.34a9.33,9.33,0,0,0-3,.19,10,10,0,0,0-5.06,3.72,9,9,0,0,0-7.09-.07A74.37,74.37,0,0,0,173,229.47a7.08,7.08,0,0,0-2.79,3.82,2.12,2.12,0,0,1-2.1,1.91c-4.54.8-7.14,3.46-7.56,7.72-.17,1.5-.5,1.71-1.8,1.72-2,0-3.77,1.1-5.46,2.78-2.34,2.33-1.7,6.56-2.76,7-2.62,1.06-5,1.82-7,4.47-2.45,3.24-5.58,6.25-7.18,9.76a29.79,29.79,0,0,1-6.52,9.1c-2.08,2.09-.34,5.45-2,6.58-2.07,1.41-4.12,2.43-5.59,4.81l-6.4,10.21a6.75,6.75,0,0,0-1.28,3.76c.09,1.52-.66,2-1.72,3.07-5,4.88-8.07,11.21-10.32,17.81a4.05,4.05,0,0,0,.2,2.44c.38,1.11.2,1.45-1,2a9.24,9.24,0,0,0-4.31,3.76,10.37,10.37,0,0,0-.83,5.84c.08.93.18,1.35-.8,2.07-4.41,3.21-5.22,5.6-4.06,11.12a9.34,9.34,0,0,0-4.49,4.89c-1,2.59.15,4.74-.23,6.71s-3.08,3-4.05,5.66c-1,2.9,1.25,5.52-.16,7.27A21.15,21.15,0,0,0,80.5,379a14.68,14.68,0,0,0-1.37,3.78c-.7,3-1.17,6-1.87,8.92a16,16,0,0,0-.34,5.29,6.75,6.75,0,0,0,2.19,4.17,13.9,13.9,0,0,0-2.92,3.16A8,8,0,0,0,75,407.65c-.29,2.27.64,4.69,2.58,7.3-2.25,2.36-3.25,4.46-3.32,6.68s1.09,4.56,3.23,7.37c-1.32,1.17-2.69,2.75-2.57,4.9.07,1.68.21,3.36.26,5.06l.11,2.55c.08.85.16,1.69.27,2.53a22.81,22.81,0,0,0,3,9.58,1.74,1.74,0,0,1,.41,1.53c-1.33,4.84.63,8.49,4.3,10.84a7.78,7.78,0,0,0-.42,6.61c1.72,4.45,3.28,9.25,6.14,12.88a57.2,57.2,0,0,1,6.2,10.06,30,30,0,0,0,9,10.52c3.61,2.54,6.51,4.85,10.14,7.74a22.05,22.05,0,0,0,6.7,3.58,20,20,0,0,0,7.76.88A87.05,87.05,0,0,0,142.43,516a24.91,24.91,0,0,0,6.73-2.88,11.72,11.72,0,0,0,1.51-1q.72-.54,1.41-1.1a19.4,19.4,0,0,0,2.51-2.43c3.06-3.53,5.69-6.44,8.87-9.63s4.93-7.27,6.95-11c1.21-2.24,1.69-4.43.93-6.4-.5-1.31-.19-1.63,1-2.23a8.22,8.22,0,0,0,4.6-10.21c-.4-1.46-.08-1.75,1.09-2.15a8.57,8.57,0,0,0,4.15-3.47,4.38,4.38,0,0,0,.41-.77,3.88,3.88,0,0,0,.2-.82,14.36,14.36,0,0,0,.1-1.57c0-.25,0-.51,0-.75a3.7,3.7,0,0,1,.14-.58c.11-.37.32-.56.57-.52a4.29,4.29,0,0,1,1.27.44l1.19.67a7.87,7.87,0,0,0,1.33.59,7.17,7.17,0,0,0,1.72.31,55.65,55.65,0,0,1,5.6.85,16.09,16.09,0,0,0,7.9-.16,11.84,11.84,0,0,0,4.63-2.77,15.17,15.17,0,0,0,2.65-3.61c.63-1.14,1.1-2.18,1.58-3.1A30.63,30.63,0,0,1,213.1,449a1.6,1.6,0,0,0,.13-.35c.93-2.65-.91-4.88-.41-6.56.56-1.93,3-3.13,3.3-6.07.27-2.46.59-5,.67-7.45a25.54,25.54,0,0,0-.67-7.49,57.15,57.15,0,0,0-2-6.19,25.4,25.4,0,0,0-1.43-3.07c-.27-.5-.52-1.06-.82-1.56l-.95-1.51a19.11,19.11,0,0,0-6.1-5.89,22.78,22.78,0,0,0-3.72-1.88c-.64-.24-1.29-.43-1.93-.62a12.58,12.58,0,0,0-1.92-.45c-1.12-.19-2.17-.41-3.22-.53l-1.55-.24c-.51-.08-1-.12-1.55-.19l-1.55-.22-1.59-.14c-.54,0-1.07-.14-1.64-.16l-1.73-.09c-.33,0-.66,0-1,0l-1,.07a21.09,21.09,0,0,0-2.12.24A17.74,17.74,0,0,0,176,400l-1,.5a10.77,10.77,0,0,0-1,.64l-1,.69-.47.35a6.05,6.05,0,0,0-.56.47,10.33,10.33,0,0,0-1.82,2.24,14.63,14.63,0,0,0-.93,1.79,57.52,57.52,0,0,1-2.66,5.63A31.25,31.25,0,0,1,163.4,417l-.55.65-.25,0a.17.17,0,0,0-.12,0s-.06,0,0,0,0,.13,0,.2a2.82,2.82,0,0,1-.1-.29,7.08,7.08,0,0,1-.19-2.21,18.68,18.68,0,0,1,1.22-5.25c1.22-3.28,1.94-7.09,3.15-10.59.12-.33.08-.68.15-1l-5-1.94h0l5,1.94a10.36,10.36,0,0,0,.64-1.25c1.69-3.91,4-7.73,5.19-11.75a26.85,26.85,0,0,1,5.05-9.74c2.18-2.65,3.49-6.23,5.38-9.32s2.89-6.12,1.52-9.28c4.43-1.35,7.44-4.32,7.16-7.79s.37-4.55,3.25-6.2,3.51-5.37,2.5-10.49a9.46,9.46,0,0,0,3-1.69,7.82,7.82,0,0,0,2.2-3c1.71-3.91,4.14-7.63,5.5-11.62a29.86,29.86,0,0,1,5-9.2,43.48,43.48,0,0,0,6.59-11.91,32.05,32.05,0,0,1,5-9.5,15.28,15.28,0,0,0,1.45-2.3,25.94,25.94,0,0,0,1.22-2.63c.79-1.92,1.38-3.89,2-5.76,1.41-4,1.5-7.65-.87-10.22C233.65,260.76,233.95,255.45,229.43,250.9ZM165.2,422.41h0C165.32,422.81,165.44,423.21,165.2,422.41Zm-3.27-3.83h0Z" style="fill:#382d15;"/><path d="M227.35,413.1a.26.26,0,0,0,0-.15c-.09-.18,0-.68-.48-.17s-.6.5-.36-.23-.21-.18-.27-.36-.47.32-1.87,2.68c1.44-2.84,1.87-4,.87-2.36s-1,1.52-.23-.12.15-.77-1.4,1.8a12.59,12.59,0,0,0,1.18-2.74c-.15-.07-.07-.61-.52-.09s-.49.4-.36-.17,0-.74-.48-.18-.56.56-.35-.19-.21-.19-.26-.39-.44.3-1.69,2.74c1.72-4,1.53-4.07-.42-.25,1.77-4.18,1.25-3.67-.47-.15a22.54,22.54,0,0,0,1-2.72c-.2-.15.14-1.58-1.08.63-.15.27-.09.09,0-.14.58-1.77.4-1.57-.92,1.13a12,12,0,0,0,.79-2.44,4.76,4.76,0,0,1-.48-.19c-.06,0-.29.4-.66,1.19s-.39.81-.15.09c.74-2.2.54-2.07-.58.4-.4.88-.37.77-.06-.1a6.54,6.54,0,0,0,.56-2c-.06-.19-1.33,2.8-1.17,2.29a9.77,9.77,0,0,0,.66-2.5c-.18,0-.09-.64-.49,0s-.47.48-.35-.25c.09-.57-1.11,2.52-.91,1.77a8.36,8.36,0,0,0,.45-2,.87.87,0,0,1-.44-.1s-.15.1-.42.76-.23.43-.16.06c.35-1.76,0-1.46-.62-.52-.07.11-.3.71-.49,1.22-.3.81-.31.79-.1,0,.75-2.69.65-2.8-.25-.51-.17.45-.26.68-.11.09.66-2.62.5-2.48-.6.49a10.36,10.36,0,0,0,.51-2.38c-.09-.06-.68,1.65-.82,1.88s.44-1.92.38-2.09-1,2.63-.78,1.71c.24-1.13.35-1.82.24-1.82s-.24,0-.32-.11-.38.38-1.21,3.07c1-4.3.86-4.36-.41-.37.92-4.05.77-4.09-.49-.08a18.73,18.73,0,0,0,.55-2.78c-.24,0-.14-1.5-.95.81-.07.2-.12.34-.07,0,.4-2.3.05-1.51-.72,1.24a10.91,10.91,0,0,0,.39-2.59c-.17,0-.2-.69-.53,0s-.39.48-.4-.13-.19-.69-.48-.05-.41.61-.41-.12-.18-.81-.48-.09-.38.51-.43-.08-.19-.74-.46-.11-.4.58-.44-.09-.29-.14-.44-.2-.25.48-.55,2c-.2,1-.19.86-.09,0,.33-2.89.16-2.91-.41,0-.19,1-.18.78-.07-.1a6.44,6.44,0,0,0,.09-2c-.1-.17-.65,3-.62,2.47a12.53,12.53,0,0,0,.08-2.55c-.16.07-.24-.5-.47.1s-.4.91-.41-.14c0,0,0,0,0,0s-.43,2.24-.47,2.13.14-2.23,0-2.19-.29-.54-.53.13c-.15.42-.25.54-.33.29l-.54-1.77-5,6.41a2,2,0,0,1-.36.34,1,1,0,0,0,.18,1.79c.71.33.83.6.46,1.27s-.17,1.43.76,1.37.92.29.85,1.06.37,1.23,1.17.88,1.08,0,1.39.75,1,.5,1.54.51c.05,0,.12-.15.17-.18l1.27-10.67s0,0,0-.05c.3-.08.82-.43.83.3s0,.8.59.27.36.19.56.21-.08.66-2.19,2.41c2.45-2.05,3.72-2.33,2.15-1.26s-1.57.91.13.26.88.21-2,1c1.65-.42,2.94-.54,3-.34s.38.51.12.77l-6.19,5.23a1.19,1.19,0,0,0,.1-.24c.17-.56.28-.55.33,0s.21.68.42,0,.3-.72.32.05.21.1.3.28.28-.42.72-3.13c-.44,4.35-.33,4.33.44.11-.52,4.51-.25,3.86.46,0a28.9,28.9,0,0,0-.3,2.89c.2.1.16,1.55.77-.9.08-.3.06-.11,0,.14-.16,1.85-.07,1.61.59-1.32a15.17,15.17,0,0,0-.26,2.54,2,2,0,0,1,.42.07,4.74,4.74,0,0,0,.39-1.3c.17-.7.22-.87.11-.12-.32,2.3-.19,2.13.45-.51.23-.93.22-.82.06.08a8.08,8.08,0,0,0-.24,2c.06.17.81-3,.74-2.46a12.49,12.49,0,0,0-.3,2.56c.14-.08.12.61.4-.12s.36-.55.31.19c0,.57.77-2.64.65-1.88a10.54,10.54,0,0,0-.26,2,.56.56,0,0,1,.37,0s.12-.12.32-.8.18-.46.13-.08c-.23,1.78.06,1.43.55.44.06-.11.24-.73.4-1.25.25-.82.26-.81.09,0-.61,2.72-.55,2.82.22.49.15-.45.23-.69.1-.1-.57,2.64-.47,2.48.54-.52a13.05,13.05,0,0,0-.48,2.39c.07.05.62-1.67.76-1.9s-.44,1.92-.4,2.08.95-2.64.74-1.72a5.49,5.49,0,0,0-.3,1.81c.1,0,.2,0,.26.1s.34-.38,1.26-3c-1.19,4.26-1.1,4.3.36.36-1.14,4-1.07,4,.44.11a23.54,23.54,0,0,0-.77,2.73c.2,0-.09,1.47.91-.76.09-.2.15-.33.06,0-.65,2.24-.26,1.47.8-1.17a13.8,13.8,0,0,0-.72,2.52c.13.05.05.68.44,0s.41-.44.31.16,0,.68.39.1.46-.54.32.17,0,.8.37.15.44-.44.33.13,0,.74.35.18.48-.49.33.16.19.18.3.26.34-.41,1-1.79c.45-.92.4-.78.08,0-1.08,2.69-1,2.74.34.12.44-.87.38-.71,0,.12a8,8,0,0,0-.69,1.92c0,.18,1.47-2.74,1.27-2.2a16.19,16.19,0,0,0-.87,2.39c.15,0,0,.52.4,0s.63-.75.27.24c0,0,0,0,0,0s1.13-2,1.13-1.86-.9,2-.8,2,0,.57.46,0,.47-.45.28.17-.09.77.36.22.49-.45.31.13-.14.83.35.21.47-.36.29.22-.11.72.35.16.5-.36.31.23.13.27.26.28.08-.05.15-.13Z" style="fill:#382d15;"/><path d="M205.88,435a.34.34,0,0,0,0,.14c.1.12.16.61.35,0s.28-.7.29.06.18.08.26.21.24-.49.65-3.2c-.32,3.17-.38,4.36-.06,2.51s.35-1.78.18,0,.05.76.58-2.19a18.85,18.85,0,0,0-.25,3c.12,0,.16.53.36-.11s.26-.55.27,0,.14.68.35,0,.29-.71.27.06.17.11.24.28.25-.42.75-3.12c-.57,4.33-.47,4.32.35.11-.63,4.49-.37,3.85.37,0l-.27,1.91a5.68,5.68,0,0,0-.1,1c.16.09.08,1.53.68-.91.07-.3.05-.11,0,.13-.2,1.85-.11,1.61.53-1.33a18,18,0,0,0-.3,2.54,1.79,1.79,0,0,1,.35.05,5.59,5.59,0,0,0,.36-1.31c.16-.7.21-.87.1-.12-.33,2.3-.22,2.12.38-.53.21-.94.2-.83.05.08a9.58,9.58,0,0,0-.25,2c.05.16.75-3,.67-2.48a14.7,14.7,0,0,0-.3,2.56c.12-.09.09.6.34-.14s.31-.56.26.17c0,.57.68-2.67.57-1.9a12.4,12.4,0,0,0-.24,2,.42.42,0,0,1,.31,0s.1-.12.28-.82.16-.46.11-.09c-.21,1.78,0,1.41.46.4,0-.12.21-.74.34-1.27.21-.83.22-.82.07,0-.52,2.74-.47,2.84.19.47.13-.46.19-.7.08-.1-.48,2.66-.39,2.49.45-.56a15.35,15.35,0,0,0-.4,2.4c.06,0,.52-1.7.63-1.95s-.36,1.93-.32,2.09.78-2.69.61-1.76a6.41,6.41,0,0,0-.24,1.81c.08,0,.17-.05.22.07s.29-.41,1-3.12c-.95,4.32-.86,4.35.3.32-.9,4.05-.83,4.07.37.05l-.44,1.89a4.46,4.46,0,0,0-.16.88c.17,0,0,1.46.75-.85.07-.2.12-.34.05,0-.49,2.28-.18,1.48.64-1.25a16.3,16.3,0,0,0-.54,2.56c.11,0,.07.67.37,0s.33-.48.27.11,0,.67.34,0,.37-.6.28.11,0,.79.32.09.35-.49.29.08,0,.73.3.12.38-.56.29.1.17.15.27.21.26-.45.75-1.91c.33-1,.29-.83.06,0-.77,2.8-.68,2.83.29.05.32-.92.28-.75,0,.11a9.45,9.45,0,0,0-.47,2c0,.18,1.08-2.91.94-2.36a19,19,0,0,0-.59,2.47c.13-.05.06.5.34-.06s.48-.84.25.18c0,0,0,0,0,0s.82-2.13.83-2-.62,2.15-.54,2.12.07.55.39-.07.37-.52.25.11,0,.76.33.13.38-.53.28.06,0,.83.32.13.37-.45.26.15,0,.71.31.07.39-.45.29.15.13.23.25.21.08-.15.1-.18l3.75-10.07a.28.28,0,0,0,0-.06c-.08-.15,0-.64-.39,0s-.45.61-.3-.13-.18-.12-.24-.27-.36.42-1.34,3c1-3,1.26-4.2.56-2.45s-.72,1.67-.19-.07.08-.77-1,2a16.2,16.2,0,0,0,.8-2.87c-.13,0-.09-.56-.42,0s-.37.48-.3-.09,0-.7-.39-.08-.42.65-.29-.11-.18-.14-.23-.33-.34.37-1.24,3c1.21-4.2,1.07-4.21-.35-.16,1.26-4.36.87-3.77-.39-.06.35-1.25.79-2.78.74-2.81s.07-1.55-.84.8c-.11.28-.07.1,0-.14.41-1.81.27-1.59-.7,1.25a15.45,15.45,0,0,0,.57-2.49,2.28,2.28,0,0,1-.39-.1,4.93,4.93,0,0,0-.5,1.26c-.23.68-.29.85-.11.11q.82-3.38-.45.48c-.3.91-.28.8,0-.08a8.33,8.33,0,0,0,.41-2c0-.17-1,2.93-.89,2.41a12.59,12.59,0,0,0,.48-2.53c-.14.07-.08-.62-.39.1s-.37.53-.28-.2c.07-.57-.85,2.61-.7,1.86a10.73,10.73,0,0,0,.34-2,.52.52,0,0,1-.35,0s-.12.12-.33.8-.18.45-.12.08c.27-1.77,0-1.42-.5-.43-.05.11-.23.73-.38,1.26-.24.83-.24.81-.08,0,.59-2.73.52-2.83-.2-.48-.14.46-.21.69-.09.1.53-2.65.41-2.49-.48.55a13.3,13.3,0,0,0,.41-2.4c-.07-.05-.54,1.7-.66,1.94s.36-1.93.31-2.09-.79,2.69-.63,1.76a5.61,5.61,0,0,0,.21-1.82c-.09,0-.19,0-.25-.07s-.31.41-1,3.13c.87-4.33.74-4.38-.32-.32.79-4.08.68-4.1-.39,0a24.26,24.26,0,0,0,.48-2.79c-.19,0-.08-1.47-.77.87-.06.21-.1.35-.06,0,.37-2.3.08-1.49-.6,1.27a14.15,14.15,0,0,0,.37-2.59c-.13,0-.14-.66-.42.05s-.32.5-.31-.1-.13-.67-.38,0-.34.62-.32-.1-.11-.79-.37-.06-.32.52-.33-.06-.12-.73-.35-.09-.34.59-.34-.07-.22-.13-.33-.18-.22.48-.52,2c-.2,1-.19.86-.07,0,.39-2.88.27-2.9-.32,0-.2,1-.18.78-.05-.1a8.27,8.27,0,0,0,.18-2c-.07-.17-.67,3-.61,2.47a16.21,16.21,0,0,0,.2-2.54c-.13.07-.16-.49-.37.11s-.36.9-.31-.14c0,0,0,0,0,0s-.46,2.23-.49,2.12.24-2.22.15-2.18-.19-.54-.42.12-.28.58-.3-.06-.17-.75-.39-.07-.29.59-.32,0-.16-.83-.38-.08-.29.51-.33-.09-.16-.7-.36,0-.31.53-.36-.09-.21-.2-.33-.16,0,.08-.08.18Z" style="fill:#382d15;"/><path d="M868.47,794.77l-19.83,16.67a29.87,29.87,0,0,0-6.4,7.14,8.31,8.31,0,0,1-4.51,4c-8,3.67-13.59,8.65-17.3,15.31-1.31,2.36-2,2.83-4.15,3.4-3,.81-6.42,3-10.1,5.85,1.46-3.34,2.94-6.48,4.54-9.5,1.78-3.59,3.81-7,5.84-10.57a21.19,21.19,0,0,0,2.44-7.82c.33-2.4.56-4.53,1.74-6.27l2.16-3.14c.69-1,1.36-2.08,2-3.16a42.53,42.53,0,0,0,3.67-7.39c1.55-4.15,3.15-8.29,4.59-12.48s2.9-8.38,4.29-12.58a27.92,27.92,0,0,0,1.72-8.41,10.7,10.7,0,0,1,.58-3.7c.36-1.14.88-2.28,1.49-3.75a146.43,146.43,0,0,0,9.39-35.75l2.95-20.66-12.28,16.19q-2.49,3.28-4.9,6.61a12.91,12.91,0,0,0-1.9,4.28c-.49,1.91-1,2.55-3.11,3.78-7.35,4.39-11.62,9.32-15.58,17.82a7.21,7.21,0,0,1-3,3.75c-8.71,6.14-11.92,10.23-16.07,20a36.8,36.8,0,0,0-10.48,8.65c-3.84,4.5-4.76,8.4-7.34,11.86a25,25,0,0,1-5.35,4.71l1.45-6.71c.67-3.2,1.32-6.41,2-9.6a63.07,63.07,0,0,0,1.65-11.24,19.93,19.93,0,0,0-1.18-8.63,37.67,37.67,0,0,0,5.8-14.16,40.53,40.53,0,0,0-.77-15.63c5.6-10,6.56-17.38,3.76-30.32a19.84,19.84,0,0,0,3.88-9.92c1.32-14.27,3.8-28.91,2-42.86a7.52,7.52,0,0,1,.08-3.39,41.18,41.18,0,0,0,1.73-13.25,38.4,38.4,0,0,0-2.36-11.68,29.82,29.82,0,0,0,2.7-12.88c0-5.13.06-10.36.09-15.52l.12-21.24-10.78,18.49c-2.5,4.29-4.91,8.55-6.88,12.82-1.81,4-3.66,7.59-5.62,11.11s-4,7-6.26,10.64c-2.4,3.93-4.75,8.18-7,12.5S754,647,752.32,651.24s-3.14,8-4.86,11.72-3.44,7.52-5.53,11.45c-2,4.09-4,8.56-5.84,13.11a142.58,142.58,0,0,0-4.34,13.66c-1,4.42-2.26,8.45-3.51,12.46s-2.54,8-4,12.18c-1.34,4.35-2.73,8.93-3.77,13.59q-.39,1.93-.75,3.85a34.09,34.09,0,0,0-3.84-10.84c-1.36-2.42-1.31-3.29-.75-5.34.88-3.24.73-7.6-.06-12.64-1-7-5.28-11.7-5.23-14.63,0-5.41.79-9.8-.7-16.57-1.84-8.6-3.31-17.61-5.8-25.68-2.62-8.29-4.81-16-5.92-24.31a7.39,7.39,0,0,0-.18-.73,21.24,21.24,0,0,0-1.83-4.74l-7.22-13.9-2.11,13.27c-.48,3-.42,5.57-1.4,7.84-1.74,3.91-4.82,6.32-6.82,12l-1.29,3.59-1.23,3.63-2.49,7.25c-.8,2.42-1.49,4.86-2.17,7.27s-1.33,4.8-1.77,7.2c-.76,4.06-1.61,7.76-2.54,11.44s-1.87,7.36-3.11,11.32c-.67,2.32-1.29,4.74-1.88,7.2s-1.18,5-1.58,7.5a137.07,137.07,0,0,0-1.88,15c-.29,4.23-.71,8.14-1.09,12s-1.06,7.79-1.65,12c-.36,2.35-.69,4.77-1,7.24s-.42,5-.58,7.47-.26,5-.23,7.46.12,4.88.27,7.21c.23,4.55.48,8.76.47,12.94,0,2.45,0,4.91-.05,7.4-3.17-4.87-6.24-9.64-9.58-14.67A99,99,0,0,0,636.29,777c-1.5-1.7-3.06-3.35-4.63-5-.78-.82-1.59-1.62-2.38-2.42L628,768.23a14.4,14.4,0,0,0-3.29-2.41,11.5,11.5,0,0,0-2.87-1c-.9-.2-1.68-.29-2.38-.4l1.84,5h0l-1.84-5c-.62,1.14-1.38,2.49-2.1,4.17a28.36,28.36,0,0,0-1.84,6c-.2,1-.33,2-.43,3l-.06.67,0,.47-.07.94-.51,7.49a122.09,122.09,0,0,0,.12,14.67c.28,4.36.65,8.43.78,12.5.06,2,.19,4.07.21,6.14s0,4.19,0,6.37a87.15,87.15,0,0,0,.89,12c.28,2,.51,4.09.85,6.13s.64,4.07.9,6.09a62.1,62.1,0,0,0,2.44,11,22.66,22.66,0,0,0,4.37,7.77,36,36,0,0,0-.62,6.1,34.59,34.59,0,0,0,.33,6.1,25.82,25.82,0,0,0,3.65,10.43,30,30,0,0,1,3.63,6.95,26.43,26.43,0,0,1,1.23,7.69,25.32,25.32,0,0,0,3.13,9.88,50.34,50.34,0,0,0,3.48,5.3,62.65,62.65,0,0,0,4.79,5.25,24.27,24.27,0,0,0,1.34,6.38,26.84,26.84,0,0,0,4.5,7.55c1.6,2.11,3.56,4,5.39,6,1,.92,2,1.81,3,2.71.52.44,1,.92,1.55,1.32l1.65,1.2,1.65,1.18a14.82,14.82,0,0,0,1.7,1.1q1.75,1,3.5,2c1.16.65,2.41,1.09,3.6,1.62a26.59,26.59,0,0,0,3.64,1.32c2.13.61,4.16,1.29,6.19,1.7l3,.73c1,.26,2,.39,3,.61l3,.62c1,.22,2,.33,3,.52,2,.35,4,.76,6.16,1l3.78.53c1.27.14,2.55.21,3.85.3s2.61.17,3.88.21l3.81.07a128.17,128.17,0,0,0,15.17-.69c4.15-.48,8-.89,11.85-1.37s7.75-.88,12-1.5c7.92-1,16.47-4.92,23.84-9.55a40.78,40.78,0,0,0,9.48-8.06,19.59,19.59,0,0,0,4.43-8.29,33.16,33.16,0,0,0,12.35-10,35,35,0,0,0,6.07-14c9.1-5.06,16.23-17.08,16.69-25.22,2.53-1.56,5.44-3.19,7.86-7.12,7.69-12.39,16.33-24.81,20.65-38.44a10.12,10.12,0,0,1,2-3.48c1.64-2.18,3-4.07,4.08-5.81a36.9,36.9,0,0,0,2.63-5,40.65,40.65,0,0,0,2.69-11.35A34.81,34.81,0,0,0,875.4,805l1.69-3.79,9.76-21.91Z" style="fill:#ff3366;"/><path d="M205.73,448a.35.35,0,0,0,0,.14c.09.12.13.62.33,0s.29-.69.27.06.17.08.24.21.24-.49.74-3.18c-.43,3.15-.54,4.35-.15,2.5s.42-1.77.17,0,0,.76.66-2.17a20.23,20.23,0,0,0-.38,3c.11,0,.12.54.35-.1s.28-.54.26,0,.08.69.34,0,.32-.69.25.07.16.12.21.29.27-.41.95-3.07c-.87,4.28-.79,4.27.34.13-1,4.43-.68,3.81.37,0l-.42,1.89a6,6,0,0,0-.18,1c.15.1-.07,1.53.73-.86.1-.29.06-.1,0,.14-.37,1.82-.26,1.59.64-1.28a19.28,19.28,0,0,0-.54,2.5,1.62,1.62,0,0,1,.33.08,6,6,0,0,0,.48-1.27c.23-.68.29-.85.11-.11-.56,2.25-.44,2.08.43-.49.31-.91.29-.8,0,.08a10.26,10.26,0,0,0-.47,2c0,.17,1.06-2.91.93-2.39a15.78,15.78,0,0,0-.59,2.51c.13-.07,0,.6.34-.11s.37-.53.22.19c-.11.56,1-2.57.79-1.82a13.35,13.35,0,0,0-.5,2,.38.38,0,0,1,.29.05s.11-.11.38-.78.21-.44.12-.07c-.44,1.73-.15,1.39.38.44.06-.11.3-.71.51-1.21.32-.8.33-.78.08,0-.89,2.65-.86,2.74.11.49.19-.44.29-.67.1-.09-.86,2.56-.75,2.41.52-.49a16.57,16.57,0,0,0-.75,2.31c0,.05.76-1.61.9-1.84s-.65,1.85-.64,2,1.17-2.55.86-1.65a6.87,6.87,0,0,0-.52,1.75c.08,0,.17,0,.19.1s.34-.36,1.5-2.92c-1.63,4.11-1.57,4.15.24.36-1.56,3.85-1.51,3.87.35.11l-.75,1.79a4.67,4.67,0,0,0-.31.84c.16,0-.31,1.42.87-.72.1-.19.18-.32.06,0-.9,2.15-.46,1.41.85-1.11a17.33,17.33,0,0,0-1,2.41c.1.05-.07.66.36,0s.41-.41.23.16-.1.66.31.1.48-.51.24.16-.17.77.28.15.44-.41.25.13-.15.71.26.17.48-.47.25.15.13.18.2.26.35-.39,1.15-1.7c.53-.87.47-.74.06,0-1.38,2.56-1.31,2.6.27.11.52-.82.44-.67,0,.11a10.09,10.09,0,0,0-.92,1.82c0,.17,1.72-2.59,1.46-2.08a20.8,20.8,0,0,0-1.16,2.27c.13,0-.07.49.33,0s.66-.7.19.22c0,0,0,0,0,0s1.31-1.87,1.28-1.75-1.13,1.93-1,1.92-.08.54.38,0,.48-.42.2.16-.22.72.27.2.5-.42.24.12-.27.78.26.2.47-.33.2.21-.23.67.26.15.5-.33.22.22.06.25.17.26.11-.12.14-.15l6.44-8.6a.26.26,0,0,0,0-.06c0-.17.12-.64-.39-.17s-.61.45-.27-.22-.15-.18-.18-.34-.47.29-2.1,2.5c1.75-2.66,2.32-3.72,1.17-2.22s-1.14,1.42-.18-.12.26-.73-1.53,1.68a14.87,14.87,0,0,0,1.5-2.58c-.12-.07,0-.58-.44-.1s-.5.36-.28-.18.11-.71-.39-.19-.58.52-.27-.19-.15-.19-.16-.39-.43.27-1.91,2.57c2.15-3.81,2-3.86-.32-.25,2.22-4,1.68-3.49-.38-.15a26.72,26.72,0,0,0,1.35-2.58c-.14-.15.38-1.52-1,.57-.17.25-.09.08,0-.14.78-1.69.59-1.5-1,1.06a14.1,14.1,0,0,0,1.07-2.32,2.68,2.68,0,0,1-.38-.2,4.57,4.57,0,0,0-.76,1.13c-.36.62-.46.77-.14.08,1-2.1.79-2-.56.37-.48.83-.44.73,0-.09a7.65,7.65,0,0,0,.79-1.9c0-.18-1.58,2.67-1.36,2.18a11.54,11.54,0,0,0,1-2.4c-.16,0,0-.63-.43,0s-.47.45-.26-.26c.17-.55-1.33,2.41-1,1.69a9.73,9.73,0,0,0,.69-1.94.61.61,0,0,1-.36-.11s-.14.09-.47.73-.26.41-.14.05c.56-1.7.18-1.42-.45-.53-.07.1-.36.68-.59,1.17-.37.78-.38.76-.09,0,1-2.59,1-2.71-.13-.51-.21.43-.32.65-.11.08.94-2.53.79-2.4-.58.45a12.22,12.22,0,0,0,.77-2.31c-.07-.06-.81,1.59-1,1.8s.65-1.86.62-2-1.2,2.53-.9,1.64c.36-1.1.56-1.76.46-1.77s-.21,0-.26-.12-.38.35-1.45,3c1.47-4.17,1.33-4.24-.29-.37,1.33-3.94,1.21-4-.4-.11a22.24,22.24,0,0,0,.84-2.71c-.2,0,.08-1.48-.91.75-.09.2-.15.33-.06,0,.64-2.24.24-1.48-.77,1.18a13.05,13.05,0,0,0,.67-2.53c-.13,0-.08-.68-.45,0s-.39.46-.32-.14-.07-.69-.4-.08-.42.57-.33-.14-.05-.8-.39-.11-.39.49-.35-.09-.07-.74-.37-.13-.4.55-.36-.11-.23-.15-.34-.22-.27.46-.69,1.93c-.28,1-.26.84-.07,0,.62-2.84.48-2.88-.34,0-.27.94-.24.76-.05-.11a7.62,7.62,0,0,0,.31-2c-.06-.18-.9,3-.8,2.41a14.76,14.76,0,0,0,.36-2.52c-.14.06-.15-.5-.4.08s-.43.88-.33-.16c0,0,0,0,0,0s-.61,2.2-.63,2.08.36-2.21.27-2.17-.19-.55-.46.09-.33.56-.32-.08-.15-.76-.42-.09-.33.58-.34,0-.15-.84-.41-.1-.32.5-.35-.11-.16-.71-.39,0-.34.52-.38-.1-.23-.21-.36-.17-.05.08-.09.18Z" style="fill:#382d15;"/><path d="M191.57,455a.28.28,0,0,0,0,.15c.13.15.16.66.49.05s.47-.62.39.14.24.13.33.28.39-.42,1.29-3c-.83,3.07-1.07,4.25-.39,2.49s.72-1.67.24.09,0,.78,1.09-2a13.48,13.48,0,0,0-.74,2.89c.16,0,.14.58.52,0s.44-.46.37.12.08.73.49.14.51-.6.36.16.22.17.29.37.41-.33,1.52-2.84c-1.48,4.11-1.35,4.14.47.26-1.61,4.25-1.16,3.7.52.16a24.41,24.41,0,0,0-1,2.73c.21.16-.17,1.56,1.09-.63.15-.26.09-.08,0,.15-.61,1.77-.45,1.56,1-1.09A12.87,12.87,0,0,0,199,458a3.66,3.66,0,0,1,.46.21c.06,0,.32-.38.74-1.14s.45-.78.15-.08c-.9,2.14-.71,2,.63-.35.47-.84.44-.73.05.1a6.9,6.9,0,0,0-.74,1.93c0,.19,1.61-2.64,1.41-2.15a10.6,10.6,0,0,0-.93,2.41c.18,0,0,.65.49,0s.54-.41.31.29c-.18.54,1.49-2.32,1.18-1.61a9,9,0,0,0-.77,1.92.81.81,0,0,1,.41.18s.16-.07.55-.67.31-.38.17,0c-.68,1.66-.27,1.42.51.63.09-.09.45-.63.75-1.08.47-.72.48-.7.1,0-1.33,2.46-1.3,2.57.13.57.28-.39.42-.59.13-.06-1.28,2.38-1.12,2.26.73-.3a11,11,0,0,0-1.11,2.17c.07.08,1.1-1.41,1.31-1.59s-1,1.72-.95,1.9,1.7-2.24,1.24-1.4c-.56,1-.88,1.64-.78,1.67s.23.05.26.2.47-.24,2.14-2.51c-2.37,3.73-2.28,3.81.31.5-2.25,3.49-2.17,3.54.47.28a20,20,0,0,0-1.53,2.39c.21.13-.47,1.43,1.19-.38.15-.16.25-.26.08,0-1.28,2-.66,1.35,1.18-.83a11.54,11.54,0,0,0-1.42,2.2c.13.11-.12.7.47.21s.56-.26.3.29-.15.69.4.26.65-.34.31.29-.25.79.36.31.59-.25.32.28-.22.73.33.33.65-.29.32.3.16.27.25.4.47-.26,1.56-1.34c.73-.72.64-.6.07.06-1.89,2.21-1.8,2.3.34.27.71-.67.6-.54,0,.13a6.77,6.77,0,0,0-1.26,1.61c0,.19,2.32-2.08,2-1.64a13.87,13.87,0,0,0-1.58,2c.17,0-.12.54.42.2s.87-.46.23.36c0,0,0,0,0,0s1.74-1.48,1.71-1.35-1.52,1.64-1.41,1.67-.12.58.48.23.62-.23.24.31-.31.73.32.38.65-.22.29.28-.38.77.31.38.59-.14.23.36-.33.67.32.32.63-.12.26.38.05.33.19.41.15-.08.18-.09l8.41-6.69s0,0,0-.06c0-.22.19-.69-.46-.41s-.77.21-.31-.41-.17-.29-.18-.49-.59.09-2.73,1.81c2.33-2.19,3.1-3.11,1.59-2s-1.49,1.06-.21-.23.37-.71-2,1.15a10.44,10.44,0,0,0,2-2.2c-.14-.14.1-.65-.52-.34s-.63.16-.33-.35.18-.75-.47-.41-.75.3-.32-.35-.17-.29-.18-.52-.55.09-2.54,2c2.93-3.25,2.74-3.38-.39-.44,3-3.38,2.32-3.11-.47-.36a18.76,18.76,0,0,0,1.85-2.25c-.17-.25.57-1.52-1.33.13-.23.2-.11,0,0-.15,1.09-1.52.84-1.39-1.3.72a9.93,9.93,0,0,0,1.49-2.08,5.5,5.5,0,0,1-.48-.4c-.06-.05-.42.27-1,.89s-.63.64-.18,0c1.38-1.87,1.13-1.84-.73.14-.66.7-.6.61,0-.12.86-1.12,1.13-1.58,1.12-1.73s-2.18,2.21-1.87,1.78c.75-1.08,1.53-2.18,1.36-2.21s.07-.68-.55-.18-.64.27-.32-.4-1.85,2-1.45,1.38c.51-.82,1.13-1.77,1-1.81a1.23,1.23,0,0,1-.47-.29s-.19,0-.66.58-.36.33-.19,0c.82-1.61.31-1.47-.56-.78a12.92,12.92,0,0,0-.84,1c-.53.68-.54.66-.12,0,1.49-2.36,1.41-2.51-.15-.61-.3.37-.46.56-.15,0,1.37-2.33,1.17-2.25-.79.24a8.62,8.62,0,0,0,1.14-2.16c-.08-.1-1.16,1.36-1.37,1.53s1-1.72.93-1.92-1.73,2.21-1.28,1.38c.54-1,.83-1.66.71-1.7s-.28-.07-.33-.23-.52.22-2.09,2.56c2.18-3.85,2-4-.37-.52,2-3.65,1.84-3.75-.53-.28a15.46,15.46,0,0,0,1.27-2.53c-.26-.12.19-1.53-1.27.44-.13.17-.22.29-.09,0,1-2.12.41-1.47-1.11.94a9.17,9.17,0,0,0,1-2.41c-.18-.1-.07-.75-.61-.18s-.55.33-.43-.27-.06-.75-.54-.23-.6.44-.44-.27,0-.85-.53-.25-.56.37-.48-.22-.05-.8-.5-.27-.59.43-.48-.24-.3-.23-.46-.34-.4.39-1.08,1.76c-.45.92-.41.78-.1,0,1-2.72.84-2.8-.47-.16-.43.88-.38.71-.06-.13a5.41,5.41,0,0,0,.56-2c-.08-.2-1.43,2.76-1.26,2.22a10.48,10.48,0,0,0,.66-2.47c-.2,0-.18-.56-.57,0s-.66.76-.45-.27c0,0,0,0,0,0s-1,2.06-1,1.93.65-2.14.52-2.14-.22-.62-.64,0-.5.48-.45-.18-.16-.82-.58-.22-.5.49-.48-.13-.14-.89-.56-.22-.49.42-.49-.2-.17-.76-.54-.12-.52.43-.54-.21-.3-.27-.49-.26c0,0-.08.06-.14.16Z" style="fill:#382d15;"/><path d="M1022.68,702.17c-4.23,4.92-6.45,10.21-8.31,11.38-5.41,3.42-10.08,6.07-15.88,11.86-3.54,3.57-7.33,7.08-11,10.62s-7.15,7.12-10.18,10.72c-3.15,3.83-6.28,7.26-9.49,10.51s-6.43,6.4-9.9,9.54a25.73,25.73,0,0,0-5.5,7.54c-1.3,2.41-2.39,4.56-4.27,6.05-2.34,1.83-4.49,3.54-6.67,5.43a63.06,63.06,0,0,0-6.65,6.66l-9.66,11.72c-3.19,3.93-6.26,8-9.41,11.95a42.73,42.73,0,0,0-3,4.3,24.25,24.25,0,0,0-2.1,4.06c-1.16,3.07-2.71,4.49-5.14,7.21a163.3,163.3,0,0,0-19.62,28.45c0-.84-.09-1.7-.15-2.59a52.3,52.3,0,0,0,3-6.33,48.33,48.33,0,0,0,2.15-8.48,38.15,38.15,0,0,0,.5-4.68c.06-1.44,0-2.78-.08-4.06a53.17,53.17,0,0,1-.15-7.37,34.77,34.77,0,0,1,1.77-7.24,48.58,48.58,0,0,0,2.18-9,39.17,39.17,0,0,0-.41-9.71,40.3,40.3,0,0,1-.39-4,13,13,0,0,1,.33-3.82c.77-3.1,1.42-6.08,1.93-9.16a90.37,90.37,0,0,0,.91-9.84c.17-3.75.24-7.5.34-11.25l.32-11.23c.32-9.49-.3-17.67-3.08-22.48,4.39-11.88,4.34-22.14,0-34.56.37-1.14.7-2.24,1-3.32l.09-.08-.07,0c.24-.87.47-1.73.66-2.56l2.76-11.88L888.85,686c-7.13,6.4-11,13.15-14.8,25a24.86,24.86,0,0,0-8.87,8.18c-9,13.66-19.39,27.13-25.46,42a10.19,10.19,0,0,1-1.95,3.37,48.64,48.64,0,0,0-12.87,25.55,36.11,36.11,0,0,0-9.16,11.95c-5.21,10.34-10.82,21.07-14.32,31.58-3.18,9.61-6.33,17.59-10,26.87a148.79,148.79,0,0,0-8.55,31.9c-.32,2.21-.63,4.34-.95,6.44-2.79-9-4.88-17.08-7.06-26.2a181.2,181.2,0,0,0-10.21-30.29c-2.2-4.78-4.08-9.36-6-13.92s-3.65-9.18-5.41-14.11c-3.51-9.38-8.57-18.93-13.37-28.19a56.72,56.72,0,0,0-4.39-7.36,23,23,0,0,0-4.57-5,6.31,6.31,0,0,1-2.44-3.07c0-.25.1-.49.14-.76l.19-1.27-.84.16-.09-.44q-.27-1.32-.63-2.64l-2.87-10.56-5,12a45.57,45.57,0,0,0-3.23,12.64,43.08,43.08,0,0,0,.62,13c.65,3.08.38,4-.74,6.16-1.8,3.35-2.68,8.26-3.32,14.1a40.57,40.57,0,0,0,.7,10.69c.55,3,1.13,5.42.76,7.05-.67,3-1.47,5.71-2,8.65a50.25,50.25,0,0,0-1.11,10.1c0,5.06-.21,10.21-.17,15.31s.14,10.14.58,15,1,9.75,1.22,14.49.41,9.44.33,14.26c0,.26,0,.57.07.86a31.11,31.11,0,0,0,1.8,8.06,25.39,25.39,0,0,1,1.74,6.39c.29,4.15-.79,7.7-.57,12.86a35.59,35.59,0,0,0-8.86-4,63.54,63.54,0,0,0-14.52-2.22c-4.63-.23-9.15-.15-13.93-.09-5.59.07-11.29.48-16.83.7a119.87,119.87,0,0,1-16-.29c-1.22-.12-2.41-.29-3.57-.49a16.15,16.15,0,0,0-6.12-3.28,25.86,25.86,0,0,0-3.3-.73l-1.41-.2c-.43,0-.66-.11-.46.05l-4.6,9.92a37.13,37.13,0,0,0,8.51,1.89,10.91,10.91,0,0,1,1.41.68,9,9,0,0,1,1.92,1.51,8,8,0,0,1,1.21,1.83l3.6,7.49a142.26,142.26,0,0,0,8.12,14.74c2.89,4.46,5.6,8.64,8.53,12.72a80.1,80.1,0,0,0,10.22,11.87,42.53,42.53,0,0,0,6.84,5.21,16.53,16.53,0,0,0,1.88,1.1l1.9,1a35.62,35.62,0,0,0,3.87,1.79q2,.78,4,1.52t4,1.15a37.36,37.36,0,0,0,4,.89c1.32.23,2.62.52,3.9.65,5.78.75,11.17,1.11,16.52,1.49s10.64.51,16.15.62c10,.18,20.33-1.23,30.26-2.22.95-.09,1.81-.34,2.7-.45,1.16,0,2.38-.07,3.64-.17,11-.81,22.53-.88,33.18-2.09a216.89,216.89,0,0,1,28.28-1.48c8.72.11,18.36-1.24,27.59-2.14s17.12-2.75,21.82-6.37c8.94,1.7,19.43.52,26-3.39,6.33-3.74,9.63-4.88,16.87-5.74,7.08-.87,15.29-5.71,22.88-14a27.93,27.93,0,0,0,3.37-.73,34.57,34.57,0,0,0,3.62-1.36q1-.42,2-.92c.65-.36,1.32-.76,2-1.2a42.93,42.93,0,0,0,4.31-3.09c4.45-3.67,8.88-7.51,13-11.56a113.76,113.76,0,0,0,11.3-12.73l8.21-11,4-5.39,1-1.37c.18-.25.33-.42.54-.73l.63-.91c.73-1.14,1.39-2.24,2-3.33a157.44,157.44,0,0,0,7.53-15.73c2.26-5.33,4.34-10.69,6.28-15.71a83.78,83.78,0,0,1,3.59-8.18,30.25,30.25,0,0,1,2-3.44c.16-.23.31-.45.46-.63l.94-.33-.22-.5,0,0c.06-.06.09-.05.13-.09l0,0h0l-.06-.09-.07-.08-.27-.31a5.05,5.05,0,0,1-.45-.69l-.31-.69-.05-.12-2.47-7-.58.25h0l-.24-.54-.47.22a8.93,8.93,0,0,0-.93.55,6.23,6.23,0,0,0-.72.56l-.37.33c-1.61.65-3.26,1.29-5,1.94-8.15,3.06-16.62,8.07-24.8,12.4-8.68,4.59-15.54,9.46-18.58,14.57-9.85,2.13-17.59,6.42-23.73,13,.08-.48.15-1,.21-1.4,2.7-1.94,5.87-3.92,8.54-8.49,2.12-3.6,4.4-7.15,6.55-10.77s4.33-7.24,6.41-10.89,4-7.4,5.72-11.14a106.47,106.47,0,0,0,4.54-11.45,12.93,12.93,0,0,1,2.2-4,71.58,71.58,0,0,0,7.38-12.56,55.37,55.37,0,0,0,3.22-12.89,45.94,45.94,0,0,0,8.56-13c2.23-5.33,4.49-10.65,6.66-16l3.19-8.06,1.59-4,1.52-4.06A38.14,38.14,0,0,0,1013,762a11,11,0,0,1,2.17-6.58,58.36,58.36,0,0,0,3.55-6.31,49.75,49.75,0,0,0,2.43-6.33,44.07,44.07,0,0,0,1.45-6.36A39.53,39.53,0,0,0,1023,730c-.06-3.06.34-4,1.88-5.88,2.42-2.91,4.23-7.54,6-13.14a32.07,32.07,0,0,0,.85-3.48l3.82-20.26Z" style="fill:#5020ee;"/><path d="M749.94,901.93l0-.22c0-.17-.07-.34-.13-.51a4.93,4.93,0,0,0-.44-1,5.59,5.59,0,0,0-1.34-1.53l-1.07,2.44h0l1.07-2.44a11.31,11.31,0,0,0-3,.5,11.74,11.74,0,0,0-1.68.69l-.93.52-1.77,1c-1.13.73-2.3,1.42-3.37,2.22a44.59,44.59,0,0,0-6,5c-3.23,3.3-5.95,6.16-9.29,9.27a64.74,64.74,0,0,0-6,6.86,16.9,16.9,0,0,0,1-9.72,12.76,12.76,0,0,1,.06-8c.85-3.11.21-7.19-1.64-11.92a15.14,15.14,0,0,0,.8-7.52c-.48-4.31-.94-8.74-1.82-12.9l-1.22-5.75-3.61,4.35c-.53.63-1,1.26-1.52,1.89-2.64,3.47-5,6.37-7.74,9.77A61.57,61.57,0,0,0,692,898.45c-1.74,4-3.25,7.26-5.23,11.12a57.27,57.27,0,0,0-3.41,9,18.77,18.77,0,0,0-3.85-7.2c.6-5.35-2.3-12.15-5.64-14.76a10.67,10.67,0,0,0-.84-5.47c-3.17-6.94-6.32-14.27-11.33-19.85a6.18,6.18,0,0,1-1.06-1.8c-2.29-5.23-3.74-7-7.72-10a18.39,18.39,0,0,0-3.29-6.33c-1.69-2-3.34-4.11-5.12-6.07-.88-1-1.74-2-2.64-3l-2.73-2.88c-.48-.51-1-1-1.43-1.38l-3.17-2.76-1.17,3.51a14.12,14.12,0,0,0-.69,3,4.82,4.82,0,0,1-1.19,2.94,18,18,0,0,0-3.95,11.52,3,3,0,0,1-.9,2.67,16.76,16.76,0,0,0-2.81,6,18.15,18.15,0,0,0-.53,5,9.41,9.41,0,0,1-.1,3.11,28.06,28.06,0,0,0-2.94,8.64c-.31,2.3-.77,4.64-1,7-.14,1.16-.3,2.31-.38,3.45s-.11,2.25-.1,3.34c0,2.28,0,4.41-.12,6.51s-.22,4.16-.44,6.3c-.22,3.36,1.43,5.43,1.19,7.59,0,.27-.07.53-.11.8-1.13-1.45-2.26-2.9-3.41-4.32a15.19,15.19,0,0,0-3.12-3.17,8.79,8.79,0,0,1-2.59-3.06,98,98,0,0,0-15.45-17.65,6.9,6.9,0,0,0-2.09-1.27c-1-.37-1.26-.69-1.8-1.82-1.93-4-4.34-6.49-8.58-8.94a4,4,0,0,1-1.85-1.71c-2.95-4.72-5-6.52-10-8.93a19.5,19.5,0,0,0-3.48-4.67L564,860.18l-1.54,4c-.15.38-.29.8-.44,1.24a17.83,17.83,0,0,0-.77,3.92,22.48,22.48,0,0,1-.36,3.35c-.5,2.12-2,3.92-2.89,7.07a16.43,16.43,0,0,0-.33,4.44,8.53,8.53,0,0,1-.34,3.58,30.68,30.68,0,0,0-1.35,4.07,28.84,28.84,0,0,0-.84,4.45c-.41,3.42-.69,6.86-.94,10.29a31.19,31.19,0,0,0,0,6,10,10,0,0,0,1.32,4.36c-2.22,5.44-1.92,10.31.69,15.79a27.92,27.92,0,0,0-.7,3.69,17.52,17.52,0,0,0,0,2.29c-2.46-2.36-4.93-4.77-7.55-7a46.13,46.13,0,0,0-9.3-6.28,4.58,4.58,0,0,1-1.47-1,19.32,19.32,0,0,0-11.4-6.43,13.24,13.24,0,0,0-2.13-2.29,15.7,15.7,0,0,0-3.19-2.12c-2.89-1.53-5.89-3.05-8.88-4.4l-.16.36h0l-.16.35-.84,1.91h0l-1.09,2.49-.05.14s0,0,0,0h0s0,0,0,0,.13.09.21.19.18.2.28.31l.3.41a19.46,19.46,0,0,1,1.22,2.08,26.83,26.83,0,0,1,2.11,5.71,55.08,55.08,0,0,1,1.19,6.15,121.08,121.08,0,0,0,2.83,14.46c.64,2.25,1.13,4.33,1.87,6.61l.33.9.33.77.65,1.55.64,1.6.74,1.61a37.65,37.65,0,0,0,9,12.47c3.64,3.23,6.79,6,10.58,8.84a47,47,0,0,0,13.15,7l13.25,4.43a82.41,82.41,0,0,0,14,2.9,15.64,15.64,0,0,0,7-.15,3.05,3.05,0,0,1,2.8.27,17.94,17.94,0,0,0,12.9.7,3.05,3.05,0,0,1,2.82.1,16.92,16.92,0,0,0,6.53,1c3.7,0,6.47-1.73,8-1.51,2.78.4,5,1,8.6.77,4.53-.34,9.26-.35,13.61-1a78.46,78.46,0,0,1,13-1,3.31,3.31,0,0,0,.39,0c2.94-.28,4.6-1.61,6.53-1.81,2.22-.19,4.08.6,7.18.12,5.21-.86,10.65-1.65,15.51-3.27,2-.72,4-1.29,5.85-1.93l2.89-.88c1-.32,2-.62,3-.92a38.46,38.46,0,0,0,3.72-1.27c1.25-.47,2.51-1,3.75-1.58a48.66,48.66,0,0,0,7-4.07c3.67-2.66,6.79-4.92,10.34-7.77a39,39,0,0,0,10.16-12.12c2.25-4.35,4.1-8,6.09-12.29A52.76,52.76,0,0,0,744,930.18c.19-1.26.39-2.49.6-3.69l.31-1.79c.11-.62.21-1.07.34-1.62.55-2.14,1.36-4.34,2.21-6.65a50.11,50.11,0,0,0,2-6.7A24.28,24.28,0,0,0,749.94,901.93Z" style="fill:#fff;"/></g></g></svg>