<?xml version="1.0" encoding="utf-8"?>
<!-- Generator: Adobe Illustrator 16.0.0, SVG Export Plug-In . SVG Version: 6.00 Build 0)  -->
<!DOCTYPE svg PUBLIC "-//W3C//DTD SVG 1.1//EN" "http://www.w3.org/Graphics/SVG/1.1/DTD/svg11.dtd">
<svg version="1.1" id="Calque_1" xmlns="http://www.w3.org/2000/svg" xmlns:xlink="http://www.w3.org/1999/xlink" x="0px" y="0px"
	 width="350.282px" height="282.979px" viewBox="348.763 20.118 350.282 282.979"
	 enable-background="new 348.763 20.118 350.282 282.979" xml:space="preserve">
<defs>
	<path id="SVGID_1_" d="M358.911,76.484c24.888-42.95,222.197-75.866,276.569-43.011c54.37,32.855,92.984,115.806,33.944,214.382
		c-59.042,98.577-161.671,41.744-207.054,8.699C416.988,223.511,316.69,149.337,358.911,76.484z"/>
</defs>
<clipPath id="SVGID_2_">
	<use xlink:href="#SVGID_1_"  overflow="visible"/>
</clipPath>
<ellipse clip-path="url(#SVGID_2_)" fill="#F9F8F2" cx="575.577" cy="161.608" rx="251" ry="194.536"/>
<title>noMessage</title>
<g id="Layer_2" clip-path="url(#SVGID_2_)">
	<g id="Layer_1-2">
		<path fill="#5020EE" d="M565.379,303.097h133.666c-0.713-1.621-6.861-66.977-8.619-69.516c-2.037-2.876-4.672-5.28-7.721-7.047
			c-2.758-1.618-5.352-3.501-7.744-5.622c-2.781-2.345-6.102-3.96-9.664-4.698c-2.432-0.437-4.645-0.876-6.995-1.264
			c-0.089-0.045-0.173-0.095-0.263-0.138l-3.25-1.691l-1.645-0.83l-1.691-0.72c-2.234-0.987-4.518-1.855-6.844-2.6l-3.367-1.12
			c-1.143-0.313-2.287-0.571-3.414-0.838l-2.796-0.666c-0.916-0.211-1.832-0.368-2.725-0.563l-2.662-0.572l-1.315-0.298l-1.315-0.25
			c-1.755-0.336-3.501-0.728-5.286-1.12s-3.609-0.736-5.481-1.182c-7-1.527-15.058-1.668-22.591-2.036
			c-7.986-0.392-14.814,0.18-19.035,2.498c-9.171-3.041-19.162-2.427-27.892,1.715c-4.464-1.441-9.851-1.762-14.878-1.378
			s-9.772,1.52-13.014,3.132c-1.323-0.545-2.675-1.019-4.049-1.417c-1.723-0.5-3.508-0.75-5.301-0.744l-4.965-0.165l-4.965-0.345
			c-3.59-0.301-7.197-0.32-10.79-0.055c-6.976,0.468-13.809,2.192-20.171,5.09c-1.154,0.548-2.389,0.905-3.657,1.057
			c-4.037,0.641-7.956,1.879-11.628,3.672c-1.955,1.043-3.782,2.296-5.491,3.696c-1.403-0.309-2.879-0.186-4.226,0.376
			c-3.473,1.641-6.775,3.621-9.858,5.912c-1.05,0.717-1.821,1.773-2.185,2.991c-0.001,0.011-0.005,0.021-0.006,0.032
			c-0.656,0.507-1.312,1.015-1.953,1.54c-2.925,0.606-4.772,2.237-5.404,4.792c-0.822,0.791-1.632,1.593-2.424,2.414
			c-0.076,0.079-0.145,0.164-0.22,0.243c-1.154,0.285-2.217,1.026-3.241,2.044c-0.978,0.974-1.29,2.369-1.496,3.513
			c-0.596,0.783-1.167,1.585-1.728,2.395c-1.633,0.66-3.128,1.364-4.419,3.074c-1.918,2.537-4.37,4.894-5.623,7.643
			c-1.236,2.676-2.968,5.094-5.105,7.125c-1.628,1.637-0.266,4.268-1.566,5.152c-1.621,1.104-3.226,1.903-4.377,3.767l-5.012,7.995
			c-0.622,0.859-0.971,1.884-1.002,2.944c0.071,1.19-0.517,1.566-1.347,2.404c-3.915,3.821-6.319,8.778-8.081,13.946
			c-0.146,0.638,0.313,3.046-0.626,3.477C376.514,301.459,565.379,303.097,565.379,303.097z"/>
		<path fill="#F2D525" d="M612.952,104.09c-1.148-2.54-2.119-5.157-2.905-7.831c-0.946-2.919-2.798-5.462-5.286-7.259
			c-2.732-1.832-4.862-3.665-7.517-5.481c-2.404-1.684-5.481-2.349-8.363-2.788c-0.261-0.013-0.521-0.013-0.782,0
			c-0.34-0.111-0.688-0.192-1.042-0.243c-1.602-0.244-3.219-0.377-4.839-0.399c-1.562-0.042-3.119,0.184-4.604,0.666
			c-1.22,0.422-2.468,0.757-3.735,1.002c-1.257,0.307-2.543,0.475-3.837,0.501c-2.411,0.196-4.8,1.433-7.109,2.35
			c-0.57,0.217-1.123,0.479-1.652,0.783c-0.475,0.307-0.909,0.673-1.292,1.088c-0.771,0.833-1.223,1.912-1.276,3.046
			c-3.132-1.033-6.132-0.274-6.789,2.146c-0.17,0.855-0.59,1.64-1.206,2.255c-0.714,0.499-1.572,0.749-2.443,0.712
			c-0.555,0.028-1.094,0.198-1.565,0.494c-0.465,0.336-0.846,0.776-1.112,1.284c-0.327,0.601-0.569,1.244-0.721,1.911
			c-0.09,0.382-0.16,0.769-0.211,1.159c-0.037,0.423-0.058,0.864-0.062,1.323c-0.824-0.061-1.652,0.042-2.436,0.306
			c-0.849,0.281-1.582,0.831-2.091,1.566c-1.809,2.443-3.86,4.941-4.737,7.831c-0.358,1.168-0.787,2.313-1.284,3.43
			c-0.465,1.131-1.025,2.221-1.676,3.257c-0.743,1.384-1.345,2.84-1.793,4.346c-0.364,1.526-0.579,3.084-0.643,4.651
			c0.104,2.347-0.248,4.692-1.033,6.906c-0.783,2.177-0.532,4.738-0.783,7.048c-0.298,2.49,0.102,4.62,2.185,6.045
			c-3.555,2.929-3.633,5.599-0.438,8.613c-3.68,2.498-3.445,6.264-0.618,8.613c-1.104,0.658-2.412,1.269-2.6,2.592
			c-0.58,4.174-2.216,8.199-0.916,12.412c0.122,0.391,0.009,0.817-0.29,1.096c-1.942,2.748-1.974,3.86-0.212,6.859
			c-1.236,0.783-2.419,1.566-2.826,3.132c-0.66,2.627-1.506,5.205-2.529,7.713c-0.184,0.437-0.276,0.905-0.274,1.378
			c-0.012,0.464,0.062,0.926,0.22,1.362c0.258,0.744,0.258,1.12-0.619,1.48c-1.082,0.353-2.018,1.052-2.662,1.989
			c-0.117,0.209-0.206,0.433-0.267,0.666c0,0.125-0.055,0.243-0.078,0.375c-0.023,0.133-0.07,0.306-0.094,0.47
			c-0.113,0.687-0.113,1.388,0,2.075c0.172,1.049,0,1.229-0.939,1.347c-1.449,0.18-2.482,1.159-3.344,2.529
			c-0.453,0.98-0.556,2.086-0.29,3.132c0.188,0.987,0.438,1.762,0.11,1.989c-0.777,0.539-1.511,1.139-2.192,1.793
			c-0.694,0.722-1.193,1.608-1.449,2.576c-0.682,2.662-1.762,5.481-1.487,8.073c0.255,2.513,0.056,5.051-0.588,7.494
			c-0.462,1.973,2.2,3.132,1.645,4.354c-0.649,1.566-1.456,2.937-1.183,4.886c0.405,2.763,1.023,5.491,1.849,8.159
			c0.22,0.937,0.777,1.759,1.565,2.31c0.964,0.556,0.861,1.175,1.026,2.2c0.357,2.436,1.31,4.746,2.771,6.727
			c1.486,2.017,3.348,3.729,5.481,5.042c0.553,0.259,1.179,0.317,1.77,0.165c0.877-0.18,1.058,0,1.276,0.9
			c0.783,3.132,2.623,4.471,6.006,4.048c0.65-0.07,0.932-0.141,1.339,0.611c0.956,1.621,1.896,2.553,3.022,2.976
			c1.128,0.423,2.545,0.165,4.386-0.47c0.175,0.336,0.369,0.663,0.579,0.979c0.216,0.297,0.46,0.572,0.729,0.822
			c0.568,0.586,1.27,1.026,2.044,1.284c0.808,0.21,1.662,0.152,2.435-0.164c0.657-0.279,1.355-0.446,2.067-0.494
			c0.328,0.025,0.643,0.142,0.908,0.337c0.322,0.202,0.631,0.424,0.924,0.666c0.668,0.6,1.476,1.022,2.35,1.229
			c1.018,0.211,1.902-0.368,2.662-0.783s1.417-0.783,2.099-0.415c0.789,0.437,1.631,0.769,2.506,0.987
			c0.432,0.108,0.872,0.184,1.315,0.227c0.463,0.063,0.932,0.063,1.394,0l3.062-0.407c1.019-0.133,2.021-0.392,3.038-0.54
			c0.621-0.092,1.231-0.242,1.825-0.447c0.538-0.219,1.049-0.503,1.519-0.846c0.936-0.66,1.569-1.666,1.762-2.795
			c0.891,0.482,1.857,0.806,2.858,0.956c0.812,0.143,1.646,0.036,2.396-0.306c0.73-0.362,1.36-0.9,1.832-1.566
			c0.271-0.384,0.504-0.793,0.697-1.222c0.206-0.508,0.371-1.031,0.493-1.566c2.208,0.501,3.962,0.438,5.113-0.533
			c1.15-0.971,1.973-2.529,2.192-5.058c0.654,0.167,1.33,0.236,2.004,0.204c0.336-0.022,0.666-0.096,0.979-0.219
			c0.297-0.146,0.562-0.348,0.783-0.595c0.782-0.83,1.565-1.566,2.349-2.404s1.527-1.684,2.239-2.561
			c0.689-0.895,1.28-1.861,1.763-2.882c0.502-1.027,0.805-2.141,0.893-3.281c0-0.407,0.078-0.712,0.47-0.932
			c0.694-0.362,1.302-0.873,1.777-1.496c0.42-0.537,0.729-1.152,0.908-1.809c0.179-0.654,0.202-1.34,0.07-2.004
			c-0.129-0.726-0.36-1.43-0.688-2.091c1.536-0.458,2.723-1.684,3.132-3.234l0.329-1.151l0.266-1.182l0.541-2.349
			c0.135-0.777,0.219-1.562,0.25-2.349c0.055-0.784,0.028-1.571-0.078-2.349c-0.234-1.292-0.354-2.602-0.36-3.915
			c-0.089-1.304-0.089-2.612,0-3.916c-0.001-1.534-0.174-3.062-0.517-4.557c-0.212-0.783-0.462-1.488-0.736-2.2
			c-0.251-0.714-0.582-1.397-0.986-2.036c-0.376-0.611-0.713-1.198-1.018-1.793c-0.306-0.595-0.549-1.19-0.87-1.762
			c-0.595-1.202-1.09-2.451-1.479-3.735c-0.97-2.762-2.621-5.234-4.8-7.188c-1.882-1.641-3.411-3.647-4.495-5.896
			c-1.163-2.305-2.674-4.418-4.479-6.265c-0.854-0.821-1.588-1.759-2.177-2.788c-0.268-0.505-0.498-1.028-0.689-1.566
			c-0.217-0.537-0.375-1.096-0.47-1.668c-0.109-0.552-0.264-1.094-0.462-1.621c-0.149-0.541-0.329-1.065-0.532-1.566
			c-0.207-0.511-0.383-1.034-0.525-1.566c-0.176-0.532-0.312-1.076-0.407-1.629c-0.062-0.627-0.266-1.232-0.595-1.77
			c-0.329-0.56-0.788-1.033-1.339-1.378c-0.783-0.517-0.721-0.783-0.062-1.41c2.349-2.114,2.435-4.134,0.571-6.585
			c-0.634-0.83-0.407-1.042,0.376-1.37c0.564-0.241,1.074-0.595,1.495-1.042c0.384-0.449,0.703-0.95,0.948-1.488
			c0.169-0.389,0.224-0.818,0.156-1.237c-0.044-0.438-0.128-0.87-0.251-1.292c-0.242-0.854-0.375-1.566,0-1.793
			c1.434-0.783,4.354-2.592,5.396-3.908c1.37-1.707-10.111-14.24-8.647-15.995c2.767,3.231,15.518,9.649,17.777,8.877
			c0.066-0.033,0.127-0.075,0.181-0.125c1.37-0.932,1.097-3.022,2.021-3.617c1.057-0.697,2.881,0,4.275-1.292
			c2.302-2.106,5.042-4.291,6.405-7.259c1.051-2.329,2.254-4.586,3.602-6.758c1.687-2.758,2.555-5.938,2.506-9.169
			c-0.067-2.549,0.118-5.099,0.556-7.611C614.641,110.417,614.264,107.09,612.952,104.09z"/>
		<path fill="#382D15" d="M618.722,96.525c-0.059-0.553-0.174-1.099-0.345-1.628c-0.153-0.532-0.336-1.055-0.548-1.566l-0.587-1.511
			c-0.783-2.02-2.138-3.351-4.581-3.054c0.236-0.692,0.335-1.423,0.29-2.153c-0.051-0.65-0.243-1.281-0.564-1.848
			c-0.573-1.043-1.733-1.623-2.912-1.457c-2.217,0.415-2.749,0.235-3.916-1.566c-0.523-0.833-1.511-1.252-2.474-1.049
			c-1.243,0.316-2.365,0.992-3.227,1.942c-0.666-1.394-1.566-2.451-2.968-2.521c-2.177-0.109-4.416-0.579-6.515-0.086
			c-1.711,0.439-3.503,0.458-5.223,0.055c-2.21-0.469-4.504-0.342-6.648,0.368c-1.633,0.643-3.417,0.798-5.137,0.446
			c-1.723-0.376-3.539,0.353-5.316,0.485c-1.778,0.133-3.414,0.901-4.025,3.187c-2.882-2.959-5.082-2.482-6.468,1.284
			c-2.819-2.999-5.881-1.605-6.429,1.825c-0.877-0.783-1.896-1.746-2.905-1.417c-1.566,0.541-3.273,0.893-4.854,1.566
			c-1.646,0.621-3.027,1.787-3.915,3.305c-0.228,0.399-0.479,0.368-0.854,0.376c-0.609,0-1.217,0.071-1.81,0.211
			c-0.439,0.118-0.841,0.347-1.166,0.666c-0.611,0.595-0.877,1.613-0.979,3.132c-0.632-0.157-1.283-0.225-1.934-0.203
			c-0.659,0.014-1.288,0.277-1.762,0.736c-1.818,1.686-3.456,3.558-4.887,5.583c-0.522,0.725-0.668,1.656-0.392,2.506
			c0.204,0.712,0.204,1.01-0.634,1.292c-2.6,0.861-3.281,2.889-1.879,5.184c0.524,0.783,0.391,0.963-0.438,1.198
			c-1.195,0.347-2.1,1.326-2.35,2.545c-0.108,0.897,0.155,1.799,0.729,2.498c0.509,0.721,0.994,1.237,0.783,1.48
			c-0.565,0.574-1.057,1.216-1.465,1.911c-0.178,0.3-0.31,0.625-0.392,0.963l-0.939-0.282c-0.767-0.138-1.546,0.165-2.021,0.783
			c-0.571,0.525-1.025,1.026-1.526,0.728c-0.6-0.357-1.216-0.684-1.849-0.979c-0.653-0.269-1.368-0.355-2.066-0.25
			c-2.155,0.387-4.272,0.961-6.327,1.715c-0.744,0.195-1.36,0.716-1.676,1.417c-0.337,0.877-0.783,0.822-1.652,0.9
			c-1.902,0.246-3.697,1.025-5.176,2.247c-1.47,1.214-2.682,2.71-3.562,4.401c-0.159,0.492-0.128,1.025,0.086,1.496
			c0.258,0.783,0.133,0.885-0.689,0.939c-2.897,0.235-3.97,1.833-3.233,4.636c0.148,0.548,0.25,0.783-0.415,1.081
			c-2.921,1.394-3.312,3.022-1.48,5.928c-1.206,0.603-2.216,1.401-2.436,2.881c-0.219,1.48,1.198,2.475,1.371,3.484
			c0.172,1.01-1.449,2.013-1.457,3.61c0.169,0.778,0.632,1.459,1.292,1.903c0.58,0.494,1.003,0.916,0.783,1.511
			c-0.261,0.695-0.424,1.422-0.485,2.161c-0.033,0.357-0.033,0.716,0,1.073c0.071,0.361,0.182,0.713,0.329,1.049l0.955,2.24
			c0.376,0.712,0.744,1.425,1.089,2.153c0.369,0.879,0.997,1.625,1.801,2.138c0.858,0.52,1.896,0.653,2.857,0.368
			c-0.642,1.942-0.603,3.492,0.196,4.369c0.445,0.465,1.026,0.778,1.66,0.893c0.384,0.08,0.774,0.119,1.166,0.118
			c0.479-0.014,0.955-0.066,1.426-0.157c-0.181,1.989,0.086,3.414,1.018,4.064s2.35,0.783,4.464,0.172
			c-0.126,1.19-0.103,2.607,0.854,3.132c0.782,0.399,1.472,0.87,2.2,1.339c0.73,0.466,1.491,0.882,2.278,1.245
			c0.392,0.18,0.783,0.352,1.19,0.501c0.411,0.13,0.833,0.227,1.261,0.29c0.878,0.147,1.777,0.124,2.646-0.07
			c0.321-0.086,0.571-0.141,0.783,0.165c0.355,0.521,0.813,0.963,1.347,1.3c0.228,0.14,0.473,0.25,0.729,0.329
			c0.257,0.058,0.52,0.082,0.782,0.071c1.174-0.116,2.258-0.676,3.031-1.566c0.642,1.276,1.495,2.208,2.842,2.302
			c2.396,0.079,4.98,0.525,7.196-0.384c0.478-0.191,0.967-0.351,1.464-0.478c0.463-0.143,0.934-0.258,1.41-0.345
			c0.477-0.085,0.957-0.143,1.44-0.172c0.493,0,0.987-0.094,1.512-0.11c0.574-0.026,1.147-0.086,1.715-0.18
			c0.57-0.132,1.132-0.297,1.684-0.493c1.099-0.385,2.126-0.951,3.038-1.676c1.598-1.31,3.413-2.327,5.363-3.007
			c0.553-0.196,1.078-0.459,1.566-0.783c0.518-0.312,1.015-0.658,1.488-1.033c0.907-0.795,1.675-1.738,2.271-2.788
			c1.043-1.882,2.33-3.617,3.829-5.161c0.804-0.893,1.452-1.915,1.918-3.022c0.235-0.556,0.437-1.126,0.604-1.707
			c0.116-0.573,0.187-1.154,0.211-1.738c0-0.587,0.102-1.143,0.141-1.684c0.032-0.525,0.095-1.048,0.188-1.566
			c0.205-1.057,0.466-2.103,0.783-3.132c0.665-2.091,0.188-4.346,0.094-6.437c-0.009-1.231-0.737-2.344-1.863-2.842
			c-0.846-0.376-0.783-0.58-0.157-1.183c2.044-2.028,1.73-4.048-0.783-5.356c-0.846-0.438-0.735-0.642-0.109-1.167
			c0.86-0.691,1.302-1.778,1.167-2.874c-0.094-1.48-2.772-2.247-2.42-2.92c0.713-1.206,1.785-2.192,1.645-3.555
			c-0.069-0.873-0.069-1.75,0-2.623c0.038-0.839-0.022-1.681-0.18-2.506c-0.103-0.415-0.188-0.83-0.243-1.245
			c-0.043-0.393-0.043-0.789,0-1.182c0.041-0.789,0.354-1.539,0.885-2.122c0,0,0-0.078,0-0.118c0.133-0.438-0.188-0.893-0.493-1.347
			s-0.595-0.908-0.415-1.159c0.18-0.251,0.729-0.337,1.222-0.313s0.939,0.11,1.111-0.078c0.611-0.697,1.966-0.783,3.524-1.566
			c1.428-0.675,3.052-0.812,4.572-0.383c2.146,0.443,4.371,0.316,6.453-0.368c1.659-0.582,3.447-0.695,5.168-0.329
			c2.081,0.447,4.245,0.325,6.264-0.352c1.762-0.621,3.664-0.721,5.481-0.29c2.005,0.401,4.082,0.235,5.998-0.478
			c2.108-0.745,4.326-1.137,6.562-1.159c2.186-0.172,4.362-1.332,6.351-2.639c0.188-0.125,0.306-0.344,0.462-0.478l-2.349-3.477l0,0
			l2.349,3.477c0.274-0.127,0.537-0.279,0.783-0.454l0.861-0.603l0.838-0.697c0.568-0.474,1.093-0.998,1.566-1.566
			c0.503-0.565,0.949-1.179,1.331-1.832c0.325-0.66,0.562-1.36,0.705-2.083c0.454-2.615,0.579-4.651,0.994-7.11
			C618.768,97.623,618.787,97.071,618.722,96.525z"/>
		<path fill="#FF3366" d="M634.837,88.719c-0.345-0.394-0.784-0.693-1.276-0.869c1.777-0.948,2.349-2.568,1.965-3.649
			c-0.383-1.081-1.738-1.699-3.594-1.41c0.744-1.715,0.682-2.944,0.055-3.516c-0.626-0.571-1.863-0.501-3.578,0.298
			c0.321-1.096,0.509-2.349-0.133-2.733c-0.995-0.587-1.88-1.362-2.897-1.879c-1.042-0.61-2.314-0.677-3.414-0.18
			c-0.22,0.102-0.392,0.164-0.478-0.118c-0.337-1.088-0.869-1.566-1.512-1.566c-0.896,0.201-1.685,0.732-2.208,1.488
			c-0.133-1.3-0.446-2.287-1.237-2.475c-1.417-0.345-2.795-1.206-4.275-0.869c-1.209,0.247-2.468,0.014-3.508-0.65
			c-1.229-0.7-2.687-0.881-4.049-0.501c-1.188,0.407-2.495,0.276-3.578-0.36c-1.234-0.674-2.705-0.761-4.009-0.235
			c-1.157,0.465-2.455,0.422-3.579-0.118c-1.229-0.528-2.617-0.557-3.868-0.078c-1.158,0.518-2.482,0.518-3.641,0
			c-1.198-0.485-2.482-0.047-3.728-0.062c-0.736,0-1.37,0.415-1.785,1.621c-0.274,0.783-0.407,0.689-0.736,0
			c-1.104-2.263-2.35-2.247-3.375,0.063c-0.345,0.783-0.462,0.626-0.736-0.071c-0.423-1.096-1.01-1.496-1.699-1.566
			c-0.955-0.118-1.723,2.451-2.113,2.004c-0.783-0.783-1.363-2.036-2.35-1.942c-1.229,0.11-2.537-0.282-3.696,0.274
			c-1.158,0.556-2.286,0.869-3.516,0.157c0,0-0.07,0-0.109,0c-0.783,0-1.128,1.872-1.645,1.84c-0.517-0.032-1.214-1.637-2.052-1.519
			c-1.401,0.211-2.913-0.079-4.189,0.634c-0.971,0.603-2.151,0.766-3.249,0.446c-1.422-0.36-2.929-0.11-4.158,0.689
			c-0.969,0.661-2.163,0.901-3.312,0.666c-1.4-0.296-2.86,0.017-4.017,0.861c-0.989,0.77-2.263,1.073-3.492,0.83
			c-1.311-0.187-2.639,0.183-3.665,1.018c-1.045,0.856-2.394,1.25-3.735,1.088c-1.276-0.063-2.349,0.634-3.547,1.065
			c-0.194,0.075-0.372,0.187-0.524,0.329l1.362,3.955l0,0l-1.386-4.001c-0.073-0.005-0.146-0.005-0.22,0
			c-1.464,0.431-3.327,0.783-4.635,2.349l-1.747,2.177c-0.694,0.847-1.32,1.747-1.871,2.694c-0.534,1.025-0.708,2.2-0.493,3.335
			c0.208,1.018,0.539,2.007,0.986,2.944c0.783,1.738,2.138,2.475,4.174,1.511c-0.457,0.98-0.551,2.09-0.267,3.132
			c0.238,0.664,0.969,1.009,1.632,0.771c0.053-0.019,0.104-0.041,0.154-0.067c1.636-0.587,1.957-0.423,2.129,1.316
			c0.173,1.738,1.841,1.566,3.916-0.157c0,1.425,0.328,2.6,1.3,2.881c1.456,0.431,2.881,1.167,4.354,0.908
			c1.155-0.242,2.36-0.049,3.383,0.541c1.275,0.707,2.78,0.875,4.182,0.47c1.06-0.404,2.25-0.27,3.194,0.36
			c0.979,0.65,2.2,0.29,3.297,0.509c1.096,0.219,2.208-0.165,3.015-2.255c1.175,3.531,2.514,3.594,4.126,0.352
			c1.042,3.633,3.016,3.21,4.166,0.211c0.313,1.042,0.65,2.294,1.284,2.349c2.005,0.149,4.049,1.363,6.053-0.548
			c0.243-0.227,0.36-0.079,0.549,0.117c1.44,1.496,2.052,1.3,3.343-1.025c0.494,1.025,1.003,2.036,1.817,2.028h4.189
			c0.517,0,0.963-0.376,1.315-1.065c0.289-0.564,0.446-0.705,0.838-0.109c1.189,1.816,2.247,1.628,3.202-0.509
			c0.337-0.783,0.454-0.673,0.783,0.039c0.438,1.096,1.049,1.503,1.762,1.566c0.986,0.086,1.73-2.475,2.052-2.067
			c0.783,1.002,1.464,2.036,2.451,1.918c1.213-0.141,2.529,0.345,3.633-0.329c1.025-0.635,2.311-0.677,3.375-0.109
			c0.908,0.384,1.292-2.248,1.895-1.684c0.783,0.697,1.426,1.566,2.271,1.441c1.206-0.149,2.435-0.25,3.641-0.345
			c0.484-0.011,0.91-0.324,1.065-0.783c0.313-0.713,0.579-0.431,1.025-0.165c2.091,1.237,4.189,0.783,6.265-0.282
			c0.234-0.117,0.415-0.642,0.532-1.088c0.181-0.697,0.298-0.705,0.689-0.125c1.394,2.043,2.435,1.965,3.422-0.157
			c0.188-0.415,0.258-0.611,0.673-0.211c1.872,1.785,2.78,1.449,3.562-1.347c0.783,0.861,1.629,1.472,2.521,1.198
			c0.893-0.274,0.909-1.832,1.418-2.263s1.793,0.9,2.74,0.509s0.376-2.733,1.347-2.466c1.076,0.371,2.268,0.144,3.133-0.595
			c0.971-0.912,1.835-1.931,2.576-3.039c0.548-0.76,0.786-1.701,0.665-2.631C635.343,89.45,635.138,89.046,634.837,88.719z"/>
		<path fill="#FF3366" d="M603.171,72.768c0.109-0.783-0.423-1.488-2.6-1.676c3.327-1.222,3.132-2.349-0.313-2.529
			c3.336-1.433,2.521-2.717-0.619-2.474c0.925-0.478,2.052-1.065,1.95-1.472c-0.148-0.634-0.109-1.347-0.282-1.997
			c-0.237-0.791-0.952-1.342-1.777-1.371c-0.273-0.047-0.164-0.172-0.047-0.36c0.924-1.44,0.564-1.801-1.895-1.409
			c0.783-0.783,1.464-1.527,1.197-1.997c-0.485-0.783-0.932-1.566-1.472-2.349c-0.195-0.282-0.673-0.313-1.362-0.094
			c-0.563,0.18-0.721,0.18-0.407-0.368c0.963-1.683,0.368-2.239-1.66-1.292c-0.713,0.329-0.697,0.227-0.282-0.383
			c0.635-0.94,0.674-1.566,0.392-1.935c-0.415-0.563-2.545,0.924-2.388,0.494c0.353-1.088,0.673-2.161,0.109-2.545
			s-1.144-1.41-2.114-1.331c-0.971,0.078-1.566-0.392-1.981-1.245c-0.367-0.681-1.824,1.503-1.895,0.783
			c-0.109-0.877-0.18-1.84-0.783-2.028c-0.783-0.282-1.652-0.478-2.475-0.728c-0.297-0.071-0.618,0-0.947,0.493
			s-0.485,0.29-0.729-0.062c-0.439-0.678-1.161-1.121-1.965-1.206c-0.778-0.005-1.539,0.224-2.185,0.658
			c-0.218,0.308-0.353,0.667-0.392,1.042c-0.141,0.681-0.204,0.666-0.438,0.062c-0.83-2.169-1.566-2.122-2.161-0.133
			c-0.11,0.399-0.142,0.595-0.415,0.164c-0.619-1.01-1.089-1.394-1.434-1.253c-0.344,0.141-0.571,0.885-0.704,2.193
			c-0.564-0.932-1.144-1.66-1.684-1.511c-0.541,0.148-0.423,1.566-0.713,1.903c-0.289,0.336-1.214-1.175-1.848-1.065
			c-0.635,0.109,0,2.412-0.689,1.895c-0.83-0.618-1.503-0.885-1.996-0.579l-0.783,0.47c-0.251,0.167-0.513,0.316-0.783,0.446
			c-0.721,0.313-1.025,1.12,0,3.132c-2.765-2.294-3.618-1.566-2.138,1.48c-2.858-1.778-3.547-1.12-1.832,1.887
			c-0.948-0.571-2.013-1.104-2.271-0.783c-0.407,0.517-1.064,0.861-1.479,1.386c-0.541,0.622-0.614,1.523-0.181,2.224
			c0.087,0.18,0.134,0.313-0.125,0.282c-2.013-0.243-1.824,0.854-0.156,2.419c-1.214-0.297-2.106-0.352-2.35,0.11
			c-0.242,0.462-0.501,0.783-0.728,1.198c-0.266,0.399-0.355,0.888-0.251,1.355c0.213,0.797-0.102,1.642-0.783,2.106
			c-0.719,0.607-0.974,1.604-0.634,2.482c0.368,0.756,0.182,1.666-0.455,2.216c-0.702,0.651-0.841,1.711-0.328,2.521
			c0.457,0.705,0.403,1.625-0.134,2.271c-0.519,0.743-0.519,1.731,0,2.475c0.129,0.179,0.234,0.374,0.313,0.579
			c0.08,0.206,0.131,0.422,0.148,0.642c0.012,0.47-0.068,0.938-0.234,1.378c-0.136,0.478-0.111,0.986,0.07,1.449
			c0.181,0.478,0.407,0.932,0.556,1.401c0.149,0.47,0.783,0.908,2.013,0.673c0.783-0.156,0.783-0.055,0.259,0.478
			c-1.66,1.77-0.893,2.92,1.401,2.059c0.783-0.29,0.689-0.157,0.306,0.462c-0.627,0.979-0.557,1.605-0.204,2.067
			c0.243,0.329,0.908,0.086,1.473-0.196c0.563-0.282,1.033-0.58,1.01-0.321c-0.094,0.963-0.376,2.216,0.29,2.568
			c0.406,0.22,0.799,0.466,1.175,0.736c0.383,0.249,0.836,0.366,1.291,0.337c0.987-0.149,1.739-0.141,2.271,0.854
			c0,0,0.047,0,0.07,0c0.517,0.204,1.276-1.511,1.566-1.347c0.289,0.165,0.273,1.856,0.822,1.926
			c0.908,0.11,1.785,0.705,2.701,0.267c0.647-0.397,1.479-0.314,2.036,0.204c0.735,0.617,1.795,0.666,2.584,0.117
			c0.603-0.463,1.441-0.463,2.044,0c0.733,0.562,1.762,0.53,2.458-0.078c0.589-0.552,1.491-0.595,2.13-0.102
			c0.704,0.446,1.622,0.349,2.216-0.235c0.603-0.608,1.552-0.704,2.264-0.227c0.743,0.337,1.44-0.047,2.138-0.188
			c0.07,0,0.109-0.149,0.172-0.18l-0.571-4.134l0,0l0.571,4.134c0.086,0.047,0.184,0.072,0.282,0.071
			c0.783,0,1.746,0.204,2.45-0.462c0.528-0.635,1.426-0.82,2.162-0.447c0.782,0.337,1.44-0.344,2.192-0.485
			c0.751-0.141,1.261-0.893,0.782-3.022c0.503,0.77,1.211,1.383,2.044,1.77c0.517,0.141,0.822-0.188,0.736-0.979
			c-0.188-1.566,0-1.645,1.315-0.854s1.637-0.525,0.604-2.803c1.174,0.728,2.224,1.034,2.701,0.478
			c0.649-0.846,1.645-1.566,1.629-2.756c-0.009-0.43,0.062-0.857,0.211-1.261c0.177-0.386,0.43-0.732,0.744-1.018
			c0.812-0.746,1.091-1.911,0.705-2.944c-0.409-0.726-0.298-1.634,0.273-2.24C603.532,74.358,603.07,73.52,603.171,72.768z"/>
		<path fill="#5020EE" d="M600.055,67.897c-0.038-0.031-0.085-0.047-0.134-0.047c-0.282,0.055-0.704-0.141-0.665,0.446
			s-0.11,0.712-0.596,0.313c-0.485-0.399-0.399,0.172-0.634,0.196c-0.235,0.023-0.165,0.556,0.696,2.529
			c-1.315-2.114-1.926-2.858-1.44-1.464c0.485,1.394,0.376,1.386-0.384,0.172c-0.76-1.213-0.571-0.383,0.156,1.864
			c-0.642-1.174-1.158-2.036-1.315-1.965c-0.156,0.07-0.649-0.141-0.681,0.446s-0.212,0.603-0.588,0.258
			c-0.375-0.344-0.704-0.29-0.782,0.313c-0.079,0.603-0.188,0.689-0.604,0.204c-0.415-0.486-0.431,0.086-0.681,0.047
			c-0.251-0.039-0.282,0.485,0.25,2.576c-1.347-3.132-1.565-3.085-0.854,0.204c-1.284-3.328-1.456-2.733-0.83,0.282
			c-0.206-0.739-0.503-1.449-0.885-2.114c-0.407,0.063-1.064-0.916-0.971,1.096c0,0.243-0.047,0.102-0.133-0.078
			c-0.635-1.354-0.682-1.135-0.423,1.206c-0.329-0.971-0.65-1.918-0.783-1.872c-0.134,0.047-0.54,0.125-0.783,0.18
			c-0.102,0-0.117,0.407-0.062,1.096c0.047,0.564,0.039,0.712-0.149,0.141c-0.571-1.739-0.728-1.566-0.563,0.587
			c0.055,0.783,0,0.674-0.164,0c-0.274-1.073-0.462-1.472-0.611-1.566c-0.148-0.094,0,2.443-0.117,2.043
			c-0.313-0.994-0.595-2.02-0.783-1.918c-0.188,0.102-0.556-0.376-0.704,0.266c-0.149,0.642-0.392,0.54-0.682,0
			c-0.219-0.415-0.055,2.169-0.234,1.566c-0.228-0.736-0.439-1.613-0.604-1.566c-0.24,0.066-0.487,0.1-0.736,0.102
			c-0.086,0-0.164,0.125-0.18,0.689c0,0.689-0.102,0.392-0.212,0.102c-0.524-1.354-0.908-0.995-1.284-0.125
			c-0.056,0.342-0.082,0.688-0.078,1.034c0,0.673-0.047,0.666-0.141,0.055c-0.345-2.177-0.509-2.232-0.705-0.306
			c0,0.376-0.055,0.572-0.133,0.102c-0.368-2.098-0.493-1.958-0.736,0.525c-0.133-1.034-0.258-1.872-0.423-1.887
			c-0.164-0.016-0.25,1.402-0.376,1.605c-0.125,0.204-0.25-1.566-0.423-1.637c-0.172-0.07-0.305,2.185-0.438,1.449
			c-0.156-0.909-0.289-1.449-0.47-1.433c-0.182,0.053-0.374,0.053-0.556,0c-0.235-0.109-0.438,0.353-0.635,2.553
			c-0.203-3.469-0.423-3.477-0.885-0.211c-0.18-3.25-0.352-3.265-0.9,0c0.057-0.749-0.001-1.501-0.172-2.231
			c-0.415,0-0.744-1.167-1.284,0.705c-0.047,0.165-0.086,0.274-0.102,0c-0.126-1.84-0.399-1.19-0.783,1.018
			c0-1.222,0-2.052-0.188-2.067c-0.289,0-0.532-0.556-0.869,0c-0.336,0.556-0.509,0.376-0.704-0.11
			c-0.196-0.485-0.485-0.556-0.783-0.055s-0.54,0.47-0.721-0.109c-0.18-0.58-0.47-0.674-0.783-0.125
			c-0.312,0.548-0.548,0.368-0.728-0.109c-0.181-0.478-0.447-0.619-0.783-0.141c-0.337,0.478-0.58,0.423-0.783-0.125
			c-0.204-0.548-0.501-0.164-0.783-0.243c-0.282-0.078-0.36,0.337-0.674,1.503c-0.211,0.783-0.219,0.658-0.156,0
			c0.196-2.278-0.039-2.349-0.721-0.109c-0.227,0.736-0.227,0.595-0.141-0.102c0.125-1.096,0.086-1.519-0.039-1.628
			c-0.125-0.11-0.854,2.349-0.846,1.855c0-0.838,0.148-2.043-0.055-2.036s-0.423-0.47-0.783-0.047s-0.642,0.61-0.689-0.235l0,0
			c-0.148-0.086-0.665,1.676-0.782,1.566c-0.118-0.11,0.188-1.754,0-1.746c-0.298,0-0.485-0.509-0.885-0.055
			c-0.399,0.455-0.541,0.353-0.65-0.196c-0.109-0.548-0.423-0.697-0.838-0.235c-0.415,0.462-0.571,0.36-0.681-0.156
			c-0.11-0.517-0.392-0.783-0.783-0.235c-0.392,0.548-0.588,0.266-0.705-0.251c-0.117-0.517-0.36-0.666-0.783-0.195
			c-0.423,0.47-0.634,0.266-0.783-0.267c-0.148-0.532-0.446-0.274-0.704-0.305c0,0-0.086,0.109-0.118,0.133l-2.536,8.026
			c0,0,0,0.047,0,0.055c0.266,0.172,0.462,0.619,0.9,0.196s0.649-0.399,0.743,0.243c0.095,0.642,0.471,0.188,0.689,0.345
			s0.563-0.25,1.292-2.271c-0.47,2.467-0.446,3.438,0.141,2.067c0.588-1.37,0.658-1.3,0.462,0.125
			c-0.195,1.425,0.267,0.682,1.151-1.519c-0.242,1.316-0.368,2.349-0.172,2.349c0.195,0,0.509,0.548,0.924,0.118
			s0.571-0.313,0.721,0.18c0.148,0.493,0.509,0.642,0.932,0.18c0.423-0.462,0.595-0.462,0.712,0.18
			c0.118,0.642,0.479,0.172,0.697,0.352c0.22,0.18,0.563-0.235,1.151-2.302c-0.399,3.414-0.078,3.445,0.9,0.219
			c-0.431,3.532,0.125,3.132,0.932,0.133c-0.151,0.755-0.191,1.528-0.117,2.294c0.438,0.133,0.712,1.339,1.487-0.517
			c0.094-0.227,0.094-0.07,0.109,0.118c0.087,1.48,0.267,1.308,0.933-0.963c-0.055,1.018-0.095,2.021,0.094,2.036
			c0.321,0,0.634,0.094,0.947,0.141c0.117,0,0.274-0.336,0.454-1.002c0.148-0.548,0.204-0.681,0.204-0.078
			c0,1.84,0.273,1.723,0.782-0.345c0.181-0.729,0.196-0.642,0.157,0.07c-0.055,1.104,0,1.566,0.18,1.637
			c0.181,0.07,0.721-2.349,0.736-1.934c0.039,1.034,0.062,2.099,0.298,2.059c0.234-0.039,0.524,0.509,0.854-0.062
			c0.328-0.571,0.556-0.423,0.783,0.18c0.156,0.462,0.532-2.106,0.603-1.496c0.094,0.783,0.148,1.66,0.353,1.637
			c0.281-0.032,0.564-0.032,0.846,0c0.102,0,0.211-0.094,0.32-0.65c0.134-0.673,0.173-0.368,0.251-0.063
			c0.376,1.425,0.893,1.136,1.409,0.329c0.1-0.332,0.165-0.673,0.196-1.018c0.086-0.666,0.117-0.658,0.156-0.039
			c0.157,2.192,0.376,2.255,0.736,0.344c0.07-0.375,0.102-0.563,0.156-0.094c0.259,2.114,0.446,1.981,0.83-0.485
			c0.095,1.034,0.196,1.879,0.392,1.911c0.196,0.031,0.329-1.386,0.462-1.566c0.134-0.18,0.243,1.566,0.446,1.66
			c0.204,0.094,0.345-2.185,0.485-1.449c0.181,0.901,0.345,1.433,0.541,1.41c0.208-0.053,0.426-0.053,0.634,0
			c0.274,0.094,0.493-0.376,0.557-2.584c0.43,3.445,0.782,3.453,0.947,0.165c0.478,3.234,0.783,3.242,0.955-0.079
			c0.141,1.073,0.313,2.208,0.462,2.185c0.454-0.063,1.033,1.033,1.315-0.909c0-0.172,0.047-0.29,0.102-0.055
			c0.47,1.793,0.689,1.104,0.689-1.135c0.234,1.206,0.446,2.012,0.626,1.997c0.321,0,0.721,0.399,0.964-0.227
			c0.242-0.626,0.462-0.501,0.783-0.086c0.32,0.415,0.704,0.399,0.916-0.172c0.211-0.572,0.438-0.595,0.783-0.094
			c0.344,0.501,0.735,0.462,0.916-0.18c0.18-0.643,0.446-0.548,0.783-0.172c0.336,0.375,0.728,0.407,0.893-0.165
			c0.164-0.572,0.438-0.603,0.846-0.172c0.406,0.431,0.595-0.086,0.885-0.133c0.172,0,0.219-0.478,0-1.667
			c-0.142-0.783-0.087-0.689,0.164-0.055c0.838,2.122,1.151,2.044,0.783-0.243c-0.133-0.783-0.07-0.634,0.188,0
			c0.399,1.026,0.658,1.378,0.846,1.417c0.188,0.039-0.32-2.436-0.102-2.036c0.407,0.736,0.908,1.872,1.112,1.738
			c0.203-0.133,0.673,0.141,0.782-0.415c0.11-0.556,0.267-0.885,0.783-0.219l0,0c0.196,0-0.336-1.778-0.195-1.738
			c0.141,0.039,0.846,1.566,1.018,1.448c0.173-0.117,0.783,0.141,0.885-0.485s0.267-0.642,0.713-0.298
			c0.446,0.345,0.854,0.235,0.916-0.399s0.267-0.658,0.721-0.353s0.885,0.29,0.893-0.384s0.29-0.642,0.783-0.375
			c0.493,0.266,0.783,0.172,0.783-0.462s0.312-0.673,0.821-0.415c0.51,0.259,0.58-0.172,0.783-0.352
			c0.039,0,0.055-0.102,0.047-0.196L600.055,67.897z"/>
	</g>
</g>
<g clip-path="url(#SVGID_2_)">
	<path fill="#F2D525" d="M398.713,266.944c1.376-1.992,0.872-4.386,0.221-6.394c7.923-2.622,10.069-5.833,9.02-13.304
		c7.396-1.968,9.965-5.873,8.541-13.353c4.104,0.071,6.736-2.653,9.017-6.318c1.8-2.875,3.771-5.659,5.739-8.43
		c1.714-2.486,2.8-5.351,3.166-8.351c0.441-2.599,4.591-2.237,6.42-5.096c1.741-2.676,0.756-5.869,2.383-7.511
		c1.623-1.645,4.848-8.976,6.422-15.503c1.492-6.526,2.73-18.598,1.771-21.078c-1.073-2.227,0.494-5.764-1.797-6.697
		c-1.396-0.635-1.651-1.059-1.281-2.419c0.34-0.958,0.353-2.006,0.043-2.977c-1.647-3.817-3.75-7.43-6.253-10.751
		c-0.653-0.882-1.349-1.732-2.085-2.542c-0.857-0.955-1.798-1.83-2.81-2.616c-1.198-0.95-2.534-1.725-3.956-2.292
		c-1.654-0.664-3.434-0.956-5.215-0.86c-1.232,0.137-2.447,0.397-3.626,0.777c-0.856,0.292-1.776,0.342-2.663,0.14
		c-1.024-0.08-2.056,0.069-3.018,0.437c-1.115,0.461-2.158,1.079-3.101,1.831c-2.627,2.146-4.688,4.907-6.001,8.033
		c-1.212,2.785-2.004,5.733-2.347,8.751c-0.366,3.987,1.211,6.607,2.751,9.369c0.284,0.555,0.364,1.195,0.222,1.807
		c-0.06,0.341-0.141,0.684-0.245,1.017c-0.089,0.354-0.219,0.69-0.389,1.009c-0.581,1.159-1.211,2.266-0.816,3.432
		c1.184,3.137,0.464,6.671-1.841,9.102c-2.341,2.693-4.158,6.668-7.058,10.267c-2.335,2.945-2.465,5.816-2.928,9.074
		c-0.18,1.313-5.195,1.463-7.278,4.532c-1.516,1.89-2.214,4.308-1.938,6.715c0.258,1.494,0.095,1.935-1.63,2.302
		c-4.896,0.973-7.457,3.999-7.89,9.24c0,0.033,0.004,0.065,0.008,0.098c0.082,1.205-0.832,2.249-2.035,2.333
		c-1.736,0.483-3.256,1.541-4.306,3.004l-9.494,12.617"/>
	<path fill="#F2D525" d="M391.748,125.114c-0.071,0.067-0.17-0.106-0.149,0.143c0.021,0.249-0.293,0.566,0.302,0.664
		c0.595,0.097,0.797,0.307,0.25,0.715c-0.546,0.409-0.405,0.645,0.183,0.717c0.586,0.069,0.844,0.214,0.242,0.652
		c-0.6,0.441-0.322,0.696,0.268,0.75c0.588,0.055,0.686,0.193,0.172,0.637c-0.511,0.442-0.339,0.745,0.276,0.774
		c0.614,0.031,0.724,0.146,0.22,0.597c-0.507,0.45,0.064,0.627,0.11,0.832c0.046,0.205,1.896-0.33,2.023-0.265
		c0.125,0.06-1.74,0.979-1.74,0.979l0,0c0.968-0.089,0.767,0.207,0.313,0.625c-0.457,0.417,0.116,0.558,0.103,0.737
		c-0.013,0.18,1.371-0.177,2.316-0.382c0.515-0.106-2.152,1.113-2,1.201c0.152,0.09,0.642,0.04,1.853-0.338
		c0.76-0.224,0.923-0.262,0.118,0.124c-2.408,1.156-2.319,1.388,0.21,0.637c0.756-0.224,0.895-0.254,0.047,0.138
		c-1.269,0.598-1.719,0.81-1.596,1.025c0.123,0.216-0.267,0.647,0.378,0.659c0.653,0.015,0.757,0.212,0.294,0.672
		c-0.461,0.463-0.253,0.68,0.319,0.701c0.574,0.02,0.811,0.144,0.277,0.656c-0.532,0.51-0.384,0.768,0.313,0.726
		c0.689-0.049,0.789,0.125,0.33,0.622c-0.465,0.495-0.292,0.746,0.29,0.741c0.583-0.005,0.819,0.066,0.322,0.613
		c-0.502,0.545,0.182,0.681,0.246,0.818c0.065,0.138,0.971-0.193,2.281-0.731c-2.219,1.32-2.803,1.88-0.796,1.163
		c0.237-0.121,0.14-0.029,0.001,0.105c-1.824,1.297-0.427,1.11-0.262,1.474c0.848-0.214,1.656-0.544,2.414-0.978
		c-3.198,2.097-3.102,2.392,0.353,0.753c-3.191,2.086-2.999,2.375,0.584,0.61c-2.156,1.351-2.482,1.761-2.306,1.946
		c0.146,0.12,0.25,0.29,0.288,0.474c0.066,0.173,0.875-0.067,1.651-0.426c0.778-0.362-1.468,1.126-1.256,1.205
		c0.213,0.081,1.986-0.882,1.851-0.655c-0.131,0.229-1.478,1.185-1.362,1.307c0.121,0.126,0.964-0.253,2.072-0.845
		c-2.278,1.764-2.323,1.996-0.114,0.912c0.452-0.282,0.295-0.132-0.019,0.169c-1.696,1.378-1.545,1.534,0.669,0.349
		c0.622-0.347,0.64-0.328,0.024,0.148c-0.333,0.23-0.644,0.491-0.934,0.773c-0.584,0.894-0.629,1.476,0.941,0.892
		c0.377-0.078,0.541-0.185,0.045,0.241c-0.497,0.427-0.561,0.587-0.504,0.647c0.164,0.192,0.299,0.41,0.399,0.644
		c0.065,0.171,1.14-0.404,1.752-0.742c0.613-0.339-1.847,1.583-1.203,1.402c0.646-0.185,0.911-0.099,0.494,0.516
		c-0.414,0.614,0.297,0.465,0.33,0.708c0.027,0.239,1.067-0.424,2.115-1.079c0.409-0.253-1.701,1.754-1.534,1.808
		c0.172,0.056,0.664-0.2,1.663-0.905c0.666-0.421,0.736-0.489,0.109,0.112c-1.774,1.733-1.744,2.027,0.013,0.839
		c0.608-0.346,0.556-0.331,0.023,0.214c-0.533,0.544-0.805,0.906-0.729,0.985c0.202,0.21,0.502,0.489,0.603,0.628
		c0.1,0.141,1-0.527,1.967-1.267c-1.849,2.021-1.91,2.288-0.483,1.367c0.182-0.126,0.354-0.192,0.153,0
		c-1.414,1.829-0.135,1.239,0.192,1.495c0.754-0.466,1.452-1.017,2.072-1.648c-2.358,2.625-2.461,3.375,0.576,0.601
		c-2.491,2.993-2.284,3.242,0.622,0.545c-1.598,1.895-1.796,2.457-1.524,2.514c0.272,0.057,0.044,0.658,0.679,0.307
		c0.63-0.356,0.741-0.258,0.52,0.438c-0.22,0.696,0.102,0.874,0.609,0.635c0.513-0.234,0.69-0.189,0.542,0.442
		c-0.153,0.627,0.433,0.486,0.602,0.628c0.169,0.14,0.969-0.717,1.972-1.89c-1.429,2.335-1.797,3.26-0.695,2.036
		c1.105-1.227,1.189-1.242,0.353,0.265c-0.833,1.504,0.018,0.786,1.829-1.484c-1.269,2.154-1.411,2.738-1.156,2.778
		c0.257,0.039,0.099,0.696,0.68,0.253c0.584-0.437,0.718-0.297,0.625,0.374c-0.093,0.672,0.394,0.463,0.681,0.537l0,0l4.982-8.379
		c0.008-0.045,0.054-0.188,0.054-0.188c-0.142-0.148-0.088-0.583-0.557-0.232c-0.469,0.348-0.744,0.342-0.55-0.312
		c0.193-0.653-0.04-0.704-0.498-0.362c-0.459,0.343-0.754,0.437-0.516-0.275c0.237-0.713-0.07-0.719-0.55-0.398
		c-0.475,0.324-0.642,0.29-0.425-0.358c0.217-0.646-0.042-0.742-0.556-0.405c-0.512,0.34-0.657,0.312-0.447-0.31
		c0.209-0.62-0.366-0.467-0.422-0.58c-0.06-0.114-1.387,1.28-1.525,1.291c-0.137,0.017,1.054-1.695,1.054-1.695l0,0
		c-0.766,0.583-0.715,0.216-0.492-0.32c0.229-0.532-0.332-0.313-0.364-0.502c-0.031-0.191-1.101,0.807-1.853,1.405
		c-0.405,0.328,1.48-1.916,1.328-1.92c-0.156-0.006-0.578,0.236-1.495,1.116c-0.603,0.541-0.73,0.636-0.154-0.041
		c1.719-2.031,1.592-2.146-0.417-0.435c-0.611,0.517-0.724,0.592-0.093-0.098c0.935-1.03,1.277-1.391,1.11-1.513
		c-0.169-0.123,0.062-0.634-0.522-0.371c-0.588,0.262-0.739,0.122-0.428-0.446c0.312-0.564,0.092-0.671-0.451-0.471
		c-0.543,0.203-0.782,0.146-0.418-0.436c0.361-0.583,0.186-0.749-0.46-0.479c-0.646,0.269-0.772,0.121-0.419-0.438
		c0.351-0.557,0.179-0.738-0.382-0.555c-0.559,0.185-0.807,0.171-0.412-0.428c0.401-0.596-0.175-0.463-0.344-0.64
		c-0.757,0.257-1.461,0.644-2.086,1.144c1.934-1.633,2.506-2.263,0.651-1.224c-0.242,0.13-0.147,0.04-0.007-0.095
		c1.64-1.573,0.339-1.079,0.157-1.373c-0.799,0.325-1.559,0.74-2.266,1.235c2.983-2.391,2.889-2.488-0.388-0.667
		c3.024-2.329,2.925-2.471-0.596-0.533c2.099-1.462,2.458-1.892,2.258-1.997c-0.138-0.093-0.235-0.237-0.264-0.396
		c-0.05-0.139-0.655,0.086-1.623,0.509c-0.801,0.335,1.446-1.131,1.249-1.197c-0.195-0.063-1.978,0.892-1.829,0.665
		c0.155-0.227,1.53-1.134,1.431-1.238c-0.73,0.15-1.432,0.423-2.067,0.812c2.36-1.643,2.458-1.819,0.187-0.852
		c-0.508,0.222-0.327,0.098,0.039-0.151c1.823-1.279,1.712-1.394-0.628-0.339c-0.656,0.294-0.68,0.269-0.012-0.136
		c0.353-0.208,0.694-0.437,1.013-0.689c0.684-0.79,0.866-1.283-0.738-0.861c-0.338,0.104-0.546,0.149-0.006-0.214
		c0.537-0.367,0.633-0.509,0.584-0.56c-0.12-0.186-0.203-0.384-0.253-0.597c-0.039-0.146-1.202,0.301-1.847,0.483
		c-0.648,0.182,2.138-1.21,1.46-1.114c-0.678,0.095-0.901-0.013-0.35-0.504c0.548-0.494-0.075-0.445-0.106-0.669
		c-0.032-0.226-1.193,0.188-2.329,0.558c-0.456,0.153,2.104-1.229,1.953-1.301c-0.154-0.073-0.609,0.013-1.831,0.483
		c-0.778,0.29-0.872,0.315-0.103-0.108c2.181-1.166,2.28-1.396,0.264-0.754c-0.662,0.218-0.619,0.176,0.057-0.186
		c0.676-0.362,1.106-0.457,1.016-0.688c-0.091-0.234-0.187-0.509-0.276-0.688c-0.09-0.183-1.183,0.18-2.313,0.538
		c2.421-1.25,2.604-1.424,0.946-1.042c-0.231,0.04-0.386,0.106-0.144-0.044c2.001-1.162,0.648-1.038,0.457-1.359
		c-0.861,0.166-1.708,0.414-2.525,0.741c3.25-1.453,3.712-1.966-0.223-0.74c3.549-1.61,3.504-1.814-0.31-0.706
		c2.296-0.963,2.793-1.369,2.555-1.479c-0.237-0.106,0.273-0.499-0.442-0.46c-0.718,0.037-0.725-0.108-0.203-0.543
		c0.523-0.433,0.348-0.684-0.208-0.722c-0.554-0.035-0.664-0.15-0.175-0.569c0.486-0.417-0.051-0.592-0.099-0.746
		c-0.046-0.155-1.171,0.105-2.676,0.492c2.521-1.059,3.394-1.53,1.771-1.178c-1.624,0.351-1.7,0.291-0.122-0.371
		c1.577-0.66,0.491-0.536-2.33,0.122c2.343-0.839,2.856-1.181,2.69-1.335c-0.17-0.159,0.436-0.471-0.323-0.529
		c-0.76-0.059-0.723-0.195-0.202-0.594c0.521-0.401,0.054-0.54-0.129-0.731c-0.026-0.027-0.146-0.047-0.146-0.047L391.748,125.114z"
		/>
	<path fill="#F2D525" d="M409.565,112.79c-0.062,0.059-0.083-0.054-0.132,0.126c-0.048,0.177-0.426,0.359,0.125,0.516
		c0.554,0.157,0.702,0.347,0.065,0.537c-0.636,0.193-0.553,0.384-0.008,0.534c0.543,0.147,0.751,0.277,0.065,0.504
		c-0.688,0.224-0.487,0.434,0.064,0.575c0.554,0.141,0.62,0.244,0.005,0.479c-0.61,0.234-0.513,0.476,0.065,0.59
		c0.583,0.117,0.655,0.211,0.053,0.455c-0.606,0.243-0.08,0.495-0.117,0.613c-0.036,0.121,1.855-0.005,1.999,0.093
		c0.145,0.098-1.941,0.422-1.941,0.422l0,0c0.958,0.071,0.669,0.263,0.125,0.479c-0.541,0.22-0.05,0.382-0.095,0.53
		c-0.046,0.146,1.365,0.081,2.322,0.081c0.526-0.065-2.369,0.449-2.275,0.509c0.094,0.064,0.598,0.116,1.864,0.04
		c0.806-0.051,0.965-0.057,0.091,0.096c-2.634,0.451-2.613,0.631,0.024,0.479c0.776-0.043,0.917-0.04,0,0.104
		c-1.367,0.219-1.856,0.301-1.808,0.475c0.047,0.17-0.428,0.411,0.178,0.518c0.604,0.105,0.651,0.26,0.076,0.514
		c-0.579,0.253-0.415,0.458,0.096,0.539c0.512,0.08,0.733,0.222,0.067,0.507c-0.662,0.285-0.591,0.502,0.074,0.565
		c0.667,0.066,0.697,0.203,0.109,0.482c-0.588,0.278-0.495,0.495,0.042,0.566c0.533,0.067,0.746,0.185,0.105,0.478
		c-0.638,0.295-0.042,0.498-0.018,0.608c0.022,0.112,0.973,0.021,2.38-0.155c-2.527,0.581-3.26,0.88-1.144,0.694
		c0.249-0.036,0.121,0.002-0.062,0.059c-2.122,0.633-0.757,0.694-0.738,0.978c0.861-0.011,1.718-0.106,2.562-0.28
		c-3.694,0.95-3.665,1.102,0.077,0.583c-3.689,0.941-3.643,1.129,0.321,0.527c-2.425,0.65-2.917,0.907-2.802,1.011
		c0.12,0.105,0.105,0.233,0.096,0.378c-0.012,0.144,0.82,0.085,1.669-0.007c0.85-0.094-1.724,0.581-1.589,0.651
		c0.136,0.07,2.085-0.326,1.911-0.157c-0.594,0.187-1.174,0.409-1.74,0.666c0.741,0.032,1.489-0.042,2.211-0.228
		c-2.755,0.832-2.878,0.983-0.46,0.621c0.524-0.099,0.31-0.024-0.104,0.1c-2.125,0.684-2.027,0.807,0.471,0.372
		c0.664-0.164,0.681-0.146-0.069,0.066c-0.387,0.102-0.767,0.225-1.134,0.371c-0.868,0.513-1.124,0.873,0.478,0.797
		c0.351-0.018,0.539-0.065-0.058,0.169c-0.593,0.235-0.715,0.352-0.715,0.352c0.065,0.166,0.097,0.348,0.083,0.524
		c0.016,0.157,1.209-0.05,1.904-0.147c0.693-0.097-2.342,0.739-1.656,0.737c0.681-0.005,0.858,0.093,0.218,0.439
		c-0.638,0.346-0.008,0.39-0.036,0.556c-0.031,0.159,1.163-0.082,2.339-0.303c0.479-0.093-2.283,0.849-2.149,0.919
		c0.137,0.073,0.625,0.021,1.86-0.276c0.812-0.188,0.911-0.205,0.086,0.09c-2.343,0.786-2.44,1.019-0.379,0.583
		c0.635-0.177,0.652-0.177-0.121,0.117c-0.778,0.29-1.192,0.502-1.149,0.547c0.066,0.19,0.118,0.381,0.165,0.577
		c0.783-0.035,1.551-0.179,2.293-0.421c-2.585,1.006-2.744,1.139-1.077,0.833c0.215-0.041,0.395-0.078,0.135,0.036
		c-2.097,0.957-0.76,0.848-0.62,1.101c0.872-0.139,1.731-0.347,2.568-0.624c-3.341,1.231-3.82,1.69,0.125,0.565
		c-3.621,1.413-3.59,1.62,0.232,0.539c-2.321,0.881-2.8,1.206-2.613,1.312c0.186,0.106-0.334,0.455,0.36,0.375
		c0.694-0.078,0.698,0.031,0.161,0.432c-0.536,0.401-0.38,0.598,0.15,0.575c0.53-0.024,0.65,0.049,0.154,0.439
		c-0.495,0.394,0.017,0.42,0.075,0.601c0.917-0.104,1.81-0.35,2.655-0.723c-2.486,1.129-3.325,1.615-1.75,1.144
		c1.576-0.472,1.652-0.443,0.105,0.283c-1.545,0.73-0.464,0.531,2.266-0.412c-2.279,0.994-2.792,1.352-2.605,1.441
		c0.187,0.09-0.368,0.418,0.353,0.368c0.718-0.056,0.7,0.049,0.193,0.446c-0.503,0.401-0.004,0.412,0.144,0.568l0,0l9.001-3.733
		c0.045-0.042,0.087-0.083,0.131-0.125c-0.024-0.148,0.298-0.457-0.267-0.4c-0.568,0.056-0.761-0.061-0.224-0.441
		c0.539-0.382,0.413-0.515-0.152-0.457c-0.565,0.057-0.812,0.007-0.212-0.396c0.599-0.406,0.387-0.505-0.203-0.474
		c-0.591,0.029-0.667-0.033-0.13-0.414c0.537-0.384,0.404-0.538-0.206-0.495c-0.606,0.047-0.681,0.006-0.162-0.378
		c0.523-0.38-0.033-0.455-0.021-0.563c0.009-0.114-1.833,0.462-1.941,0.438c-0.111-0.031,1.778-0.873,1.778-0.873l0,0
		c-0.935,0.179-0.699-0.063-0.221-0.388c0.478-0.319-0.037-0.319-0.018-0.488c-0.764,0.08-1.519,0.242-2.249,0.484
		c-0.5,0.108,2.227-0.946,2.097-0.991c-0.128-0.049-0.59,0.031-1.82,0.371c-0.746,0.199-0.913,0.236-0.083-0.087
		c2.495-0.965,2.453-1.113-0.102-0.439c-0.801,0.234-0.927,0.256-0.057-0.06c1.334-0.44,1.763-0.639,1.693-0.784
		c-0.076-0.147,0.367-0.438-0.257-0.426c-0.625,0.013-0.683-0.119-0.144-0.448c0.535-0.331,0.4-0.454-0.163-0.463
		c-0.563-0.011-0.742-0.092-0.126-0.43c0.615-0.336,0.497-0.53-0.146-0.483c-0.643,0.045-0.696-0.098-0.152-0.424
		c0.546-0.32,0.472-0.485-0.092-0.495c-0.564-0.012-0.769-0.068-0.145-0.415c0.621-0.346,0.023-0.377-0.024-0.548
		c-0.797,0.019-1.584,0.15-2.352,0.376c2.473-0.773,3.197-1.086,1.093-0.747c-0.248,0.075-0.128,0.025,0.052-0.05
		c2.112-0.803,0.778-0.726,0.73-0.985c-0.854,0.072-1.708,0.214-2.539,0.428c3.631-1.122,3.609-1.232-0.099-0.558
		c3.646-1.07,3.605-1.219-0.342-0.495c2.443-0.667,2.927-0.931,2.809-1.018c-0.117-0.087-0.114-0.188-0.087-0.336
		c0.029-0.146-0.76-0.042-1.639,0.036c-0.885,0.073,1.719-0.545,1.584-0.62c-0.136-0.069-2.127,0.283-1.912,0.159
		c0.219-0.124,1.834-0.553,1.759-0.631c-0.742-0.026-1.48,0.05-2.204,0.218c2.772-0.762,2.91-0.878,0.482-0.581
		c-0.538,0.084-0.323,0.029,0.097-0.092c2.153-0.601,2.067-0.691-0.455-0.351c-0.675,0.133-0.693,0.114,0.071-0.068
		c0.481-0.108,1.074-0.224,1.154-0.3c0.906-0.453,1.238-0.787-0.405-0.752c-0.34,0.011-0.547,0.023,0.072-0.151
		c0.618-0.178,0.74-0.295,0.74-0.295c-0.046-0.151-0.058-0.312-0.03-0.468c0.027-0.111-1.207-0.02-1.883,0.045
		c-0.676,0.062,2.399-0.538,1.723-0.563c-0.677-0.023-0.841-0.144-0.17-0.403c0.671-0.261,0.04-0.36,0.115-0.494
		c0.068-0.138-1.155-0.034-2.349,0.052c-0.471,0.031,2.331-0.577,2.257-0.62c-0.08-0.045-0.565-0.044-1.844,0.089
		c-0.839,0.087-0.941,0.083-0.083-0.087c2.438-0.463,2.595-0.613,0.489-0.469c-0.669,0.055-0.661,0.046,0.122-0.117
		c0.781-0.161,1.196-0.34,1.196-0.34c-0.031-0.178-0.05-0.356-0.06-0.534c-0.775-0.067-1.554-0.042-2.324,0.074
		c2.678-0.527,2.912-0.562,1.2-0.6c-0.172-0.023-0.366-0.034-0.094-0.098c2.22-0.55,0.904-0.631,0.824-0.887
		c-0.879-0.025-1.759,0.015-2.636,0.115c3.493-0.57,4.107-0.837-0.005-0.567c3.843-0.604,3.854-0.747-0.109-0.547
		c2.497-0.316,3.014-0.527,2.855-0.659c-0.163-0.134,0.459-0.322-0.259-0.407c-0.716-0.084-0.669-0.194-0.057-0.411
		c0.61-0.218,0.522-0.435-0.006-0.532c-0.53-0.095-0.614-0.202-0.025-0.408c0.586-0.211,0.109-0.357,0.114-0.529
		c-0.899-0.142-1.81-0.164-2.711-0.066c2.693-0.352,3.662-0.549,2.004-0.548c-1.661,0-1.725-0.053-0.019-0.267
		c1.707-0.21,0.613-0.302-2.278-0.278c2.44-0.18,3.018-0.33,2.897-0.471c-0.115-0.139,0.516-0.287-0.177-0.414
		c-0.69-0.124-0.642-0.251-0.042-0.444c0.601-0.193,0.06-0.515,0.054-0.521c-0.008-0.008-0.083-0.086-0.083-0.086L409.565,112.79z"
		/>
	<path fill="#F2D525" d="M430.242,113.669c-0.119-0.02-0.099-0.088-0.181,0.04c-0.08,0.125-0.491,0.185,0.008,0.461
		c0.499,0.275,0.606,0.474-0.062,0.476c-0.666,0.006-0.626,0.185-0.13,0.441c0.5,0.259,0.678,0.426-0.041,0.448
		c-0.717,0.019-0.578,0.252-0.072,0.501c0.508,0.248,0.558,0.354-0.1,0.398c-0.66,0.048-0.623,0.262-0.083,0.511
		c0.544,0.253,0.609,0.339-0.05,0.401c-0.658,0.065-0.196,0.388-0.257,0.483c-0.062,0.095,1.81,0.494,1.903,0.571
		c0.092,0.075-1.974-0.12-1.974-0.12l0,0c0.903,0.312,0.581,0.396,0.011,0.446c-0.576,0.047-0.096,0.305-0.218,0.421
		c0.729,0.291,1.488,0.496,2.263,0.613c0.512,0.129-2.438-0.237-2.306-0.099c0.558,0.267,1.165,0.439,1.783,0.498
		c0.812,0.147,0.962,0.182,0.084,0.087c-2.652-0.286-2.673-0.114-0.095,0.409c0.744,0.127,0.871,0.155-0.051,0.05
		c-1.38-0.148-1.875-0.208-1.868-0.043c0.001,0.158-0.529,0.234,0.039,0.477c0.567,0.242,0.573,0.388-0.051,0.452
		c-0.625,0.065-0.527,0.256-0.048,0.477c0.488,0.227,0.644,0.375-0.066,0.436c-0.713,0.062-0.691,0.259-0.071,0.487
		c0.619,0.226,0.614,0.345-0.017,0.436c-0.634,0.091-0.621,0.278-0.104,0.483c0.516,0.207,0.684,0.351-0.011,0.427
		c-0.694,0.082-0.151,0.332-0.172,0.503c0.752,0.253,1.541,0.409,2.334,0.459c-2.569-0.148-3.344-0.115-1.281,0.291
		c0.281,0.048,0.146,0.044-0.052,0.049c-2.261,0.054-0.976,0.432-1.025,0.679c0.835,0.209,1.686,0.348,2.541,0.413
		c-3.809-0.13-3.812,0.008-0.078,0.511c-3.811-0.129-3.807,0.03,0.168,0.523c-2.544-0.136-3.067-0.018-2.987,0.101
		c0.085,0.123,0.022,0.232-0.013,0.334c-0.041,0.101,0.78,0.275,1.622,0.402c0.846,0.13-1.82,0.021-1.694,0.137
		c0.127,0.114,2.147,0.317,1.9,0.371c-0.249,0.055-1.934,0.044-1.865,0.117c0.709,0.246,1.449,0.396,2.204,0.447
		c-2.874,0.008-3.048,0.089-0.617,0.407c0.563,0.079,0.342,0.092-0.095,0.091c-2.209,0.003-2.142,0.126,0.376,0.394
		c0.698,0.063,0.709,0.074-0.07,0.067c-0.49-0.003-1.121-0.051-1.191,0.016c-0.953,0.246-1.371,0.458,0.23,0.783
		c0.333,0.051,0.546,0.115-0.112,0.107c-0.657-0.001-0.779,0.115-0.779,0.115c0.014,0.153-0.012,0.308-0.07,0.45
		c-0.054,0.101,1.141,0.247,1.837,0.329c0.703,0.084-2.461,0.017-1.796,0.186c0.663,0.168,0.797,0.308,0.094,0.432
		c-0.704,0.12-0.102,0.33-0.19,0.447c-0.087,0.118,1.131,0.22,2.319,0.34c0.477,0.043-2.423,0.127-2.33,0.225
		c0.091,0.095,0.612,0.147,1.885,0.218c0.846,0.028,0.948,0.045,0.075,0.079c-2.487,0.062-2.667,0.189-0.537,0.384
		c0.698,0.065,0.673,0.073-0.113,0.109c-0.79,0.033-1.229,0.151-1.229,0.151c0.004,0.175-0.002,0.348-0.018,0.523
		c0.76,0.168,1.536,0.243,2.313,0.228c-2.739,0.148-2.957,0.235-1.274,0.418c0.167,0.019,0.365,0.066,0.089,0.093
		c-2.298,0.276-0.985,0.526-0.932,0.775c0.872,0.11,1.755,0.161,2.633,0.146c-3.556,0.169-4.155,0.435-0.045,0.509
		c-3.887,0.246-3.918,0.422,0.046,0.505c-2.513,0.173-3.063,0.313-2.914,0.451c0.151,0.141-0.467,0.301,0.232,0.417
		c0.698,0.118,0.653,0.209,0.024,0.393c-0.627,0.186-0.546,0.392-0.027,0.515c0.521,0.121,0.592,0.215,0.007,0.41
		c-0.582,0.194-0.108,0.34-0.112,0.51c0.895,0.15,1.808,0.188,2.709,0.101c-2.717,0.291-3.669,0.489-2.019,0.496
		c1.649,0.009,1.707,0.052,0.01,0.256c-1.697,0.204-0.614,0.303,2.28,0.247c-2.444,0.195-3.011,0.355-2.886,0.485
		c0.125,0.131-0.501,0.313,0.188,0.406c0.692,0.09,0.655,0.211,0.052,0.419c-0.603,0.211-0.176,0.374-0.042,0.514l0,0l9.716-0.769
		c0.032-0.018,0.104,0.128,0.179-0.058c0.073-0.184,0.432-0.3-0.14-0.404c-0.568-0.107-0.711-0.255-0.078-0.431
		c0.638-0.176,0.557-0.313,0.001-0.422c-0.552-0.101-0.766-0.203-0.077-0.391c0.687-0.194,0.498-0.358-0.048-0.455
		c-0.548-0.098-0.622-0.194,0.004-0.378c0.632-0.181,0.54-0.363-0.039-0.461c-0.581-0.099-0.648-0.185-0.046-0.363
		c0.605-0.172,0.106-0.379,0.147-0.474c0.045-0.093-1.911-0.124-1.98-0.145c-0.07-0.018,1.991-0.229,1.991-0.229l0,0
		c-0.941-0.109-0.656-0.248-0.098-0.399c0.562-0.147,0.033-0.314,0.139-0.415c-0.759-0.141-1.532-0.21-2.306-0.202
		c-0.511-0.045,2.392-0.195,2.299-0.293c-0.092-0.096-0.57-0.142-1.846-0.178c-0.8-0.016-0.965-0.029-0.081-0.085
		c2.673-0.166,2.655-0.304,0.024-0.394c-0.753,0.018-0.879,0.008,0.043-0.042c1.388-0.055,1.885-0.078,1.854-0.217
		c-0.031-0.137,0.468-0.281-0.118-0.421c-0.589-0.14-0.622-0.28-0.009-0.411c0.607-0.134,0.482-0.298-0.028-0.429
		c-0.505-0.127-0.684-0.262,0.009-0.392c0.696-0.131,0.656-0.296,0.011-0.447c-0.647-0.15-0.655-0.261-0.027-0.393
		c0.627-0.133,0.597-0.288,0.061-0.443c-0.534-0.156-0.712-0.271-0.026-0.395c0.687-0.124,0.126-0.305,0.127-0.461
		c-0.769-0.184-1.566-0.279-2.36-0.279c2.67-0.029,3.4-0.158,1.3-0.391c-0.273-0.023-0.135-0.037,0.053-0.05
		c2.2-0.149,0.913-0.411,0.954-0.629c-0.844-0.157-1.698-0.255-2.548-0.282c3.828-0.061,3.79-0.1,0.061-0.496
		c3.803,0.035,3.797-0.095-0.188-0.493c2.555,0.078,3.076-0.022,2.988-0.133c-0.093-0.115-0.033-0.226,0.004-0.311
		c0.037-0.084-0.772-0.246-1.625-0.366c-0.851-0.12,1.819-0.007,1.695-0.117c-0.125-0.116-2.106-0.312-1.89-0.364
		c0.217-0.057,1.909-0.037,1.85-0.098c-0.709-0.212-1.438-0.337-2.174-0.381c2.871,0.06,3.046-0.003,0.625-0.362
		c-0.553-0.105-0.341-0.093,0.097-0.093c2.204,0.064,2.145-0.032-0.371-0.387c-0.69-0.088-0.706-0.105,0.069-0.066
		c0.497,0.029,1.079,0.058,1.19,0.036c0.969-0.179,1.392-0.349-0.197-0.731c-0.333-0.084-0.562-0.167,0.113-0.108
		c0.671,0.054,0.784-0.055,0.784-0.055c-0.003-0.136,0.023-0.275,0.09-0.396c-0.593-0.222-1.205-0.369-1.832-0.444
		c-0.698-0.15,2.441,0.153,1.797-0.044c-0.646-0.203-0.771-0.353-0.06-0.398c0.712-0.043,0.111-0.269,0.231-0.385
		c-0.732-0.28-1.499-0.462-2.279-0.545c-0.478-0.097,2.458,0.17,2.332,0.038c-0.584-0.235-1.2-0.378-1.829-0.422
		c-0.844-0.112-0.938-0.141-0.067-0.07c2.46,0.189,2.642,0.1,0.579-0.306c-0.706-0.159-0.672-0.175,0.112-0.108
		c0.787,0.069,1.235,0.01,1.235,0.01c0.009-0.16,0.035-0.315,0.069-0.47c-0.734-0.253-1.492-0.428-2.265-0.526
		c2.715,0.229,2.954,0.199,1.315-0.202c-0.164-0.03-0.375-0.113-0.093-0.098c2.299,0.11,1.042-0.311,1.022-0.541
		c-0.847-0.239-1.712-0.429-2.579-0.56c3.529,0.416,4.207,0.283,0.127-0.477c3.865,0.449,3.909,0.32,0.039-0.484
		c2.463,0.332,3.036,0.3,2.911,0.152c-0.125-0.149,0.515-0.161-0.156-0.406c-0.668-0.243-0.607-0.319,0.044-0.356
		c0.649-0.039,0.612-0.236,0.121-0.449c-0.493-0.216-0.542-0.337,0.076-0.359c0.616-0.02,0.193-0.271,0.229-0.423
		c-0.836-0.343-1.715-0.589-2.61-0.73c2.695,0.364,3.636,0.402,2.069,0.026c-1.566-0.375-1.667-0.481,0.039-0.238
		c1.707,0.239,0.653-0.124-2.139-0.798c2.454,0.427,3.045,0.431,2.962,0.294c-0.08-0.14,0.553-0.126-0.078-0.398
		c-0.625-0.269-0.528-0.395,0.071-0.382c0.595,0.012,0.236-0.259,0.171-0.432c-0.02-0.039-0.055-0.075-0.092-0.096L430.242,113.669z
		"/>
	<path fill="#F2D525" d="M447.255,127.025c-0.099-0.032-0.067-0.123-0.183-0.033c-0.112,0.091-0.513,0.007-0.109,0.411
		c0.401,0.398,0.457,0.597-0.181,0.385c-0.636-0.209-0.641-0.038-0.236,0.35c0.402,0.384,0.517,0.589-0.161,0.37
		c-0.681-0.22-0.626,0.029-0.197,0.405c0.43,0.378,0.441,0.497-0.199,0.321c-0.634-0.175-0.648,0.039-0.201,0.417
		c0.444,0.377,0.468,0.489-0.156,0.329c-0.618-0.156-0.27,0.279-0.357,0.343c-0.084,0.068,1.615,0.986,1.673,1.081
		c0.058,0.096-1.85-0.704-1.85-0.704l0,0c0.784,0.537,0.459,0.513-0.101,0.382c-0.563-0.132-0.202,0.193-0.314,0.303
		c0.61,0.474,1.269,0.886,1.963,1.226c0.475,0.234-2.287-0.899-2.171-0.779c0.471,0.404,1.003,0.73,1.58,0.964
		c0.744,0.341,0.887,0.421,0.075,0.079c-2.459-1.025-2.523-0.883-0.188,0.327c0.679,0.36,0.787,0.42-0.062,0.059
		c-1.286-0.537-1.737-0.727-1.776-0.592c-0.035,0.139-0.564,0.059-0.075,0.426c0.488,0.371,0.477,0.48-0.155,0.38
		c-0.633-0.099-0.557,0.085-0.146,0.408c0.413,0.326,0.529,0.5-0.168,0.366c-0.7-0.135-0.729,0.026-0.181,0.406
		c0.547,0.38,0.539,0.458-0.119,0.382c-0.658-0.074-0.652,0.072-0.207,0.397c0.446,0.327,0.624,0.441-0.107,0.376
		c-0.736-0.068-0.228,0.251-0.293,0.395c0.667,0.432,1.388,0.785,2.142,1.045c-2.438-0.83-3.211-0.973-1.289-0.085
		c0.26,0.133,0.133,0.104-0.052,0.049c-2.153-0.583-1.003,0.106-1.101,0.302c0.761,0.415,1.56,0.775,2.38,1.069
		c-3.646-1.131-3.69-1.003-0.197,0.421c-3.628-1.127-3.658-0.964,0.058,0.498c-2.428-0.785-2.984-0.843-2.909-0.694
		c0.072,0.146-0.023,0.221-0.086,0.298c-0.059,0.076,0.687,0.434,1.473,0.764c0.789,0.335-1.768-0.445-1.669-0.307
		c0.1,0.137,1.993,0.819,1.756,0.815c-0.242-0.005-1.823-0.466-1.826-0.366c0.639,0.373,1.317,0.665,2.028,0.877
		c-2.777-0.728-2.971-0.689-0.681,0.196c0.509,0.2,0.288,0.144-0.129,0.042c-2.178-0.56-2.128-0.404,0.255,0.457
		c0.678,0.254,0.679,0.274-0.07,0.068c-0.474-0.129-1.045-0.27-1.155-0.279c-0.992-0.059-1.424,0.069,0.062,0.744
		c0.327,0.167,0.523,0.249-0.113,0.108c-0.641-0.143-0.786-0.085-0.786-0.085c-0.018,0.144-0.074,0.278-0.163,0.389
		c0.541,0.315,1.12,0.561,1.72,0.729c0.655,0.245-2.389-0.57-1.792-0.262c0.605,0.316,0.733,0.521,0,0.402
		c-0.731-0.117-0.2,0.192-0.323,0.31c0.689,0.383,1.426,0.667,2.192,0.853c0.447,0.154-2.439-0.481-2.313-0.35
		c0.548,0.311,1.143,0.528,1.758,0.646c0.824,0.213,0.915,0.24,0.065,0.068c-2.399-0.495-2.605-0.412-0.594,0.219
		c0.696,0.237,0.679,0.254-0.104,0.1c-0.785-0.153-1.229-0.146-1.229-0.146c-0.026,0.156-0.066,0.308-0.113,0.459
		c0.71,0.325,1.451,0.569,2.209,0.73c-2.672-0.482-2.915-0.454-1.319,0.075c0.196,0.081,0.367,0.137,0.093,0.099
		c-2.276-0.279-1.047,0.233-1.045,0.463c0.84,0.315,1.697,0.574,2.569,0.773c-3.504-0.63-4.156-0.523-0.156,0.435
		c-3.848-0.624-3.915-0.468-0.052,0.449c-2.455-0.41-3.021-0.405-2.904-0.249c0.117,0.157-0.515,0.16,0.145,0.416
		c0.661,0.251,0.602,0.328-0.05,0.366c-0.651,0.038-0.61,0.235-0.129,0.458c0.484,0.225,0.531,0.343-0.067,0.366
		c-0.601,0.021-0.178,0.272-0.216,0.423c0.854,0.319,1.739,0.533,2.639,0.636c-2.713-0.278-3.69-0.284-2.072,0.042
		c1.622,0.326,1.678,0.385-0.031,0.229c-1.708-0.156-0.649,0.142,2.196,0.663c-2.476-0.276-3.067-0.243-2.965-0.104
		c0.101,0.14-0.535,0.178,0.11,0.395c0.646,0.221,0.59,0.303-0.037,0.382c-0.623,0.084-0.251,0.331-0.135,0.452l0,0l9.811,1.128
		c0.034-0.016,0.127,0.099,0.189-0.01c0.062-0.108,0.464-0.16-0.062-0.36s-0.642-0.337,0.01-0.375
		c0.647-0.04,0.594-0.167,0.075-0.358c-0.518-0.189-0.721-0.333-0.002-0.353c0.72-0.017,0.562-0.201,0.044-0.393
		c-0.519-0.188-0.578-0.286,0.083-0.312c0.658-0.031,0.613-0.201,0.049-0.401c-0.56-0.201-0.575-0.322,0.023-0.309
		c0.6,0.014,0.177-0.287,0.242-0.36c0.06-0.076-1.823-0.454-1.915-0.529c-0.094-0.081,1.965,0.178,1.965,0.178l0,0
		c-0.91-0.285-0.558-0.37-0.02-0.352c0.537,0.018,0.106-0.221,0.212-0.321c-0.717-0.279-1.456-0.503-2.209-0.661
		c-0.492-0.148,2.413,0.368,2.295,0.244c-0.564-0.261-1.162-0.442-1.774-0.541c-0.792-0.178-0.955-0.225-0.077-0.081
		c2.63,0.44,2.652,0.322,0.099-0.332c-0.738-0.16-0.865-0.205,0.045-0.042c1.38,0.234,1.874,0.331,1.871,0.203
		c-0.007-0.127,0.516-0.143-0.037-0.384c-0.546-0.241-0.548-0.362,0.076-0.341c0.624,0.021,0.54-0.134,0.07-0.365
		c-0.478-0.234-0.621-0.384,0.083-0.333c0.7,0.05,0.676-0.099,0.094-0.374c-0.586-0.278-0.583-0.379,0.058-0.341
		c0.641,0.038,0.633-0.106,0.145-0.355c-0.49-0.251-0.598-0.433,0.05-0.333c0.647,0.097,0.175-0.22,0.214-0.355
		c-0.718-0.343-1.464-0.615-2.235-0.809c2.512,0.608,3.285,0.718,1.292,0.021c-0.282-0.101-0.145-0.081,0.044-0.043
		c2.169,0.431,0.959-0.116,1.04-0.295c-0.787-0.342-1.596-0.639-2.419-0.881c3.674,0.932,3.7,0.854,0.153-0.399
		c3.666,0.978,3.727,0.919-0.077-0.464c2.458,0.712,2.988,0.775,2.922,0.654c-0.067-0.122,0.022-0.188,0.072-0.256
		c0.054-0.068-0.699-0.397-1.49-0.731c-0.787-0.334,1.761,0.455,1.66,0.332c-0.098-0.122-1.991-0.817-1.754-0.797
		c0.241,0.022,1.858,0.469,1.816,0.425c-0.644-0.361-1.324-0.663-2.027-0.891c2.754,0.812,2.935,0.806,0.671-0.137
		c-0.501-0.208-0.287-0.145,0.129-0.026c2.14,0.626,2.1,0.531-0.247-0.431c-0.678-0.288-0.68-0.307,0.062-0.059
		c0.464,0.153,1.024,0.337,1.138,0.347c0.987,0.142,1.417,0.101-0.031-0.659c-0.335-0.192-0.513-0.291,0.096-0.091
		c0.614,0.202,0.767,0.169,0.767,0.169c0.021-0.119,0.083-0.227,0.17-0.309c-0.521-0.349-1.078-0.642-1.658-0.876
		c-0.66-0.284,2.319,0.812,1.746,0.475c-0.577-0.339-0.659-0.477,0.021-0.343c0.682,0.134,0.185-0.176,0.288-0.276
		c-0.642-0.44-1.334-0.812-2.061-1.101c-0.426-0.219,2.343,0.817,2.226,0.695c-0.513-0.365-1.07-0.659-1.658-0.873
		c-0.788-0.316-0.873-0.369-0.058-0.061c2.308,0.868,2.513,0.855,0.625-0.082c-0.616-0.293-0.465-0.26,0.144-0.024
		c0.374,0.184,0.769,0.306,1.176,0.368c0.045-0.128,0.103-0.245,0.171-0.363c-0.65-0.429-1.336-0.798-2.049-1.104
		c2.536,0.984,2.773,1.041,1.297,0.215c-0.201-0.105-0.347-0.186-0.092-0.095c2.144,0.772,1.042,0.056,1.081-0.147
		c-0.753-0.453-1.531-0.868-2.329-1.24c3.267,1.417,3.888,1.538,0.233-0.354c3.557,1.545,3.612,1.48,0.135-0.398
		c2.225,1.062,2.772,1.213,2.689,1.057c-0.083-0.153,0.523,0.021-0.054-0.388c-0.572-0.405-0.539-0.421,0.127-0.286
		c0.665,0.133,0.624,0.004,0.213-0.338c-0.413-0.341-0.435-0.435,0.151-0.279c0.585,0.156,0.208-0.201,0.304-0.292
		c-0.715-0.553-1.484-1.034-2.295-1.434c2.432,1.19,3.346,1.535,1.945,0.682c-1.401-0.849-1.443-0.927,0.097-0.178
		c1.544,0.754,0.64,0.125-1.834-1.354c2.208,1.151,2.752,1.35,2.71,1.203c-0.038-0.146,0.558,0.074,0.026-0.358
		c-0.529-0.431-0.47-0.524,0.152-0.297c0.618,0.226,0.308-0.116,0.289-0.277l-0.092-0.095L447.255,127.025z"/>
</g>
<path clip-path="url(#SVGID_2_)" fill="#F2D525" d="M588.15,131.818c-0.038,0.115-0.102,0.084,0.012,0.185
	c0.112,0.098,0.108,0.514,0.457,0.062s0.561-0.527,0.461,0.134c-0.095,0.659,0.087,0.647,0.417,0.196
	c0.333-0.454,0.525-0.605,0.437,0.109c-0.091,0.711,0.161,0.609,0.484,0.147c0.322-0.464,0.435-0.497,0.379,0.16
	c-0.054,0.659,0.164,0.655,0.492,0.16c0.333-0.499,0.429-0.551,0.389,0.11c-0.036,0.66,0.354,0.253,0.438,0.328
	c0.084,0.075,0.764-1.714,0.854-1.794c0.088-0.08-0.419,1.933-0.419,1.933l0,0c0.445-0.845,0.479-0.514,0.442,0.057
	c-0.041,0.577,0.287,0.142,0.383,0.28c0.399-0.676,0.717-1.396,0.951-2.143c0.206-0.486-0.606,2.374-0.449,2.264
	c0.349-0.511,0.611-1.084,0.764-1.687c0.269-0.779,0.327-0.923,0.1-0.069c-0.687,2.578-0.521,2.625,0.389,0.156
	c0.239-0.716,0.286-0.837,0.042,0.058c-0.357,1.341-0.492,1.821-0.328,1.84c0.157,0.022,0.151,0.559,0.477,0.034
	c0.326-0.524,0.471-0.507,0.439,0.119c-0.031,0.627,0.173,0.56,0.464,0.12c0.298-0.448,0.468-0.579,0.42,0.131
	c-0.047,0.714,0.15,0.723,0.471,0.144c0.317-0.577,0.434-0.555,0.428,0.083c-0.007,0.64,0.18,0.656,0.461,0.176
	c0.283-0.479,0.451-0.622,0.42,0.076c-0.025,0.698,0.305,0.2,0.471,0.247c0.365-0.705,0.639-1.46,0.81-2.237
	c-0.539,2.517-0.624,3.288,0.092,1.311c0.09-0.271,0.066-0.138,0.041,0.059c-0.292,2.243,0.278,1.03,0.514,1.117
	c0.334-0.794,0.601-1.613,0.796-2.448c-0.709,3.745-0.574,3.769,0.493,0.155c-0.708,3.746-0.551,3.767,0.542-0.086
	c-0.522,2.494-0.485,3.028-0.356,2.967c0.134-0.065,0.232,0.013,0.329,0.064c0.093,0.056,0.391-0.729,0.645-1.542
	c0.258-0.816-0.256,1.802-0.123,1.696c0.132-0.108,0.641-2.074,0.656-1.821c0.017,0.254-0.251,1.918-0.169,1.861
	c0.351-0.664,0.612-1.372,0.778-2.11c-0.431,2.841-0.376,3.026,0.309,0.672c0.164-0.544,0.143-0.324,0.075,0.107
	c-0.334,2.184-0.202,2.136,0.446-0.312c0.169-0.68,0.181-0.689,0.056,0.08c-0.078,0.484-0.221,1.1-0.166,1.179
	c0.098,0.979,0.244,1.425,0.809-0.108c0.102-0.322,0.197-0.522,0.089,0.127c-0.102,0.649-0.005,0.787-0.005,0.787
	c0.153,0.009,0.303,0.059,0.434,0.138c0.091,0.069,0.418-1.09,0.605-1.766c0.19-0.682-0.358,2.435-0.09,1.804
	c0.268-0.629,0.426-0.741,0.441-0.027c0.011,0.714,0.31,0.15,0.413,0.256c0.103,0.104,0.389-1.084,0.69-2.24
	c0.115-0.465-0.244,2.414-0.133,2.337c0.108-0.076,0.238-0.582,0.503-1.83c0.157-0.831,0.189-0.93,0.089-0.062
	c-0.317,2.468-0.219,2.665,0.298,0.589c0.17-0.68,0.175-0.654,0.09,0.128c-0.088,0.786-0.038,1.237-0.038,1.237
	c0.173,0.022,0.344,0.055,0.514,0.098c0.282-0.726,0.474-1.481,0.578-2.251c-0.271,2.73-0.218,2.958,0.219,1.323
	c0.044-0.162,0.121-0.351,0.106-0.074c-0.077,2.313,0.37,1.054,0.624,1.039c0.241-0.845,0.426-1.71,0.545-2.58
	c-0.375,3.54-0.204,4.173,0.496,0.122c-0.35,3.879-0.18,3.937,0.506,0.032c-0.212,2.51-0.157,3.076,0.001,2.949
	c0.162-0.127,0.226,0.507,0.448-0.166c0.223-0.671,0.306-0.613,0.392,0.036c0.088,0.648,0.304,0.6,0.504,0.105
	c0.199-0.496,0.303-0.552,0.406,0.056c0.104,0.604,0.319,0.159,0.487,0.188c0.285-0.861,0.461-1.758,0.513-2.663
	c-0.127,2.73-0.076,3.701,0.183,2.071c0.26-1.628,0.311-1.679,0.254,0.029c-0.057,1.708,0.206,0.653,0.592-2.216
	c-0.18,2.445-0.108,3.03,0.04,2.926c0.148-0.104,0.233,0.543,0.43-0.123c0.195-0.671,0.309-0.616,0.422,0.013
	c0.117,0.627,0.342,0.23,0.501,0.12l0,0l0.721-9.719c-0.013-0.034,0.143-0.083-0.029-0.186c-0.17-0.1-0.23-0.473-0.421,0.076
	c-0.192,0.545-0.361,0.664-0.438,0.011c-0.077-0.657-0.225-0.598-0.417-0.066c-0.184,0.531-0.317,0.726-0.398,0.016
	c-0.087-0.708-0.278-0.546-0.457-0.021c-0.18,0.527-0.287,0.585-0.374-0.062c-0.083-0.652-0.277-0.589-0.461-0.032
	c-0.186,0.56-0.282,0.612-0.366-0.01c-0.078-0.624-0.358-0.163-0.446-0.217c-0.085-0.059-0.414,1.87-0.445,1.935
	c-0.029,0.066,0.077-2.002,0.077-2.002l0,0c-0.251,0.914-0.345,0.61-0.409,0.036c-0.061-0.577-0.306-0.081-0.389-0.201
	c-0.254,0.729-0.441,1.482-0.551,2.248c-0.123,0.498,0.171-2.394,0.061-2.317c-0.109,0.076-0.228,0.542-0.458,1.798
	c-0.138,0.788-0.175,0.949-0.097,0.067c0.244-2.667,0.104-2.67-0.385-0.083c-0.097,0.747-0.126,0.87-0.035-0.049
	c0.157-1.38,0.21-1.875,0.068-1.866c-0.14,0.01-0.207-0.506-0.434,0.052c-0.229,0.561-0.372,0.572-0.407-0.053
	c-0.04-0.621-0.221-0.522-0.429-0.038c-0.203,0.48-0.363,0.636-0.385-0.069c-0.023-0.708-0.192-0.694-0.44-0.079
	c-0.247,0.617-0.358,0.607-0.392-0.033c-0.036-0.64-0.194-0.633-0.429-0.127c-0.236,0.504-0.376,0.663-0.394-0.034
	c-0.018-0.698-0.283-0.172-0.437-0.196c-0.298,0.732-0.514,1.505-0.636,2.29c0.378-2.644,0.362-3.384-0.188-1.344
	c-0.064,0.266-0.057,0.128-0.042-0.06c0.188-2.197-0.267-0.965-0.477-1.039c-0.284,0.81-0.511,1.639-0.667,2.476
	c0.523-3.792,0.479-3.761-0.48-0.136c0.614-3.753,0.485-3.767-0.516,0.111c0.467-2.513,0.447-3.043,0.324-2.974
	c-0.128,0.075-0.228-0.001-0.306-0.052c-0.077-0.049-0.361,0.726-0.61,1.551c-0.248,0.822,0.271-1.799,0.143-1.693
	c-0.134,0.106-0.629,2.034-0.648,1.812c-0.023-0.223,0.254-1.892,0.185-1.843c-0.318,0.668-0.553,1.37-0.708,2.091
	c0.497-2.828,0.461-3.011-0.262-0.672c-0.188,0.531-0.144,0.323-0.078-0.11c0.399-2.168,0.295-2.125-0.438,0.307
	c-0.193,0.668-0.212,0.682-0.055-0.078c0.104-0.486,0.221-1.058,0.217-1.171c-0.029-0.985-0.133-1.428-0.753,0.083
	c-0.134,0.316-0.25,0.53-0.09-0.128c0.156-0.655,0.066-0.783,0.066-0.783c-0.135-0.018-0.269-0.065-0.378-0.149
	c-0.31,0.552-0.548,1.134-0.718,1.743c-0.255,0.667,0.523-2.39,0.23-1.783c-0.299,0.607-0.466,0.708-0.403-0.001
	c0.066-0.71-0.249-0.151-0.345-0.288c-0.388,0.681-0.686,1.411-0.886,2.169c-0.168,0.458,0.542-2.403,0.393-2.298
	c-0.321,0.542-0.556,1.128-0.695,1.744c-0.24,0.816-0.282,0.905-0.08,0.056c0.562-2.402,0.501-2.596-0.214-0.618
	c-0.265,0.673-0.275,0.637-0.09-0.127c0.188-0.767,0.198-1.219,0.198-1.219c-0.156-0.033-0.306-0.082-0.454-0.14
	c-0.362,0.688-0.651,1.409-0.865,2.158c0.64-2.649,0.647-2.889,0.001-1.331c-0.055,0.158-0.169,0.354-0.111,0.078
	c0.459-2.256-0.148-1.078-0.378-1.093c-0.365,0.801-0.685,1.627-0.946,2.463c0.949-3.424,0.921-4.114-0.452-0.198
	c1.033-3.751,0.913-3.814-0.473-0.112c0.704-2.384,0.76-2.955,0.594-2.854c-0.167,0.101-0.08-0.534-0.425,0.092
	c-0.342,0.624-0.408,0.551-0.345-0.098c0.06-0.647-0.141-0.641-0.426-0.188c-0.289,0.455-0.416,0.484-0.344-0.13
	c0.075-0.612-0.238-0.232-0.383-0.291c-0.467,0.774-0.844,1.605-1.119,2.468c0.77-2.608,0.952-3.532,0.341-2.041
	c-0.609,1.49-0.729,1.575-0.229-0.074c0.497-1.65-0.023-0.665-1.115,1.992c0.796-2.36,0.891-2.943,0.743-2.883
	c-0.15,0.058-0.04-0.565-0.405,0.017c-0.361,0.576-0.47,0.462-0.366-0.128c0.102-0.586-0.22-0.273-0.401-0.234
	c-0.042,0.014-0.083,0.043-0.109,0.077L588.15,131.818z"/>
</svg>
