<svg xmlns="http://www.w3.org/2000/svg" viewBox="0 0 746.68 987.17"><title>success</title><g id="Layer_2" data-name="Layer 2"><g id="Layer_1-2" data-name="Layer 1"><path d="M731.84,842.84c-.76-5.59-1.7-10.72-2.58-15.84s-1.8-10.21-2.7-15.66c-.38-2.4-.91-4.82-1.49-7.29q-.6-2.07-1.28-4.16c-.55-1.35-1.15-2.69-1.75-4a53.84,53.84,0,0,0-10.26-13.78,47.19,47.19,0,0,0-12.12-8.86,33.62,33.62,0,0,0-5.71-2.28,22.66,22.66,0,0,0-5.18-.85,46.47,46.47,0,0,0-12.59-8.94,33.93,33.93,0,0,0-14-3.51,66.93,66.93,0,0,1-10-.46,60.1,60.1,0,0,1-9.62-2.4c-7.53-2.37-17.76-1.47-29.32,2.27-4.48-1.44-10-2.29-18.11-1.53-12.33,1.15-24.93,1.89-36.52,3a106.92,106.92,0,0,1-28.75-.75c-1.45-.22-2.89-.55-4.36-.81s-3-.51-4.41-.88l-4.43-1-4.38-1.17c-.73-.2-1.48-.35-2.19-.58l-2.15-.68-2.15-.66c-.72-.22-1.44-.42-2.12-.7-2.77-1-5.57-2-8.2-3.11A61.26,61.26,0,0,1,473,732.31c-3-3.37-6.19-6.88-9.25-10.67a100.66,100.66,0,0,1-8.44-12c-5.2-8.86-9.25-16.6-13.94-20.88a85.15,85.15,0,0,0-3-18.86,73.64,73.64,0,0,0-7.51-17,68,68,0,0,0-.08-20c-.92-6.73-2.57-13-4.8-17.41,1.09-3.43,2.48-7.13,2.27-12.87-.64-18.18.81-37-2.32-54.75a15.81,15.81,0,0,1-.06-5.06,74.7,74.7,0,0,0,.21-16.13,56.75,56.75,0,0,0-3.85-14.2,47.7,47.7,0,0,0,.08-17.31,199.07,199.07,0,0,0-10.4-37.61,41.86,41.86,0,0,0-2.95-6.11c-.52-.91-1-1.76-1.59-2.55s-1.13-1.49-1.7-2.14a15.71,15.71,0,0,1-2.14-2.93,19.81,19.81,0,0,1-1.58-3.94c-3.28-10.76-9.34-19-17.29-24.38-2.82-1.89-3.49-2.75-4.46-5.3a29.15,29.15,0,0,0-3.69-6.18c-.82-1.1-1.79-2.17-2.8-3.3s-2.1-2.31-3.33-3.42a36.67,36.67,0,0,0-5.15-4.06c-1.76-1.12-3.46-2.06-5-2.88-3.16-1.55-5.64-2.63-6.62-3.69-2.46-2.57-4.68-5-7.37-7.35a44.78,44.78,0,0,0-4.36-3.49,52.68,52.68,0,0,0-5.4-3.45c-9.91-5.57-20.61-11.3-30.88-14.17-10.78-3-20.1-5.76-30.31-8.49a26,26,0,0,0-2.88-.61c-.93-.11-1.84-.17-2.71-.2a41.84,41.84,0,0,0-4.88.15c-1.53.15-3,.3-4.32.33a17.07,17.07,0,0,1-2-.07,12.25,12.25,0,0,1-2-.28l-4.71-1.13c-1.55-.33-3.1-.62-4.7-.9-.8-.14-1.61-.27-2.44-.38s-1.68-.17-2.55-.23a53.1,53.1,0,0,0-5.58-.17c-5.72.09-11.39.68-17.07,1.13-2.83.32-5.64.77-8.46,1.14-1.41.21-2.82.37-4.23.61l-4.19.82c-2,.39-4,.82-5.76,1.31a23,23,0,0,0-4.74,1.88,17.36,17.36,0,0,1-4.47,1.69c-1.48.35-3.08.53-5.05,1a115.65,115.65,0,0,0-13.91,3.68c-2.29.77-4.59,1.52-6.85,2.38s-4.47,1.88-6.69,2.86l-3.33,1.48c-1.1.52-2.17,1.1-3.25,1.66q-3.23,1.69-6.44,3.43c-2.13,1.16-4.16,2.51-6.23,3.77L132.74,377l-1.53,1-1.49,1a20.21,20.21,0,0,0-4.21,4.2,8,8,0,0,1-2.1,2.09,17.57,17.57,0,0,1-3.13,1.39A46.87,46.87,0,0,0,107,393.56a49.35,49.35,0,0,0-5.69,4.93c-1.8,1.91-3.58,4-5.4,6.36A20.42,20.42,0,0,1,94.08,407a13,13,0,0,1-2.69,2,85.39,85.39,0,0,0-7.53,5,55.91,55.91,0,0,0-5.67,5.22c-.85.92-1.69,1.83-2.46,2.85s-1.5,2.1-2.24,3.24A86.56,86.56,0,0,0,69,433.19a48.21,48.21,0,0,0-12.55,12,43.87,43.87,0,0,0-4.84,8.45c-1.15,2.6-2.16,5-3.45,7.42a36.43,36.43,0,0,1-5,6.57c-1,1.14-2.09,2.29-3.07,3.67a47.5,47.5,0,0,0-3,4.61A37.57,37.57,0,0,0,33.23,486c-.79,3.06-1.51,5.74-3.18,8.13-1,1.45-1.9,2.94-2.78,4.42s-1.71,3-2.52,4.52-1.62,3.12-2.38,4.78-1.39,3.44-2.06,5.31l-2.14,5.91-.53,1.48-.47,1.5-.94,3-1.9,6c-.31,1-.66,2-1,3l-.85,3c-3,10.17-4.3,19.32-2.67,25.07-3.32,6.06-5.66,12-6.45,18.2q-.34,2.33-.48,4.71a35.68,35.68,0,0,0,0,4.84,75.48,75.48,0,0,0,1.33,10.21,48,48,0,0,0-1.74,4.82c-.49,1.56-.91,3.09-1.26,4.6a41.32,41.32,0,0,0-1.22,9A60.64,60.64,0,0,0,.57,628,89.91,89.91,0,0,0,3,638.89a28.3,28.3,0,0,0-1.83,5.55A30.59,30.59,0,0,0,.64,652c.16,4.57.51,9.16.79,13.77s.7,9.2,1.19,13.77c.22,2.29.6,4.55.92,6.81s.69,4.51,1.16,6.72a110.9,110.9,0,0,0,3.39,13,12.1,12.1,0,0,1,.84,4.23,59.37,59.37,0,0,0,.58,8.8,51.77,51.77,0,0,0,1.66,8,60.87,60.87,0,0,0,2.6,7.24,56.11,56.11,0,0,0,3.46,6.48c-.44,4.71-.08,9.66,1.86,16.49,3.67,12.26,7.46,25.08,12.62,36.15,1.2,2.52,2.31,5,3.35,7.38s2.16,4.73,3.17,7.09l1.49,3.55,1.54,3.56c1,2.39,2,4.84,3.08,7.38A176.25,176.25,0,0,0,62,854.3c6.56,9.2,12.09,17.21,18.59,26.54a134.44,134.44,0,0,0,24.77,26.93c9,7.28,16.74,13.62,25.89,20.4,1.18.85,2.34,1.78,3.6,2.59l3.79,2.45c1.29.79,2.54,1.67,3.89,2.39l4,2.2c2.67,1.51,5.48,2.73,8.23,4a87.07,87.07,0,0,0,8.23,3.16c5.52,2,10.8,3.6,16,5.49,2.61.87,5.23,1.7,7.86,2.62l4,1.39,4.09,1.33q2,.65,4,1.27c1.35.41,2.72.82,4.12,1.14,2.78.68,5.61,1.32,8.46,2s5.74,1.07,8.61,1.61c1.44.25,2.87.54,4.31.78l4.29.69c6.76,1.2,12.73,1.38,16.88.42,2.76-.66,3.91-.43,6.77.78A52.35,52.35,0,0,0,283.58,967c3.35-.78,4.41-.55,6.82.49,3.79,1.62,9.23,2.38,15.67,2.77,8.91.5,15.82-2.57,19.43-1.89,6.67,1.24,11.87,2.93,20.59,3.08,11.07.2,22.52,1,33.15.64,10.93-.39,21-.51,31.53.67.28,0,.63,0,.94,0,7.1.16,11.48-2.14,16.17-2,5.38.17,9.56,2.3,17.07,2.25,12.67-.08,25.81.39,37.94-.56l3.33-.24,3.66-.23-.37,0c7.63-.45,14.71-.59,22.81-.43a258,258,0,0,0,37.84-2.16c10.57-1.42,19.66-2.3,30.31-2.95a202.86,202.86,0,0,0,36.69-5.58c11.13-2.86,20.75-4.79,31.72-7a117.15,117.15,0,0,0,17-4.57,90,90,0,0,0,16-7.45c10.87-6.58,20.3-13.26,28.94-22.63a65.16,65.16,0,0,0,10-14.41,92.57,92.57,0,0,0,6.63-16.39c.33-1.07.49-2,.77-3.14q.62-2,1.19-4.13a111.38,111.38,0,0,0,3-19.37A94.42,94.42,0,0,0,731.84,842.84Z" style="fill:#f2d525;"/><path d="M727.13,884.06c-.11-1.26-.39-2.2-.53-3.12l-3.73,3.81h0l3.73-3.81a11.51,11.51,0,0,0-3.65-1.06,10.75,10.75,0,0,0-4.24.42c-7.71,2.22-15.7,3.78-22.94,5.52a44.78,44.78,0,0,1-19.39.84c-5.84-1.08-12.43-1.59-18.56-3.4-1.53-.5-3-.93-4.44-1.27s-2.79-.72-4.12-.92a19.15,19.15,0,0,0-7.35,0c-4.38-5.3-10.07-9.4-15.52-10.28a14.32,14.32,0,0,1-10.81-6.21c-3.24-4-9.11-6.48-17.24-8.16a21.76,21.76,0,0,0-8.27-8.9c-6.87-4.44-13.77-9.46-21-12.94-6.29-3-11.54-5.89-17.62-9.51a76.17,76.17,0,0,0-24.21-9.21c-1.77-.29-3.45-.59-5.1-.91s-3.29-.49-4.91-.79-3.25-.54-4.92-.82-3.36-.66-5.16-.89a47.26,47.26,0,0,0-5.11-.53c-1.75,0-3.55,0-5.35.12s-3.61.36-5.41.52-3.57.54-5.33.75c-7.46,1.09-13.41,3.69-16.19,7.54a35.63,35.63,0,0,0-3.65-.22,28.38,28.38,0,0,0-3.44.26,22.64,22.64,0,0,0-6.25,1.77,23.13,23.13,0,0,0-5.37,3.42,27.84,27.84,0,0,0-4.52,5,24.68,24.68,0,0,0-13.29,3.74,22.81,22.81,0,0,0-8.72,8.8c-2.58,0-5.47-.12-8.77,1.79-5.22,3-10.68,5.69-16,8.41a132.4,132.4,0,0,0-15.18,8.79,6.32,6.32,0,0,1-3,1c-2.18.36-4,.57-5.61.95a24.31,24.31,0,0,0-4.31,1.15,22.94,22.94,0,0,0-3.88,1.78c-1.32.77-2.73,1.56-4.39,2.67-1.58-.36-3.16-.86-4.88-1.09-.86-.1-1.77-.29-2.74-.33s-2,0-3.14,0a81.34,81.34,0,0,1-23.31-2.67c-.71-.18-1.4-.32-2.08-.45s-1.33-.24-2-.31a21.13,21.13,0,0,0-3.6-.09,5.29,5.29,0,0,1-4.62-1.5c-5.56-4.61-10.87-7-17.33-7.36-2.27-.15-2.86-.61-3.81-2.2a11.91,11.91,0,0,0-1.31-1.81c-.51-.59-1.12-1.17-1.68-1.74S291.7,849.6,291,849s-1.38-1.19-2.14-1.77a29.4,29.4,0,0,0-6.43-3.75c-2-.93-3.66-1.72-4.09-2.54-2.1-4.16-3.4-7.86-7.57-12.39-2.56-2.76-5.2-5.75-8.17-8.46a49.36,49.36,0,0,0-4.67-3.75c-.4-.28-.8-.58-1.21-.83l-1.21-.71q-1.2-.69-2.41-1.31t-2.47-1.31c-.8-.44-1.63-.8-2.42-1.22-1.59-.81-3.12-1.65-4.62-2.51s-3.05-1.59-4.56-2.45c-.76-.42-1.5-.88-2.26-1.3l-2.32-1.24a12.9,12.9,0,0,0-3.56-1.29,18,18,0,0,0-3.32-.28c-2.11,0-3.93-.05-5.48-.95-1.94-1.08-3.73-2.16-5.67-3.16a32.75,32.75,0,0,0-6.66-2.34,214.07,214.07,0,0,0-22.36-3.59,21,21,0,0,0-7.28.25c-2.39.7-3.88.29-6.54-.23-1.56-.32-3.13-.51-4.71-.69s-3.17-.34-4.76-.43c-3.18-.12-6.39-.23-9.58,0-1.6.08-3.2.16-4.8.3s-3.19.34-4.78.54-3.22.47-4.84.77-3.24.59-4.84,1a9.77,9.77,0,0,0-3.63,2c-1.33,1.19-2,1.33-4.13,1-7.49-1-13.4,1-19.42,6.63a6,6,0,0,1-3.66,2c-1.14.23-2.22.45-3.2.72s-1.9.59-2.76.91A20.59,20.59,0,0,0,93.87,809a21.1,21.1,0,0,0-3.89,3.4,39.81,39.81,0,0,0-3.76,4.83A25.22,25.22,0,0,0,75.69,822c-4,3-5.23,6.29-7.92,8.71s-6.62,2.56-10.77,5.51l-.19.14-4,2.92,2.52,4.35c2.73,4.71,6.85,6.23,8.09,9.84A54.13,54.13,0,0,0,65.92,860a50.76,50.76,0,0,0,3.69,6.3q4.81,6.79,9.86,13.42c4.23,5.63,8.68,9.89,13.16,10.63a25.46,25.46,0,0,0,6.21,11.52,24.5,24.5,0,0,0,5.1,3.88,31.13,31.13,0,0,0,3,1.56q1.65.67,3.47,1.23a32.26,32.26,0,0,0,3.3,6,24,24,0,0,0,4.21,4.41,22.36,22.36,0,0,0,5.53,3.21,36.69,36.69,0,0,0,7.3,2.29,17.55,17.55,0,0,0,2,3.65,13.82,13.82,0,0,0,1.59,1.84,14.62,14.62,0,0,0,2.22,1.62c2.65,1.56,5.21,3.3,7.94,4.79s5.37,3.14,8.19,4.43c1.4.67,2.8,1.33,4.21,1.95s2.85,1.09,4.28,1.59a55.43,55.43,0,0,0,8.72,2.25,5.43,5.43,0,0,1,2.72.92,27.18,27.18,0,0,0,10.26,4.85A27.7,27.7,0,0,0,188,953q1.27,0,2.52,0a24.92,24.92,0,0,0,2.51-.32,21,21,0,0,0,9.87,5.3c8.27,2,16.83,4.39,24.92,4.95a153.29,153.29,0,0,1,20.66,3,119,119,0,0,0,11.88,1.75,112.83,112.83,0,0,0,12,.52,125.86,125.86,0,0,1,21.14,1.38c3.77.53,7.83.92,11.88,1.09a113.4,113.4,0,0,0,11.88-.14,117.53,117.53,0,0,1,21.26.59,141.57,141.57,0,0,0,23.1.61,121.78,121.78,0,0,1,21.87.51c7.21.79,15,.39,22.56.54,4.48.08,8.37-.39,11-1.89,1.76-1,2.53-.85,4.48,0a25.1,25.1,0,0,0,20.61.1c2.18-1,2.89-.8,4.51.09,2.56,1.4,6.16,1.91,10.42,2,5.89.11,10.37-3.2,12.78-2.65,4.45,1,7.95,2.48,13.73,2.3,3.67-.14,7.41-.12,11.11-.16a103.81,103.81,0,0,0,10.87-.64c3.61-.43,7.08-.84,10.53-1a73.43,73.43,0,0,1,10.37.17,5.22,5.22,0,0,0,.63,0c4.71-.21,7.45-2.67,10.56-2.78,3.56-.11,6.48,1.81,11.44,1.41,8.39-.7,17.12-.9,25.1-2.47a125.34,125.34,0,0,1,19.4-2.41,115.69,115.69,0,0,0,24.86-4.11,143,143,0,0,1,19.75-4.2,121,121,0,0,0,12.12-2.41,75.52,75.52,0,0,0,11.82-4l2.64-1.12q1.29-.59,2.56-1.12c1.69-.73,3.38-1.32,5-2.05s3.33-1.33,5-2,3.39-1.44,5.18-2.16a58.87,58.87,0,0,0,19.54-13.44,200.72,200.72,0,0,0,15.8-18.75,56.67,56.67,0,0,0,5.69-10.1l2.16-5.47.13-.34c0-.13.08-.19.15-.41.13-.38.25-.78.36-1.19a23.16,23.16,0,0,0,.57-2.57A21.74,21.74,0,0,0,727.13,884.06Z" style="fill:#ff3366;"/><path d="M101,762.59c1-.41,2.14-.83,2.08-1.44l-.19-2.51c0-.29-.2-.56-.94-.67-.9-.13-.54-.33-.2-.66,1.58-1.55.9-2.87-.43-3.82a3.53,3.53,0,0,0-1.36-.06c-.87.06-.87,0-.15-.37,2.56-1.29,2.48-1.89-.05-1.92-.49,0-.75,0-.2-.31,2.44-1.38,2.18-1.65-1.07-1.7,1.23-.57,2.21-1.08,2.14-1.51s-1.89-.32-2.22-.59,1.78-1,1.82-1.53-2.92-.2-2.07-.75c1-.67,1.63-1.2,1.49-1.66a5.93,5.93,0,0,1-.34-1.52c0-.67-.75-1.09-3.55-.73,4.09-1.86,3.91-2.64-.38-2.36,3.77-1.93,3.59-2.6-.73-2.32,1.26-.6,2.57-1.3,2.44-1.66-.38-1.1.51-2.85-2.19-3-.24,0-.41,0-.17-.24,1.82-1.64.75-2-2.1-1.36,1.27-.93,2.05-1.72,1.82-2.17-.38-.8-.38-2-1.5-2.35a1.84,1.84,0,0,1-1.35-2,2.19,2.19,0,0,0-.53-1.41,2.48,2.48,0,0,0-1.4-.71,2.19,2.19,0,0,1-2-1.77,2.19,2.19,0,0,0-1-1.36,2.46,2.46,0,0,0-1.67-.28,2,2,0,0,1-2.31-1,2.09,2.09,0,0,0-2.58-.87,2.46,2.46,0,0,1-2.79-.5c-.91-.75-2.15-.2-3.27-.12-.71.09-1.25.73-1.21,2.3,0,1.06-.06.94-.59.2-1.76-2.53-3.5-1.67-2.56,1.29.31,1,.17.86-.56.3-1.17-.9-2-.88-2.51-.48-.41.28-.1,1.11.3,1.8s.79,1.26.47,1.21c-1.19-.19-2.73-.6-3.11.15-.38.9-1.31,1.62-1,2.66s.38,1.83-.82,2.35c0,0,0,0,0,.07-.19.52,2,1.34,1.85,1.62s-2.32.23-2.37.79c-.05.9-.76,1.77-.16,2.67a1.35,1.35,0,0,1-.18,2,1.71,1.71,0,0,0-.1,2.52,1.33,1.33,0,0,1,0,2,1.57,1.57,0,0,0,.05,2.38c.78.7.62,1.32.06,2.06a1.42,1.42,0,0,0,.2,2.15c.86.69.68,1.39.15,2.18s0,1.38.08,2a.54.54,0,0,0,.22.3l5.32-.51h0l-5.39.52a.49.49,0,0,0,0,.12c0,.82-.41,1.72.37,2.42s.92,1.22.29,2.07.18,1.35.22,2.06.79,1.17,3.54.86c-3,1.36-3.87,2.51-1.9,2.49s2,.18.41,1.27-.29,1.46,2.79,1.06c-1.48.91-2.5,1.77-2.24,2.31.36.81.36,1.91,1.37,2.37a1.73,1.73,0,0,1,1.19,1.89A2.17,2.17,0,0,0,70.1,771c1,.2,1.49.58,1.55,1.67a1.3,1.3,0,0,0,.64,1,5,5,0,0,1,1.09.76c.61.72,1.69.59,3.44-1.52-1.42,4.23-.09,4.9,2.36,1.23-.95,4.56,1.05,4.44,2.55.78-.09,1.31-.15,2.92.31,3,.71.2,1.42.63,2.18.78s1.58-.15,2.24-1.39c.16-.31.25-.13.4.1C88,779.34,88.68,779,89,775.9c.56,1.22,1.24,2.41,1.87,2.21a20.54,20.54,0,0,0,3.19-1.16c.38-.2.5-.82.3-1.71-.16-.73-.17-.93.49-.44,2,1.43,2.9.57,1.58-2-.46-.89-.35-.85.45-.34,1.22.77,2,.76,2.46.33s0-1.08-.47-1.72-.89-1.18-.61-1.13c1.37.24,2.87.43,3.13-.38.18-.48.51-.9.73-1.36a1.55,1.55,0,0,0,.1-1.49,2,2,0,0,1-.21-1.41,2.69,2.69,0,0,1,.83-1.14C103.51,763.56,100.24,762.89,101,762.59Z" style="fill:#5020ee;"/><path d="M208.43,958.46a2.43,2.43,0,0,0,.55-1.8,15.49,15.49,0,0,0-2-5.81,2,2,0,0,0-1.87-1.14c-1.09.11-1-.42-1.3-1.18A6.24,6.24,0,0,0,200.6,945a6.82,6.82,0,0,0-3.67-.55c-.26,0-.71.54-1.06,1-.55.7-.66.64-.6-.19.1-1.48.12-2.28-.13-2.49s-.76.12-1.88.85c-.44.29-.67.41-.45-.21s.44-1.18.52-1.51.1-.56,0-.65c-.31-.15-1.12.11-2.77.52.87-1.08,1.64-1.91,1.41-2.42-.1-.27-.61-.3-1.15-.33a2.58,2.58,0,0,1-1.31-.26c-.43-.39,1.55-1.55,1.5-2.21s-3-.59-2.21-1.37c1-.89,1.6-1.58,1.47-2.34a11.25,11.25,0,0,1-.2-2.48c.07-1.08-.56-2-3.38-2.52,2.19-.76,3.3-1.41,3.33-2.08s-1-1.42-3.1-2.21c4.16-1.52,4.17-2.57,0-4.4,1.38-.35,2.85-.8,2.84-1.46,0-2.06,1.45-4.17-1-6.17-.21-.18-.36-.31-.05-.49,2.34-1.35,1.49-2.53-1.35-3.59,1.56-.5,2.62-1,2.62-1.84,0-1.45.64-2.94-.11-4.32a3.54,3.54,0,0,1,.06-3.56,4.5,4.5,0,0,0,0-4.09,3.54,3.54,0,0,1,.05-3.66,4.32,4.32,0,0,0-.09-4.34,4.87,4.87,0,0,1-.35-4.09,5.34,5.34,0,0,0-.88-4.63,7.32,7.32,0,0,1-1.62-4.45c-.13-1.73-1.51-3-2.53-4.36-.61-.82-1.64-1.17-3.13-.48-1,.45-1,.26-.69-.66,1-3.09-1-4.51-3.67-2.54-.87.66-.88.44-.87-.52a2.57,2.57,0,0,0-1.71-2.74c-.75-.24-1.58.39-2.17,1s-1.06,1.33-1.32,1l-.78-.87a5.61,5.61,0,0,0-.91-.75,2.46,2.46,0,0,0-2.29-.4c-2.14.65-4.47,1.62-5.4,3.4-.23.45-.46.88-.67,1.28a7,7,0,0,1-.62,1.1,4.87,4.87,0,0,1-1.87,1.65s-.05.08-.08.12c-.54.92,1.28,2.48,1,3s-2.59.32-2.86,1.3c-.25.82-.63,1.59-.9,2.38a4.51,4.51,0,0,0-.3,2.41,4.12,4.12,0,0,1-.75,3.58,4.89,4.89,0,0,0-.68,4.55,4,4,0,0,1-.33,3.61,4.51,4.51,0,0,0-.33,4.35,3.84,3.84,0,0,1-.22,3.77,4.18,4.18,0,0,0-.07,4,4.08,4.08,0,0,1-.11,4c-.56,1.21-.21,2.5-.19,3.64a1.17,1.17,0,0,0,.17.55h-.07a1.22,1.22,0,0,0-.06.2c-.18,1.41-.73,2.87-.11,4.28a3.53,3.53,0,0,1-.14,3.65c-.69,1.1-.09,2.38-.22,3.57s.52,2.25,3.28,2.86c-3.17,1.15-4.3,2.58-2.37,3.44s1.9,1.26.14,2.3-.59,2.18,2.57,3.21c-1.63.7-2.84,1.51-2.67,2.51.22,1.49,0,3.16.95,4.47a4.42,4.42,0,0,1,.87,3.59,5.34,5.34,0,0,0,1.49,4.53,3.92,3.92,0,0,1,1.41,3.46c-.15,1.41,1,2.36,1.52,3.58s1.68,2,4.39,1.1c-2.8,3.73-1.65,5.24,2.64,3.74-2.63,4-.34,5.47,3.17,3.38-.61,1.21-1.34,2.7-.79,3.24s.85.87,1.26,1.35a8.47,8.47,0,0,0,1.32,1.32,4.48,4.48,0,0,0,1.65.86,4.26,4.26,0,0,0,2.17-.11c.39-.12.42.12.5.45.68,2.45,1.64,2.66,4.13.42a8.71,8.71,0,0,0,.25,2,1.58,1.58,0,0,0,1,1.15,28,28,0,0,0,5.2,1.21,1.93,1.93,0,0,0,1.8-1.18c.41-.7.59-.85,1-.08,1.39,2.38,3.11,2.05,3.94-.81.29-1,.42-.92.93-.08a2.49,2.49,0,0,0,2.72,1.43c.69-.12,1-1.1,1.22-1.94s.2-1.63.5-1.47c1.42.76,3,1.45,4.13.49.35-.31.72-.54,1.11-.85s.8-.62,1.17-1a7.74,7.74,0,0,0,.95-1.12,3.8,3.8,0,0,0,.52-1.32,8.53,8.53,0,0,1,2.24-4.6c.44-.58-.08-1.29-.66-1.85s-1.15-1-.72-1.36A11,11,0,0,0,208.43,958.46Z" style="fill:#5020ee;"/><path d="M293.66,959.85a11,11,0,0,0,1.47-1.4,2.43,2.43,0,0,0,.55-1.8,15.48,15.48,0,0,0-2-5.81,2,2,0,0,0-1.87-1.14c-1.09.11-1-.42-1.3-1.18A6.24,6.24,0,0,0,287.3,945a6.82,6.82,0,0,0-3.67-.55c-.26,0-.71.54-1.06,1-.55.7-.66.64-.6-.19.1-1.48.12-2.28-.13-2.49s-.76.12-1.88.85c-.44.29-.67.41-.45-.21s.44-1.18.53-1.51.1-.56,0-.65c-.31-.15-1.11.11-2.77.52.87-1.08,1.64-1.91,1.41-2.42-.1-.27-.61-.3-1.15-.33a2.58,2.58,0,0,1-1.31-.26c-.43-.39,1.55-1.55,1.5-2.21s-3-.59-2.21-1.37c1-.89,1.6-1.58,1.47-2.34a11.25,11.25,0,0,1-.2-2.48c.07-1.08-.56-2-3.38-2.52,2.19-.76,3.3-1.41,3.33-2.08s-1-1.42-3.1-2.21c4.16-1.52,4.17-2.57,0-4.4,1.38-.35,2.85-.8,2.84-1.46,0-2.06,1.45-4.17-1-6.17-.21-.18-.36-.31-.05-.49,2.34-1.35,1.49-2.53-1.35-3.59,1.56-.5,2.62-1,2.62-1.84,0-1.45.64-2.94-.11-4.32a3.54,3.54,0,0,1,.06-3.56,4.5,4.5,0,0,0,0-4.09,3.54,3.54,0,0,1,.05-3.66,4.32,4.32,0,0,0-.09-4.34,4.87,4.87,0,0,1-.35-4.09,5.35,5.35,0,0,0-.88-4.63,7.32,7.32,0,0,1-1.62-4.45c-.13-1.73-1.51-3-2.53-4.36-.61-.82-1.64-1.17-3.13-.48-1,.45-1,.26-.69-.66,1-3.09-1-4.51-3.67-2.54-.87.66-.88.44-.87-.52a2.57,2.57,0,0,0-1.71-2.74c-.75-.24-1.58.39-2.17,1s-1.06,1.33-1.32,1l-.78-.87a5.6,5.6,0,0,0-.91-.75,2.46,2.46,0,0,0-2.29-.4c-2.14.65-4.47,1.62-5.4,3.4-.22.45-.46.88-.67,1.28a7,7,0,0,1-.62,1.1,4.88,4.88,0,0,1-1.87,1.65s-.05.08-.08.12c-.54.92,1.28,2.48,1,3s-2.59.32-2.86,1.3c-.25.82-.63,1.59-.9,2.38a4.5,4.5,0,0,0-.3,2.41,4.12,4.12,0,0,1-.75,3.58,4.89,4.89,0,0,0-.68,4.55,4,4,0,0,1-.33,3.61,4.51,4.51,0,0,0-.33,4.35,3.84,3.84,0,0,1-.22,3.77,4.18,4.18,0,0,0-.07,4,4.08,4.08,0,0,1-.11,4c-.56,1.21-.21,2.5-.19,3.64a1.16,1.16,0,0,0,.17.55h-.07a1.17,1.17,0,0,0-.06.2c-.18,1.41-.73,2.87-.11,4.28a3.54,3.54,0,0,1-.14,3.65c-.69,1.1-.09,2.38-.22,3.57s.52,2.25,3.28,2.86c-3.17,1.15-4.3,2.58-2.37,3.44s1.9,1.26.14,2.3-.59,2.18,2.57,3.21c-1.63.7-2.84,1.51-2.67,2.51.22,1.49,0,3.16.95,4.47a4.42,4.42,0,0,1,.87,3.59,5.34,5.34,0,0,0,1.49,4.53,3.92,3.92,0,0,1,1.41,3.46c-.15,1.41,1,2.36,1.52,3.58s1.68,2,4.39,1.1c-2.8,3.73-1.65,5.24,2.64,3.74-2.63,4-.34,5.47,3.17,3.38-.61,1.21-1.34,2.7-.79,3.24s.85.87,1.26,1.35a8.47,8.47,0,0,0,1.32,1.32,4.48,4.48,0,0,0,1.65.86,4.26,4.26,0,0,0,2.17-.11c.39-.12.42.12.5.45.68,2.45,1.64,2.66,4.13.42a8.74,8.74,0,0,0,.25,2,1.57,1.57,0,0,0,1,1.15,28,28,0,0,0,5.2,1.21,1.93,1.93,0,0,0,1.8-1.18c.41-.7.59-.85,1-.08,1.39,2.38,3.11,2.05,3.94-.81.29-1,.42-.92.93-.08a2.49,2.49,0,0,0,2.72,1.43c.69-.12,1-1.1,1.22-1.94s.2-1.63.5-1.47c1.42.76,3,1.45,4.13.49.35-.31.72-.54,1.11-.85s.8-.62,1.17-1a7.75,7.75,0,0,0,.95-1.12,3.81,3.81,0,0,0,.52-1.32,8.52,8.52,0,0,1,2.24-4.6c.44-.58-.08-1.29-.66-1.85S293.23,960.19,293.66,959.85Z" style="fill:#5020ee;"/><path d="M292.7,772.86c4.21-4.48,4.22-7.62,0-12.89,1.37-1,2.81-2.43,2.78-4.37-.15-6.06,1.12-12.36-1.68-18.14a1.46,1.46,0,0,1-.15-1.45c2-4.22.75-7.92-2.59-10.55a8,8,0,0,0,1.4-2.81,6.75,6.75,0,0,0,.22-1.59,8,8,0,0,0-.24-1.77,69,69,0,0,0-2-6.84,30.41,30.41,0,0,0-1.5-3.3,17.08,17.08,0,0,0-2-2.95c-2.87-3.25-5.17-6-8.27-9.13a19.2,19.2,0,0,0-2.78-2.25q-.76-.5-1.55-1c-.54-.29-1.09-.54-1.65-.79a21.24,21.24,0,0,0-6.8-1.76,95.68,95.68,0,0,1-11.7-1.32,26.69,26.69,0,0,0-12.56.82,31.57,31.57,0,0,1-10.72,1.49,36.31,36.31,0,0,0-11.51,1.64,30.36,30.36,0,0,1-10.89,1.56c-3.69-.1-7.49,1-11.25,1.5-2.23.3-4.09,1.11-5.17,2.82-.72,1.14-1.13,1-2.23.33-3.67-2.4-7.41-1.86-10.25,1.52-.94,1.12-1.32,1-2.25.23a7.23,7.23,0,0,0-5.47-1.27,7,7,0,0,0-3.77,2.07c-1,.9-1.73,1.79-2.4,1.63-1.24-.27-2.41-.7-3.66-.87a10,10,0,0,0-1.94-.12,8.48,8.48,0,0,0-1,.11,8.82,8.82,0,0,0-1.1.33c-3.8,1.28-8.08,2.69-11.2,5.54l-1.18,1.07c-.39.34-.74.76-1.11,1.12l-1.1,1.09a14.1,14.1,0,0,0-1.08,1.08c-.69.75-1.42,1.46-2.19,2.15A26.32,26.32,0,0,1,137.8,718a1.89,1.89,0,0,0-.23.3,6.19,6.19,0,0,0-.83,3.59c0,1.13.26,2.14-.15,2.9a4.42,4.42,0,0,1-.94,1.18c-.34.37-.75.72-1.15,1.12a9.46,9.46,0,0,0-1.18,1.33,5.17,5.17,0,0,0-.49.82,5.36,5.36,0,0,0-.29,1c-.22,1.17-.54,2.35-.74,3.52l-.55,3.51c-.13,1.16-.17,2.31-.19,3.45,0,.56,0,1.15,0,1.68s.11,1,.2,1.53a26.36,26.36,0,0,1-.06,9.77,36.76,36.76,0,0,0-.07,12.57,28.15,28.15,0,0,1,0,10.07,34.81,34.81,0,0,0-.07,12.25,28.53,28.53,0,0,1-.09,10.71,33,33,0,0,0,0,11.32,32.17,32.17,0,0,1-.09,11.61c-.56,3.57-.2,7.36-.16,11.05a10.57,10.57,0,0,0,.18,1.79l5.34,0h0l-5.41,0c0,.18-.05.35-.06.53-.12,3.82-1,7.91-.46,12.05a68.33,68.33,0,0,1,.36,11.41,14.11,14.11,0,0,0,.27,2.92,24.94,24.94,0,0,0,.88,3c.44,1,.83,2,1.36,2.93s1,1.92,1.63,2.79a12,12,0,0,0,1.89,2.42,9.11,9.11,0,0,0,2.19,1.68,6.24,6.24,0,0,0,4.83.58,9.56,9.56,0,0,0,3.08,5.55,5.81,5.81,0,0,0,5,1.45,7.83,7.83,0,0,1,3.77-.24,7.38,7.38,0,0,1,3.06,2.12c2.31,2.29,6.33,1.78,10.45-1.16a7.21,7.21,0,0,0,6.49,2.69c4.48-.41,9.28-1,13.27-3.07,3.44-1.89,6.38-3.32,10-5.15a20.33,20.33,0,0,0,6-4.65,19.08,19.08,0,0,0,3.86-6.69c1.27-3.93,2-7.07,3.46-10.73,1.28-3.41.88-7.38,1-10.92.17-3.8-.66-6.88-3.5-8.66,2-2.37,3-4.55,2.87-6.57s-1.3-3.91-3.47-5.92a10.9,10.9,0,0,0,2.46-3.06,7.63,7.63,0,0,0,.84-3.14,8.32,8.32,0,0,0-2.4-5.9c1.49-.77,3.28-1.39,3.79-2.81a9.81,9.81,0,0,1,1.63-2.87,6.87,6.87,0,0,1,1.75-1.5,23.28,23.28,0,0,1,4.36-1.84c.52-.18.69.13.92.47.8,1.47.84,2.13,1.39,2.54a38,38,0,0,0,3.67,2c-.86,1.67-1.86,3.06-1.63,5.17.4,3.67.17,7.76.38,12.35a6.23,6.23,0,0,0,1.53,3.93,1.72,1.72,0,0,1,.25,2.52c-2.15,3.67-1.81,6.82,1,9.69,1,1,.92,1.39,0,2.26a7.14,7.14,0,0,0-1.81,5.31c0,3,3.34,5.32,2.85,6.28a19.05,19.05,0,0,0-1.62,3.58,9,9,0,0,0-.11,4.6,38.74,38.74,0,0,0,2,6.57,14.77,14.77,0,0,0,4.07,5.66l1.39,1.09,1.38,1,1.37.94,1.3.82c1.69,1.14,3.41,2.15,5.23,3.24a4.33,4.33,0,0,0,2.17.49,7.41,7.41,0,0,0,2-.43c1.24-.37,2.25-.92,3.15-.38,2.22,1.21,4.31,2.46,7.2,2.3a82.09,82.09,0,0,0,11.86-1.72,6.11,6.11,0,0,0,3.47-1.7c1.2-1.31,2.18-1.13,3.93-1.66a12.37,12.37,0,0,0,3-1.23,17.31,17.31,0,0,0,2.65-1.91,17.66,17.66,0,0,0,3.7-5,25,25,0,0,0,2.38-10.81,3.85,3.85,0,0,0-1-2.21c-.74-.9-.7-1.24.19-2.16a8.18,8.18,0,0,0,2.56-4.85,8.84,8.84,0,0,0-1.49-5.26c-.44-.77-.67-1.09,0-2,2.92-4.19,2.85-6.38-.08-10.83a8.33,8.33,0,0,0,2.72-5.5c.16-2.49-1.56-4.09-1.73-5.92s2.14-3.34,2.42-5.92c.29-2.75-2.58-4.63-1.54-6.47a14.48,14.48,0,0,0,2.13-6.91c.08-2.75.14-5.51.34-8.25.26-3.48-.24-6.51-3-8.36C296.75,781.34,296.84,777.52,292.7,772.86Z" style="fill:#382d15;"/><path d="M394.65,290.75c-.15-2-.43-4-.58-5.92l-.47-5.75c-.35-3.87-.72-7.79-1.51-12.14-.19-1.22-.54-2.47-.85-3.73-.19-.63-.4-1.26-.61-1.9l-.32-1-.4-1a27.22,27.22,0,0,0-4.46-7.42,22.36,22.36,0,0,0-7.19-5.66q-1-.48-2.08-.91c-.69-.27-1.41-.43-2.11-.64a18.17,18.17,0,0,0-4.36-.71,19.49,19.49,0,0,0-8.52,1.46,20.81,20.81,0,0,0-6.55,4.49,39.86,39.86,0,0,0-7.78,11.75,49.77,49.77,0,0,0-3.9,13.57,46.25,46.25,0,0,0-.48,7.16l0,.91,0,.8.09,1.57q.1,1.56.23,3.09c.19,2.27.32,4.49.37,6.65s0,4.32-.1,6.19a20.67,20.67,0,0,1-.44,2.75c-.23,1.16-.42,2.37-.59,3.5-.34,2.29-.62,4.5-.93,6.77-.25,2-.47,4.11-.61,6.19s-.25,4.22-.35,6.2c0,.52-.06,1-.09,1.48s-.06,1-.1,1.42-.06.65-.09.92a10.35,10.35,0,0,0-1,1.1,14.65,14.65,0,0,0-.89,1.49,22.87,22.87,0,0,0-1.4,4,33.61,33.61,0,0,0-.8,4.39h-.07c-.1.41-.21.79-.3,1.22-1.88,8.87-4.86,17.64-7.35,25.86a64.93,64.93,0,0,1-9.91,20.32c-4.16,5.6-8,12.58-12.46,18.51S297.69,419,296.93,424a49.88,49.88,0,0,0-9.76,5.65c-.72.54-1.39,1.13-2.06,1.69a25.21,25.21,0,0,0-1.89,1.72,25.57,25.57,0,0,0-3,3.73,18.18,18.18,0,0,1-4.69,5.37,17,17,0,0,1-6.49,2.76,16,16,0,0,0-2,.65c-.67.27-1.34.58-2,.88a25.25,25.25,0,0,0-4.19,2.44,48,48,0,0,0-4.5,3.22c-.76.65-1.6,1.22-2.43,1.87s-1.7,1.33-2.58,2.05l-2.77-.34a23.67,23.67,0,0,0-3-.11l-6.75.42c-4,.27-8.4-.38-13.19-.86s-10.1-.71-15.28.66l-5.67,1.59-5.4,1.45c-3.59.93-7.2,1.8-11.11,2.73a99.45,99.45,0,0,0-27.18,10.91c-6.83,4.11-12.55,7.53-19.68,11.15-6.59,3.33-13,8.71-19.12,13.55a55.08,55.08,0,0,0-4.54,3.89q-1,1-2,1.95c-.62.65-1.18,1.33-1.72,2a28.57,28.57,0,0,0-2.71,3.91,16.46,16.46,0,0,0-1.51,3.88C99.3,517,93,524.53,90.89,534.91a26.56,26.56,0,0,0-6.22,4.8,34.9,34.9,0,0,0-4.79,6.6c-2.52,4.69-4,9.64-3.8,13.62a34.72,34.72,0,0,0-3.65,2.85,16.19,16.19,0,0,0-1.79,2,17,17,0,0,0-1.56,2.64c-3.09,6.32-6.3,12.72-8.95,19.3a78.4,78.4,0,0,0-5.5,20.19,9,9,0,0,1-1.2,3.67,41.31,41.31,0,0,0-4.2,11.58c-.68,3.37-.41,6.75.19,11.29-.49.82-1,1.65-1.46,2.51s-.86,1.79-1.25,2.79a31.56,31.56,0,0,0-1.86,7.09c-.29,2.43-.5,4.87-.75,7.31l-.37,3.66c-.09,1.22-.13,2.45-.2,3.67l-.38,7.35v7.36a23.56,23.56,0,0,0,1.65,9.23,8.18,8.18,0,0,1,.48,5.84,43.29,43.29,0,0,0-.63,6.12,25.89,25.89,0,0,0,.36,5.76,30,30,0,0,0,3.89,10.3c1.42,2.24,1.5,3.06,1.08,5.2-.6,3.25.06,7.86,2.85,12.94A17,17,0,0,0,56.46,735a18.34,18.34,0,0,0,4.43,2.8c2.87,1.26,5.16,1.55,6.19,2.25a20,20,0,0,0,4.07,2.18,16.39,16.39,0,0,0,4.78,1.12,15.58,15.58,0,0,0,5.62-.66,14.89,14.89,0,0,0,2.9-1.32c.47-.28,1-.56,1.43-.88s.9-.73,1.36-1.13a22.16,22.16,0,0,0,5.09-7,31,31,0,0,0,2.27-7.5,41.53,41.53,0,0,0,0-13.51,96.33,96.33,0,0,1-1.52-11.65,81,81,0,0,1,.15-11.14c.46-5.85-2.73-9.67-1.81-13.52,1.15-4.74,2.58-8.65,3.12-14.31a210.43,210.43,0,0,1,3.83-24.18,28.61,28.61,0,0,0,.91-7.93c-.24-2.69.54-4.24,1.69-6.93,2.7-6.32,5.3-12.54,8.32-18.42a183.77,183.77,0,0,1,10-17.77,12.8,12.8,0,0,0,1.59-3.73,3.26,3.26,0,0,1,1-1.73,3.13,3.13,0,0,1,1.94-.63c.74,0,1.33.12,1.47.39.06,0,0,.14,0,.19a.27.27,0,0,1-.07.17l-.06.05.06.12a1.34,1.34,0,0,0,.11.19c.07.12.08.28.14.34a1.35,1.35,0,0,0,.14.38,4.54,4.54,0,0,0,.21.46c.07.22.19.33.29.59a92.9,92.9,0,0,1,3.46,8.9,5.48,5.48,0,0,1,.16,4.36c-1.46,4.68-2.43,8.16-2.69,11.76a44.77,44.77,0,0,0,1.1,12.39,28.7,28.7,0,0,0-1.19,2.69c-.19.47-.35,1-.5,1.54l-.21.9-.17.8a34.29,34.29,0,0,0-.67,7.22c0,5.68,1.9,9.07,2.24,13.19.33,3.95-1.79,7.87-1.79,13.74,0,6.26,3.08,10.1,2.26,14.4a68,68,0,0,0-1.35,15.87c.25,5.9-.18,11.89-.42,18.36a35,35,0,0,0,1.21,11.68q.2.65.41,1.27c.15.41.35.82.54,1.21a19.82,19.82,0,0,0,1.18,2.16,16.41,16.41,0,0,0,1.47,1.74,6.67,6.67,0,0,0,1.59,1.27,16.08,16.08,0,0,0,.83,4.27q.35,1,.77,2c.32.63.69,1.24,1.07,1.85a20.25,20.25,0,0,0,1.2,1.77q.68.78,1.42,1.52c.49.49,1,1,1.52,1.43s1.1.78,1.66,1.15,1.15.72,1.73,1.06a17.39,17.39,0,0,0,1.8.82,21.33,21.33,0,0,0,3.79,1.2,26,26,0,0,0,4,.58,31.35,31.35,0,0,0,4.25-.06,27.28,27.28,0,0,0,13.71,5.8c4.71.53,9.68-.27,15.74-2.23a17.74,17.74,0,0,0,9.84,2.92c13.93-.11,28.17-.11,41-3.7a6.7,6.7,0,0,1,3.19-.34,55.56,55.56,0,0,0,6.42.72,36.54,36.54,0,0,0,6.1-.2A27.53,27.53,0,0,0,264,744.6a18.11,18.11,0,0,0,6.15.4,19.49,19.49,0,0,0,7.48-2.41,42.4,42.4,0,0,0,7-4.69,31,31,0,0,0,5.87-6.51,29.47,29.47,0,0,0,3.69-7.82,32.15,32.15,0,0,0,1.34-7.9c.2-4.65,0-8.71-.17-12.66s-.29-7.77-.2-11.74c0-2.13.1-4.24.19-6.36s.16-4.52.21-6.79c.07-4.55,0-9.11-.16-13.45a144,144,0,0,1,.85-24,130.91,130.91,0,0,0,.27-27.26c-.25-2.15-.39-4.23-.56-6.28s-.26-4.07-.32-6A110.46,110.46,0,0,1,296,589.3c.63-8.37,1.28-17.45,1.63-25.67a81,81,0,0,1,1.4-12.08c.36-1.94.83-3.9,1.35-5.8.28-.93.55-1.86.86-2.8l1-2.81a185.57,185.57,0,0,1,10.24-22.31c2.46-4.34,4.26-8.4,4.46-11.75.13-2.24.71-2.92,2.59-4.42a30,30,0,0,0,4.32-4.23,32.8,32.8,0,0,0,3.41-4.94,31.93,31.93,0,0,0,3.82-11.35c.35-2.64.91-3.26,2.58-4.45,2.64-1.87,5.08-5.23,7.5-9.45,3.35-5.85,2.87-11.94,4.65-14.1,3.28-4,6.49-6.83,9.39-12.8,3.68-7.57,7.9-15.24,10.63-22.9,2.79-7.87,5.45-15.08,9.28-22.2a6,6,0,0,0,.26-.67,22.36,22.36,0,0,0,1.33-6.81,18.11,18.11,0,0,1,.79-5.51,28.51,28.51,0,0,1,2.95-5.24,23.1,23.1,0,0,0,3.09-6.52c2.69-9.32,5.67-19,6.74-28.3l.69-5.71.75-5.47c.25-1.81.55-3.61.87-5.46s.61-3.74,1-5.7A107.09,107.09,0,0,0,394.65,290.75Zm-53.23,39s0,0,0,0l-.06,0-.13.08h0Z" style="fill:#ff3366;"/><path d="M417.68,236.83c-.28-.25-.08-.34.18-.49,1-.59,1.42-1.08,1.23-1.55s-1-.94-2.5-1.45c1.28-.46,2.54-1,2.48-1.78l-.22-1.95-.33-1.93c-.1-.47-.68-.78-1.6-.88-.76-.08-1-.15-.32-.69,1.92-1.65,1.38-2.74-1.5-2.52-1,.08-.94,0-.19-.64,1.16-.92,1.35-1.68,1.13-2.36-.15-.47-1-.49-1.86-.42s-1.51.23-1.36,0c.7-1.28,1.4-2.66.63-3.42-.44-.47-.83-1-1.26-1.55a2.56,2.56,0,0,0-1.69-1,3.31,3.31,0,0,1-2.89-2c-.27-.45-.91,0-1.46.47s-1,1-1.12.5c-.21-1.14-.37-2.4-1.16-2.62-1.12-.3-2.18-.57-3.23-.83-.37-.09-.77,0-1.17.63s-.61.38-.9-.06c-1.36-2.05-3.17-1.88-5-1a3,3,0,0,0-.64,1.26c-.29.84-.37.81-.55,0-.62-2.87-1.43-3-2.6-.63-.23.46-.32.7-.54.08-1-2.75-1.69-2.59-2.88.54-.38-1.32-.81-2.4-1.49-2.44s-1.07,1.79-1.54,2.06-1-1.95-1.7-2.05-1,2.87-1.61,2c-.69-1.11-1.33-1.73-2-1.64a16.58,16.58,0,0,1-2.25.25c-1,0-1.71.73-1.69,3.58-1.88-4.18-3.08-3.92-3.32.42-2.09-3.76-3.12-3.52-3.27.91-.65-1.24-1.45-2.55-2-2.36-.79.29-1.72.21-2.53.47a2.42,2.42,0,0,0-1.1.68,2.46,2.46,0,0,0-.41.64,4.58,4.58,0,0,0-.44,1c-.08.28-.13.47-.45.29-1.2-.67-2.12-.52-2.5.12s-.28,1.77.39,3.14c-1.44-.78-2.67-1-3.21-.31-.94,1.21-2.3,2.32-2.16,3.86a3.44,3.44,0,0,1-1.21,3.1,3.24,3.24,0,0,0-.8,3.49,2.63,2.63,0,0,1-.5,3,2.66,2.66,0,0,0-.3,3.31,2.44,2.44,0,0,1-.11,2.91,2.77,2.77,0,0,0,0,3.12,2.39,2.39,0,0,1,.07,2.91c-.59,1,0,2,0,3,0,.58.58,1.05,2.13,1.29,1,.16.9.26,0,.57-2.84,1-2.77,2,.22,2.61,1,.2.82.31-.05.57-1.37.43-1.87.83-1.95,1.43-.11.84,3.2,1.19,2.67,1.56-1,.69-2.47,1.4-2.27,2.28.26,1.09,0,2.46.95,3.46s1.66,1.88,1.41,3.52c0,0,0,.07.05.11.18.41.88.41,1.51.35s1.22-.18,1.34.05c.25.5-1.06,2.29-.33,2.93,1.14,1.05,2.08,2.5,3.61,2.62a4.43,4.43,0,0,1,1.59.4,4.16,4.16,0,0,1,1.23,1.11,3.62,3.62,0,0,0,1.84,1.29,3.91,3.91,0,0,0,2.29,0,5.41,5.41,0,0,1,1.81-.21,5.56,5.56,0,0,1,1.75.53,4.31,4.31,0,0,0,2.29.42,3.74,3.74,0,0,0,2.13-1,5.21,5.21,0,0,1,3.7-1.42,4.13,4.13,0,0,0,2.87-1.49,3.86,3.86,0,0,0,.51-1,5.82,5.82,0,0,1,2.76-3.2,3.65,3.65,0,0,0,1.23-1.56c.29-.6.42-1.26.65-1.86,0-.12-.06-.28-.05-.4l-5-1.86h0l5,1.86a1.07,1.07,0,0,0,.27-.37c.55-1.22,1.32-2.34.91-3.44s-.3-1.71.59-1.95.34-.61.55-.7-.25-.5-1.56-3c1.16,1.14,1.85,2,2.24,2.32s.46.08.2-.81c-.43-1.79,0-1.9.43-.11s0,.67,1.35-2.14c0,1.73-.17,3,.36,3.16.78.22,1.77,1.12,3.27.81a4.87,4.87,0,0,1,1.81-.09,5.07,5.07,0,0,1,1.77.57,4,4,0,0,0,4.26-.36,3.34,3.34,0,0,1,3.21-.83c1.28.29,2.19-.8,3.28-1.24s1.78-1.7.51-4.19c1.87,1.27,3.22,1.49,3.77,1s.19-1.87-1.11-3.65c2.15.9,3.46.66,3.81-.08s-.38-2-2-3.16c1.31.25,2.92.48,3.18-.12a30.2,30.2,0,0,0,1.33-2.77A2.8,2.8,0,0,0,417.68,236.83Z" style="fill:#5020ee;"/><path d="M260.11,412.7c3.21-.94,4.32-2.54,2.34-3.27s-2-1-.32-2.22.27-2.32-3-2.59c1.47-1,2.47-2,2.06-3-.28-.7-.54-1.44-.84-2.16a4.06,4.06,0,0,0-1.46-1.78,5.77,5.77,0,0,1-1.42-1.23,5.92,5.92,0,0,1-.86-1.68,4.69,4.69,0,0,0-3.58-3.1,6.44,6.44,0,0,1-1.79-.58,4,4,0,0,1-1.34-1.32c-.76-1.18-2.28-1.11-3.41-1.63s-2.54-.21-3.64,2.39c-.65-4.59-2.6-4.7-4-.45-.58-2.3-1.49-3.21-2.29-3.1s-1.5,1.38-1.72,3.37c-.51-1.26-1.18-2.74-1.87-2.64-.54.07-1.1.08-1.67.13a7.81,7.81,0,0,0-1.7.22,3.8,3.8,0,0,0-1.52.79,3.74,3.74,0,0,0-1,1.77c-.1.37-.29.26-.59.14-2.27-.93-2.92-.2-2.26,3-1.15-.75-2.42-1.42-3.11-.82a29.18,29.18,0,0,0-3.26,3.25c-.38.42-.3,1.11.17,1.94s.44.9-.41.77c-2.58-.38-3.12.83-1.25,3,.65.77.51.81-.42.61-1.42-.31-2.21,0-2.62.61-.58.87,2.06,2.91,1.48,3-1.49.16-3,.29-3.23,1.27-.3,1.18-1.32,2.23-.86,3.52a2.76,2.76,0,0,1-.84,3.2c-.73.76,2.46,1.84,1.61,2.23-1.06.5-2.25.93-2.32,1.75l-.27,3.52c0,.42.1.84.8,1.17.86.4.46.61.07,1-1.83,1.9-1.36,4-.14,5.93a2.64,2.64,0,0,0,1.35.48c.88.14.87.25.11.58-2.7,1.19-2.72,2-.18,2.91.49.18.75.25.17.58-2.58,1.48-2.35,2.13.91,3.1-1.27.57-2.3,1.14-2.26,1.87s1.89,1,2.2,1.51-1.84,1.21-1.91,2,2.93,1,2.06,1.66c-1.07.81-1.68,1.52-1.55,2.28a16.57,16.57,0,0,1,.32,2.44c0,1,.75,1.86,3.6,1.93-4.16,2-4,3.16.4,3.73-3.84,2.07-3.63,3.08.79,3.72-1.28.59-2.61,1.32-2.47,1.89.43,1.76-.45,4,2.41,5.08.25.09.42.16.18.4-1.84,1.87-.66,2.73,2.34,2.6-1.3,1-2.11,1.84-1.8,2.55.51,1.26.6,2.9,1.93,3.76a3.71,3.71,0,0,1,1.31,1.33,5.24,5.24,0,0,1,.63,1.83,4.7,4.7,0,0,0,3.24,3.44,9,9,0,0,1,4,2.5,6.28,6.28,0,0,0,1.21.87,5.37,5.37,0,0,0,1.45.45,4.7,4.7,0,0,0,2.91-.36,8,8,0,0,1,4.53-.85,5.51,5.51,0,0,0,2.46-.48,4.71,4.71,0,0,0,2-1.7,9.39,9.39,0,0,1,3.49-3.33c1.47-.9,1.84-2.68,2.43-4,.34-.81.1-1.73-1.25-2.6-.9-.58-.73-.64.2-.74,1.57-.17,2.39-.65,2.52-1.27s-.52-1.36-1.89-2.09c-.92-.48-.74-.55.18-.71,1.45-.25,2-.8,2.19-1.49.24-1-3-1.84-2.41-2.18,1.07-.63,2.65-1.16,2.58-2.06-.08-1.14.45-2.31-.19-3.35s-1-2,0-3.08c0,0,0-.06,0-.09,0-.68-2.31-1-2.21-1.48s2.21-.94,2.15-1.63c-.1-1.16.5-2.3-.15-3.35a1.68,1.68,0,0,1,.22-2.35,2.4,2.4,0,0,0,.77-1.17,1.45,1.45,0,0,0,0-.57c0-.1-.05-.19-.09-.31a3.29,3.29,0,0,0-.09-.42,1.85,1.85,0,0,1,.89-2.33,2.69,2.69,0,0,0,1.4-2.84,2.26,2.26,0,0,1,1.44-2.5,2.86,2.86,0,0,0,1.59-2.75,3,3,0,0,1,1.78-2.88c1-.64,1.27-1.82,1.78-2.85,0-.1,0-.26,0-.37l-4.67-2.58h0l4.67,2.58a1.23,1.23,0,0,0,.34-.36c.77-1.21,1.84-2.43,1.68-4a3.84,3.84,0,0,1,1.07-3.49c.9-1,.52-2.33.78-3.49S262.85,413.34,260.11,412.7Z" style="fill:#5020ee;"/><path d="M267.94,380.93c-.3-1.1-.74-2.14-1-3.21A4.26,4.26,0,0,0,262,374.3c2.05-3,1.79-5.88-.73-6.17s-2.81-.78-2.4-3.19-2.06-3.45-5.88-2.57a6,6,0,0,0,0-2.64,3,3,0,0,0-1.44-1.92c-2.32-1.38-4.78-2.9-7.43-3a17.48,17.48,0,0,1-6.23-1.24,11.25,11.25,0,0,0-8,0c-.53.21-1,.39-1.52.53a12,12,0,0,1-1.46.41,12.45,12.45,0,0,1-3.13.2,6.9,6.9,0,0,0-3.14.68c-1,.43-2,1-3,1.38a5.27,5.27,0,0,0-2.53,2,4.61,4.61,0,0,0-.43,3.48c-4.69-2-7.11.22-5.59,4.91-2.43-.63-4.25,0-5,1.27a3.16,3.16,0,0,0-.42,1,3.94,3.94,0,0,0,0,1.2,5.93,5.93,0,0,0,1.11,2.58c-1.43-.07-3.2-.14-3.78.94-.4.87-.91,1.71-1.37,2.57a22.12,22.12,0,0,0-1.21,2.67,7.51,7.51,0,0,0,.09,5.84c.23.48,0,.67-.29,1-1.15,1.24-1.57,2.24-1.46,3.19a4.37,4.37,0,0,0,1.7,2.39,20.81,20.81,0,0,0-2.85.68,3,3,0,0,0-2.06,2.16c-.26.88-.45,1.12-1.44.78a5.68,5.68,0,0,0-2.1-.35,2.93,2.93,0,0,0-1.58.58c-.89.63-1.3,1.88-1.22,3.51.06,1.14-.14,1.2-1.13.85a3.68,3.68,0,0,0-2.11-.15,4.22,4.22,0,0,0-1.74,1c-.76.65-.71,1.91-.58,2.89s.39,1.82,0,1.91c-1.88.41-3.73.87-4.55,2.75-1,2.25-2.39,4.73-2.07,7.22a15.75,15.75,0,0,1,.2,3.57,12.61,12.61,0,0,1-.21,1.7c-.06.57-.17,1.15-.29,1.75-.22,1,.62,1.6,1.39,2.1s1.47.88,1.26,1.49a19,19,0,0,0-.78,2.33,4.09,4.09,0,0,0,.22,2.37,36.19,36.19,0,0,0,3.78,6.35,2.6,2.6,0,0,0,2.15,1.26c1.13,0,1.17.57,1.52,1.44a9.71,9.71,0,0,0,3.34,4.28l0,.2c-1.44-.66-2.92-1.06-4.21-.17a2.72,2.72,0,0,0-1,1.91,5,5,0,0,1-.55,1.89c-.59.88-2.9-.1-4.16,1a2.84,2.84,0,0,0-.6,2.45c0,.88.06,1.58-.64,1.75a8.12,8.12,0,0,0-2.35.86,5.28,5.28,0,0,0-1.66,1.66L171,458.17c-.38.8-.79,1.59-1.2,2.38-1,2-1,4.2,1.43,5.9-5,1.41-5.37,4.6-1.23,7.41-4.21,2.61-4,5.32.77,7.55-1.25.88-2.45,2.07-2.09,3.28a46.67,46.67,0,0,0,1.76,5.64,10.26,10.26,0,0,0,1.63,2.48,6.66,6.66,0,0,0,2.58,1.71c.37.13.63.24.6.69a6,6,0,0,0,0,1.2,4.13,4.13,0,0,0,.29,1,3,3,0,0,0,1.15,1.38,5,5,0,0,0,4.09.14,6.07,6.07,0,0,0,.06,2.43A2.86,2.86,0,0,0,182.1,503c2.38,1.47,4.9,3.27,7.68,3.27a19.66,19.66,0,0,1,6.7,1.23,11.19,11.19,0,0,0,4,.53,10.84,10.84,0,0,0,3.89-1,21.58,21.58,0,0,1,6.78-2,10,10,0,0,0,6.83-4.35,22.74,22.74,0,0,1,4.77-5.29,10.79,10.79,0,0,0,3.66-6.58,16.68,16.68,0,0,1,2.16-6.54c1.17-2,1-4.53,1.32-6.79a3.21,3.21,0,0,0-1.75-3.43c-1-.57-.84-.77.05-1.3,3-1.8,3-4.19,0-5.93-1-.58-.83-.78,0-1.28a3.4,3.4,0,0,0,1.88-3c.06-1.68-3.29-2.7-2.77-3.4,1-1.3,2.44-2.37,2.26-3.93-.22-2,.19-4-.5-5.86s-1.05-3.66,0-5.41c0,0,0-.11,0-.16.09-1.18-2.2-2-2-2.85s2.35-1.43,2.46-2.63c.18-2.12,1.16-4.25.92-6.37a6.14,6.14,0,0,1,1.26-4.73,11.11,11.11,0,0,0,2.21-5.65,5.06,5.06,0,0,1,2.3-4,9.2,9.2,0,0,0,3.53-3.76c.62-1.43,2.1-2,3.9-2.1a9.86,9.86,0,0,0,5.45-2c1.86-1.49,3.89-1.92,6.41-2.36,2.29-.42,4.48-2,6.57-3.84a5.65,5.65,0,0,0,.89-1l0,0a4.24,4.24,0,0,0,.35-.28,15.84,15.84,0,0,0,3.12-3.93,18.22,18.22,0,0,0,1-2.25,11.91,11.91,0,0,0,.32-2.31,33.53,33.53,0,0,1,.39-7.41A7.35,7.35,0,0,0,267.94,380.93Z" style="fill:#382d15;"/><path d="M215.14,961.32l-5.27.83h0l5.27-.83a.88.88,0,0,0,.06-.41c-.11-1.17.13-2.52-.88-3.47a2.8,2.8,0,0,1-1-2.95A1.93,1.93,0,0,0,213,953a12.82,12.82,0,0,1-.82-1.37c-.44-1-1.46-1.48-4-.31a6.3,6.3,0,0,0,1.65-3.07c0-.69-.48-1-1.45-.65-1.85.63-2.06.48-1.4-1.39s-1-1.82-3.58,0c.65-1.61.87-3,.14-3.44-1.09-.62-2.05-1.69-3.41-1.53a2.84,2.84,0,0,1-2.72-1,3.14,3.14,0,0,0-3.48-.85,2.09,2.09,0,0,1-2.65-.48c-.76-.82-1.81-.32-2.69-.56s-1.81.33-2.45,3c-.9-4.41-2.1-4.42-3.17-.14-1-4.55-2.57-3.84-3.17.1-.32-1.29-.69-2.86-1.18-2.86-1.55,0-3.25-1.33-4.53,1.29-.15.32-.26.13-.42-.1-1.26-1.76-1.7-1.47-2.36,1.6-.5-1.26-1-2.49-1.6-2.42-1,.12-2.05.2-3.07.29-.37,0-.66.54-.84,1.43-.15.73-.25.92-.59.19-1.06-2.23-1.76-2-2.26.78-.18,1-.27.87-.55,0-.42-1.38-.92-1.88-1.49-1.94-.81-.08-1.13,3.22-1.42,2.72-.75-1.23-1.48-2.49-2.34-2.26-1,.28-2.41-.09-3.26,1s-1.82,1.29-3.24,1.22c-.56,0-.57.79-.49,1.51s.22,1.42-.24,1.26c-1.11-.37-2.4-.81-3.08-.07a20.58,20.58,0,0,0-2.47,3.3,1.17,1.17,0,0,0,.17,1.5c.61.72.19.76-.34,1a3.79,3.79,0,0,0-2.09,2.64,5.25,5.25,0,0,0,.47,3.19c.11.24.74.49,1.28.65.85.26.83.34,0,.61-2.81,1-2.81,2.15-.24,2.93.5.15.75.2.19.56-2.48,1.62-2.12,2.45,1.22,2.8-1.18.72-2.1,1.46-1.93,2.13s2,.52,2.42.88-1.57,1.49-1.47,2.19,3,.1,2.31.88c-.87,1-1.32,1.69-1.06,2.27s.61,1.32.92,2.22c.37,1.12,1.71,2.06,4.28.74a5.38,5.38,0,0,0-1,2.61,2,2,0,0,0,.76,1.69c.91.66,2.62.23,4-1.62.45,2.23,2,3.37,3.4,3a2.79,2.79,0,0,0,1.78-1.58,4.4,4.4,0,0,0,.06-3.08,4.7,4.7,0,0,0,2.13.4,1.68,1.68,0,0,0,1.48-.89,18.26,18.26,0,0,0,1.22-3.79c0-.12,0-.23,0-.34a2.37,2.37,0,0,1,.61,1.56,2.6,2.6,0,0,0,2.2,2.46A2.59,2.59,0,0,1,169.3,978a2.92,2.92,0,0,0,2.51,2.1,2.85,2.85,0,0,1,2.56,1.8c.55,1.1,1.82,1.2,2.77,1.73.58.3,1.33.08,2.29-1.17.64-.84.66-.67.57.24-.32,3,.92,3.49,2.68,1,.58-.83.6-.64.57.27,0,1.44.34,2.11.94,2.35.86.37,2.1-2.73,2.31-2.12.42,1.15.74,2.74,1.62,2.78,1.09,0,2.24.61,3.31,0s2-1,3.16-.14c0,0,.06,0,.1,0,.74,0,.77-2.42,1.2-2.39s1.36,2,2.11,1.76c1.21-.41,2.72-.3,3.62-1.45a3.07,3.07,0,0,1,2.72-1.37,3.5,3.5,0,0,0,3.26-2.32,3.54,3.54,0,0,1,.84-1.42,3.39,3.39,0,0,1,1.4-.85,3.31,3.31,0,0,0,2.3-3.1,3.5,3.5,0,0,1,1.61-3,3.22,3.22,0,0,0,1.11-3.47c-.5-1.46-.08-2.47.58-3.77s.18-2.5,0-3.71C215.36,961.51,215.19,961.43,215.14,961.32Zm-53,7h0l-.27-.15Z" style="fill:#382d15;"/><path d="M307.32,961.63c0-.12-.19-.2-.24-.31l-5.27.83h0l5.27-.83a.88.88,0,0,0,.06-.41c-.11-1.17.13-2.52-.88-3.47a2.8,2.8,0,0,1-1-2.95,1.93,1.93,0,0,0-.36-1.51,12.9,12.9,0,0,1-.82-1.37c-.44-1-1.46-1.48-4-.31a6.29,6.29,0,0,0,1.65-3.07c0-.69-.48-1-1.45-.65-1.85.63-2.06.48-1.4-1.39s-1-1.82-3.58,0c.65-1.61.87-3,.14-3.44-1.09-.62-2.05-1.69-3.41-1.53a2.84,2.84,0,0,1-2.72-1,3.14,3.14,0,0,0-3.48-.85,2.09,2.09,0,0,1-2.65-.48c-.76-.82-1.81-.32-2.69-.56s-1.81.33-2.45,3c-.9-4.41-2.1-4.42-3.17-.14-1-4.55-2.57-3.84-3.17.1-.32-1.29-.69-2.86-1.18-2.86-1.55,0-3.25-1.33-4.53,1.29-.15.32-.26.13-.42-.1-1.26-1.76-1.7-1.47-2.36,1.6-.5-1.26-1-2.49-1.6-2.42-1,.12-2.05.2-3.07.29-.37,0-.66.54-.84,1.43-.15.73-.25.92-.59.19-1.06-2.23-1.76-2-2.26.78-.18,1-.27.87-.55,0-.42-1.38-.92-1.88-1.49-1.94-.81-.08-1.13,3.22-1.42,2.72-.75-1.23-1.48-2.49-2.34-2.26-1,.28-2.41-.09-3.26,1s-1.82,1.29-3.24,1.22c-.56,0-.57.79-.49,1.51s.22,1.42-.24,1.26c-1.11-.37-2.4-.81-3.08-.07a20.61,20.61,0,0,0-2.47,3.3,1.17,1.17,0,0,0,.17,1.5c.61.72.19.76-.34,1a3.79,3.79,0,0,0-2.09,2.64,5.25,5.25,0,0,0,.47,3.19c.11.24.74.49,1.28.65.85.26.83.34,0,.61-2.81,1-2.81,2.15-.24,2.93.5.15.75.2.19.56-2.48,1.62-2.12,2.45,1.22,2.8-1.18.72-2.1,1.46-1.93,2.13s2,.52,2.42.88-1.57,1.49-1.47,2.19,3,.1,2.31.88c-.87,1-1.32,1.69-1.06,2.27s.61,1.32.92,2.22c.37,1.12,1.71,2.06,4.28.74a5.38,5.38,0,0,0-1,2.61,2,2,0,0,0,.76,1.69c.91.66,2.62.23,4-1.62.45,2.23,2,3.37,3.4,3a2.79,2.79,0,0,0,1.78-1.58,4.4,4.4,0,0,0,.06-3.08,4.7,4.7,0,0,0,2.13.4A1.68,1.68,0,0,0,255,976a18.26,18.26,0,0,0,1.22-3.79c0-.12,0-.23,0-.34a2.37,2.37,0,0,1,.61,1.56,2.6,2.6,0,0,0,2.2,2.46,2.59,2.59,0,0,1,2.15,2.07,2.92,2.92,0,0,0,2.51,2.1,2.85,2.85,0,0,1,2.56,1.8c.55,1.1,1.82,1.2,2.77,1.73.58.3,1.33.08,2.29-1.17.64-.84.66-.67.57.24-.32,3,.92,3.49,2.68,1,.58-.83.6-.64.57.27,0,1.44.34,2.11.94,2.35.86.37,2.11-2.73,2.31-2.12.42,1.15.74,2.74,1.62,2.78,1.09,0,2.24.61,3.31,0s2-1,3.16-.14c0,0,.06,0,.1,0,.74,0,.77-2.42,1.2-2.39s1.36,2,2.11,1.76c1.21-.41,2.72-.3,3.62-1.45a3.07,3.07,0,0,1,2.72-1.37,3.5,3.5,0,0,0,3.26-2.32,3.54,3.54,0,0,1,.84-1.42,3.4,3.4,0,0,1,1.4-.85,3.31,3.31,0,0,0,2.3-3.1,3.5,3.5,0,0,1,1.61-3,3.22,3.22,0,0,0,1.11-3.47c-.5-1.46-.08-2.47.58-3.77S307.54,962.85,307.32,961.63Zm-53.21,6.68h0l-.27-.15Z" style="fill:#382d15;"/><path d="M409.68,249.42c0-1,.5-2.07-.16-3a1.94,1.94,0,0,1,0-2.44,2.61,2.61,0,0,0,0-3.11,1.68,1.68,0,0,1,0-2.41c.7-.78.08-1.66.24-2.49s-.46-1.63-3.2-2.11c4.37-1.1,4.33-2.08,0-3.12,4.53-1,3.86-2.4-.06-3.14,1.3-.28,2.89-.58,2.91-1.06.06-1.51,1.5-3.06-1-4.52-.3-.18-.11-.27.13-.41,1.86-1.11,1.6-1.56-1.4-2.49,1.3-.39,2.57-.78,2.55-1.39,0-1,0-2.09,0-3.13,0-.39-.48-.72-1.35-1-.72-.22-.9-.34-.14-.63,2.32-.88,2.12-1.67-.59-2.41-1-.26-.85-.35.07-.56,1.41-.32,1.94-.76,2.05-1.29.15-.73-3.09-1.36-2.56-1.59,1.31-.57,2.66-1,2.57-1.79-.11-.91.57-1.88-.2-2.73s-.61-1.68.11-2.53c.57-.66-2.75-1.08-2-1.5,1-.53,2.1-1,2.05-1.62-.07-.91-.07-1.83-.05-2.74,0-.33-.14-.65-.86-.88-.87-.29-.49-.47-.11-.8,1.78-1.53,1.37-3.11.29-4.67a3.16,3.16,0,0,0-1.31-.47c-.86-.19-.85-.27-.06-.51,2.79-.84,2.87-1.52.41-2.47-.48-.18-.72-.26-.12-.5,2.7-1.08,2.51-1.62-.65-2.68,1.32-.38,2.39-.78,2.43-1.39s-1.78-1-2-1.44,2-.85,2.11-1.49c.05-.23-.26-.44-.65-.62l-4.95-4.95c-.36.76-.65,1.83-1,1.21-.57-1.16-1.09-1.85-1.73-1.81a10.16,10.16,0,0,1-2,0c-.86-.13-1.6.47-2,3.28-1.08-4.42-2-4.43-3.14-.24-1.12-4.15-1.87-4.15-3.18,0a10.57,10.57,0,0,0-.66-2.45l-4.94,4.94c-.24.13-.39.27-.38.43,0,1.54-1.42,3.22,1,4.63.21.12.36.22.06.36-2.33,1.14-1.47,2,1.37,2.59-1.55.49-2.6,1-2.6,1.6,0,1.09-.61,2.31.15,3.27a2.17,2.17,0,0,1,0,2.71,2.71,2.71,0,0,0,.07,3.11,2.15,2.15,0,0,1,0,2.77,2.47,2.47,0,0,0,0,3.11c.75.81.58,1.69,0,2.79a2.77,2.77,0,0,0,0,3c.67.8.64,1.68,0,2.88s0,2-.06,3c0,.6.5.92,1.94.72,1-.14.82,0,0,.57-2.7,1.88-2.66,2.92.07,2.64.9-.09.74.06-.08.62-1.29.87-1.75,1.55-1.85,2.16-.12.84,2.86.08,2.34.62-.95,1-2.35,2.12-2.26,2.85.1.92-.36,2.16.21,2.8s.88,1.36,0,2.77c0,0,0,.06,0,.08,0,.65,2-.13,1.92.32s-1.92,1.93-1.85,2.56c.1,1-.36,2.49.25,3.17s.55,1.3.05,2.54c-.58,1.45-.52,2.63.08,3.26s.55,1.31.1,2.58c-.5,1.42-.56,2.66.08,3.17s.47,1.46,0,2.79-.44,2.44.12,2.89.47,1.58.07,3a6.48,6.48,0,0,0,0,2.91c0,.09.12.06.15.12l3.77-3.77h0l-3.77,3.77a.63.63,0,0,0,.31.16c1.13.27,2.18.88,3.8.51s2.44-.37,3.27.43,2.15.27,3.2.46,2.23-.36,3.25-3c.29,3.16,1.6,4.4,2.52,2.52.52-1.06.82-1.5,1.15-1.31l.81.46,2.68-4a3.05,3.05,0,0,1,1.32-.66c1.78-.61.75-1.41-2.25-2.38C408.41,250.53,409.69,250.09,409.68,249.42Z" style="fill:#382d15;"/><path d="M398.83,205.42a.31.31,0,0,0-.07-.13c-.15-.08-.37-.52-.36.17s-.06.76-.32,0-.21,0-.34-.11-.08.54.42,3.24c-.75-3.1-1.1-4.24-.8-2.38s.25,1.8-.19,0-.33-.7.17,2.26a16.72,16.72,0,0,0-.79-2.87c-.12,0-.36-.44-.34.23s-.08.61-.3.07-.39-.58-.37.13,0,.77-.3,0-.22,0-.36-.17-.11.49.39,3.18c-1-4.25-1.14-4.19-.39,0-1-4.41-1.08-3.72-.37.14-.3-1.26-.66-2.81-.72-2.82s-.68-1.39-.35,1.11c0,.3,0,.12-.08-.11-.52-1.79-.52-1.53,0,1.44a15.9,15.9,0,0,0-.69-2.46,2.2,2.2,0,0,1-.38.09,5.06,5.06,0,0,0,.15,1.35c.12.71.14.89,0,.15q-.87-3.37-.18.64c.16.95.13.84-.08-.05a8.56,8.56,0,0,0-.58-2c-.12-.13.47,3.06.33,2.55a13,13,0,0,0-.74-2.47c-.09.13-.35-.51-.29.27s-.08.64-.33,0c-.2-.54.43,2.72.22,2a11,11,0,0,0-.62-2,.51.51,0,0,1-.33.12s-.05.15.07.86c.14.86,0,.49-.08.13-.55-1.7-.66-1.26-.63-.16,0,.12.11.76.21,1.3.15.85.14.84,0,.07-.67-2.71-.77-2.77-.39-.34.08.47.12.72,0,.13-.68-2.61-.71-2.42-.2.7a13.64,13.64,0,0,0-.67-2.34c-.08,0,.24,1.76.24,2s-.51-1.9-.61-2,.44,2.77.19,1.86a5.75,5.75,0,0,0-.58-1.73c-.08,0-.15.12-.25,0s-.1.5.42,3.26c-1-4.3-1.15-4.29-.44-.15-1-4-1.08-4-.38.12a24.84,24.84,0,0,0-.71-2.74c-.18.07-.66-1.31-.34,1.11,0,.21,0,.36,0,.06-.6-2.26-.53-1.4,0,1.41a14.45,14.45,0,0,0-.7-2.52c-.13,0-.39-.56-.36.21s-.09.58-.32,0-.38-.57-.35.13-.07.7-.33,0-.4-.69-.36.08-.1.61-.32.07-.38-.63-.36,0-.09.68-.34.06-.25,0-.37,0,0,.53.25,2c.18,1,.14.87-.07,0-.69-2.82-.81-2.8-.31.1.17,1,.12.79-.09-.07a8.44,8.44,0,0,0-.58-2c-.12-.14.48,3.07.32,2.52a16.81,16.81,0,0,0-.73-2.44c-.09.11-.32-.4-.3.23s0,1-.34,0c0,0,0,0,0,0s.35,2.25.28,2.16-.55-2.17-.62-2.1-.36-.44-.35.26-.07.64-.3,0-.41-.65-.39.06-.07.66-.3.09-.42-.73-.38.06-.1.58-.34,0-.37-.61-.34.11-.12.6-.36,0-.26-.12-.36,0,0,.17,0,.2l2.2,10.52,0,.05c.15.08.37.52.36-.17s.06-.76.32,0,.22,0,.34.11.08-.54-.42-3.24c.75,3.1,1.1,4.24.8,2.38s-.25-1.8.19,0,.33.7-.17-2.26a16.69,16.69,0,0,0,.79,2.87c.12,0,.36.44.34-.23s.08-.61.3-.07.39.58.37-.13,0-.77.3,0,.22,0,.35.17.11-.49-.39-3.18c1,4.25,1.14,4.19.39,0,1,4.41,1.08,3.72.37-.14.3,1.26.66,2.81.72,2.82s.68,1.39.35-1.11c0-.3,0-.12.08.11.52,1.79.52,1.52,0-1.44a15.87,15.87,0,0,0,.69,2.46,2.2,2.2,0,0,1,.38-.09,5,5,0,0,0-.15-1.35c-.12-.71-.14-.89,0-.15q.87,3.37.18-.64c-.16-.95-.13-.84.08.05a8.5,8.5,0,0,0,.58,2c.12.13-.47-3.06-.33-2.55a13,13,0,0,0,.74,2.47c.09-.13.35.51.29-.27s.08-.64.33,0c.2.54-.43-2.72-.22-2a11,11,0,0,0,.62,2,.51.51,0,0,1,.33-.12s.05-.15-.07-.86c-.14-.86,0-.49.08-.13.55,1.7.66,1.26.63.16,0-.12-.11-.76-.21-1.3-.15-.85-.14-.84,0-.07.67,2.71.77,2.77.39.34-.08-.47-.12-.72,0-.13.68,2.61.71,2.42.2-.7a13.66,13.66,0,0,0,.67,2.34c.08,0-.24-1.76-.24-2s.51,1.9.61,2-.44-2.77-.19-1.86a5.75,5.75,0,0,0,.58,1.73c.08,0,.15-.12.25,0s.1-.5-.42-3.26c1,4.3,1.15,4.29.44.15,1,4,1.08,4,.38-.12a25,25,0,0,0,.71,2.74c.18-.07.66,1.31.34-1.11,0-.21,0-.36,0-.06.6,2.26.53,1.4,0-1.41a14.51,14.51,0,0,0,.7,2.52c.13,0,.39.56.36-.21s.09-.58.32,0,.38.57.35-.13.07-.7.33,0,.4.69.36-.08.1-.61.32-.07.38.63.36,0,.09-.68.34-.06.25,0,.37,0,0-.53-.25-2c-.18-1-.14-.87.07,0,.69,2.82.81,2.8.31-.1-.17-1-.12-.79.09.07a8.44,8.44,0,0,0,.58,2c.12.14-.48-3.07-.32-2.52a16.89,16.89,0,0,0,.73,2.44c.09-.11.32.4.3-.23s0-1,.34,0c0,0,0,0,0,0s-.35-2.25-.28-2.16.55,2.17.62,2.1.36.44.35-.26.07-.64.3,0,.41.65.39-.06.07-.66.3-.09.42.73.38-.06.1-.58.34,0,.37.61.34-.11.12-.6.36,0,.26.12.36,0a.41.41,0,0,0,0-.2Z" style="fill:#5020ee;"/><path d="M410.91,216.61a.24.24,0,0,0-.06-.09c-.12,0-.32-.36-.25.15s0,.57-.24.06-.16,0-.27-.05,0,.41.57,2.38c-.81-2.25-1.16-3.07-.79-1.71s.33,1.32-.14,0-.3-.49.3,1.67a12.38,12.38,0,0,0-.82-2.08c-.09,0-.3-.3-.24.2s0,.46-.22.08-.34-.4-.27.13,0,.58-.22.06-.17,0-.28-.1,0,.37.55,2.34c-1.11-3.08-1.19-3-.29.06-1.14-3.21-1.11-2.68-.27.14-.32-.92-.72-2-.77-2s-.62-1-.17.86c.05.22,0,.09-.07-.08-.53-1.29-.51-1.09.1,1.07a11.78,11.78,0,0,0-.72-1.78,1.69,1.69,0,0,1-.28.1,3.7,3.7,0,0,0,.22,1c.15.52.18.65,0,.12q-.92-2.44-.08.49c.2.69.16.62-.07,0a6.35,6.35,0,0,0-.59-1.43c-.1-.09.59,2.25.45,1.87a9.65,9.65,0,0,0-.76-1.78c-.06.1-.3-.35-.2.23s0,.49-.25,0,.54,2,.32,1.46a8.16,8.16,0,0,0-.62-1.42.39.39,0,0,1-.24.12s0,.12.12.64.07.36,0,.1c-.55-1.23-.6-.88-.49-.07,0,.09.15.56.26,1,.18.62.17.61,0,.06-.72-2-.8-2-.32-.22.09.35.14.52,0,.1-.72-1.89-.73-1.75-.09.54a10.12,10.12,0,0,0-.69-1.69c-.06,0,.32,1.3.34,1.5s-.53-1.37-.62-1.46.55,2,.29,1.37-.52-1.28-.58-1.24-.1.1-.19,0,0,.38.57,2.4c-1.12-3.12-1.21-3.1-.34-.08-1.06-2.93-1.13-2.91-.28.12a18.43,18.43,0,0,0-.75-2c-.13.06-.6-.93-.17.86,0,.16.06.26,0,.05-.63-1.63-.51-1,.08,1.05a10.68,10.68,0,0,0-.72-1.82c-.09,0-.34-.38-.25.19s0,.44-.24,0-.33-.39-.26.12,0,.53-.25.05-.36-.48-.27.09,0,.46-.24.08-.34-.44-.27.07,0,.51-.25.07-.19,0-.28,0,0,.4.35,1.5c.22.74.17.63,0,0-.74-2-.83-2-.22.1.2.7.15.58-.07,0a6.28,6.28,0,0,0-.59-1.42c-.1-.09.6,2.25.44,1.86a12.45,12.45,0,0,0-.74-1.76c-.06.09-.27-.27-.21.19s.06.73-.26,0c0,0,0,0,0,0s.44,1.65.38,1.59-.59-1.57-.63-1.51-.31-.3-.24.22,0,.48-.22.05-.36-.45-.29.08,0,.5-.22.09-.37-.51-.28.07,0,.44-.25,0-.33-.43-.25.11,0,.46-.27.05-.2-.07-.27,0,0,.12,0,.15l2.48,7.67,0,0c.12,0,.32.36.25-.15s0-.57.24-.06.16,0,.27.05,0-.41-.57-2.38c.81,2.25,1.16,3.07.79,1.71s-.33-1.32.14,0,.3.49-.3-1.67a12.38,12.38,0,0,0,.82,2.08c.09,0,.3.3.24-.2s0-.46.22-.08.34.4.27-.13,0-.58.22-.06.17,0,.28.1,0-.37-.55-2.34c1.11,3.08,1.19,3,.29-.06,1.14,3.21,1.11,2.68.27-.14.32.92.72,2,.77,2s.62,1,.17-.86c-.05-.22,0-.09.07.08.53,1.29.51,1.09-.1-1.07a11.84,11.84,0,0,0,.72,1.78,1.68,1.68,0,0,1,.28-.1,3.74,3.74,0,0,0-.22-1c-.15-.52-.18-.65,0-.12q.92,2.44.08-.49c-.2-.69-.16-.62.07,0a6.36,6.36,0,0,0,.59,1.43c.1.09-.59-2.25-.45-1.87a9.64,9.64,0,0,0,.76,1.78c.06-.1.3.35.2-.23s0-.49.25,0-.54-2-.32-1.46a8.18,8.18,0,0,0,.62,1.42.39.39,0,0,1,.24-.12s0-.12-.12-.64-.07-.36,0-.1c.55,1.23.6.88.49.07,0-.09-.15-.56-.26-1-.18-.62-.17-.61,0-.06.72,2,.8,2,.32.22-.09-.35-.14-.52,0-.1.72,1.89.73,1.75.09-.54a10.18,10.18,0,0,0,.69,1.69c.06,0-.32-1.3-.34-1.5s.53,1.38.62,1.46-.55-2-.29-1.37.52,1.28.58,1.24.1-.1.19,0,0-.38-.57-2.4c1.12,3.12,1.21,3.1.34.08,1.06,2.93,1.13,2.91.28-.12a18.47,18.47,0,0,0,.75,2c.13-.06.6.93.17-.86,0-.16-.06-.26,0-.05.63,1.63.51,1-.08-1.05a10.73,10.73,0,0,0,.72,1.82c.09,0,.34.38.25-.19s0-.44.24,0,.33.39.26-.12,0-.53.25-.05.36.48.27-.09,0-.46.24-.08.34.44.27-.07,0-.51.25-.07.19,0,.28,0,0-.4-.35-1.5c-.22-.74-.17-.63,0,0,.74,2,.83,2,.22-.1-.2-.7-.15-.58.07,0a6.25,6.25,0,0,0,.59,1.42c.1.09-.6-2.25-.44-1.86a12.52,12.52,0,0,0,.74,1.76c.06-.09.27.27.21-.19s-.06-.73.26,0c0,0,0,0,0,0s-.44-1.65-.38-1.59.59,1.57.63,1.51.31.3.24-.22,0-.48.22-.05.36.45.29-.08,0-.5.22-.09.37.51.28-.07,0-.44.25,0,.33.43.25-.11,0-.46.27-.05.2.07.27,0,0-.07,0-.15Z" style="fill:#5020ee;"/><path d="M410.91,227.9a.24.24,0,0,0-.06-.09c-.12,0-.32-.36-.25.15s0,.57-.24.06-.16,0-.27-.05,0,.41.57,2.38c-.81-2.25-1.16-3.07-.79-1.71s.33,1.32-.14,0-.3-.49.3,1.67a12.38,12.38,0,0,0-.82-2.08c-.09,0-.3-.3-.24.2s0,.46-.22.08-.34-.4-.27.13,0,.58-.22.06-.17,0-.28-.1,0,.37.55,2.34c-1.11-3.08-1.19-3-.29.06-1.14-3.21-1.11-2.68-.27.14-.32-.92-.72-2-.77-2s-.62-1-.17.86c.05.22,0,.09-.07-.08-.53-1.29-.51-1.09.1,1.07a11.77,11.77,0,0,0-.72-1.78,1.69,1.69,0,0,1-.28.1,3.7,3.7,0,0,0,.22,1c.15.52.18.65,0,.12q-.92-2.44-.08.49c.2.69.16.62-.07,0a6.34,6.34,0,0,0-.59-1.43c-.1-.09.59,2.25.45,1.87a9.65,9.65,0,0,0-.76-1.78c-.06.1-.3-.35-.2.23s0,.49-.25,0,.54,2,.32,1.46a8.16,8.16,0,0,0-.62-1.42.39.39,0,0,1-.24.12s0,.12.12.64.07.36,0,.1c-.55-1.23-.6-.88-.49-.07,0,.09.15.56.26,1,.18.62.17.61,0,.06-.72-2-.8-2-.32-.22.09.35.14.52,0,.1-.72-1.89-.73-1.75-.09.54a10.13,10.13,0,0,0-.69-1.69c-.06,0,.32,1.3.34,1.5s-.53-1.37-.62-1.46.55,2,.29,1.37-.52-1.28-.58-1.24-.1.1-.19,0,0,.38.57,2.4c-1.12-3.12-1.21-3.1-.34-.08-1.06-2.93-1.13-2.91-.28.12a18.42,18.42,0,0,0-.75-2c-.13.06-.6-.93-.17.86,0,.16.06.26,0,.05-.63-1.63-.51-1,.08,1.05a10.68,10.68,0,0,0-.72-1.82c-.09,0-.34-.38-.25.19s0,.44-.24,0-.33-.39-.26.12,0,.53-.25.05-.36-.48-.27.09,0,.46-.24.08-.34-.44-.27.07,0,.51-.25.07-.19,0-.28,0,0,.4.35,1.5c.22.74.17.63,0,0-.74-2-.83-2-.22.1.2.7.15.58-.07,0a6.28,6.28,0,0,0-.59-1.42c-.1-.09.6,2.25.44,1.86a12.45,12.45,0,0,0-.74-1.76c-.06.09-.27-.27-.21.19s.06.73-.26,0c0,0,0,0,0,0s.44,1.65.38,1.59-.59-1.57-.63-1.51-.31-.3-.24.22,0,.48-.22.05-.36-.45-.29.08,0,.5-.22.09-.37-.51-.28.07,0,.44-.25,0-.33-.43-.25.11,0,.46-.27.05-.2-.07-.27,0,0,.12,0,.15l2.48,7.67,0,0c.12,0,.32.36.25-.15s0-.57.24-.06.16,0,.27.05,0-.41-.57-2.38c.81,2.25,1.16,3.07.79,1.71s-.33-1.32.14,0,.3.49-.3-1.67a12.37,12.37,0,0,0,.82,2.08c.09,0,.3.3.24-.2s0-.46.22-.08.34.4.27-.13,0-.58.22-.06.17,0,.28.1,0-.37-.55-2.34c1.11,3.08,1.19,3,.29-.06,1.14,3.21,1.11,2.68.27-.14.32.92.72,2,.77,2s.62,1,.17-.86c-.05-.22,0-.09.07.08.53,1.29.51,1.09-.1-1.07a11.84,11.84,0,0,0,.72,1.78,1.67,1.67,0,0,1,.28-.1,3.74,3.74,0,0,0-.22-1c-.15-.52-.18-.65,0-.12q.92,2.44.08-.49c-.2-.69-.16-.62.07,0a6.36,6.36,0,0,0,.59,1.43c.1.09-.59-2.25-.45-1.87a9.65,9.65,0,0,0,.76,1.78c.06-.1.3.35.2-.23s0-.49.25,0-.54-2-.32-1.46a8.18,8.18,0,0,0,.62,1.42.39.39,0,0,1,.24-.12s0-.12-.12-.64-.07-.36,0-.1c.55,1.23.6.88.49.07,0-.09-.15-.56-.26-1-.18-.62-.17-.61,0-.06.72,2,.8,2,.32.22-.09-.35-.14-.52,0-.1.72,1.89.73,1.75.09-.54a10.17,10.17,0,0,0,.69,1.69c.06,0-.32-1.3-.34-1.5s.53,1.38.62,1.46-.55-2-.29-1.37.52,1.28.58,1.24.1-.1.19,0,0-.38-.57-2.4c1.12,3.12,1.21,3.1.34.08,1.06,2.93,1.13,2.91.28-.12a18.47,18.47,0,0,0,.75,2c.13-.06.6.93.17-.86,0-.16-.06-.26,0-.05.63,1.63.51,1-.08-1.05a10.74,10.74,0,0,0,.72,1.82c.09,0,.34.38.25-.19s0-.44.24,0,.33.39.26-.12,0-.53.25-.05.36.48.27-.09,0-.46.24-.08.34.44.27-.07,0-.51.25-.07.19,0,.28,0,0-.4-.35-1.5c-.22-.74-.17-.63,0,0,.74,2,.83,2,.22-.1-.2-.7-.15-.58.07,0a6.25,6.25,0,0,0,.59,1.42c.1.09-.6-2.25-.44-1.86a12.52,12.52,0,0,0,.74,1.76c.06-.09.27.27.21-.19s-.06-.73.26,0c0,0,0,0,0,0s-.44-1.65-.38-1.59.59,1.57.63,1.51.31.3.24-.22,0-.48.22-.05.36.45.29-.08,0-.5.22-.09.37.51.28-.07,0-.44.25,0,.33.43.25-.11,0-.46.27-.05.2.07.27,0,0-.07,0-.15Z" style="fill:#5020ee;"/><path d="M410.91,238.88a.24.24,0,0,0-.06-.09c-.12,0-.32-.36-.25.15s0,.57-.24.06-.16,0-.27-.05,0,.41.57,2.38c-.81-2.25-1.16-3.07-.79-1.71s.33,1.32-.14,0-.3-.49.3,1.67a12.37,12.37,0,0,0-.82-2.08c-.09,0-.3-.3-.24.2s0,.46-.22.08-.34-.4-.27.13,0,.58-.22.06-.17,0-.28-.1,0,.37.55,2.34c-1.11-3.08-1.19-3-.29.06-1.14-3.21-1.11-2.68-.27.14-.32-.92-.72-2-.77-2s-.62-1-.17.86c.05.22,0,.09-.07-.08-.53-1.29-.51-1.09.1,1.07a11.78,11.78,0,0,0-.72-1.78,1.69,1.69,0,0,1-.28.1,3.7,3.7,0,0,0,.22,1c.15.52.18.65,0,.12q-.92-2.44-.08.49c.2.69.16.62-.07,0a6.34,6.34,0,0,0-.59-1.43c-.1-.09.59,2.25.45,1.87a9.65,9.65,0,0,0-.76-1.78c-.06.1-.3-.35-.2.23s0,.49-.25,0,.54,2,.32,1.46a8.16,8.16,0,0,0-.62-1.42.39.39,0,0,1-.24.12s0,.12.12.64.07.36,0,.1c-.55-1.23-.6-.88-.49-.07,0,.09.15.56.26,1,.18.62.17.61,0,.06-.72-2-.8-2-.32-.22.09.35.14.52,0,.1-.72-1.89-.73-1.75-.09.54a10.13,10.13,0,0,0-.69-1.69c-.06,0,.32,1.3.34,1.5s-.53-1.38-.62-1.46.55,2,.29,1.37-.52-1.28-.58-1.24-.1.1-.19,0,0,.38.57,2.4c-1.12-3.12-1.21-3.1-.34-.08-1.06-2.93-1.13-2.91-.28.12a18.43,18.43,0,0,0-.75-2c-.13.06-.6-.93-.17.86,0,.16.06.26,0,.05-.63-1.63-.51-1,.08,1.05a10.68,10.68,0,0,0-.72-1.82c-.09,0-.34-.38-.25.19s0,.44-.24,0-.33-.39-.26.12,0,.53-.25.05-.36-.48-.27.09,0,.46-.24.08-.34-.44-.27.07,0,.51-.25.07-.19,0-.28,0,0,.4.35,1.5c.22.74.17.63,0,0-.74-2-.83-2-.22.1.2.7.15.58-.07,0a6.28,6.28,0,0,0-.59-1.42c-.1-.09.6,2.25.44,1.86a12.45,12.45,0,0,0-.74-1.76c-.06.09-.27-.27-.21.19s.06.73-.26,0c0,0,0,0,0,0s.44,1.65.38,1.59-.59-1.57-.63-1.51-.31-.3-.24.22,0,.48-.22.05-.36-.45-.29.08,0,.5-.22.09-.37-.51-.28.07,0,.44-.25,0-.33-.43-.25.11,0,.46-.27.05-.2-.07-.27,0,0,.12,0,.15l2.48,7.67,0,0c.12,0,.32.36.25-.15s0-.57.24-.06.16,0,.27.05,0-.41-.57-2.38c.81,2.25,1.16,3.07.79,1.71s-.33-1.32.14,0,.3.49-.3-1.67a12.38,12.38,0,0,0,.82,2.08c.09,0,.3.3.24-.2s0-.46.22-.08.34.4.27-.13,0-.58.22-.06.17,0,.28.1,0-.37-.55-2.34c1.11,3.08,1.19,3,.29-.06,1.14,3.21,1.11,2.68.27-.14.32.92.72,2,.77,2s.62,1,.17-.86c-.05-.22,0-.09.07.08.53,1.29.51,1.09-.1-1.07a11.84,11.84,0,0,0,.72,1.78,1.68,1.68,0,0,1,.28-.1,3.74,3.74,0,0,0-.22-1c-.15-.52-.18-.65,0-.12q.92,2.44.08-.49c-.2-.69-.16-.62.07,0a6.36,6.36,0,0,0,.59,1.43c.1.09-.59-2.25-.45-1.87a9.65,9.65,0,0,0,.76,1.78c.06-.1.3.35.2-.23s0-.49.25,0-.54-2-.32-1.46a8.17,8.17,0,0,0,.62,1.42.39.39,0,0,1,.24-.12s0-.12-.12-.64-.07-.36,0-.1c.55,1.23.6.88.49.07,0-.09-.15-.56-.26-1-.18-.62-.17-.61,0-.06.72,2,.8,2,.32.22-.09-.35-.14-.52,0-.1.72,1.89.73,1.75.09-.54a10.17,10.17,0,0,0,.69,1.69c.06,0-.32-1.3-.34-1.5s.53,1.38.62,1.46-.55-2-.29-1.37.52,1.28.58,1.24.1-.1.19,0,0-.38-.57-2.4c1.12,3.12,1.21,3.1.34.08,1.06,2.93,1.13,2.91.28-.12a18.47,18.47,0,0,0,.75,2c.13-.06.6.93.17-.86,0-.16-.06-.26,0-.05.63,1.63.51,1-.08-1.05a10.73,10.73,0,0,0,.72,1.82c.09,0,.34.38.25-.19s0-.44.24,0,.33.39.26-.12,0-.53.25-.05.36.48.27-.09,0-.46.24-.08.34.44.27-.07,0-.51.25-.07.19,0,.28,0,0-.4-.35-1.5c-.22-.74-.17-.63,0,0,.74,2,.83,2,.22-.1-.2-.7-.15-.58.07,0a6.25,6.25,0,0,0,.59,1.42c.1.09-.6-2.25-.44-1.86a12.53,12.53,0,0,0,.74,1.76c.06-.09.27.27.21-.19s-.06-.73.26,0c0,0,0,0,0,0s-.44-1.65-.38-1.59.59,1.57.63,1.51.31.3.24-.22,0-.48.22-.05.36.45.29-.08,0-.5.22-.09.37.51.28-.07,0-.44.25,0,.33.43.25-.11,0-.46.27-.05.2.07.27,0,0-.07,0-.15Z" style="fill:#5020ee;"/><path d="M442.8,140.93c-.21-.17-.35-.3,0-.45,1.34-.65,1.68-1.34,1.22-2l-4.5-6.11-.88.74a5.56,5.56,0,0,0-1.26,2.5c-.45-1.56-1-2.61-1.66-2.61-1.27,0-2.62-.62-3.79.14a2.81,2.81,0,0,1-3.13,0,3.54,3.54,0,0,0-3.6.07,2.78,2.78,0,0,1-3.2,0,3.2,3.2,0,0,0-3.6,0c-1,.76-2,.58-3.23,0a3.61,3.61,0,0,0-3.52,0,3.08,3.08,0,0,1-3.33,0c-1.27-.59-2.31-.05-3.47-.07-.69,0-1.12.51-1,2,.06,1-.1.84-.67,0-1.9-2.74-3.11-2.7-3.07.07,0,.92-.15.75-.71-.08-.88-1.31-1.61-1.78-2.3-1.88-1-.13-.41,2.91-1,2.38-1.06-1-2.2-2.38-3.05-2.3-1.08.1-2.46-.36-3.27.22s-1.68.89-3.2,0c0,0-.06,0-.1,0-.75,0-.09,2-.6,2s-2-1.95-2.74-1.88c-1.22.11-2.84-.36-3.7.26s-1.57.56-2.94.06c-1.61-.59-3-.52-3.78.09s-1.59.56-3,.11c-1.58-.51-3-.56-3.68.09s-1.75.48-3.23.06-2.75-.44-3.35.13-1.89.48-3.49.07a8.6,8.6,0,0,0-3.37,0,.66.66,0,0,0-.4.15l3.78,3.78h0l-3.83-3.83a2.12,2.12,0,0,0-.15.24,19.87,19.87,0,0,0-1.24,3.42,7.48,7.48,0,0,0,0,3.86c.34,1.25.63,1.5.71,2.09a3,3,0,0,1-.27,1.73,2.43,2.43,0,0,0,0,1.65,13.51,13.51,0,0,1,.49,1.6c.15,1.1,1,1.88,3.79,1.66-2.84,1.82-3.44,3.43-1.4,3.59s2.1.46.71,1.93.14,2,3.34,1.77c-1.31,1.15-2.25,2.3-1.77,3.06.7,1.13,1,2.61,2.22,3.34a3.22,3.22,0,0,1,1.92,2.56,3.9,3.9,0,0,0,2.69,3.07,3.59,3.59,0,0,1,1.42.81,2.63,2.63,0,0,1,.79,1.44c.29,1.2,1.55,1.55,2.29,2.36s2,1,4.1-.92c-1.49,4.4-.1,5.15,3.18,2.14-.64,2.25-.44,3.54.28,3.8s1.9-.46,3.15-2c-.26,1.32-.57,2.93,0,3.22.86.49,1.69,1.12,2.62,1.54a3,3,0,0,0,3.22-.44c.3-.23.36,0,.48.26.88,2.15,1.63,2.07,3.4-.57.19,1.4.48,2.69,1.28,2.81l2,.3,1,.15c.34,0,.69,0,1,.07.51,0,1-.43,1.37-1.28.32-.7.47-.87.81-.1.52,1.19,1.07,1.74,1.6,1.67s1-.87,1.45-2.24c.3-1,.41-.87.71,0,.46,1.39,1.09,1.89,1.79,2,1,.13,1.42-3.26,1.75-2.76.86,1.19,1.69,2.43,2.65,2.19,1.17-.24,2.56,0,3.46-1s1.95-1.1,3.22-.83c1,.23.39-3.07,1.15-2.53,1,.65,2,1.55,2.71,1.12,1.06-.58,2.14-1.1,3.23-1.61.39-.17.67-.55.58-1.32-.12-.95.27-.73.83-.63a4,4,0,0,0,3.23-.59,6.73,6.73,0,0,0,1.91-2.58,2.58,2.58,0,0,0-.34-1.39c-.35-.81-.27-.85.46-.46,2.58,1.43,3.4.79,2.59-1.79-.16-.5-.26-.74.39-.52,2.85.94,3.3.14,1.81-2.92,1.3.51,2.52.84,3,.19s-.63-2.13-.5-2.73,2.24.28,2.87-.33-1.6-2.75-.5-2.75c1.36,0,2.32-.26,2.73-1a22.38,22.38,0,0,1,1.2-2.4c.6-1,.52-2.11-1.93-3.68,4.55.42,5.1-1,1.54-3.56,4.32-.12,4.64-1.37.94-3.81,1.44,0,2.91-.17,3-.79.14-1,.64-1.89.84-2.87A2.94,2.94,0,0,0,442.8,140.93Z" style="fill:#382d15;"/><path d="M450,75.83c0-.16-.19-.31-.23-.46l-5.32.36h0l5.32-.36a2.06,2.06,0,0,0,.07-.64c0-1,0-1.94,0-2.9a6.29,6.29,0,0,0-.76-2.72,6.18,6.18,0,0,1-.92-4.65c.32-1.57-.73-3-1-4.45s-1.37-2.54-4.21-2.44c2.57-2.31,3.07-4.34.9-4.76s-2.33-.87-1.08-2.61-.34-2.65-3.76-2.91c1.29-1.3,2.1-2.56,1.55-3.63-.8-1.63-1.24-3.52-2.65-4.73a5.87,5.87,0,0,1-2.16-3.76,7.3,7.3,0,0,0-3-4.66A4.94,4.94,0,0,1,430.38,27c-.2-1.55-1.65-2.45-2.4-3.74s-2.16-2-4.8-1c2-4.5.68-5.77-3.67-4.14,2.13-4.35-.19-5.74-3.86-3.84.57-1.26,1.3-2.77.7-3.37-1.86-1.88-3-4.88-6.72-4.64-.44,0-.46-.22-.52-.58-.47-2.72-1.54-3.17-4.69-1.57-.05-1.49-.12-3.1-2.1-3.73A12.49,12.49,0,0,0,400.8,0a10.07,10.07,0,0,0-1.07,0,5.65,5.65,0,0,0-1.23.11,9,9,0,0,0-1.43.4,8.41,8.41,0,0,0-1.53.87l-.35.26-.11.09-.13.11-.26.23-2,1.83a2.06,2.06,0,0,0-.38,2.15c.21.79.18,1.06-.7.85-2.69-.64-3.6.46-2.64,3.3.34,1,.16,1-.74.64a2.72,2.72,0,0,0-3,.13c-1,.8.53,3.85-.12,3.77-1.62-.2-3.17-.52-4,.49-1,1.22-2.65,2.07-3.08,3.69a4.75,4.75,0,0,1-3,3.3c-1.19.53.9,3.2-.17,3.28-1.31.13-2.7,0-3.36,1q-.71,1-1.45,1.94l-1.43,2a1.6,1.6,0,0,0-.22,1.76c.42.91-.09,1-.74,1.2-3,1.25-4.26,3.84-4.72,6.81-.06.34.34.93.7,1.38.57.72.49.84-.41.8-3.2-.14-3.83,1-2.46,3.62.27.51.43.74-.31.84-3.31.44-3.54,1.55-1.48,4.55-1.47.07-2.81.27-3.23,1.31s1,2.34.93,3.17-2.43.7-2.93,1.79,2,2.8.88,3.3c-1.42.62-2.39,1.34-2.62,2.51a35.71,35.71,0,0,1-.92,3.64c-.44,1.53-.06,3,2.58,4.23-2.33.61-3.62,1.36-3.73,2.38s.81,2.11,2.89,3.22c-4.23,1.9-4.14,3.85.25,5.77-1.32.61-2.67,1.44-2.53,2.37.1.72.19,1.44.24,2.18a12.53,12.53,0,0,0,.29,2.19A5,5,0,0,0,353.65,93c.29.15.49.26.3.6a3.83,3.83,0,0,0-.58,1.71,1.7,1.7,0,0,0,.46,1.21c.59.65,1.77.94,3.36.88-1.08,1.31-1.64,2.51-1.06,3.46,1,1.73,1.72,3.82,3.47,4.88a6.4,6.4,0,0,1,1.91,1.61,8.73,8.73,0,0,1,1.26,2.14,7.8,7.8,0,0,0,1.68,2.34,7.32,7.32,0,0,0,2.46,1.49,7.1,7.1,0,0,1,3.95,3.06,6.51,6.51,0,0,0,4.8,2.92,7.07,7.07,0,0,1,2.48.69,12,12,0,0,1,2.08,1.47,7.58,7.58,0,0,0,2.42,1.44,6.28,6.28,0,0,0,2.76.41,8.13,8.13,0,0,1,5.08,1.2c1.6.93,3.56.62,5.36.77,1.07.09,2-.44,2.65-2,.41-1,.57-.89,1,0,1.55,2.84,3.59,2.79,4.71-.38.37-1,.54-.87,1,0A2.7,2.7,0,0,0,408,124.5c1.42-.13,1.71-3.52,2.35-3.08,1.21.75,2.41,2,3.7,1.59l2.5-.72a5.85,5.85,0,0,0,2.29-1.14,5.31,5.31,0,0,1,4.47-2c.05,0,.09,0,.13-.06,1-.47.48-2.84,1.14-3.07s2.37,1.2,3.34.54c.8-.58,1.74-1,2.56-1.52a7.23,7.23,0,0,0,2.16-2,6.43,6.43,0,0,1,3.51-2.95,7.21,7.21,0,0,0,2.49-1.72,8.52,8.52,0,0,0,1-1.19,7.62,7.62,0,0,0,.65-1.4,7.19,7.19,0,0,1,1.14-2.15,9,9,0,0,1,1.73-1.72,9.61,9.61,0,0,0,1.15-1,4.93,4.93,0,0,0,.92-1.23,7.26,7.26,0,0,0,.92-2.89,8,8,0,0,1,.59-2.61A13.2,13.2,0,0,1,448.09,92a7.15,7.15,0,0,0,1.27-5.41A8.9,8.9,0,0,1,450,81C450.58,79.35,450.18,77.54,450,75.83Z" style="fill:#ff3366;"/><path d="M426,75.43c0-.09-.18-.16-.21-.24a.68.68,0,0,0,.11-.34c0-1,.4-2.11-.43-2.94a1.78,1.78,0,0,1-.42-2.43c.51-.89-.31-1.54-.38-2.34s-.9-1.27-3.64-.87c2.87-1.58,3.68-2.82,1.71-2.77s-2-.18-.49-1.35.23-1.52-2.87-1.13c1.45-.94,2.48-1.82,2.22-2.38-.39-.83-.32-1.93-1.31-2.43a1.66,1.66,0,0,1-1-2,2.13,2.13,0,0,0-1.4-2.43c-.91-.36-1.35-.82-1.1-1.87s-.73-1.32-1-2-1.22-1-3.7.26a13.28,13.28,0,0,0,1.58-2c.22-.63.23-1,.08-1.23-.31-.39-1.43,0-3.36,1,2.91-3.58,1.5-4.16-1.83-2,.8-1,1.79-2.32,1.51-2.65-.86-1-.88-3.1-3.63-2.21-.33.11-.26-.09-.2-.36.45-2.09-.25-2.33-2.82-.49.4-1.29.74-2.65-.36-3.18a8.41,8.41,0,0,0-.85-.34,7.59,7.59,0,0,0-1.24-.31,6,6,0,0,0-.94-.08h-.52l-.26,0-.36.05a7,7,0,0,0-1.43.4,6.52,6.52,0,0,0-1.44.86,3.92,3.92,0,0,0-.51.44l-.12.12-.25.24-.49.48c-.24.24-.12.79.33,1.57s.43.84-.29.49c-2.19-1.07-2.56-.41-1,1.91.54.82.41.81-.38.31-1.21-.76-1.88-.83-2.27-.56-.56.38,1.49,2.94,1,2.74-1.3-.5-2.6-1.06-3-.5s-1.51.92-1.39,2-.45,1.54-1.48,1.7c-.81.13,1.62,2.42.77,2.25-1-.2-2.2-.54-2.49,0-.42.71-.9,1.37-1.36,2.06-.17.24-.2.57.28,1.13s.18.61-.3.65c-2.22.22-2.67,1.7-2.38,3.46,0,.2.52.65,1,1,.68.55.63.61-.16.43-2.83-.66-3.2-.06-1.36,1.77.36.36.55.52-.09.46-2.87-.3-2.93.34-.39,2.44-1.35-.2-2.49-.26-2.74.25s1.35,1.5,1.46,2-2.11.07-2.46.6,2.37,1.83,1.35,2c-1.25.17-2.06.46-2.19,1.06a9.57,9.57,0,0,1-.44,1.9c-.33.77.16,1.62,2.88,2.45-2.25.12-3.43.47-3.53.95s.92,1.2,3,1.85c-2.1.39-3.17.88-3.19,1.4s1.1,1.08,3.22,1.57c-1.37.32-2.8.78-2.76,1.28.12.76-.1,1.6,0,2.4s.57,1.51,1.91,1.88c.24.06.4.11.15.32-2,1.65-.72,2.34,2.14,1.91-1.32.92-2.13,1.74-1.84,2.28.48,1,.46,2.32,1.69,2.77a2,2,0,0,1,1.1.86,3,3,0,0,1,.4,1.34,2.38,2.38,0,0,0,2.05,2.28,2.23,2.23,0,0,1,2,1.88,2.26,2.26,0,0,0,2.48,1.84,2.33,2.33,0,0,1,2.41,1.4,2.6,2.6,0,0,0,2.79,1.26,2.48,2.48,0,0,1,2.81.84c.84.78,2,.51,3,.6.61.06,1.19-.44,1.56-2,.25-1,.32-.86.56,0,.79,2.87,2.11,2.85,2.55-.19.15-1,.24-.84.56,0,.5,1.33,1.09,1.81,1.66,1.79.83,0,.59-3.32,1-2.82.77.87,1.65,2.22,2.35,1.93.87-.37,2-.26,2.57-1.18s1.15-1.57,2.41-1.13c0,0,0,0,.07,0,.56-.26-.35-2.44,0-2.53s1.85,1.44,2.36,1c.83-.65,2.06-.95,2.41-2.12a2,2,0,0,1,1.81-1.72,2.54,2.54,0,0,0,2.09-2.49,2.33,2.33,0,0,1,1.43-2.22,3.61,3.61,0,0,0,.76-.5,2.81,2.81,0,0,0,.51-.69,2.4,2.4,0,0,0,.21-1.71c-.37-1.25.16-1.9,1-2.72a2.41,2.41,0,0,0,.59-3,2.5,2.5,0,0,1,.3-3C426.49,77.3,426.11,76.33,426,75.43Z" style="fill:#f1c61a;"/><path d="M254.66,587.41a.94.94,0,0,0,.12-.41c0-1.24.5-2.6-.33-3.72a2.71,2.71,0,0,1-.46-3.12c.41-1.08-.45-2-.59-3s-1.13-1.68-3.86-1.22a6.88,6.88,0,0,0,2.42-2.51c.21-.63-.17-1-1.19-1-2,.09-2.1-.18-.83-1.72s-.28-1.93-3.37-1.23c1.23-1.28,2-2.45,1.46-3.11-.38-.5-.66-1.09-1-1.62a2.88,2.88,0,0,0-1.47-1.19,3.11,3.11,0,0,1-2.09-2.14,3.43,3.43,0,0,0-2.94-2.42,2.58,2.58,0,0,1-2.41-1.7c-.46-1.08-1.68-1.17-2.53-1.75s-2-.48-3.62,1.81c.58-4.49-.91-5-3.28-1.27.27-4.6-1.92-4.51-3.45-.79-.06-1.32-.15-2.94-.73-3.05-.91-.16-1.79-.72-2.73-.79a2.78,2.78,0,0,0-2.77,1.34c-.21.31-.32.13-.49-.11-1.36-1.79-2-1.5-2.83,1.55-.56-1.25-1.2-2.42-1.95-2.3l-1.91.31-1.87.47c-.46.12-.74.69-.8,1.6,0,.76-.12.95-.67.35-1.69-1.85-2.68-1.28-2.45,1.52.08,1,0,.94-.62.2-.9-1.13-1.62-1.38-2.26-1.19-.91.27,0,3.45-.48,3.13-1.2-.81-2.4-1.65-3.14-1.1-.46.32-1,.55-1.5.84a2.18,2.18,0,0,0-1.11,1.27,2.71,2.71,0,0,1-.87,1.39,3.19,3.19,0,0,1-1.55.55c-1,.15,1,2.84.1,2.66-1.1-.21-2.32-.57-2.82.05-.73.86-1.33,1.81-2,2.69-.24.32-.37.71.09,1.36s.12.74-.41.88a3.5,3.5,0,0,0-2.47,1.85,5.78,5.78,0,0,0-.4,3c0,.25.56.69,1,1,.72.52.68.6-.15.58-1.47,0-2.32.18-2.54.62s.17,1.11,1.23,2c.41.34.62.49,0,.6-2.91.53-3,1.42,0,3.17-1.37.21-2.51.54-2.65,1.29s1.64,1.38,1.87,1.91-2,.89-2.2,1.69,2.8,1.33,1.87,1.88c-1.12.7-1.78,1.4-1.7,2.19s.31,1.65.32,2.49a1.48,1.48,0,0,0,.75,1.33,5.6,5.6,0,0,0,2.93.39c-4,2.19-3.67,3.66.77,3.46-1.74,1.29-2.5,2.23-2.28,2.8s1.5.73,3.7.49c-1.12.86-2.25,1.88-2,2.41.42.8.63,1.75,1.06,2.58a2.59,2.59,0,0,0,2.68,1.41c.26,0,.45,0,.3.3-1.17,2.38.31,2.73,3,1.43-.87,1.36-1.3,2.45-.81,3,.94.85,1.51,2.27,2.95,2.45a2.89,2.89,0,0,1,2.51,1.91,3.45,3.45,0,0,0,3.14,1.81,2.83,2.83,0,0,1,2.89,1.42,3.14,3.14,0,0,0,3.41,1.22,2.94,2.94,0,0,1,3.15.8,3.5,3.5,0,0,0,3.49.57,3.09,3.09,0,0,1,3.33.2c1.11.66,2.31,0,3.45,0,.69,0,1.23-.65,1.41-2.22.12-1.05.23-.92.64-.11.68,1.36,1.36,2,1.89,1.9s.91-1,1-2.51c.07-1,.2-.88.65-.07.71,1.26,1.4,1.62,2.07,1.56.93-.16.46-3.47,1-3,.95.75,2.07,2.07,2.84,1.6,1-.57,2.3-.56,2.94-1.64s1.3-1.87,2.77-1.6c0,0,.05,0,.08-.05.63-.38-.41-2.53,0-2.71s2.13,1.22,2.69.68c.87-.93,2.32-1.36,2.67-2.75a2.69,2.69,0,0,1,2-2.19,3.45,3.45,0,0,0,2.26-3.07,2.86,2.86,0,0,1,1.55-2.64,3.32,3.32,0,0,0,1.6-3.36,2.93,2.93,0,0,1,1.15-3,3.22,3.22,0,0,0,.82-3.34,3.25,3.25,0,0,1,.58-3.48c.61-1,.29-2.23.29-3.35C254.85,587.61,254.69,587.51,254.66,587.41Z" style="fill:#f1c61a;"/><path d="M746.24,809.16c.14-6.88,1.46-14-1.28-20.53a2.25,2.25,0,0,1,.06-1.88c1.66-5.12,1.3-7.12-1.9-11.2,1.2-1.8,2.38-3.65,2.21-6.4l-.63-10.69-1-16.92-9.16,14.26-1.84,2.86a7.46,7.46,0,0,0-1.27,4.48A2.06,2.06,0,0,1,730,765.6c-4.1,2.09-5.83,5.16-5.36,9.44.17,1.51-.14,1.8-1.42,2.08l-.27.08a25,25,0,0,0-1.13-5.91,32.58,32.58,0,0,1-1.74-11.46c0-3.08-3.61-4.32-3.27-6.37.45-2.56,1.1-4.82.4-7.66-1.06-4.06-2.09-8.12-3.24-12.15a7,7,0,0,0-2-3.63c-1.2-1-1.09-1.92-1.18-3.46a35.23,35.23,0,0,0-1.16-7L707,709.08l-7.25,9.07a54.46,54.46,0,0,0-7.21,12.42,4.22,4.22,0,0,0,0,2.51c.29,1.17.08,1.5-1.15,2-4.38,1.84-6,4.57-6,9.52,0,1,.06,1.39-1,2.06-4.69,3-5.74,5.39-5,11.12a9.7,9.7,0,0,0-4.95,4.69,6.3,6.3,0,0,0-.47,1.4c-.88-2.42-1.78-4.83-2.59-7.27-1.23-3.72-3-6.65-6.35-7.47,2.32-6.15.71-10.16-5.16-13.24,1.82-6.27.41-9.51-5.87-13.11.77-1.63,1.46-3.62.51-5.58-2.55-5.33-4.27-11.26-8.15-15.79L639,692.92l-1.76,8.68a20.51,20.51,0,0,0-.36,2.6,1.8,1.8,0,0,1-.62,1.5,9.76,9.76,0,0,0-3.65,5.37,9.66,9.66,0,0,0-.27,3,12.63,12.63,0,0,0,.7,3.13,8.11,8.11,0,0,0-4.52,4.93c-.74,2.3-1.7,4.58-2.4,6.92a30.08,30.08,0,0,0-1.54,7,45.87,45.87,0,0,1-2.61,11.6,40.37,40.37,0,0,0-1.61,6.68,38.33,38.33,0,0,0-.4,6.85,42,42,0,0,1-.12,6.07,36.94,36.94,0,0,1-.95,6,40.32,40.32,0,0,0-.79,6.83,38,38,0,0,0,.57,6.83c.24,1.17.41,2.29.54,3.39l-.14-.23c-2-3.55-5.18-6.63-7.8-9.95-1.55-2-3.32-3.34-5.44-3.53a3,3,0,0,1-.91-.19l-6.86-3,1.73,4.44c.23.6-.06,1-.77,1.75a8.7,8.7,0,0,0-.83,11.72c.91,1.28.74,1.66-.18,2.55-1.46,1.4-2,3.45-2.17,5.87-.21,3.35,3.07,5.9,2.5,7.25-1,2.5-2.58,4.47-2.47,7.71.14,4.11-.34,8.36.29,12.25s.94,7.72-.18,11.51a1.53,1.53,0,0,0,0,.34c-.15,2.56,2.15,4.24,1.93,5.95a6.88,6.88,0,0,1-1.31,2.74,6.45,6.45,0,0,0-1.28,3.27c-.06,1.09-.19,2.4-.31,3.61s-.22,2.47-.31,3.69-.1,2.45-.1,3.66a30.27,30.27,0,0,0,.29,3.57,44.8,44.8,0,0,1,.51,11.27,36.56,36.56,0,0,0,2,14.41,55,55,0,0,1,2.79,11.38,32.7,32.7,0,0,0,5,13.49,84.89,84.89,0,0,1,6.21,11.18,27.68,27.68,0,0,0,9,10.45c4.19,2.77,7.6,5.49,11.71,8.31a22.45,22.45,0,0,0,3,1.69c1,.46,2.12.9,3.21,1.3s2.23.65,3.35,1,2.26.47,3.38.73c.43.09.85,0,1.26.08a13.9,13.9,0,0,0,1.66.39,48,48,0,0,0,7.78.79,36,36,0,0,0,3.85-.22,22.72,22.72,0,0,0,3.65-.77,105.68,105.68,0,0,1,12.22-3.25c3.85-.74,7.48-3.13,11-5s6.07-4.46,6.21-8a12.9,12.9,0,0,0,6.42-1,7,7,0,0,0,3.59-4,8,8,0,0,1,1.73-3.57,7.67,7.67,0,0,1,3.57-1.67A6.48,6.48,0,0,0,711.7,921a17.15,17.15,0,0,0,1.62-6.62,8.6,8.6,0,0,0,6.42-3.8c2.63-4,5.68-8,7.21-12.34a52.14,52.14,0,0,1,4.93-10.29,36.86,36.86,0,0,0,3.17-6.56c.43-1.16.81-2.33,1.15-3.5s.54-2.36.74-3.52c.16-1,.35-1.91.54-2.82s.37-1.8.62-2.67a37.42,37.42,0,0,1,2-5.26c1.59-3.34,1.84-7.5,2.69-11.25.92-4,.77-7.54-1.62-10.06q3.73-3.29,4.1-6.81a10.22,10.22,0,0,0-2.59-7.3,9.41,9.41,0,0,0,.64-14.24C744.59,812.69,746.2,811.34,746.24,809.16Z" style="fill:#382d15;"/><path d="M703.91,850.23a16.37,16.37,0,0,0-1.55-5.11c-.54-1.1-1.08-1.79-1.47-2.5l-1.48,1.78c-2.3,2.85-4.68,5.67-7.1,8.58s-4.89,5.91-7.23,9.14a147,147,0,0,1-12.42,15.59,73.82,73.82,0,0,0-6,7.48c-.73,1-1.45,2-2.17,3.07a14.15,14.15,0,0,1-.62-4.69,17,17,0,0,1,1.64-5.64,12.13,12.13,0,0,0,1-3.58,18.39,18.39,0,0,0-.11-4.11,33.54,33.54,0,0,0-3-9.55,17.12,17.12,0,0,0,2.37-10.81c-.59-7.4-1-15.11-2.84-22a148.37,148.37,0,0,1-3.62-17.45,84.33,84.33,0,0,0-2.11-9.9L653.85,788l-7.21,10.89c-1.18,1.78-2.32,3.59-3.39,5.41s-2,3.69-2.91,5.51a102.06,102.06,0,0,1-8.59,15.3c-3.22,4.74-5.49,10.78-8,16.28-2.72,5.83-4.16,11.18-2.78,15.37-6.87,5.93-9.13,13-7,21.36a17.32,17.32,0,0,0-2.15,2.32l-.26-.17c.41-2.33,1-5-.3-8.13-4.25-10-7.62-20.78-14.47-29.11a5.46,5.46,0,0,1-1.2-2.73c-.94-4-1.83-6.69-3.22-8.95a24.12,24.12,0,0,0-6.12-6.39,20.56,20.56,0,0,0-2.42-10q-5.37-9.91-11-19.66a16.92,16.92,0,0,0-4.77-5.46A4.79,4.79,0,0,1,565.5,786c-1.18-6.13-4-10.6-8.48-13.66,0-.26.05-.51.09-.78l-.88.25-.33-.22A4.07,4.07,0,0,1,554.1,770l-3.77-8.15-1.38,9.6a4.25,4.25,0,0,1-.74,1.64,9.85,9.85,0,0,0-.64,1.21l-.35.1,0,.08.13.25a22,22,0,0,0-1.3,7.66c-.18,5.29,3.19,9.73,2.67,11.39-1.2,4.12-2.48,7.57-2.15,12.93.38,6.57.15,13.56,1.4,19.62a75.93,75.93,0,0,1,1.33,9.16c.23,3,.31,5.92.29,9-.06,4.8,3.66,7.37,3.26,10.51-.38,3.53-1,6.65-.54,10.58-2.23-3.1-4.57-6.12-7-9.07a7.93,7.93,0,0,0-3-2.06c-1.45-.62-1.8-1.15-2.1-3-1.08-6.57-3.78-10.66-9.65-14.82a4.12,4.12,0,0,1-2.15-2.88c-2.19-7.85-4.6-10.94-11.58-15.3a21.35,21.35,0,0,0-3.87-9.52c-2.58-3.6-5.6-4.7-7.73-7.13s-2-6.09-4.66-9.85c-2.79-4-7-4.69-8.26-7.93a43.58,43.58,0,0,0-4.35-8.58l-9.25-14-.57,17.39q0,1.41,0,3l.3,7.36c.14,2.45.27,4.9.35,7.35.3,6.21,1.31,11.53,4.47,14.37a27.23,27.23,0,0,0-1.9,5.9,18.82,18.82,0,0,0-.18,5.58,19.35,19.35,0,0,0,1.47,5.45,30.31,30.31,0,0,0,3.2,5.49c-2.87,8.56-1.86,14.12,4.12,22.46a12.2,12.2,0,0,0-1.11,8.11c2.44,10.45,4,21.57,9.38,30.77a4.27,4.27,0,0,1,.83,2.4,27,27,0,0,0,.46,5.27,22.72,22.72,0,0,0,1.49,4.59,21.91,21.91,0,0,0,1.13,2.17,95.38,95.38,0,0,1-9.3-9.24,113.31,113.31,0,0,0-15.49-14.35,85.82,85.82,0,0,1-13.69-12.79c-1.18-1.37-2.45-2.75-3.78-4.11l-10.57-10.85.82,15.62a69.89,69.89,0,0,0,2.49,15.75,182.19,182.19,0,0,1,4.11,19,76.91,76.91,0,0,0,6.38,20.11,178.1,178.1,0,0,1,7.9,18.34c2.31,6.18,6.21,12.13,9.77,18l-.23.16,2.54,3.72,2.06-1.46.07,0-2,1.39a22,22,0,0,0,2.13,1.87l.61.47a20.63,20.63,0,0,0,.92,2.68l1.53-1.06.93-.27a20.63,20.63,0,0,0,4.13-1.68c1.91-1,2.55-.87,4,0,2.32,1.33,5.55,1.75,9.35,1.72,5.25,0,9.13-3.48,11.29-3,4,.86,7.17,2.26,12.32,1.91,6.53-.46,13.33-.35,19.56-1.45,6.4-1.11,12.33-2,18.62-1.54a4.16,4.16,0,0,0,.56-.05c4.2-.37,6.5-3,9.27-3.2,3.17-.23,5.89,1.53,10.31.91,7.44-1.08,15.21-1.69,22.21-3.62a100.81,100.81,0,0,1,17.12-3.28,93.87,93.87,0,0,0,21.86-5.11c6-2.16,11.26-3.77,17.51-5.44l.37-.1,1.14-.31,1.38-1.64a69.92,69.92,0,0,0,11.33-18.8c2.53-6.44,5.08-11.7,8.12-17.7a70.09,70.09,0,0,0,6.53-19.46,200.8,200.8,0,0,1,4.85-20.44,48.6,48.6,0,0,0,1.11-4.79c.3-1.63.61-3.27.81-4.94l.6-5,.09-.88c0-.39.06-.8.07-1.22A17.23,17.23,0,0,0,703.91,850.23Z" style="fill:#5020ee;"/><path d="M621.1,617.58c0-.2-.16-.38-.19-.56a2.92,2.92,0,0,0,.12-.75c.08-2.27.41-4.71-.52-6.81a9.36,9.36,0,0,1-.88-5.71,6.66,6.66,0,0,0-.34-2.76c-.28-.91-.68-1.8-.87-2.72-.43-1.85-1.58-3.2-4.5-3.18a6.79,6.79,0,0,0,1.94-3.65,1.88,1.88,0,0,0-1.64-2c-2.24-.5-2.56-1-1.58-3.15s-.93-3.22-4.6-3.32c1-1.59,1.51-3.12.62-4.35-1.34-1.85-2.46-4-4.42-5.23a10.21,10.21,0,0,1-3.84-3.91A10.35,10.35,0,0,0,595,565a8.3,8.3,0,0,1-4.43-3.1,4.79,4.79,0,0,0-1-1,9.79,9.79,0,0,0-1.22-.72c-.85-.43-1.74-.82-2.54-1.3-1.68-1.09-3.54-1.21-5.56.88-.22-2.48-.95-3.9-2-4.34s-2.55.27-4.24,2c-.33-2.44-1.4-3.79-2.68-4s-2.72.61-3.88,2.43c-.34-1.38-.73-3.06-1.79-3.27-1.67-.25-3.33-.88-5-1a6.66,6.66,0,0,0-5,1.26c-.39.31-.59.13-.92-.11-2.5-1.82-3.63-1.45-5.37,1.69-1-1.21-2-2.34-3.36-2.16-1.16.18-2.31.42-3.47.62s-2.3.51-3.44.79a2.66,2.66,0,0,0-1.76,1.9c-.26.82-.45,1-1.28.54-1.27-.79-2.36-1-3.17-.6s-1.35,1.42-1.58,3c-.17,1.09-.37,1.08-1.15.42a3.21,3.21,0,0,0-3.47-.65c-1.57.63-1.24,4.11-1.9,3.9-1.71-.53-3.35-1.16-4.7-.16-.84.59-1.79,1.07-2.67,1.64a5.92,5.92,0,0,0-2.2,2.09,8.07,8.07,0,0,1-1.88,2.23,11,11,0,0,1-2.5,1.39c-1.49.62.19,3.62-1,3.75-1.49.16-3,.14-3.93,1.27-.66.79-1.29,1.6-1.91,2.42s-1.25,1.63-1.85,2.47a2.1,2.1,0,0,0-.41,2.1c.38,1-.15,1.14-.87,1.55-3.32,2-4.69,5.46-5,9.07,0,.42.42,1,.83,1.46.65.7.57.86-.35,1.06-1.66.35-2.59.95-2.94,1.77s-.07,1.89.84,3.23c.35.52.54.74-.18,1.09-3.19,1.59-3.34,3-.61,5.84-1.46.59-2.64,1.33-2.84,2.7s1.54,2.39,1.72,3.37-2.09,1.75-2.26,3.21,2.8,2.46,1.87,3.49a5,5,0,0,0-1.58,3.94c.17,1.52.42,3,.56,4.55a4.26,4.26,0,0,0,1,2.51,4.74,4.74,0,0,0,3.1,1.25c-3.78,3.27-3.09,5.62,1.67,6.53-3.11,3.65-2.32,5.55,2.66,6.29-1,1.08-2,2.41-1.46,3.36.37.75.74,1.5,1.08,2.28A16.68,16.68,0,0,0,500,652.1a6.62,6.62,0,0,0,3.94,3.27c.33.1.59.17.52.58-.53,3.15,1.49,4.18,4.67,3.46-.61,1.62-.75,3,.15,3.94s1.59,1.77,2.44,2.6a8.14,8.14,0,0,0,2.87,2,10.11,10.11,0,0,1,4.62,3.46,10.51,10.51,0,0,0,2.57,2.18,9.77,9.77,0,0,0,3.15,1.18,10.43,10.43,0,0,1,2.84.88,9.42,9.42,0,0,1,2.46,1.69,9.72,9.72,0,0,0,2.91,1.73,9,9,0,0,0,3.33.52,8.35,8.35,0,0,1,3,.33,12.27,12.27,0,0,1,2.76,1.14,12.31,12.31,0,0,0,3.12,1.05,9.59,9.59,0,0,0,3.27,0,10.93,10.93,0,0,1,6.11.36c2,.65,4.21.05,6.31-.1a3,3,0,0,0,2.79-2.36c.34-1.07.55-1,1.21-.16,2.18,2.59,4.45,2.17,5.48-1.12.34-1.09.56-.94,1.21-.2a3.29,3.29,0,0,0,3.33,1.17c1.64-.39,1.73-3.84,2.51-3.54,1.47.53,3,1.67,4.44.92,1.84-.9,4-1.38,5.43-2.89s2.82-2.77,5-3c.06,0,.1-.06.15-.1,1.12-.72.4-3.06,1.12-3.48s2.74.71,3.79-.23c1.72-1.58,3.94-2.8,5-4.92a9.33,9.33,0,0,1,3.63-4,10,10,0,0,0,4.13-5.62,10,10,0,0,1,2.84-4.82,9.55,9.55,0,0,0,2.92-6.15,10.22,10.22,0,0,1,2.06-5.59,11,11,0,0,0,1.31-2.93,8.87,8.87,0,0,0,.21-3.18,8.76,8.76,0,0,1,.07-3.27,14.19,14.19,0,0,1,.95-3.1,10.07,10.07,0,0,0,.51-3C621.2,619.65,621.09,618.6,621.1,617.58Z" style="fill:#ff3366;"/><path d="M343.77,571.81a5.84,5.84,0,0,0,4.08,4.44c.53.14,1,.3,1.48.44a12.14,12.14,0,0,1,1.19.38,9.68,9.68,0,0,1,2.17,1.17,4.29,4.29,0,0,0,4.59.42,3,3,0,0,1,3.3,0,3.49,3.49,0,0,0,3.49,0,3,3,0,0,1,3.31,0c1.1.62,2.27.08,3.41.11.68,0,1.26-.52,1.65-2.05.26-1,.38-.88.68,0,1,2.9,2.14,2.9,3.11-.05.32-1,.43-.8.68.09.39,1.4.94,1.92,1.58,2,.89.15,1.55-3.11,1.92-2.54.68,1,1.21,2.6,2.08,2.53,1.11-.09,2.26.45,3.31-.18s2.1-1,3.15.07c0,0,.06,0,.09,0,.71.06,1.13-2.28,1.6-2.18s1,2.23,1.72,2.17c1.26-.09,2.57.49,3.78-.2a2.58,2.58,0,0,1,2.93,0,3.56,3.56,0,0,0,3.77,0,2.75,2.75,0,0,1,3,0,3.44,3.44,0,0,0,3.72,0,3,3,0,0,1,3.3,0,3.38,3.38,0,0,0,3.54-.19,3.59,3.59,0,0,1,3.68-.23,3.4,3.4,0,0,0,1.79.09c.3-.05.59-.12.89-.19a9.27,9.27,0,0,0,3.56-1.36,5.42,5.42,0,0,0,.91-.91l-4.07-3.45h0l4.07,3.45a3.51,3.51,0,0,0,.49-.84,13.45,13.45,0,0,0,1.13-4.86v-.59a3.31,3.31,0,0,0,0-.46,2.62,2.62,0,0,0-.33-.9,2.63,2.63,0,0,1,0-3.12c.64-1,0-2,.11-3s-.56-1.88-3.31-2.39c3.16-1,4.33-2.15,2.42-2.91s-1.84-1.12,0-1.93.7-1.75-2.33-2.83c1.69-.49,3-1.06,2.92-1.88,0-1.24.42-2.54-.28-3.71a2.81,2.81,0,0,1-.12-3,3.77,3.77,0,0,0-.22-3.8,2.4,2.4,0,0,1-.13-2.95,2.57,2.57,0,0,0,.16-2l-4.42-24.66-6.36,22.82a4.68,4.68,0,0,1-.41,1.09c-.45.81-.37,1.66.83,2.71a1.73,1.73,0,0,1-.14.86c-1.4,0-2.18.2-2.34.61s.61,1.39,2.33,2.78c-2.29-.42-3.39-.37-3.53.05-.07.24.09.56.44,1a23.2,23.2,0,0,0,1.55,1.79c-.6-.29-1.24-.64-1.74-.91s-.87-.49-1-.41c-.29.23-.67.06-.83,0s-.17.06-.21.34-.11.63-.27,1.27c-.08.32-.15.11-.21-.13-.46-1.91-.19-1.58-2,1,.11-1.34.38-2.61-.07-2.82a22.6,22.6,0,0,1-2.68-1.62c-.36-.24-1-.07-1.72.47s-.84.51-.71-.32c.42-2.52-.65-3-2.94-1.21-.8.64-.84.49-.63-.45.32-1.44,0-2.25-.8-2.72-.54-.32-1.38.16-2.06.7s-1.18,1.09-1.29.79c-.52-1.49-1.35-3.06-3.06-2.94a20.82,20.82,0,0,0-3.13.34,4.43,4.43,0,0,0-2.54,1.47,7.24,7.24,0,0,1-3.75,2.93c-.59.23-.34,1-.06,1.73s.64,1.31.14,1.34c-1.23.05-2.54,0-3,.81l-1.75,3.28a1.11,1.11,0,0,0,.26,1.39c.62.71.17.74-.34.93-2.44.92-2.84,2.7-2.72,4.69,0,.23.48.71.89,1.09.64.61.57.69-.23.51-2.88-.64-3.16-.36-1.77,1.86.27.43.4.65-.21.44-1.35-.49-2-.78-2.09-.51s.29,1,.82,2.55c-.49-.45-.92-.89-1.23-1.23s-.52-.5-.63-.5,0,.49,0,1a2.57,2.57,0,0,1-.13,1.18c-.12.17-.36-.34-.53-.86s-.29-1.1-.45-1.2-.35.63-.64,1.17-.57,1-.66.52a12,12,0,0,0-.31-1.5.94.94,0,0,0-.52-.67c-.27-.1-.54-.17-.81-.29a5.63,5.63,0,0,1-.81-.48c-.62-.46-1.59-.38-3.54,1.72.64-2.21.73-3.47.18-3.85s-1.74.12-3.43,1.58c.35-2.18.09-3.47-.67-3.78s-2.15.29-3.57,2.13c-.06-1.42-.41-3-1.34-3.07a14.62,14.62,0,0,0-4.65,0,5.49,5.49,0,0,0-2.36,1.16,4,4,0,0,0-1.39,2.41c-.05.34-.09.58-.49.56a3.05,3.05,0,0,0-1.89.45,1.83,1.83,0,0,0-.87,1.22,2.49,2.49,0,0,0,.23,1.55,5.54,5.54,0,0,0,1.3,1.57,5,5,0,0,0-2.08.52,1.66,1.66,0,0,0-.95,1.27c-.24,1.92-.7,4,.45,5.6A8.89,8.89,0,0,1,343.77,571.81Z" style="fill:#fff;"/><path d="M465.71,725.78a14.35,14.35,0,0,0-1-3.51,13.24,13.24,0,0,0-.86-1.66c-.16-.26-.32-.51-.49-.75l-.16-.23-.09-.14a6,6,0,0,0-1.83-1.9,5,5,0,0,1-2.52-3.7c-.22-1.49-1.53-2.46-2.2-3.76s-1.83-2-4.63-1.4c2.08-2.8,2.34-4.72.15-4.85s-2.42-.64-1.3-2.46-.45-2.52-3.89-2.78c1.25-1.32,2.08-2.55,1.58-3.62-.77-1.62-1-3.51-2.31-4.84a5.43,5.43,0,0,1-1.62-4,7.93,7.93,0,0,0-2-5.13,5.83,5.83,0,0,1-1.27-2.11l-2.12-7-5.66,4.93a10.25,10.25,0,0,1-2.14,1.46c-1.73.91-2.37,2.9-3.39,4.28s-1.24,3.1.78,5.15c-2.41-.1-3.81.26-4.23,1.05s.14,2,1.56,3.88c-4.79-.72-5.06.83-2.92,4.35-1.29-.5-2.73-1.26-3.19-.85a8.54,8.54,0,0,1-2.42,1.27c-.73.33-1.11.77-1.67,2.13-.15.32-.28.14-.45-.09-.65-.89-.88-1.33-1.23-1.16s-.8.91-1.9,2.1c-.07-1.4.14-2.71-.46-3a16.68,16.68,0,0,1-3.34-2.72,2.09,2.09,0,0,0-2.09-.22c-.78.21-1.05.17-.82-.7.73-2.66-.28-3.57-3.24-2.87-1,.25-1.07.06-.62-.83a2.83,2.83,0,0,0-.07-3.2c-.86-1.2-4.08.15-4-.52.11-1.71.3-3.43-1.12-4.43-.85-.61-1.72-1.36-2.71-2a9,9,0,0,0-1.6-.8,5.89,5.89,0,0,0-1.78-.31,33,33,0,0,1-6.94-.72c-1-.11-1.59.7-2,1.52s-.65,1.59-1.29,1.42a12.17,12.17,0,0,0-2.39-.34,3.48,3.48,0,0,0-2.21.77,23.59,23.59,0,0,0-4.39,5,2,2,0,0,0-.27,2.1c.47,1,0,1.09-.69,1.53-3,2.09-3.76,5.35-3.63,8.43,0,.35.52.89,1,1.22.72.56.65.71-.22.82-3.12.36-3.47,1.09-2,3.53.3.48.45.72-.27.76-3.21.2-3.24.59-1.8,3.84-.69-.19-1.32-.37-1.85-.48a1.58,1.58,0,0,0-1.2.15c-.27.22-.19.75-.13,1.26s.14,1.15,0,1.37-.64,0-1.06-.48a5.08,5.08,0,0,0-1-.94c-.12,0-.17.16-.24.43l-.24.87a2.24,2.24,0,0,1-.34.74c-.13.12-.26.11-.36-.14-.5-1.18-.5-1.94-1.13-2.16a9.69,9.69,0,0,1-2.43-1.43c-1.11-.9-2.91-1.35-5.07.68.14-2.46-.66-4.07-2.06-4.53s-3.34.33-4.58,2.48c-2.77-4.11-6.66-2.91-6.76,2.32-1.24-.8-2.95-1.37-3.9-.35a23.7,23.7,0,0,0-2.1,2.51c-.3.45-.66,1-.85,1.37a10.2,10.2,0,0,0-.62,1.27,7.54,7.54,0,0,0-.58,3,6,6,0,0,0,1,3.27c.24.35.44.61.19,1a3.93,3.93,0,0,0,.5,4.59,4,4,0,0,0,4.2.81c-.35,1.74,0,3.3,1.29,4,2.28,1.21,4.43,2.52,6.65,2.29a8.48,8.48,0,0,1,5.14,1,7.92,7.92,0,0,0,5.75.51,6.71,6.71,0,0,1,5,.24,6.92,6.92,0,0,0,5.57,0,6.59,6.59,0,0,1,4.95-.15,7.66,7.66,0,0,0,5.34-.25,6.66,6.66,0,0,1,5-.34c1.7.5,3.44-.18,5.14-.28,1-.06,1.84-.66,2.3-2.24.31-1.05.5-.92,1-.08.83,1.39,1.64,2.07,2.3,2s1.41-.75,2.12-2.22c.49-1,.65-.8,1,.09a2.82,2.82,0,0,0,2.31,2c1.31.18,2.37-3.07,2.9-2.5,1,1.07,1.72,2.64,3,2.6,1.64-.05,3.34.55,4.94,0s3.17-.85,4.71.24c0,0,.09,0,.14,0,1.06.1,1.79-2.22,2.49-2.09s1.36,2.28,2.49,2.26c1.91,0,3.86.62,5.72,0a5.73,5.73,0,0,1,4.44.11,7.74,7.74,0,0,0,5.75.07,6.19,6.19,0,0,1,4.62-.07,7.42,7.42,0,0,0,5.65-.15,6.55,6.55,0,0,1,5-.23,7,7,0,0,0,5.25-.49,7.6,7.6,0,0,1,5.39-.6,5,5,0,0,0,1.35.08A9.49,9.49,0,0,0,459,732c1-.24,2-.62,2.94-1L462,731l0,0h0l.08,0a6.11,6.11,0,0,0,.94-.45,6,6,0,0,0,1.71-1.51,6.15,6.15,0,0,0,1-1.82A5.94,5.94,0,0,0,465.71,725.78Z" style="fill:#fff;"/><path d="M133.85,448.08c-.06-1.82-1.91-3.5-4.05-4.69a4,4,0,0,0-1.7-.58,3.9,3.9,0,0,0-.84,0,3.28,3.28,0,0,0-.75.23,3,3,0,0,0-1.67,2.77,5.56,5.56,0,0,0-2.78-2.44c-.74-.2-1,.11-.86,1.07.32,1.85,0,1.91-.59.19s.06-.68-1.09,2.21c0-1.74.27-3,0-3.07-.41-.14-.58-.83-1.44-.63s-1.21-.23-1.21-1a1.53,1.53,0,0,0-1.44-1.67,1.38,1.38,0,0,1-1.14-1.83c.22-1-.76-1.44-1.09-2.29s-1.35-1.32-3.93-.25c3-3.38,2-4.72-2.06-2.83,1.33-1.92,1.41-3.24.74-3.72s-2.06-.09-3.55,1.25c.48-1.24,1-2.81.37-3.2a19.05,19.05,0,0,0-2.87-1.81,3,3,0,0,0-3.39.66c-.28.26-.36.06-.52-.21-1.22-2-2.11-1.79-3.17,1.23-.49-1.3-1.07-2.51-1.87-2.45a34.1,34.1,0,0,0-3.87.66c-.46.11-.75.67-.82,1.6-.05.76-.12,1-.66.34-1.64-1.94-2.59-1.4-2.39,1.43.07,1-.05.93-.61.16-.85-1.19-1.53-1.47-2.15-1.33-.86.21-.11,3.45-.54,3.06-1.07-.94-2-2-2.59-1.63s-1.64.07-2,1-1,.91-1.5.24c-.15-.28-.2.42-.3,1.09s-.25,1.29-.34.91a5.89,5.89,0,0,1-.06-1.42c0-.1,0-.19,0-.27l.1-.1.06-.06h0l0,0H75.3v0l0,0-8.17-.07-.1.11c-.22.25-.33.6.07,1.25s.06.69-.45.7c-2.38.07-3.12,1.61-3.3,3.54a3.08,3.08,0,0,0,.72,1.2c.55.69.48.75-.28.45-2.72-1.07-3.23-.55-1.91,1.73.26.44.4.66-.23.48-2.8-.78-3-.21-1.18,2.58-1.29-.49-2.39-.81-2.8-.32s.8,1.89.74,2.42-2.1-.47-2.61,0,1.57,2.58.53,2.41c-1.28-.2-2.15-.17-2.52.39a11,11,0,0,1-1.24,1.71c-.62.66-.57,1.63,1.48,3.6-4.26-1.6-4.84-.78-2,2.53-4.09-1.37-4.54-.67-1.77,2.74-1.3-.54-2.71-1-3-.62a3.9,3.9,0,0,1-.59.7l-6.33,6.24,11.08,2.13c1.23.24,2.48.75,3.59-1.25.12-.22.22-.37.36-.07,1.07,2.3,1.91,1.41,2.58-1.46.42,1.54.86,2.58,1.44,2.56,1.06,0,2.18.55,3.16-.24a2,2,0,0,1,2.61,0,2.53,2.53,0,0,0,3-.15,2,2,0,0,1,2.66-.05,2.29,2.29,0,0,0,3-.1,2.07,2.07,0,0,1,2.69-.09,2.52,2.52,0,0,0,2.92-.07,2.16,2.16,0,0,1,2.77-.08c.93.6,1.9,0,2.86,0,.57,0,1-.55,1.32-2.09.19-1,.29-.89.57,0,.92,2.87,1.87,2.85,2.6-.12.24-1,.34-.81.57.07.37,1.39.84,1.9,1.38,2,.75.13,1.21-3.15,1.53-2.59.59,1,1.08,2.57,1.81,2.48.92-.12,1.9.39,2.77-.25s1.73-1,2.64,0c0,0,.05,0,.08,0,.59,0,.88-2.31,1.28-2.21s.87,2.21,1.5,2.13c1.06-.12,2.17.43,3.16-.29a1.88,1.88,0,0,1,2.45-.06,2.57,2.57,0,0,0,3.16-.09,2,2,0,0,1,2.53-.11,2.45,2.45,0,0,0,3.08-.08c.91-.79,1.76-.6,2.85-.07a3.08,3.08,0,0,0,3.46-.44c1.17-1,2.35-1.09,4-1.18,1.54-.09,2.86-1.37,4-2.58.11-.12.1-.33.17-.46l-3.9-3.64h0l3.9,3.64a2.65,2.65,0,0,0,.6-.51c1.57-1.78,2.69-4,2.1-6A14.36,14.36,0,0,1,133.85,448.08ZM73.61,432.53l.07-.08c.34-.4.69-.79,1.05-1.16l-1.44,1.6.3-.33Z" style="fill:#fff;"/><polygon points="75.38 430.57 75.38 430.57 75.38 430.57 75.38 430.57" style="fill:#fff;"/><path d="M75.51,430.54h0l-.07.06h.12Z" style="fill:#fff;"/><path d="M75.38,430.57h0S75.41,430.54,75.38,430.57Z" style="fill:#fff;"/></g></g></svg>
