<svg xmlns="http://www.w3.org/2000/svg" xmlns:xlink="http://www.w3.org/1999/xlink" width="113" height="33" viewBox="0 0 113 33">
    <defs>
        <path id="a" d="M.325.089h70.484V33H.325z"/>
    </defs>
    <g fill="none" fill-rule="evenodd">
        <g transform="translate(42)">
            <mask id="b" fill="#fff">
                <use xlink:href="#a"/>
            </mask>
            <path fill="#171A44" d="M3.63 6.728c1.933 0 3.34-1.491 3.34-3.302C6.97 1.58 5.562.089 3.63.089 1.695.089.324 1.579.324 3.426c0 1.81 1.37 3.302 3.304 3.302zM.921 25.367h5.38V8.255H.921v17.112zm9.809-17.112v17.112h5.378V16.42c0-2.627 1.125-4.047 3.27-4.047 2.18 0 2.987 1.313 2.987 4.189v8.805h5.415v-10.58c0-4.651-2.075-6.994-6.188-6.994-2.566 0-4.5 1.03-5.484 2.946V8.255h-5.378zm38.177 0H43.53v8.485c0 2.627-1.09 4.331-3.27 4.331-2.25 0-2.988-1.491-2.988-3.692V8.255h-5.379v9.94c0 4.26 1.934 7.172 6.258 7.172 2.566 0 4.43-1.03 5.379-2.84v2.662c0 2.663-1.301 3.835-3.27 3.835-2.039 0-2.847-.852-2.953-2.308h-5.414a6.104 6.104 0 0 0 2.11 4.509C35.409 32.397 37.378 33 40.26 33c2.848 0 4.711-.675 6.223-1.988 1.441-1.314 2.425-3.408 2.425-6.178V8.254zm12.515 17.644c5.801 0 9.386-3.87 9.386-9.088 0-5.22-3.585-9.053-9.386-9.053-5.835 0-9.421 3.834-9.421 9.053 0 5.218 3.586 9.088 9.421 9.088zm0-4.615c-2.566 0-4.043-1.882-4.043-4.473 0-2.592 1.477-4.474 4.043-4.474 2.532 0 4.043 1.882 4.043 4.474 0 2.591-1.511 4.473-4.043 4.473z" mask="url(#b)"/>
        </g>
        <path fill="#3860FF" d="M0 15C0 23.1 5.899 29 14 29c8.101 0 14-5.899 14-14 0-8.102-5.899-14-14-14C5.899 1 0 6.898 0 15m2.65 0C2.65 8.205 7.393 3.538 14 3.538c6.645 0 11.35 4.667 11.35 11.462S20.644 26.46 14 26.46C7.392 26.461 2.65 21.795 2.65 15m19.377 0c0-4.928-3.174-8.064-8.027-8.064S5.973 10.072 5.973 15 9.147 23.064 14 23.064s8.027-3.136 8.027-8.064m-2.651 0c0 3.397-2.165 5.525-5.376 5.525-3.173 0-5.376-2.128-5.376-5.525 0-3.323 2.203-5.525 5.376-5.525 3.21 0 5.376 2.202 5.376 5.525m-7.504 0c0 1.195.859 2.128 2.128 2.128 1.27 0 2.165-.933 2.165-2.128S15.27 12.835 14 12.835c-1.27 0-2.128.97-2.128 2.165"/>
    </g>
</svg>
