<?xml version="1.0" encoding="utf-8"?>
<!-- Generator: Adobe Illustrator 16.0.0, SVG Export Plug-In . SVG Version: 6.00 Build 0)  -->
<!DOCTYPE svg PUBLIC "-//W3C//DTD SVG 1.1//EN" "http://www.w3.org/Graphics/SVG/1.1/DTD/svg11.dtd">
<svg version="1.1" id="Calque_1" xmlns="http://www.w3.org/2000/svg" xmlns:xlink="http://www.w3.org/1999/xlink" x="0px" y="0px"
	 width="960.21px" height="473.656px" viewBox="0 0 960.21 473.656" enable-background="new 0 0 960.21 473.656"
	 xml:space="preserve">
<g>
	<g>
		<g>
			<g>
				<rect id="rect-0" x="128.592" fill="#F2F2F2" width="21.997" height="42.771"/>
			</g>
		</g>
		<g opacity="0.2">
			<g>
				<path id="path-1" fill="#FFFFFF" d="M0,259l464-46L150.589,43.399h-21.997L0,259z"/>
			</g>
		</g>
	</g>
	<g>
		<g transform="translate(815, 253.5) scale(-1, 1) translate(-815, -253.5)">
			<g transform="translate(749, 34)">
				<g>
					<g>
						<g>
							<path id="path-2" fill="#B28B67" d="M78.713,43.79c5.795,10.802,5.105,38.199-2.383,40.13
								c-2.988,0.77-9.35-1.116-15.826-5.02l4.064,28.756h-24l8.264-38.51c-4.609-5.408-7.729-12.037-7.207-19.465
								C43.127,28.281,72.918,32.989,78.713,43.79z"/>
						</g>
					</g>
				</g>
			</g>
			<g transform="translate(893, 480)">
				<g>
					<g>
						<path id="path-4" fill="#997659" d="M-105.228-245.344l49.082,124.227l32.918,105.023h13l-50.326-229.25H-105.228z"/>
					</g>
				</g>
				<g>
					<g>
						<path id="path-5" fill="#B28B67" d="M-115.113-245.344c-0.521,43.654-8.145,102.428-9.361,105.147
							c-1.219,2.723-84.078,69.209-84.078,69.209l8.953,9.581c0,0,97.768-57.005,102.291-64.606
							c4.523-7.604,19.254-77.568,31.08-119.331H-115.113z"/>
					</g>
				</g>
				<g transform="translate(51.5, 189) rotate(50.000017878208354) translate(-51.5, -189) translate(21, 169)">
					<g>
						<g>
							<path id="path-6" fill="#FF3366" d="M-336.299,49.909c-1.042-0.533-2.317-0.063-2.763,1.019c0,0-1.656,4.029-1.656,6.734
								c0,2.705,0.901,7.895,0.901,7.895c3.137-0.001,56.401,0,56.401,0s2.199-7.268-2.538-7.849
								c-4.738-0.579-7.871-1.046-7.871-1.046l-26.214-11.686c-0.514-0.23-1.117,0.011-1.33,0.531l-1.686,4.088
								c0,0-4.384,2.045-7.126,2.047C-332.922,51.641-336.299,49.909-336.299,49.909z"/>
						</g>
					</g>
				</g>
				<g transform="translate(208, 199)">
					<g>
						<g>
							<path id="path-7" fill="#FF3366" d="M-233.812-220.991c-1.041-0.535-2.316-0.062-2.764,1.021c0,0-1.654,4.027-1.654,6.732
								s0.9,7.896,0.9,7.896c3.139,0,56.402,0,56.402,0s2.199-7.27-2.539-7.849c-4.736-0.58-7.869-1.047-7.869-1.047l-26.215-11.687
								c-0.516-0.229-1.117,0.012-1.332,0.532l-1.686,4.088c0,0-4.385,2.046-7.127,2.046
								C-230.435-219.259-233.812-220.991-233.812-220.991z"/>
						</g>
					</g>
				</g>
				<g>
					<g>
						<path id="path-8" fill="#5020EE" d="M-72.228-26.911l61.805-6.707l-45.805-211.726h-55.355L-72.228-26.911z"/>
					</g>
				</g>
				<g>
					<g>
						<path id="path-9" fill="#5020EE" d="M-195.769-86.443l40.539,47.985c0,0,64.051-69.954,74.684-91.29
							s19.115-115.596,19.115-115.596h-62.32c0,0-4.635,82.926-6.248,86.785C-131.613-154.7-195.769-86.443-195.769-86.443z"/>
					</g>
				</g>
			</g>
			<g transform="translate(920, 366)">
				<g>
					<g>
						<path id="path-10" fill="#B28B67" d="M-47.773-243.003l37.904-11.378l20.008-12.074c1.822-0.343,4.842-0.144,1.07,4.135
							c-3.771,4.277-7.547,8.947-6.471,10.741c1.078,1.794,5,0.441,6.137,3.283c0.756,1.895-5.744,3.251-19.5,4.07l-29.471,17.345
							L-47.773-243.003L-47.773-243.003z M-51.123-176.176l31.898,23.424c8.65,2.334,15.879,5.239,21.684,8.713
							c1.371,1.25,3.029,3.78-2.658,3.343c-5.686-0.437-11.688-0.642-12.473,1.298c-0.342,0.85,0.123,1.771,0.625,2.76
							c0.641,1.269,1.338,2.646,0.447,4.116l-0.24,0.253l-14.748-13.377l-31.586-13.099L-51.123-176.176L-51.123-176.176z"/>
					</g>
				</g>
				
					<g transform="translate(169.09247098701377, 54.83177158702706) rotate(15.000005363462504) translate(-169.09247098701377, -54.83177158702706)">
					<g>
						<path id="path-11" fill="#E0E0E0" d="M-167.593-159.417c25.162,26.79,55.852,44.272,97.707,59.778l-9.295,18.586
							c-43.184-4.072-66.273-7.323-84.371-34.156c-4.542-6.734-12.666-29.904-17.532-41.938L-167.593-159.417z"/>
					</g>
				</g>
				<g>
					<g>
						<path id="path-12" fill="#F2F2F2" d="M-149.23-131.344h77c0,0-26.162-79.792-26.729-109.528
							c-0.02-1.011-1.887-2.792-2.713-2.559c-9.059,2.559-19.387-1.913-19.387-1.913
							C-139.312-215.985-145.625-179.839-149.23-131.344z"/>
					</g>
				</g>
				<g>
					<g>
						<path id="path-13" fill="#F2F2F2" d="M-101.744-200.553c12.027,51.586,11.473,93.814-15.078,93.814h-41.057
							c-6.521-43.822,10.617-104.583,26.504-135.229c0.607-1.171,1.898-3.377,4.941-3.377h11.93
							c0.006,0.016,0.012,0.031,0.016,0.048c3.592,0.029,7.545,0.16,11.826,0.303c22.041,0.731,52.773,1.752,87.355-9.351
							l4.076,20.373C-42.443-213.896-74.048-198.345-101.744-200.553z"/>
					</g>
				</g>
			</g>
		</g>
		<g>
			<g>
				<path id="path-3" fill="#FF3366" d="M812.746,66.361c3.164-0.52,11.68-0.875,13.252-0.875c1.002,0,2.09,0.229,2.686-0.693
					c0.486-0.754,0.309-2.03,0.453-2.906c0.168-1.018,0.408-2.021,0.65-3.023c0.689-2.851,1.732-5.562,3.191-8.109
					c2.738-4.776,6.75-8.518,11.814-10.695c5.592-2.404,11.92-2.955,17.936-2.467c6.439,0.521,12.266,2.646,18.344,4.646
					c5.793,1.906,11.857,2.656,17.916,1.725c6.104-0.938,10.715-4.245,15.863-7.385c5.27-3.215,11.293-5.316,17.523-4.834
					c5.814,0.452,11.176,2.854,15.982,6.061c4.5,3.002,8.213,6.613,10.311,11.695c2.254,5.467,2.252,11.468-1.455,16.299
					c-5.375,7.004-15.354,8.814-23.654,8.635c-4.801-0.104-9.518-0.98-14.051-2.575c-6.045-2.126-11.27-5.73-16.926-8.654
					c-2.654-1.372-5.396-2.499-8.273-3.312c-2.791-0.788-5.539-1.149-8.064,0.537c-2.674,1.783-5.068,3.535-8.125,4.65
					c-2.936,1.072-6.041,1.671-9.166,1.646c-6.082-0.047-12.076-1.941-17.98-3.211c-4.816-1.034-9.969-2.065-14.879-1.07
					c-2.049,0.414-5.041,1.271-5.781,3.4c12.453,2.258,17.346,17.66,13.834,28.967c-1.895,6.104-13.285,13.237-17.715,10.029
					c-2.807-2.033-1.102-4.701,0-6.463c2.111-3.373,2.834-7.707-1.072-10.055c-3.369-2.025-6.912,2.784-6.98,2.779
					c-0.926-0.073-8.928-4.6-14.441-11.203c-5.439,0.322-6.266-3.265-4.967-6.197C800.269,70.769,808.376,67.078,812.746,66.361z"/>
			</g>
		</g>
	</g>
</g>
</svg>
